<?xml version="1.0" encoding="UTF-8" standalone="no"?>
<!DOCTYPE svg PUBLIC "-//W3C//DTD SVG 1.1//EN"
 "http://www.w3.org/Graphics/SVG/1.1/DTD/svg11.dtd">
<!-- Generated by graphviz version 2.43.0 (0)
 -->
<!-- Title: guanaqo::TypeErased::operator= Pages: 1 -->
<svg width="644pt" height="110pt"
 viewBox="0.00 0.00 644.00 110.00" xmlns="http://www.w3.org/2000/svg" xmlns:xlink="http://www.w3.org/1999/xlink">
<g id="graph0" class="graph" transform="scale(1 1) rotate(0) translate(4 106)">
<title>guanaqo::TypeErased::operator=</title>
<!-- Node1 -->
<g id="Node000001" class="node">
<title>Node1</title>
<g id="a_Node000001"><a xlink:title="Move assignment.">
<polygon fill="#999999" stroke="#666666" points="120,-78 0,-78 0,-48 120,-48 120,-78"/>
<text text-anchor="start" x="8" y="-66" font-family="Helvetica,sans-Serif" font-size="10.00">guanaqo::TypeErased</text>
<text text-anchor="middle" x="60" y="-55" font-family="Helvetica,sans-Serif" font-size="10.00">::operator=</text>
</a>
</g>
</g>
<!-- Node2 -->
<g id="Node000002" class="node">
<title>Node2</title>
<g id="a_Node000002"><a xlink:href="classguanaqo_1_1TypeErased.html#a32b0f63d3c9a366264d6c3365db9ace6" target="_top" xlink:title="Default constructor.">
<polygon fill="white" stroke="#666666" points="276,-102 156,-102 156,-72 276,-72 276,-102"/>
<text text-anchor="start" x="164" y="-90" font-family="Helvetica,sans-Serif" font-size="10.00">guanaqo::TypeErased</text>
<text text-anchor="middle" x="216" y="-79" font-family="Helvetica,sans-Serif" font-size="10.00">::TypeErased</text>
</a>
</g>
</g>
<!-- Node1&#45;&gt;Node2 -->
<g id="edge1_Node000001_Node000002" class="edge">
<title>Node1&#45;&gt;Node2</title>
<g id="a_edge1_Node000001_Node000002"><a xlink:title=" ">
<path fill="none" stroke="#63b8ff" d="M120.1,-72.21C128.51,-73.52 137.23,-74.88 145.81,-76.22"/>
<polygon fill="#63b8ff" stroke="#63b8ff" points="145.38,-79.69 155.8,-77.77 146.46,-72.78 145.38,-79.69"/>
</a>
</g>
</g>
<!-- Node3 -->
<g id="Node000003" class="node">
<title>Node3</title>
<g id="a_Node000003"><a xlink:href="classguanaqo_1_1TypeErased.html#ad922828914ba7d9a631f9538a31b7b38" target="_top" xlink:title="Destroy the type&#45;erased object (if not empty), and deallocate the memory if necessary.">
<polygon fill="white" stroke="#666666" points="276,-54 156,-54 156,-24 276,-24 276,-54"/>
<text text-anchor="start" x="164" y="-42" font-family="Helvetica,sans-Serif" font-size="10.00">guanaqo::TypeErased</text>
<text text-anchor="middle" x="216" y="-31" font-family="Helvetica,sans-Serif" font-size="10.00">::cleanup</text>
</a>
</g>
</g>
<!-- Node1&#45;&gt;Node3 -->
<g id="edge2_Node000001_Node000003" class="edge">
<title>Node1&#45;&gt;Node3</title>
<g id="a_edge2_Node000001_Node000003"><a xlink:title=" ">
<path fill="none" stroke="#63b8ff" d="M120.1,-53.79C128.51,-52.48 137.23,-51.12 145.81,-49.78"/>
<polygon fill="#63b8ff" stroke="#63b8ff" points="146.46,-53.22 155.8,-48.23 145.38,-46.31 146.46,-53.22"/>
</a>
</g>
</g>
<!-- Node4 -->
<g id="Node000004" class="node">
<title>Node4</title>
<g id="a_Node000004"><a xlink:href="classguanaqo_1_1TypeErased.html#a61bea2c086b48e820f203d3248872eaf" target="_top" xlink:title="Deallocate the memory without invoking the destructor.">
<polygon fill="white" stroke="#666666" points="442.5,-78 322.5,-78 322.5,-48 442.5,-48 442.5,-78"/>
<text text-anchor="start" x="330.5" y="-66" font-family="Helvetica,sans-Serif" font-size="10.00">guanaqo::TypeErased</text>
<text text-anchor="middle" x="382.5" y="-55" font-family="Helvetica,sans-Serif" font-size="10.00">::deallocate</text>
</a>
</g>
</g>
<!-- Node3&#45;&gt;Node4 -->
<g id="edge3_Node000003_Node000004" class="edge">
<title>Node3&#45;&gt;Node4</title>
<g id="a_edge3_Node000003_Node000004"><a xlink:title=" ">
<path fill="none" stroke="#63b8ff" d="M276.39,-47.66C288.11,-49.37 300.5,-51.18 312.5,-52.93"/>
<polygon fill="#63b8ff" stroke="#63b8ff" points="312.07,-56.41 322.47,-54.39 313.08,-49.48 312.07,-56.41"/>
</a>
</g>
</g>
<!-- Node6 -->
<g id="Node000006" class="node">
<title>Node6</title>
<g id="a_Node000006"><a xlink:href="classguanaqo_1_1TypeErased.html#ad3e015424b6dd535594aeb9606466245" target="_top" xlink:title="Check if this wrapper owns the storage of the wrapped object, or whether it simply stores a reference...">
<polygon fill="white" stroke="#666666" points="453,-30 312,-30 312,0 453,0 453,-30"/>
<text text-anchor="start" x="320" y="-18" font-family="Helvetica,sans-Serif" font-size="10.00">guanaqo::TypeErased</text>
<text text-anchor="middle" x="382.5" y="-7" font-family="Helvetica,sans-Serif" font-size="10.00">::owns_referenced_object</text>
</a>
</g>
</g>
<!-- Node3&#45;&gt;Node6 -->
<g id="edge5_Node000003_Node000006" class="edge">
<title>Node3&#45;&gt;Node6</title>
<g id="a_edge5_Node000003_Node000006"><a xlink:title=" ">
<path fill="none" stroke="#63b8ff" d="M276.39,-30.34C284.66,-29.13 293.26,-27.87 301.83,-26.62"/>
<polygon fill="#63b8ff" stroke="#63b8ff" points="302.45,-30.07 311.84,-25.16 301.44,-23.14 302.45,-30.07"/>
</a>
</g>
</g>
<!-- Node5 -->
<g id="Node000005" class="node">
<title>Node5</title>
<g id="a_Node000005"><a xlink:href="classguanaqo_1_1TypeErased.html#ac8f39b0ccb2a310de00de9637f6aaf97" target="_top" xlink:title=" ">
<polygon fill="white" stroke="#666666" points="636,-54 489,-54 489,-24 636,-24 636,-54"/>
<text text-anchor="start" x="497" y="-42" font-family="Helvetica,sans-Serif" font-size="10.00">guanaqo::TypeErased</text>
<text text-anchor="middle" x="562.5" y="-31" font-family="Helvetica,sans-Serif" font-size="10.00">::size_indicates_ownership</text>
</a>
</g>
</g>
<!-- Node4&#45;&gt;Node5 -->
<g id="edge4_Node000004_Node000005" class="edge">
<title>Node4&#45;&gt;Node5</title>
<g id="a_edge4_Node000004_Node000005"><a xlink:title=" ">
<path fill="none" stroke="#63b8ff" d="M442.77,-55.01C454.31,-53.45 466.6,-51.8 478.73,-50.16"/>
<polygon fill="#63b8ff" stroke="#63b8ff" points="479.42,-53.6 488.86,-48.79 478.49,-46.66 479.42,-53.6"/>
</a>
</g>
</g>
<!-- Node6&#45;&gt;Node5 -->
<g id="edge6_Node000006_Node000005" class="edge">
<title>Node6&#45;&gt;Node5</title>
<g id="a_edge6_Node000006_Node000005"><a xlink:title=" ">
<path fill="none" stroke="#63b8ff" d="M453.08,-24.38C461.49,-25.52 470.15,-26.68 478.72,-27.84"/>
<polygon fill="#63b8ff" stroke="#63b8ff" points="478.36,-31.32 488.74,-29.19 479.29,-24.38 478.36,-31.32"/>
</a>
</g>
</g>
</g>
</svg>
