<?xml version="1.0" encoding="UTF-8" standalone="no"?>
<!DOCTYPE svg PUBLIC "-//W3C//DTD SVG 1.1//EN"
 "http://www.w3.org/Graphics/SVG/1.1/DTD/svg11.dtd">
<!-- Generated by graphviz version 2.43.0 (0)
 -->
<!-- Title: guanaqo::PrintMatrixView::rows Pages: 1 -->
<svg width="628pt" height="143pt"
 viewBox="0.00 0.00 628.00 143.00" xmlns="http://www.w3.org/2000/svg" xmlns:xlink="http://www.w3.org/1999/xlink">
<g id="graph0" class="graph" transform="scale(1 1) rotate(0) translate(4 139)">
<title>guanaqo::PrintMatrixView::rows</title>
<!-- Node1 -->
<g id="Node000001" class="node">
<title>Node1</title>
<g id="a_Node000001"><a xlink:title=" ">
<polygon fill="#999999" stroke="#666666" points="620,-79.5 477,-79.5 477,-49.5 620,-49.5 620,-79.5"/>
<text text-anchor="start" x="485" y="-67.5" font-family="Helvetica,sans-Serif" font-size="10.00">guanaqo::PrintMatrixView</text>
<text text-anchor="middle" x="548.5" y="-56.5" font-family="Helvetica,sans-Serif" font-size="10.00">::rows</text>
</a>
</g>
</g>
<!-- Node2 -->
<g id="Node000002" class="node">
<title>Node2</title>
<g id="a_Node000002"><a xlink:href="namespaceguanaqo_1_1detail.html#a88c9fe1314e5663d4c70ce10355c6e56" target="_top" xlink:title=" ">
<polygon fill="white" stroke="#666666" points="441,-101.5 320,-101.5 320,-71.5 441,-71.5 441,-101.5"/>
<text text-anchor="start" x="328" y="-89.5" font-family="Helvetica,sans-Serif" font-size="10.00">guanaqo::detail::print</text>
<text text-anchor="middle" x="380.5" y="-78.5" font-family="Helvetica,sans-Serif" font-size="10.00">_csv_impl</text>
</a>
</g>
</g>
<!-- Node1&#45;&gt;Node2 -->
<g id="edge1_Node000001_Node000002" class="edge">
<title>Node1&#45;&gt;Node2</title>
<g id="a_edge1_Node000001_Node000002"><a xlink:title=" ">
<path fill="none" stroke="#63b8ff" d="M466.6,-75.22C458.03,-76.36 449.44,-77.5 441.18,-78.59"/>
<polygon fill="#63b8ff" stroke="#63b8ff" points="467.17,-78.68 476.62,-73.89 466.25,-71.74 467.17,-78.68"/>
</a>
</g>
</g>
<!-- Node6 -->
<g id="Node000006" class="node">
<title>Node6</title>
<g id="a_Node000006"><a xlink:href="namespaceguanaqo_1_1detail.html#ace413852839567e1ea2455dfddde9c73" target="_top" xlink:title=" ">
<polygon fill="white" stroke="#666666" points="284,-58.5 163,-58.5 163,-28.5 284,-28.5 284,-58.5"/>
<text text-anchor="start" x="171" y="-46.5" font-family="Helvetica,sans-Serif" font-size="10.00">guanaqo::detail::print</text>
<text text-anchor="middle" x="223.5" y="-35.5" font-family="Helvetica,sans-Serif" font-size="10.00">_python_impl</text>
</a>
</g>
</g>
<!-- Node1&#45;&gt;Node6 -->
<g id="edge8_Node000001_Node000006" class="edge">
<title>Node1&#45;&gt;Node6</title>
<g id="a_edge8_Node000001_Node000006"><a xlink:title=" ">
<path fill="none" stroke="#63b8ff" d="M466.61,-59.24C409.93,-55.56 335.43,-50.71 284.12,-47.38"/>
<polygon fill="#63b8ff" stroke="#63b8ff" points="466.41,-62.74 476.62,-59.89 466.86,-55.75 466.41,-62.74"/>
</a>
</g>
</g>
<!-- Node3 -->
<g id="Node000003" class="node">
<title>Node3</title>
<g id="a_Node000003"><a xlink:href="namespaceguanaqo_1_1detail.html#a8c302199bfdbe4134d5a49129ee1aaf4" target="_top" xlink:title=" ">
<polygon fill="white" stroke="#666666" points="284,-106.5 163,-106.5 163,-76.5 284,-76.5 284,-106.5"/>
<text text-anchor="start" x="171" y="-94.5" font-family="Helvetica,sans-Serif" font-size="10.00">guanaqo::detail::print</text>
<text text-anchor="middle" x="223.5" y="-83.5" font-family="Helvetica,sans-Serif" font-size="10.00">_matlab_impl</text>
</a>
</g>
</g>
<!-- Node2&#45;&gt;Node3 -->
<g id="edge2_Node000002_Node000003" class="edge">
<title>Node2&#45;&gt;Node3</title>
<g id="a_edge2_Node000002_Node000003"><a xlink:title=" ">
<path fill="none" stroke="#63b8ff" d="M309.34,-88.76C300.88,-89.04 292.3,-89.31 284.01,-89.58"/>
<polygon fill="#63b8ff" stroke="#63b8ff" points="309.69,-92.25 319.57,-88.43 309.47,-85.26 309.69,-92.25"/>
</a>
</g>
</g>
<!-- Node2&#45;&gt;Node6 -->
<g id="edge5_Node000002_Node000006" class="edge">
<title>Node2&#45;&gt;Node6</title>
<g id="a_edge5_Node000002_Node000006"><a xlink:title=" ">
<path fill="none" stroke="#63b8ff" d="M315.58,-68.77C303.32,-65.37 290.6,-61.84 278.68,-58.53"/>
<polygon fill="#63b8ff" stroke="#63b8ff" points="314.72,-72.16 325.29,-71.46 316.59,-65.41 314.72,-72.16"/>
</a>
</g>
</g>
<!-- Node4 -->
<g id="Node000004" class="node">
<title>Node4</title>
<g id="a_Node000004"><a xlink:href="group__io.html#ga706189963835322b0638082bb4ee4394" target="_top" xlink:title=" ">
<polygon fill="white" stroke="#666666" points="127,-135 0,-135 0,-116 127,-116 127,-135"/>
<text text-anchor="middle" x="63.5" y="-123" font-family="Helvetica,sans-Serif" font-size="10.00">guanaqo::print_matlab</text>
</a>
</g>
</g>
<!-- Node3&#45;&gt;Node4 -->
<g id="edge3_Node000003_Node000004" class="edge">
<title>Node3&#45;&gt;Node4</title>
<g id="a_edge3_Node000003_Node000004"><a xlink:title=" ">
<path fill="none" stroke="#63b8ff" d="M152.62,-106.54C137.82,-109.72 122.59,-113 109.04,-115.91"/>
<polygon fill="#63b8ff" stroke="#63b8ff" points="153.73,-109.88 162.77,-104.35 152.25,-103.04 153.73,-109.88"/>
</a>
</g>
</g>
<!-- Node5 -->
<g id="Node000005" class="node">
<title>Node5</title>
<g id="a_Node000005"><a xlink:href="group__io.html#ga89b21ad0321c9a7125cf0cae57987307" target="_top" xlink:title=" ">
<polygon fill="white" stroke="#666666" points="127,-98 0,-98 0,-79 127,-79 127,-98"/>
<text text-anchor="middle" x="63.5" y="-86" font-family="Helvetica,sans-Serif" font-size="10.00">guanaqo::print_matlab</text>
</a>
</g>
</g>
<!-- Node3&#45;&gt;Node5 -->
<g id="edge4_Node000003_Node000005" class="edge">
<title>Node3&#45;&gt;Node5</title>
<g id="a_edge4_Node000003_Node000005"><a xlink:title=" ">
<path fill="none" stroke="#63b8ff" d="M152.57,-90.17C144.12,-90.01 135.54,-89.85 127.21,-89.69"/>
<polygon fill="#63b8ff" stroke="#63b8ff" points="152.7,-93.68 162.77,-90.37 152.84,-86.68 152.7,-93.68"/>
</a>
</g>
</g>
<!-- Node7 -->
<g id="Node000007" class="node">
<title>Node7</title>
<g id="a_Node000007"><a xlink:href="group__io.html#gaf6fcae141f820494c73f5d2d58a6daf1" target="_top" xlink:title=" ">
<polygon fill="white" stroke="#666666" points="126.5,-56 0.5,-56 0.5,-37 126.5,-37 126.5,-56"/>
<text text-anchor="middle" x="63.5" y="-44" font-family="Helvetica,sans-Serif" font-size="10.00">guanaqo::print_python</text>
</a>
</g>
</g>
<!-- Node6&#45;&gt;Node7 -->
<g id="edge6_Node000006_Node000007" class="edge">
<title>Node6&#45;&gt;Node7</title>
<g id="a_edge6_Node000006_Node000007"><a xlink:title=" ">
<path fill="none" stroke="#63b8ff" d="M152.69,-44.83C144.03,-44.99 135.22,-45.16 126.69,-45.32"/>
<polygon fill="#63b8ff" stroke="#63b8ff" points="152.84,-48.32 162.77,-44.63 152.7,-41.32 152.84,-48.32"/>
</a>
</g>
</g>
<!-- Node8 -->
<g id="Node000008" class="node">
<title>Node8</title>
<g id="a_Node000008"><a xlink:href="group__io.html#ga756d1c6bfac4b93da66e64e5f9c2b463" target="_top" xlink:title=" ">
<polygon fill="white" stroke="#666666" points="126.5,-19 0.5,-19 0.5,0 126.5,0 126.5,-19"/>
<text text-anchor="middle" x="63.5" y="-7" font-family="Helvetica,sans-Serif" font-size="10.00">guanaqo::print_python</text>
</a>
</g>
</g>
<!-- Node6&#45;&gt;Node8 -->
<g id="edge7_Node000006_Node000008" class="edge">
<title>Node6&#45;&gt;Node8</title>
<g id="a_edge7_Node000006_Node000008"><a xlink:title=" ">
<path fill="none" stroke="#63b8ff" d="M152.62,-28.46C137.82,-25.28 122.59,-22 109.04,-19.09"/>
<polygon fill="#63b8ff" stroke="#63b8ff" points="152.25,-31.96 162.77,-30.65 153.73,-25.12 152.25,-31.96"/>
</a>
</g>
</g>
</g>
</svg>
