<?xml version="1.0" encoding="UTF-8" standalone="no"?>
<!DOCTYPE svg PUBLIC "-//W3C//DTD SVG 1.1//EN"
 "http://www.w3.org/Graphics/SVG/1.1/DTD/svg11.dtd">
<!-- Generated by graphviz version 2.43.0 (0)
 -->
<!-- Title: include/guanaqo/dl&#45;flags.hpp Pages: 1 -->
<svg width="246pt" height="148pt"
 viewBox="0.00 0.00 246.00 148.00" xmlns="http://www.w3.org/2000/svg" xmlns:xlink="http://www.w3.org/1999/xlink">
<g id="graph0" class="graph" transform="scale(1 1) rotate(0) translate(4 144)">
<title>include/guanaqo/dl&#45;flags.hpp</title>
<!-- Node1 -->
<g id="Node000001" class="node">
<title>Node1</title>
<g id="a_Node000001"><a xlink:title="Flags wrapper for dynamic library loading.">
<polygon fill="#999999" stroke="#666666" points="183.5,-140 74.5,-140 74.5,-110 183.5,-110 183.5,-140"/>
<text text-anchor="start" x="82.5" y="-128" font-family="Helvetica,sans-Serif" font-size="10.00">include/guanaqo/dl</text>
<text text-anchor="middle" x="129" y="-117" font-family="Helvetica,sans-Serif" font-size="10.00">&#45;flags.hpp</text>
</a>
</g>
</g>
<!-- Node2 -->
<g id="Node000002" class="node">
<title>Node2</title>
<g id="a_Node000002"><a xlink:href="dl_8hpp.html" target="_top" xlink:title="Dynamic library loading and symbol lookup.">
<polygon fill="white" stroke="#666666" points="130,-74 0,-74 0,-55 130,-55 130,-74"/>
<text text-anchor="middle" x="65" y="-62" font-family="Helvetica,sans-Serif" font-size="10.00">include/guanaqo/dl.hpp</text>
</a>
</g>
</g>
<!-- Node1&#45;&gt;Node2 -->
<g id="edge1_Node000001_Node000002" class="edge">
<title>Node1&#45;&gt;Node2</title>
<g id="a_edge1_Node000001_Node000002"><a xlink:title=" ">
<path fill="none" stroke="#63b8ff" d="M105.98,-102.96C95.17,-93.07 82.87,-81.83 74.59,-74.27"/>
<polygon fill="#63b8ff" stroke="#63b8ff" points="103.76,-105.68 113.51,-109.84 108.49,-100.51 103.76,-105.68"/>
</a>
</g>
</g>
<!-- Node4 -->
<g id="Node000004" class="node">
<title>Node4</title>
<g id="a_Node000004"><a xlink:href="dl-flags_8cpp.html" target="_top" xlink:title=" ">
<polygon fill="white" stroke="#666666" points="238,-74 148,-74 148,-55 238,-55 238,-74"/>
<text text-anchor="middle" x="193" y="-62" font-family="Helvetica,sans-Serif" font-size="10.00">src/dl&#45;flags.cpp</text>
</a>
</g>
</g>
<!-- Node1&#45;&gt;Node4 -->
<g id="edge3_Node000001_Node000004" class="edge">
<title>Node1&#45;&gt;Node4</title>
<g id="a_edge3_Node000001_Node000004"><a xlink:title=" ">
<path fill="none" stroke="#63b8ff" d="M152.02,-102.96C162.83,-93.07 175.13,-81.83 183.41,-74.27"/>
<polygon fill="#63b8ff" stroke="#63b8ff" points="149.51,-100.51 144.49,-109.84 154.24,-105.68 149.51,-100.51"/>
</a>
</g>
</g>
<!-- Node3 -->
<g id="Node000003" class="node">
<title>Node3</title>
<g id="a_Node000003"><a xlink:href="dl_8cpp.html" target="_top" xlink:title=" ">
<polygon fill="white" stroke="#666666" points="96.5,-19 33.5,-19 33.5,0 96.5,0 96.5,-19"/>
<text text-anchor="middle" x="65" y="-7" font-family="Helvetica,sans-Serif" font-size="10.00">src/dl.cpp</text>
</a>
</g>
</g>
<!-- Node2&#45;&gt;Node3 -->
<g id="edge2_Node000002_Node000003" class="edge">
<title>Node2&#45;&gt;Node3</title>
<g id="a_edge2_Node000002_Node000003"><a xlink:title=" ">
<path fill="none" stroke="#63b8ff" d="M65,-44.66C65,-35.93 65,-25.99 65,-19.09"/>
<polygon fill="#63b8ff" stroke="#63b8ff" points="61.5,-44.75 65,-54.75 68.5,-44.75 61.5,-44.75"/>
</a>
</g>
</g>
</g>
</svg>
