<?xml version="1.0" encoding="UTF-8" standalone="no"?>
<!DOCTYPE svg PUBLIC "-//W3C//DTD SVG 1.1//EN"
 "http://www.w3.org/Graphics/SVG/1.1/DTD/svg11.dtd">
<!-- Generated by graphviz version 2.43.0 (0)
 -->
<!-- Title: include/guanaqo/from_chars&#45;wrapper.hpp Pages: 1 -->
<svg width="251pt" height="93pt"
 viewBox="0.00 0.00 251.00 93.00" xmlns="http://www.w3.org/2000/svg" xmlns:xlink="http://www.w3.org/1999/xlink">

<svg id="main" version="1.1" xmlns="http://www.w3.org/2000/svg" xmlns:xlink="http://www.w3.org/1999/xlink" xml:space="preserve">

<style type="text/css"><![CDATA[
.node, .edge {opacity: 0.7;}
.node.selected, .edge.selected {opacity: 1;}
.edge:hover path { stroke: red; }
.edge:hover polygon { stroke: red; fill: red; }
]]></style>
<script type="application/ecmascript" xlink:href="svg.min.js"/>
<svg id="graph" class="graph">
<g id="graph0" class="graph" transform="scale(1 1) rotate(0) translate(4 89)">
<title>include/guanaqo/from_chars&#45;wrapper.hpp</title>
<!-- Node1 -->
<g id="Node000001" class="node">
<title>Node1</title>
<g id="a_Node000001"><a xlink:title="Portable wrapper around std::from_chars for integers and floats.">
<polygon fill="#999999" stroke="#666666" points="173,-85 50,-85 50,-55 173,-55 173,-85"/>
<text text-anchor="start" x="58" y="-73" font-family="Helvetica,sans-Serif" font-size="10.00">include/guanaqo/from</text>
<text text-anchor="middle" x="111.5" y="-62" font-family="Helvetica,sans-Serif" font-size="10.00">_chars&#45;wrapper.hpp</text>
</a>
</g>
</g>
<!-- Node2 -->
<g id="Node000002" class="node">
<title>Node2</title>
<g id="a_Node000002"><a xlink:title=" ">
<polygon fill="#e0e0e0" stroke="#999999" points="61,-19 0,-19 0,0 61,0 61,-19"/>
<text text-anchor="middle" x="30.5" y="-7" font-family="Helvetica,sans-Serif" font-size="10.00">charconv</text>
</a>
</g>
</g>
<!-- Node1&#45;&gt;Node2 -->
<g id="edge1_Node000001_Node000002" class="edge">
<title>Node1&#45;&gt;Node2</title>
<g id="a_edge1_Node000001_Node000002"><a xlink:title=" ">
<path fill="none" stroke="#63b8ff" d="M91.89,-54.84C79.53,-45.91 63.6,-34.41 51.07,-25.35"/>
<polygon fill="#63b8ff" stroke="#63b8ff" points="52.79,-22.28 42.64,-19.27 48.7,-27.96 52.79,-22.28"/>
</a>
</g>
</g>
<!-- Node3 -->
<g id="Node000003" class="node">
<title>Node3</title>
<g id="a_Node000003"><a xlink:title=" ">
<polygon fill="#e0e0e0" stroke="#999999" points="144,-19 79,-19 79,0 144,0 144,-19"/>
<text text-anchor="middle" x="111.5" y="-7" font-family="Helvetica,sans-Serif" font-size="10.00">stdexcept</text>
</a>
</g>
</g>
<!-- Node1&#45;&gt;Node3 -->
<g id="edge2_Node000001_Node000003" class="edge">
<title>Node1&#45;&gt;Node3</title>
<g id="a_edge2_Node000001_Node000003"><a xlink:title=" ">
<path fill="none" stroke="#63b8ff" d="M111.5,-54.84C111.5,-47.21 111.5,-37.7 111.5,-29.45"/>
<polygon fill="#63b8ff" stroke="#63b8ff" points="115,-29.27 111.5,-19.27 108,-29.27 115,-29.27"/>
</a>
</g>
</g>
<!-- Node4 -->
<g id="Node000004" class="node">
<title>Node4</title>
<g id="a_Node000004"><a xlink:title=" ">
<polygon fill="#e0e0e0" stroke="#999999" points="243,-19 162,-19 162,0 243,0 243,-19"/>
<text text-anchor="middle" x="202.5" y="-7" font-family="Helvetica,sans-Serif" font-size="10.00">system_error</text>
</a>
</g>
</g>
<!-- Node1&#45;&gt;Node4 -->
<g id="edge3_Node000001_Node000004" class="edge">
<title>Node1&#45;&gt;Node4</title>
<g id="a_edge3_Node000001_Node000004"><a xlink:title=" ">
<path fill="none" stroke="#63b8ff" d="M133.53,-54.84C147.77,-45.68 166.23,-33.82 180.47,-24.66"/>
<polygon fill="#63b8ff" stroke="#63b8ff" points="182.61,-27.45 189.13,-19.09 178.83,-21.56 182.61,-27.45"/>
</a>
</g>
</g>
</g>
</svg>
</svg>

<style type='text/css'>
<![CDATA[
[data-mouse-over-selected='false'] { opacity: 0.7; }
[data-mouse-over-selected='true']  { opacity: 1.0; }
]]>
</style>
<script type="application/ecmascript"><![CDATA[
document.addEventListener('DOMContentLoaded', (event) => {
  highlightEdges();
  highlightAdjacentNodes();
});
]]></script>
</svg>
