<?xml version="1.0" encoding="UTF-8" standalone="no"?>
<!DOCTYPE svg PUBLIC "-//W3C//DTD SVG 1.1//EN"
 "http://www.w3.org/Graphics/SVG/1.1/DTD/svg11.dtd">
<!-- Generated by graphviz version 2.43.0 (0)
 -->
<!-- Title: guanaqo::blas::xtrsm Pages: 1 -->
<svg width="315pt" height="187pt"
 viewBox="0.00 0.00 315.00 186.50" xmlns="http://www.w3.org/2000/svg" xmlns:xlink="http://www.w3.org/1999/xlink">
<g id="graph0" class="graph" transform="scale(1 1) rotate(0) translate(4 182.5)">
<title>guanaqo::blas::xtrsm</title>
<!-- Node1 -->
<g id="Node000001" class="node">
<title>Node1</title>
<g id="a_Node000001"><a xlink:title=" ">
<polygon fill="#999999" stroke="#666666" points="307,-93 188,-93 188,-74 307,-74 307,-93"/>
<text text-anchor="middle" x="247.5" y="-81" font-family="Helvetica,sans-Serif" font-size="10.00">guanaqo::blas::xtrsm</text>
</a>
</g>
</g>
<!-- Node2 -->
<g id="Node000002" class="node">
<title>Node2</title>
<g id="a_Node000002"><a xlink:href="group__linalg__blas__ll.html#ga743af109607933d126c95839e4d77f0a" target="_top" xlink:title=" ">
<polygon fill="white" stroke="#666666" points="135.5,-178.5 16.5,-178.5 16.5,-148.5 135.5,-148.5 135.5,-178.5"/>
<text text-anchor="start" x="24.5" y="-166.5" font-family="Helvetica,sans-Serif" font-size="10.00">guanaqo::blas::xtrsm</text>
<text text-anchor="middle" x="76" y="-155.5" font-family="Helvetica,sans-Serif" font-size="10.00">_batch_strided</text>
</a>
</g>
</g>
<!-- Node1&#45;&gt;Node2 -->
<g id="edge1_Node000001_Node000002" class="edge">
<title>Node1&#45;&gt;Node2</title>
<g id="a_edge1_Node000001_Node000002"><a xlink:title=" ">
<path fill="none" stroke="#63b8ff" d="M224.23,-98.65C205.56,-110.87 177.86,-127.88 152,-139.5 144.77,-142.75 136.96,-145.76 129.22,-148.47"/>
<polygon fill="#63b8ff" stroke="#63b8ff" points="226.23,-101.52 232.63,-93.08 222.36,-95.69 226.23,-101.52"/>
</a>
</g>
</g>
<!-- Node3 -->
<g id="Node000003" class="node">
<title>Node3</title>
<g id="a_Node000003"><a xlink:href="group__linalg__blas__hl.html#ga1f678a10aef58169a6aba276a0956b07" target="_top" xlink:title=" ">
<polygon fill="white" stroke="#666666" points="151,-130 1,-130 1,-111 151,-111 151,-130"/>
<text text-anchor="middle" x="76" y="-118" font-family="Helvetica,sans-Serif" font-size="10.00">guanaqo::blas::xtrsm_LLNN</text>
</a>
</g>
</g>
<!-- Node1&#45;&gt;Node3 -->
<g id="edge2_Node000001_Node000003" class="edge">
<title>Node1&#45;&gt;Node3</title>
<g id="a_edge2_Node000001_Node000003"><a xlink:title=" ">
<path fill="none" stroke="#63b8ff" d="M192.81,-95.22C169.6,-100.29 142.78,-106.14 120.8,-110.94"/>
<polygon fill="#63b8ff" stroke="#63b8ff" points="193.83,-98.58 202.85,-93.03 192.33,-91.74 193.83,-98.58"/>
</a>
</g>
</g>
<!-- Node4 -->
<g id="Node000004" class="node">
<title>Node4</title>
<g id="a_Node000004"><a xlink:href="group__linalg__blas__hl.html#ga68904f2b8fd43d4a742b11d65b8a59f3" target="_top" xlink:title=" ">
<polygon fill="white" stroke="#666666" points="150,-93 2,-93 2,-74 150,-74 150,-93"/>
<text text-anchor="middle" x="76" y="-81" font-family="Helvetica,sans-Serif" font-size="10.00">guanaqo::blas::xtrsm_LLTN</text>
</a>
</g>
</g>
<!-- Node1&#45;&gt;Node4 -->
<g id="edge3_Node000001_Node000004" class="edge">
<title>Node1&#45;&gt;Node4</title>
<g id="a_edge3_Node000001_Node000004"><a xlink:title=" ">
<path fill="none" stroke="#63b8ff" d="M177.58,-83.5C168.5,-83.5 159.18,-83.5 150.04,-83.5"/>
<polygon fill="#63b8ff" stroke="#63b8ff" points="177.69,-87 187.69,-83.5 177.69,-80 177.69,-87"/>
</a>
</g>
</g>
<!-- Node5 -->
<g id="Node000005" class="node">
<title>Node5</title>
<g id="a_Node000005"><a xlink:href="group__linalg__blas__hl.html#ga32a084b134d3bd21a71792174561b174" target="_top" xlink:title=" ">
<polygon fill="white" stroke="#666666" points="152,-56 0,-56 0,-37 152,-37 152,-56"/>
<text text-anchor="middle" x="76" y="-44" font-family="Helvetica,sans-Serif" font-size="10.00">guanaqo::blas::xtrsm_RLNN</text>
</a>
</g>
</g>
<!-- Node1&#45;&gt;Node5 -->
<g id="edge4_Node000001_Node000005" class="edge">
<title>Node1&#45;&gt;Node5</title>
<g id="a_edge4_Node000001_Node000005"><a xlink:title=" ">
<path fill="none" stroke="#63b8ff" d="M192.81,-71.78C169.6,-66.71 142.78,-60.86 120.8,-56.06"/>
<polygon fill="#63b8ff" stroke="#63b8ff" points="192.33,-75.26 202.85,-73.97 193.83,-68.42 192.33,-75.26"/>
</a>
</g>
</g>
<!-- Node6 -->
<g id="Node000006" class="node">
<title>Node6</title>
<g id="a_Node000006"><a xlink:href="group__linalg__blas__hl.html#gad010087f3aa857029093659be56a1563" target="_top" xlink:title=" ">
<polygon fill="white" stroke="#666666" points="150.5,-19 1.5,-19 1.5,0 150.5,0 150.5,-19"/>
<text text-anchor="middle" x="76" y="-7" font-family="Helvetica,sans-Serif" font-size="10.00">guanaqo::blas::xtrsm_RLTN</text>
</a>
</g>
</g>
<!-- Node1&#45;&gt;Node6 -->
<g id="edge5_Node000001_Node000006" class="edge">
<title>Node1&#45;&gt;Node6</title>
<g id="a_edge5_Node000001_Node000006"><a xlink:title=" ">
<path fill="none" stroke="#63b8ff" d="M224.37,-68.23C205.78,-55.99 178.13,-39.17 152,-28.5 142.92,-24.79 132.92,-21.66 123.27,-19.06"/>
<polygon fill="#63b8ff" stroke="#63b8ff" points="222.47,-71.17 232.73,-73.82 226.36,-65.35 222.47,-71.17"/>
</a>
</g>
</g>
</g>
</svg>
