<?xml version="1.0" encoding="UTF-8" standalone="no"?>
<!DOCTYPE svg PUBLIC "-//W3C//DTD SVG 1.1//EN"
 "http://www.w3.org/Graphics/SVG/1.1/DTD/svg11.dtd">
<!-- Generated by graphviz version 2.43.0 (0)
 -->
<!-- Title: guanaqo::blas::xtrmv Pages: 1 -->
<svg width="310pt" height="64pt"
 viewBox="0.00 0.00 310.00 64.00" xmlns="http://www.w3.org/2000/svg" xmlns:xlink="http://www.w3.org/1999/xlink">
<g id="graph0" class="graph" transform="scale(1 1) rotate(0) translate(4 60)">
<title>guanaqo::blas::xtrmv</title>
<!-- Node1 -->
<g id="Node000001" class="node">
<title>Node1</title>
<g id="a_Node000001"><a xlink:title=" ">
<polygon fill="#999999" stroke="#666666" points="302,-37 182,-37 182,-18 302,-18 302,-37"/>
<text text-anchor="middle" x="242" y="-25" font-family="Helvetica,sans-Serif" font-size="10.00">guanaqo::blas::xtrmv</text>
</a>
</g>
</g>
<!-- Node2 -->
<g id="Node000002" class="node">
<title>Node2</title>
<g id="a_Node000002"><a xlink:href="group__linalg__blas__hl.html#ga349ca1883e5f7f18fb07f638b6271dbd" target="_top" xlink:title=" ">
<polygon fill="white" stroke="#666666" points="146,-56 0,-56 0,-37 146,-37 146,-56"/>
<text text-anchor="middle" x="73" y="-44" font-family="Helvetica,sans-Serif" font-size="10.00">guanaqo::blas::xtrmv_LNN</text>
</a>
</g>
</g>
<!-- Node1&#45;&gt;Node2 -->
<g id="edge1_Node000001_Node000002" class="edge">
<title>Node1&#45;&gt;Node2</title>
<g id="a_edge1_Node000001_Node000002"><a xlink:title=" ">
<path fill="none" stroke="#63b8ff" d="M171.51,-35.41C163.09,-36.36 154.48,-37.34 146.03,-38.31"/>
<polygon fill="#63b8ff" stroke="#63b8ff" points="172.11,-38.86 181.65,-34.25 171.32,-31.91 172.11,-38.86"/>
</a>
</g>
</g>
<!-- Node3 -->
<g id="Node000003" class="node">
<title>Node3</title>
<g id="a_Node000003"><a xlink:href="group__linalg__blas__hl.html#gae9f21ede31dfb11fac98f9e3cf739103" target="_top" xlink:title=" ">
<polygon fill="white" stroke="#666666" points="144.5,-19 1.5,-19 1.5,0 144.5,0 144.5,-19"/>
<text text-anchor="middle" x="73" y="-7" font-family="Helvetica,sans-Serif" font-size="10.00">guanaqo::blas::xtrmv_LTN</text>
</a>
</g>
</g>
<!-- Node1&#45;&gt;Node3 -->
<g id="edge2_Node000001_Node000003" class="edge">
<title>Node1&#45;&gt;Node3</title>
<g id="a_edge2_Node000001_Node000003"><a xlink:title=" ">
<path fill="none" stroke="#63b8ff" d="M171.67,-20.03C162.72,-19.06 153.55,-18.07 144.58,-17.11"/>
<polygon fill="#63b8ff" stroke="#63b8ff" points="171.33,-23.51 181.65,-21.1 172.08,-16.55 171.33,-23.51"/>
</a>
</g>
</g>
</g>
</svg>
