<?xml version="1.0" encoding="UTF-8" standalone="no"?>
<!DOCTYPE svg PUBLIC "-//W3C//DTD SVG 1.1//EN"
 "http://www.w3.org/Graphics/SVG/1.1/DTD/svg11.dtd">
<!-- Generated by graphviz version 2.43.0 (0)
 -->
<!-- Title: guanaqo::blas::xtrtri_LN Pages: 1 -->
<svg width="300pt" height="76pt"
 viewBox="0.00 0.00 300.00 75.50" xmlns="http://www.w3.org/2000/svg" xmlns:xlink="http://www.w3.org/1999/xlink">
<g id="graph0" class="graph" transform="scale(1 1) rotate(0) translate(4 71.5)">
<title>guanaqo::blas::xtrtri_LN</title>
<!-- Node1 -->
<g id="Node000001" class="node">
<title>Node1</title>
<g id="a_Node000001"><a xlink:title=" ">
<polygon fill="#999999" stroke="#666666" points="133,-40 0,-40 0,-21 133,-21 133,-40"/>
<text text-anchor="middle" x="66.5" y="-28" font-family="Helvetica,sans-Serif" font-size="10.00">guanaqo::blas::xtrtri_LN</text>
</a>
</g>
</g>
<!-- Node2 -->
<g id="Node000002" class="node">
<title>Node2</title>
<g id="a_Node000002"><a xlink:href="group__linalg__blas__ll.html#ga4bb8b03015aec2dcf973a51b215cbcbc" target="_top" xlink:title=" ">
<polygon fill="white" stroke="#666666" points="292,-67.5 169,-67.5 169,-37.5 292,-37.5 292,-67.5"/>
<text text-anchor="start" x="177" y="-55.5" font-family="Helvetica,sans-Serif" font-size="10.00">guanaqo::blas::lapack</text>
<text text-anchor="middle" x="230.5" y="-44.5" font-family="Helvetica,sans-Serif" font-size="10.00">_throw_on_err</text>
</a>
</g>
</g>
<!-- Node1&#45;&gt;Node2 -->
<g id="edge1_Node000001_Node000002" class="edge">
<title>Node1&#45;&gt;Node2</title>
<g id="a_edge1_Node000001_Node000002"><a xlink:title=" ">
<path fill="none" stroke="#63b8ff" d="M133.39,-39.45C141.74,-40.58 150.3,-41.74 158.72,-42.89"/>
<polygon fill="#63b8ff" stroke="#63b8ff" points="158.51,-46.39 168.89,-44.27 159.45,-39.45 158.51,-46.39"/>
</a>
</g>
</g>
<!-- Node3 -->
<g id="Node000003" class="node">
<title>Node3</title>
<g id="a_Node000003"><a xlink:href="group__linalg__blas__ll.html#gafb8eef060ae9db3245176163e0b269ca" target="_top" xlink:title=" ">
<polygon fill="white" stroke="#666666" points="288,-19 173,-19 173,0 288,0 288,-19"/>
<text text-anchor="middle" x="230.5" y="-7" font-family="Helvetica,sans-Serif" font-size="10.00">guanaqo::blas::xtrtri</text>
</a>
</g>
</g>
<!-- Node1&#45;&gt;Node3 -->
<g id="edge2_Node000001_Node000003" class="edge">
<title>Node1&#45;&gt;Node3</title>
<g id="a_edge2_Node000001_Node000003"><a xlink:title=" ">
<path fill="none" stroke="#63b8ff" d="M133.39,-21.96C143.08,-20.7 153.06,-19.41 162.77,-18.15"/>
<polygon fill="#63b8ff" stroke="#63b8ff" points="163.29,-21.61 172.75,-16.86 162.39,-14.67 163.29,-21.61"/>
</a>
</g>
</g>
</g>
</svg>
