<?xml version="1.0" encoding="UTF-8" standalone="no"?>
<!DOCTYPE svg PUBLIC "-//W3C//DTD SVG 1.1//EN"
 "http://www.w3.org/Graphics/SVG/1.1/DTD/svg11.dtd">
<!-- Generated by graphviz version 2.43.0 (0)
 -->
<!-- Title: guanaqo::io::csv_read Pages: 1 -->
<svg width="641pt" height="134pt"
 viewBox="0.00 0.00 641.00 134.00" xmlns="http://www.w3.org/2000/svg" xmlns:xlink="http://www.w3.org/1999/xlink">
<g id="graph0" class="graph" transform="scale(1 1) rotate(0) translate(4 130)">
<title>guanaqo::io::csv_read</title>
<!-- Node1 -->
<g id="Node000001" class="node">
<title>Node1</title>
<g id="a_Node000001"><a xlink:title=" ">
<polygon fill="#999999" stroke="#666666" points="123,-77.5 0,-77.5 0,-58.5 123,-58.5 123,-77.5"/>
<text text-anchor="middle" x="61.5" y="-65.5" font-family="Helvetica,sans-Serif" font-size="10.00">guanaqo::io::csv_read</text>
</a>
</g>
</g>
<!-- Node2 -->
<g id="Node000002" class="node">
<title>Node2</title>
<g id="a_Node000002"><a xlink:href="structguanaqo_1_1io_1_1CSVReader.html#adc16a0a06c51a6a60fb65d04eed44fcd" target="_top" xlink:title=" ">
<polygon fill="white" stroke="#666666" points="463,-126 329,-126 329,-96 463,-96 463,-126"/>
<text text-anchor="start" x="337" y="-114" font-family="Helvetica,sans-Serif" font-size="10.00">guanaqo::io::CSVReader</text>
<text text-anchor="middle" x="396" y="-103" font-family="Helvetica,sans-Serif" font-size="10.00">::next_line</text>
</a>
</g>
</g>
<!-- Node1&#45;&gt;Node2 -->
<g id="edge1_Node000001_Node000002" class="edge">
<title>Node1&#45;&gt;Node2</title>
<g id="a_edge1_Node000001_Node000002"><a xlink:title=" ">
<path fill="none" stroke="#63b8ff" d="M95.27,-77.57C113.82,-82.62 137.53,-88.49 159,-92 211.89,-100.65 272.13,-105.41 318.51,-108.01"/>
<polygon fill="#63b8ff" stroke="#63b8ff" points="318.61,-111.52 328.78,-108.56 318.98,-104.53 318.61,-111.52"/>
</a>
</g>
</g>
<!-- Node3 -->
<g id="Node000003" class="node">
<title>Node3</title>
<g id="a_Node000003"><a xlink:href="structguanaqo_1_1io_1_1CSVReader.html#ac6ff711471364524ec918facf8059bc4" target="_top" xlink:title=" ">
<polygon fill="white" stroke="#666666" points="293,-35 159,-35 159,-5 293,-5 293,-35"/>
<text text-anchor="start" x="167" y="-23" font-family="Helvetica,sans-Serif" font-size="10.00">guanaqo::io::CSVReader</text>
<text text-anchor="middle" x="226" y="-12" font-family="Helvetica,sans-Serif" font-size="10.00">::read</text>
</a>
</g>
</g>
<!-- Node1&#45;&gt;Node3 -->
<g id="edge2_Node000001_Node000003" class="edge">
<title>Node1&#45;&gt;Node3</title>
<g id="a_edge2_Node000001_Node000003"><a xlink:title=" ">
<path fill="none" stroke="#63b8ff" d="M94.99,-58.4C114.77,-52.56 140.66,-44.91 164.12,-37.98"/>
<polygon fill="#63b8ff" stroke="#63b8ff" points="165.41,-41.25 174.01,-35.06 163.42,-34.54 165.41,-41.25"/>
</a>
</g>
</g>
<!-- Node7 -->
<g id="Node000007" class="node">
<title>Node7</title>
<g id="a_Node000007"><a xlink:href="structguanaqo_1_1io_1_1CSVReader.html#a1ec0f1dda005a6206400f818159cf09f" target="_top" xlink:title=" ">
<polygon fill="white" stroke="#666666" points="293,-83 159,-83 159,-53 293,-53 293,-83"/>
<text text-anchor="start" x="167" y="-71" font-family="Helvetica,sans-Serif" font-size="10.00">guanaqo::io::CSVReader</text>
<text text-anchor="middle" x="226" y="-60" font-family="Helvetica,sans-Serif" font-size="10.00">::skip_comments</text>
</a>
</g>
</g>
<!-- Node1&#45;&gt;Node7 -->
<g id="edge6_Node000001_Node000007" class="edge">
<title>Node1&#45;&gt;Node7</title>
<g id="a_edge6_Node000001_Node000007"><a xlink:title=" ">
<path fill="none" stroke="#63b8ff" d="M123.01,-68C131.44,-68 140.19,-68 148.86,-68"/>
<polygon fill="#63b8ff" stroke="#63b8ff" points="148.99,-71.5 158.99,-68 148.99,-64.5 148.99,-71.5"/>
</a>
</g>
</g>
<!-- Node4 -->
<g id="Node000004" class="node">
<title>Node4</title>
<g id="a_Node000004"><a xlink:href="structguanaqo_1_1io_1_1CSVReader.html#a9537b30cc2e4d7de1406c5aae39b03b7" target="_top" xlink:title=" ">
<polygon fill="white" stroke="#666666" points="463,-78 329,-78 329,-48 463,-48 463,-78"/>
<text text-anchor="start" x="337" y="-66" font-family="Helvetica,sans-Serif" font-size="10.00">guanaqo::io::CSVReader</text>
<text text-anchor="middle" x="396" y="-55" font-family="Helvetica,sans-Serif" font-size="10.00">::read_chunk</text>
</a>
</g>
</g>
<!-- Node3&#45;&gt;Node4 -->
<g id="edge3_Node000003_Node000004" class="edge">
<title>Node3&#45;&gt;Node4</title>
<g id="a_edge3_Node000003_Node000004"><a xlink:title=" ">
<path fill="none" stroke="#63b8ff" d="M285.76,-35.04C298.93,-38.41 313.02,-42.02 326.54,-45.48"/>
<polygon fill="#63b8ff" stroke="#63b8ff" points="325.72,-48.88 336.27,-47.97 327.46,-42.1 325.72,-48.88"/>
</a>
</g>
</g>
<!-- Node5 -->
<g id="Node000005" class="node">
<title>Node5</title>
<g id="a_Node000005"><a xlink:href="structguanaqo_1_1io_1_1CSVReader.html#a23247665597068315987a44467d4459a" target="_top" xlink:title=" ">
<polygon fill="white" stroke="#666666" points="463,-30 329,-30 329,0 463,0 463,-30"/>
<text text-anchor="start" x="337" y="-18" font-family="Helvetica,sans-Serif" font-size="10.00">guanaqo::io::CSVReader</text>
<text text-anchor="middle" x="396" y="-7" font-family="Helvetica,sans-Serif" font-size="10.00">::read_single</text>
</a>
</g>
</g>
<!-- Node3&#45;&gt;Node5 -->
<g id="edge4_Node000003_Node000005" class="edge">
<title>Node3&#45;&gt;Node5</title>
<g id="a_edge4_Node000003_Node000005"><a xlink:title=" ">
<path fill="none" stroke="#63b8ff" d="M293.4,-18.02C301.68,-17.78 310.2,-17.52 318.62,-17.27"/>
<polygon fill="#63b8ff" stroke="#63b8ff" points="318.92,-20.77 328.81,-16.97 318.71,-13.77 318.92,-20.77"/>
</a>
</g>
</g>
<!-- Node6 -->
<g id="Node000006" class="node">
<title>Node6</title>
<g id="a_Node000006"><a xlink:href="structguanaqo_1_1io_1_1CSVReader.html#a91ad1ccf57750d7bec9b5c830961665a" target="_top" xlink:title=" ">
<polygon fill="white" stroke="#666666" points="633,-30 499,-30 499,0 633,0 633,-30"/>
<text text-anchor="start" x="507" y="-18" font-family="Helvetica,sans-Serif" font-size="10.00">guanaqo::io::CSVReader</text>
<text text-anchor="middle" x="566" y="-7" font-family="Helvetica,sans-Serif" font-size="10.00">::strtod_ovl</text>
</a>
</g>
</g>
<!-- Node5&#45;&gt;Node6 -->
<g id="edge5_Node000005_Node000006" class="edge">
<title>Node5&#45;&gt;Node6</title>
<g id="a_edge5_Node000005_Node000006"><a xlink:title=" ">
<path fill="none" stroke="#63b8ff" d="M463.4,-15C471.68,-15 480.2,-15 488.62,-15"/>
<polygon fill="#63b8ff" stroke="#63b8ff" points="488.81,-18.5 498.81,-15 488.81,-11.5 488.81,-18.5"/>
</a>
</g>
</g>
<!-- Node7&#45;&gt;Node2 -->
<g id="edge7_Node000007_Node000002" class="edge">
<title>Node7&#45;&gt;Node2</title>
<g id="a_edge7_Node000007_Node000002"><a xlink:title=" ">
<path fill="none" stroke="#63b8ff" d="M285.76,-83.04C298.93,-86.41 313.02,-90.02 326.54,-93.48"/>
<polygon fill="#63b8ff" stroke="#63b8ff" points="325.72,-96.88 336.27,-95.97 327.46,-90.1 325.72,-96.88"/>
</a>
</g>
</g>
<!-- Node7&#45;&gt;Node4 -->
<g id="edge8_Node000007_Node000004" class="edge">
<title>Node7&#45;&gt;Node4</title>
<g id="a_edge8_Node000007_Node000004"><a xlink:title=" ">
<path fill="none" stroke="#63b8ff" d="M293.4,-66.02C301.68,-65.78 310.2,-65.52 318.62,-65.27"/>
<polygon fill="#63b8ff" stroke="#63b8ff" points="318.92,-68.77 328.81,-64.97 318.71,-61.77 318.92,-68.77"/>
</a>
</g>
</g>
</g>
</svg>
