<?xml version="1.0" encoding="UTF-8" standalone="no"?>
<!DOCTYPE svg PUBLIC "-//W3C//DTD SVG 1.1//EN"
 "http://www.w3.org/Graphics/SVG/1.1/DTD/svg11.dtd">
<!-- Generated by graphviz version 2.43.0 (0)
 -->
<!-- Title: guanaqo::print_python Pages: 1 -->
<svg width="802pt" height="124pt"
 viewBox="0.00 0.00 802.00 124.00" xmlns="http://www.w3.org/2000/svg" xmlns:xlink="http://www.w3.org/1999/xlink">
<g id="graph0" class="graph" transform="scale(1 1) rotate(0) translate(4 120)">
<title>guanaqo::print_python</title>
<!-- Node1 -->
<g id="Node000001" class="node">
<title>Node1</title>
<g id="a_Node000001"><a xlink:title=" ">
<polygon fill="#999999" stroke="#666666" points="126,-67.5 0,-67.5 0,-48.5 126,-48.5 126,-67.5"/>
<text text-anchor="middle" x="63" y="-55.5" font-family="Helvetica,sans-Serif" font-size="10.00">guanaqo::print_python</text>
</a>
</g>
</g>
<!-- Node2 -->
<g id="Node000002" class="node">
<title>Node2</title>
<g id="a_Node000002"><a xlink:href="namespaceguanaqo_1_1detail.html#ace413852839567e1ea2455dfddde9c73" target="_top" xlink:title=" ">
<polygon fill="white" stroke="#666666" points="283,-73 162,-73 162,-43 283,-43 283,-73"/>
<text text-anchor="start" x="170" y="-61" font-family="Helvetica,sans-Serif" font-size="10.00">guanaqo::detail::print</text>
<text text-anchor="middle" x="222.5" y="-50" font-family="Helvetica,sans-Serif" font-size="10.00">_python_impl</text>
</a>
</g>
</g>
<!-- Node1&#45;&gt;Node2 -->
<g id="edge1_Node000001_Node000002" class="edge">
<title>Node1&#45;&gt;Node2</title>
<g id="a_edge1_Node000001_Node000002"><a xlink:title=" ">
<path fill="none" stroke="#63b8ff" d="M126.25,-58C134.56,-58 143.13,-58 151.57,-58"/>
<polygon fill="#63b8ff" stroke="#63b8ff" points="151.76,-61.5 161.76,-58 151.76,-54.5 151.76,-61.5"/>
</a>
</g>
</g>
<!-- Node3 -->
<g id="Node000003" class="node">
<title>Node3</title>
<g id="a_Node000003"><a xlink:href="classguanaqo_1_1PrintMatrixView.html#a63eea1dde756aae14cfc43178cb57f8e" target="_top" xlink:title=" ">
<polygon fill="white" stroke="#666666" points="619,-116 476,-116 476,-86 619,-86 619,-116"/>
<text text-anchor="start" x="484" y="-104" font-family="Helvetica,sans-Serif" font-size="10.00">guanaqo::PrintMatrixView</text>
<text text-anchor="middle" x="547.5" y="-93" font-family="Helvetica,sans-Serif" font-size="10.00">::cols</text>
</a>
</g>
</g>
<!-- Node2&#45;&gt;Node3 -->
<g id="edge2_Node000002_Node000003" class="edge">
<title>Node2&#45;&gt;Node3</title>
<g id="a_edge2_Node000002_Node000003"><a xlink:title=" ">
<path fill="none" stroke="#63b8ff" d="M276.72,-73C290.4,-76.41 305.17,-79.7 319,-82 367.42,-90.05 422.24,-94.76 465.93,-97.47"/>
<polygon fill="#63b8ff" stroke="#63b8ff" points="465.74,-100.97 475.93,-98.07 466.16,-93.98 465.74,-100.97"/>
</a>
</g>
</g>
<!-- Node4 -->
<g id="Node000004" class="node">
<title>Node4</title>
<g id="a_Node000004"><a xlink:href="namespaceguanaqo_1_1detail.html#a88c9fe1314e5663d4c70ce10355c6e56" target="_top" xlink:title=" ">
<polygon fill="white" stroke="#666666" points="440,-73 319,-73 319,-43 440,-43 440,-73"/>
<text text-anchor="start" x="327" y="-61" font-family="Helvetica,sans-Serif" font-size="10.00">guanaqo::detail::print</text>
<text text-anchor="middle" x="379.5" y="-50" font-family="Helvetica,sans-Serif" font-size="10.00">_csv_impl</text>
</a>
</g>
</g>
<!-- Node2&#45;&gt;Node4 -->
<g id="edge3_Node000002_Node000004" class="edge">
<title>Node2&#45;&gt;Node4</title>
<g id="a_edge3_Node000002_Node000004"><a xlink:title=" ">
<path fill="none" stroke="#63b8ff" d="M283.43,-58C291.72,-58 300.31,-58 308.76,-58"/>
<polygon fill="#63b8ff" stroke="#63b8ff" points="308.99,-61.5 318.99,-58 308.99,-54.5 308.99,-61.5"/>
</a>
</g>
</g>
<!-- Node7 -->
<g id="Node000007" class="node">
<title>Node7</title>
<g id="a_Node000007"><a xlink:href="classguanaqo_1_1PrintMatrixView.html#a73243fba975ee1f16278da79f418010b" target="_top" xlink:title=" ">
<polygon fill="white" stroke="#666666" points="619,-30 476,-30 476,0 619,0 619,-30"/>
<text text-anchor="start" x="484" y="-18" font-family="Helvetica,sans-Serif" font-size="10.00">guanaqo::PrintMatrixView</text>
<text text-anchor="middle" x="547.5" y="-7" font-family="Helvetica,sans-Serif" font-size="10.00">::rows</text>
</a>
</g>
</g>
<!-- Node2&#45;&gt;Node7 -->
<g id="edge8_Node000002_Node000007" class="edge">
<title>Node2&#45;&gt;Node7</title>
<g id="a_edge8_Node000002_Node000007"><a xlink:title=" ">
<path fill="none" stroke="#63b8ff" d="M276.72,-43C290.4,-39.59 305.17,-36.3 319,-34 367.42,-25.95 422.24,-21.24 465.93,-18.53"/>
<polygon fill="#63b8ff" stroke="#63b8ff" points="466.16,-22.02 475.93,-17.93 465.74,-15.03 466.16,-22.02"/>
</a>
</g>
</g>
<!-- Node4&#45;&gt;Node3 -->
<g id="edge4_Node000004_Node000003" class="edge">
<title>Node4&#45;&gt;Node3</title>
<g id="a_edge4_Node000004_Node000003"><a xlink:title=" ">
<path fill="none" stroke="#63b8ff" d="M438.56,-73.04C451.45,-76.38 465.22,-79.95 478.47,-83.38"/>
<polygon fill="#63b8ff" stroke="#63b8ff" points="477.92,-86.85 488.47,-85.97 479.67,-80.07 477.92,-86.85"/>
</a>
</g>
</g>
<!-- Node5 -->
<g id="Node000005" class="node">
<title>Node5</title>
<g id="a_Node000005"><a xlink:href="namespaceguanaqo.html#a9d2fcd3439b44a180fe1d9634e0c2a96" target="_top" xlink:title=" ">
<polygon fill="white" stroke="#666666" points="606,-67.5 489,-67.5 489,-48.5 606,-48.5 606,-67.5"/>
<text text-anchor="middle" x="547.5" y="-55.5" font-family="Helvetica,sans-Serif" font-size="10.00">guanaqo::print_elem</text>
</a>
</g>
</g>
<!-- Node4&#45;&gt;Node5 -->
<g id="edge5_Node000004_Node000005" class="edge">
<title>Node4&#45;&gt;Node5</title>
<g id="a_edge5_Node000004_Node000005"><a xlink:title=" ">
<path fill="none" stroke="#63b8ff" d="M440.43,-58C452.89,-58 466.1,-58 478.81,-58"/>
<polygon fill="#63b8ff" stroke="#63b8ff" points="478.88,-61.5 488.88,-58 478.88,-54.5 478.88,-61.5"/>
</a>
</g>
</g>
<!-- Node4&#45;&gt;Node7 -->
<g id="edge7_Node000004_Node000007" class="edge">
<title>Node4&#45;&gt;Node7</title>
<g id="a_edge7_Node000004_Node000007"><a xlink:title=" ">
<path fill="none" stroke="#63b8ff" d="M438.56,-42.96C451.45,-39.62 465.22,-36.05 478.47,-32.62"/>
<polygon fill="#63b8ff" stroke="#63b8ff" points="479.67,-35.93 488.47,-30.03 477.92,-29.15 479.67,-35.93"/>
</a>
</g>
</g>
<!-- Node6 -->
<g id="Node000006" class="node">
<title>Node6</title>
<g id="a_Node000006"><a xlink:href="group__io.html#ga6ea0e178e6ff254e03b167069a441c38" target="_top" xlink:title=" ">
<polygon fill="white" stroke="#666666" points="794,-67.5 655,-67.5 655,-48.5 794,-48.5 794,-67.5"/>
<text text-anchor="middle" x="724.5" y="-55.5" font-family="Helvetica,sans-Serif" font-size="10.00">guanaqo::float_to_str_vw</text>
</a>
</g>
</g>
<!-- Node5&#45;&gt;Node6 -->
<g id="edge6_Node000005_Node000006" class="edge">
<title>Node5&#45;&gt;Node6</title>
<g id="a_edge6_Node000005_Node000006"><a xlink:title=" ">
<path fill="none" stroke="#63b8ff" d="M606.29,-58C618.54,-58 631.68,-58 644.57,-58"/>
<polygon fill="#63b8ff" stroke="#63b8ff" points="644.83,-61.5 654.83,-58 644.83,-54.5 644.83,-61.5"/>
</a>
</g>
</g>
</g>
</svg>
