<?xml version="1.0" encoding="UTF-8" standalone="no"?>
<!DOCTYPE svg PUBLIC "-//W3C//DTD SVG 1.1//EN"
 "http://www.w3.org/Graphics/SVG/1.1/DTD/svg11.dtd">
<!-- Generated by graphviz version 2.43.0 (0)
 -->
<!-- Title: guanaqo::blas::xgemmt Pages: 1 -->
<svg width="334pt" height="138pt"
 viewBox="0.00 0.00 334.00 138.00" xmlns="http://www.w3.org/2000/svg" xmlns:xlink="http://www.w3.org/1999/xlink">
<g id="graph0" class="graph" transform="scale(1 1) rotate(0) translate(4 134)">
<title>guanaqo::blas::xgemmt</title>
<!-- Node1 -->
<g id="Node000001" class="node">
<title>Node1</title>
<g id="a_Node000001"><a xlink:title=" ">
<polygon fill="#999999" stroke="#666666" points="326,-74 194,-74 194,-55 326,-55 326,-74"/>
<text text-anchor="middle" x="260" y="-62" font-family="Helvetica,sans-Serif" font-size="10.00">guanaqo::blas::xgemmt</text>
</a>
</g>
</g>
<!-- Node2 -->
<g id="Node000002" class="node">
<title>Node2</title>
<g id="a_Node000002"><a xlink:href="group__linalg__blas__hl.html#ga195aaa0db4d4f5af80e4af98d72c4a4e" target="_top" xlink:title=" ">
<polygon fill="white" stroke="#666666" points="158,-130 0,-130 0,-111 158,-111 158,-130"/>
<text text-anchor="middle" x="79" y="-118" font-family="Helvetica,sans-Serif" font-size="10.00">guanaqo::blas::xgemmt_LNN</text>
</a>
</g>
</g>
<!-- Node1&#45;&gt;Node2 -->
<g id="edge1_Node000001_Node000002" class="edge">
<title>Node1&#45;&gt;Node2</title>
<g id="a_edge1_Node000001_Node000002"><a xlink:title=" ">
<path fill="none" stroke="#63b8ff" d="M226.64,-77.93C207.01,-85.76 181.32,-95.46 158,-102.5 147.76,-105.59 136.62,-108.46 126.05,-110.94"/>
<polygon fill="#63b8ff" stroke="#63b8ff" points="228.07,-81.13 236.03,-74.14 225.45,-74.64 228.07,-81.13"/>
</a>
</g>
</g>
<!-- Node3 -->
<g id="Node000003" class="node">
<title>Node3</title>
<g id="a_Node000003"><a xlink:href="group__linalg__blas__hl.html#ga632c5fa9af0f120e67f3908a68999174" target="_top" xlink:title=" ">
<polygon fill="white" stroke="#666666" points="157,-93 1,-93 1,-74 157,-74 157,-93"/>
<text text-anchor="middle" x="79" y="-81" font-family="Helvetica,sans-Serif" font-size="10.00">guanaqo::blas::xgemmt_LNT</text>
</a>
</g>
</g>
<!-- Node1&#45;&gt;Node3 -->
<g id="edge2_Node000001_Node000003" class="edge">
<title>Node1&#45;&gt;Node3</title>
<g id="a_edge2_Node000001_Node000003"><a xlink:title=" ">
<path fill="none" stroke="#63b8ff" d="M183.71,-72.49C174.96,-73.42 166.02,-74.37 157.25,-75.3"/>
<polygon fill="#63b8ff" stroke="#63b8ff" points="184.3,-75.95 193.87,-71.41 183.56,-68.99 184.3,-75.95"/>
</a>
</g>
</g>
<!-- Node4 -->
<g id="Node000004" class="node">
<title>Node4</title>
<g id="a_Node000004"><a xlink:href="group__linalg__blas__hl.html#gad042a6f96ba608472e5047950f3c0d56" target="_top" xlink:title=" ">
<polygon fill="white" stroke="#666666" points="156.5,-56 1.5,-56 1.5,-37 156.5,-37 156.5,-56"/>
<text text-anchor="middle" x="79" y="-44" font-family="Helvetica,sans-Serif" font-size="10.00">guanaqo::blas::xgemmt_LTN</text>
</a>
</g>
</g>
<!-- Node1&#45;&gt;Node4 -->
<g id="edge3_Node000001_Node000004" class="edge">
<title>Node1&#45;&gt;Node4</title>
<g id="a_edge3_Node000001_Node000004"><a xlink:title=" ">
<path fill="none" stroke="#63b8ff" d="M183.82,-56.94C174.83,-56.04 165.65,-55.11 156.64,-54.21"/>
<polygon fill="#63b8ff" stroke="#63b8ff" points="183.57,-60.43 193.87,-57.95 184.27,-53.47 183.57,-60.43"/>
</a>
</g>
</g>
<!-- Node5 -->
<g id="Node000005" class="node">
<title>Node5</title>
<g id="a_Node000005"><a xlink:href="group__linalg__blas__hl.html#ga32b465d96e03829a277772ed2273b237" target="_top" xlink:title=" ">
<polygon fill="white" stroke="#666666" points="156,-19 2,-19 2,0 156,0 156,-19"/>
<text text-anchor="middle" x="79" y="-7" font-family="Helvetica,sans-Serif" font-size="10.00">guanaqo::blas::xgemmt_LTT</text>
</a>
</g>
</g>
<!-- Node1&#45;&gt;Node5 -->
<g id="edge4_Node000001_Node000005" class="edge">
<title>Node1&#45;&gt;Node5</title>
<g id="a_edge4_Node000001_Node000005"><a xlink:title=" ">
<path fill="none" stroke="#63b8ff" d="M224.72,-51.28C205.3,-44.05 180.48,-35.22 158,-28.5 146.65,-25.1 134.24,-21.87 122.72,-19.06"/>
<polygon fill="#63b8ff" stroke="#63b8ff" points="223.74,-54.66 234.33,-54.9 226.2,-48.1 223.74,-54.66"/>
</a>
</g>
</g>
</g>
</svg>
