<?xml version="1.0" encoding="UTF-8" standalone="no"?>
<!DOCTYPE svg PUBLIC "-//W3C//DTD SVG 1.1//EN"
 "http://www.w3.org/Graphics/SVG/1.1/DTD/svg11.dtd">
<!-- Generated by graphviz version 2.43.0 (0)
 -->
<!-- Title: guanaqo::blas::xsyrk Pages: 1 -->
<svg width="298pt" height="113pt"
 viewBox="0.00 0.00 298.00 112.50" xmlns="http://www.w3.org/2000/svg" xmlns:xlink="http://www.w3.org/1999/xlink">
<g id="graph0" class="graph" transform="scale(1 1) rotate(0) translate(4 108.5)">
<title>guanaqo::blas::xsyrk</title>
<!-- Node1 -->
<g id="Node000001" class="node">
<title>Node1</title>
<g id="a_Node000001"><a xlink:title=" ">
<polygon fill="#999999" stroke="#666666" points="290,-56 172,-56 172,-37 290,-37 290,-56"/>
<text text-anchor="middle" x="231" y="-44" font-family="Helvetica,sans-Serif" font-size="10.00">guanaqo::blas::xsyrk</text>
</a>
</g>
</g>
<!-- Node2 -->
<g id="Node000002" class="node">
<title>Node2</title>
<g id="a_Node000002"><a xlink:href="group__linalg__blas__ll.html#ga6ea65befb448749024e71e96d0522874" target="_top" xlink:title=" ">
<polygon fill="white" stroke="#666666" points="127,-104.5 9,-104.5 9,-74.5 127,-74.5 127,-104.5"/>
<text text-anchor="start" x="17" y="-92.5" font-family="Helvetica,sans-Serif" font-size="10.00">guanaqo::blas::xsyrk</text>
<text text-anchor="middle" x="68" y="-81.5" font-family="Helvetica,sans-Serif" font-size="10.00">_batch_strided</text>
</a>
</g>
</g>
<!-- Node1&#45;&gt;Node2 -->
<g id="edge1_Node000001_Node000002" class="edge">
<title>Node1&#45;&gt;Node2</title>
<g id="a_edge1_Node000001_Node000002"><a xlink:title=" ">
<path fill="none" stroke="#63b8ff" d="M184.38,-58.68C165.97,-63.6 144.54,-69.32 125.19,-74.49"/>
<polygon fill="#63b8ff" stroke="#63b8ff" points="185.51,-62.01 194.27,-56.04 183.7,-55.24 185.51,-62.01"/>
</a>
</g>
</g>
<!-- Node3 -->
<g id="Node000003" class="node">
<title>Node3</title>
<g id="a_Node000003"><a xlink:href="group__linalg__blas__hl.html#ga7428194867449b2ee9c6d92e5cc3bc53" target="_top" xlink:title=" ">
<polygon fill="white" stroke="#666666" points="136,-56 0,-56 0,-37 136,-37 136,-56"/>
<text text-anchor="middle" x="68" y="-44" font-family="Helvetica,sans-Serif" font-size="10.00">guanaqo::blas::xsyrk_LN</text>
</a>
</g>
</g>
<!-- Node1&#45;&gt;Node3 -->
<g id="edge2_Node000001_Node000003" class="edge">
<title>Node1&#45;&gt;Node3</title>
<g id="a_edge2_Node000001_Node000003"><a xlink:title=" ">
<path fill="none" stroke="#63b8ff" d="M161.66,-46.5C153.18,-46.5 144.52,-46.5 136.07,-46.5"/>
<polygon fill="#63b8ff" stroke="#63b8ff" points="161.88,-50 171.88,-46.5 161.88,-43 161.88,-50"/>
</a>
</g>
</g>
<!-- Node4 -->
<g id="Node000004" class="node">
<title>Node4</title>
<g id="a_Node000004"><a xlink:href="group__linalg__blas__hl.html#gacc1c13a5e5fcb6c1ba7c4dba1c635c9b" target="_top" xlink:title=" ">
<polygon fill="white" stroke="#666666" points="135,-19 1,-19 1,0 135,0 135,-19"/>
<text text-anchor="middle" x="68" y="-7" font-family="Helvetica,sans-Serif" font-size="10.00">guanaqo::blas::xsyrk_LT</text>
</a>
</g>
</g>
<!-- Node1&#45;&gt;Node4 -->
<g id="edge3_Node000001_Node000004" class="edge">
<title>Node1&#45;&gt;Node4</title>
<g id="a_edge3_Node000001_Node000004"><a xlink:title=" ">
<path fill="none" stroke="#63b8ff" d="M178.7,-34.71C156.73,-29.66 131.39,-23.84 110.6,-19.06"/>
<polygon fill="#63b8ff" stroke="#63b8ff" points="178.01,-38.14 188.54,-36.97 179.58,-31.32 178.01,-38.14"/>
</a>
</g>
</g>
</g>
</svg>
