<?xml version="1.0" encoding="UTF-8" standalone="no"?>
<!DOCTYPE svg PUBLIC "-//W3C//DTD SVG 1.1//EN"
 "http://www.w3.org/Graphics/SVG/1.1/DTD/svg11.dtd">
<!-- Generated by graphviz version 2.43.0 (0)
 -->
<!-- Title: guanaqo::trace::get_thread_gflop_count Pages: 1 -->
<svg width="747pt" height="110pt"
 viewBox="0.00 0.00 747.00 110.00" xmlns="http://www.w3.org/2000/svg" xmlns:xlink="http://www.w3.org/1999/xlink">
<g id="graph0" class="graph" transform="scale(1 1) rotate(0) translate(4 106)">
<title>guanaqo::trace::get_thread_gflop_count</title>
<!-- Node1 -->
<g id="Node000001" class="node">
<title>Node1</title>
<g id="a_Node000001"><a xlink:title="Get a reference to the thread&#45;local GFLOP counter.">
<polygon fill="#999999" stroke="#666666" points="739,-54 624,-54 624,-24 739,-24 739,-54"/>
<text text-anchor="start" x="632" y="-42" font-family="Helvetica,sans-Serif" font-size="10.00">guanaqo::trace::get</text>
<text text-anchor="middle" x="681.5" y="-31" font-family="Helvetica,sans-Serif" font-size="10.00">_thread_gflop_count</text>
</a>
</g>
</g>
<!-- Node2 -->
<g id="Node000002" class="node">
<title>Node2</title>
<g id="a_Node000002"><a xlink:href="structguanaqo_1_1trace_1_1ScopedLinalgCounters.html#acf667acbef370dcc59261cc2a5e1a272" target="_top" xlink:title=" ">
<polygon fill="white" stroke="#666666" points="588,-54 428,-54 428,-24 588,-24 588,-54"/>
<text text-anchor="start" x="436" y="-42" font-family="Helvetica,sans-Serif" font-size="10.00">guanaqo::trace::ScopedLinalg</text>
<text text-anchor="middle" x="508" y="-31" font-family="Helvetica,sans-Serif" font-size="10.00">Counters::trace_gflops</text>
</a>
</g>
</g>
<!-- Node1&#45;&gt;Node2 -->
<g id="edge1_Node000001_Node000002" class="edge">
<title>Node1&#45;&gt;Node2</title>
<g id="a_edge1_Node000001_Node000002"><a xlink:title=" ">
<path fill="none" stroke="#63b8ff" d="M613.8,-39C605.42,-39 596.78,-39 588.23,-39"/>
<polygon fill="#63b8ff" stroke="#63b8ff" points="613.87,-42.5 623.87,-39 613.87,-35.5 613.87,-42.5"/>
</a>
</g>
</g>
<!-- Node3 -->
<g id="Node000003" class="node">
<title>Node3</title>
<g id="a_Node000003"><a xlink:href="structguanaqo_1_1trace_1_1ScopedLinalgCounters.html#a1d25682e49364156effdb5822c2f6b6f" target="_top" xlink:title=" ">
<polygon fill="white" stroke="#666666" points="388,-78 214,-78 214,-48 388,-48 388,-78"/>
<text text-anchor="start" x="222" y="-66" font-family="Helvetica,sans-Serif" font-size="10.00">guanaqo::trace::ScopedLinalg</text>
<text text-anchor="middle" x="301" y="-55" font-family="Helvetica,sans-Serif" font-size="10.00">Counters::ScopedLinalgCounters</text>
</a>
</g>
</g>
<!-- Node2&#45;&gt;Node3 -->
<g id="edge2_Node000002_Node000003" class="edge">
<title>Node2&#45;&gt;Node3</title>
<g id="a_edge2_Node000002_Node000003"><a xlink:title=" ">
<path fill="none" stroke="#63b8ff" d="M417.63,-49.46C407.86,-50.61 397.92,-51.77 388.19,-52.91"/>
<polygon fill="#63b8ff" stroke="#63b8ff" points="418.22,-52.92 427.74,-48.28 417.4,-45.97 418.22,-52.92"/>
</a>
</g>
</g>
<!-- Node6 -->
<g id="Node000006" class="node">
<title>Node6</title>
<g id="a_Node000006"><a xlink:href="structguanaqo_1_1trace_1_1ScopedLinalgCounters.html#a2aa041616f96b2109fb53a1938a512a6" target="_top" xlink:title=" ">
<polygon fill="white" stroke="#666666" points="392,-30 210,-30 210,0 392,0 392,-30"/>
<text text-anchor="start" x="218" y="-18" font-family="Helvetica,sans-Serif" font-size="10.00">guanaqo::trace::ScopedLinalg</text>
<text text-anchor="middle" x="301" y="-7" font-family="Helvetica,sans-Serif" font-size="10.00">Counters::~ScopedLinalgCounters</text>
</a>
</g>
</g>
<!-- Node2&#45;&gt;Node6 -->
<g id="edge5_Node000002_Node000006" class="edge">
<title>Node2&#45;&gt;Node6</title>
<g id="a_edge5_Node000002_Node000006"><a xlink:title=" ">
<path fill="none" stroke="#63b8ff" d="M417.59,-28.53C409.2,-27.55 400.7,-26.56 392.31,-25.57"/>
<polygon fill="#63b8ff" stroke="#63b8ff" points="417.4,-32.03 427.74,-29.72 418.22,-25.08 417.4,-32.03"/>
</a>
</g>
</g>
<!-- Node4 -->
<g id="Node000004" class="node">
<title>Node4</title>
<g id="a_Node000004"><a xlink:href="structguanaqo_1_1trace_1_1ScopedLinalgCounters.html#a48a66b3fd1197b2e2e2b317b404d2352" target="_top" xlink:title=" ">
<polygon fill="white" stroke="#666666" points="174,-102 0,-102 0,-72 174,-72 174,-102"/>
<text text-anchor="start" x="8" y="-90" font-family="Helvetica,sans-Serif" font-size="10.00">guanaqo::trace::ScopedLinalg</text>
<text text-anchor="middle" x="87" y="-79" font-family="Helvetica,sans-Serif" font-size="10.00">Counters::ScopedLinalgCounters</text>
</a>
</g>
</g>
<!-- Node3&#45;&gt;Node4 -->
<g id="edge3_Node000003_Node000004" class="edge">
<title>Node3&#45;&gt;Node4</title>
<g id="a_edge3_Node000003_Node000004"><a xlink:title=" ">
<path fill="none" stroke="#63b8ff" d="M203.6,-73.91C193.78,-75.03 183.85,-76.15 174.15,-77.25"/>
<polygon fill="#63b8ff" stroke="#63b8ff" points="204.23,-77.36 213.77,-72.76 203.44,-70.41 204.23,-77.36"/>
</a>
</g>
</g>
<!-- Node5 -->
<g id="Node000005" class="node">
<title>Node5</title>
<g id="a_Node000005"><a xlink:href="structguanaqo_1_1trace_1_1ScopedLinalgCounters.html#aebe45da08de258064f25ae0a6cb7234d" target="_top" xlink:title=" ">
<polygon fill="white" stroke="#666666" points="167,-54 7,-54 7,-24 167,-24 167,-54"/>
<text text-anchor="start" x="15" y="-42" font-family="Helvetica,sans-Serif" font-size="10.00">guanaqo::trace::ScopedLinalg</text>
<text text-anchor="middle" x="87" y="-31" font-family="Helvetica,sans-Serif" font-size="10.00">Counters::operator=</text>
</a>
</g>
</g>
<!-- Node3&#45;&gt;Node5 -->
<g id="edge4_Node000003_Node000005" class="edge">
<title>Node3&#45;&gt;Node5</title>
<g id="a_edge4_Node000003_Node000005"><a xlink:title=" ">
<path fill="none" stroke="#63b8ff" d="M203.62,-52.09C191.48,-50.71 179.16,-49.32 167.32,-47.98"/>
<polygon fill="#63b8ff" stroke="#63b8ff" points="203.44,-55.59 213.77,-53.24 204.23,-48.64 203.44,-55.59"/>
</a>
</g>
</g>
</g>
</svg>
