<?xml version="1.0" encoding="UTF-8" standalone="no"?>
<!DOCTYPE svg PUBLIC "-//W3C//DTD SVG 1.1//EN"
 "http://www.w3.org/Graphics/SVG/1.1/DTD/svg11.dtd">
<!-- Generated by graphviz version 2.43.0 (0)
 -->
<!-- Title: guanaqo::blas::xgemm Pages: 1 -->
<svg width="321pt" height="187pt"
 viewBox="0.00 0.00 321.00 186.50" xmlns="http://www.w3.org/2000/svg" xmlns:xlink="http://www.w3.org/1999/xlink">

<svg id="main" version="1.1" xmlns="http://www.w3.org/2000/svg" xmlns:xlink="http://www.w3.org/1999/xlink" xml:space="preserve">

<style type="text/css"><![CDATA[
.node, .edge {opacity: 0.7;}
.node.selected, .edge.selected {opacity: 1;}
.edge:hover path { stroke: red; }
.edge:hover polygon { stroke: red; fill: red; }
]]></style>
<script type="application/ecmascript" xlink:href="svg.min.js"/>
<svg id="graph" class="graph">
<g id="graph0" class="graph" transform="scale(1 1) rotate(0) translate(4 182.5)">
<title>guanaqo::blas::xgemm</title>
<!-- Node1 -->
<g id="Node000001" class="node">
<title>Node1</title>
<g id="a_Node000001"><a xlink:title=" ">
<polygon fill="#999999" stroke="#666666" points="313,-93 185,-93 185,-74 313,-74 313,-93"/>
<text text-anchor="middle" x="249" y="-81" font-family="Helvetica,sans-Serif" font-size="10.00">guanaqo::blas::xgemm</text>
</a>
</g>
</g>
<!-- Node2 -->
<g id="Node000002" class="node">
<title>Node2</title>
<g id="a_Node000002"><a xlink:href="group__linalg__blas__ll.html#gae81961420e8934ea595eb63833c5f693" target="_top" xlink:title=" ">
<polygon fill="white" stroke="#666666" points="138.5,-178.5 10.5,-178.5 10.5,-148.5 138.5,-148.5 138.5,-178.5"/>
<text text-anchor="start" x="18.5" y="-166.5" font-family="Helvetica,sans-Serif" font-size="10.00">guanaqo::blas::xgemm</text>
<text text-anchor="middle" x="74.5" y="-155.5" font-family="Helvetica,sans-Serif" font-size="10.00">_batch_strided</text>
</a>
</g>
</g>
<!-- Node1&#45;&gt;Node2 -->
<g id="edge1_Node000001_Node000002" class="edge">
<title>Node1&#45;&gt;Node2</title>
<g id="a_edge1_Node000001_Node000002"><a xlink:title=" ">
<path fill="none" stroke="#63b8ff" d="M224.48,-98.58C204.84,-110.73 175.83,-127.67 149,-139.5 141.75,-142.69 133.94,-145.69 126.21,-148.41"/>
<polygon fill="#63b8ff" stroke="#63b8ff" points="226.44,-101.48 233.06,-93.21 222.72,-95.55 226.44,-101.48"/>
</a>
</g>
</g>
<!-- Node3 -->
<g id="Node000003" class="node">
<title>Node3</title>
<g id="a_Node000003"><a xlink:href="group__linalg__blas__hl.html#ga10da789f233041aeac664bbf614a3d1c" target="_top" xlink:title=" ">
<polygon fill="white" stroke="#666666" points="149,-130 0,-130 0,-111 149,-111 149,-130"/>
<text text-anchor="middle" x="74.5" y="-118" font-family="Helvetica,sans-Serif" font-size="10.00">guanaqo::blas::xgemm_NN</text>
</a>
</g>
</g>
<!-- Node1&#45;&gt;Node3 -->
<g id="edge2_Node000001_Node000003" class="edge">
<title>Node1&#45;&gt;Node3</title>
<g id="a_edge2_Node000001_Node000003"><a xlink:title=" ">
<path fill="none" stroke="#63b8ff" d="M193.68,-95.15C169.98,-100.23 142.54,-106.12 120.07,-110.94"/>
<polygon fill="#63b8ff" stroke="#63b8ff" points="194.53,-98.55 203.58,-93.03 193.07,-91.7 194.53,-98.55"/>
</a>
</g>
</g>
<!-- Node4 -->
<g id="Node000004" class="node">
<title>Node4</title>
<g id="a_Node000004"><a xlink:href="group__linalg__blas__hl.html#gaaca0d2aa4f6081d9ed621b64f4f50a42" target="_top" xlink:title=" ">
<polygon fill="white" stroke="#666666" points="148,-93 1,-93 1,-74 148,-74 148,-93"/>
<text text-anchor="middle" x="74.5" y="-81" font-family="Helvetica,sans-Serif" font-size="10.00">guanaqo::blas::xgemm_NT</text>
</a>
</g>
</g>
<!-- Node1&#45;&gt;Node4 -->
<g id="edge3_Node000001_Node000004" class="edge">
<title>Node1&#45;&gt;Node4</title>
<g id="a_edge3_Node000001_Node000004"><a xlink:title=" ">
<path fill="none" stroke="#63b8ff" d="M174.56,-83.5C165.79,-83.5 156.84,-83.5 148.09,-83.5"/>
<polygon fill="#63b8ff" stroke="#63b8ff" points="174.75,-87 184.75,-83.5 174.75,-80 174.75,-87"/>
</a>
</g>
</g>
<!-- Node5 -->
<g id="Node000005" class="node">
<title>Node5</title>
<g id="a_Node000005"><a xlink:href="group__linalg__blas__hl.html#gab16584d4d396a794beb7da66c6561170" target="_top" xlink:title=" ">
<polygon fill="white" stroke="#666666" points="148,-56 1,-56 1,-37 148,-37 148,-56"/>
<text text-anchor="middle" x="74.5" y="-44" font-family="Helvetica,sans-Serif" font-size="10.00">guanaqo::blas::xgemm_TN</text>
</a>
</g>
</g>
<!-- Node1&#45;&gt;Node5 -->
<g id="edge4_Node000001_Node000005" class="edge">
<title>Node1&#45;&gt;Node5</title>
<g id="a_edge4_Node000001_Node000005"><a xlink:title=" ">
<path fill="none" stroke="#63b8ff" d="M193.68,-71.85C169.98,-66.77 142.54,-60.88 120.07,-56.06"/>
<polygon fill="#63b8ff" stroke="#63b8ff" points="193.07,-75.3 203.58,-73.97 194.53,-68.45 193.07,-75.3"/>
</a>
</g>
</g>
<!-- Node6 -->
<g id="Node000006" class="node">
<title>Node6</title>
<g id="a_Node000006"><a xlink:href="group__linalg__blas__hl.html#ga260553505066919c681479bfaa576d82" target="_top" xlink:title=" ">
<polygon fill="white" stroke="#666666" points="147.5,-19 1.5,-19 1.5,0 147.5,0 147.5,-19"/>
<text text-anchor="middle" x="74.5" y="-7" font-family="Helvetica,sans-Serif" font-size="10.00">guanaqo::blas::xgemm_TT</text>
</a>
</g>
</g>
<!-- Node1&#45;&gt;Node6 -->
<g id="edge5_Node000001_Node000006" class="edge">
<title>Node1&#45;&gt;Node6</title>
<g id="a_edge5_Node000001_Node000006"><a xlink:title=" ">
<path fill="none" stroke="#63b8ff" d="M224.97,-68.49C205.42,-56.29 176.27,-39.39 149,-28.5 139.82,-24.83 129.71,-21.68 120,-19.06"/>
<polygon fill="#63b8ff" stroke="#63b8ff" points="223.17,-71.49 233.49,-73.88 226.91,-65.58 223.17,-71.49"/>
</a>
</g>
</g>
</g>
</svg>
</svg>

<style type='text/css'>
<![CDATA[
[data-mouse-over-selected='false'] { opacity: 0.7; }
[data-mouse-over-selected='true']  { opacity: 1.0; }
]]>
</style>
<script type="application/ecmascript"><![CDATA[
document.addEventListener('DOMContentLoaded', (event) => {
  highlightEdges();
  highlightAdjacentNodes();
});
]]></script>
</svg>
