<?xml version="1.0" encoding="UTF-8" standalone="no"?>
<!DOCTYPE svg PUBLIC "-//W3C//DTD SVG 1.1//EN"
 "http://www.w3.org/Graphics/SVG/1.1/DTD/svg11.dtd">
<!-- Generated by graphviz version 2.43.0 (0)
 -->
<!-- Title: guanaqo::blas::xpotrf Pages: 1 -->
<svg width="295pt" height="76pt"
 viewBox="0.00 0.00 295.00 75.50" xmlns="http://www.w3.org/2000/svg" xmlns:xlink="http://www.w3.org/1999/xlink">
<g id="graph0" class="graph" transform="scale(1 1) rotate(0) translate(4 71.5)">
<title>guanaqo::blas::xpotrf</title>
<!-- Node1 -->
<g id="Node000001" class="node">
<title>Node1</title>
<g id="a_Node000001"><a xlink:title=" ">
<polygon fill="#999999" stroke="#666666" points="287,-40 167,-40 167,-21 287,-21 287,-40"/>
<text text-anchor="middle" x="227" y="-28" font-family="Helvetica,sans-Serif" font-size="10.00">guanaqo::blas::xpotrf</text>
</a>
</g>
</g>
<!-- Node2 -->
<g id="Node000002" class="node">
<title>Node2</title>
<g id="a_Node000002"><a xlink:href="group__linalg__blas__ll.html#ga4c0f8d91597c94e7dd628055758e46e1" target="_top" xlink:title=" ">
<polygon fill="white" stroke="#666666" points="125.5,-67.5 5.5,-67.5 5.5,-37.5 125.5,-37.5 125.5,-67.5"/>
<text text-anchor="start" x="13.5" y="-55.5" font-family="Helvetica,sans-Serif" font-size="10.00">guanaqo::blas::xpotrf</text>
<text text-anchor="middle" x="65.5" y="-44.5" font-family="Helvetica,sans-Serif" font-size="10.00">_batch_strided</text>
</a>
</g>
</g>
<!-- Node1&#45;&gt;Node2 -->
<g id="edge1_Node000001_Node000002" class="edge">
<title>Node1&#45;&gt;Node2</title>
<g id="a_edge1_Node000001_Node000002"><a xlink:title=" ">
<path fill="none" stroke="#63b8ff" d="M156.45,-40.09C146.19,-41.51 135.7,-42.96 125.68,-44.34"/>
<polygon fill="#63b8ff" stroke="#63b8ff" points="157.18,-43.53 166.61,-38.69 156.22,-36.59 157.18,-43.53"/>
</a>
</g>
</g>
<!-- Node3 -->
<g id="Node000003" class="node">
<title>Node3</title>
<g id="a_Node000003"><a xlink:href="group__linalg__blas__hl.html#ga5c1c9f54a74fb21671b35ce863f441ea" target="_top" xlink:title=" ">
<polygon fill="white" stroke="#666666" points="131,-19 0,-19 0,0 131,0 131,-19"/>
<text text-anchor="middle" x="65.5" y="-7" font-family="Helvetica,sans-Serif" font-size="10.00">guanaqo::blas::xpotrf_L</text>
</a>
</g>
</g>
<!-- Node1&#45;&gt;Node3 -->
<g id="edge2_Node000001_Node000003" class="edge">
<title>Node1&#45;&gt;Node3</title>
<g id="a_edge2_Node000001_Node000003"><a xlink:title=" ">
<path fill="none" stroke="#63b8ff" d="M156.42,-21.34C147.98,-20.23 139.39,-19.1 131.03,-18"/>
<polygon fill="#63b8ff" stroke="#63b8ff" points="156.24,-24.84 166.61,-22.68 157.15,-17.9 156.24,-24.84"/>
</a>
</g>
</g>
</g>
</svg>
