<?xml version="1.0" encoding="UTF-8" standalone="no"?>
<!DOCTYPE svg PUBLIC "-//W3C//DTD SVG 1.1//EN"
 "http://www.w3.org/Graphics/SVG/1.1/DTD/svg11.dtd">
<!-- Generated by graphviz version 2.43.0 (0)
 -->
<!-- Title: Sparse matrices Pages: 1 -->
<svg width="381pt" height="64pt"
 viewBox="0.00 0.00 381.00 64.00" xmlns="http://www.w3.org/2000/svg" xmlns:xlink="http://www.w3.org/1999/xlink">

<svg id="main" version="1.1" xmlns="http://www.w3.org/2000/svg" xmlns:xlink="http://www.w3.org/1999/xlink" xml:space="preserve">

<style type="text/css"><![CDATA[
.node, .edge {opacity: 0.7;}
.node.selected, .edge.selected {opacity: 1;}
.edge:hover path { stroke: red; }
.edge:hover polygon { stroke: red; fill: red; }
]]></style>
<script type="application/ecmascript" xlink:href="svg.min.js"/>
<svg id="graph" class="graph">
<g id="graph0" class="graph" transform="scale(1 1) rotate(0) translate(4 60)">
<title>Sparse matrices</title>
<!-- Node2 -->
<g id="Node000002" class="node">
<title>Node2</title>
<g id="a_Node000002"><a xlink:href="group__linalg.html" target="_top" xlink:title="Linear algebra utilities, including dense and matrix views, conversions, BLAS wrappers,...">
<polygon fill="white" stroke="#666666" points="87,-37 0,-37 0,-18 87,-18 87,-37"/>
<text text-anchor="middle" x="43.5" y="-25" font-family="Helvetica,sans-Serif" font-size="10.00">Linear Algebra</text>
</a>
</g>
</g>
<!-- Node1 -->
<g id="Node000001" class="node">
<title>Node1</title>
<g id="a_Node000001"><a xlink:title="Sparse matrix data structures.">
<polygon fill="#999999" stroke="#666666" points="218,-37 123,-37 123,-18 218,-18 218,-37"/>
<text text-anchor="middle" x="170.5" y="-25" font-family="Helvetica,sans-Serif" font-size="10.00">Sparse matrices</text>
</a>
</g>
</g>
<!-- Node2&#45;&gt;Node1 -->
<g id="edge1" class="edge">
<title>Node2&#45;&gt;Node1</title>
<path fill="none" stroke="black" d="M97.31,-27.5C105.76,-27.5 114.45,-27.5 122.74,-27.5"/>
<polygon fill="black" stroke="black" points="97.17,-24 87.17,-27.5 97.17,-31 97.17,-24"/>
</g>
<!-- Node3 -->
<g id="Node000003" class="node">
<title>Node3</title>
<g id="a_Node000003"><a xlink:href="group__linalg__sparsity__conv.html" target="_top" xlink:title="Sparse matrix conversions.">
<polygon fill="white" stroke="#666666" points="373,-56 254,-56 254,-37 373,-37 373,-56"/>
<text text-anchor="middle" x="313.5" y="-44" font-family="Helvetica,sans-Serif" font-size="10.00">Sparsity Conversions</text>
</a>
</g>
</g>
<!-- Node1&#45;&gt;Node3 -->
<g id="edge2" class="edge">
<title>Node1&#45;&gt;Node3</title>
<path fill="none" stroke="black" d="M228.21,-35.14C236.68,-36.28 245.42,-37.46 253.92,-38.61"/>
<polygon fill="black" stroke="black" points="228.44,-31.64 218.06,-33.77 227.5,-38.58 228.44,-31.64"/>
</g>
<!-- Node4 -->
<g id="Node000004" class="node">
<title>Node4</title>
<g id="a_Node000004"><a xlink:href="group__linalg__sparsity__utils.html" target="_top" xlink:title="Sparse matrix utilities for sorting indices, checking uniqueness, etc.">
<polygon fill="white" stroke="#666666" points="362.5,-19 264.5,-19 264.5,0 362.5,0 362.5,-19"/>
<text text-anchor="middle" x="313.5" y="-7" font-family="Helvetica,sans-Serif" font-size="10.00">Sparsity Utilities</text>
</a>
</g>
</g>
<!-- Node1&#45;&gt;Node4 -->
<g id="edge3" class="edge">
<title>Node1&#45;&gt;Node4</title>
<path fill="none" stroke="black" d="M228.3,-20.25C240.15,-18.74 252.54,-17.15 264.06,-15.68"/>
<polygon fill="black" stroke="black" points="227.54,-16.82 218.06,-21.56 228.42,-23.76 227.54,-16.82"/>
</g>
</g>
</svg>
</svg>

<style type='text/css'>
<![CDATA[
[data-mouse-over-selected='false'] { opacity: 0.7; }
[data-mouse-over-selected='true']  { opacity: 1.0; }
]]>
</style>
<script type="application/ecmascript"><![CDATA[
document.addEventListener('DOMContentLoaded', (event) => {
  highlightEdges();
  highlightAdjacentNodes();
});
]]></script>
</svg>
