<?xml version="1.0" encoding="UTF-8" standalone="no"?>
<!DOCTYPE svg PUBLIC "-//W3C//DTD SVG 1.1//EN"
 "http://www.w3.org/Graphics/SVG/1.1/DTD/svg11.dtd">
<!-- Generated by graphviz version 2.43.0 (0)
 -->
<!-- Title: guanaqo::io::csv_read_row Pages: 1 -->
<svg width="664pt" height="134pt"
 viewBox="0.00 0.00 664.00 134.00" xmlns="http://www.w3.org/2000/svg" xmlns:xlink="http://www.w3.org/1999/xlink">
<g id="graph0" class="graph" transform="scale(1 1) rotate(0) translate(4 130)">
<title>guanaqo::io::csv_read_row</title>
<!-- Node1 -->
<g id="Node000001" class="node">
<title>Node1</title>
<g id="a_Node000001"><a xlink:title=" ">
<polygon fill="#999999" stroke="#666666" points="146,-77.5 0,-77.5 0,-58.5 146,-58.5 146,-77.5"/>
<text text-anchor="middle" x="73" y="-65.5" font-family="Helvetica,sans-Serif" font-size="10.00">guanaqo::io::csv_read_row</text>
</a>
</g>
</g>
<!-- Node2 -->
<g id="Node000002" class="node">
<title>Node2</title>
<g id="a_Node000002"><a xlink:href="structguanaqo_1_1io_1_1CSVReader.html#adc16a0a06c51a6a60fb65d04eed44fcd" target="_top" xlink:title=" ">
<polygon fill="white" stroke="#666666" points="486,-126 352,-126 352,-96 486,-96 486,-126"/>
<text text-anchor="start" x="360" y="-114" font-family="Helvetica,sans-Serif" font-size="10.00">guanaqo::io::CSVReader</text>
<text text-anchor="middle" x="419" y="-103" font-family="Helvetica,sans-Serif" font-size="10.00">::next_line</text>
</a>
</g>
</g>
<!-- Node1&#45;&gt;Node2 -->
<g id="edge1_Node000001_Node000002" class="edge">
<title>Node1&#45;&gt;Node2</title>
<g id="a_edge1_Node000001_Node000002"><a xlink:title=" ">
<path fill="none" stroke="#63b8ff" d="M111.25,-77.61C131.95,-82.62 158.26,-88.42 182,-92 235,-99.98 295.23,-104.76 341.58,-107.53"/>
<polygon fill="#63b8ff" stroke="#63b8ff" points="341.67,-111.04 351.85,-108.13 342.07,-104.05 341.67,-111.04"/>
</a>
</g>
</g>
<!-- Node3 -->
<g id="Node000003" class="node">
<title>Node3</title>
<g id="a_Node000003"><a xlink:href="structguanaqo_1_1io_1_1CSVReader.html#ac6ff711471364524ec918facf8059bc4" target="_top" xlink:title=" ">
<polygon fill="white" stroke="#666666" points="316,-35 182,-35 182,-5 316,-5 316,-35"/>
<text text-anchor="start" x="190" y="-23" font-family="Helvetica,sans-Serif" font-size="10.00">guanaqo::io::CSVReader</text>
<text text-anchor="middle" x="249" y="-12" font-family="Helvetica,sans-Serif" font-size="10.00">::read</text>
</a>
</g>
</g>
<!-- Node1&#45;&gt;Node3 -->
<g id="edge2_Node000001_Node000003" class="edge">
<title>Node1&#45;&gt;Node3</title>
<g id="a_edge2_Node000001_Node000003"><a xlink:title=" ">
<path fill="none" stroke="#63b8ff" d="M108.79,-58.4C130.16,-52.51 158.18,-44.78 183.49,-37.8"/>
<polygon fill="#63b8ff" stroke="#63b8ff" points="184.69,-41.1 193.4,-35.06 182.83,-34.35 184.69,-41.1"/>
</a>
</g>
</g>
<!-- Node7 -->
<g id="Node000007" class="node">
<title>Node7</title>
<g id="a_Node000007"><a xlink:href="structguanaqo_1_1io_1_1CSVReader.html#a1ec0f1dda005a6206400f818159cf09f" target="_top" xlink:title=" ">
<polygon fill="white" stroke="#666666" points="316,-83 182,-83 182,-53 316,-53 316,-83"/>
<text text-anchor="start" x="190" y="-71" font-family="Helvetica,sans-Serif" font-size="10.00">guanaqo::io::CSVReader</text>
<text text-anchor="middle" x="249" y="-60" font-family="Helvetica,sans-Serif" font-size="10.00">::skip_comments</text>
</a>
</g>
</g>
<!-- Node1&#45;&gt;Node7 -->
<g id="edge6_Node000001_Node000007" class="edge">
<title>Node1&#45;&gt;Node7</title>
<g id="a_edge6_Node000001_Node000007"><a xlink:title=" ">
<path fill="none" stroke="#63b8ff" d="M146.03,-68C154.47,-68 163.11,-68 171.6,-68"/>
<polygon fill="#63b8ff" stroke="#63b8ff" points="171.88,-71.5 181.88,-68 171.88,-64.5 171.88,-71.5"/>
</a>
</g>
</g>
<!-- Node4 -->
<g id="Node000004" class="node">
<title>Node4</title>
<g id="a_Node000004"><a xlink:href="structguanaqo_1_1io_1_1CSVReader.html#a9537b30cc2e4d7de1406c5aae39b03b7" target="_top" xlink:title=" ">
<polygon fill="white" stroke="#666666" points="486,-78 352,-78 352,-48 486,-48 486,-78"/>
<text text-anchor="start" x="360" y="-66" font-family="Helvetica,sans-Serif" font-size="10.00">guanaqo::io::CSVReader</text>
<text text-anchor="middle" x="419" y="-55" font-family="Helvetica,sans-Serif" font-size="10.00">::read_chunk</text>
</a>
</g>
</g>
<!-- Node3&#45;&gt;Node4 -->
<g id="edge3_Node000003_Node000004" class="edge">
<title>Node3&#45;&gt;Node4</title>
<g id="a_edge3_Node000003_Node000004"><a xlink:title=" ">
<path fill="none" stroke="#63b8ff" d="M308.76,-35.04C321.93,-38.41 336.02,-42.02 349.54,-45.48"/>
<polygon fill="#63b8ff" stroke="#63b8ff" points="348.72,-48.88 359.27,-47.97 350.46,-42.1 348.72,-48.88"/>
</a>
</g>
</g>
<!-- Node5 -->
<g id="Node000005" class="node">
<title>Node5</title>
<g id="a_Node000005"><a xlink:href="structguanaqo_1_1io_1_1CSVReader.html#a23247665597068315987a44467d4459a" target="_top" xlink:title=" ">
<polygon fill="white" stroke="#666666" points="486,-30 352,-30 352,0 486,0 486,-30"/>
<text text-anchor="start" x="360" y="-18" font-family="Helvetica,sans-Serif" font-size="10.00">guanaqo::io::CSVReader</text>
<text text-anchor="middle" x="419" y="-7" font-family="Helvetica,sans-Serif" font-size="10.00">::read_single</text>
</a>
</g>
</g>
<!-- Node3&#45;&gt;Node5 -->
<g id="edge4_Node000003_Node000005" class="edge">
<title>Node3&#45;&gt;Node5</title>
<g id="a_edge4_Node000003_Node000005"><a xlink:title=" ">
<path fill="none" stroke="#63b8ff" d="M316.4,-18.02C324.68,-17.78 333.2,-17.52 341.62,-17.27"/>
<polygon fill="#63b8ff" stroke="#63b8ff" points="341.92,-20.77 351.81,-16.97 341.71,-13.77 341.92,-20.77"/>
</a>
</g>
</g>
<!-- Node6 -->
<g id="Node000006" class="node">
<title>Node6</title>
<g id="a_Node000006"><a xlink:href="structguanaqo_1_1io_1_1CSVReader.html#a91ad1ccf57750d7bec9b5c830961665a" target="_top" xlink:title=" ">
<polygon fill="white" stroke="#666666" points="656,-30 522,-30 522,0 656,0 656,-30"/>
<text text-anchor="start" x="530" y="-18" font-family="Helvetica,sans-Serif" font-size="10.00">guanaqo::io::CSVReader</text>
<text text-anchor="middle" x="589" y="-7" font-family="Helvetica,sans-Serif" font-size="10.00">::strtod_ovl</text>
</a>
</g>
</g>
<!-- Node5&#45;&gt;Node6 -->
<g id="edge5_Node000005_Node000006" class="edge">
<title>Node5&#45;&gt;Node6</title>
<g id="a_edge5_Node000005_Node000006"><a xlink:title=" ">
<path fill="none" stroke="#63b8ff" d="M486.4,-15C494.68,-15 503.2,-15 511.62,-15"/>
<polygon fill="#63b8ff" stroke="#63b8ff" points="511.81,-18.5 521.81,-15 511.81,-11.5 511.81,-18.5"/>
</a>
</g>
</g>
<!-- Node7&#45;&gt;Node2 -->
<g id="edge7_Node000007_Node000002" class="edge">
<title>Node7&#45;&gt;Node2</title>
<g id="a_edge7_Node000007_Node000002"><a xlink:title=" ">
<path fill="none" stroke="#63b8ff" d="M308.76,-83.04C321.93,-86.41 336.02,-90.02 349.54,-93.48"/>
<polygon fill="#63b8ff" stroke="#63b8ff" points="348.72,-96.88 359.27,-95.97 350.46,-90.1 348.72,-96.88"/>
</a>
</g>
</g>
<!-- Node7&#45;&gt;Node4 -->
<g id="edge8_Node000007_Node000004" class="edge">
<title>Node7&#45;&gt;Node4</title>
<g id="a_edge8_Node000007_Node000004"><a xlink:title=" ">
<path fill="none" stroke="#63b8ff" d="M316.4,-66.02C324.68,-65.78 333.2,-65.52 341.62,-65.27"/>
<polygon fill="#63b8ff" stroke="#63b8ff" points="341.92,-68.77 351.81,-64.97 341.71,-61.77 341.92,-68.77"/>
</a>
</g>
</g>
</g>
</svg>
