<?xml version="1.0" encoding="UTF-8" standalone="no"?>
<!DOCTYPE svg PUBLIC "-//W3C//DTD SVG 1.1//EN"
 "http://www.w3.org/Graphics/SVG/1.1/DTD/svg11.dtd">
<!-- Generated by graphviz version 2.43.0 (0)
 -->
<!-- Title: guanaqo::print_elem Pages: 1 -->
<!--zoomable 141 -->

<svg id="main" version="1.1" xmlns="http://www.w3.org/2000/svg" xmlns:xlink="http://www.w3.org/1999/xlink" xml:space="preserve" onload="init(evt)">

<style type="text/css"><![CDATA[
.node, .edge {opacity: 0.7;}
.node.selected, .edge.selected {opacity: 1;}
.edge:hover path { stroke: red; }
.edge:hover polygon { stroke: red; fill: red; }
]]></style>

<defs>
  <circle id="rim" cx="0" cy="0" r="7"/>
  <circle id="rim2" cx="0" cy="0" r="3.5"/>
  <g id="zoomPlus">
    <use xlink:href="#rim" fill="#404040"><set attributeName="fill" to="#808080" begin="zoomplus.mouseover" end="zoomplus.mouseout"/></use>
    <path d="M-4,0h8M0,-4v8" fill="none" stroke="white" stroke-width="1.5" pointer-events="none"/>
  </g>
  <g id="zoomMin">
    <use xlink:href="#rim" fill="#404040"><set attributeName="fill" to="#808080" begin="zoomminus.mouseover" end="zoomminus.mouseout"/></use>
    <path d="M-4,0h8" fill="none" stroke="white" stroke-width="1.5" pointer-events="none"/>
  </g>
  <g id="arrowUp" transform="translate(30 24)">
    <use xlink:href="#rim"/>
    <path pointer-events="none" fill="none" stroke="white" stroke-width="1.5" d="M0,-3.0v7 M-2.5,-0.5L0,-3.0L2.5,-0.5"/>
  </g>
  <g id="arrowRight" transform="rotate(90) translate(36 -43)">
    <use xlink:href="#rim"/>
    <path pointer-events="none" fill="none" stroke="white" stroke-width="1.5" d="M0,-3.0v7 M-2.5,-0.5L0,-3.0L2.5,-0.5"/>
  </g>
  <g id="arrowDown" transform="rotate(180) translate(-30 -48)">
    <use xlink:href="#rim"/>
    <path pointer-events="none" fill="none" stroke="white" stroke-width="1.5" d="M0,-3.0v7 M-2.5,-0.5L0,-3.0L2.5,-0.5"/>
  </g>
  <g id="arrowLeft" transform="rotate(270) translate(-36 17)">
    <use xlink:href="#rim"/>
    <path pointer-events="none" fill="none" stroke="white" stroke-width="1.5" d="M0,-3.0v7 M-2.5,-0.5L0,-3.0L2.5,-0.5"/>
  </g>
  <g id="resetDef">
    <use xlink:href="#rim2" fill="#404040"><set attributeName="fill" to="#808080" begin="reset.mouseover" end="reset.mouseout"/></use>
  </g>
</defs>
<script type="application/ecmascript">
var viewWidth = 602;
var viewHeight = 141;
var sectionId = 'dynsection-5';
</script>
<script type="application/ecmascript" xlink:href="svg.min.js"/>
<svg id="graph" class="graph">
<g id="viewport">
<title>guanaqo::print_elem</title>
<!-- Node1 -->
<g id="Node000001" class="node">
<title>Node1</title>
<g id="a_Node000001"><a xlink:title=" ">
<polygon fill="#999999" stroke="#666666" points="594,-77 477,-77 477,-58 594,-58 594,-77"/>
<text text-anchor="middle" x="535.5" y="-65" font-family="Helvetica,sans-Serif" font-size="10.00">guanaqo::print_elem</text>
</a>
</g>
</g>
<!-- Node2 -->
<g id="Node000002" class="node">
<title>Node2</title>
<g id="a_Node000002"><a xlink:href="namespaceguanaqo_1_1detail.html#a88c9fe1314e5663d4c70ce10355c6e56" target="_top" xlink:title=" ">
<polygon fill="white" stroke="#666666" points="441,-82.5 320,-82.5 320,-52.5 441,-52.5 441,-82.5"/>
<text text-anchor="start" x="328" y="-70.5" font-family="Helvetica,sans-Serif" font-size="10.00">guanaqo::detail::print</text>
<text text-anchor="middle" x="380.5" y="-59.5" font-family="Helvetica,sans-Serif" font-size="10.00">_csv_impl</text>
</a>
</g>
</g>
<!-- Node1&#45;&gt;Node2 -->
<g id="edge1_Node000001_Node000002" class="edge">
<title>Node1&#45;&gt;Node2</title>
<g id="a_edge1_Node000001_Node000002"><a xlink:title=" ">
<path fill="none" stroke="#63b8ff" d="M466.48,-67.5C458.06,-67.5 449.49,-67.5 441.21,-67.5"/>
<polygon fill="#63b8ff" stroke="#63b8ff" points="466.66,-71 476.66,-67.5 466.66,-64 466.66,-71"/>
</a>
</g>
</g>
<!-- Node3 -->
<g id="Node000003" class="node">
<title>Node3</title>
<g id="a_Node000003"><a xlink:href="namespaceguanaqo_1_1detail.html#a8c302199bfdbe4134d5a49129ee1aaf4" target="_top" xlink:title=" ">
<polygon fill="white" stroke="#666666" points="284,-106.5 163,-106.5 163,-76.5 284,-76.5 284,-106.5"/>
<text text-anchor="start" x="171" y="-94.5" font-family="Helvetica,sans-Serif" font-size="10.00">guanaqo::detail::print</text>
<text text-anchor="middle" x="223.5" y="-83.5" font-family="Helvetica,sans-Serif" font-size="10.00">_matlab_impl</text>
</a>
</g>
</g>
<!-- Node2&#45;&gt;Node3 -->
<g id="edge2_Node000002_Node000003" class="edge">
<title>Node2&#45;&gt;Node3</title>
<g id="a_edge2_Node000002_Node000003"><a xlink:title=" ">
<path fill="none" stroke="#63b8ff" d="M309.62,-78.32C301.07,-79.64 292.39,-80.99 284.01,-82.29"/>
<polygon fill="#63b8ff" stroke="#63b8ff" points="310.23,-81.77 319.57,-76.78 309.16,-74.85 310.23,-81.77"/>
</a>
</g>
</g>
<!-- Node6 -->
<g id="Node000006" class="node">
<title>Node6</title>
<g id="a_Node000006"><a xlink:href="namespaceguanaqo_1_1detail.html#ace413852839567e1ea2455dfddde9c73" target="_top" xlink:title=" ">
<polygon fill="white" stroke="#666666" points="284,-58.5 163,-58.5 163,-28.5 284,-28.5 284,-58.5"/>
<text text-anchor="start" x="171" y="-46.5" font-family="Helvetica,sans-Serif" font-size="10.00">guanaqo::detail::print</text>
<text text-anchor="middle" x="223.5" y="-35.5" font-family="Helvetica,sans-Serif" font-size="10.00">_python_impl</text>
</a>
</g>
</g>
<!-- Node2&#45;&gt;Node6 -->
<g id="edge5_Node000002_Node000006" class="edge">
<title>Node2&#45;&gt;Node6</title>
<g id="a_edge5_Node000002_Node000006"><a xlink:title=" ">
<path fill="none" stroke="#63b8ff" d="M309.62,-56.68C301.07,-55.36 292.39,-54.01 284.01,-52.71"/>
<polygon fill="#63b8ff" stroke="#63b8ff" points="309.16,-60.15 319.57,-58.22 310.23,-53.23 309.16,-60.15"/>
</a>
</g>
</g>
<!-- Node4 -->
<g id="Node000004" class="node">
<title>Node4</title>
<g id="a_Node000004"><a xlink:href="group__io.html#ga706189963835322b0638082bb4ee4394" target="_top" xlink:title=" ">
<polygon fill="white" stroke="#666666" points="127,-133 0,-133 0,-114 127,-114 127,-133"/>
<text text-anchor="middle" x="63.5" y="-121" font-family="Helvetica,sans-Serif" font-size="10.00">guanaqo::print_matlab</text>
</a>
</g>
</g>
<!-- Node3&#45;&gt;Node4 -->
<g id="edge3_Node000003_Node000004" class="edge">
<title>Node3&#45;&gt;Node4</title>
<g id="a_edge3_Node000003_Node000004"><a xlink:title=" ">
<path fill="none" stroke="#63b8ff" d="M152.71,-105.63C138.78,-108.46 124.46,-111.36 111.51,-113.98"/>
<polygon fill="#63b8ff" stroke="#63b8ff" points="153.66,-109.01 162.77,-103.6 152.27,-102.15 153.66,-109.01"/>
</a>
</g>
</g>
<!-- Node5 -->
<g id="Node000005" class="node">
<title>Node5</title>
<g id="a_Node000005"><a xlink:href="group__io.html#ga89b21ad0321c9a7125cf0cae57987307" target="_top" xlink:title=" ">
<polygon fill="white" stroke="#666666" points="127,-96 0,-96 0,-77 127,-77 127,-96"/>
<text text-anchor="middle" x="63.5" y="-84" font-family="Helvetica,sans-Serif" font-size="10.00">guanaqo::print_matlab</text>
</a>
</g>
</g>
<!-- Node3&#45;&gt;Node5 -->
<g id="edge4_Node000003_Node000005" class="edge">
<title>Node3&#45;&gt;Node5</title>
<g id="a_edge4_Node000003_Node000005"><a xlink:title=" ">
<path fill="none" stroke="#63b8ff" d="M152.57,-89.29C144.12,-89.02 135.54,-88.75 127.21,-88.48"/>
<polygon fill="#63b8ff" stroke="#63b8ff" points="152.66,-92.79 162.77,-89.61 152.88,-85.8 152.66,-92.79"/>
</a>
</g>
</g>
<!-- Node7 -->
<g id="Node000007" class="node">
<title>Node7</title>
<g id="a_Node000007"><a xlink:href="group__io.html#gaf6fcae141f820494c73f5d2d58a6daf1" target="_top" xlink:title=" ">
<polygon fill="white" stroke="#666666" points="126.5,-56 0.5,-56 0.5,-37 126.5,-37 126.5,-56"/>
<text text-anchor="middle" x="63.5" y="-44" font-family="Helvetica,sans-Serif" font-size="10.00">guanaqo::print_python</text>
</a>
</g>
</g>
<!-- Node6&#45;&gt;Node7 -->
<g id="edge6_Node000006_Node000007" class="edge">
<title>Node6&#45;&gt;Node7</title>
<g id="a_edge6_Node000006_Node000007"><a xlink:title=" ">
<path fill="none" stroke="#63b8ff" d="M152.69,-44.83C144.03,-44.99 135.22,-45.16 126.69,-45.32"/>
<polygon fill="#63b8ff" stroke="#63b8ff" points="152.84,-48.32 162.77,-44.63 152.7,-41.32 152.84,-48.32"/>
</a>
</g>
</g>
<!-- Node8 -->
<g id="Node000008" class="node">
<title>Node8</title>
<g id="a_Node000008"><a xlink:href="group__io.html#ga756d1c6bfac4b93da66e64e5f9c2b463" target="_top" xlink:title=" ">
<polygon fill="white" stroke="#666666" points="126.5,-19 0.5,-19 0.5,0 126.5,0 126.5,-19"/>
<text text-anchor="middle" x="63.5" y="-7" font-family="Helvetica,sans-Serif" font-size="10.00">guanaqo::print_python</text>
</a>
</g>
</g>
<!-- Node6&#45;&gt;Node8 -->
<g id="edge7_Node000006_Node000008" class="edge">
<title>Node6&#45;&gt;Node8</title>
<g id="a_edge7_Node000006_Node000008"><a xlink:title=" ">
<path fill="none" stroke="#63b8ff" d="M152.62,-28.46C137.82,-25.28 122.59,-22 109.04,-19.09"/>
<polygon fill="#63b8ff" stroke="#63b8ff" points="152.25,-31.96 162.77,-30.65 153.73,-25.12 152.25,-31.96"/>
</a>
</g>
</g>
</g>
</svg>

<g id="navigator" transform="translate(0 0)" fill="#404254">
  <rect fill="#f2f5e9" fill-opacity="0.5" stroke="#606060" stroke-width=".5" x="0" y="0" width="60" height="60"/>
  <use id="zoomplus" xlink:href="#zoomPlus" x="17" y="9" onmousedown="handleZoom(evt,'in')"/>
  <use id="zoomminus" xlink:href="#zoomMin" x="42" y="9" onmousedown="handleZoom(evt,'out')"/>
  <use id="reset" xlink:href="#resetDef" x="30" y="36" onmousedown="handleReset()"/>
   <use id="arrowup" xlink:href="#arrowUp" x="0" y="0" onmousedown="handlePan(0,-1)"/>
  <use id="arrowright" xlink:href="#arrowRight" x="0" y="0" onmousedown="handlePan(1,0)"/>
  <use id="arrowdown" xlink:href="#arrowDown" x="0" y="0" onmousedown="handlePan(0,1)"/>
  <use id="arrowleft" xlink:href="#arrowLeft" x="0" y="0" onmousedown="handlePan(-1,0)"/>
</g>
<svg viewBox="0 0 15 15" width="100%" height="30px" preserveAspectRatio="xMaxYMin meet">
 <g id="arrow_out" transform="scale(0.3 0.3)">
  <a xlink:href="namespaceguanaqo_a9d2fcd3439b44a180fe1d9634e0c2a96_icgraph_org.svg" target="_base">
   <rect id="button" ry="5" rx="5" y="6" x="6" height="38" width="38"
        fill="#f2f5e9" fill-opacity="0.5" stroke="#606060" stroke-width="1.0"/>
   <path id="arrow"
     d="M 11.500037,31.436501 C 11.940474,20.09759 22.043105,11.32322 32.158766,21.979434 L 37.068811,17.246167 C 37.068811,17.246167 37.088388,32 37.088388,32 L 22.160133,31.978069 C 22.160133,31.978069 26.997745,27.140456 26.997745,27.140456 C 18.528582,18.264221 13.291696,25.230495 11.500037,31.436501 z"
     style="fill:#404040;"/>
  </a>
 </g>
</svg>

<style type='text/css'>
<![CDATA[
[data-mouse-over-selected='false'] { opacity: 0.7; }
[data-mouse-over-selected='true']  { opacity: 1.0; }
]]>
</style>
<script type="application/ecmascript"><![CDATA[
document.addEventListener('DOMContentLoaded', (event) => {
  highlightEdges();
  highlightAdjacentNodes();
});
]]></script>
</svg>
