<?xml version="1.0" encoding="UTF-8" standalone="no"?>
<!DOCTYPE svg PUBLIC "-//W3C//DTD SVG 1.1//EN"
 "http://www.w3.org/Graphics/SVG/1.1/DTD/svg11.dtd">
<!-- Generated by graphviz version 2.43.0 (0)
 -->
<!-- Title: include/guanaqo/noop&#45;delete.hpp Pages: 1 -->
<svg width="282pt" height="170pt"
 viewBox="0.00 0.00 282.00 170.00" xmlns="http://www.w3.org/2000/svg" xmlns:xlink="http://www.w3.org/1999/xlink">
<g id="graph0" class="graph" transform="scale(1 1) rotate(0) translate(4 166)">
<title>include/guanaqo/noop&#45;delete.hpp</title>
<!-- Node1 -->
<g id="Node000001" class="node">
<title>Node1</title>
<g id="a_Node000001"><a xlink:title="Deleter that skips deallocation.">
<polygon fill="#999999" stroke="#666666" points="205,-162 81,-162 81,-132 205,-132 205,-162"/>
<text text-anchor="start" x="89" y="-150" font-family="Helvetica,sans-Serif" font-size="10.00">include/guanaqo/noop</text>
<text text-anchor="middle" x="143" y="-139" font-family="Helvetica,sans-Serif" font-size="10.00">&#45;delete.hpp</text>
</a>
</g>
</g>
<!-- Node2 -->
<g id="Node000002" class="node">
<title>Node2</title>
<g id="a_Node000002"><a xlink:href="type-erasure_8hpp.html" target="_top" xlink:title="Flexible type erasure utilities.">
<polygon fill="white" stroke="#666666" points="204,-96 82,-96 82,-66 204,-66 204,-96"/>
<text text-anchor="start" x="90" y="-84" font-family="Helvetica,sans-Serif" font-size="10.00">include/guanaqo/type</text>
<text text-anchor="middle" x="143" y="-73" font-family="Helvetica,sans-Serif" font-size="10.00">&#45;erasure.hpp</text>
</a>
</g>
</g>
<!-- Node1&#45;&gt;Node2 -->
<g id="edge1_Node000001_Node000002" class="edge">
<title>Node1&#45;&gt;Node2</title>
<g id="a_edge1_Node000001_Node000002"><a xlink:title=" ">
<path fill="none" stroke="#63b8ff" d="M143,-121.54C143,-112.96 143,-103.61 143,-96.16"/>
<polygon fill="#63b8ff" stroke="#63b8ff" points="139.5,-121.8 143,-131.8 146.5,-121.8 139.5,-121.8"/>
</a>
</g>
</g>
<!-- Node3 -->
<g id="Node000003" class="node">
<title>Node3</title>
<g id="a_Node000003"><a xlink:href="required-method_8hpp.html" target="_top" xlink:title="Macros to populate type&#45;erased vtables from member functions in guanaqo::TypeErased.">
<polygon fill="white" stroke="#666666" points="140,-30 0,-30 0,0 140,0 140,-30"/>
<text text-anchor="start" x="8" y="-18" font-family="Helvetica,sans-Serif" font-size="10.00">include/guanaqo/required</text>
<text text-anchor="middle" x="70" y="-7" font-family="Helvetica,sans-Serif" font-size="10.00">&#45;method.hpp</text>
</a>
</g>
</g>
<!-- Node2&#45;&gt;Node3 -->
<g id="edge2_Node000002_Node000003" class="edge">
<title>Node2&#45;&gt;Node3</title>
<g id="a_edge2_Node000002_Node000003"><a xlink:title=" ">
<path fill="none" stroke="#63b8ff" d="M119.28,-59.2C108.44,-49.7 95.88,-38.69 86.16,-30.16"/>
<polygon fill="#63b8ff" stroke="#63b8ff" points="116.97,-61.84 126.8,-65.8 121.59,-56.57 116.97,-61.84"/>
</a>
</g>
</g>
<!-- Node4 -->
<g id="Node000004" class="node">
<title>Node4</title>
<g id="a_Node000004"><a xlink:href="type-erasure_8cpp.html" target="_top" xlink:title=" ">
<polygon fill="white" stroke="#666666" points="274,-24.5 158,-24.5 158,-5.5 274,-5.5 274,-24.5"/>
<text text-anchor="middle" x="216" y="-12.5" font-family="Helvetica,sans-Serif" font-size="10.00">src/type&#45;erasure.cpp</text>
</a>
</g>
</g>
<!-- Node2&#45;&gt;Node4 -->
<g id="edge3_Node000002_Node000004" class="edge">
<title>Node2&#45;&gt;Node4</title>
<g id="a_edge3_Node000002_Node000004"><a xlink:title=" ">
<path fill="none" stroke="#63b8ff" d="M167.03,-58.93C180.24,-47.35 195.92,-33.61 205.91,-24.84"/>
<polygon fill="#63b8ff" stroke="#63b8ff" points="164.41,-56.57 159.2,-65.8 169.03,-61.84 164.41,-56.57"/>
</a>
</g>
</g>
</g>
</svg>
