<?xml version="1.0" encoding="UTF-8" standalone="no"?>
<!DOCTYPE svg PUBLIC "-//W3C//DTD SVG 1.1//EN"
 "http://www.w3.org/Graphics/SVG/1.1/DTD/svg11.dtd">
<!-- Generated by graphviz version 2.43.0 (0)
 -->
<!-- Title: include/guanaqo/implementation/print.tpp Pages: 1 -->
<!--zoomable 203 -->

<svg id="main" version="1.1" xmlns="http://www.w3.org/2000/svg" xmlns:xlink="http://www.w3.org/1999/xlink" xml:space="preserve" onload="init(evt)">

<style type="text/css"><![CDATA[
.node, .edge {opacity: 0.7;}
.node.selected, .edge.selected {opacity: 1;}
.edge:hover path { stroke: red; }
.edge:hover polygon { stroke: red; fill: red; }
]]></style>

<defs>
  <circle id="rim" cx="0" cy="0" r="7"/>
  <circle id="rim2" cx="0" cy="0" r="3.5"/>
  <g id="zoomPlus">
    <use xlink:href="#rim" fill="#404040"><set attributeName="fill" to="#808080" begin="zoomplus.mouseover" end="zoomplus.mouseout"/></use>
    <path d="M-4,0h8M0,-4v8" fill="none" stroke="white" stroke-width="1.5" pointer-events="none"/>
  </g>
  <g id="zoomMin">
    <use xlink:href="#rim" fill="#404040"><set attributeName="fill" to="#808080" begin="zoomminus.mouseover" end="zoomminus.mouseout"/></use>
    <path d="M-4,0h8" fill="none" stroke="white" stroke-width="1.5" pointer-events="none"/>
  </g>
  <g id="arrowUp" transform="translate(30 24)">
    <use xlink:href="#rim"/>
    <path pointer-events="none" fill="none" stroke="white" stroke-width="1.5" d="M0,-3.0v7 M-2.5,-0.5L0,-3.0L2.5,-0.5"/>
  </g>
  <g id="arrowRight" transform="rotate(90) translate(36 -43)">
    <use xlink:href="#rim"/>
    <path pointer-events="none" fill="none" stroke="white" stroke-width="1.5" d="M0,-3.0v7 M-2.5,-0.5L0,-3.0L2.5,-0.5"/>
  </g>
  <g id="arrowDown" transform="rotate(180) translate(-30 -48)">
    <use xlink:href="#rim"/>
    <path pointer-events="none" fill="none" stroke="white" stroke-width="1.5" d="M0,-3.0v7 M-2.5,-0.5L0,-3.0L2.5,-0.5"/>
  </g>
  <g id="arrowLeft" transform="rotate(270) translate(-36 17)">
    <use xlink:href="#rim"/>
    <path pointer-events="none" fill="none" stroke="white" stroke-width="1.5" d="M0,-3.0v7 M-2.5,-0.5L0,-3.0L2.5,-0.5"/>
  </g>
  <g id="resetDef">
    <use xlink:href="#rim2" fill="#404040"><set attributeName="fill" to="#808080" begin="reset.mouseover" end="reset.mouseout"/></use>
  </g>
</defs>
<script type="application/ecmascript">
var viewWidth = 1029;
var viewHeight = 203;
var sectionId = 'dynsection-0';
</script>
<script type="application/ecmascript" xlink:href="svg.min.js"/>
<svg id="graph" class="graph">
<g id="viewport">
<title>include/guanaqo/implementation/print.tpp</title>
<!-- Node1 -->
<g id="Node000001" class="node">
<title>Node1</title>
<g id="a_Node000001"><a xlink:title=" ">
<polygon fill="#999999" stroke="#666666" points="899.5,-195 721.5,-195 721.5,-165 899.5,-165 899.5,-195"/>
<text text-anchor="start" x="729.5" y="-183" font-family="Helvetica,sans-Serif" font-size="10.00">include/guanaqo/implementation</text>
<text text-anchor="middle" x="810.5" y="-172" font-family="Helvetica,sans-Serif" font-size="10.00">/print.tpp</text>
</a>
</g>
</g>
<!-- Node2 -->
<g id="Node000002" class="node">
<title>Node2</title>
<g id="a_Node000002"><a xlink:href="print_8hpp.html" target="_top" xlink:title="Matrix/vector printing helpers and float formatting.">
<polygon fill="white" stroke="#666666" points="528,-129 423,-129 423,-110 528,-110 528,-129"/>
<text text-anchor="middle" x="475.5" y="-117" font-family="Helvetica,sans-Serif" font-size="10.00">guanaqo/print.hpp</text>
</a>
</g>
</g>
<!-- Node1&#45;&gt;Node2 -->
<g id="edge1_Node000001_Node000002" class="edge">
<title>Node1&#45;&gt;Node2</title>
<g id="a_edge1_Node000001_Node000002"><a xlink:title=" ">
<path fill="none" stroke="#63b8ff" d="M730.26,-164.99C670.07,-154.48 589.02,-140.32 534.65,-130.83"/>
<polygon fill="#63b8ff" stroke="#63b8ff" points="534.94,-127.33 524.48,-129.05 533.73,-134.22 534.94,-127.33"/>
</a>
</g>
</g>
<!-- Node6 -->
<g id="Node000006" class="node">
<title>Node6</title>
<g id="a_Node000006"><a xlink:title=" ">
<polygon fill="#e0e0e0" stroke="#999999" points="47,-19 0,-19 0,0 47,0 47,-19"/>
<text text-anchor="middle" x="23.5" y="-7" font-family="Helvetica,sans-Serif" font-size="10.00">cmath</text>
</a>
</g>
</g>
<!-- Node1&#45;&gt;Node6 -->
<g id="edge24_Node000001_Node000006" class="edge">
<title>Node1&#45;&gt;Node6</title>
<g id="a_edge24_Node000001_Node000006"><a xlink:title=" ">
<path fill="none" stroke="#63b8ff" d="M721.31,-175.65C610.47,-170.42 415.86,-157.77 251.5,-129 156.89,-112.44 111.54,-140.77 42.5,-74 30.49,-62.39 25.99,-43.52 24.35,-29.36"/>
<polygon fill="#63b8ff" stroke="#63b8ff" points="27.83,-28.95 23.55,-19.25 20.85,-29.49 27.83,-28.95"/>
</a>
</g>
</g>
<!-- Node12 -->
<g id="Node000012" class="node">
<title>Node12</title>
<g id="a_Node000012"><a xlink:title=" ">
<polygon fill="#e0e0e0" stroke="#999999" points="562.5,-19 510.5,-19 510.5,0 562.5,0 562.5,-19"/>
<text text-anchor="middle" x="536.5" y="-7" font-family="Helvetica,sans-Serif" font-size="10.00">cassert</text>
</a>
</g>
</g>
<!-- Node1&#45;&gt;Node12 -->
<g id="edge23_Node000001_Node000012" class="edge">
<title>Node1&#45;&gt;Node12</title>
<g id="a_edge23_Node000001_Node000012"><a xlink:title=" ">
<path fill="none" stroke="#63b8ff" d="M721.3,-177.68C567.89,-173.26 264.56,-154.31 202.5,-74 197.34,-67.32 196.9,-61.32 202.5,-55 244.85,-7.23 418.93,-28.62 499.9,-18.61"/>
<polygon fill="#63b8ff" stroke="#63b8ff" points="500.85,-22.01 510.22,-17.06 499.82,-15.08 500.85,-22.01"/>
</a>
</g>
</g>
<!-- Node14 -->
<g id="Node000014" class="node">
<title>Node14</title>
<g id="a_Node000014"><a xlink:title=" ">
<polygon fill="#e0e0e0" stroke="#999999" points="774.5,-19 734.5,-19 734.5,0 774.5,0 774.5,-19"/>
<text text-anchor="middle" x="754.5" y="-7" font-family="Helvetica,sans-Serif" font-size="10.00">span</text>
</a>
</g>
</g>
<!-- Node1&#45;&gt;Node14 -->
<g id="edge26_Node000001_Node000014" class="edge">
<title>Node1&#45;&gt;Node14</title>
<g id="a_edge26_Node000001_Node000014"><a xlink:title=" ">
<path fill="none" stroke="#63b8ff" d="M823.64,-164.65C844.1,-140.5 878.89,-90.87 855.5,-55 839.91,-31.09 808.27,-19.94 784.53,-14.79"/>
<polygon fill="#63b8ff" stroke="#63b8ff" points="785.07,-11.33 774.59,-12.88 783.75,-18.21 785.07,-11.33"/>
</a>
</g>
</g>
<!-- Node19 -->
<g id="Node000019" class="node">
<title>Node19</title>
<g id="a_Node000019"><a xlink:title=" ">
<polygon fill="#e0e0e0" stroke="#999999" points="847,-74 774,-74 774,-55 847,-55 847,-74"/>
<text text-anchor="middle" x="810.5" y="-62" font-family="Helvetica,sans-Serif" font-size="10.00">string_view</text>
</a>
</g>
</g>
<!-- Node1&#45;&gt;Node19 -->
<g id="edge27_Node000001_Node000019" class="edge">
<title>Node1&#45;&gt;Node19</title>
<g id="a_edge27_Node000001_Node000019"><a xlink:title=" ">
<path fill="none" stroke="#63b8ff" d="M810.5,-164.63C810.5,-144.21 810.5,-106.81 810.5,-84.24"/>
<polygon fill="#63b8ff" stroke="#63b8ff" points="814,-84.23 810.5,-74.23 807,-84.23 814,-84.23"/>
</a>
</g>
</g>
<!-- Node20 -->
<g id="Node000020" class="node">
<title>Node20</title>
<g id="a_Node000020"><a xlink:title=" ">
<polygon fill="#e0e0e0" stroke="#999999" points="945.5,-129 903.5,-129 903.5,-110 945.5,-110 945.5,-129"/>
<text text-anchor="middle" x="924.5" y="-117" font-family="Helvetica,sans-Serif" font-size="10.00">array</text>
</a>
</g>
</g>
<!-- Node1&#45;&gt;Node20 -->
<g id="edge22_Node000001_Node000020" class="edge">
<title>Node1&#45;&gt;Node20</title>
<g id="a_edge22_Node000001_Node000020"><a xlink:title=" ">
<path fill="none" stroke="#63b8ff" d="M837.81,-164.99C856.15,-155.58 880.18,-143.24 898.29,-133.95"/>
<polygon fill="#63b8ff" stroke="#63b8ff" points="900.37,-136.82 907.66,-129.14 897.17,-130.59 900.37,-136.82"/>
</a>
</g>
</g>
<!-- Node21 -->
<g id="Node000021" class="node">
<title>Node21</title>
<g id="a_Node000021"><a xlink:title=" ">
<polygon fill="#e0e0e0" stroke="#999999" points="1021,-129 964,-129 964,-110 1021,-110 1021,-129"/>
<text text-anchor="middle" x="992.5" y="-117" font-family="Helvetica,sans-Serif" font-size="10.00">ostream</text>
</a>
</g>
</g>
<!-- Node1&#45;&gt;Node21 -->
<g id="edge25_Node000001_Node000021" class="edge">
<title>Node1&#45;&gt;Node21</title>
<g id="a_edge25_Node000001_Node000021"><a xlink:title=" ">
<path fill="none" stroke="#63b8ff" d="M854.09,-164.99C885.23,-154.98 926.64,-141.67 956.03,-132.22"/>
<polygon fill="#63b8ff" stroke="#63b8ff" points="957.44,-135.45 965.89,-129.05 955.3,-128.78 957.44,-135.45"/>
</a>
</g>
</g>
<!-- Node3 -->
<g id="Node000003" class="node">
<title>Node3</title>
<g id="a_Node000003"><a xlink:title=" ">
<polygon fill="#e0e0e0" stroke="#999999" points="571.5,-74 469.5,-74 469.5,-55 571.5,-55 571.5,-74"/>
<text text-anchor="middle" x="520.5" y="-62" font-family="Helvetica,sans-Serif" font-size="10.00">guanaqo/export.h</text>
</a>
</g>
</g>
<!-- Node2&#45;&gt;Node3 -->
<g id="edge2_Node000002_Node000003" class="edge">
<title>Node2&#45;&gt;Node3</title>
<g id="a_edge2_Node000002_Node000003"><a xlink:title=" ">
<path fill="none" stroke="#63b8ff" d="M482.93,-109.75C489.35,-102.18 498.81,-91.05 506.62,-81.84"/>
<polygon fill="#63b8ff" stroke="#63b8ff" points="509.4,-83.98 513.21,-74.09 504.07,-79.45 509.4,-83.98"/>
</a>
</g>
</g>
<!-- Node4 -->
<g id="Node000004" class="node">
<title>Node4</title>
<g id="a_Node000004"><a xlink:href="float_8hpp.html" target="_top" xlink:title=" ">
<polygon fill="white" stroke="#666666" points="155.5,-74 51.5,-74 51.5,-55 155.5,-55 155.5,-74"/>
<text text-anchor="middle" x="103.5" y="-62" font-family="Helvetica,sans-Serif" font-size="10.00">guanaqo/float.hpp</text>
</a>
</g>
</g>
<!-- Node2&#45;&gt;Node4 -->
<g id="edge3_Node000002_Node000004" class="edge">
<title>Node2&#45;&gt;Node4</title>
<g id="a_edge3_Node000002_Node000004"><a xlink:title=" ">
<path fill="none" stroke="#63b8ff" d="M422.99,-111.02C355.42,-101.39 238.16,-84.68 166.04,-74.41"/>
<polygon fill="#63b8ff" stroke="#63b8ff" points="166.14,-70.89 155.74,-72.94 165.15,-77.82 166.14,-70.89"/>
</a>
</g>
</g>
<!-- Node10 -->
<g id="Node000010" class="node">
<title>Node10</title>
<g id="a_Node000010"><a xlink:href="mat-view_8hpp.html" target="_top" xlink:title="Non&#45;owning matrix view.">
<polygon fill="white" stroke="#666666" points="717.5,-74 589.5,-74 589.5,-55 717.5,-55 717.5,-74"/>
<text text-anchor="middle" x="653.5" y="-62" font-family="Helvetica,sans-Serif" font-size="10.00">guanaqo/mat&#45;view.hpp</text>
</a>
</g>
</g>
<!-- Node2&#45;&gt;Node10 -->
<g id="edge9_Node000002_Node000010" class="edge">
<title>Node2&#45;&gt;Node10</title>
<g id="a_edge9_Node000002_Node000010"><a xlink:title=" ">
<path fill="none" stroke="#63b8ff" d="M504.1,-109.98C534.11,-101.05 581.48,-86.94 614.82,-77.02"/>
<polygon fill="#63b8ff" stroke="#63b8ff" points="616.09,-80.29 624.68,-74.08 614.09,-73.58 616.09,-80.29"/>
</a>
</g>
</g>
<!-- Node2&#45;&gt;Node14 -->
<g id="edge19_Node000002_Node000014" class="edge">
<title>Node2&#45;&gt;Node14</title>
<g id="a_edge19_Node000002_Node000014"><a xlink:title=" ">
<path fill="none" stroke="#63b8ff" d="M528.05,-114.95C592.35,-109.65 696.39,-97.64 726.5,-74 740.55,-62.97 747.71,-43.43 751.26,-28.93"/>
<polygon fill="#63b8ff" stroke="#63b8ff" points="754.71,-29.55 753.32,-19.04 747.85,-28.12 754.71,-29.55"/>
</a>
</g>
</g>
<!-- Node15 -->
<g id="Node000015" class="node">
<title>Node15</title>
<g id="a_Node000015"><a xlink:title=" ">
<polygon fill="#e0e0e0" stroke="#999999" points="261,-74 212,-74 212,-55 261,-55 261,-74"/>
<text text-anchor="middle" x="236.5" y="-62" font-family="Helvetica,sans-Serif" font-size="10.00">cstdlib</text>
</a>
</g>
</g>
<!-- Node2&#45;&gt;Node15 -->
<g id="edge16_Node000002_Node000015" class="edge">
<title>Node2&#45;&gt;Node15</title>
<g id="a_edge16_Node000002_Node000015"><a xlink:title=" ">
<path fill="none" stroke="#63b8ff" d="M434.19,-109.93C394.83,-101.67 333.67,-88.62 271.37,-74.14"/>
<polygon fill="#63b8ff" stroke="#63b8ff" points="271.89,-70.67 261.36,-71.81 270.3,-77.49 271.89,-70.67"/>
</a>
</g>
</g>
<!-- Node16 -->
<g id="Node000016" class="node">
<title>Node16</title>
<g id="a_Node000016"><a xlink:title=" ">
<polygon fill="#e0e0e0" stroke="#999999" points="327.5,-74 279.5,-74 279.5,-55 327.5,-55 327.5,-74"/>
<text text-anchor="middle" x="303.5" y="-62" font-family="Helvetica,sans-Serif" font-size="10.00">iosfwd</text>
</a>
</g>
</g>
<!-- Node2&#45;&gt;Node16 -->
<g id="edge17_Node000002_Node000016" class="edge">
<title>Node2&#45;&gt;Node16</title>
<g id="a_edge17_Node000002_Node000016"><a xlink:title=" ">
<path fill="none" stroke="#63b8ff" d="M447.87,-109.98C417.87,-100.74 369.95,-85.98 337.63,-76.02"/>
<polygon fill="#63b8ff" stroke="#63b8ff" points="338.32,-72.57 327.73,-72.97 336.26,-79.26 338.32,-72.57"/>
</a>
</g>
</g>
<!-- Node17 -->
<g id="Node000017" class="node">
<title>Node17</title>
<g id="a_Node000017"><a xlink:title=" ">
<polygon fill="#e0e0e0" stroke="#999999" points="389.5,-74 345.5,-74 345.5,-55 389.5,-55 389.5,-74"/>
<text text-anchor="middle" x="367.5" y="-62" font-family="Helvetica,sans-Serif" font-size="10.00">limits</text>
</a>
</g>
</g>
<!-- Node2&#45;&gt;Node17 -->
<g id="edge18_Node000002_Node000017" class="edge">
<title>Node2&#45;&gt;Node17</title>
<g id="a_edge18_Node000002_Node000017"><a xlink:title=" ">
<path fill="none" stroke="#63b8ff" d="M458.15,-109.98C440.93,-101.54 414.3,-88.47 394.35,-78.68"/>
<polygon fill="#63b8ff" stroke="#63b8ff" points="395.69,-75.43 385.17,-74.17 392.6,-81.72 395.69,-75.43"/>
</a>
</g>
</g>
<!-- Node18 -->
<g id="Node000018" class="node">
<title>Node18</title>
<g id="a_Node000018"><a xlink:title=" ">
<polygon fill="#e0e0e0" stroke="#999999" points="451.5,-74 407.5,-74 407.5,-55 451.5,-55 451.5,-74"/>
<text text-anchor="middle" x="429.5" y="-62" font-family="Helvetica,sans-Serif" font-size="10.00">string</text>
</a>
</g>
</g>
<!-- Node2&#45;&gt;Node18 -->
<g id="edge20_Node000002_Node000018" class="edge">
<title>Node2&#45;&gt;Node18</title>
<g id="a_edge20_Node000002_Node000018"><a xlink:title=" ">
<path fill="none" stroke="#63b8ff" d="M467.9,-109.75C461.34,-102.18 451.68,-91.05 443.69,-81.84"/>
<polygon fill="#63b8ff" stroke="#63b8ff" points="446.15,-79.35 436.95,-74.09 440.87,-83.94 446.15,-79.35"/>
</a>
</g>
</g>
<!-- Node2&#45;&gt;Node19 -->
<g id="edge21_Node000002_Node000019" class="edge">
<title>Node2&#45;&gt;Node19</title>
<g id="a_edge21_Node000002_Node000019"><a xlink:title=" ">
<path fill="none" stroke="#63b8ff" d="M528.13,-110.41C585.16,-101.61 678.82,-87.04 759.5,-74 760.8,-73.79 762.11,-73.58 763.44,-73.36"/>
<polygon fill="#63b8ff" stroke="#63b8ff" points="764.43,-76.74 773.74,-71.67 763.3,-69.84 764.43,-76.74"/>
</a>
</g>
</g>
<!-- Node5 -->
<g id="Node000005" class="node">
<title>Node5</title>
<g id="a_Node000005"><a xlink:href="quadmath_8hpp.html" target="_top" xlink:title=" ">
<polygon fill="white" stroke="#666666" points="327,-19 142,-19 142,0 327,0 327,-19"/>
<text text-anchor="middle" x="234.5" y="-7" font-family="Helvetica,sans-Serif" font-size="10.00">guanaqo/quadmath/quadmath.hpp</text>
</a>
</g>
</g>
<!-- Node4&#45;&gt;Node5 -->
<g id="edge4_Node000004_Node000005" class="edge">
<title>Node4&#45;&gt;Node5</title>
<g id="a_edge4_Node000004_Node000005"><a xlink:title=" ">
<path fill="none" stroke="#63b8ff" d="M124.55,-54.98C145.91,-46.34 179.2,-32.87 203.56,-23.02"/>
<polygon fill="#63b8ff" stroke="#63b8ff" points="205.11,-26.17 213.07,-19.17 202.49,-19.68 205.11,-26.17"/>
</a>
</g>
</g>
<!-- Node4&#45;&gt;Node6 -->
<g id="edge5_Node000004_Node000006" class="edge">
<title>Node4&#45;&gt;Node6</title>
<g id="a_edge5_Node000004_Node000006"><a xlink:title=" ">
<path fill="none" stroke="#63b8ff" d="M90.65,-54.98C78.36,-46.84 59.59,-34.41 45.02,-24.76"/>
<polygon fill="#63b8ff" stroke="#63b8ff" points="46.86,-21.78 36.59,-19.17 42.99,-27.61 46.86,-21.78"/>
</a>
</g>
</g>
<!-- Node7 -->
<g id="Node000007" class="node">
<title>Node7</title>
<g id="a_Node000007"><a xlink:title=" ">
<polygon fill="#e0e0e0" stroke="#999999" points="124,-19 65,-19 65,0 124,0 124,-19"/>
<text text-anchor="middle" x="94.5" y="-7" font-family="Helvetica,sans-Serif" font-size="10.00">complex</text>
</a>
</g>
</g>
<!-- Node4&#45;&gt;Node7 -->
<g id="edge6_Node000004_Node000007" class="edge">
<title>Node4&#45;&gt;Node7</title>
<g id="a_edge6_Node000004_Node000007"><a xlink:title=" ">
<path fill="none" stroke="#63b8ff" d="M102.01,-54.75C100.83,-47.8 99.14,-37.85 97.66,-29.13"/>
<polygon fill="#63b8ff" stroke="#63b8ff" points="101.08,-28.36 95.96,-19.09 94.18,-29.53 101.08,-28.36"/>
</a>
</g>
</g>
<!-- Node8 -->
<g id="Node000008" class="node">
<title>Node8</title>
<g id="a_Node000008"><a xlink:title=" ">
<polygon fill="#e0e0e0" stroke="#999999" points="404.5,-19 344.5,-19 344.5,0 404.5,0 404.5,-19"/>
<text text-anchor="middle" x="374.5" y="-7" font-family="Helvetica,sans-Serif" font-size="10.00">concepts</text>
</a>
</g>
</g>
<!-- Node4&#45;&gt;Node8 -->
<g id="edge7_Node000004_Node000008" class="edge">
<title>Node4&#45;&gt;Node8</title>
<g id="a_edge7_Node000004_Node000008"><a xlink:title=" ">
<path fill="none" stroke="#63b8ff" d="M149.79,-54.98C194.56,-46.65 264.57,-33.42 334.43,-19.18"/>
<polygon fill="#63b8ff" stroke="#63b8ff" points="335.19,-22.6 344.28,-17.16 333.78,-15.74 335.19,-22.6"/>
</a>
</g>
</g>
<!-- Node9 -->
<g id="Node000009" class="node">
<title>Node9</title>
<g id="a_Node000009"><a xlink:title=" ">
<polygon fill="#e0e0e0" stroke="#999999" points="492,-19 423,-19 423,0 492,0 492,-19"/>
<text text-anchor="middle" x="457.5" y="-7" font-family="Helvetica,sans-Serif" font-size="10.00">type_traits</text>
</a>
</g>
</g>
<!-- Node4&#45;&gt;Node9 -->
<g id="edge8_Node000004_Node000009" class="edge">
<title>Node4&#45;&gt;Node9</title>
<g id="a_edge8_Node000004_Node000009"><a xlink:title=" ">
<path fill="none" stroke="#63b8ff" d="M155.73,-56.79C215.39,-48.94 316.18,-35.16 412.98,-19.01"/>
<polygon fill="#63b8ff" stroke="#63b8ff" points="413.66,-22.45 422.94,-17.34 412.5,-15.54 413.66,-22.45"/>
</a>
</g>
</g>
<!-- Node10&#45;&gt;Node8 -->
<g id="edge12_Node000010_Node000008" class="edge">
<title>Node10&#45;&gt;Node8</title>
<g id="a_edge12_Node000010_Node000008"><a xlink:title=" ">
<path fill="none" stroke="#63b8ff" d="M605.15,-54.99C558.8,-46.73 486.61,-33.61 414.84,-19.22"/>
<polygon fill="#63b8ff" stroke="#63b8ff" points="415.21,-15.73 404.71,-17.18 413.83,-22.59 415.21,-15.73"/>
</a>
</g>
</g>
<!-- Node10&#45;&gt;Node9 -->
<g id="edge15_Node000010_Node000009" class="edge">
<title>Node10&#45;&gt;Node9</title>
<g id="a_edge15_Node000010_Node000009"><a xlink:title=" ">
<path fill="none" stroke="#63b8ff" d="M622.01,-54.98C588.68,-45.97 535.9,-31.7 499.15,-21.76"/>
<polygon fill="#63b8ff" stroke="#63b8ff" points="499.8,-18.31 489.24,-19.08 497.98,-25.07 499.8,-18.31"/>
</a>
</g>
</g>
<!-- Node11 -->
<g id="Node000011" class="node">
<title>Node11</title>
<g id="a_Node000011"><a xlink:title=" ">
<polygon fill="#e0e0e0" stroke="#999999" points="644.5,-19 580.5,-19 580.5,0 644.5,0 644.5,-19"/>
<text text-anchor="middle" x="612.5" y="-7" font-family="Helvetica,sans-Serif" font-size="10.00">algorithm</text>
</a>
</g>
</g>
<!-- Node10&#45;&gt;Node11 -->
<g id="edge10_Node000010_Node000011" class="edge">
<title>Node10&#45;&gt;Node11</title>
<g id="a_edge10_Node000010_Node000011"><a xlink:title=" ">
<path fill="none" stroke="#63b8ff" d="M646.73,-54.75C640.94,-47.26 632.44,-36.28 625.36,-27.13"/>
<polygon fill="#63b8ff" stroke="#63b8ff" points="628.03,-24.86 619.14,-19.09 622.49,-29.14 628.03,-24.86"/>
</a>
</g>
</g>
<!-- Node10&#45;&gt;Node12 -->
<g id="edge11_Node000010_Node000012" class="edge">
<title>Node10&#45;&gt;Node12</title>
<g id="a_edge11_Node000010_Node000012"><a xlink:title=" ">
<path fill="none" stroke="#63b8ff" d="M634.7,-54.98C615.88,-46.46 586.68,-33.23 565,-23.41"/>
<polygon fill="#63b8ff" stroke="#63b8ff" points="566.19,-20.11 555.64,-19.17 563.3,-26.48 566.19,-20.11"/>
</a>
</g>
</g>
<!-- Node13 -->
<g id="Node000013" class="node">
<title>Node13</title>
<g id="a_Node000013"><a xlink:title=" ">
<polygon fill="#e0e0e0" stroke="#999999" points="716,-19 663,-19 663,0 716,0 716,-19"/>
<text text-anchor="middle" x="689.5" y="-7" font-family="Helvetica,sans-Serif" font-size="10.00">cstddef</text>
</a>
</g>
</g>
<!-- Node10&#45;&gt;Node13 -->
<g id="edge13_Node000010_Node000013" class="edge">
<title>Node10&#45;&gt;Node13</title>
<g id="a_edge13_Node000010_Node000013"><a xlink:title=" ">
<path fill="none" stroke="#63b8ff" d="M659.44,-54.75C664.48,-47.34 671.84,-36.5 678.01,-27.41"/>
<polygon fill="#63b8ff" stroke="#63b8ff" points="680.94,-29.33 683.67,-19.09 675.15,-25.39 680.94,-29.33"/>
</a>
</g>
</g>
<!-- Node10&#45;&gt;Node14 -->
<g id="edge14_Node000010_Node000014" class="edge">
<title>Node10&#45;&gt;Node14</title>
<g id="a_edge14_Node000010_Node000014"><a xlink:title=" ">
<path fill="none" stroke="#63b8ff" d="M669.73,-54.98C685.68,-46.61 710.28,-33.7 728.88,-23.95"/>
<polygon fill="#63b8ff" stroke="#63b8ff" points="730.75,-26.92 737.98,-19.17 727.5,-20.72 730.75,-26.92"/>
</a>
</g>
</g>
</g>
</svg>

<g id="navigator" transform="translate(0 0)" fill="#404254">
  <rect fill="#f2f5e9" fill-opacity="0.5" stroke="#606060" stroke-width=".5" x="0" y="0" width="60" height="60"/>
  <use id="zoomplus" xlink:href="#zoomPlus" x="17" y="9" onmousedown="handleZoom(evt,'in')"/>
  <use id="zoomminus" xlink:href="#zoomMin" x="42" y="9" onmousedown="handleZoom(evt,'out')"/>
  <use id="reset" xlink:href="#resetDef" x="30" y="36" onmousedown="handleReset()"/>
   <use id="arrowup" xlink:href="#arrowUp" x="0" y="0" onmousedown="handlePan(0,-1)"/>
  <use id="arrowright" xlink:href="#arrowRight" x="0" y="0" onmousedown="handlePan(1,0)"/>
  <use id="arrowdown" xlink:href="#arrowDown" x="0" y="0" onmousedown="handlePan(0,1)"/>
  <use id="arrowleft" xlink:href="#arrowLeft" x="0" y="0" onmousedown="handlePan(-1,0)"/>
</g>
<svg viewBox="0 0 15 15" width="100%" height="30px" preserveAspectRatio="xMaxYMin meet">
 <g id="arrow_out" transform="scale(0.3 0.3)">
  <a xlink:href="print_8tpp__incl_org.svg" target="_base">
   <rect id="button" ry="5" rx="5" y="6" x="6" height="38" width="38"
        fill="#f2f5e9" fill-opacity="0.5" stroke="#606060" stroke-width="1.0"/>
   <path id="arrow"
     d="M 11.500037,31.436501 C 11.940474,20.09759 22.043105,11.32322 32.158766,21.979434 L 37.068811,17.246167 C 37.068811,17.246167 37.088388,32 37.088388,32 L 22.160133,31.978069 C 22.160133,31.978069 26.997745,27.140456 26.997745,27.140456 C 18.528582,18.264221 13.291696,25.230495 11.500037,31.436501 z"
     style="fill:#404040;"/>
  </a>
 </g>
</svg>

<style type='text/css'>
<![CDATA[
[data-mouse-over-selected='false'] { opacity: 0.7; }
[data-mouse-over-selected='true']  { opacity: 1.0; }
]]>
</style>
<script type="application/ecmascript"><![CDATA[
document.addEventListener('DOMContentLoaded', (event) => {
  highlightEdges();
  highlightAdjacentNodes();
});
]]></script>
</svg>
