<?xml version="1.0" encoding="UTF-8" standalone="no"?>
<!DOCTYPE svg PUBLIC "-//W3C//DTD SVG 1.1//EN"
 "http://www.w3.org/Graphics/SVG/1.1/DTD/svg11.dtd">
<!-- Generated by graphviz version 2.43.0 (0)
 -->
<!-- Title: guanaqo::pcm::ThreadPerfCounters Pages: 1 -->
<svg width="147pt" height="263pt"
 viewBox="0.00 0.00 147.00 263.00" xmlns="http://www.w3.org/2000/svg" xmlns:xlink="http://www.w3.org/1999/xlink">
<g id="graph0" class="graph" transform="scale(1 1) rotate(0) translate(4 259)">
<title>guanaqo::pcm::ThreadPerfCounters</title>
<!-- Node1 -->
<g id="Node000001" class="node">
<title>Node1</title>
<g id="a_Node000001"><a xlink:title=" ">
<polygon fill="#999999" stroke="transparent" points="139,-255 0,-255 0,0 139,0 139,-255"/>
<text text-anchor="start" x="5.5" y="-242.5" font-family="Helvetica,sans-Serif" font-size="10.00">guanaqo::pcm::ThreadPerf</text>
<text text-anchor="start" x="48" y="-231.5" font-family="Helvetica,sans-Serif" font-size="10.00">Counters</text>
<text text-anchor="start" x="6.5" y="-216.5" font-family="Helvetica,sans-Serif" font-size="10.00">+</text>
<text text-anchor="start" x="21.5" y="-216.5" font-family="Helvetica,sans-Serif" font-size="10.00">instructions</text>
<text text-anchor="start" x="6.5" y="-201.5" font-family="Helvetica,sans-Serif" font-size="10.00">+</text>
<text text-anchor="start" x="21.5" y="-201.5" font-family="Helvetica,sans-Serif" font-size="10.00">cycles</text>
<text text-anchor="start" x="6.5" y="-186.5" font-family="Helvetica,sans-Serif" font-size="10.00">+</text>
<text text-anchor="start" x="21.5" y="-186.5" font-family="Helvetica,sans-Serif" font-size="10.00">ref_cycles</text>
<text text-anchor="start" x="6.5" y="-171.5" font-family="Helvetica,sans-Serif" font-size="10.00">+</text>
<text text-anchor="start" x="21.5" y="-171.5" font-family="Helvetica,sans-Serif" font-size="10.00">l2_misses</text>
<text text-anchor="start" x="6.5" y="-156.5" font-family="Helvetica,sans-Serif" font-size="10.00">+</text>
<text text-anchor="start" x="21.5" y="-156.5" font-family="Helvetica,sans-Serif" font-size="10.00">l2_hits</text>
<text text-anchor="start" x="6.5" y="-141.5" font-family="Helvetica,sans-Serif" font-size="10.00">+</text>
<text text-anchor="start" x="21.5" y="-141.5" font-family="Helvetica,sans-Serif" font-size="10.00">l3_misses</text>
<text text-anchor="start" x="6.5" y="-126.5" font-family="Helvetica,sans-Serif" font-size="10.00">+</text>
<text text-anchor="start" x="21.5" y="-126.5" font-family="Helvetica,sans-Serif" font-size="10.00">branch_misses</text>
<text text-anchor="start" x="6.5" y="-111.5" font-family="Helvetica,sans-Serif" font-size="10.00">+</text>
<text text-anchor="start" x="21.5" y="-111.5" font-family="Helvetica,sans-Serif" font-size="10.00">all_slots</text>
<text text-anchor="start" x="6.5" y="-96.5" font-family="Helvetica,sans-Serif" font-size="10.00">+</text>
<text text-anchor="start" x="21.5" y="-96.5" font-family="Helvetica,sans-Serif" font-size="10.00">frontend_bound_slots</text>
<text text-anchor="start" x="6.5" y="-81.5" font-family="Helvetica,sans-Serif" font-size="10.00">+</text>
<text text-anchor="start" x="21.5" y="-81.5" font-family="Helvetica,sans-Serif" font-size="10.00">backend_bound_slots</text>
<text text-anchor="start" x="6.5" y="-66.5" font-family="Helvetica,sans-Serif" font-size="10.00">+</text>
<text text-anchor="start" x="21.5" y="-66.5" font-family="Helvetica,sans-Serif" font-size="10.00">bad_speculation_slots</text>
<text text-anchor="start" x="6.5" y="-51.5" font-family="Helvetica,sans-Serif" font-size="10.00">+</text>
<text text-anchor="start" x="21.5" y="-51.5" font-family="Helvetica,sans-Serif" font-size="10.00">retiring_slots</text>
<text text-anchor="start" x="6.5" y="-36.5" font-family="Helvetica,sans-Serif" font-size="10.00">+</text>
<text text-anchor="start" x="21.5" y="-36.5" font-family="Helvetica,sans-Serif" font-size="10.00">mem_bound_slots</text>
<text text-anchor="start" x="6.5" y="-21.5" font-family="Helvetica,sans-Serif" font-size="10.00">+</text>
<text text-anchor="start" x="21.5" y="-21.5" font-family="Helvetica,sans-Serif" font-size="10.00">fetch_lat_slots</text>
<text text-anchor="start" x="68" y="-6.5" font-family="Helvetica,sans-Serif" font-size="10.00"> </text>
<polygon fill="#666666" stroke="#666666" points="0.5,-226.5 0.5,-226.5 139.5,-226.5 139.5,-226.5 0.5,-226.5"/>
<polygon fill="#666666" stroke="#666666" points="0.5,-16.5 0.5,-16.5 19.5,-16.5 19.5,-16.5 0.5,-16.5"/>
<polygon fill="#666666" stroke="#666666" points="19.5,-16.5 19.5,-16.5 139.5,-16.5 139.5,-16.5 19.5,-16.5"/>
<polygon fill="none" stroke="#666666" points="0,0 0,-255 139,-255 139,0 0,0"/>
</a>
</g>
</g>
</g>
</svg>
