<?xml version="1.0" encoding="UTF-8" standalone="no"?>
<!DOCTYPE svg PUBLIC "-//W3C//DTD SVG 1.1//EN"
 "http://www.w3.org/Graphics/SVG/1.1/DTD/svg11.dtd">
<!-- Generated by graphviz version 2.43.0 (0)
 -->
<!-- Title: guanaqo::linalg::sparsity::SparsityConverter&lt; SparseCOO&lt; IndexFrom &gt;, SparseCSC&lt; IndexTo, StorageIndexTo &gt; &gt;::convert_sparsity Pages: 1 -->
<svg width="546pt" height="182pt"
 viewBox="0.00 0.00 546.00 182.00" xmlns="http://www.w3.org/2000/svg" xmlns:xlink="http://www.w3.org/1999/xlink">
<g id="graph0" class="graph" transform="scale(1 1) rotate(0) translate(4 178)">
<title>guanaqo::linalg::sparsity::SparsityConverter&lt; SparseCOO&lt; IndexFrom &gt;, SparseCSC&lt; IndexTo, StorageIndexTo &gt; &gt;::convert_sparsity</title>
<!-- Node1 -->
<g id="Node000001" class="node">
<title>Node1</title>
<g id="a_Node000001"><a xlink:title=" ">
<polygon fill="#999999" stroke="#666666" points="204,-113 0,-113 0,-61 204,-61 204,-113"/>
<text text-anchor="start" x="8" y="-101" font-family="Helvetica,sans-Serif" font-size="10.00">guanaqo::linalg::sparsity</text>
<text text-anchor="start" x="8" y="-90" font-family="Helvetica,sans-Serif" font-size="10.00">::SparsityConverter&lt; SparseCOO</text>
<text text-anchor="start" x="8" y="-79" font-family="Helvetica,sans-Serif" font-size="10.00">&lt; IndexFrom &gt;, SparseCSC&lt; IndexTo,</text>
<text text-anchor="middle" x="102" y="-68" font-family="Helvetica,sans-Serif" font-size="10.00"> StorageIndexTo &gt; &gt;::convert_sparsity</text>
</a>
</g>
</g>
<!-- Node2 -->
<g id="Node000002" class="node">
<title>Node2</title>
<g id="a_Node000002"><a xlink:href="namespaceguanaqo_1_1linalg_1_1sparsity.html#af32001896a23ba0b0d0237c9046f4315" target="_top" xlink:title=" ">
<polygon fill="white" stroke="#666666" points="377,-174 240,-174 240,-144 377,-144 377,-174"/>
<text text-anchor="start" x="248" y="-162" font-family="Helvetica,sans-Serif" font-size="10.00">guanaqo::linalg::sparsity</text>
<text text-anchor="middle" x="308.5" y="-151" font-family="Helvetica,sans-Serif" font-size="10.00">::cast_sz</text>
</a>
</g>
</g>
<!-- Node1&#45;&gt;Node2 -->
<g id="edge1_Node000001_Node000002" class="edge">
<title>Node1&#45;&gt;Node2</title>
<g id="a_edge1_Node000001_Node000002"><a xlink:title=" ">
<path fill="none" stroke="#63b8ff" d="M177.12,-113.1C203.04,-122.22 231.57,-132.27 255.32,-140.63"/>
<polygon fill="#63b8ff" stroke="#63b8ff" points="254.25,-143.96 264.85,-143.98 256.58,-137.36 254.25,-143.96"/>
</a>
</g>
</g>
<!-- Node3 -->
<g id="Node000003" class="node">
<title>Node3</title>
<g id="a_Node000003"><a xlink:href="group__linalg__sparsity__utils.html#ga47db9e5634126d4e05de743d0dfb7bc2" target="_top" xlink:title=" ">
<polygon fill="white" stroke="#666666" points="375.5,-126 241.5,-126 241.5,-96 375.5,-96 375.5,-126"/>
<text text-anchor="start" x="249.5" y="-114" font-family="Helvetica,sans-Serif" font-size="10.00">guanaqo::linalg::convert</text>
<text text-anchor="middle" x="308.5" y="-103" font-family="Helvetica,sans-Serif" font-size="10.00">_triplets_to_ccs</text>
</a>
</g>
</g>
<!-- Node1&#45;&gt;Node3 -->
<g id="edge2_Node000001_Node000003" class="edge">
<title>Node1&#45;&gt;Node3</title>
<g id="a_edge2_Node000001_Node000003"><a xlink:title=" ">
<path fill="none" stroke="#63b8ff" d="M204.05,-98.86C213.26,-99.94 222.49,-101.02 231.43,-102.07"/>
<polygon fill="#63b8ff" stroke="#63b8ff" points="231.04,-105.55 241.38,-103.24 231.86,-98.6 231.04,-105.55"/>
</a>
</g>
</g>
<!-- Node4 -->
<g id="Node000004" class="node">
<title>Node4</title>
<g id="a_Node000004"><a xlink:href="group__linalg__sparsity__utils.html#ga07e0486dd1a80f7b9ba6123d02332a6d" target="_top" xlink:title="Sort the (row, column, value) triplets, by column index first, then row.">
<polygon fill="white" stroke="#666666" points="366.5,-78 250.5,-78 250.5,-48 366.5,-48 366.5,-78"/>
<text text-anchor="start" x="258.5" y="-66" font-family="Helvetica,sans-Serif" font-size="10.00">guanaqo::linalg::sort</text>
<text text-anchor="middle" x="308.5" y="-55" font-family="Helvetica,sans-Serif" font-size="10.00">_triplets</text>
</a>
</g>
</g>
<!-- Node1&#45;&gt;Node4 -->
<g id="edge3_Node000001_Node000004" class="edge">
<title>Node1&#45;&gt;Node4</title>
<g id="a_edge3_Node000001_Node000004"><a xlink:title=" ">
<path fill="none" stroke="#63b8ff" d="M204.05,-75.14C216.35,-73.7 228.67,-72.25 240.3,-70.89"/>
<polygon fill="#63b8ff" stroke="#63b8ff" points="240.8,-74.35 250.33,-69.71 239.99,-67.4 240.8,-74.35"/>
</a>
</g>
</g>
<!-- Node6 -->
<g id="Node000006" class="node">
<title>Node6</title>
<g id="a_Node000006"><a xlink:href="group__linalg__sparsity__utils.html#gad80eb9b83d13f637495b3066bff61471" target="_top" xlink:title="Sort the (row, column, value) triplets by column index.">
<polygon fill="white" stroke="#666666" points="366.5,-30 250.5,-30 250.5,0 366.5,0 366.5,-30"/>
<text text-anchor="start" x="258.5" y="-18" font-family="Helvetica,sans-Serif" font-size="10.00">guanaqo::linalg::sort</text>
<text text-anchor="middle" x="308.5" y="-7" font-family="Helvetica,sans-Serif" font-size="10.00">_triplets_col</text>
</a>
</g>
</g>
<!-- Node1&#45;&gt;Node6 -->
<g id="edge5_Node000001_Node000006" class="edge">
<title>Node1&#45;&gt;Node6</title>
<g id="a_edge5_Node000001_Node000006"><a xlink:title=" ">
<path fill="none" stroke="#63b8ff" d="M177.12,-60.9C203.04,-51.78 231.57,-41.73 255.32,-33.37"/>
<polygon fill="#63b8ff" stroke="#63b8ff" points="256.58,-36.64 264.85,-30.02 254.25,-30.04 256.58,-36.64"/>
</a>
</g>
</g>
<!-- Node5 -->
<g id="Node000005" class="node">
<title>Node5</title>
<g id="a_Node000005"><a xlink:href="namespaceguanaqo_1_1linalg_1_1detail.html#afa09b134201dc9b6057127b2d45b6c61" target="_top" xlink:title=" ">
<polygon fill="white" stroke="#666666" points="538,-54 413,-54 413,-24 538,-24 538,-54"/>
<text text-anchor="start" x="421" y="-42" font-family="Helvetica,sans-Serif" font-size="10.00">guanaqo::linalg::detail</text>
<text text-anchor="middle" x="475.5" y="-31" font-family="Helvetica,sans-Serif" font-size="10.00">::sort_triplets_impl</text>
</a>
</g>
</g>
<!-- Node4&#45;&gt;Node5 -->
<g id="edge4_Node000004_Node000005" class="edge">
<title>Node4&#45;&gt;Node5</title>
<g id="a_edge4_Node000004_Node000005"><a xlink:title=" ">
<path fill="none" stroke="#63b8ff" d="M366.75,-54.67C378.38,-52.98 390.76,-51.18 402.82,-49.43"/>
<polygon fill="#63b8ff" stroke="#63b8ff" points="403.46,-52.87 412.85,-47.97 402.46,-45.94 403.46,-52.87"/>
</a>
</g>
</g>
<!-- Node6&#45;&gt;Node5 -->
<g id="edge6_Node000006_Node000005" class="edge">
<title>Node6&#45;&gt;Node5</title>
<g id="a_edge6_Node000006_Node000005"><a xlink:title=" ">
<path fill="none" stroke="#63b8ff" d="M366.75,-23.33C378.38,-25.02 390.76,-26.82 402.82,-28.57"/>
<polygon fill="#63b8ff" stroke="#63b8ff" points="402.46,-32.06 412.85,-30.03 403.46,-25.13 402.46,-32.06"/>
</a>
</g>
</g>
</g>
</svg>
