<?xml version="1.0" encoding="UTF-8" standalone="no"?>
<!DOCTYPE svg PUBLIC "-//W3C//DTD SVG 1.1//EN"
 "http://www.w3.org/Graphics/SVG/1.1/DTD/svg11.dtd">
<!-- Generated by graphviz version 2.43.0 (0)
 -->
<!-- Title: guanaqo::detail::Launderer::do_invoke Pages: 1 -->
<svg width="521pt" height="86pt"
 viewBox="0.00 0.00 521.00 86.00" xmlns="http://www.w3.org/2000/svg" xmlns:xlink="http://www.w3.org/1999/xlink">
<g id="graph0" class="graph" transform="scale(1 1) rotate(0) translate(4 82)">
<title>guanaqo::detail::Launderer::do_invoke</title>
<!-- Node1 -->
<g id="Node000001" class="node">
<title>Node1</title>
<g id="a_Node000001"><a xlink:title=" ">
<polygon fill="#999999" stroke="#666666" points="513,-54 366,-54 366,-24 513,-24 513,-54"/>
<text text-anchor="start" x="374" y="-42" font-family="Helvetica,sans-Serif" font-size="10.00">guanaqo::detail::Launderer</text>
<text text-anchor="middle" x="439.5" y="-31" font-family="Helvetica,sans-Serif" font-size="10.00">::do_invoke</text>
</a>
</g>
</g>
<!-- Node2 -->
<g id="Node000002" class="node">
<title>Node2</title>
<g id="a_Node000002"><a xlink:href="structguanaqo_1_1detail_1_1Launderer.html#af4d7a5eadad4b2ceeef90033a83b3e37" target="_top" xlink:title=" ">
<polygon fill="white" stroke="#666666" points="330,-78 183,-78 183,-48 330,-48 330,-78"/>
<text text-anchor="start" x="191" y="-66" font-family="Helvetica,sans-Serif" font-size="10.00">guanaqo::detail::Launderer</text>
<text text-anchor="middle" x="256.5" y="-55" font-family="Helvetica,sans-Serif" font-size="10.00">::invoker_ovl</text>
</a>
</g>
</g>
<!-- Node1&#45;&gt;Node2 -->
<g id="edge1_Node000001_Node000002" class="edge">
<title>Node1&#45;&gt;Node2</title>
<g id="a_edge1_Node000001_Node000002"><a xlink:title=" ">
<path fill="none" stroke="#63b8ff" d="M355.88,-49.95C347.28,-51.1 338.58,-52.25 330.09,-53.37"/>
<polygon fill="#63b8ff" stroke="#63b8ff" points="356.47,-53.41 365.92,-48.62 355.55,-46.47 356.47,-53.41"/>
</a>
</g>
</g>
<!-- Node4 -->
<g id="Node000004" class="node">
<title>Node4</title>
<g id="a_Node000004"><a xlink:href="structguanaqo_1_1detail_1_1Launderer.html#a81929ae58db3fdbaad4713f19ff1d788" target="_top" xlink:title=" ">
<polygon fill="white" stroke="#666666" points="330,-30 183,-30 183,0 330,0 330,-30"/>
<text text-anchor="start" x="191" y="-18" font-family="Helvetica,sans-Serif" font-size="10.00">guanaqo::detail::Launderer</text>
<text text-anchor="middle" x="256.5" y="-7" font-family="Helvetica,sans-Serif" font-size="10.00">::invoker_ovl</text>
</a>
</g>
</g>
<!-- Node1&#45;&gt;Node4 -->
<g id="edge3_Node000001_Node000004" class="edge">
<title>Node1&#45;&gt;Node4</title>
<g id="a_edge3_Node000001_Node000004"><a xlink:title=" ">
<path fill="none" stroke="#63b8ff" d="M355.88,-28.05C347.28,-26.9 338.58,-25.75 330.09,-24.63"/>
<polygon fill="#63b8ff" stroke="#63b8ff" points="355.55,-31.53 365.92,-29.38 356.47,-24.59 355.55,-31.53"/>
</a>
</g>
</g>
<!-- Node3 -->
<g id="Node000003" class="node">
<title>Node3</title>
<g id="a_Node000003"><a xlink:href="structguanaqo_1_1detail_1_1Launderer.html#a6fa3bebb4e15f894701fc7ed6a35c2c8" target="_top" xlink:title="Returns a function that accepts a void pointer, casts it to the class type of the member function Met...">
<polygon fill="white" stroke="#666666" points="147,-78 0,-78 0,-48 147,-48 147,-78"/>
<text text-anchor="start" x="8" y="-66" font-family="Helvetica,sans-Serif" font-size="10.00">guanaqo::detail::Launderer</text>
<text text-anchor="middle" x="73.5" y="-55" font-family="Helvetica,sans-Serif" font-size="10.00">::invoker</text>
</a>
</g>
</g>
<!-- Node2&#45;&gt;Node3 -->
<g id="edge2_Node000002_Node000003" class="edge">
<title>Node2&#45;&gt;Node3</title>
<g id="a_edge2_Node000002_Node000003"><a xlink:title=" ">
<path fill="none" stroke="#63b8ff" d="M172.88,-63C164.28,-63 155.58,-63 147.09,-63"/>
<polygon fill="#63b8ff" stroke="#63b8ff" points="172.92,-66.5 182.92,-63 172.92,-59.5 172.92,-66.5"/>
</a>
</g>
</g>
</g>
</svg>
