<?xml version="1.0" encoding="UTF-8" standalone="no"?>
<!DOCTYPE svg PUBLIC "-//W3C//DTD SVG 1.1//EN"
 "http://www.w3.org/Graphics/SVG/1.1/DTD/svg11.dtd">
<!-- Generated by graphviz version 2.43.0 (0)
 -->
<!-- Title: guanaqo::linalg::sparsity::SparsityConverter&lt; Dense, SparseCOO&lt; Index &gt; &gt;::convert_values Pages: 1 -->
<svg width="622pt" height="126pt"
 viewBox="0.00 0.00 622.00 126.23" xmlns="http://www.w3.org/2000/svg" xmlns:xlink="http://www.w3.org/1999/xlink">
<g id="graph0" class="graph" transform="scale(1 1) rotate(0) translate(4 122.23)">
<title>guanaqo::linalg::sparsity::SparsityConverter&lt; Dense, SparseCOO&lt; Index &gt; &gt;::convert_values</title>
<!-- Node1 -->
<g id="Node000001" class="node">
<title>Node1</title>
<g id="a_Node000001"><a xlink:title=" ">
<polygon fill="#999999" stroke="#666666" points="215,-100 0,-100 0,-59 215,-59 215,-100"/>
<text text-anchor="start" x="8" y="-88" font-family="Helvetica,sans-Serif" font-size="10.00">guanaqo::linalg::sparsity</text>
<text text-anchor="start" x="8" y="-77" font-family="Helvetica,sans-Serif" font-size="10.00">::SparsityConverter&lt; Dense,</text>
<text text-anchor="middle" x="107.5" y="-66" font-family="Helvetica,sans-Serif" font-size="10.00"> SparseCOO&lt; Index &gt; &gt;::convert_values</text>
</a>
</g>
</g>
<!-- Node2 -->
<g id="Node000002" class="node">
<title>Node2</title>
<g id="a_Node000002"><a xlink:href="namespaceguanaqo_1_1linalg_1_1sparsity.html#af32001896a23ba0b0d0237c9046f4315" target="_top" xlink:title=" ">
<polygon fill="white" stroke="#666666" points="614,-89.5 477,-89.5 477,-59.5 614,-59.5 614,-89.5"/>
<text text-anchor="start" x="485" y="-77.5" font-family="Helvetica,sans-Serif" font-size="10.00">guanaqo::linalg::sparsity</text>
<text text-anchor="middle" x="545.5" y="-66.5" font-family="Helvetica,sans-Serif" font-size="10.00">::cast_sz</text>
</a>
</g>
</g>
<!-- Node1&#45;&gt;Node2 -->
<g id="edge1_Node000001_Node000002" class="edge">
<title>Node1&#45;&gt;Node2</title>
<g id="a_edge1_Node000001_Node000002"><a xlink:title=" ">
<path fill="none" stroke="#63b8ff" d="M191.68,-100.03C211.03,-103.97 231.64,-107.48 251,-109.5 334.99,-118.25 357.68,-123.21 441,-109.5 460.74,-106.25 481.78,-99.74 499.7,-93.2"/>
<polygon fill="#63b8ff" stroke="#63b8ff" points="501.18,-96.39 509.31,-89.59 498.72,-89.84 501.18,-96.39"/>
</a>
</g>
</g>
<!-- Node3 -->
<g id="Node000003" class="node">
<title>Node3</title>
<g id="a_Node000003"><a xlink:href="structguanaqo_1_1linalg_1_1sparsity_1_1SparsityConverter_3_01Dense_00_01SparseCOO_3_01Index_01_4_01_4.html#a0853af6c0b6b64f8fbbc33ead9b7a454" target="_top" xlink:title=" ">
<polygon fill="white" stroke="#666666" points="439.5,-100 252.5,-100 252.5,-59 439.5,-59 439.5,-100"/>
<text text-anchor="start" x="260.5" y="-88" font-family="Helvetica,sans-Serif" font-size="10.00">guanaqo::linalg::sparsity</text>
<text text-anchor="start" x="260.5" y="-77" font-family="Helvetica,sans-Serif" font-size="10.00">::SparsityConverter&lt; Dense,</text>
<text text-anchor="middle" x="346" y="-66" font-family="Helvetica,sans-Serif" font-size="10.00"> SparseCOO&lt; Index &gt; &gt;::nnz_from</text>
</a>
</g>
</g>
<!-- Node1&#45;&gt;Node3 -->
<g id="edge2_Node000001_Node000003" class="edge">
<title>Node1&#45;&gt;Node3</title>
<g id="a_edge2_Node000001_Node000003"><a xlink:title=" ">
<path fill="none" stroke="#63b8ff" d="M215.33,-79.5C224.32,-79.5 233.39,-79.5 242.34,-79.5"/>
<polygon fill="#63b8ff" stroke="#63b8ff" points="242.38,-83 252.38,-79.5 242.38,-76 242.38,-83"/>
</a>
</g>
</g>
<!-- Node4 -->
<g id="Node000004" class="node">
<title>Node4</title>
<g id="a_Node000004"><a xlink:href="structguanaqo_1_1linalg_1_1sparsity_1_1SparsityConverter_3_01Dense_00_01SparseCOO_3_01Index_01_4_01_4.html#afc5ca35d82cddf0d800e86a4f3fbc4bf" target="_top" xlink:title=" ">
<polygon fill="white" stroke="#666666" points="441,-41 251,-41 251,0 441,0 441,-41"/>
<text text-anchor="start" x="259" y="-29" font-family="Helvetica,sans-Serif" font-size="10.00">guanaqo::linalg::sparsity</text>
<text text-anchor="start" x="259" y="-18" font-family="Helvetica,sans-Serif" font-size="10.00">::SparsityConverter&lt; Dense,</text>
<text text-anchor="middle" x="346" y="-7" font-family="Helvetica,sans-Serif" font-size="10.00"> SparseCOO&lt; Index &gt; &gt;::work_size</text>
</a>
</g>
</g>
<!-- Node1&#45;&gt;Node4 -->
<g id="edge3_Node000001_Node000004" class="edge">
<title>Node1&#45;&gt;Node4</title>
<g id="a_edge3_Node000001_Node000004"><a xlink:title=" ">
<path fill="none" stroke="#63b8ff" d="M190.88,-58.95C210.82,-53.97 232.25,-48.63 252.61,-43.55"/>
<polygon fill="#63b8ff" stroke="#63b8ff" points="253.66,-46.9 262.51,-41.08 251.96,-40.1 253.66,-46.9"/>
</a>
</g>
</g>
<!-- Node4&#45;&gt;Node2 -->
<g id="edge4_Node000004_Node000002" class="edge">
<title>Node4&#45;&gt;Node2</title>
<g id="a_edge4_Node000004_Node000002"><a xlink:title=" ">
<path fill="none" stroke="#63b8ff" d="M422.23,-41.07C441.17,-46.25 461.34,-51.76 479.72,-56.79"/>
<polygon fill="#63b8ff" stroke="#63b8ff" points="478.87,-60.18 489.44,-59.45 480.72,-53.43 478.87,-60.18"/>
</a>
</g>
</g>
</g>
</svg>
