<?xml version="1.0" encoding="UTF-8" standalone="no"?>
<!DOCTYPE svg PUBLIC "-//W3C//DTD SVG 1.1//EN"
 "http://www.w3.org/Graphics/SVG/1.1/DTD/svg11.dtd">
<!-- Generated by graphviz version 2.43.0 (0)
 -->
<!-- Title: guanaqo::linalg::sparsity::SparsityConverter&lt; SparseCOO&lt; IndexFrom &gt;, SparseCSC&lt; IndexTo, StorageIndexTo &gt; &gt; Pages: 1 -->
<svg width="218pt" height="409pt"
 viewBox="0.00 0.00 218.00 409.00" xmlns="http://www.w3.org/2000/svg" xmlns:xlink="http://www.w3.org/1999/xlink">
<g id="graph0" class="graph" transform="scale(1 1) rotate(0) translate(4 405)">
<title>guanaqo::linalg::sparsity::SparsityConverter&lt; SparseCOO&lt; IndexFrom &gt;, SparseCSC&lt; IndexTo, StorageIndexTo &gt; &gt;</title>
<!-- Node1 -->
<g id="Node000001" class="node">
<title>Node1</title>
<g id="a_Node000001"><a xlink:title="Conversion from COO to CSC format.">
<polygon fill="#999999" stroke="transparent" points="202.5,-213 7.5,-213 7.5,0 202.5,0 202.5,-213"/>
<text text-anchor="start" x="13" y="-200.5" font-family="Helvetica,sans-Serif" font-size="10.00">guanaqo::linalg::sparsity</text>
<text text-anchor="start" x="13" y="-189.5" font-family="Helvetica,sans-Serif" font-size="10.00">::SparsityConverter&lt; SparseCOO</text>
<text text-anchor="start" x="13" y="-178.5" font-family="Helvetica,sans-Serif" font-size="10.00">&lt; IndexFrom &gt;, SparseCSC&lt; IndexTo,</text>
<text text-anchor="start" x="55" y="-167.5" font-family="Helvetica,sans-Serif" font-size="10.00"> StorageIndexTo &gt; &gt;</text>
<text text-anchor="start" x="23.5" y="-152.5" font-family="Helvetica,sans-Serif" font-size="10.00">+</text>
<text text-anchor="start" x="48" y="-152.5" font-family="Helvetica,sans-Serif" font-size="10.00">inner_idx</text>
<text text-anchor="start" x="23.5" y="-137.5" font-family="Helvetica,sans-Serif" font-size="10.00">+</text>
<text text-anchor="start" x="48" y="-137.5" font-family="Helvetica,sans-Serif" font-size="10.00">outer_ptr</text>
<text text-anchor="start" x="23.5" y="-122.5" font-family="Helvetica,sans-Serif" font-size="10.00">+</text>
<text text-anchor="start" x="48" y="-122.5" font-family="Helvetica,sans-Serif" font-size="10.00">permutation</text>
<text text-anchor="start" x="23.5" y="-107.5" font-family="Helvetica,sans-Serif" font-size="10.00">+</text>
<text text-anchor="start" x="48" y="-107.5" font-family="Helvetica,sans-Serif" font-size="10.00">convert_sparsity()</text>
<text text-anchor="start" x="23.5" y="-92.5" font-family="Helvetica,sans-Serif" font-size="10.00">+</text>
<text text-anchor="start" x="48" y="-92.5" font-family="Helvetica,sans-Serif" font-size="10.00">SparsityConverter()</text>
<text text-anchor="start" x="23.5" y="-77.5" font-family="Helvetica,sans-Serif" font-size="10.00">+</text>
<text text-anchor="start" x="48" y="-77.5" font-family="Helvetica,sans-Serif" font-size="10.00">operator const to_sparsity</text>
<text text-anchor="start" x="48" y="-66.5" font-family="Helvetica,sans-Serif" font-size="10.00">_t &amp;()</text>
<text text-anchor="start" x="23.5" y="-51.5" font-family="Helvetica,sans-Serif" font-size="10.00">+</text>
<text text-anchor="start" x="48" y="-51.5" font-family="Helvetica,sans-Serif" font-size="10.00">get_sparsity()</text>
<text text-anchor="start" x="23.5" y="-36.5" font-family="Helvetica,sans-Serif" font-size="10.00">+</text>
<text text-anchor="start" x="48" y="-36.5" font-family="Helvetica,sans-Serif" font-size="10.00">work_size()</text>
<text text-anchor="start" x="23.5" y="-21.5" font-family="Helvetica,sans-Serif" font-size="10.00">+</text>
<text text-anchor="start" x="48" y="-21.5" font-family="Helvetica,sans-Serif" font-size="10.00">nnz_from()</text>
<text text-anchor="start" x="23.5" y="-6.5" font-family="Helvetica,sans-Serif" font-size="10.00">+</text>
<text text-anchor="start" x="48" y="-6.5" font-family="Helvetica,sans-Serif" font-size="10.00">convert_values()</text>
<polygon fill="#666666" stroke="#666666" points="8,-162.5 8,-162.5 203,-162.5 203,-162.5 8,-162.5"/>
<polygon fill="#666666" stroke="#666666" points="8,-117.5 8,-117.5 46,-117.5 46,-117.5 8,-117.5"/>
<polygon fill="#666666" stroke="#666666" points="46,-117.5 46,-117.5 203,-117.5 203,-117.5 46,-117.5"/>
<polygon fill="none" stroke="#666666" points="7.5,0 7.5,-213 202.5,-213 202.5,0 7.5,0"/>
</a>
</g>
</g>
<!-- Node2 -->
<g id="Node000002" class="node">
<title>Node2</title>
<g id="a_Node000002"><a xlink:href="structguanaqo_1_1linalg_1_1sparsity_1_1SparseCSC.html" target="_top" xlink:title=" ">
<polygon fill="white" stroke="transparent" points="210,-401 0,-401 0,-266 210,-266 210,-401"/>
<text text-anchor="start" x="5" y="-388.5" font-family="Helvetica,sans-Serif" font-size="10.00">guanaqo::linalg::sparsity</text>
<text text-anchor="start" x="5" y="-377.5" font-family="Helvetica,sans-Serif" font-size="10.00">::SparseCSC&lt; IndexTo, StorageIndexTo &gt;</text>
<text text-anchor="start" x="38.5" y="-362.5" font-family="Helvetica,sans-Serif" font-size="10.00">+</text>
<text text-anchor="start" x="86" y="-362.5" font-family="Helvetica,sans-Serif" font-size="10.00">rows</text>
<text text-anchor="start" x="38.5" y="-347.5" font-family="Helvetica,sans-Serif" font-size="10.00">+</text>
<text text-anchor="start" x="86" y="-347.5" font-family="Helvetica,sans-Serif" font-size="10.00">cols</text>
<text text-anchor="start" x="38.5" y="-332.5" font-family="Helvetica,sans-Serif" font-size="10.00">+</text>
<text text-anchor="start" x="86" y="-332.5" font-family="Helvetica,sans-Serif" font-size="10.00">symmetry</text>
<text text-anchor="start" x="38.5" y="-317.5" font-family="Helvetica,sans-Serif" font-size="10.00">+</text>
<text text-anchor="start" x="86" y="-317.5" font-family="Helvetica,sans-Serif" font-size="10.00">inner_idx</text>
<text text-anchor="start" x="38.5" y="-302.5" font-family="Helvetica,sans-Serif" font-size="10.00">+</text>
<text text-anchor="start" x="86" y="-302.5" font-family="Helvetica,sans-Serif" font-size="10.00">outer_ptr</text>
<text text-anchor="start" x="38.5" y="-287.5" font-family="Helvetica,sans-Serif" font-size="10.00">+</text>
<text text-anchor="start" x="86" y="-287.5" font-family="Helvetica,sans-Serif" font-size="10.00">order</text>
<text text-anchor="start" x="38.5" y="-272.5" font-family="Helvetica,sans-Serif" font-size="10.00">+</text>
<text text-anchor="start" x="86" y="-272.5" font-family="Helvetica,sans-Serif" font-size="10.00">nnz()</text>
<polygon fill="#666666" stroke="#666666" points="0,-372.5 0,-372.5 210,-372.5 210,-372.5 0,-372.5"/>
<polygon fill="#666666" stroke="#666666" points="0,-282.5 0,-282.5 84,-282.5 84,-282.5 0,-282.5"/>
<polygon fill="#666666" stroke="#666666" points="84,-282.5 84,-282.5 210,-282.5 210,-282.5 84,-282.5"/>
<polygon fill="none" stroke="#666666" points="0,-266 0,-401 210,-401 210,-266 0,-266"/>
</a>
</g>
</g>
<!-- Node2&#45;&gt;Node1 -->
<g id="edge1_Node000001_Node000002" class="edge">
<title>Node2&#45;&gt;Node1</title>
<g id="a_edge1_Node000001_Node000002"><a xlink:title=" ">
<path fill="none" stroke="#63b8ff" d="M105,-265.91C105,-253.08 105,-239.29 105,-225.39"/>
<polygon fill="none" stroke="#63b8ff" points="105,-225.16 101,-219.16 105,-213.16 109,-219.16 105,-225.16"/>
</a>
</g>
<text text-anchor="start" x="108" y="-236.5" font-family="Helvetica,sans-Serif" font-size="10.00" fill="grey">+sparsity</text>
</g>
</g>
</svg>
