<?xml version="1.0" encoding="UTF-8" standalone="no"?>
<!DOCTYPE svg PUBLIC "-//W3C//DTD SVG 1.1//EN"
 "http://www.w3.org/Graphics/SVG/1.1/DTD/svg11.dtd">
<!-- Generated by graphviz version 2.43.0 (0)
 -->
<!-- Title: guanaqo::DynamicLoadFlags Pages: 1 -->
<svg width="160pt" height="102pt"
 viewBox="0.00 0.00 160.00 102.00" xmlns="http://www.w3.org/2000/svg" xmlns:xlink="http://www.w3.org/1999/xlink">
<g id="graph0" class="graph" transform="scale(1 1) rotate(0) translate(4 98)">
<title>guanaqo::DynamicLoadFlags</title>
<!-- Node1 -->
<g id="Node000001" class="node">
<title>Node1</title>
<g id="a_Node000001"><a xlink:title="Flags to be passed to dlopen.">
<polygon fill="#999999" stroke="transparent" points="152,-94 0,-94 0,0 152,0 152,-94"/>
<text text-anchor="start" x="5" y="-82" font-family="Helvetica,sans-Serif" font-size="10.00">guanaqo::DynamicLoadFlags</text>
<text text-anchor="start" x="20.5" y="-67" font-family="Helvetica,sans-Serif" font-size="10.00">+</text>
<text text-anchor="start" x="50" y="-67" font-family="Helvetica,sans-Serif" font-size="10.00">global</text>
<text text-anchor="start" x="20.5" y="-52" font-family="Helvetica,sans-Serif" font-size="10.00">+</text>
<text text-anchor="start" x="50" y="-52" font-family="Helvetica,sans-Serif" font-size="10.00">lazy</text>
<text text-anchor="start" x="20.5" y="-37" font-family="Helvetica,sans-Serif" font-size="10.00">+</text>
<text text-anchor="start" x="50" y="-37" font-family="Helvetica,sans-Serif" font-size="10.00">nodelete</text>
<text text-anchor="start" x="20.5" y="-22" font-family="Helvetica,sans-Serif" font-size="10.00">+</text>
<text text-anchor="start" x="50" y="-22" font-family="Helvetica,sans-Serif" font-size="10.00">deepbind</text>
<text text-anchor="start" x="20.5" y="-7" font-family="Helvetica,sans-Serif" font-size="10.00">+</text>
<text text-anchor="start" x="50" y="-7" font-family="Helvetica,sans-Serif" font-size="10.00">operator int()</text>
<polygon fill="#666666" stroke="#666666" points="0,-77 0,-77 152,-77 152,-77 0,-77"/>
<polygon fill="#666666" stroke="#666666" points="0,-17 0,-17 48,-17 48,-17 0,-17"/>
<polygon fill="#666666" stroke="#666666" points="48,-17 48,-17 152,-17 152,-17 48,-17"/>
<polygon fill="none" stroke="#666666" points="0,0 0,-94 152,-94 152,0 0,0"/>
</a>
</g>
</g>
</g>
</svg>
