<?xml version="1.0" encoding="UTF-8" standalone="no"?>
<!DOCTYPE svg PUBLIC "-//W3C//DTD SVG 1.1//EN"
 "http://www.w3.org/Graphics/SVG/1.1/DTD/svg11.dtd">
<!-- Generated by graphviz version 2.43.0 (0)
 -->
<!-- Title: guanaqo::linalg::sparsity::SparsityConverter&lt; SparseCSC&lt; Index, StorageIndex &gt;, Dense &gt;::convert_values Pages: 1 -->
<svg width="565pt" height="149pt"
 viewBox="0.00 0.00 565.00 148.98" xmlns="http://www.w3.org/2000/svg" xmlns:xlink="http://www.w3.org/1999/xlink">
<g id="graph0" class="graph" transform="scale(1 1) rotate(0) translate(4 144.98)">
<title>guanaqo::linalg::sparsity::SparsityConverter&lt; SparseCSC&lt; Index, StorageIndex &gt;, Dense &gt;::convert_values</title>
<!-- Node1 -->
<g id="Node000001" class="node">
<title>Node1</title>
<g id="a_Node000001"><a xlink:title=" ">
<polygon fill="#999999" stroke="#666666" points="174,-122 0,-122 0,-70 174,-70 174,-122"/>
<text text-anchor="start" x="8" y="-110" font-family="Helvetica,sans-Serif" font-size="10.00">guanaqo::linalg::sparsity</text>
<text text-anchor="start" x="8" y="-99" font-family="Helvetica,sans-Serif" font-size="10.00">::SparsityConverter&lt; SparseCSC</text>
<text text-anchor="start" x="8" y="-88" font-family="Helvetica,sans-Serif" font-size="10.00">&lt; Index, StorageIndex &gt;, Dense</text>
<text text-anchor="middle" x="87" y="-77" font-family="Helvetica,sans-Serif" font-size="10.00"> &gt;::convert_values</text>
</a>
</g>
</g>
<!-- Node2 -->
<g id="Node000002" class="node">
<title>Node2</title>
<g id="a_Node000002"><a xlink:href="namespaceguanaqo_1_1linalg_1_1sparsity.html#af32001896a23ba0b0d0237c9046f4315" target="_top" xlink:title=" ">
<polygon fill="white" stroke="#666666" points="557,-103 420,-103 420,-73 557,-73 557,-103"/>
<text text-anchor="start" x="428" y="-91" font-family="Helvetica,sans-Serif" font-size="10.00">guanaqo::linalg::sparsity</text>
<text text-anchor="middle" x="488.5" y="-80" font-family="Helvetica,sans-Serif" font-size="10.00">::cast_sz</text>
</a>
</g>
</g>
<!-- Node1&#45;&gt;Node2 -->
<g id="edge1_Node000001_Node000002" class="edge">
<title>Node1&#45;&gt;Node2</title>
<g id="a_edge1_Node000001_Node000002"><a xlink:title=" ">
<path fill="none" stroke="#63b8ff" d="M166.71,-122.05C180.97,-125.77 195.82,-129.01 210,-131 286.58,-141.77 308.16,-146.13 384,-131 406.96,-126.42 431.2,-116.65 450.44,-107.58"/>
<polygon fill="#63b8ff" stroke="#63b8ff" points="451.99,-110.71 459.46,-103.2 448.94,-104.42 451.99,-110.71"/>
</a>
</g>
</g>
<!-- Node3 -->
<g id="Node000003" class="node">
<title>Node3</title>
<g id="a_Node000003"><a xlink:href="structguanaqo_1_1linalg_1_1sparsity_1_1SparsityConverter_3_01SparseCSC_3_01Index_00_01StorageIndex_01_4_00_01Dense_01_4.html#aa9ccae64f59610baab8587291dba5549" target="_top" xlink:title=" ">
<polygon fill="white" stroke="#666666" points="384,-122 210,-122 210,-70 384,-70 384,-122"/>
<text text-anchor="start" x="218" y="-110" font-family="Helvetica,sans-Serif" font-size="10.00">guanaqo::linalg::sparsity</text>
<text text-anchor="start" x="218" y="-99" font-family="Helvetica,sans-Serif" font-size="10.00">::SparsityConverter&lt; SparseCSC</text>
<text text-anchor="start" x="218" y="-88" font-family="Helvetica,sans-Serif" font-size="10.00">&lt; Index, StorageIndex &gt;, Dense</text>
<text text-anchor="middle" x="297" y="-77" font-family="Helvetica,sans-Serif" font-size="10.00"> &gt;::nnz_from</text>
</a>
</g>
</g>
<!-- Node1&#45;&gt;Node3 -->
<g id="edge2_Node000001_Node000003" class="edge">
<title>Node1&#45;&gt;Node3</title>
<g id="a_edge2_Node000001_Node000003"><a xlink:title=" ">
<path fill="none" stroke="#63b8ff" d="M174.1,-96C182.62,-96 191.3,-96 199.91,-96"/>
<polygon fill="#63b8ff" stroke="#63b8ff" points="199.96,-99.5 209.96,-96 199.96,-92.5 199.96,-99.5"/>
</a>
</g>
</g>
<!-- Node4 -->
<g id="Node000004" class="node">
<title>Node4</title>
<g id="a_Node000004"><a xlink:href="structguanaqo_1_1linalg_1_1sparsity_1_1SparsityConverter_3_01SparseCSC_3_01Index_00_01StorageIndex_01_4_00_01Dense_01_4.html#aa89f788d2245d80271d3ce7d18df395c" target="_top" xlink:title=" ">
<polygon fill="white" stroke="#666666" points="384,-52 210,-52 210,0 384,0 384,-52"/>
<text text-anchor="start" x="218" y="-40" font-family="Helvetica,sans-Serif" font-size="10.00">guanaqo::linalg::sparsity</text>
<text text-anchor="start" x="218" y="-29" font-family="Helvetica,sans-Serif" font-size="10.00">::SparsityConverter&lt; SparseCSC</text>
<text text-anchor="start" x="218" y="-18" font-family="Helvetica,sans-Serif" font-size="10.00">&lt; Index, StorageIndex &gt;, Dense</text>
<text text-anchor="middle" x="297" y="-7" font-family="Helvetica,sans-Serif" font-size="10.00"> &gt;::work_size</text>
</a>
</g>
</g>
<!-- Node1&#45;&gt;Node4 -->
<g id="edge3_Node000001_Node000004" class="edge">
<title>Node1&#45;&gt;Node4</title>
<g id="a_edge3_Node000001_Node000004"><a xlink:title=" ">
<path fill="none" stroke="#63b8ff" d="M165.45,-69.93C179.53,-65.2 194.3,-60.23 208.64,-55.4"/>
<polygon fill="#63b8ff" stroke="#63b8ff" points="210.12,-58.59 218.48,-52.09 207.89,-51.96 210.12,-58.59"/>
</a>
</g>
</g>
<!-- Node4&#45;&gt;Node2 -->
<g id="edge4_Node000004_Node000002" class="edge">
<title>Node4&#45;&gt;Node2</title>
<g id="a_edge4_Node000004_Node000002"><a xlink:title=" ">
<path fill="none" stroke="#63b8ff" d="M377.54,-52.02C395.75,-57.98 414.72,-64.19 431.68,-69.74"/>
<polygon fill="#63b8ff" stroke="#63b8ff" points="430.82,-73.14 441.41,-72.92 432.99,-66.48 430.82,-73.14"/>
</a>
</g>
</g>
</g>
</svg>
