<?xml version="1.0" encoding="UTF-8" standalone="no"?>
<!DOCTYPE svg PUBLIC "-//W3C//DTD SVG 1.1//EN"
 "http://www.w3.org/Graphics/SVG/1.1/DTD/svg11.dtd">
<!-- Generated by graphviz version 2.43.0 (0)
 -->
<!-- Title: guanaqo::linalg::sparsity::SparsityConverter&lt; Dense, Dense &gt; Pages: 1 -->
<svg width="157pt" height="308pt"
 viewBox="0.00 0.00 157.00 308.00" xmlns="http://www.w3.org/2000/svg" xmlns:xlink="http://www.w3.org/1999/xlink">

<svg id="main" version="1.1" xmlns="http://www.w3.org/2000/svg" xmlns:xlink="http://www.w3.org/1999/xlink" xml:space="preserve">

<style type="text/css"><![CDATA[
.node, .edge {opacity: 0.7;}
.node.selected, .edge.selected {opacity: 1;}
.edge:hover path { stroke: red; }
.edge:hover polygon { stroke: red; fill: red; }
]]></style>
<script type="application/ecmascript" xlink:href="svg.min.js"/>
<svg id="graph" class="graph">
<g id="graph0" class="graph" transform="scale(1 1) rotate(0) translate(4 304)">
<title>guanaqo::linalg::sparsity::SparsityConverter&lt; Dense, Dense &gt;</title>
<!-- Node1 -->
<g id="Node000001" class="node">
<title>Node1</title>
<g id="a_Node000001"><a xlink:title="Conversion from dense to dense is trivial.">
<polygon fill="#999999" stroke="transparent" points="149,-157 0,-157 0,0 149,0 149,-157"/>
<text text-anchor="start" x="5.5" y="-144.5" font-family="Helvetica,sans-Serif" font-size="10.00">guanaqo::linalg::sparsity</text>
<text text-anchor="start" x="5.5" y="-133.5" font-family="Helvetica,sans-Serif" font-size="10.00">::SparsityConverter&lt; Dense,</text>
<text text-anchor="start" x="52" y="-122.5" font-family="Helvetica,sans-Serif" font-size="10.00"> Dense &gt;</text>
<text text-anchor="start" x="73" y="-107.5" font-family="Helvetica,sans-Serif" font-size="10.00"> </text>
<text text-anchor="start" x="4.5" y="-92.5" font-family="Helvetica,sans-Serif" font-size="10.00">+</text>
<text text-anchor="start" x="17.5" y="-92.5" font-family="Helvetica,sans-Serif" font-size="10.00">SparsityConverter()</text>
<text text-anchor="start" x="4.5" y="-77.5" font-family="Helvetica,sans-Serif" font-size="10.00">+</text>
<text text-anchor="start" x="17.5" y="-77.5" font-family="Helvetica,sans-Serif" font-size="10.00">operator const to_sparsity</text>
<text text-anchor="start" x="17.5" y="-66.5" font-family="Helvetica,sans-Serif" font-size="10.00">_t &amp;()</text>
<text text-anchor="start" x="4.5" y="-51.5" font-family="Helvetica,sans-Serif" font-size="10.00">+</text>
<text text-anchor="start" x="17.5" y="-51.5" font-family="Helvetica,sans-Serif" font-size="10.00">get_sparsity()</text>
<text text-anchor="start" x="4.5" y="-36.5" font-family="Helvetica,sans-Serif" font-size="10.00">+</text>
<text text-anchor="start" x="17.5" y="-36.5" font-family="Helvetica,sans-Serif" font-size="10.00">work_size()</text>
<text text-anchor="start" x="4.5" y="-21.5" font-family="Helvetica,sans-Serif" font-size="10.00">+</text>
<text text-anchor="start" x="17.5" y="-21.5" font-family="Helvetica,sans-Serif" font-size="10.00">nnz_from()</text>
<text text-anchor="start" x="4.5" y="-6.5" font-family="Helvetica,sans-Serif" font-size="10.00">+</text>
<text text-anchor="start" x="17.5" y="-6.5" font-family="Helvetica,sans-Serif" font-size="10.00">convert_values()</text>
<polygon fill="#666666" stroke="#666666" points="0.5,-117.5 0.5,-117.5 149.5,-117.5 149.5,-117.5 0.5,-117.5"/>
<polygon fill="#666666" stroke="#666666" points="0.5,-102.5 0.5,-102.5 149.5,-102.5 149.5,-102.5 0.5,-102.5"/>
<polygon fill="none" stroke="#666666" points="0,0 0,-157 149,-157 149,0 0,0"/>
</a>
</g>
</g>
<!-- Node2 -->
<g id="Node000002" class="node">
<title>Node2</title>
<g id="a_Node000002"><a xlink:href="group__linalg__sparsity.html#structguanaqo_1_1linalg_1_1sparsity_1_1Dense" target="_top" xlink:title="Dense matrix structure.">
<polygon fill="white" stroke="transparent" points="140,-300 9,-300 9,-210 140,-210 140,-300"/>
<text text-anchor="start" x="14.5" y="-288" font-family="Helvetica,sans-Serif" font-size="10.00">guanaqo::linalg::sparsity</text>
<text text-anchor="start" x="56.5" y="-277" font-family="Helvetica,sans-Serif" font-size="10.00">::Dense</text>
<text text-anchor="start" x="28" y="-262" font-family="Helvetica,sans-Serif" font-size="10.00">+</text>
<text text-anchor="start" x="55.5" y="-262" font-family="Helvetica,sans-Serif" font-size="10.00">rows</text>
<text text-anchor="start" x="28" y="-247" font-family="Helvetica,sans-Serif" font-size="10.00">+</text>
<text text-anchor="start" x="55.5" y="-247" font-family="Helvetica,sans-Serif" font-size="10.00">cols</text>
<text text-anchor="start" x="28" y="-232" font-family="Helvetica,sans-Serif" font-size="10.00">+</text>
<text text-anchor="start" x="55.5" y="-232" font-family="Helvetica,sans-Serif" font-size="10.00">symmetry</text>
<text text-anchor="start" x="73" y="-217" font-family="Helvetica,sans-Serif" font-size="10.00"> </text>
<polygon fill="#666666" stroke="#666666" points="9.5,-272 9.5,-272 140.5,-272 140.5,-272 9.5,-272"/>
<polygon fill="#666666" stroke="#666666" points="9.5,-227 9.5,-227 53.5,-227 53.5,-227 9.5,-227"/>
<polygon fill="#666666" stroke="#666666" points="53.5,-227 53.5,-227 140.5,-227 140.5,-227 53.5,-227"/>
<polygon fill="none" stroke="#666666" points="9,-210 9,-300 140,-300 140,-210 9,-210"/>
</a>
</g>
</g>
<!-- Node2&#45;&gt;Node1 -->
<g id="edge1_Node000001_Node000002" class="edge">
<title>Node2&#45;&gt;Node1</title>
<g id="a_edge1_Node000001_Node000002"><a xlink:title=" ">
<path fill="none" stroke="#63b8ff" d="M74.5,-209.97C74.5,-197.55 74.5,-183.57 74.5,-169.5"/>
<polygon fill="none" stroke="#63b8ff" points="74.5,-169.14 70.5,-163.14 74.5,-157.14 78.5,-163.14 74.5,-169.14"/>
</a>
</g>
<text text-anchor="start" x="77.5" y="-180.5" font-family="Helvetica,sans-Serif" font-size="10.00" fill="grey">+sparsity</text>
</g>
</g>
</svg>
</svg>

<style type='text/css'>
<![CDATA[
[data-mouse-over-selected='false'] { opacity: 0.7; }
[data-mouse-over-selected='true']  { opacity: 1.0; }
]]>
</style>
<script type="application/ecmascript"><![CDATA[
document.addEventListener('DOMContentLoaded', (event) => {
  highlightEdges();
  highlightAdjacentNodes();
});
]]></script>
</svg>
