<?xml version="1.0" encoding="UTF-8" standalone="no"?>
<!DOCTYPE svg PUBLIC "-//W3C//DTD SVG 1.1//EN"
 "http://www.w3.org/Graphics/SVG/1.1/DTD/svg11.dtd">
<!-- Generated by graphviz version 2.43.0 (0)
 -->
<!-- Title: guanaqo::linalg::sparsity::SparsityConverter&lt; Dense, SparseCOO&lt; Index &gt; &gt; Pages: 1 -->
<svg width="157pt" height="398pt"
 viewBox="0.00 0.00 157.00 398.00" xmlns="http://www.w3.org/2000/svg" xmlns:xlink="http://www.w3.org/1999/xlink">
<g id="graph0" class="graph" transform="scale(1 1) rotate(0) translate(4 394)">
<title>guanaqo::linalg::sparsity::SparsityConverter&lt; Dense, SparseCOO&lt; Index &gt; &gt;</title>
<!-- Node1 -->
<g id="Node000001" class="node">
<title>Node1</title>
<g id="a_Node000001"><a xlink:title="Conversion from dense to COO format.">
<polygon fill="#999999" stroke="transparent" points="149,-187 0,-187 0,0 149,0 149,-187"/>
<text text-anchor="start" x="5.5" y="-174.5" font-family="Helvetica,sans-Serif" font-size="10.00">guanaqo::linalg::sparsity</text>
<text text-anchor="start" x="5.5" y="-163.5" font-family="Helvetica,sans-Serif" font-size="10.00">::SparsityConverter&lt; Dense,</text>
<text text-anchor="start" x="15.5" y="-152.5" font-family="Helvetica,sans-Serif" font-size="10.00"> SparseCOO&lt; Index &gt; &gt;</text>
<text text-anchor="start" x="4.5" y="-137.5" font-family="Helvetica,sans-Serif" font-size="10.00">+</text>
<text text-anchor="start" x="17.5" y="-137.5" font-family="Helvetica,sans-Serif" font-size="10.00">row_indices</text>
<text text-anchor="start" x="4.5" y="-122.5" font-family="Helvetica,sans-Serif" font-size="10.00">+</text>
<text text-anchor="start" x="17.5" y="-122.5" font-family="Helvetica,sans-Serif" font-size="10.00">col_indices</text>
<text text-anchor="start" x="4.5" y="-107.5" font-family="Helvetica,sans-Serif" font-size="10.00">+</text>
<text text-anchor="start" x="17.5" y="-107.5" font-family="Helvetica,sans-Serif" font-size="10.00">convert_sparsity()</text>
<text text-anchor="start" x="4.5" y="-92.5" font-family="Helvetica,sans-Serif" font-size="10.00">+</text>
<text text-anchor="start" x="17.5" y="-92.5" font-family="Helvetica,sans-Serif" font-size="10.00">SparsityConverter()</text>
<text text-anchor="start" x="4.5" y="-77.5" font-family="Helvetica,sans-Serif" font-size="10.00">+</text>
<text text-anchor="start" x="17.5" y="-77.5" font-family="Helvetica,sans-Serif" font-size="10.00">operator const to_sparsity</text>
<text text-anchor="start" x="17.5" y="-66.5" font-family="Helvetica,sans-Serif" font-size="10.00">_t &amp;()</text>
<text text-anchor="start" x="4.5" y="-51.5" font-family="Helvetica,sans-Serif" font-size="10.00">+</text>
<text text-anchor="start" x="17.5" y="-51.5" font-family="Helvetica,sans-Serif" font-size="10.00">get_sparsity()</text>
<text text-anchor="start" x="4.5" y="-36.5" font-family="Helvetica,sans-Serif" font-size="10.00">+</text>
<text text-anchor="start" x="17.5" y="-36.5" font-family="Helvetica,sans-Serif" font-size="10.00">work_size()</text>
<text text-anchor="start" x="4.5" y="-21.5" font-family="Helvetica,sans-Serif" font-size="10.00">+</text>
<text text-anchor="start" x="17.5" y="-21.5" font-family="Helvetica,sans-Serif" font-size="10.00">nnz_from()</text>
<text text-anchor="start" x="4.5" y="-6.5" font-family="Helvetica,sans-Serif" font-size="10.00">+</text>
<text text-anchor="start" x="17.5" y="-6.5" font-family="Helvetica,sans-Serif" font-size="10.00">convert_values()</text>
<polygon fill="#666666" stroke="#666666" points="0.5,-147.5 0.5,-147.5 149.5,-147.5 149.5,-147.5 0.5,-147.5"/>
<polygon fill="#666666" stroke="#666666" points="0.5,-117.5 0.5,-117.5 15.5,-117.5 15.5,-117.5 0.5,-117.5"/>
<polygon fill="#666666" stroke="#666666" points="15.5,-117.5 15.5,-117.5 149.5,-117.5 149.5,-117.5 15.5,-117.5"/>
<polygon fill="none" stroke="#666666" points="0,0 0,-187 149,-187 149,0 0,0"/>
</a>
</g>
</g>
<!-- Node2 -->
<g id="Node000002" class="node">
<title>Node2</title>
<g id="a_Node000002"><a xlink:href="structguanaqo_1_1linalg_1_1sparsity_1_1SparseCOO.html" target="_top" xlink:title=" ">
<polygon fill="white" stroke="transparent" points="140,-390 9,-390 9,-240 140,-240 140,-390"/>
<text text-anchor="start" x="14.5" y="-378" font-family="Helvetica,sans-Serif" font-size="10.00">guanaqo::linalg::sparsity</text>
<text text-anchor="start" x="19.5" y="-367" font-family="Helvetica,sans-Serif" font-size="10.00">::SparseCOO&lt; Index &gt;</text>
<text text-anchor="start" x="26.5" y="-352" font-family="Helvetica,sans-Serif" font-size="10.00">+</text>
<text text-anchor="start" x="52.5" y="-352" font-family="Helvetica,sans-Serif" font-size="10.00">rows</text>
<text text-anchor="start" x="26.5" y="-337" font-family="Helvetica,sans-Serif" font-size="10.00">+</text>
<text text-anchor="start" x="52.5" y="-337" font-family="Helvetica,sans-Serif" font-size="10.00">cols</text>
<text text-anchor="start" x="26.5" y="-322" font-family="Helvetica,sans-Serif" font-size="10.00">+</text>
<text text-anchor="start" x="52.5" y="-322" font-family="Helvetica,sans-Serif" font-size="10.00">symmetry</text>
<text text-anchor="start" x="26.5" y="-307" font-family="Helvetica,sans-Serif" font-size="10.00">+</text>
<text text-anchor="start" x="52.5" y="-307" font-family="Helvetica,sans-Serif" font-size="10.00">row_indices</text>
<text text-anchor="start" x="26.5" y="-292" font-family="Helvetica,sans-Serif" font-size="10.00">+</text>
<text text-anchor="start" x="52.5" y="-292" font-family="Helvetica,sans-Serif" font-size="10.00">col_indices</text>
<text text-anchor="start" x="26.5" y="-277" font-family="Helvetica,sans-Serif" font-size="10.00">+</text>
<text text-anchor="start" x="52.5" y="-277" font-family="Helvetica,sans-Serif" font-size="10.00">order</text>
<text text-anchor="start" x="26.5" y="-262" font-family="Helvetica,sans-Serif" font-size="10.00">+</text>
<text text-anchor="start" x="52.5" y="-262" font-family="Helvetica,sans-Serif" font-size="10.00">first_index</text>
<text text-anchor="start" x="26.5" y="-247" font-family="Helvetica,sans-Serif" font-size="10.00">+</text>
<text text-anchor="start" x="52.5" y="-247" font-family="Helvetica,sans-Serif" font-size="10.00">nnz()</text>
<polygon fill="#666666" stroke="#666666" points="9.5,-362 9.5,-362 140.5,-362 140.5,-362 9.5,-362"/>
<polygon fill="#666666" stroke="#666666" points="9.5,-257 9.5,-257 50.5,-257 50.5,-257 9.5,-257"/>
<polygon fill="#666666" stroke="#666666" points="50.5,-257 50.5,-257 140.5,-257 140.5,-257 50.5,-257"/>
<polygon fill="none" stroke="#666666" points="9,-240 9,-390 140,-390 140,-240 9,-240"/>
</a>
</g>
</g>
<!-- Node2&#45;&gt;Node1 -->
<g id="edge1_Node000001_Node000002" class="edge">
<title>Node2&#45;&gt;Node1</title>
<g id="a_edge1_Node000001_Node000002"><a xlink:title=" ">
<path fill="none" stroke="#63b8ff" d="M74.5,-239.99C74.5,-226.9 74.5,-213.05 74.5,-199.3"/>
<polygon fill="none" stroke="#63b8ff" points="74.5,-199.26 70.5,-193.26 74.5,-187.26 78.5,-193.26 74.5,-199.26"/>
</a>
</g>
<text text-anchor="start" x="77.5" y="-210.5" font-family="Helvetica,sans-Serif" font-size="10.00" fill="grey">+sparsity</text>
</g>
</g>
</svg>
