<?xml version="1.0" encoding="UTF-8" standalone="no"?>
<!DOCTYPE svg PUBLIC "-//W3C//DTD SVG 1.1//EN"
 "http://www.w3.org/Graphics/SVG/1.1/DTD/svg11.dtd">
<!-- Generated by graphviz version 2.43.0 (0)
 -->
<!-- Title: guanaqo::io::CSVReader::strtod_ovl Pages: 1 -->
<svg width="846pt" height="113pt"
 viewBox="0.00 0.00 846.00 112.50" xmlns="http://www.w3.org/2000/svg" xmlns:xlink="http://www.w3.org/1999/xlink">
<g id="graph0" class="graph" transform="scale(1 1) rotate(0) translate(4 108.5)">
<title>guanaqo::io::CSVReader::strtod_ovl</title>
<!-- Node1 -->
<g id="Node000001" class="node">
<title>Node1</title>
<g id="a_Node000001"><a xlink:title=" ">
<polygon fill="#999999" stroke="#666666" points="838,-73 704,-73 704,-43 838,-43 838,-73"/>
<text text-anchor="start" x="712" y="-61" font-family="Helvetica,sans-Serif" font-size="10.00">guanaqo::io::CSVReader</text>
<text text-anchor="middle" x="771" y="-50" font-family="Helvetica,sans-Serif" font-size="10.00">::strtod_ovl</text>
</a>
</g>
</g>
<!-- Node2 -->
<g id="Node000002" class="node">
<title>Node2</title>
<g id="a_Node000002"><a xlink:href="structguanaqo_1_1io_1_1CSVReader.html#a23247665597068315987a44467d4459a" target="_top" xlink:title=" ">
<polygon fill="white" stroke="#666666" points="668,-73 534,-73 534,-43 668,-43 668,-73"/>
<text text-anchor="start" x="542" y="-61" font-family="Helvetica,sans-Serif" font-size="10.00">guanaqo::io::CSVReader</text>
<text text-anchor="middle" x="601" y="-50" font-family="Helvetica,sans-Serif" font-size="10.00">::read_single</text>
</a>
</g>
</g>
<!-- Node1&#45;&gt;Node2 -->
<g id="edge1_Node000001_Node000002" class="edge">
<title>Node1&#45;&gt;Node2</title>
<g id="a_edge1_Node000001_Node000002"><a xlink:title=" ">
<path fill="none" stroke="#63b8ff" d="M693.41,-58C684.99,-58 676.47,-58 668.19,-58"/>
<polygon fill="#63b8ff" stroke="#63b8ff" points="693.6,-61.5 703.6,-58 693.6,-54.5 693.6,-61.5"/>
</a>
</g>
</g>
<!-- Node3 -->
<g id="Node000003" class="node">
<title>Node3</title>
<g id="a_Node000003"><a xlink:href="structguanaqo_1_1io_1_1CSVReader.html#ac6ff711471364524ec918facf8059bc4" target="_top" xlink:title=" ">
<polygon fill="white" stroke="#666666" points="498,-73 364,-73 364,-43 498,-43 498,-73"/>
<text text-anchor="start" x="372" y="-61" font-family="Helvetica,sans-Serif" font-size="10.00">guanaqo::io::CSVReader</text>
<text text-anchor="middle" x="431" y="-50" font-family="Helvetica,sans-Serif" font-size="10.00">::read</text>
</a>
</g>
</g>
<!-- Node2&#45;&gt;Node3 -->
<g id="edge2_Node000002_Node000003" class="edge">
<title>Node2&#45;&gt;Node3</title>
<g id="a_edge2_Node000002_Node000003"><a xlink:title=" ">
<path fill="none" stroke="#63b8ff" d="M523.41,-58C514.99,-58 506.47,-58 498.19,-58"/>
<polygon fill="#63b8ff" stroke="#63b8ff" points="523.6,-61.5 533.6,-58 523.6,-54.5 523.6,-61.5"/>
</a>
</g>
</g>
<!-- Node4 -->
<g id="Node000004" class="node">
<title>Node4</title>
<g id="a_Node000004"><a xlink:href="group__io.html#ga7b55c259788953b68dc075f6c3f3859a" target="_top" xlink:title=" ">
<polygon fill="white" stroke="#666666" points="316.5,-104.5 193.5,-104.5 193.5,-85.5 316.5,-85.5 316.5,-104.5"/>
<text text-anchor="middle" x="255" y="-92.5" font-family="Helvetica,sans-Serif" font-size="10.00">guanaqo::io::csv_read</text>
</a>
</g>
</g>
<!-- Node3&#45;&gt;Node4 -->
<g id="edge3_Node000003_Node000004" class="edge">
<title>Node3&#45;&gt;Node4</title>
<g id="a_edge3_Node000003_Node000004"><a xlink:title=" ">
<path fill="none" stroke="#63b8ff" d="M353.76,-74.21C335.67,-78.06 316.95,-82.04 300.79,-85.48"/>
<polygon fill="#63b8ff" stroke="#63b8ff" points="354.67,-77.6 363.72,-72.09 353.21,-70.75 354.67,-77.6"/>
</a>
</g>
</g>
<!-- Node6 -->
<g id="Node000006" class="node">
<title>Node6</title>
<g id="a_Node000006"><a xlink:href="group__io.html#ga087c9290a0520b3f1b02b6787c921604" target="_top" xlink:title=" ">
<polygon fill="white" stroke="#666666" points="328,-67.5 182,-67.5 182,-48.5 328,-48.5 328,-67.5"/>
<text text-anchor="middle" x="255" y="-55.5" font-family="Helvetica,sans-Serif" font-size="10.00">guanaqo::io::csv_read_row</text>
</a>
</g>
</g>
<!-- Node3&#45;&gt;Node6 -->
<g id="edge5_Node000003_Node000006" class="edge">
<title>Node3&#45;&gt;Node6</title>
<g id="a_edge5_Node000003_Node000006"><a xlink:title=" ">
<path fill="none" stroke="#63b8ff" d="M353.53,-58C345.11,-58 336.55,-58 328.18,-58"/>
<polygon fill="#63b8ff" stroke="#63b8ff" points="353.72,-61.5 363.72,-58 353.72,-54.5 353.72,-61.5"/>
</a>
</g>
</g>
<!-- Node8 -->
<g id="Node000008" class="node">
<title>Node8</title>
<g id="a_Node000008"><a xlink:href="group__io.html#ga373fb78c94722a8266ff76164178ee3e" target="_top" xlink:title=" ">
<polygon fill="white" stroke="#666666" points="316.5,-30 193.5,-30 193.5,0 316.5,0 316.5,-30"/>
<text text-anchor="start" x="201.5" y="-18" font-family="Helvetica,sans-Serif" font-size="10.00">guanaqo::io::csv_read</text>
<text text-anchor="middle" x="255" y="-7" font-family="Helvetica,sans-Serif" font-size="10.00">_row_std_vector</text>
</a>
</g>
</g>
<!-- Node3&#45;&gt;Node8 -->
<g id="edge7_Node000003_Node000008" class="edge">
<title>Node3&#45;&gt;Node8</title>
<g id="a_edge7_Node000003_Node000008"><a xlink:title=" ">
<path fill="none" stroke="#63b8ff" d="M359.42,-40.56C345.2,-37.04 330.37,-33.38 316.53,-29.96"/>
<polygon fill="#63b8ff" stroke="#63b8ff" points="358.6,-43.96 369.14,-42.96 360.27,-37.16 358.6,-43.96"/>
</a>
</g>
</g>
<!-- Node5 -->
<g id="Node000005" class="node">
<title>Node5</title>
<g id="a_Node000005"><a xlink:href="group__io.html#ga6bbbe06b5fadeadd6d20822460efa6a1" target="_top" xlink:title=" ">
<polygon fill="white" stroke="#666666" points="134.5,-104.5 11.5,-104.5 11.5,-85.5 134.5,-85.5 134.5,-104.5"/>
<text text-anchor="middle" x="73" y="-92.5" font-family="Helvetica,sans-Serif" font-size="10.00">guanaqo::io::csv_read</text>
</a>
</g>
</g>
<!-- Node4&#45;&gt;Node5 -->
<g id="edge4_Node000004_Node000005" class="edge">
<title>Node4&#45;&gt;Node5</title>
<g id="a_edge4_Node000004_Node000005"><a xlink:title=" ">
<path fill="none" stroke="#63b8ff" d="M182.97,-95C167.01,-95 150.22,-95 134.73,-95"/>
<polygon fill="#63b8ff" stroke="#63b8ff" points="183.31,-98.5 193.31,-95 183.31,-91.5 183.31,-98.5"/>
</a>
</g>
</g>
<!-- Node7 -->
<g id="Node000007" class="node">
<title>Node7</title>
<g id="a_Node000007"><a xlink:href="group__io.html#ga96150e75b0b710f811a29db34a2ceee2" target="_top" xlink:title=" ">
<polygon fill="white" stroke="#666666" points="146,-67.5 0,-67.5 0,-48.5 146,-48.5 146,-67.5"/>
<text text-anchor="middle" x="73" y="-55.5" font-family="Helvetica,sans-Serif" font-size="10.00">guanaqo::io::csv_read_row</text>
</a>
</g>
</g>
<!-- Node6&#45;&gt;Node7 -->
<g id="edge6_Node000006_Node000007" class="edge">
<title>Node6&#45;&gt;Node7</title>
<g id="a_edge6_Node000006_Node000007"><a xlink:title=" ">
<path fill="none" stroke="#63b8ff" d="M171.56,-58C163.09,-58 154.54,-58 146.19,-58"/>
<polygon fill="#63b8ff" stroke="#63b8ff" points="171.82,-61.5 181.82,-58 171.82,-54.5 171.82,-61.5"/>
</a>
</g>
</g>
</g>
</svg>
