<?xml version="1.0" encoding="UTF-8" standalone="no"?>
<!DOCTYPE svg PUBLIC "-//W3C//DTD SVG 1.1//EN"
 "http://www.w3.org/Graphics/SVG/1.1/DTD/svg11.dtd">
<!-- Generated by graphviz version 2.43.0 (0)
 -->
<!-- Title: guanaqo::linalg::sparsity::SparseCSC&lt; Index, StorageIndex &gt; Pages: 1 -->
<svg width="197pt" height="143pt"
 viewBox="0.00 0.00 197.00 143.00" xmlns="http://www.w3.org/2000/svg" xmlns:xlink="http://www.w3.org/1999/xlink">
<g id="graph0" class="graph" transform="scale(1 1) rotate(0) translate(4 139)">
<title>guanaqo::linalg::sparsity::SparseCSC&lt; Index, StorageIndex &gt;</title>
<!-- Node1 -->
<g id="Node000001" class="node">
<title>Node1</title>
<g id="a_Node000001"><a xlink:title="Sparse compressed&#45;column structure (CCS or CSC).">
<polygon fill="#999999" stroke="transparent" points="189,-135 0,-135 0,0 189,0 189,-135"/>
<text text-anchor="start" x="5.5" y="-122.5" font-family="Helvetica,sans-Serif" font-size="10.00">guanaqo::linalg::sparsity</text>
<text text-anchor="start" x="5.5" y="-111.5" font-family="Helvetica,sans-Serif" font-size="10.00">::SparseCSC&lt; Index, StorageIndex &gt;</text>
<text text-anchor="start" x="33.5" y="-96.5" font-family="Helvetica,sans-Serif" font-size="10.00">+</text>
<text text-anchor="start" x="75.5" y="-96.5" font-family="Helvetica,sans-Serif" font-size="10.00">rows</text>
<text text-anchor="start" x="33.5" y="-81.5" font-family="Helvetica,sans-Serif" font-size="10.00">+</text>
<text text-anchor="start" x="75.5" y="-81.5" font-family="Helvetica,sans-Serif" font-size="10.00">cols</text>
<text text-anchor="start" x="33.5" y="-66.5" font-family="Helvetica,sans-Serif" font-size="10.00">+</text>
<text text-anchor="start" x="75.5" y="-66.5" font-family="Helvetica,sans-Serif" font-size="10.00">symmetry</text>
<text text-anchor="start" x="33.5" y="-51.5" font-family="Helvetica,sans-Serif" font-size="10.00">+</text>
<text text-anchor="start" x="75.5" y="-51.5" font-family="Helvetica,sans-Serif" font-size="10.00">inner_idx</text>
<text text-anchor="start" x="33.5" y="-36.5" font-family="Helvetica,sans-Serif" font-size="10.00">+</text>
<text text-anchor="start" x="75.5" y="-36.5" font-family="Helvetica,sans-Serif" font-size="10.00">outer_ptr</text>
<text text-anchor="start" x="33.5" y="-21.5" font-family="Helvetica,sans-Serif" font-size="10.00">+</text>
<text text-anchor="start" x="75.5" y="-21.5" font-family="Helvetica,sans-Serif" font-size="10.00">order</text>
<text text-anchor="start" x="33.5" y="-6.5" font-family="Helvetica,sans-Serif" font-size="10.00">+</text>
<text text-anchor="start" x="75.5" y="-6.5" font-family="Helvetica,sans-Serif" font-size="10.00">nnz()</text>
<polygon fill="#666666" stroke="#666666" points="0.5,-106.5 0.5,-106.5 189.5,-106.5 189.5,-106.5 0.5,-106.5"/>
<polygon fill="#666666" stroke="#666666" points="0.5,-16.5 0.5,-16.5 73.5,-16.5 73.5,-16.5 0.5,-16.5"/>
<polygon fill="#666666" stroke="#666666" points="73.5,-16.5 73.5,-16.5 189.5,-16.5 189.5,-16.5 73.5,-16.5"/>
<polygon fill="none" stroke="#666666" points="0,0 0,-135 189,-135 189,0 0,0"/>
</a>
</g>
</g>
</g>
</svg>
