<?xml version="1.0" encoding="UTF-8" standalone="no"?>
<!DOCTYPE svg PUBLIC "-//W3C//DTD SVG 1.1//EN"
 "http://www.w3.org/Graphics/SVG/1.1/DTD/svg11.dtd">
<!-- Generated by graphviz version 2.43.0 (0)
 -->
<!-- Title: guanaqo::TypeErased&lt; VTable, Allocator, SmallBufferSize &gt;::Deallocator Pages: 1 -->
<!--zoomable 1329 -->

<svg id="main" version="1.1" xmlns="http://www.w3.org/2000/svg" xmlns:xlink="http://www.w3.org/1999/xlink" xml:space="preserve" onload="init(evt)">

<style type="text/css"><![CDATA[
.node, .edge {opacity: 0.7;}
.node.selected, .edge.selected {opacity: 1;}
.edge:hover path { stroke: red; }
.edge:hover polygon { stroke: red; fill: red; }
]]></style>

<defs>
  <circle id="rim" cx="0" cy="0" r="7"/>
  <circle id="rim2" cx="0" cy="0" r="3.5"/>
  <g id="zoomPlus">
    <use xlink:href="#rim" fill="#404040"><set attributeName="fill" to="#808080" begin="zoomplus.mouseover" end="zoomplus.mouseout"/></use>
    <path d="M-4,0h8M0,-4v8" fill="none" stroke="white" stroke-width="1.5" pointer-events="none"/>
  </g>
  <g id="zoomMin">
    <use xlink:href="#rim" fill="#404040"><set attributeName="fill" to="#808080" begin="zoomminus.mouseover" end="zoomminus.mouseout"/></use>
    <path d="M-4,0h8" fill="none" stroke="white" stroke-width="1.5" pointer-events="none"/>
  </g>
  <g id="arrowUp" transform="translate(30 24)">
    <use xlink:href="#rim"/>
    <path pointer-events="none" fill="none" stroke="white" stroke-width="1.5" d="M0,-3.0v7 M-2.5,-0.5L0,-3.0L2.5,-0.5"/>
  </g>
  <g id="arrowRight" transform="rotate(90) translate(36 -43)">
    <use xlink:href="#rim"/>
    <path pointer-events="none" fill="none" stroke="white" stroke-width="1.5" d="M0,-3.0v7 M-2.5,-0.5L0,-3.0L2.5,-0.5"/>
  </g>
  <g id="arrowDown" transform="rotate(180) translate(-30 -48)">
    <use xlink:href="#rim"/>
    <path pointer-events="none" fill="none" stroke="white" stroke-width="1.5" d="M0,-3.0v7 M-2.5,-0.5L0,-3.0L2.5,-0.5"/>
  </g>
  <g id="arrowLeft" transform="rotate(270) translate(-36 17)">
    <use xlink:href="#rim"/>
    <path pointer-events="none" fill="none" stroke="white" stroke-width="1.5" d="M0,-3.0v7 M-2.5,-0.5L0,-3.0L2.5,-0.5"/>
  </g>
  <g id="resetDef">
    <use xlink:href="#rim2" fill="#404040"><set attributeName="fill" to="#808080" begin="reset.mouseover" end="reset.mouseout"/></use>
  </g>
</defs>
<script type="application/ecmascript">
var viewWidth = 203;
var viewHeight = 1329;
var sectionId = 'dynsection-0';
</script>
<script type="application/ecmascript" xlink:href="svg.min.js"/>
<svg id="graph" class="graph">
<g id="viewport">
<title>guanaqo::TypeErased&lt; VTable, Allocator, SmallBufferSize &gt;::Deallocator</title>
<!-- Node1 -->
<g id="Node000001" class="node">
<title>Node1</title>
<g id="a_Node000001"><a xlink:title="Deallocates the storage when destroyed.">
<polygon fill="#999999" stroke="transparent" points="164,-161 0,-161 0,0 164,0 164,-161"/>
<text text-anchor="start" x="5" y="-148.5" font-family="Helvetica,sans-Serif" font-size="10.00">guanaqo::TypeErased</text>
<text text-anchor="start" x="5" y="-137.5" font-family="Helvetica,sans-Serif" font-size="10.00">&lt; VTable, Allocator,</text>
<text text-anchor="start" x="5" y="-126.5" font-family="Helvetica,sans-Serif" font-size="10.00"> SmallBufferSize &gt;::Deallocator</text>
<text text-anchor="start" x="80" y="-111.5" font-family="Helvetica,sans-Serif" font-size="10.00"> </text>
<text text-anchor="start" x="21.5" y="-96.5" font-family="Helvetica,sans-Serif" font-size="10.00">+</text>
<text text-anchor="start" x="52" y="-96.5" font-family="Helvetica,sans-Serif" font-size="10.00">Deallocator()</text>
<text text-anchor="start" x="21.5" y="-81.5" font-family="Helvetica,sans-Serif" font-size="10.00">+</text>
<text text-anchor="start" x="52" y="-81.5" font-family="Helvetica,sans-Serif" font-size="10.00">Deallocator()</text>
<text text-anchor="start" x="21.5" y="-66.5" font-family="Helvetica,sans-Serif" font-size="10.00">+</text>
<text text-anchor="start" x="52" y="-66.5" font-family="Helvetica,sans-Serif" font-size="10.00">operator=()</text>
<text text-anchor="start" x="21.5" y="-51.5" font-family="Helvetica,sans-Serif" font-size="10.00">+</text>
<text text-anchor="start" x="52" y="-51.5" font-family="Helvetica,sans-Serif" font-size="10.00">Deallocator()</text>
<text text-anchor="start" x="21.5" y="-36.5" font-family="Helvetica,sans-Serif" font-size="10.00">+</text>
<text text-anchor="start" x="52" y="-36.5" font-family="Helvetica,sans-Serif" font-size="10.00">operator=()</text>
<text text-anchor="start" x="21.5" y="-21.5" font-family="Helvetica,sans-Serif" font-size="10.00">+</text>
<text text-anchor="start" x="52" y="-21.5" font-family="Helvetica,sans-Serif" font-size="10.00">release()</text>
<text text-anchor="start" x="21.5" y="-6.5" font-family="Helvetica,sans-Serif" font-size="10.00">+</text>
<text text-anchor="start" x="52" y="-6.5" font-family="Helvetica,sans-Serif" font-size="10.00">~Deallocator()</text>
<polygon fill="#666666" stroke="#666666" points="0,-121.5 0,-121.5 164,-121.5 164,-121.5 0,-121.5"/>
<polygon fill="#666666" stroke="#666666" points="0,-106.5 0,-106.5 164,-106.5 164,-106.5 0,-106.5"/>
<polygon fill="none" stroke="#666666" points="0,0 0,-161 164,-161 164,0 0,0"/>
</a>
</g>
</g>
<!-- Node2 -->
<g id="Node000002" class="node">
<title>Node2</title>
<g id="a_Node000002"><a xlink:href="classguanaqo_1_1TypeErased.html" target="_top" xlink:title="Class for polymorphism through type erasure.">
<polygon fill="white" stroke="transparent" points="159,-1001 5,-1001 5,-214 159,-214 159,-1001"/>
<text text-anchor="start" x="30" y="-988.5" font-family="Helvetica,sans-Serif" font-size="10.00">guanaqo::TypeErased</text>
<text text-anchor="start" x="30" y="-977.5" font-family="Helvetica,sans-Serif" font-size="10.00">&lt; VTable, Allocator,</text>
<text text-anchor="start" x="36" y="-966.5" font-family="Helvetica,sans-Serif" font-size="10.00"> SmallBufferSize &gt;</text>
<text text-anchor="start" x="9" y="-951.5" font-family="Helvetica,sans-Serif" font-size="10.00">+</text>
<text text-anchor="start" x="22" y="-951.5" font-family="Helvetica,sans-Serif" font-size="10.00">small_buffer_size</text>
<text text-anchor="start" x="9" y="-936.5" font-family="Helvetica,sans-Serif" font-size="10.00">#</text>
<text text-anchor="start" x="22" y="-936.5" font-family="Helvetica,sans-Serif" font-size="10.00">self</text>
<text text-anchor="start" x="9" y="-921.5" font-family="Helvetica,sans-Serif" font-size="10.00">#</text>
<text text-anchor="start" x="22" y="-921.5" font-family="Helvetica,sans-Serif" font-size="10.00">size</text>
<text text-anchor="start" x="9" y="-906.5" font-family="Helvetica,sans-Serif" font-size="10.00">#</text>
<text text-anchor="start" x="22" y="-906.5" font-family="Helvetica,sans-Serif" font-size="10.00">invalid_size</text>
<text text-anchor="start" x="9" y="-891.5" font-family="Helvetica,sans-Serif" font-size="10.00">#</text>
<text text-anchor="start" x="22" y="-891.5" font-family="Helvetica,sans-Serif" font-size="10.00">mut_ref_size</text>
<text text-anchor="start" x="9" y="-876.5" font-family="Helvetica,sans-Serif" font-size="10.00">#</text>
<text text-anchor="start" x="22" y="-876.5" font-family="Helvetica,sans-Serif" font-size="10.00">const_ref_size</text>
<text text-anchor="start" x="11.5" y="-861.5" font-family="Helvetica,sans-Serif" font-size="10.00">&#45;</text>
<text text-anchor="start" x="22" y="-861.5" font-family="Helvetica,sans-Serif" font-size="10.00">small_buffer</text>
<text text-anchor="start" x="11.5" y="-846.5" font-family="Helvetica,sans-Serif" font-size="10.00">&#45;</text>
<text text-anchor="start" x="22" y="-846.5" font-family="Helvetica,sans-Serif" font-size="10.00">allocator</text>
<text text-anchor="start" x="11.5" y="-831.5" font-family="Helvetica,sans-Serif" font-size="10.00">&#45;</text>
<text text-anchor="start" x="22" y="-831.5" font-family="Helvetica,sans-Serif" font-size="10.00">no_child_of_ours</text>
<text text-anchor="start" x="9" y="-816.5" font-family="Helvetica,sans-Serif" font-size="10.00">+</text>
<text text-anchor="start" x="22" y="-816.5" font-family="Helvetica,sans-Serif" font-size="10.00">TypeErased()</text>
<text text-anchor="start" x="9" y="-801.5" font-family="Helvetica,sans-Serif" font-size="10.00">+</text>
<text text-anchor="start" x="22" y="-801.5" font-family="Helvetica,sans-Serif" font-size="10.00">TypeErased()</text>
<text text-anchor="start" x="9" y="-786.5" font-family="Helvetica,sans-Serif" font-size="10.00">+</text>
<text text-anchor="start" x="22" y="-786.5" font-family="Helvetica,sans-Serif" font-size="10.00">TypeErased()</text>
<text text-anchor="start" x="9" y="-771.5" font-family="Helvetica,sans-Serif" font-size="10.00">+</text>
<text text-anchor="start" x="22" y="-771.5" font-family="Helvetica,sans-Serif" font-size="10.00">TypeErased()</text>
<text text-anchor="start" x="9" y="-756.5" font-family="Helvetica,sans-Serif" font-size="10.00">+</text>
<text text-anchor="start" x="22" y="-756.5" font-family="Helvetica,sans-Serif" font-size="10.00">TypeErased()</text>
<text text-anchor="start" x="9" y="-741.5" font-family="Helvetica,sans-Serif" font-size="10.00">+</text>
<text text-anchor="start" x="22" y="-741.5" font-family="Helvetica,sans-Serif" font-size="10.00">operator=()</text>
<text text-anchor="start" x="9" y="-726.5" font-family="Helvetica,sans-Serif" font-size="10.00">+</text>
<text text-anchor="start" x="22" y="-726.5" font-family="Helvetica,sans-Serif" font-size="10.00">TypeErased()</text>
<text text-anchor="start" x="9" y="-711.5" font-family="Helvetica,sans-Serif" font-size="10.00">+</text>
<text text-anchor="start" x="22" y="-711.5" font-family="Helvetica,sans-Serif" font-size="10.00">TypeErased()</text>
<text text-anchor="start" x="9" y="-696.5" font-family="Helvetica,sans-Serif" font-size="10.00">+</text>
<text text-anchor="start" x="22" y="-696.5" font-family="Helvetica,sans-Serif" font-size="10.00">TypeErased()</text>
<text text-anchor="start" x="9" y="-681.5" font-family="Helvetica,sans-Serif" font-size="10.00">+</text>
<text text-anchor="start" x="22" y="-681.5" font-family="Helvetica,sans-Serif" font-size="10.00">operator=()</text>
<text text-anchor="start" x="9" y="-666.5" font-family="Helvetica,sans-Serif" font-size="10.00">+</text>
<text text-anchor="start" x="22" y="-666.5" font-family="Helvetica,sans-Serif" font-size="10.00">~TypeErased()</text>
<text text-anchor="start" x="9" y="-651.5" font-family="Helvetica,sans-Serif" font-size="10.00">+</text>
<text text-anchor="start" x="22" y="-651.5" font-family="Helvetica,sans-Serif" font-size="10.00">TypeErased()</text>
<text text-anchor="start" x="9" y="-636.5" font-family="Helvetica,sans-Serif" font-size="10.00">+</text>
<text text-anchor="start" x="22" y="-636.5" font-family="Helvetica,sans-Serif" font-size="10.00">TypeErased()</text>
<text text-anchor="start" x="9" y="-621.5" font-family="Helvetica,sans-Serif" font-size="10.00">+</text>
<text text-anchor="start" x="22" y="-621.5" font-family="Helvetica,sans-Serif" font-size="10.00">TypeErased()</text>
<text text-anchor="start" x="9" y="-606.5" font-family="Helvetica,sans-Serif" font-size="10.00">+</text>
<text text-anchor="start" x="22" y="-606.5" font-family="Helvetica,sans-Serif" font-size="10.00">TypeErased()</text>
<text text-anchor="start" x="9" y="-591.5" font-family="Helvetica,sans-Serif" font-size="10.00">+</text>
<text text-anchor="start" x="22" y="-591.5" font-family="Helvetica,sans-Serif" font-size="10.00">operator bool()</text>
<text text-anchor="start" x="9" y="-576.5" font-family="Helvetica,sans-Serif" font-size="10.00">+</text>
<text text-anchor="start" x="22" y="-576.5" font-family="Helvetica,sans-Serif" font-size="10.00">owns_referenced_object()</text>
<text text-anchor="start" x="9" y="-561.5" font-family="Helvetica,sans-Serif" font-size="10.00">+</text>
<text text-anchor="start" x="22" y="-561.5" font-family="Helvetica,sans-Serif" font-size="10.00">referenced_object_is</text>
<text text-anchor="start" x="22" y="-550.5" font-family="Helvetica,sans-Serif" font-size="10.00">_const()</text>
<text text-anchor="start" x="9" y="-535.5" font-family="Helvetica,sans-Serif" font-size="10.00">+</text>
<text text-anchor="start" x="22" y="-535.5" font-family="Helvetica,sans-Serif" font-size="10.00">get_allocator()</text>
<text text-anchor="start" x="9" y="-520.5" font-family="Helvetica,sans-Serif" font-size="10.00">+</text>
<text text-anchor="start" x="22" y="-520.5" font-family="Helvetica,sans-Serif" font-size="10.00">type()</text>
<text text-anchor="start" x="9" y="-505.5" font-family="Helvetica,sans-Serif" font-size="10.00">+</text>
<text text-anchor="start" x="22" y="-505.5" font-family="Helvetica,sans-Serif" font-size="10.00">as()</text>
<text text-anchor="start" x="9" y="-490.5" font-family="Helvetica,sans-Serif" font-size="10.00">+</text>
<text text-anchor="start" x="22" y="-490.5" font-family="Helvetica,sans-Serif" font-size="10.00">as()</text>
<text text-anchor="start" x="9" y="-475.5" font-family="Helvetica,sans-Serif" font-size="10.00">+</text>
<text text-anchor="start" x="22" y="-475.5" font-family="Helvetica,sans-Serif" font-size="10.00">as()</text>
<text text-anchor="start" x="9" y="-460.5" font-family="Helvetica,sans-Serif" font-size="10.00">+</text>
<text text-anchor="start" x="22" y="-460.5" font-family="Helvetica,sans-Serif" font-size="10.00">get_pointer()</text>
<text text-anchor="start" x="9" y="-445.5" font-family="Helvetica,sans-Serif" font-size="10.00">+</text>
<text text-anchor="start" x="22" y="-445.5" font-family="Helvetica,sans-Serif" font-size="10.00">get_const_pointer()</text>
<text text-anchor="start" x="9" y="-430.5" font-family="Helvetica,sans-Serif" font-size="10.00">+</text>
<text text-anchor="start" x="22" y="-430.5" font-family="Helvetica,sans-Serif" font-size="10.00">make()</text>
<text text-anchor="start" x="9" y="-415.5" font-family="Helvetica,sans-Serif" font-size="10.00">+</text>
<text text-anchor="start" x="22" y="-415.5" font-family="Helvetica,sans-Serif" font-size="10.00">make()</text>
<text text-anchor="start" x="9" y="-400.5" font-family="Helvetica,sans-Serif" font-size="10.00">#</text>
<text text-anchor="start" x="22" y="-400.5" font-family="Helvetica,sans-Serif" font-size="10.00">construct_inplace()</text>
<text text-anchor="start" x="9" y="-385.5" font-family="Helvetica,sans-Serif" font-size="10.00">#</text>
<text text-anchor="start" x="22" y="-385.5" font-family="Helvetica,sans-Serif" font-size="10.00">call()</text>
<text text-anchor="start" x="9" y="-370.5" font-family="Helvetica,sans-Serif" font-size="10.00">#</text>
<text text-anchor="start" x="22" y="-370.5" font-family="Helvetica,sans-Serif" font-size="10.00">call()</text>
<text text-anchor="start" x="9" y="-355.5" font-family="Helvetica,sans-Serif" font-size="10.00">#</text>
<text text-anchor="start" x="22" y="-355.5" font-family="Helvetica,sans-Serif" font-size="10.00">call()</text>
<text text-anchor="start" x="9" y="-340.5" font-family="Helvetica,sans-Serif" font-size="10.00">#</text>
<text text-anchor="start" x="22" y="-340.5" font-family="Helvetica,sans-Serif" font-size="10.00">call()</text>
<text text-anchor="start" x="9" y="-325.5" font-family="Helvetica,sans-Serif" font-size="10.00">#</text>
<text text-anchor="start" x="22" y="-325.5" font-family="Helvetica,sans-Serif" font-size="10.00">call()</text>
<text text-anchor="start" x="9" y="-310.5" font-family="Helvetica,sans-Serif" font-size="10.00">#</text>
<text text-anchor="start" x="22" y="-310.5" font-family="Helvetica,sans-Serif" font-size="10.00">call()</text>
<text text-anchor="start" x="9" y="-295.5" font-family="Helvetica,sans-Serif" font-size="10.00">#</text>
<text text-anchor="start" x="22" y="-295.5" font-family="Helvetica,sans-Serif" font-size="10.00">size_indicates_ownership()</text>
<text text-anchor="start" x="9" y="-280.5" font-family="Helvetica,sans-Serif" font-size="10.00">#</text>
<text text-anchor="start" x="22" y="-280.5" font-family="Helvetica,sans-Serif" font-size="10.00">size_indicates_const()</text>
<text text-anchor="start" x="11.5" y="-265.5" font-family="Helvetica,sans-Serif" font-size="10.00">&#45;</text>
<text text-anchor="start" x="22" y="-265.5" font-family="Helvetica,sans-Serif" font-size="10.00">allocate()</text>
<text text-anchor="start" x="11.5" y="-250.5" font-family="Helvetica,sans-Serif" font-size="10.00">&#45;</text>
<text text-anchor="start" x="22" y="-250.5" font-family="Helvetica,sans-Serif" font-size="10.00">deallocate()</text>
<text text-anchor="start" x="11.5" y="-235.5" font-family="Helvetica,sans-Serif" font-size="10.00">&#45;</text>
<text text-anchor="start" x="22" y="-235.5" font-family="Helvetica,sans-Serif" font-size="10.00">cleanup()</text>
<text text-anchor="start" x="11.5" y="-220.5" font-family="Helvetica,sans-Serif" font-size="10.00">&#45;</text>
<text text-anchor="start" x="22" y="-220.5" font-family="Helvetica,sans-Serif" font-size="10.00">do_copy_assign()</text>
<polygon fill="#666666" stroke="#666666" points="5,-961.5 5,-961.5 159,-961.5 159,-961.5 5,-961.5"/>
<polygon fill="#666666" stroke="#666666" points="5,-826.5 5,-826.5 20,-826.5 20,-826.5 5,-826.5"/>
<polygon fill="#666666" stroke="#666666" points="20,-826.5 20,-826.5 159,-826.5 159,-826.5 20,-826.5"/>
<polygon fill="none" stroke="#666666" points="5,-214 5,-1001 159,-1001 159,-214 5,-214"/>
</a>
</g>
</g>
<!-- Node2&#45;&gt;Node1 -->
<g id="edge1_Node000001_Node000002" class="edge">
<title>Node2&#45;&gt;Node1</title>
<g id="a_edge1_Node000001_Node000002"><a xlink:title=" ">
<path fill="none" stroke="#63b8ff" d="M82,-213.98C82,-199.74 82,-186.18 82,-173.55"/>
<polygon fill="none" stroke="#63b8ff" points="82,-173.24 78,-167.24 82,-161.24 86,-167.24 82,-173.24"/>
</a>
</g>
<text text-anchor="start" x="85" y="-184.5" font-family="Helvetica,sans-Serif" font-size="10.00" fill="grey">+instance</text>
</g>
<!-- Node3 -->
<g id="Node000003" class="node">
<title>Node3</title>
<g id="a_Node000003"><a xlink:href="structguanaqo_1_1BasicVTable.html" target="_top" xlink:title="Struct that stores pointers to functions to copy, move or destroy a polymorphic object.">
<polygon fill="white" stroke="transparent" points="140.5,-1163 23.5,-1163 23.5,-1054 140.5,-1054 140.5,-1163"/>
<text text-anchor="start" x="29" y="-1150.5" font-family="Helvetica,sans-Serif" font-size="10.00">guanaqo::BasicVTable</text>
<text text-anchor="start" x="35" y="-1135.5" font-family="Helvetica,sans-Serif" font-size="10.00">+</text>
<text text-anchor="start" x="55" y="-1135.5" font-family="Helvetica,sans-Serif" font-size="10.00">type</text>
<text text-anchor="start" x="35" y="-1120.5" font-family="Helvetica,sans-Serif" font-size="10.00">+</text>
<text text-anchor="start" x="55" y="-1120.5" font-family="Helvetica,sans-Serif" font-size="10.00">BasicVTable()</text>
<text text-anchor="start" x="35" y="-1105.5" font-family="Helvetica,sans-Serif" font-size="10.00">+</text>
<text text-anchor="start" x="55" y="-1105.5" font-family="Helvetica,sans-Serif" font-size="10.00">BasicVTable()</text>
<text text-anchor="start" x="35" y="-1090.5" font-family="Helvetica,sans-Serif" font-size="10.00">+</text>
<text text-anchor="start" x="55" y="-1090.5" font-family="Helvetica,sans-Serif" font-size="10.00">copy()</text>
<text text-anchor="start" x="35" y="-1075.5" font-family="Helvetica,sans-Serif" font-size="10.00">+</text>
<text text-anchor="start" x="55" y="-1075.5" font-family="Helvetica,sans-Serif" font-size="10.00">move()</text>
<text text-anchor="start" x="35" y="-1060.5" font-family="Helvetica,sans-Serif" font-size="10.00">+</text>
<text text-anchor="start" x="55" y="-1060.5" font-family="Helvetica,sans-Serif" font-size="10.00">destroy()</text>
<polygon fill="#666666" stroke="#666666" points="24,-1145.5 24,-1145.5 141,-1145.5 141,-1145.5 24,-1145.5"/>
<polygon fill="#666666" stroke="#666666" points="24,-1130.5 24,-1130.5 53,-1130.5 53,-1130.5 24,-1130.5"/>
<polygon fill="#666666" stroke="#666666" points="53,-1130.5 53,-1130.5 141,-1130.5 141,-1130.5 53,-1130.5"/>
<polygon fill="none" stroke="#666666" points="23.5,-1054 23.5,-1163 140.5,-1163 140.5,-1054 23.5,-1054"/>
</a>
</g>
</g>
<!-- Node3&#45;&gt;Node2 -->
<g id="edge2_Node000002_Node000003" class="edge">
<title>Node3&#45;&gt;Node2</title>
<g id="a_edge2_Node000002_Node000003"><a xlink:title=" ">
<path fill="none" stroke="#63b8ff" d="M82,-1053.62C82,-1041.69 82,-1028.16 82,-1013.43"/>
<polygon fill="none" stroke="#63b8ff" points="82,-1013.36 78,-1007.36 82,-1001.36 86,-1007.36 82,-1013.36"/>
</a>
</g>
<text text-anchor="start" x="85" y="-1024.5" font-family="Helvetica,sans-Serif" font-size="10.00" fill="grey">#vtable</text>
</g>
<!-- Node4 -->
<g id="Node000004" class="node">
<title>Node4</title>
<g id="a_Node000004"><a xlink:href="group__type__erasure.html#structguanaqo_1_1CopyMoveDestroyVTable" target="_top" xlink:title=" ">
<polygon fill="white" stroke="transparent" points="156.5,-1321 7.5,-1321 7.5,-1231 156.5,-1231 156.5,-1321"/>
<text text-anchor="start" x="13" y="-1309" font-family="Helvetica,sans-Serif" font-size="10.00">guanaqo::CopyMoveDestroy</text>
<text text-anchor="start" x="66" y="-1298" font-family="Helvetica,sans-Serif" font-size="10.00">VTable</text>
<text text-anchor="start" x="34.5" y="-1283" font-family="Helvetica,sans-Serif" font-size="10.00">+</text>
<text text-anchor="start" x="70" y="-1283" font-family="Helvetica,sans-Serif" font-size="10.00">copy</text>
<text text-anchor="start" x="34.5" y="-1268" font-family="Helvetica,sans-Serif" font-size="10.00">+</text>
<text text-anchor="start" x="70" y="-1268" font-family="Helvetica,sans-Serif" font-size="10.00">move</text>
<text text-anchor="start" x="34.5" y="-1253" font-family="Helvetica,sans-Serif" font-size="10.00">+</text>
<text text-anchor="start" x="70" y="-1253" font-family="Helvetica,sans-Serif" font-size="10.00">destroy</text>
<text text-anchor="start" x="80.5" y="-1238" font-family="Helvetica,sans-Serif" font-size="10.00"> </text>
<polygon fill="#666666" stroke="#666666" points="8,-1293 8,-1293 157,-1293 157,-1293 8,-1293"/>
<polygon fill="#666666" stroke="#666666" points="8,-1248 8,-1248 68,-1248 68,-1248 8,-1248"/>
<polygon fill="#666666" stroke="#666666" points="68,-1248 68,-1248 157,-1248 157,-1248 68,-1248"/>
<polygon fill="none" stroke="#666666" points="7.5,-1231 7.5,-1321 156.5,-1321 156.5,-1231 7.5,-1231"/>
</a>
</g>
</g>
<!-- Node4&#45;&gt;Node3 -->
<g id="edge3_Node000003_Node000004" class="edge">
<title>Node4&#45;&gt;Node3</title>
<g id="a_edge3_Node000003_Node000004"><a xlink:title=" ">
<path fill="none" stroke="#63b8ff" d="M82,-1230.65C82,-1213.61 82,-1193.77 82,-1175.14"/>
<polygon fill="none" stroke="#63b8ff" points="82,-1175.12 78,-1169.12 82,-1163.12 86,-1169.12 82,-1175.12"/>
</a>
</g>
<text text-anchor="start" x="85.5" y="-1202" font-family="Helvetica,sans-Serif" font-size="10.00" fill="grey">+copy_move_destroy</text>
<text text-anchor="start" x="85.5" y="-1187" font-family="Helvetica,sans-Serif" font-size="10.00" fill="grey">  _functions</text>
</g>
</g>
</svg>

<g id="navigator" transform="translate(0 0)" fill="#404254">
  <rect fill="#f2f5e9" fill-opacity="0.5" stroke="#606060" stroke-width=".5" x="0" y="0" width="60" height="60"/>
  <use id="zoomplus" xlink:href="#zoomPlus" x="17" y="9" onmousedown="handleZoom(evt,'in')"/>
  <use id="zoomminus" xlink:href="#zoomMin" x="42" y="9" onmousedown="handleZoom(evt,'out')"/>
  <use id="reset" xlink:href="#resetDef" x="30" y="36" onmousedown="handleReset()"/>
   <use id="arrowup" xlink:href="#arrowUp" x="0" y="0" onmousedown="handlePan(0,-1)"/>
  <use id="arrowright" xlink:href="#arrowRight" x="0" y="0" onmousedown="handlePan(1,0)"/>
  <use id="arrowdown" xlink:href="#arrowDown" x="0" y="0" onmousedown="handlePan(0,1)"/>
  <use id="arrowleft" xlink:href="#arrowLeft" x="0" y="0" onmousedown="handlePan(-1,0)"/>
</g>
<svg viewBox="0 0 15 15" width="100%" height="30px" preserveAspectRatio="xMaxYMin meet">
 <g id="arrow_out" transform="scale(0.3 0.3)">
  <a xlink:href="structguanaqo_1_1TypeErased_1_1Deallocator__coll__graph_org.svg" target="_base">
   <rect id="button" ry="5" rx="5" y="6" x="6" height="38" width="38"
        fill="#f2f5e9" fill-opacity="0.5" stroke="#606060" stroke-width="1.0"/>
   <path id="arrow"
     d="M 11.500037,31.436501 C 11.940474,20.09759 22.043105,11.32322 32.158766,21.979434 L 37.068811,17.246167 C 37.068811,17.246167 37.088388,32 37.088388,32 L 22.160133,31.978069 C 22.160133,31.978069 26.997745,27.140456 26.997745,27.140456 C 18.528582,18.264221 13.291696,25.230495 11.500037,31.436501 z"
     style="fill:#404040;"/>
  </a>
 </g>
</svg>

<style type='text/css'>
<![CDATA[
[data-mouse-over-selected='false'] { opacity: 0.7; }
[data-mouse-over-selected='true']  { opacity: 1.0; }
]]>
</style>
<script type="application/ecmascript"><![CDATA[
document.addEventListener('DOMContentLoaded', (event) => {
  highlightEdges();
  highlightAdjacentNodes();
});
]]></script>
</svg>
