<?xml version="1.0" encoding="UTF-8" standalone="no"?>
<!DOCTYPE svg PUBLIC "-//W3C//DTD SVG 1.1//EN"
 "http://www.w3.org/Graphics/SVG/1.1/DTD/svg11.dtd">
<!-- Generated by graphviz version 2.43.0 (0)
 -->
<!-- Title: src/trace.cpp Pages: 1 -->
<svg width="1309pt" height="247pt"
 viewBox="0.00 0.00 1308.50 247.00" xmlns="http://www.w3.org/2000/svg" xmlns:xlink="http://www.w3.org/1999/xlink">
<g id="graph0" class="graph" transform="scale(1 1) rotate(0) translate(4 243)">
<title>src/trace.cpp</title>
<!-- Node1 -->
<g id="Node000001" class="node">
<title>Node1</title>
<g id="a_Node000001"><a xlink:title=" ">
<polygon fill="#999999" stroke="#666666" points="943.5,-239 864.5,-239 864.5,-220 943.5,-220 943.5,-239"/>
<text text-anchor="middle" x="904" y="-227" font-family="Helvetica,sans-Serif" font-size="10.00">src/trace.cpp</text>
</a>
</g>
</g>
<!-- Node2 -->
<g id="Node000002" class="node">
<title>Node2</title>
<g id="a_Node000002"><a xlink:href="trace_8hpp.html" target="_top" xlink:title="Tracing logger and macros (ITT, Perfetto, or fallback).">
<polygon fill="white" stroke="#666666" points="840.5,-184 733.5,-184 733.5,-165 840.5,-165 840.5,-184"/>
<text text-anchor="middle" x="787" y="-172" font-family="Helvetica,sans-Serif" font-size="10.00">guanaqo/trace.hpp</text>
</a>
</g>
</g>
<!-- Node1&#45;&gt;Node2 -->
<g id="edge1_Node000001_Node000002" class="edge">
<title>Node1&#45;&gt;Node2</title>
<g id="a_edge1_Node000001_Node000002"><a xlink:title=" ">
<path fill="none" stroke="#63b8ff" d="M885.2,-219.98C866.38,-211.46 837.18,-198.23 815.5,-188.41"/>
<polygon fill="#63b8ff" stroke="#63b8ff" points="816.69,-185.11 806.14,-184.17 813.8,-191.48 816.69,-185.11"/>
</a>
</g>
</g>
<!-- Node20 -->
<g id="Node000020" class="node">
<title>Node20</title>
<g id="a_Node000020"><a xlink:title=" ">
<polygon fill="#e0e0e0" stroke="#999999" points="891,-184 859,-184 859,-165 891,-165 891,-184"/>
<text text-anchor="middle" x="875" y="-172" font-family="Helvetica,sans-Serif" font-size="10.00">list</text>
</a>
</g>
</g>
<!-- Node1&#45;&gt;Node20 -->
<g id="edge25_Node000001_Node000020" class="edge">
<title>Node1&#45;&gt;Node20</title>
<g id="a_edge25_Node000001_Node000020"><a xlink:title=" ">
<path fill="none" stroke="#63b8ff" d="M899.21,-219.75C895.24,-212.49 889.47,-201.95 884.57,-192.98"/>
<polygon fill="#63b8ff" stroke="#63b8ff" points="887.57,-191.18 879.7,-184.09 881.43,-194.54 887.57,-191.18"/>
</a>
</g>
</g>
<!-- Node21 -->
<g id="Node000021" class="node">
<title>Node21</title>
<g id="a_Node000021"><a xlink:title=" ">
<polygon fill="#e0e0e0" stroke="#999999" points="957,-184 909,-184 909,-165 957,-165 957,-184"/>
<text text-anchor="middle" x="933" y="-172" font-family="Helvetica,sans-Serif" font-size="10.00">mutex</text>
</a>
</g>
</g>
<!-- Node1&#45;&gt;Node21 -->
<g id="edge26_Node000001_Node000021" class="edge">
<title>Node1&#45;&gt;Node21</title>
<g id="a_edge26_Node000001_Node000021"><a xlink:title=" ">
<path fill="none" stroke="#63b8ff" d="M908.79,-219.75C912.76,-212.49 918.53,-201.95 923.43,-192.98"/>
<polygon fill="#63b8ff" stroke="#63b8ff" points="926.57,-194.54 928.3,-184.09 920.43,-191.18 926.57,-194.54"/>
</a>
</g>
</g>
<!-- Node22 -->
<g id="Node000022" class="node">
<title>Node22</title>
<g id="a_Node000022"><a xlink:title=" ">
<polygon fill="#e0e0e0" stroke="#999999" points="1023,-184 975,-184 975,-165 1023,-165 1023,-184"/>
<text text-anchor="middle" x="999" y="-172" font-family="Helvetica,sans-Serif" font-size="10.00">thread</text>
</a>
</g>
</g>
<!-- Node1&#45;&gt;Node22 -->
<g id="edge27_Node000001_Node000022" class="edge">
<title>Node1&#45;&gt;Node22</title>
<g id="a_edge27_Node000001_Node000022"><a xlink:title=" ">
<path fill="none" stroke="#63b8ff" d="M919.26,-219.98C934.13,-211.69 956.98,-198.94 974.42,-189.22"/>
<polygon fill="#63b8ff" stroke="#63b8ff" points="976.43,-192.1 983.46,-184.17 973.02,-185.99 976.43,-192.1"/>
</a>
</g>
</g>
<!-- Node3 -->
<g id="Node000003" class="node">
<title>Node3</title>
<g id="a_Node000003"><a xlink:title=" ">
<polygon fill="#e0e0e0" stroke="#999999" points="102,-19 0,-19 0,0 102,0 102,-19"/>
<text text-anchor="middle" x="51" y="-7" font-family="Helvetica,sans-Serif" font-size="10.00">guanaqo/export.h</text>
</a>
</g>
</g>
<!-- Node2&#45;&gt;Node3 -->
<g id="edge2_Node000002_Node000003" class="edge">
<title>Node2&#45;&gt;Node3</title>
<g id="a_edge2_Node000002_Node000003"><a xlink:title=" ">
<path fill="none" stroke="#63b8ff" d="M733.31,-172.94C634.18,-171.08 416.11,-163.08 236,-129 152.97,-113.29 105.96,-140.64 54,-74 44.25,-61.5 44.5,-43.04 46.59,-29.24"/>
<polygon fill="#63b8ff" stroke="#63b8ff" points="50.04,-29.86 48.51,-19.38 43.17,-28.53 50.04,-29.86"/>
</a>
</g>
</g>
<!-- Node4 -->
<g id="Node000004" class="node">
<title>Node4</title>
<g id="a_Node000004"><a xlink:href="perfetto_2trace_8hpp.html" target="_top" xlink:title="Perfetto tracing macros and session helpers.">
<polygon fill="white" stroke="#666666" points="394.5,-129 245.5,-129 245.5,-110 394.5,-110 394.5,-129"/>
<text text-anchor="middle" x="320" y="-117" font-family="Helvetica,sans-Serif" font-size="10.00">guanaqo/perfetto/trace.hpp</text>
</a>
</g>
</g>
<!-- Node2&#45;&gt;Node4 -->
<g id="edge3_Node000002_Node000004" class="edge">
<title>Node2&#45;&gt;Node4</title>
<g id="a_edge3_Node000002_Node000004"><a xlink:title=" ">
<path fill="none" stroke="#63b8ff" d="M733.43,-167.42C653.1,-158.3 500.69,-141.01 405.05,-130.15"/>
<polygon fill="#63b8ff" stroke="#63b8ff" points="405.16,-126.64 394.83,-128.99 404.37,-133.6 405.16,-126.64"/>
</a>
</g>
</g>
<!-- Node5 -->
<g id="Node000005" class="node">
<title>Node5</title>
<g id="a_Node000005"><a xlink:href="preprocessor_8h.html" target="_top" xlink:title="Token concatenation and argument&#45;counting helpers.">
<polygon fill="white" stroke="#666666" points="548.5,-74 415.5,-74 415.5,-55 548.5,-55 548.5,-74"/>
<text text-anchor="middle" x="482" y="-62" font-family="Helvetica,sans-Serif" font-size="10.00">guanaqo/preprocessor.h</text>
</a>
</g>
</g>
<!-- Node2&#45;&gt;Node5 -->
<g id="edge13_Node000002_Node000005" class="edge">
<title>Node2&#45;&gt;Node5</title>
<g id="a_edge13_Node000002_Node000005"><a xlink:title=" ">
<path fill="none" stroke="#63b8ff" d="M733.25,-169.89C686.47,-165.12 617.77,-154.15 563,-129 537.52,-117.3 512.84,-96.08 497.55,-81.41"/>
<polygon fill="#63b8ff" stroke="#63b8ff" points="499.66,-78.57 490.08,-74.04 494.74,-83.55 499.66,-78.57"/>
</a>
</g>
</g>
<!-- Node7 -->
<g id="Node000007" class="node">
<title>Node7</title>
<g id="a_Node000007"><a xlink:title=" ">
<polygon fill="#e0e0e0" stroke="#999999" points="223,-19 173,-19 173,0 223,0 223,-19"/>
<text text-anchor="middle" x="198" y="-7" font-family="Helvetica,sans-Serif" font-size="10.00">cstdint</text>
</a>
</g>
</g>
<!-- Node2&#45;&gt;Node7 -->
<g id="edge22_Node000002_Node000007" class="edge">
<title>Node2&#45;&gt;Node7</title>
<g id="a_edge22_Node000002_Node000007"><a xlink:title=" ">
<path fill="none" stroke="#63b8ff" d="M733.4,-165.18C701.99,-158.66 662.44,-147.49 631,-129 590.91,-105.42 598.79,-75.41 557,-55 500.48,-27.39 312.58,-15.74 233.53,-11.98"/>
<polygon fill="#63b8ff" stroke="#63b8ff" points="233.27,-8.47 223.12,-11.5 232.95,-15.46 233.27,-8.47"/>
</a>
</g>
</g>
<!-- Node8 -->
<g id="Node000008" class="node">
<title>Node8</title>
<g id="a_Node000008"><a xlink:title=" ">
<polygon fill="#e0e0e0" stroke="#999999" points="478,-19 420,-19 420,0 478,0 478,-19"/>
<text text-anchor="middle" x="449" y="-7" font-family="Helvetica,sans-Serif" font-size="10.00">memory</text>
</a>
</g>
</g>
<!-- Node2&#45;&gt;Node8 -->
<g id="edge17_Node000002_Node000008" class="edge">
<title>Node2&#45;&gt;Node8</title>
<g id="a_edge17_Node000002_Node000008"><a xlink:title=" ">
<path fill="none" stroke="#63b8ff" d="M744.34,-164.99C717.4,-158.23 682.77,-146.87 656,-129 619.6,-104.69 627.69,-78.88 591,-55 559.62,-34.58 518.26,-23.02 488.28,-16.83"/>
<polygon fill="#63b8ff" stroke="#63b8ff" points="488.67,-13.34 478.19,-14.86 487.33,-20.21 488.67,-13.34"/>
</a>
</g>
</g>
<!-- Node9 -->
<g id="Node000009" class="node">
<title>Node9</title>
<g id="a_Node000009"><a xlink:title=" ">
<polygon fill="#e0e0e0" stroke="#999999" points="630.5,-19 585.5,-19 585.5,0 630.5,0 630.5,-19"/>
<text text-anchor="middle" x="608" y="-7" font-family="Helvetica,sans-Serif" font-size="10.00">utility</text>
</a>
</g>
</g>
<!-- Node2&#45;&gt;Node9 -->
<g id="edge19_Node000002_Node000009" class="edge">
<title>Node2&#45;&gt;Node9</title>
<g id="a_edge19_Node000002_Node000009"><a xlink:title=" ">
<path fill="none" stroke="#63b8ff" d="M746.15,-164.94C722.6,-158.33 693.67,-147.16 673,-129 664.6,-121.63 632.72,-59.63 616.95,-28.37"/>
<polygon fill="#63b8ff" stroke="#63b8ff" points="619.89,-26.43 612.27,-19.07 613.64,-29.58 619.89,-26.43"/>
</a>
</g>
</g>
<!-- Node12 -->
<g id="Node000012" class="node">
<title>Node12</title>
<g id="a_Node000012"><a xlink:href="stringify_8h.html" target="_top" xlink:title="Stringify and token concatenation helpers.">
<polygon fill="white" stroke="#666666" points="790.5,-129 681.5,-129 681.5,-110 790.5,-110 790.5,-129"/>
<text text-anchor="middle" x="736" y="-117" font-family="Helvetica,sans-Serif" font-size="10.00">guanaqo/stringify.h</text>
</a>
</g>
</g>
<!-- Node2&#45;&gt;Node12 -->
<g id="edge14_Node000002_Node000012" class="edge">
<title>Node2&#45;&gt;Node12</title>
<g id="a_edge14_Node000002_Node000012"><a xlink:title=" ">
<path fill="none" stroke="#63b8ff" d="M778.58,-164.75C771.23,-157.11 760.37,-145.82 751.46,-136.56"/>
<polygon fill="#63b8ff" stroke="#63b8ff" points="753.72,-133.87 744.26,-129.09 748.68,-138.72 753.72,-133.87"/>
</a>
</g>
</g>
<!-- Node13 -->
<g id="Node000013" class="node">
<title>Node13</title>
<g id="a_Node000013"><a xlink:title=" ">
<polygon fill="#e0e0e0" stroke="#999999" points="869,-129 809,-129 809,-110 869,-110 869,-129"/>
<text text-anchor="middle" x="839" y="-117" font-family="Helvetica,sans-Serif" font-size="10.00">concepts</text>
</a>
</g>
</g>
<!-- Node2&#45;&gt;Node13 -->
<g id="edge15_Node000002_Node000013" class="edge">
<title>Node2&#45;&gt;Node13</title>
<g id="a_edge15_Node000002_Node000013"><a xlink:title=" ">
<path fill="none" stroke="#63b8ff" d="M795.59,-164.75C803.16,-157.03 814.38,-145.6 823.51,-136.28"/>
<polygon fill="#63b8ff" stroke="#63b8ff" points="826.07,-138.68 830.57,-129.09 821.07,-133.78 826.07,-138.68"/>
</a>
</g>
</g>
<!-- Node14 -->
<g id="Node000014" class="node">
<title>Node14</title>
<g id="a_Node000014"><a xlink:title=" ">
<polygon fill="#e0e0e0" stroke="#999999" points="952.5,-129 887.5,-129 887.5,-110 952.5,-110 952.5,-129"/>
<text text-anchor="middle" x="920" y="-117" font-family="Helvetica,sans-Serif" font-size="10.00">functional</text>
</a>
</g>
</g>
<!-- Node2&#45;&gt;Node14 -->
<g id="edge16_Node000002_Node000014" class="edge">
<title>Node2&#45;&gt;Node14</title>
<g id="a_edge16_Node000002_Node000014"><a xlink:title=" ">
<path fill="none" stroke="#63b8ff" d="M808.37,-164.98C830.15,-156.3 864.16,-142.75 888.92,-132.88"/>
<polygon fill="#63b8ff" stroke="#63b8ff" points="890.25,-136.12 898.24,-129.17 887.66,-129.62 890.25,-136.12"/>
</a>
</g>
</g>
<!-- Node15 -->
<g id="Node000015" class="node">
<title>Node15</title>
<g id="a_Node000015"><a xlink:title=" ">
<polygon fill="#e0e0e0" stroke="#999999" points="1011,-129 971,-129 971,-110 1011,-110 1011,-129"/>
<text text-anchor="middle" x="991" y="-117" font-family="Helvetica,sans-Serif" font-size="10.00">span</text>
</a>
</g>
</g>
<!-- Node2&#45;&gt;Node15 -->
<g id="edge18_Node000002_Node000015" class="edge">
<title>Node2&#45;&gt;Node15</title>
<g id="a_edge18_Node000002_Node000015"><a xlink:title=" ">
<path fill="none" stroke="#63b8ff" d="M822.29,-164.92C855.7,-156.72 907.49,-143.77 961.08,-129.18"/>
<polygon fill="#63b8ff" stroke="#63b8ff" points="962.02,-132.55 970.75,-126.54 960.18,-125.8 962.02,-132.55"/>
</a>
</g>
</g>
<!-- Node16 -->
<g id="Node000016" class="node">
<title>Node16</title>
<g id="a_Node000016"><a xlink:title=" ">
<polygon fill="#e0e0e0" stroke="#999999" points="1079,-129 1029,-129 1029,-110 1079,-110 1079,-129"/>
<text text-anchor="middle" x="1054" y="-117" font-family="Helvetica,sans-Serif" font-size="10.00">chrono</text>
</a>
</g>
</g>
<!-- Node2&#45;&gt;Node16 -->
<g id="edge20_Node000002_Node000016" class="edge">
<title>Node2&#45;&gt;Node16</title>
<g id="a_edge20_Node000002_Node000016"><a xlink:title=" ">
<path fill="none" stroke="#63b8ff" d="M836.26,-164.92C881.31,-156.89 950.04,-144.17 1018.66,-129.2"/>
<polygon fill="#63b8ff" stroke="#63b8ff" points="1019.77,-132.54 1028.79,-126.97 1018.27,-125.7 1019.77,-132.54"/>
</a>
</g>
</g>
<!-- Node17 -->
<g id="Node000017" class="node">
<title>Node17</title>
<g id="a_Node000017"><a xlink:title=" ">
<polygon fill="#e0e0e0" stroke="#999999" points="1150.5,-129 1097.5,-129 1097.5,-110 1150.5,-110 1150.5,-129"/>
<text text-anchor="middle" x="1124" y="-117" font-family="Helvetica,sans-Serif" font-size="10.00">cstddef</text>
</a>
</g>
</g>
<!-- Node2&#45;&gt;Node17 -->
<g id="edge21_Node000002_Node000017" class="edge">
<title>Node2&#45;&gt;Node17</title>
<g id="a_edge21_Node000002_Node000017"><a xlink:title=" ">
<path fill="none" stroke="#63b8ff" d="M840.63,-166.13C909.83,-156.53 1027.46,-139.88 1087.21,-128.97"/>
<polygon fill="#63b8ff" stroke="#63b8ff" points="1088.14,-132.35 1097.32,-127.07 1086.84,-125.48 1088.14,-132.35"/>
</a>
</g>
</g>
<!-- Node18 -->
<g id="Node000018" class="node">
<title>Node18</title>
<g id="a_Node000018"><a xlink:title=" ">
<polygon fill="#e0e0e0" stroke="#999999" points="1225,-129 1169,-129 1169,-110 1225,-110 1225,-129"/>
<text text-anchor="middle" x="1197" y="-117" font-family="Helvetica,sans-Serif" font-size="10.00">iomanip</text>
</a>
</g>
</g>
<!-- Node2&#45;&gt;Node18 -->
<g id="edge23_Node000002_Node000018" class="edge">
<title>Node2&#45;&gt;Node18</title>
<g id="a_edge23_Node000002_Node000018"><a xlink:title=" ">
<path fill="none" stroke="#63b8ff" d="M840.61,-166.2C843.78,-165.79 846.93,-165.38 850,-165 984.4,-148.13 1021.58,-152.35 1158.73,-129.05"/>
<polygon fill="#63b8ff" stroke="#63b8ff" points="1159.52,-132.46 1168.78,-127.32 1158.33,-125.56 1159.52,-132.46"/>
</a>
</g>
</g>
<!-- Node19 -->
<g id="Node000019" class="node">
<title>Node19</title>
<g id="a_Node000019"><a xlink:title=" ">
<polygon fill="#e0e0e0" stroke="#999999" points="1300.5,-129 1243.5,-129 1243.5,-110 1300.5,-110 1300.5,-129"/>
<text text-anchor="middle" x="1272" y="-117" font-family="Helvetica,sans-Serif" font-size="10.00">ostream</text>
</a>
</g>
</g>
<!-- Node2&#45;&gt;Node19 -->
<g id="edge24_Node000002_Node000019" class="edge">
<title>Node2&#45;&gt;Node19</title>
<g id="a_edge24_Node000002_Node000019"><a xlink:title=" ">
<path fill="none" stroke="#63b8ff" d="M840.6,-166.12C843.78,-165.73 846.93,-165.35 850,-165 1017.06,-145.91 1062.95,-155.38 1233.37,-128.88"/>
<polygon fill="#63b8ff" stroke="#63b8ff" points="1234.11,-132.31 1243.44,-127.3 1233.02,-125.39 1234.11,-132.31"/>
</a>
</g>
</g>
<!-- Node4&#45;&gt;Node3 -->
<g id="edge4_Node000004_Node000003" class="edge">
<title>Node4&#45;&gt;Node3</title>
<g id="a_edge4_Node000004_Node000003"><a xlink:title=" ">
<path fill="none" stroke="#63b8ff" d="M245.19,-113.9C180.81,-108.43 94.4,-96.96 69,-74 56.66,-62.84 52.53,-43.92 51.26,-29.62"/>
<polygon fill="#63b8ff" stroke="#63b8ff" points="54.74,-29.2 50.76,-19.39 47.75,-29.55 54.74,-29.2"/>
</a>
</g>
</g>
<!-- Node4&#45;&gt;Node5 -->
<g id="edge5_Node000004_Node000005" class="edge">
<title>Node4&#45;&gt;Node5</title>
<g id="a_edge5_Node000004_Node000005"><a xlink:title=" ">
<path fill="none" stroke="#63b8ff" d="M346.03,-109.98C373.11,-101.13 415.71,-87.19 446.01,-77.28"/>
<polygon fill="#63b8ff" stroke="#63b8ff" points="447.35,-80.52 455.77,-74.08 445.18,-73.87 447.35,-80.52"/>
</a>
</g>
</g>
<!-- Node6 -->
<g id="Node000006" class="node">
<title>Node6</title>
<g id="a_Node000006"><a xlink:href="counters_8hpp.html" target="_top" xlink:title="Performance counter snapshots and scoped collectors.">
<polygon fill="white" stroke="#666666" points="227.5,-74 78.5,-74 78.5,-55 227.5,-55 227.5,-74"/>
<text text-anchor="middle" x="153" y="-62" font-family="Helvetica,sans-Serif" font-size="10.00">guanaqo/pcm/counters.hpp</text>
</a>
</g>
</g>
<!-- Node4&#45;&gt;Node6 -->
<g id="edge6_Node000004_Node000006" class="edge">
<title>Node4&#45;&gt;Node6</title>
<g id="a_edge6_Node000004_Node000006"><a xlink:title=" ">
<path fill="none" stroke="#63b8ff" d="M293.17,-109.98C265.13,-101.09 220.95,-87.07 189.7,-77.15"/>
<polygon fill="#63b8ff" stroke="#63b8ff" points="190.63,-73.77 180.04,-74.08 188.51,-80.44 190.63,-73.77"/>
</a>
</g>
</g>
<!-- Node10 -->
<g id="Node000010" class="node">
<title>Node10</title>
<g id="a_Node000010"><a xlink:title=" ">
<polygon fill="#e0e0e0" stroke="#999999" points="310.5,-74 245.5,-74 245.5,-55 310.5,-55 310.5,-74"/>
<text text-anchor="middle" x="278" y="-62" font-family="Helvetica,sans-Serif" font-size="10.00">perfetto.h</text>
</a>
</g>
</g>
<!-- Node4&#45;&gt;Node10 -->
<g id="edge11_Node000004_Node000010" class="edge">
<title>Node4&#45;&gt;Node10</title>
<g id="a_edge11_Node000004_Node000010"><a xlink:title=" ">
<path fill="none" stroke="#63b8ff" d="M313.06,-109.75C307.13,-102.26 298.43,-91.28 291.18,-82.13"/>
<polygon fill="#63b8ff" stroke="#63b8ff" points="293.76,-79.75 284.81,-74.09 288.27,-84.1 293.76,-79.75"/>
</a>
</g>
</g>
<!-- Node11 -->
<g id="Node000011" class="node">
<title>Node11</title>
<g id="a_Node000011"><a xlink:title=" ">
<polygon fill="#e0e0e0" stroke="#999999" points="397,-74 329,-74 329,-55 397,-55 397,-74"/>
<text text-anchor="middle" x="363" y="-62" font-family="Helvetica,sans-Serif" font-size="10.00">filesystem</text>
</a>
</g>
</g>
<!-- Node4&#45;&gt;Node11 -->
<g id="edge12_Node000004_Node000011" class="edge">
<title>Node4&#45;&gt;Node11</title>
<g id="a_edge12_Node000004_Node000011"><a xlink:title=" ">
<path fill="none" stroke="#63b8ff" d="M327.1,-109.75C333.17,-102.26 342.09,-91.28 349.51,-82.13"/>
<polygon fill="#63b8ff" stroke="#63b8ff" points="352.45,-84.06 356.03,-74.09 347.01,-79.65 352.45,-84.06"/>
</a>
</g>
</g>
<!-- Node6&#45;&gt;Node3 -->
<g id="edge7_Node000006_Node000003" class="edge">
<title>Node6&#45;&gt;Node3</title>
<g id="a_edge7_Node000006_Node000003"><a xlink:title=" ">
<path fill="none" stroke="#63b8ff" d="M136.61,-54.98C120.43,-46.57 95.43,-33.59 76.62,-23.81"/>
<polygon fill="#63b8ff" stroke="#63b8ff" points="78.17,-20.68 67.69,-19.17 74.95,-26.89 78.17,-20.68"/>
</a>
</g>
</g>
<!-- Node6&#45;&gt;Node7 -->
<g id="edge8_Node000006_Node000007" class="edge">
<title>Node6&#45;&gt;Node7</title>
<g id="a_edge8_Node000006_Node000007"><a xlink:title=" ">
<path fill="none" stroke="#63b8ff" d="M160.43,-54.75C166.85,-47.18 176.31,-36.05 184.12,-26.84"/>
<polygon fill="#63b8ff" stroke="#63b8ff" points="186.9,-28.98 190.71,-19.09 181.57,-24.45 186.9,-28.98"/>
</a>
</g>
</g>
<!-- Node6&#45;&gt;Node8 -->
<g id="edge9_Node000006_Node000008" class="edge">
<title>Node6&#45;&gt;Node8</title>
<g id="a_edge9_Node000006_Node000008"><a xlink:title=" ">
<path fill="none" stroke="#63b8ff" d="M200.56,-54.98C258.74,-44.57 356.15,-27.13 410.09,-17.47"/>
<polygon fill="#63b8ff" stroke="#63b8ff" points="410.73,-20.91 419.95,-15.7 409.49,-14.02 410.73,-20.91"/>
</a>
</g>
</g>
<!-- Node6&#45;&gt;Node9 -->
<g id="edge10_Node000006_Node000009" class="edge">
<title>Node6&#45;&gt;Node9</title>
<g id="a_edge10_Node000006_Node000009"><a xlink:title=" ">
<path fill="none" stroke="#63b8ff" d="M226.1,-54.98C326.43,-43.3 502.59,-22.78 575.25,-14.32"/>
<polygon fill="#63b8ff" stroke="#63b8ff" points="575.67,-17.79 585.2,-13.16 574.86,-10.84 575.67,-17.79"/>
</a>
</g>
</g>
</g>
</svg>
