<?xml version="1.0" encoding="UTF-8" standalone="no"?>
<!DOCTYPE svg PUBLIC "-//W3C//DTD SVG 1.1//EN"
 "http://www.w3.org/Graphics/SVG/1.1/DTD/svg11.dtd">
<!-- Generated by graphviz version 2.43.0 (0)
 -->
<!-- Title: guanaqo::TypeErased&lt; VTable, Allocator, SmallBufferSize &gt; Pages: 1 -->
<svg width="198pt" height="1115pt"
 viewBox="0.00 0.00 198.00 1115.00" xmlns="http://www.w3.org/2000/svg" xmlns:xlink="http://www.w3.org/1999/xlink">
<g id="graph0" class="graph" transform="scale(1 1) rotate(0) translate(4 1111)">
<title>guanaqo::TypeErased&lt; VTable, Allocator, SmallBufferSize &gt;</title>
<!-- Node1 -->
<g id="Node000001" class="node">
<title>Node1</title>
<g id="a_Node000001"><a xlink:title="Class for polymorphism through type erasure.">
<polygon fill="#999999" stroke="transparent" points="154,-787 0,-787 0,0 154,0 154,-787"/>
<text text-anchor="start" x="25" y="-774.5" font-family="Helvetica,sans-Serif" font-size="10.00">guanaqo::TypeErased</text>
<text text-anchor="start" x="25" y="-763.5" font-family="Helvetica,sans-Serif" font-size="10.00">&lt; VTable, Allocator,</text>
<text text-anchor="start" x="31" y="-752.5" font-family="Helvetica,sans-Serif" font-size="10.00"> SmallBufferSize &gt;</text>
<text text-anchor="start" x="4" y="-737.5" font-family="Helvetica,sans-Serif" font-size="10.00">+</text>
<text text-anchor="start" x="17" y="-737.5" font-family="Helvetica,sans-Serif" font-size="10.00">small_buffer_size</text>
<text text-anchor="start" x="4" y="-722.5" font-family="Helvetica,sans-Serif" font-size="10.00">#</text>
<text text-anchor="start" x="17" y="-722.5" font-family="Helvetica,sans-Serif" font-size="10.00">self</text>
<text text-anchor="start" x="4" y="-707.5" font-family="Helvetica,sans-Serif" font-size="10.00">#</text>
<text text-anchor="start" x="17" y="-707.5" font-family="Helvetica,sans-Serif" font-size="10.00">size</text>
<text text-anchor="start" x="4" y="-692.5" font-family="Helvetica,sans-Serif" font-size="10.00">#</text>
<text text-anchor="start" x="17" y="-692.5" font-family="Helvetica,sans-Serif" font-size="10.00">invalid_size</text>
<text text-anchor="start" x="4" y="-677.5" font-family="Helvetica,sans-Serif" font-size="10.00">#</text>
<text text-anchor="start" x="17" y="-677.5" font-family="Helvetica,sans-Serif" font-size="10.00">mut_ref_size</text>
<text text-anchor="start" x="4" y="-662.5" font-family="Helvetica,sans-Serif" font-size="10.00">#</text>
<text text-anchor="start" x="17" y="-662.5" font-family="Helvetica,sans-Serif" font-size="10.00">const_ref_size</text>
<text text-anchor="start" x="6.5" y="-647.5" font-family="Helvetica,sans-Serif" font-size="10.00">&#45;</text>
<text text-anchor="start" x="17" y="-647.5" font-family="Helvetica,sans-Serif" font-size="10.00">small_buffer</text>
<text text-anchor="start" x="6.5" y="-632.5" font-family="Helvetica,sans-Serif" font-size="10.00">&#45;</text>
<text text-anchor="start" x="17" y="-632.5" font-family="Helvetica,sans-Serif" font-size="10.00">allocator</text>
<text text-anchor="start" x="6.5" y="-617.5" font-family="Helvetica,sans-Serif" font-size="10.00">&#45;</text>
<text text-anchor="start" x="17" y="-617.5" font-family="Helvetica,sans-Serif" font-size="10.00">no_child_of_ours</text>
<text text-anchor="start" x="4" y="-602.5" font-family="Helvetica,sans-Serif" font-size="10.00">+</text>
<text text-anchor="start" x="17" y="-602.5" font-family="Helvetica,sans-Serif" font-size="10.00">TypeErased()</text>
<text text-anchor="start" x="4" y="-587.5" font-family="Helvetica,sans-Serif" font-size="10.00">+</text>
<text text-anchor="start" x="17" y="-587.5" font-family="Helvetica,sans-Serif" font-size="10.00">TypeErased()</text>
<text text-anchor="start" x="4" y="-572.5" font-family="Helvetica,sans-Serif" font-size="10.00">+</text>
<text text-anchor="start" x="17" y="-572.5" font-family="Helvetica,sans-Serif" font-size="10.00">TypeErased()</text>
<text text-anchor="start" x="4" y="-557.5" font-family="Helvetica,sans-Serif" font-size="10.00">+</text>
<text text-anchor="start" x="17" y="-557.5" font-family="Helvetica,sans-Serif" font-size="10.00">TypeErased()</text>
<text text-anchor="start" x="4" y="-542.5" font-family="Helvetica,sans-Serif" font-size="10.00">+</text>
<text text-anchor="start" x="17" y="-542.5" font-family="Helvetica,sans-Serif" font-size="10.00">TypeErased()</text>
<text text-anchor="start" x="4" y="-527.5" font-family="Helvetica,sans-Serif" font-size="10.00">+</text>
<text text-anchor="start" x="17" y="-527.5" font-family="Helvetica,sans-Serif" font-size="10.00">operator=()</text>
<text text-anchor="start" x="4" y="-512.5" font-family="Helvetica,sans-Serif" font-size="10.00">+</text>
<text text-anchor="start" x="17" y="-512.5" font-family="Helvetica,sans-Serif" font-size="10.00">TypeErased()</text>
<text text-anchor="start" x="4" y="-497.5" font-family="Helvetica,sans-Serif" font-size="10.00">+</text>
<text text-anchor="start" x="17" y="-497.5" font-family="Helvetica,sans-Serif" font-size="10.00">TypeErased()</text>
<text text-anchor="start" x="4" y="-482.5" font-family="Helvetica,sans-Serif" font-size="10.00">+</text>
<text text-anchor="start" x="17" y="-482.5" font-family="Helvetica,sans-Serif" font-size="10.00">TypeErased()</text>
<text text-anchor="start" x="4" y="-467.5" font-family="Helvetica,sans-Serif" font-size="10.00">+</text>
<text text-anchor="start" x="17" y="-467.5" font-family="Helvetica,sans-Serif" font-size="10.00">operator=()</text>
<text text-anchor="start" x="4" y="-452.5" font-family="Helvetica,sans-Serif" font-size="10.00">+</text>
<text text-anchor="start" x="17" y="-452.5" font-family="Helvetica,sans-Serif" font-size="10.00">~TypeErased()</text>
<text text-anchor="start" x="4" y="-437.5" font-family="Helvetica,sans-Serif" font-size="10.00">+</text>
<text text-anchor="start" x="17" y="-437.5" font-family="Helvetica,sans-Serif" font-size="10.00">TypeErased()</text>
<text text-anchor="start" x="4" y="-422.5" font-family="Helvetica,sans-Serif" font-size="10.00">+</text>
<text text-anchor="start" x="17" y="-422.5" font-family="Helvetica,sans-Serif" font-size="10.00">TypeErased()</text>
<text text-anchor="start" x="4" y="-407.5" font-family="Helvetica,sans-Serif" font-size="10.00">+</text>
<text text-anchor="start" x="17" y="-407.5" font-family="Helvetica,sans-Serif" font-size="10.00">TypeErased()</text>
<text text-anchor="start" x="4" y="-392.5" font-family="Helvetica,sans-Serif" font-size="10.00">+</text>
<text text-anchor="start" x="17" y="-392.5" font-family="Helvetica,sans-Serif" font-size="10.00">TypeErased()</text>
<text text-anchor="start" x="4" y="-377.5" font-family="Helvetica,sans-Serif" font-size="10.00">+</text>
<text text-anchor="start" x="17" y="-377.5" font-family="Helvetica,sans-Serif" font-size="10.00">operator bool()</text>
<text text-anchor="start" x="4" y="-362.5" font-family="Helvetica,sans-Serif" font-size="10.00">+</text>
<text text-anchor="start" x="17" y="-362.5" font-family="Helvetica,sans-Serif" font-size="10.00">owns_referenced_object()</text>
<text text-anchor="start" x="4" y="-347.5" font-family="Helvetica,sans-Serif" font-size="10.00">+</text>
<text text-anchor="start" x="17" y="-347.5" font-family="Helvetica,sans-Serif" font-size="10.00">referenced_object_is</text>
<text text-anchor="start" x="17" y="-336.5" font-family="Helvetica,sans-Serif" font-size="10.00">_const()</text>
<text text-anchor="start" x="4" y="-321.5" font-family="Helvetica,sans-Serif" font-size="10.00">+</text>
<text text-anchor="start" x="17" y="-321.5" font-family="Helvetica,sans-Serif" font-size="10.00">get_allocator()</text>
<text text-anchor="start" x="4" y="-306.5" font-family="Helvetica,sans-Serif" font-size="10.00">+</text>
<text text-anchor="start" x="17" y="-306.5" font-family="Helvetica,sans-Serif" font-size="10.00">type()</text>
<text text-anchor="start" x="4" y="-291.5" font-family="Helvetica,sans-Serif" font-size="10.00">+</text>
<text text-anchor="start" x="17" y="-291.5" font-family="Helvetica,sans-Serif" font-size="10.00">as()</text>
<text text-anchor="start" x="4" y="-276.5" font-family="Helvetica,sans-Serif" font-size="10.00">+</text>
<text text-anchor="start" x="17" y="-276.5" font-family="Helvetica,sans-Serif" font-size="10.00">as()</text>
<text text-anchor="start" x="4" y="-261.5" font-family="Helvetica,sans-Serif" font-size="10.00">+</text>
<text text-anchor="start" x="17" y="-261.5" font-family="Helvetica,sans-Serif" font-size="10.00">as()</text>
<text text-anchor="start" x="4" y="-246.5" font-family="Helvetica,sans-Serif" font-size="10.00">+</text>
<text text-anchor="start" x="17" y="-246.5" font-family="Helvetica,sans-Serif" font-size="10.00">get_pointer()</text>
<text text-anchor="start" x="4" y="-231.5" font-family="Helvetica,sans-Serif" font-size="10.00">+</text>
<text text-anchor="start" x="17" y="-231.5" font-family="Helvetica,sans-Serif" font-size="10.00">get_const_pointer()</text>
<text text-anchor="start" x="4" y="-216.5" font-family="Helvetica,sans-Serif" font-size="10.00">+</text>
<text text-anchor="start" x="17" y="-216.5" font-family="Helvetica,sans-Serif" font-size="10.00">make()</text>
<text text-anchor="start" x="4" y="-201.5" font-family="Helvetica,sans-Serif" font-size="10.00">+</text>
<text text-anchor="start" x="17" y="-201.5" font-family="Helvetica,sans-Serif" font-size="10.00">make()</text>
<text text-anchor="start" x="4" y="-186.5" font-family="Helvetica,sans-Serif" font-size="10.00">#</text>
<text text-anchor="start" x="17" y="-186.5" font-family="Helvetica,sans-Serif" font-size="10.00">construct_inplace()</text>
<text text-anchor="start" x="4" y="-171.5" font-family="Helvetica,sans-Serif" font-size="10.00">#</text>
<text text-anchor="start" x="17" y="-171.5" font-family="Helvetica,sans-Serif" font-size="10.00">call()</text>
<text text-anchor="start" x="4" y="-156.5" font-family="Helvetica,sans-Serif" font-size="10.00">#</text>
<text text-anchor="start" x="17" y="-156.5" font-family="Helvetica,sans-Serif" font-size="10.00">call()</text>
<text text-anchor="start" x="4" y="-141.5" font-family="Helvetica,sans-Serif" font-size="10.00">#</text>
<text text-anchor="start" x="17" y="-141.5" font-family="Helvetica,sans-Serif" font-size="10.00">call()</text>
<text text-anchor="start" x="4" y="-126.5" font-family="Helvetica,sans-Serif" font-size="10.00">#</text>
<text text-anchor="start" x="17" y="-126.5" font-family="Helvetica,sans-Serif" font-size="10.00">call()</text>
<text text-anchor="start" x="4" y="-111.5" font-family="Helvetica,sans-Serif" font-size="10.00">#</text>
<text text-anchor="start" x="17" y="-111.5" font-family="Helvetica,sans-Serif" font-size="10.00">call()</text>
<text text-anchor="start" x="4" y="-96.5" font-family="Helvetica,sans-Serif" font-size="10.00">#</text>
<text text-anchor="start" x="17" y="-96.5" font-family="Helvetica,sans-Serif" font-size="10.00">call()</text>
<text text-anchor="start" x="4" y="-81.5" font-family="Helvetica,sans-Serif" font-size="10.00">#</text>
<text text-anchor="start" x="17" y="-81.5" font-family="Helvetica,sans-Serif" font-size="10.00">size_indicates_ownership()</text>
<text text-anchor="start" x="4" y="-66.5" font-family="Helvetica,sans-Serif" font-size="10.00">#</text>
<text text-anchor="start" x="17" y="-66.5" font-family="Helvetica,sans-Serif" font-size="10.00">size_indicates_const()</text>
<text text-anchor="start" x="6.5" y="-51.5" font-family="Helvetica,sans-Serif" font-size="10.00">&#45;</text>
<text text-anchor="start" x="17" y="-51.5" font-family="Helvetica,sans-Serif" font-size="10.00">allocate()</text>
<text text-anchor="start" x="6.5" y="-36.5" font-family="Helvetica,sans-Serif" font-size="10.00">&#45;</text>
<text text-anchor="start" x="17" y="-36.5" font-family="Helvetica,sans-Serif" font-size="10.00">deallocate()</text>
<text text-anchor="start" x="6.5" y="-21.5" font-family="Helvetica,sans-Serif" font-size="10.00">&#45;</text>
<text text-anchor="start" x="17" y="-21.5" font-family="Helvetica,sans-Serif" font-size="10.00">cleanup()</text>
<text text-anchor="start" x="6.5" y="-6.5" font-family="Helvetica,sans-Serif" font-size="10.00">&#45;</text>
<text text-anchor="start" x="17" y="-6.5" font-family="Helvetica,sans-Serif" font-size="10.00">do_copy_assign()</text>
<polygon fill="#666666" stroke="#666666" points="0,-747.5 0,-747.5 154,-747.5 154,-747.5 0,-747.5"/>
<polygon fill="#666666" stroke="#666666" points="0,-612.5 0,-612.5 15,-612.5 15,-612.5 0,-612.5"/>
<polygon fill="#666666" stroke="#666666" points="15,-612.5 15,-612.5 154,-612.5 154,-612.5 15,-612.5"/>
<polygon fill="none" stroke="#666666" points="0,0 0,-787 154,-787 154,0 0,0"/>
</a>
</g>
</g>
<!-- Node2 -->
<g id="Node000002" class="node">
<title>Node2</title>
<g id="a_Node000002"><a xlink:href="structguanaqo_1_1BasicVTable.html" target="_top" xlink:title="Struct that stores pointers to functions to copy, move or destroy a polymorphic object.">
<polygon fill="white" stroke="transparent" points="135.5,-949 18.5,-949 18.5,-840 135.5,-840 135.5,-949"/>
<text text-anchor="start" x="24" y="-936.5" font-family="Helvetica,sans-Serif" font-size="10.00">guanaqo::BasicVTable</text>
<text text-anchor="start" x="30" y="-921.5" font-family="Helvetica,sans-Serif" font-size="10.00">+</text>
<text text-anchor="start" x="50" y="-921.5" font-family="Helvetica,sans-Serif" font-size="10.00">type</text>
<text text-anchor="start" x="30" y="-906.5" font-family="Helvetica,sans-Serif" font-size="10.00">+</text>
<text text-anchor="start" x="50" y="-906.5" font-family="Helvetica,sans-Serif" font-size="10.00">BasicVTable()</text>
<text text-anchor="start" x="30" y="-891.5" font-family="Helvetica,sans-Serif" font-size="10.00">+</text>
<text text-anchor="start" x="50" y="-891.5" font-family="Helvetica,sans-Serif" font-size="10.00">BasicVTable()</text>
<text text-anchor="start" x="30" y="-876.5" font-family="Helvetica,sans-Serif" font-size="10.00">+</text>
<text text-anchor="start" x="50" y="-876.5" font-family="Helvetica,sans-Serif" font-size="10.00">copy()</text>
<text text-anchor="start" x="30" y="-861.5" font-family="Helvetica,sans-Serif" font-size="10.00">+</text>
<text text-anchor="start" x="50" y="-861.5" font-family="Helvetica,sans-Serif" font-size="10.00">move()</text>
<text text-anchor="start" x="30" y="-846.5" font-family="Helvetica,sans-Serif" font-size="10.00">+</text>
<text text-anchor="start" x="50" y="-846.5" font-family="Helvetica,sans-Serif" font-size="10.00">destroy()</text>
<polygon fill="#666666" stroke="#666666" points="19,-931.5 19,-931.5 136,-931.5 136,-931.5 19,-931.5"/>
<polygon fill="#666666" stroke="#666666" points="19,-916.5 19,-916.5 48,-916.5 48,-916.5 19,-916.5"/>
<polygon fill="#666666" stroke="#666666" points="48,-916.5 48,-916.5 136,-916.5 136,-916.5 48,-916.5"/>
<polygon fill="none" stroke="#666666" points="18.5,-840 18.5,-949 135.5,-949 135.5,-840 18.5,-840"/>
</a>
</g>
</g>
<!-- Node2&#45;&gt;Node1 -->
<g id="edge1_Node000001_Node000002" class="edge">
<title>Node2&#45;&gt;Node1</title>
<g id="a_edge1_Node000001_Node000002"><a xlink:title=" ">
<path fill="none" stroke="#63b8ff" d="M77,-839.62C77,-827.69 77,-814.16 77,-799.43"/>
<polygon fill="none" stroke="#63b8ff" points="77,-799.36 73,-793.36 77,-787.36 81,-793.36 77,-799.36"/>
</a>
</g>
<text text-anchor="start" x="80" y="-810.5" font-family="Helvetica,sans-Serif" font-size="10.00" fill="grey">#vtable</text>
</g>
<!-- Node3 -->
<g id="Node000003" class="node">
<title>Node3</title>
<g id="a_Node000003"><a xlink:href="group__type__erasure.html#structguanaqo_1_1CopyMoveDestroyVTable" target="_top" xlink:title=" ">
<polygon fill="white" stroke="transparent" points="151.5,-1107 2.5,-1107 2.5,-1017 151.5,-1017 151.5,-1107"/>
<text text-anchor="start" x="8" y="-1095" font-family="Helvetica,sans-Serif" font-size="10.00">guanaqo::CopyMoveDestroy</text>
<text text-anchor="start" x="61" y="-1084" font-family="Helvetica,sans-Serif" font-size="10.00">VTable</text>
<text text-anchor="start" x="29.5" y="-1069" font-family="Helvetica,sans-Serif" font-size="10.00">+</text>
<text text-anchor="start" x="65" y="-1069" font-family="Helvetica,sans-Serif" font-size="10.00">copy</text>
<text text-anchor="start" x="29.5" y="-1054" font-family="Helvetica,sans-Serif" font-size="10.00">+</text>
<text text-anchor="start" x="65" y="-1054" font-family="Helvetica,sans-Serif" font-size="10.00">move</text>
<text text-anchor="start" x="29.5" y="-1039" font-family="Helvetica,sans-Serif" font-size="10.00">+</text>
<text text-anchor="start" x="65" y="-1039" font-family="Helvetica,sans-Serif" font-size="10.00">destroy</text>
<text text-anchor="start" x="75.5" y="-1024" font-family="Helvetica,sans-Serif" font-size="10.00"> </text>
<polygon fill="#666666" stroke="#666666" points="3,-1079 3,-1079 152,-1079 152,-1079 3,-1079"/>
<polygon fill="#666666" stroke="#666666" points="3,-1034 3,-1034 63,-1034 63,-1034 3,-1034"/>
<polygon fill="#666666" stroke="#666666" points="63,-1034 63,-1034 152,-1034 152,-1034 63,-1034"/>
<polygon fill="none" stroke="#666666" points="2.5,-1017 2.5,-1107 151.5,-1107 151.5,-1017 2.5,-1017"/>
</a>
</g>
</g>
<!-- Node3&#45;&gt;Node2 -->
<g id="edge2_Node000002_Node000003" class="edge">
<title>Node3&#45;&gt;Node2</title>
<g id="a_edge2_Node000002_Node000003"><a xlink:title=" ">
<path fill="none" stroke="#63b8ff" d="M77,-1016.65C77,-999.61 77,-979.77 77,-961.14"/>
<polygon fill="none" stroke="#63b8ff" points="77,-961.12 73,-955.12 77,-949.12 81,-955.12 77,-961.12"/>
</a>
</g>
<text text-anchor="start" x="80.5" y="-988" font-family="Helvetica,sans-Serif" font-size="10.00" fill="grey">+copy_move_destroy</text>
<text text-anchor="start" x="80.5" y="-973" font-family="Helvetica,sans-Serif" font-size="10.00" fill="grey">  _functions</text>
</g>
</g>
</svg>
