<?xml version="1.0" encoding="UTF-8" standalone="no"?>
<!DOCTYPE svg PUBLIC "-//W3C//DTD SVG 1.1//EN"
 "http://www.w3.org/Graphics/SVG/1.1/DTD/svg11.dtd">
<!-- Generated by graphviz version 2.43.0 (0)
 -->
<!-- Title: guanaqo::TypeErased::call Pages: 1 -->
<svg width="443pt" height="49pt"
 viewBox="0.00 0.00 443.00 49.00" xmlns="http://www.w3.org/2000/svg" xmlns:xlink="http://www.w3.org/1999/xlink">
<g id="graph0" class="graph" transform="scale(1 1) rotate(0) translate(4 45)">
<title>guanaqo::TypeErased::call</title>
<!-- Node1 -->
<g id="Node000001" class="node">
<title>Node1</title>
<g id="a_Node000001"><a xlink:title="Call the vtable function f with the given arguments args, implicitly passing the self pointer and vta...">
<polygon fill="#999999" stroke="#666666" points="120,-35.5 0,-35.5 0,-5.5 120,-5.5 120,-35.5"/>
<text text-anchor="start" x="8" y="-23.5" font-family="Helvetica,sans-Serif" font-size="10.00">guanaqo::TypeErased</text>
<text text-anchor="middle" x="60" y="-12.5" font-family="Helvetica,sans-Serif" font-size="10.00">::call</text>
</a>
</g>
</g>
<!-- Node2 -->
<g id="Node000002" class="node">
<title>Node2</title>
<g id="a_Node000002"><a xlink:href="classguanaqo_1_1TypeErased.html#a945d86b78f949e2ed115f18d6ebf003e" target="_top" xlink:title="Check if the wrapped object is const.">
<polygon fill="white" stroke="#666666" points="276,-41 156,-41 156,0 276,0 276,-41"/>
<text text-anchor="start" x="164" y="-29" font-family="Helvetica,sans-Serif" font-size="10.00">guanaqo::TypeErased</text>
<text text-anchor="start" x="164" y="-18" font-family="Helvetica,sans-Serif" font-size="10.00">::referenced_object</text>
<text text-anchor="middle" x="216" y="-7" font-family="Helvetica,sans-Serif" font-size="10.00">_is_const</text>
</a>
</g>
</g>
<!-- Node1&#45;&gt;Node2 -->
<g id="edge1_Node000001_Node000002" class="edge">
<title>Node1&#45;&gt;Node2</title>
<g id="a_edge1_Node000001_Node000002"><a xlink:title=" ">
<path fill="none" stroke="#63b8ff" d="M120.1,-20.5C128.42,-20.5 137.04,-20.5 145.53,-20.5"/>
<polygon fill="#63b8ff" stroke="#63b8ff" points="145.8,-24 155.8,-20.5 145.8,-17 145.8,-24"/>
</a>
</g>
</g>
<!-- Node3 -->
<g id="Node000003" class="node">
<title>Node3</title>
<g id="a_Node000003"><a xlink:href="classguanaqo_1_1TypeErased.html#a7b8167c4aea9a17384ae0e363a4c93fc" target="_top" xlink:title=" ">
<polygon fill="white" stroke="#666666" points="435,-35.5 312,-35.5 312,-5.5 435,-5.5 435,-35.5"/>
<text text-anchor="start" x="320" y="-23.5" font-family="Helvetica,sans-Serif" font-size="10.00">guanaqo::TypeErased</text>
<text text-anchor="middle" x="373.5" y="-12.5" font-family="Helvetica,sans-Serif" font-size="10.00">::size_indicates_const</text>
</a>
</g>
</g>
<!-- Node2&#45;&gt;Node3 -->
<g id="edge2_Node000002_Node000003" class="edge">
<title>Node2&#45;&gt;Node3</title>
<g id="a_edge2_Node000002_Node000003"><a xlink:title=" ">
<path fill="none" stroke="#63b8ff" d="M276.23,-20.5C284.53,-20.5 293.13,-20.5 301.61,-20.5"/>
<polygon fill="#63b8ff" stroke="#63b8ff" points="301.89,-24 311.89,-20.5 301.89,-17 301.89,-24"/>
</a>
</g>
</g>
</g>
</svg>
