<?xml version="1.0" encoding="UTF-8" standalone="no"?>
<!DOCTYPE svg PUBLIC "-//W3C//DTD SVG 1.1//EN"
 "http://www.w3.org/Graphics/SVG/1.1/DTD/svg11.dtd">
<!-- Generated by graphviz version 2.43.0 (0)
 -->
<!-- Title: guanaqo::blas::xlauum_L Pages: 1 -->
<svg width="310pt" height="76pt"
 viewBox="0.00 0.00 310.00 75.50" xmlns="http://www.w3.org/2000/svg" xmlns:xlink="http://www.w3.org/1999/xlink">
<g id="graph0" class="graph" transform="scale(1 1) rotate(0) translate(4 71.5)">
<title>guanaqo::blas::xlauum_L</title>
<!-- Node1 -->
<g id="Node000001" class="node">
<title>Node1</title>
<g id="a_Node000001"><a xlink:title=" ">
<polygon fill="#999999" stroke="#666666" points="138,-40 0,-40 0,-21 138,-21 138,-40"/>
<text text-anchor="middle" x="69" y="-28" font-family="Helvetica,sans-Serif" font-size="10.00">guanaqo::blas::xlauum_L</text>
</a>
</g>
</g>
<!-- Node2 -->
<g id="Node000002" class="node">
<title>Node2</title>
<g id="a_Node000002"><a xlink:href="group__linalg__blas__ll.html#ga4bb8b03015aec2dcf973a51b215cbcbc" target="_top" xlink:title=" ">
<polygon fill="white" stroke="#666666" points="299.5,-67.5 176.5,-67.5 176.5,-37.5 299.5,-37.5 299.5,-67.5"/>
<text text-anchor="start" x="184.5" y="-55.5" font-family="Helvetica,sans-Serif" font-size="10.00">guanaqo::blas::lapack</text>
<text text-anchor="middle" x="238" y="-44.5" font-family="Helvetica,sans-Serif" font-size="10.00">_throw_on_err</text>
</a>
</g>
</g>
<!-- Node1&#45;&gt;Node2 -->
<g id="edge1_Node000001_Node000002" class="edge">
<title>Node1&#45;&gt;Node2</title>
<g id="a_edge1_Node000001_Node000002"><a xlink:title=" ">
<path fill="none" stroke="#63b8ff" d="M138.41,-39.51C147.67,-40.73 157.19,-41.99 166.48,-43.21"/>
<polygon fill="#63b8ff" stroke="#63b8ff" points="166.09,-46.69 176.46,-44.52 167,-39.75 166.09,-46.69"/>
</a>
</g>
</g>
<!-- Node3 -->
<g id="Node000003" class="node">
<title>Node3</title>
<g id="a_Node000003"><a xlink:href="group__linalg__blas__ll.html#ga1137f2c6f17c2b65bf0bb891eb3b3438" target="_top" xlink:title=" ">
<polygon fill="white" stroke="#666666" points="302,-19 174,-19 174,0 302,0 302,-19"/>
<text text-anchor="middle" x="238" y="-7" font-family="Helvetica,sans-Serif" font-size="10.00">guanaqo::blas::xlauum</text>
</a>
</g>
</g>
<!-- Node1&#45;&gt;Node3 -->
<g id="edge2_Node000001_Node000003" class="edge">
<title>Node1&#45;&gt;Node3</title>
<g id="a_edge2_Node000001_Node000003"><a xlink:title=" ">
<path fill="none" stroke="#63b8ff" d="M138.41,-21.9C146.73,-20.85 155.26,-19.78 163.66,-18.72"/>
<polygon fill="#63b8ff" stroke="#63b8ff" points="164.32,-22.17 173.8,-17.45 163.44,-15.22 164.32,-22.17"/>
</a>
</g>
</g>
</g>
</svg>
