<?xml version="1.0" encoding="UTF-8" standalone="no"?>
<!DOCTYPE svg PUBLIC "-//W3C//DTD SVG 1.1//EN"
 "http://www.w3.org/Graphics/SVG/1.1/DTD/svg11.dtd">
<!-- Generated by graphviz version 2.43.0 (0)
 -->
<!-- Title: Graphical Class Hierarchy Pages: 1 -->
<svg width="310pt" height="86pt"
 viewBox="0.00 0.00 310.00 86.00" xmlns="http://www.w3.org/2000/svg" xmlns:xlink="http://www.w3.org/1999/xlink">
<g id="graph0" class="graph" transform="scale(1 1) rotate(0) translate(4 82)">
<title>Graphical Class Hierarchy</title>
<!-- Node0 -->
<g id="Node000000" class="node">
<title>Node0</title>
<g id="a_Node000000"><a xlink:title=" ">
<polygon fill="#e0e0e0" stroke="#999999" points="123,-48.5 0,-48.5 0,-29.5 123,-29.5 123,-48.5"/>
<text text-anchor="middle" x="61.5" y="-36.5" font-family="Helvetica,sans-Serif" font-size="10.00">std::invalid_argument</text>
</a>
</g>
</g>
<!-- Node1 -->
<g id="Node000001" class="node">
<title>Node1</title>
<g id="a_Node000001"><a xlink:href="structguanaqo_1_1invalid__duration__units.html" target="_top" xlink:title=" ">
<polygon fill="white" stroke="#666666" points="302,-78 159,-78 159,-48 302,-48 302,-78"/>
<text text-anchor="start" x="167" y="-66" font-family="Helvetica,sans-Serif" font-size="10.00">guanaqo::invalid_duration</text>
<text text-anchor="middle" x="230.5" y="-55" font-family="Helvetica,sans-Serif" font-size="10.00">_units</text>
</a>
</g>
</g>
<!-- Node0&#45;&gt;Node1 -->
<g id="edge4_Node000000_Node000001" class="edge">
<title>Node0&#45;&gt;Node1</title>
<g id="a_edge4_Node000000_Node000001"><a xlink:title=" ">
<path fill="none" stroke="#63b8ff" d="M133.43,-49.19C141.85,-50.4 150.44,-51.64 158.86,-52.85"/>
<polygon fill="#63b8ff" stroke="#63b8ff" points="133.66,-45.69 123.26,-47.73 132.66,-52.62 133.66,-45.69"/>
</a>
</g>
</g>
<!-- Node2 -->
<g id="Node000002" class="node">
<title>Node2</title>
<g id="a_Node000002"><a xlink:href="structguanaqo_1_1invalid__duration__value.html" target="_top" xlink:title=" ">
<polygon fill="white" stroke="#666666" points="302,-30 159,-30 159,0 302,0 302,-30"/>
<text text-anchor="start" x="167" y="-18" font-family="Helvetica,sans-Serif" font-size="10.00">guanaqo::invalid_duration</text>
<text text-anchor="middle" x="230.5" y="-7" font-family="Helvetica,sans-Serif" font-size="10.00">_value</text>
</a>
</g>
</g>
<!-- Node0&#45;&gt;Node2 -->
<g id="edge5_Node000000_Node000002" class="edge">
<title>Node0&#45;&gt;Node2</title>
<g id="a_edge5_Node000000_Node000002"><a xlink:title=" ">
<path fill="none" stroke="#63b8ff" d="M133.43,-28.81C141.85,-27.6 150.44,-26.36 158.86,-25.15"/>
<polygon fill="#63b8ff" stroke="#63b8ff" points="132.66,-25.38 123.26,-30.27 133.66,-32.31 132.66,-25.38"/>
</a>
</g>
</g>
</g>
</svg>
