<?xml version="1.0" encoding="UTF-8" standalone="no"?>
<!DOCTYPE svg PUBLIC "-//W3C//DTD SVG 1.1//EN"
 "http://www.w3.org/Graphics/SVG/1.1/DTD/svg11.dtd">
<!-- Generated by graphviz version 2.43.0 (0)
 -->
<!-- Title: guanaqo::set_intersection_iterable&lt; R1, R2, Comp, Proj1, Proj2 &gt; Pages: 1 -->
<svg width="301pt" height="304pt"
 viewBox="0.00 0.00 300.50 304.00" xmlns="http://www.w3.org/2000/svg" xmlns:xlink="http://www.w3.org/1999/xlink">

<svg id="main" version="1.1" xmlns="http://www.w3.org/2000/svg" xmlns:xlink="http://www.w3.org/1999/xlink" xml:space="preserve">

<style type="text/css"><![CDATA[
.node, .edge {opacity: 0.7;}
.node.selected, .edge.selected {opacity: 1;}
.edge:hover path { stroke: red; }
.edge:hover polygon { stroke: red; fill: red; }
]]></style>
<script type="application/ecmascript" xlink:href="svg.min.js"/>
<svg id="graph" class="graph">
<g id="graph0" class="graph" transform="scale(1 1) rotate(0) translate(4 300)">
<title>guanaqo::set_intersection_iterable&lt; R1, R2, Comp, Proj1, Proj2 &gt;</title>
<!-- Node1 -->
<g id="Node000001" class="node">
<title>Node1</title>
<g id="a_Node000001"><a xlink:title=" ">
<polygon fill="#999999" stroke="transparent" points="263.5,-161 113.5,-161 113.5,0 263.5,0 263.5,-161"/>
<text text-anchor="start" x="125" y="-148.5" font-family="Helvetica,sans-Serif" font-size="10.00">guanaqo::set_intersection</text>
<text text-anchor="start" x="125" y="-137.5" font-family="Helvetica,sans-Serif" font-size="10.00">_iterable&lt; R1, R2, Comp,</text>
<text text-anchor="start" x="153.5" y="-126.5" font-family="Helvetica,sans-Serif" font-size="10.00"> Proj1, Proj2 &gt;</text>
<text text-anchor="start" x="117.5" y="-111.5" font-family="Helvetica,sans-Serif" font-size="10.00">+</text>
<text text-anchor="start" x="130.5" y="-111.5" font-family="Helvetica,sans-Serif" font-size="10.00">comp</text>
<text text-anchor="start" x="117.5" y="-96.5" font-family="Helvetica,sans-Serif" font-size="10.00">+</text>
<text text-anchor="start" x="130.5" y="-96.5" font-family="Helvetica,sans-Serif" font-size="10.00">proj1</text>
<text text-anchor="start" x="117.5" y="-81.5" font-family="Helvetica,sans-Serif" font-size="10.00">+</text>
<text text-anchor="start" x="130.5" y="-81.5" font-family="Helvetica,sans-Serif" font-size="10.00">proj2</text>
<text text-anchor="start" x="117.5" y="-66.5" font-family="Helvetica,sans-Serif" font-size="10.00">+</text>
<text text-anchor="start" x="130.5" y="-66.5" font-family="Helvetica,sans-Serif" font-size="10.00">set_intersection_iterable()</text>
<text text-anchor="start" x="117.5" y="-51.5" font-family="Helvetica,sans-Serif" font-size="10.00">+</text>
<text text-anchor="start" x="130.5" y="-51.5" font-family="Helvetica,sans-Serif" font-size="10.00">set_intersection_iterable()</text>
<text text-anchor="start" x="117.5" y="-36.5" font-family="Helvetica,sans-Serif" font-size="10.00">+</text>
<text text-anchor="start" x="130.5" y="-36.5" font-family="Helvetica,sans-Serif" font-size="10.00">begin()</text>
<text text-anchor="start" x="117.5" y="-21.5" font-family="Helvetica,sans-Serif" font-size="10.00">+</text>
<text text-anchor="start" x="130.5" y="-21.5" font-family="Helvetica,sans-Serif" font-size="10.00">end()</text>
<text text-anchor="start" x="120" y="-6.5" font-family="Helvetica,sans-Serif" font-size="10.00">&#45;</text>
<text text-anchor="start" x="130.5" y="-6.5" font-family="Helvetica,sans-Serif" font-size="10.00">iter()</text>
<polygon fill="#666666" stroke="#666666" points="113.5,-121.5 113.5,-121.5 263.5,-121.5 263.5,-121.5 113.5,-121.5"/>
<polygon fill="#666666" stroke="#666666" points="113.5,-76.5 113.5,-76.5 128.5,-76.5 128.5,-76.5 113.5,-76.5"/>
<polygon fill="#666666" stroke="#666666" points="128.5,-76.5 128.5,-76.5 263.5,-76.5 263.5,-76.5 128.5,-76.5"/>
<polygon fill="none" stroke="#666666" points="113.5,0 113.5,-161 263.5,-161 263.5,0 113.5,0"/>
</a>
</g>
</g>
<!-- Node2 -->
<g id="Node000002" class="node">
<title>Node2</title>
<g id="a_Node000002"><a xlink:title=" ">
<polygon fill="white" stroke="transparent" points="159,-296 0,-296 0,-214 159,-214 159,-296"/>
<text text-anchor="start" x="5.5" y="-284" font-family="Helvetica,sans-Serif" font-size="10.00">std::ranges::view_interface</text>
<text text-anchor="start" x="5.5" y="-273" font-family="Helvetica,sans-Serif" font-size="10.00">&lt; set_intersection_iterable</text>
<text text-anchor="start" x="5.5" y="-262" font-family="Helvetica,sans-Serif" font-size="10.00">&lt; R1, R2, std::ranges::less,</text>
<text text-anchor="start" x="5.5" y="-251" font-family="Helvetica,sans-Serif" font-size="10.00"> std::identity, std::identity &gt; &gt;</text>
<text text-anchor="start" x="78" y="-236" font-family="Helvetica,sans-Serif" font-size="10.00"> </text>
<text text-anchor="start" x="78" y="-221" font-family="Helvetica,sans-Serif" font-size="10.00"> </text>
<polygon fill="#666666" stroke="#666666" points="0.5,-246 0.5,-246 159.5,-246 159.5,-246 0.5,-246"/>
<polygon fill="#666666" stroke="#666666" points="0.5,-231 0.5,-231 159.5,-231 159.5,-231 0.5,-231"/>
<polygon fill="none" stroke="#666666" points="0,-214 0,-296 159,-296 159,-214 0,-214"/>
</a>
</g>
</g>
<!-- Node2&#45;&gt;Node1 -->
<g id="edge1_Node000001_Node000002" class="edge">
<title>Node2&#45;&gt;Node1</title>
<g id="a_edge1_Node000001_Node000002"><a xlink:title=" ">
<path fill="none" stroke="#63b8ff" d="M110.34,-205.19C119.04,-191.43 128.73,-176.09 138.25,-161.03"/>
<polygon fill="none" stroke="#63b8ff" points="107.16,-203.67 104.78,-213.99 113.08,-207.41 107.16,-203.67"/>
</a>
</g>
</g>
<!-- Node3 -->
<g id="Node000003" class="node">
<title>Node3</title>
<g id="a_Node000003"><a xlink:title=" ">
<polygon fill="white" stroke="transparent" points="200,-279.5 177,-279.5 177,-230.5 200,-230.5 200,-279.5"/>
<text text-anchor="start" x="182.5" y="-267" font-family="Helvetica,sans-Serif" font-size="10.00">R1</text>
<text text-anchor="start" x="187" y="-252" font-family="Helvetica,sans-Serif" font-size="10.00"> </text>
<text text-anchor="start" x="187" y="-237" font-family="Helvetica,sans-Serif" font-size="10.00"> </text>
<polygon fill="#666666" stroke="#666666" points="177.5,-262 177.5,-262 200.5,-262 200.5,-262 177.5,-262"/>
<polygon fill="#666666" stroke="#666666" points="177.5,-247 177.5,-247 200.5,-247 200.5,-247 177.5,-247"/>
<polygon fill="none" stroke="#666666" points="177,-230.5 177,-279.5 200,-279.5 200,-230.5 177,-230.5"/>
</a>
</g>
</g>
<!-- Node3&#45;&gt;Node1 -->
<g id="edge2_Node000001_Node000003" class="edge">
<title>Node3&#45;&gt;Node1</title>
<g id="a_edge2_Node000001_Node000003"><a xlink:title=" ">
<path fill="none" stroke="#63b8ff" d="M188.5,-230.38C188.5,-215.26 188.5,-194.59 188.5,-173.45"/>
<polygon fill="none" stroke="#63b8ff" points="188.5,-173.35 184.5,-167.35 188.5,-161.35 192.5,-167.35 188.5,-173.35"/>
</a>
</g>
<text text-anchor="start" x="192" y="-184.5" font-family="Helvetica,sans-Serif" font-size="10.00" fill="grey">+range1</text>
</g>
<!-- Node4 -->
<g id="Node000004" class="node">
<title>Node4</title>
<g id="a_Node000004"><a xlink:title=" ">
<polygon fill="white" stroke="transparent" points="272,-279.5 249,-279.5 249,-230.5 272,-230.5 272,-279.5"/>
<text text-anchor="start" x="254.5" y="-267" font-family="Helvetica,sans-Serif" font-size="10.00">R2</text>
<text text-anchor="start" x="259" y="-252" font-family="Helvetica,sans-Serif" font-size="10.00"> </text>
<text text-anchor="start" x="259" y="-237" font-family="Helvetica,sans-Serif" font-size="10.00"> </text>
<polygon fill="#666666" stroke="#666666" points="249.5,-262 249.5,-262 272.5,-262 272.5,-262 249.5,-262"/>
<polygon fill="#666666" stroke="#666666" points="249.5,-247 249.5,-247 272.5,-247 272.5,-247 249.5,-247"/>
<polygon fill="none" stroke="#666666" points="249,-230.5 249,-279.5 272,-279.5 272,-230.5 249,-230.5"/>
</a>
</g>
</g>
<!-- Node4&#45;&gt;Node1 -->
<g id="edge3_Node000001_Node000004" class="edge">
<title>Node4&#45;&gt;Node1</title>
<g id="a_edge3_Node000001_Node000004"><a xlink:title=" ">
<path fill="none" stroke="#63b8ff" d="M254.78,-230.31C250.86,-215.35 245.19,-195.76 238.5,-179 237.58,-176.69 236.62,-174.36 235.63,-172.02"/>
<polygon fill="none" stroke="#63b8ff" points="235.62,-172 229.55,-168.12 230.8,-161.01 236.88,-164.9 235.62,-172"/>
</a>
</g>
<text text-anchor="start" x="247" y="-184.5" font-family="Helvetica,sans-Serif" font-size="10.00" fill="grey">+range2</text>
</g>
</g>
</svg>
</svg>

<style type='text/css'>
<![CDATA[
[data-mouse-over-selected='false'] { opacity: 0.7; }
[data-mouse-over-selected='true']  { opacity: 1.0; }
]]>
</style>
<script type="application/ecmascript"><![CDATA[
document.addEventListener('DOMContentLoaded', (event) => {
  highlightEdges();
  highlightAdjacentNodes();
});
]]></script>
</svg>
