<?xml version="1.0" encoding="UTF-8" standalone="no"?>
<!DOCTYPE svg PUBLIC "-//W3C//DTD SVG 1.1//EN"
 "http://www.w3.org/Graphics/SVG/1.1/DTD/svg11.dtd">
<!-- Generated by graphviz version 2.43.0 (0)
 -->
<!-- Title: guanaqo::trace::ScopedLinalgCounters::~ScopedLinalgCounters Pages: 1 -->
<svg width="537pt" height="38pt"
 viewBox="0.00 0.00 537.00 38.00" xmlns="http://www.w3.org/2000/svg" xmlns:xlink="http://www.w3.org/1999/xlink">
<g id="graph0" class="graph" transform="scale(1 1) rotate(0) translate(4 34)">
<title>guanaqo::trace::ScopedLinalgCounters::~ScopedLinalgCounters</title>
<!-- Node1 -->
<g id="Node000001" class="node">
<title>Node1</title>
<g id="a_Node000001"><a xlink:title=" ">
<polygon fill="#999999" stroke="#666666" points="182,-30 0,-30 0,0 182,0 182,-30"/>
<text text-anchor="start" x="8" y="-18" font-family="Helvetica,sans-Serif" font-size="10.00">guanaqo::trace::ScopedLinalg</text>
<text text-anchor="middle" x="91" y="-7" font-family="Helvetica,sans-Serif" font-size="10.00">Counters::~ScopedLinalgCounters</text>
</a>
</g>
</g>
<!-- Node2 -->
<g id="Node000002" class="node">
<title>Node2</title>
<g id="a_Node000002"><a xlink:href="structguanaqo_1_1trace_1_1ScopedLinalgCounters.html#acf667acbef370dcc59261cc2a5e1a272" target="_top" xlink:title=" ">
<polygon fill="white" stroke="#666666" points="378,-30 218,-30 218,0 378,0 378,-30"/>
<text text-anchor="start" x="226" y="-18" font-family="Helvetica,sans-Serif" font-size="10.00">guanaqo::trace::ScopedLinalg</text>
<text text-anchor="middle" x="298" y="-7" font-family="Helvetica,sans-Serif" font-size="10.00">Counters::trace_gflops</text>
</a>
</g>
</g>
<!-- Node1&#45;&gt;Node2 -->
<g id="edge1_Node000001_Node000002" class="edge">
<title>Node1&#45;&gt;Node2</title>
<g id="a_edge1_Node000001_Node000002"><a xlink:title=" ">
<path fill="none" stroke="#63b8ff" d="M182.21,-15C190.61,-15 199.13,-15 207.52,-15"/>
<polygon fill="#63b8ff" stroke="#63b8ff" points="207.69,-18.5 217.69,-15 207.69,-11.5 207.69,-18.5"/>
</a>
</g>
</g>
<!-- Node3 -->
<g id="Node000003" class="node">
<title>Node3</title>
<g id="a_Node000003"><a xlink:href="group__trace__perfetto.html#gad629e9eef1020af73740bc4ce4e84b9a" target="_top" xlink:title="Get a reference to the thread&#45;local GFLOP counter.">
<polygon fill="white" stroke="#666666" points="529,-30 414,-30 414,0 529,0 529,-30"/>
<text text-anchor="start" x="422" y="-18" font-family="Helvetica,sans-Serif" font-size="10.00">guanaqo::trace::get</text>
<text text-anchor="middle" x="471.5" y="-7" font-family="Helvetica,sans-Serif" font-size="10.00">_thread_gflop_count</text>
</a>
</g>
</g>
<!-- Node2&#45;&gt;Node3 -->
<g id="edge2_Node000002_Node000003" class="edge">
<title>Node2&#45;&gt;Node3</title>
<g id="a_edge2_Node000002_Node000003"><a xlink:title=" ">
<path fill="none" stroke="#63b8ff" d="M378.22,-15C386.71,-15 395.28,-15 403.6,-15"/>
<polygon fill="#63b8ff" stroke="#63b8ff" points="403.61,-18.5 413.61,-15 403.61,-11.5 403.61,-18.5"/>
</a>
</g>
</g>
</g>
</svg>
