<?xml version="1.0" encoding="UTF-8" standalone="no"?>
<!DOCTYPE svg PUBLIC "-//W3C//DTD SVG 1.1//EN"
 "http://www.w3.org/Graphics/SVG/1.1/DTD/svg11.dtd">
<!-- Generated by graphviz version 2.43.0 (0)
 -->
<!-- Title: guanaqo::TraceLogger::ScopedLog Pages: 1 -->
<svg width="148pt" height="335pt"
 viewBox="0.00 0.00 148.00 335.00" xmlns="http://www.w3.org/2000/svg" xmlns:xlink="http://www.w3.org/1999/xlink">

<svg id="main" version="1.1" xmlns="http://www.w3.org/2000/svg" xmlns:xlink="http://www.w3.org/1999/xlink" xml:space="preserve">

<style type="text/css"><![CDATA[
.node, .edge {opacity: 0.7;}
.node.selected, .edge.selected {opacity: 1;}
.edge:hover path { stroke: red; }
.edge:hover polygon { stroke: red; fill: red; }
]]></style>
<script type="application/ecmascript" xlink:href="svg.min.js"/>
<svg id="graph" class="graph">
<g id="graph0" class="graph" transform="scale(1 1) rotate(0) translate(4 331)">
<title>guanaqo::TraceLogger::ScopedLog</title>
<!-- Node1 -->
<g id="Node000001" class="node">
<title>Node1</title>
<g id="a_Node000001"><a xlink:title=" ">
<polygon fill="#999999" stroke="transparent" points="128.5,-150 11.5,-150 11.5,0 128.5,0 128.5,-150"/>
<text text-anchor="start" x="17" y="-138" font-family="Helvetica,sans-Serif" font-size="10.00">guanaqo::TraceLogger</text>
<text text-anchor="start" x="41" y="-127" font-family="Helvetica,sans-Serif" font-size="10.00">::ScopedLog</text>
<text text-anchor="start" x="19.5" y="-112" font-family="Helvetica,sans-Serif" font-size="10.00">+</text>
<text text-anchor="start" x="36" y="-112" font-family="Helvetica,sans-Serif" font-size="10.00">start_time_point</text>
<text text-anchor="start" x="19.5" y="-97" font-family="Helvetica,sans-Serif" font-size="10.00">+</text>
<text text-anchor="start" x="36" y="-97" font-family="Helvetica,sans-Serif" font-size="10.00">ScopedLog()</text>
<text text-anchor="start" x="19.5" y="-82" font-family="Helvetica,sans-Serif" font-size="10.00">+</text>
<text text-anchor="start" x="36" y="-82" font-family="Helvetica,sans-Serif" font-size="10.00">ScopedLog()</text>
<text text-anchor="start" x="19.5" y="-67" font-family="Helvetica,sans-Serif" font-size="10.00">+</text>
<text text-anchor="start" x="36" y="-67" font-family="Helvetica,sans-Serif" font-size="10.00">ScopedLog()</text>
<text text-anchor="start" x="19.5" y="-52" font-family="Helvetica,sans-Serif" font-size="10.00">+</text>
<text text-anchor="start" x="36" y="-52" font-family="Helvetica,sans-Serif" font-size="10.00">operator=()</text>
<text text-anchor="start" x="19.5" y="-37" font-family="Helvetica,sans-Serif" font-size="10.00">+</text>
<text text-anchor="start" x="36" y="-37" font-family="Helvetica,sans-Serif" font-size="10.00">ScopedLog()</text>
<text text-anchor="start" x="19.5" y="-22" font-family="Helvetica,sans-Serif" font-size="10.00">+</text>
<text text-anchor="start" x="36" y="-22" font-family="Helvetica,sans-Serif" font-size="10.00">operator=()</text>
<text text-anchor="start" x="19.5" y="-7" font-family="Helvetica,sans-Serif" font-size="10.00">+</text>
<text text-anchor="start" x="36" y="-7" font-family="Helvetica,sans-Serif" font-size="10.00">~ScopedLog()</text>
<polygon fill="#666666" stroke="#666666" points="12,-122 12,-122 129,-122 129,-122 12,-122"/>
<polygon fill="#666666" stroke="#666666" points="12,-107 12,-107 34,-107 34,-107 12,-107"/>
<polygon fill="#666666" stroke="#666666" points="34,-107 34,-107 129,-107 129,-107 34,-107"/>
<polygon fill="none" stroke="#666666" points="11.5,0 11.5,-150 128.5,-150 128.5,0 11.5,0"/>
</a>
</g>
</g>
<!-- Node2 -->
<g id="Node000002" class="node">
<title>Node2</title>
<g id="a_Node000002"><a xlink:href="structguanaqo_1_1TraceLogger_1_1Log.html" target="_top" xlink:title=" ">
<polygon fill="white" stroke="transparent" points="140,-327 0,-327 0,-203 140,-203 140,-327"/>
<text text-anchor="start" x="5" y="-315" font-family="Helvetica,sans-Serif" font-size="10.00">guanaqo::TraceLogger::Log</text>
<text text-anchor="start" x="21" y="-300" font-family="Helvetica,sans-Serif" font-size="10.00">+</text>
<text text-anchor="start" x="51" y="-300" font-family="Helvetica,sans-Serif" font-size="10.00">name</text>
<text text-anchor="start" x="21" y="-285" font-family="Helvetica,sans-Serif" font-size="10.00">+</text>
<text text-anchor="start" x="51" y="-285" font-family="Helvetica,sans-Serif" font-size="10.00">instance</text>
<text text-anchor="start" x="21" y="-270" font-family="Helvetica,sans-Serif" font-size="10.00">+</text>
<text text-anchor="start" x="51" y="-270" font-family="Helvetica,sans-Serif" font-size="10.00">start_time</text>
<text text-anchor="start" x="21" y="-255" font-family="Helvetica,sans-Serif" font-size="10.00">+</text>
<text text-anchor="start" x="51" y="-255" font-family="Helvetica,sans-Serif" font-size="10.00">duration</text>
<text text-anchor="start" x="21" y="-240" font-family="Helvetica,sans-Serif" font-size="10.00">+</text>
<text text-anchor="start" x="51" y="-240" font-family="Helvetica,sans-Serif" font-size="10.00">thread_id</text>
<text text-anchor="start" x="21" y="-225" font-family="Helvetica,sans-Serif" font-size="10.00">+</text>
<text text-anchor="start" x="51" y="-225" font-family="Helvetica,sans-Serif" font-size="10.00">flop_count</text>
<text text-anchor="start" x="68" y="-210" font-family="Helvetica,sans-Serif" font-size="10.00"> </text>
<polygon fill="#666666" stroke="#666666" points="0,-310 0,-310 140,-310 140,-310 0,-310"/>
<polygon fill="#666666" stroke="#666666" points="0,-220 0,-220 49,-220 49,-220 0,-220"/>
<polygon fill="#666666" stroke="#666666" points="49,-220 49,-220 140,-220 140,-220 49,-220"/>
<polygon fill="none" stroke="#666666" points="0,-203 0,-327 140,-327 140,-203 0,-203"/>
</a>
</g>
</g>
<!-- Node2&#45;&gt;Node1 -->
<g id="edge1_Node000001_Node000002" class="edge">
<title>Node2&#45;&gt;Node1</title>
<g id="a_edge1_Node000001_Node000002"><a xlink:title=" ">
<path fill="none" stroke="#63b8ff" d="M70,-202.96C70,-189.94 70,-175.96 70,-162.2"/>
<polygon fill="none" stroke="#63b8ff" points="70,-162.19 66,-156.19 70,-150.19 74,-156.19 70,-162.19"/>
</a>
</g>
<text text-anchor="start" x="73" y="-173.5" font-family="Helvetica,sans-Serif" font-size="10.00" fill="grey">+log</text>
</g>
</g>
</svg>
</svg>

<style type='text/css'>
<![CDATA[
[data-mouse-over-selected='false'] { opacity: 0.7; }
[data-mouse-over-selected='true']  { opacity: 1.0; }
]]>
</style>
<script type="application/ecmascript"><![CDATA[
document.addEventListener('DOMContentLoaded', (event) => {
  highlightEdges();
  highlightAdjacentNodes();
});
]]></script>
</svg>
