<?xml version="1.0" encoding="UTF-8" standalone="no"?>
<!DOCTYPE svg PUBLIC "-//W3C//DTD SVG 1.1//EN"
 "http://www.w3.org/Graphics/SVG/1.1/DTD/svg11.dtd">
<!-- Generated by graphviz version 2.43.0 (0)
 -->
<!-- Title: guanaqo::linalg::sparsity::SparsityConverter&lt; Sparsity, To &gt;::convert_values_copy Pages: 1 -->
<svg width="372pt" height="126pt"
 viewBox="0.00 0.00 372.00 126.00" xmlns="http://www.w3.org/2000/svg" xmlns:xlink="http://www.w3.org/1999/xlink">
<g id="graph0" class="graph" transform="scale(1 1) rotate(0) translate(4 122)">
<title>guanaqo::linalg::sparsity::SparsityConverter&lt; Sparsity, To &gt;::convert_values_copy</title>
<!-- Node1 -->
<g id="Node000001" class="node">
<title>Node1</title>
<g id="a_Node000001"><a xlink:title=" ">
<polygon fill="#999999" stroke="#666666" points="164,-70 0,-70 0,-29 164,-29 164,-70"/>
<text text-anchor="start" x="8" y="-58" font-family="Helvetica,sans-Serif" font-size="10.00">guanaqo::linalg::sparsity</text>
<text text-anchor="start" x="8" y="-47" font-family="Helvetica,sans-Serif" font-size="10.00">::SparsityConverter&lt; Sparsity,</text>
<text text-anchor="middle" x="82" y="-36" font-family="Helvetica,sans-Serif" font-size="10.00"> To &gt;::convert_values_copy</text>
</a>
</g>
</g>
<!-- Node2 -->
<g id="Node000002" class="node">
<title>Node2</title>
<g id="a_Node000002"><a xlink:href="structguanaqo_1_1linalg_1_1sparsity_1_1SparsityConverter_3_01Sparsity_00_01To_01_4.html#a84461d51578846cca4f2cf6ab08f813a" target="_top" xlink:title=" ">
<polygon fill="white" stroke="#666666" points="364,-100 200,-100 200,-59 364,-59 364,-100"/>
<text text-anchor="start" x="208" y="-88" font-family="Helvetica,sans-Serif" font-size="10.00">guanaqo::linalg::sparsity</text>
<text text-anchor="start" x="208" y="-77" font-family="Helvetica,sans-Serif" font-size="10.00">::SparsityConverter&lt; Sparsity,</text>
<text text-anchor="middle" x="282" y="-66" font-family="Helvetica,sans-Serif" font-size="10.00"> To &gt;::convert_values</text>
</a>
</g>
</g>
<!-- Node1&#45;&gt;Node2 -->
<g id="edge1_Node000001_Node000002" class="edge">
<title>Node1&#45;&gt;Node2</title>
<g id="a_edge1_Node000001_Node000002"><a xlink:title=" ">
<path fill="none" stroke="#63b8ff" d="M164.11,-61.79C172.55,-63.07 181.17,-64.37 189.72,-65.67"/>
<polygon fill="#63b8ff" stroke="#63b8ff" points="189.29,-69.14 199.7,-67.18 190.34,-62.22 189.29,-69.14"/>
</a>
</g>
</g>
<!-- Node3 -->
<g id="Node000003" class="node">
<title>Node3</title>
<g id="a_Node000003"><a xlink:href="structguanaqo_1_1linalg_1_1sparsity_1_1SparsityConverter_3_01Sparsity_00_01To_01_4.html#aa9ecbd383353b16b42881550e40b4457" target="_top" xlink:title=" ">
<polygon fill="white" stroke="#666666" points="364,-41 200,-41 200,0 364,0 364,-41"/>
<text text-anchor="start" x="208" y="-29" font-family="Helvetica,sans-Serif" font-size="10.00">guanaqo::linalg::sparsity</text>
<text text-anchor="start" x="208" y="-18" font-family="Helvetica,sans-Serif" font-size="10.00">::SparsityConverter&lt; Sparsity,</text>
<text text-anchor="middle" x="282" y="-7" font-family="Helvetica,sans-Serif" font-size="10.00"> To &gt;::work_size</text>
</a>
</g>
</g>
<!-- Node1&#45;&gt;Node3 -->
<g id="edge3_Node000001_Node000003" class="edge">
<title>Node1&#45;&gt;Node3</title>
<g id="a_edge3_Node000001_Node000003"><a xlink:title=" ">
<path fill="none" stroke="#63b8ff" d="M164.11,-37.62C172.55,-36.38 181.17,-35.12 189.72,-33.87"/>
<polygon fill="#63b8ff" stroke="#63b8ff" points="190.31,-37.32 199.7,-32.41 189.3,-30.39 190.31,-37.32"/>
</a>
</g>
</g>
<!-- Node2&#45;&gt;Node2 -->
<g id="edge2_Node000002_Node000002" class="edge">
<title>Node2&#45;&gt;Node2</title>
<g id="a_edge2_Node000002_Node000002"><a xlink:title=" ">
<path fill="none" stroke="#63b8ff" d="M245.24,-100.1C241.23,-109.65 253.48,-118 282,-118 299.82,-118 311.29,-114.74 316.41,-109.96"/>
<polygon fill="#63b8ff" stroke="#63b8ff" points="319.85,-110.64 318.76,-100.1 313.04,-109.01 319.85,-110.64"/>
</a>
</g>
</g>
</g>
</svg>
