<?xml version="1.0" encoding="UTF-8" standalone="no"?>
<!DOCTYPE svg PUBLIC "-//W3C//DTD SVG 1.1//EN"
 "http://www.w3.org/Graphics/SVG/1.1/DTD/svg11.dtd">
<!-- Generated by graphviz version 2.43.0 (0)
 -->
<!-- Title: guanaqo::set_intersection_iterable&lt; R1, R2, Comp, Proj1, Proj2 &gt;::iter_t&lt; I1, S1, I2, S2 &gt; Pages: 1 -->
<svg width="225pt" height="327pt"
 viewBox="0.00 0.00 225.00 327.00" xmlns="http://www.w3.org/2000/svg" xmlns:xlink="http://www.w3.org/1999/xlink">

<svg id="main" version="1.1" xmlns="http://www.w3.org/2000/svg" xmlns:xlink="http://www.w3.org/1999/xlink" xml:space="preserve">

<style type="text/css"><![CDATA[
.node, .edge {opacity: 0.7;}
.node.selected, .edge.selected {opacity: 1;}
.edge:hover path { stroke: red; }
.edge:hover polygon { stroke: red; fill: red; }
]]></style>
<script type="application/ecmascript" xlink:href="svg.min.js"/>
<svg id="graph" class="graph">
<g id="graph0" class="graph" transform="scale(1 1) rotate(0) translate(4 323)">
<title>guanaqo::set_intersection_iterable&lt; R1, R2, Comp, Proj1, Proj2 &gt;::iter_t&lt; I1, S1, I2, S2 &gt;</title>
<!-- Node1 -->
<g id="Node000001" class="node">
<title>Node1</title>
<g id="a_Node000001"><a xlink:title=" ">
<polygon fill="#999999" stroke="transparent" points="172.5,-217 35.5,-217 35.5,0 172.5,0 172.5,-217"/>
<text text-anchor="start" x="41" y="-204.5" font-family="Helvetica,sans-Serif" font-size="10.00">guanaqo::set_intersection</text>
<text text-anchor="start" x="41" y="-193.5" font-family="Helvetica,sans-Serif" font-size="10.00">_iterable&lt; R1, R2, Comp,</text>
<text text-anchor="start" x="41" y="-182.5" font-family="Helvetica,sans-Serif" font-size="10.00"> Proj1, Proj2 &gt;::iter_t</text>
<text text-anchor="start" x="63" y="-171.5" font-family="Helvetica,sans-Serif" font-size="10.00">&lt; I1, S1, I2, S2 &gt;</text>
<text text-anchor="start" x="52.5" y="-156.5" font-family="Helvetica,sans-Serif" font-size="10.00">+</text>
<text text-anchor="start" x="78" y="-156.5" font-family="Helvetica,sans-Serif" font-size="10.00">comp</text>
<text text-anchor="start" x="52.5" y="-141.5" font-family="Helvetica,sans-Serif" font-size="10.00">+</text>
<text text-anchor="start" x="78" y="-141.5" font-family="Helvetica,sans-Serif" font-size="10.00">proj1</text>
<text text-anchor="start" x="52.5" y="-126.5" font-family="Helvetica,sans-Serif" font-size="10.00">+</text>
<text text-anchor="start" x="78" y="-126.5" font-family="Helvetica,sans-Serif" font-size="10.00">proj2</text>
<text text-anchor="start" x="52.5" y="-111.5" font-family="Helvetica,sans-Serif" font-size="10.00">+</text>
<text text-anchor="start" x="78" y="-111.5" font-family="Helvetica,sans-Serif" font-size="10.00">iter_t()</text>
<text text-anchor="start" x="52.5" y="-96.5" font-family="Helvetica,sans-Serif" font-size="10.00">+</text>
<text text-anchor="start" x="78" y="-96.5" font-family="Helvetica,sans-Serif" font-size="10.00">iter_t()</text>
<text text-anchor="start" x="52.5" y="-81.5" font-family="Helvetica,sans-Serif" font-size="10.00">+</text>
<text text-anchor="start" x="78" y="-81.5" font-family="Helvetica,sans-Serif" font-size="10.00">operator!=()</text>
<text text-anchor="start" x="52.5" y="-66.5" font-family="Helvetica,sans-Serif" font-size="10.00">+</text>
<text text-anchor="start" x="78" y="-66.5" font-family="Helvetica,sans-Serif" font-size="10.00">operator==()</text>
<text text-anchor="start" x="52.5" y="-51.5" font-family="Helvetica,sans-Serif" font-size="10.00">+</text>
<text text-anchor="start" x="78" y="-51.5" font-family="Helvetica,sans-Serif" font-size="10.00">operator++()</text>
<text text-anchor="start" x="52.5" y="-36.5" font-family="Helvetica,sans-Serif" font-size="10.00">+</text>
<text text-anchor="start" x="78" y="-36.5" font-family="Helvetica,sans-Serif" font-size="10.00">operator++()</text>
<text text-anchor="start" x="52.5" y="-21.5" font-family="Helvetica,sans-Serif" font-size="10.00">+</text>
<text text-anchor="start" x="78" y="-21.5" font-family="Helvetica,sans-Serif" font-size="10.00">operator*()</text>
<text text-anchor="start" x="52.5" y="-6.5" font-family="Helvetica,sans-Serif" font-size="10.00">+</text>
<text text-anchor="start" x="78" y="-6.5" font-family="Helvetica,sans-Serif" font-size="10.00">advance()</text>
<polygon fill="#666666" stroke="#666666" points="36,-166.5 36,-166.5 173,-166.5 173,-166.5 36,-166.5"/>
<polygon fill="#666666" stroke="#666666" points="36,-121.5 36,-121.5 76,-121.5 76,-121.5 36,-121.5"/>
<polygon fill="#666666" stroke="#666666" points="76,-121.5 76,-121.5 173,-121.5 173,-121.5 76,-121.5"/>
<polygon fill="none" stroke="#666666" points="35.5,0 35.5,-217 172.5,-217 172.5,0 35.5,0"/>
</a>
</g>
</g>
<!-- Node2 -->
<g id="Node000002" class="node">
<title>Node2</title>
<g id="a_Node000002"><a xlink:title=" ">
<polygon fill="white" stroke="transparent" points="20,-319 0,-319 0,-270 20,-270 20,-319"/>
<text text-anchor="start" x="5" y="-306.5" font-family="Helvetica,sans-Serif" font-size="10.00">I1</text>
<text text-anchor="start" x="8" y="-291.5" font-family="Helvetica,sans-Serif" font-size="10.00"> </text>
<text text-anchor="start" x="8" y="-276.5" font-family="Helvetica,sans-Serif" font-size="10.00"> </text>
<polygon fill="#666666" stroke="#666666" points="0,-301.5 0,-301.5 20,-301.5 20,-301.5 0,-301.5"/>
<polygon fill="#666666" stroke="#666666" points="0,-286.5 0,-286.5 20,-286.5 20,-286.5 0,-286.5"/>
<polygon fill="none" stroke="#666666" points="0,-270 0,-319 20,-319 20,-270 0,-270"/>
</a>
</g>
</g>
<!-- Node2&#45;&gt;Node1 -->
<g id="edge1_Node000001_Node000002" class="edge">
<title>Node2&#45;&gt;Node1</title>
<g id="a_edge1_Node000001_Node000002"><a xlink:title=" ">
<path fill="none" stroke="#63b8ff" d="M16.32,-269.98C19.57,-259.12 23.92,-246.18 29,-235 30.05,-232.7 31.12,-230.39 32.23,-228.07"/>
<polygon fill="none" stroke="#63b8ff" points="32.29,-227.94 31.35,-220.79 37.59,-217.18 38.53,-224.33 32.29,-227.94"/>
</a>
</g>
<text text-anchor="start" x="32" y="-240.5" font-family="Helvetica,sans-Serif" font-size="10.00" fill="grey">+first1</text>
</g>
<!-- Node3 -->
<g id="Node000003" class="node">
<title>Node3</title>
<g id="a_Node000003"><a xlink:title=" ">
<polygon fill="white" stroke="transparent" points="84.5,-319 61.5,-319 61.5,-270 84.5,-270 84.5,-319"/>
<text text-anchor="start" x="67" y="-306.5" font-family="Helvetica,sans-Serif" font-size="10.00">S1</text>
<text text-anchor="start" x="71.5" y="-291.5" font-family="Helvetica,sans-Serif" font-size="10.00"> </text>
<text text-anchor="start" x="71.5" y="-276.5" font-family="Helvetica,sans-Serif" font-size="10.00"> </text>
<polygon fill="#666666" stroke="#666666" points="62,-301.5 62,-301.5 85,-301.5 85,-301.5 62,-301.5"/>
<polygon fill="#666666" stroke="#666666" points="62,-286.5 62,-286.5 85,-286.5 85,-286.5 62,-286.5"/>
<polygon fill="none" stroke="#666666" points="61.5,-270 61.5,-319 84.5,-319 84.5,-270 61.5,-270"/>
</a>
</g>
</g>
<!-- Node3&#45;&gt;Node1 -->
<g id="edge2_Node000001_Node000003" class="edge">
<title>Node3&#45;&gt;Node1</title>
<g id="a_edge2_Node000001_Node000003"><a xlink:title=" ">
<path fill="none" stroke="#63b8ff" d="M72.24,-269.79C72.2,-259.12 72.56,-246.39 74,-235 74.24,-233.07 74.51,-231.12 74.79,-229.17"/>
<polygon fill="none" stroke="#63b8ff" points="74.83,-228.9 71.81,-222.35 76.69,-217.04 79.71,-223.59 74.83,-228.9"/>
</a>
</g>
<text text-anchor="start" x="77.5" y="-240.5" font-family="Helvetica,sans-Serif" font-size="10.00" fill="grey">+last1</text>
</g>
<!-- Node4 -->
<g id="Node000004" class="node">
<title>Node4</title>
<g id="a_Node000004"><a xlink:title=" ">
<polygon fill="white" stroke="transparent" points="145,-319 125,-319 125,-270 145,-270 145,-319"/>
<text text-anchor="start" x="130" y="-306.5" font-family="Helvetica,sans-Serif" font-size="10.00">I2</text>
<text text-anchor="start" x="133" y="-291.5" font-family="Helvetica,sans-Serif" font-size="10.00"> </text>
<text text-anchor="start" x="133" y="-276.5" font-family="Helvetica,sans-Serif" font-size="10.00"> </text>
<polygon fill="#666666" stroke="#666666" points="125,-301.5 125,-301.5 145,-301.5 145,-301.5 125,-301.5"/>
<polygon fill="#666666" stroke="#666666" points="125,-286.5 125,-286.5 145,-286.5 145,-286.5 125,-286.5"/>
<polygon fill="none" stroke="#666666" points="125,-270 125,-319 145,-319 145,-270 125,-270"/>
</a>
</g>
</g>
<!-- Node4&#45;&gt;Node1 -->
<g id="edge3_Node000001_Node000004" class="edge">
<title>Node4&#45;&gt;Node1</title>
<g id="a_edge3_Node000001_Node000004"><a xlink:title=" ">
<path fill="none" stroke="#63b8ff" d="M131.01,-269.82C129.13,-258.68 126.74,-244.49 124.16,-229.16"/>
<polygon fill="none" stroke="#63b8ff" points="124.15,-229.08 119.21,-223.83 122.15,-217.25 127.09,-222.5 124.15,-229.08"/>
</a>
</g>
<text text-anchor="start" x="130" y="-240.5" font-family="Helvetica,sans-Serif" font-size="10.00" fill="grey">+first2</text>
</g>
<!-- Node5 -->
<g id="Node000005" class="node">
<title>Node5</title>
<g id="a_Node000005"><a xlink:title=" ">
<polygon fill="white" stroke="transparent" points="209.5,-319 186.5,-319 186.5,-270 209.5,-270 209.5,-319"/>
<text text-anchor="start" x="192" y="-306.5" font-family="Helvetica,sans-Serif" font-size="10.00">S2</text>
<text text-anchor="start" x="196.5" y="-291.5" font-family="Helvetica,sans-Serif" font-size="10.00"> </text>
<text text-anchor="start" x="196.5" y="-276.5" font-family="Helvetica,sans-Serif" font-size="10.00"> </text>
<polygon fill="#666666" stroke="#666666" points="187,-301.5 187,-301.5 210,-301.5 210,-301.5 187,-301.5"/>
<polygon fill="#666666" stroke="#666666" points="187,-286.5 187,-286.5 210,-286.5 210,-286.5 187,-286.5"/>
<polygon fill="none" stroke="#666666" points="186.5,-270 186.5,-319 209.5,-319 209.5,-270 186.5,-270"/>
</a>
</g>
</g>
<!-- Node5&#45;&gt;Node1 -->
<g id="edge4_Node000001_Node000005" class="edge">
<title>Node5&#45;&gt;Node1</title>
<g id="a_edge4_Node000001_Node000005"><a xlink:title=" ">
<path fill="none" stroke="#63b8ff" d="M187.41,-269.73C182.55,-259.04 176.63,-246.32 171,-235 169.86,-232.71 168.71,-230.4 167.54,-228.08"/>
<polygon fill="none" stroke="#63b8ff" points="167.4,-227.81 161.12,-224.27 161.97,-217.11 168.25,-220.65 167.4,-227.81"/>
</a>
</g>
<text text-anchor="start" x="181.5" y="-240.5" font-family="Helvetica,sans-Serif" font-size="10.00" fill="grey">+last2</text>
</g>
</g>
</svg>
</svg>

<style type='text/css'>
<![CDATA[
[data-mouse-over-selected='false'] { opacity: 0.7; }
[data-mouse-over-selected='true']  { opacity: 1.0; }
]]>
</style>
<script type="application/ecmascript"><![CDATA[
document.addEventListener('DOMContentLoaded', (event) => {
  highlightEdges();
  highlightAdjacentNodes();
});
]]></script>
</svg>
