<?xml version="1.0" encoding="UTF-8" standalone="no"?>
<!DOCTYPE svg PUBLIC "-//W3C//DTD SVG 1.1//EN"
 "http://www.w3.org/Graphics/SVG/1.1/DTD/svg11.dtd">
<!-- Generated by graphviz version 2.43.0 (0)
 -->
<!-- Title: guanaqo::TypeErased::TypeErased Pages: 1 -->
<!--zoomable 609 -->

<svg id="main" version="1.1" xmlns="http://www.w3.org/2000/svg" xmlns:xlink="http://www.w3.org/1999/xlink" xml:space="preserve" onload="init(evt)">

<style type="text/css"><![CDATA[
.node, .edge {opacity: 0.7;}
.node.selected, .edge.selected {opacity: 1;}
.edge:hover path { stroke: red; }
.edge:hover polygon { stroke: red; fill: red; }
]]></style>

<defs>
  <circle id="rim" cx="0" cy="0" r="7"/>
  <circle id="rim2" cx="0" cy="0" r="3.5"/>
  <g id="zoomPlus">
    <use xlink:href="#rim" fill="#404040"><set attributeName="fill" to="#808080" begin="zoomplus.mouseover" end="zoomplus.mouseout"/></use>
    <path d="M-4,0h8M0,-4v8" fill="none" stroke="white" stroke-width="1.5" pointer-events="none"/>
  </g>
  <g id="zoomMin">
    <use xlink:href="#rim" fill="#404040"><set attributeName="fill" to="#808080" begin="zoomminus.mouseover" end="zoomminus.mouseout"/></use>
    <path d="M-4,0h8" fill="none" stroke="white" stroke-width="1.5" pointer-events="none"/>
  </g>
  <g id="arrowUp" transform="translate(30 24)">
    <use xlink:href="#rim"/>
    <path pointer-events="none" fill="none" stroke="white" stroke-width="1.5" d="M0,-3.0v7 M-2.5,-0.5L0,-3.0L2.5,-0.5"/>
  </g>
  <g id="arrowRight" transform="rotate(90) translate(36 -43)">
    <use xlink:href="#rim"/>
    <path pointer-events="none" fill="none" stroke="white" stroke-width="1.5" d="M0,-3.0v7 M-2.5,-0.5L0,-3.0L2.5,-0.5"/>
  </g>
  <g id="arrowDown" transform="rotate(180) translate(-30 -48)">
    <use xlink:href="#rim"/>
    <path pointer-events="none" fill="none" stroke="white" stroke-width="1.5" d="M0,-3.0v7 M-2.5,-0.5L0,-3.0L2.5,-0.5"/>
  </g>
  <g id="arrowLeft" transform="rotate(270) translate(-36 17)">
    <use xlink:href="#rim"/>
    <path pointer-events="none" fill="none" stroke="white" stroke-width="1.5" d="M0,-3.0v7 M-2.5,-0.5L0,-3.0L2.5,-0.5"/>
  </g>
  <g id="resetDef">
    <use xlink:href="#rim2" fill="#404040"><set attributeName="fill" to="#808080" begin="reset.mouseover" end="reset.mouseout"/></use>
  </g>
</defs>
<script type="application/ecmascript">
var viewWidth = 482;
var viewHeight = 609;
var sectionId = 'dynsection-1';
</script>
<script type="application/ecmascript" xlink:href="svg.min.js"/>
<svg id="graph" class="graph">
<g id="viewport">
<title>guanaqo::TypeErased::TypeErased</title>
<!-- Node1 -->
<g id="Node000001" class="node">
<title>Node1</title>
<g id="a_Node000001"><a xlink:title="Default constructor.">
<polygon fill="#999999" stroke="#666666" points="474,-270 354,-270 354,-240 474,-240 474,-270"/>
<text text-anchor="start" x="362" y="-258" font-family="Helvetica,sans-Serif" font-size="10.00">guanaqo::TypeErased</text>
<text text-anchor="middle" x="414" y="-247" font-family="Helvetica,sans-Serif" font-size="10.00">::TypeErased</text>
</a>
</g>
</g>
<!-- Node2 -->
<g id="Node000002" class="node">
<title>Node2</title>
<g id="a_Node000002"><a xlink:href="structguanaqo_1_1TypeErased_1_1Deallocator.html#a4ff3e80530b41634ed9da9e4389ee2b3" target="_top" xlink:title=" ">
<polygon fill="white" stroke="#666666" points="318,-505 177,-505 177,-475 318,-475 318,-505"/>
<text text-anchor="start" x="185" y="-493" font-family="Helvetica,sans-Serif" font-size="10.00">guanaqo::TypeErased</text>
<text text-anchor="middle" x="247.5" y="-482" font-family="Helvetica,sans-Serif" font-size="10.00">::Deallocator::Deallocator</text>
</a>
</g>
</g>
<!-- Node1&#45;&gt;Node2 -->
<g id="edge1_Node000001_Node000002" class="edge">
<title>Node1&#45;&gt;Node2</title>
<g id="a_edge1_Node000001_Node000002"><a xlink:title=" ">
<path fill="none" stroke="#63b8ff" d="M403.93,-279.83C389.64,-316.67 359.22,-386.74 318,-436 305.15,-451.35 287.26,-465.13 272.84,-474.93"/>
<polygon fill="#63b8ff" stroke="#63b8ff" points="407.24,-280.96 407.52,-270.36 400.7,-278.47 407.24,-280.96"/>
</a>
</g>
</g>
<!-- Node7 -->
<g id="Node000007" class="node">
<title>Node7</title>
<g id="a_Node000007"><a xlink:href="classguanaqo_1_1TypeErased.html#a36693eaff4f3d29737ef091995b3631f" target="_top" xlink:title="Copy constructor.">
<polygon fill="white" stroke="#666666" points="130.5,-409 10.5,-409 10.5,-379 130.5,-379 130.5,-409"/>
<text text-anchor="start" x="18.5" y="-397" font-family="Helvetica,sans-Serif" font-size="10.00">guanaqo::TypeErased</text>
<text text-anchor="middle" x="70.5" y="-386" font-family="Helvetica,sans-Serif" font-size="10.00">::TypeErased</text>
</a>
</g>
</g>
<!-- Node1&#45;&gt;Node7 -->
<g id="edge6_Node000001_Node000007" class="edge">
<title>Node1&#45;&gt;Node7</title>
<g id="a_edge6_Node000001_Node000007"><a xlink:title=" ">
<path fill="none" stroke="#63b8ff" d="M403.4,-279.79C389.74,-311.18 361.44,-363.96 318,-387 260.04,-417.74 183.14,-414.19 130.74,-406.38"/>
<polygon fill="#63b8ff" stroke="#63b8ff" points="406.69,-280.98 407.32,-270.41 400.23,-278.28 406.69,-280.98"/>
</a>
</g>
</g>
<!-- Node8 -->
<g id="Node000008" class="node">
<title>Node8</title>
<g id="a_Node000008"><a xlink:href="classguanaqo_1_1TypeErased.html#aeb0fa9e489bf394bab8a112990184133" target="_top" xlink:title="Copy constructor (allocator aware).">
<polygon fill="white" stroke="#666666" points="130.5,-361 10.5,-361 10.5,-331 130.5,-331 130.5,-361"/>
<text text-anchor="start" x="18.5" y="-349" font-family="Helvetica,sans-Serif" font-size="10.00">guanaqo::TypeErased</text>
<text text-anchor="middle" x="70.5" y="-338" font-family="Helvetica,sans-Serif" font-size="10.00">::TypeErased</text>
</a>
</g>
</g>
<!-- Node1&#45;&gt;Node8 -->
<g id="edge7_Node000001_Node000008" class="edge">
<title>Node1&#45;&gt;Node8</title>
<g id="a_edge7_Node000001_Node000008"><a xlink:title=" ">
<path fill="none" stroke="#63b8ff" d="M400.51,-279.15C385.17,-305.86 356.38,-347.43 318,-365 251.46,-395.46 164.21,-376.92 113.35,-361.13"/>
<polygon fill="#63b8ff" stroke="#63b8ff" points="403.58,-280.83 405.37,-270.39 397.46,-277.43 403.58,-280.83"/>
</a>
</g>
</g>
<!-- Node9 -->
<g id="Node000009" class="node">
<title>Node9</title>
<g id="a_Node000009"><a xlink:href="classguanaqo_1_1TypeErased.html#ad5326e4943d30d90342fb241d4ba372d" target="_top" xlink:title="Default constructor (allocator aware).">
<polygon fill="white" stroke="#666666" points="307.5,-270 187.5,-270 187.5,-240 307.5,-240 307.5,-270"/>
<text text-anchor="start" x="195.5" y="-258" font-family="Helvetica,sans-Serif" font-size="10.00">guanaqo::TypeErased</text>
<text text-anchor="middle" x="247.5" y="-247" font-family="Helvetica,sans-Serif" font-size="10.00">::TypeErased</text>
</a>
</g>
</g>
<!-- Node1&#45;&gt;Node9 -->
<g id="edge8_Node000001_Node000009" class="edge">
<title>Node1&#45;&gt;Node9</title>
<g id="a_edge8_Node000001_Node000009"><a xlink:title=" ">
<path fill="none" stroke="#63b8ff" d="M343.27,-255C331.37,-255 319.11,-255 307.53,-255"/>
<polygon fill="#63b8ff" stroke="#63b8ff" points="343.61,-258.5 353.61,-255 343.61,-251.5 343.61,-258.5"/>
</a>
</g>
</g>
<!-- Node10 -->
<g id="Node000010" class="node">
<title>Node10</title>
<g id="a_Node000010"><a xlink:href="classguanaqo_1_1TypeErased.html#aaf7f9da50fe2e295f4b90942a84d68a9" target="_top" xlink:title="Copy constructor (allocator aware).">
<polygon fill="white" stroke="#666666" points="307.5,-222 187.5,-222 187.5,-192 307.5,-192 307.5,-222"/>
<text text-anchor="start" x="195.5" y="-210" font-family="Helvetica,sans-Serif" font-size="10.00">guanaqo::TypeErased</text>
<text text-anchor="middle" x="247.5" y="-199" font-family="Helvetica,sans-Serif" font-size="10.00">::TypeErased</text>
</a>
</g>
</g>
<!-- Node1&#45;&gt;Node10 -->
<g id="edge9_Node000001_Node000010" class="edge">
<title>Node1&#45;&gt;Node10</title>
<g id="a_edge9_Node000001_Node000010"><a xlink:title=" ">
<path fill="none" stroke="#63b8ff" d="M351.56,-237.07C334.56,-232.11 316.28,-226.78 299.91,-222"/>
<polygon fill="#63b8ff" stroke="#63b8ff" points="350.82,-240.5 361.4,-239.94 352.78,-233.78 350.82,-240.5"/>
</a>
</g>
</g>
<!-- Node11 -->
<g id="Node000011" class="node">
<title>Node11</title>
<g id="a_Node000011"><a xlink:href="classguanaqo_1_1TypeErased.html#af134b69ebaee85a223add022382de1ec" target="_top" xlink:title="Move constructor (allocator aware).">
<polygon fill="white" stroke="#666666" points="307.5,-174 187.5,-174 187.5,-144 307.5,-144 307.5,-174"/>
<text text-anchor="start" x="195.5" y="-162" font-family="Helvetica,sans-Serif" font-size="10.00">guanaqo::TypeErased</text>
<text text-anchor="middle" x="247.5" y="-151" font-family="Helvetica,sans-Serif" font-size="10.00">::TypeErased</text>
</a>
</g>
</g>
<!-- Node1&#45;&gt;Node11 -->
<g id="edge10_Node000001_Node000011" class="edge">
<title>Node1&#45;&gt;Node11</title>
<g id="a_edge10_Node000001_Node000011"><a xlink:title=" ">
<path fill="none" stroke="#63b8ff" d="M388.77,-233.19C370.4,-217.55 343.96,-196.86 318,-183 311.81,-179.69 305.07,-176.7 298.3,-174.04"/>
<polygon fill="#63b8ff" stroke="#63b8ff" points="386.76,-236.08 396.61,-239.98 391.34,-230.79 386.76,-236.08"/>
</a>
</g>
</g>
<!-- Node12 -->
<g id="Node000012" class="node">
<title>Node12</title>
<g id="a_Node000012"><a xlink:href="classguanaqo_1_1TypeErased.html#a9405414319ef51988ce9e83a5a9c9814" target="_top" xlink:title="Move constructor.">
<polygon fill="white" stroke="#666666" points="307.5,-126 187.5,-126 187.5,-96 307.5,-96 307.5,-126"/>
<text text-anchor="start" x="195.5" y="-114" font-family="Helvetica,sans-Serif" font-size="10.00">guanaqo::TypeErased</text>
<text text-anchor="middle" x="247.5" y="-103" font-family="Helvetica,sans-Serif" font-size="10.00">::TypeErased</text>
</a>
</g>
</g>
<!-- Node1&#45;&gt;Node12 -->
<g id="edge11_Node000001_Node000012" class="edge">
<title>Node1&#45;&gt;Node12</title>
<g id="a_edge11_Node000001_Node000012"><a xlink:title=" ">
<path fill="none" stroke="#63b8ff" d="M399.74,-231.01C383.69,-204.06 354.26,-160.71 318,-135 313.21,-131.6 307.9,-128.65 302.41,-126.1"/>
<polygon fill="#63b8ff" stroke="#63b8ff" points="396.8,-232.92 404.85,-239.81 402.85,-229.41 396.8,-232.92"/>
</a>
</g>
</g>
<!-- Node13 -->
<g id="Node000013" class="node">
<title>Node13</title>
<g id="a_Node000013"><a xlink:href="classguanaqo_1_1TypeErased.html#a4cc7e95c25a2450ab9ab37b1abd1bd28" target="_top" xlink:title="Move constructor (allocator aware).">
<polygon fill="white" stroke="#666666" points="307.5,-78 187.5,-78 187.5,-48 307.5,-48 307.5,-78"/>
<text text-anchor="start" x="195.5" y="-66" font-family="Helvetica,sans-Serif" font-size="10.00">guanaqo::TypeErased</text>
<text text-anchor="middle" x="247.5" y="-55" font-family="Helvetica,sans-Serif" font-size="10.00">::TypeErased</text>
</a>
</g>
</g>
<!-- Node1&#45;&gt;Node13 -->
<g id="edge12_Node000001_Node000013" class="edge">
<title>Node1&#45;&gt;Node13</title>
<g id="a_edge12_Node000001_Node000013"><a xlink:title=" ">
<path fill="none" stroke="#63b8ff" d="M405.15,-229.7C392.55,-193.13 364.4,-125.64 318,-87 313.88,-83.57 309.24,-80.62 304.36,-78.08"/>
<polygon fill="#63b8ff" stroke="#63b8ff" points="401.96,-231.19 408.43,-239.57 408.6,-228.98 401.96,-231.19"/>
</a>
</g>
</g>
<!-- Node14 -->
<g id="Node000014" class="node">
<title>Node14</title>
<g id="a_Node000014"><a xlink:href="classguanaqo_1_1TypeErased.html#a9a9a3fb15c4b0c9ee907e0c790175ee7" target="_top" xlink:title=" ">
<polygon fill="white" stroke="#666666" points="307.5,-356 187.5,-356 187.5,-326 307.5,-326 307.5,-356"/>
<text text-anchor="start" x="195.5" y="-344" font-family="Helvetica,sans-Serif" font-size="10.00">guanaqo::TypeErased</text>
<text text-anchor="middle" x="247.5" y="-333" font-family="Helvetica,sans-Serif" font-size="10.00">::do_copy_assign</text>
</a>
</g>
</g>
<!-- Node1&#45;&gt;Node14 -->
<g id="edge13_Node000001_Node000014" class="edge">
<title>Node1&#45;&gt;Node14</title>
<g id="a_edge13_Node000001_Node000014"><a xlink:title=" ">
<path fill="none" stroke="#63b8ff" d="M381.63,-275.39C363.42,-286.83 339.83,-300.97 318,-312 308.31,-316.89 297.6,-321.66 287.55,-325.87"/>
<polygon fill="#63b8ff" stroke="#63b8ff" points="383.53,-278.33 390.11,-270.02 379.79,-272.42 383.53,-278.33"/>
</a>
</g>
</g>
<!-- Node15 -->
<g id="Node000015" class="node">
<title>Node15</title>
<g id="a_Node000015"><a xlink:href="classguanaqo_1_1TypeErased.html#a200f8ff694b5ae333d19578655c51b29" target="_top" xlink:title="Copy assignment.">
<polygon fill="white" stroke="#666666" points="130.5,-313 10.5,-313 10.5,-283 130.5,-283 130.5,-313"/>
<text text-anchor="start" x="18.5" y="-301" font-family="Helvetica,sans-Serif" font-size="10.00">guanaqo::TypeErased</text>
<text text-anchor="middle" x="70.5" y="-290" font-family="Helvetica,sans-Serif" font-size="10.00">::operator=</text>
</a>
</g>
</g>
<!-- Node1&#45;&gt;Node15 -->
<g id="edge17_Node000001_Node000015" class="edge">
<title>Node1&#45;&gt;Node15</title>
<g id="a_edge17_Node000001_Node000015"><a xlink:title=" ">
<path fill="none" stroke="#63b8ff" d="M350.35,-272.43C339.62,-274.95 328.54,-277.28 318,-279 254.46,-289.4 180.75,-294.13 130.61,-296.27"/>
<polygon fill="#63b8ff" stroke="#63b8ff" points="351.18,-275.83 360.08,-270.07 349.53,-269.03 351.18,-275.83"/>
</a>
</g>
</g>
<!-- Node16 -->
<g id="Node000016" class="node">
<title>Node16</title>
<g id="a_Node000016"><a xlink:href="classguanaqo_1_1TypeErased.html#afdb83d79e0f8a75cf16a166a3888eab9" target="_top" xlink:title="Move assignment.">
<polygon fill="white" stroke="#666666" points="307.5,-30 187.5,-30 187.5,0 307.5,0 307.5,-30"/>
<text text-anchor="start" x="195.5" y="-18" font-family="Helvetica,sans-Serif" font-size="10.00">guanaqo::TypeErased</text>
<text text-anchor="middle" x="247.5" y="-7" font-family="Helvetica,sans-Serif" font-size="10.00">::operator=</text>
</a>
</g>
</g>
<!-- Node1&#45;&gt;Node16 -->
<g id="edge18_Node000001_Node000016" class="edge">
<title>Node1&#45;&gt;Node16</title>
<g id="a_edge18_Node000001_Node000016"><a xlink:title=" ">
<path fill="none" stroke="#63b8ff" d="M408.71,-229.74C399.81,-185.03 375.2,-91.7 318,-39 314.24,-35.54 309.97,-32.58 305.42,-30.04"/>
<polygon fill="#63b8ff" stroke="#63b8ff" points="405.3,-230.58 410.6,-239.76 412.18,-229.28 405.3,-230.58"/>
</a>
</g>
</g>
<!-- Node3 -->
<g id="Node000003" class="node">
<title>Node3</title>
<g id="a_Node000003"><a xlink:href="structguanaqo_1_1TypeErased_1_1Deallocator.html#a3521af77343bff13033d5d594d60379c" target="_top" xlink:title=" ">
<polygon fill="white" stroke="#666666" points="141,-553 0,-553 0,-523 141,-523 141,-553"/>
<text text-anchor="start" x="8" y="-541" font-family="Helvetica,sans-Serif" font-size="10.00">guanaqo::TypeErased</text>
<text text-anchor="middle" x="70.5" y="-530" font-family="Helvetica,sans-Serif" font-size="10.00">::Deallocator::Deallocator</text>
</a>
</g>
</g>
<!-- Node2&#45;&gt;Node3 -->
<g id="edge2_Node000002_Node000003" class="edge">
<title>Node2&#45;&gt;Node3</title>
<g id="a_edge2_Node000002_Node000003"><a xlink:title=" ">
<path fill="none" stroke="#63b8ff" d="M181.9,-507.72C163.6,-512.74 143.85,-518.15 126.2,-523"/>
<polygon fill="#63b8ff" stroke="#63b8ff" points="182.89,-511.08 191.61,-505.06 181.04,-504.33 182.89,-511.08"/>
</a>
</g>
</g>
<!-- Node4 -->
<g id="Node000004" class="node">
<title>Node4</title>
<g id="a_Node000004"><a xlink:href="structguanaqo_1_1TypeErased_1_1Deallocator.html#a3fe2afce7c95dab44fb2f3da30f87fde" target="_top" xlink:title=" ">
<polygon fill="white" stroke="#666666" points="141,-505 0,-505 0,-475 141,-475 141,-505"/>
<text text-anchor="start" x="8" y="-493" font-family="Helvetica,sans-Serif" font-size="10.00">guanaqo::TypeErased</text>
<text text-anchor="middle" x="70.5" y="-482" font-family="Helvetica,sans-Serif" font-size="10.00">::Deallocator::Deallocator</text>
</a>
</g>
</g>
<!-- Node2&#45;&gt;Node4 -->
<g id="edge3_Node000002_Node000004" class="edge">
<title>Node2&#45;&gt;Node4</title>
<g id="a_edge3_Node000002_Node000004"><a xlink:title=" ">
<path fill="none" stroke="#63b8ff" d="M166.58,-490C158.11,-490 149.55,-490 141.21,-490"/>
<polygon fill="#63b8ff" stroke="#63b8ff" points="166.83,-493.5 176.83,-490 166.83,-486.5 166.83,-493.5"/>
</a>
</g>
</g>
<!-- Node5 -->
<g id="Node000005" class="node">
<title>Node5</title>
<g id="a_Node000005"><a xlink:href="structguanaqo_1_1TypeErased_1_1Deallocator.html#a64f75f9631d8dbf5f9a1a0deb1314d47" target="_top" xlink:title=" ">
<polygon fill="white" stroke="#666666" points="137.5,-457 3.5,-457 3.5,-427 137.5,-427 137.5,-457"/>
<text text-anchor="start" x="11.5" y="-445" font-family="Helvetica,sans-Serif" font-size="10.00">guanaqo::TypeErased</text>
<text text-anchor="middle" x="70.5" y="-434" font-family="Helvetica,sans-Serif" font-size="10.00">::Deallocator::operator=</text>
</a>
</g>
</g>
<!-- Node2&#45;&gt;Node5 -->
<g id="edge4_Node000002_Node000005" class="edge">
<title>Node2&#45;&gt;Node5</title>
<g id="a_edge4_Node000002_Node000005"><a xlink:title=" ">
<path fill="none" stroke="#63b8ff" d="M181.9,-472.28C163.6,-467.26 143.85,-461.85 126.2,-457"/>
<polygon fill="#63b8ff" stroke="#63b8ff" points="181.04,-475.67 191.61,-474.94 182.89,-468.92 181.04,-475.67"/>
</a>
</g>
</g>
<!-- Node6 -->
<g id="Node000006" class="node">
<title>Node6</title>
<g id="a_Node000006"><a xlink:href="structguanaqo_1_1TypeErased_1_1Deallocator.html#a489fc6895dc3ac41139ac1be3626f769" target="_top" xlink:title=" ">
<polygon fill="white" stroke="#666666" points="137.5,-601 3.5,-601 3.5,-571 137.5,-571 137.5,-601"/>
<text text-anchor="start" x="11.5" y="-589" font-family="Helvetica,sans-Serif" font-size="10.00">guanaqo::TypeErased</text>
<text text-anchor="middle" x="70.5" y="-578" font-family="Helvetica,sans-Serif" font-size="10.00">::Deallocator::operator=</text>
</a>
</g>
</g>
<!-- Node2&#45;&gt;Node6 -->
<g id="edge5_Node000002_Node000006" class="edge">
<title>Node2&#45;&gt;Node6</title>
<g id="a_edge5_Node000002_Node000006"><a xlink:title=" ">
<path fill="none" stroke="#63b8ff" d="M219.65,-511.29C199.04,-526.89 169.39,-547.74 141,-562 134.5,-565.27 127.45,-568.27 120.41,-570.96"/>
<polygon fill="#63b8ff" stroke="#63b8ff" points="221.83,-514.04 227.63,-505.18 217.57,-508.48 221.83,-514.04"/>
</a>
</g>
</g>
<!-- Node14&#45;&gt;Node7 -->
<g id="edge14_Node000014_Node000007" class="edge">
<title>Node14&#45;&gt;Node7</title>
<g id="a_edge14_Node000014_Node000007"><a xlink:title=" ">
<path fill="none" stroke="#63b8ff" d="M187.18,-358.97C165.76,-365.45 141.82,-372.7 121.3,-378.92"/>
<polygon fill="#63b8ff" stroke="#63b8ff" points="188.26,-362.29 196.82,-356.05 186.23,-355.59 188.26,-362.29"/>
</a>
</g>
</g>
<!-- Node14&#45;&gt;Node8 -->
<g id="edge15_Node000014_Node000008" class="edge">
<title>Node14&#45;&gt;Node8</title>
<g id="a_edge15_Node000014_Node000008"><a xlink:title=" ">
<path fill="none" stroke="#63b8ff" d="M176.82,-342.99C161.54,-343.43 145.51,-343.89 130.69,-344.31"/>
<polygon fill="#63b8ff" stroke="#63b8ff" points="177.36,-346.48 187.25,-342.69 177.16,-339.48 177.36,-346.48"/>
</a>
</g>
</g>
<!-- Node14&#45;&gt;Node15 -->
<g id="edge16_Node000014_Node000015" class="edge">
<title>Node14&#45;&gt;Node15</title>
<g id="a_edge16_Node000014_Node000015"><a xlink:title=" ">
<path fill="none" stroke="#63b8ff" d="M177.26,-323.99C161.85,-320.2 145.65,-316.22 130.69,-312.54"/>
<polygon fill="#63b8ff" stroke="#63b8ff" points="176.71,-327.45 187.25,-326.44 178.38,-320.66 176.71,-327.45"/>
</a>
</g>
</g>
</g>
</svg>

<g id="navigator" transform="translate(0 0)" fill="#404254">
  <rect fill="#f2f5e9" fill-opacity="0.5" stroke="#606060" stroke-width=".5" x="0" y="0" width="60" height="60"/>
  <use id="zoomplus" xlink:href="#zoomPlus" x="17" y="9" onmousedown="handleZoom(evt,'in')"/>
  <use id="zoomminus" xlink:href="#zoomMin" x="42" y="9" onmousedown="handleZoom(evt,'out')"/>
  <use id="reset" xlink:href="#resetDef" x="30" y="36" onmousedown="handleReset()"/>
   <use id="arrowup" xlink:href="#arrowUp" x="0" y="0" onmousedown="handlePan(0,-1)"/>
  <use id="arrowright" xlink:href="#arrowRight" x="0" y="0" onmousedown="handlePan(1,0)"/>
  <use id="arrowdown" xlink:href="#arrowDown" x="0" y="0" onmousedown="handlePan(0,1)"/>
  <use id="arrowleft" xlink:href="#arrowLeft" x="0" y="0" onmousedown="handlePan(-1,0)"/>
</g>
<svg viewBox="0 0 15 15" width="100%" height="30px" preserveAspectRatio="xMaxYMin meet">
 <g id="arrow_out" transform="scale(0.3 0.3)">
  <a xlink:href="classguanaqo_1_1TypeErased_a32b0f63d3c9a366264d6c3365db9ace6_icgraph_org.svg" target="_base">
   <rect id="button" ry="5" rx="5" y="6" x="6" height="38" width="38"
        fill="#f2f5e9" fill-opacity="0.5" stroke="#606060" stroke-width="1.0"/>
   <path id="arrow"
     d="M 11.500037,31.436501 C 11.940474,20.09759 22.043105,11.32322 32.158766,21.979434 L 37.068811,17.246167 C 37.068811,17.246167 37.088388,32 37.088388,32 L 22.160133,31.978069 C 22.160133,31.978069 26.997745,27.140456 26.997745,27.140456 C 18.528582,18.264221 13.291696,25.230495 11.500037,31.436501 z"
     style="fill:#404040;"/>
  </a>
 </g>
</svg>

<style type='text/css'>
<![CDATA[
[data-mouse-over-selected='false'] { opacity: 0.7; }
[data-mouse-over-selected='true']  { opacity: 1.0; }
]]>
</style>
<script type="application/ecmascript"><![CDATA[
document.addEventListener('DOMContentLoaded', (event) => {
  highlightEdges();
  highlightAdjacentNodes();
});
]]></script>
</svg>
