<?xml version="1.0" encoding="UTF-8" standalone="no"?>
<!DOCTYPE svg PUBLIC "-//W3C//DTD SVG 1.1//EN"
 "http://www.w3.org/Graphics/SVG/1.1/DTD/svg11.dtd">
<!-- Generated by graphviz version 2.43.0 (0)
 -->
<!-- Title: guanaqo::TypeErased::allocate Pages: 1 -->
<svg width="596pt" height="374pt"
 viewBox="0.00 0.00 596.00 374.00" xmlns="http://www.w3.org/2000/svg" xmlns:xlink="http://www.w3.org/1999/xlink">
<g id="graph0" class="graph" transform="scale(1 1) rotate(0) translate(4 370)">
<title>guanaqo::TypeErased::allocate</title>
<!-- Node1 -->
<g id="Node000001" class="node">
<title>Node1</title>
<g id="a_Node000001"><a xlink:title="Ensure that storage is available, either by using the small buffer if it is large enough,...">
<polygon fill="#999999" stroke="#666666" points="588,-150 468,-150 468,-120 588,-120 588,-150"/>
<text text-anchor="start" x="476" y="-138" font-family="Helvetica,sans-Serif" font-size="10.00">guanaqo::TypeErased</text>
<text text-anchor="middle" x="528" y="-127" font-family="Helvetica,sans-Serif" font-size="10.00">::allocate</text>
</a>
</g>
</g>
<!-- Node2 -->
<g id="Node000002" class="node">
<title>Node2</title>
<g id="a_Node000002"><a xlink:href="classguanaqo_1_1TypeErased.html#a4525c3ab83229736d301a3c54b97b2c4" target="_top" xlink:title="Ensure storage and construct the type&#45;erased object of type T in&#45;place.">
<polygon fill="white" stroke="#666666" points="432,-246 312,-246 312,-216 432,-216 432,-246"/>
<text text-anchor="start" x="320" y="-234" font-family="Helvetica,sans-Serif" font-size="10.00">guanaqo::TypeErased</text>
<text text-anchor="middle" x="372" y="-223" font-family="Helvetica,sans-Serif" font-size="10.00">::construct_inplace</text>
</a>
</g>
</g>
<!-- Node1&#45;&gt;Node2 -->
<g id="edge1_Node000001_Node000002" class="edge">
<title>Node1&#45;&gt;Node2</title>
<g id="a_edge1_Node000001_Node000002"><a xlink:title=" ">
<path fill="none" stroke="#63b8ff" d="M494.35,-155.35C465.25,-173.49 423.32,-199.63 397.15,-215.95"/>
<polygon fill="#63b8ff" stroke="#63b8ff" points="496.3,-158.26 502.94,-150 492.6,-152.32 496.3,-158.26"/>
</a>
</g>
</g>
<!-- Node9 -->
<g id="Node000009" class="node">
<title>Node9</title>
<g id="a_Node000009"><a xlink:href="classguanaqo_1_1TypeErased.html#a9a9a3fb15c4b0c9ee907e0c790175ee7" target="_top" xlink:title=" ">
<polygon fill="white" stroke="#666666" points="432,-102 312,-102 312,-72 432,-72 432,-102"/>
<text text-anchor="start" x="320" y="-90" font-family="Helvetica,sans-Serif" font-size="10.00">guanaqo::TypeErased</text>
<text text-anchor="middle" x="372" y="-79" font-family="Helvetica,sans-Serif" font-size="10.00">::do_copy_assign</text>
</a>
</g>
</g>
<!-- Node1&#45;&gt;Node9 -->
<g id="edge8_Node000001_Node000009" class="edge">
<title>Node1&#45;&gt;Node9</title>
<g id="a_edge8_Node000001_Node000009"><a xlink:title=" ">
<path fill="none" stroke="#63b8ff" d="M469.04,-116.93C453.24,-112.01 436.31,-106.73 421.13,-102"/>
<polygon fill="#63b8ff" stroke="#63b8ff" points="468.11,-120.31 478.7,-119.94 470.19,-113.63 468.11,-120.31"/>
</a>
</g>
</g>
<!-- Node3 -->
<g id="Node000003" class="node">
<title>Node3</title>
<g id="a_Node000003"><a xlink:href="classguanaqo_1_1TypeErased.html#a8b9a7cab5f7c8f0c57ee7917a386e2c4" target="_top" xlink:title="Main constructor that type&#45;erases the object constructed from the given argument.">
<polygon fill="white" stroke="#666666" points="276,-366 156,-366 156,-336 276,-336 276,-366"/>
<text text-anchor="start" x="164" y="-354" font-family="Helvetica,sans-Serif" font-size="10.00">guanaqo::TypeErased</text>
<text text-anchor="middle" x="216" y="-343" font-family="Helvetica,sans-Serif" font-size="10.00">::TypeErased</text>
</a>
</g>
</g>
<!-- Node2&#45;&gt;Node3 -->
<g id="edge2_Node000002_Node000003" class="edge">
<title>Node2&#45;&gt;Node3</title>
<g id="a_edge2_Node000002_Node000003"><a xlink:title=" ">
<path fill="none" stroke="#63b8ff" d="M352.85,-254.1C335.14,-275.39 306.48,-306.66 276,-327 271.03,-330.31 265.54,-333.3 259.95,-335.94"/>
<polygon fill="#63b8ff" stroke="#63b8ff" points="355.69,-256.16 359.31,-246.2 350.27,-251.73 355.69,-256.16"/>
</a>
</g>
</g>
<!-- Node4 -->
<g id="Node000004" class="node">
<title>Node4</title>
<g id="a_Node000004"><a xlink:href="classguanaqo_1_1TypeErased.html#ab9f728690fae172bde88c42e794b55be" target="_top" xlink:title="Main constructor that type&#45;erases the given argument.">
<polygon fill="white" stroke="#666666" points="276,-318 156,-318 156,-288 276,-288 276,-318"/>
<text text-anchor="start" x="164" y="-306" font-family="Helvetica,sans-Serif" font-size="10.00">guanaqo::TypeErased</text>
<text text-anchor="middle" x="216" y="-295" font-family="Helvetica,sans-Serif" font-size="10.00">::TypeErased</text>
</a>
</g>
</g>
<!-- Node2&#45;&gt;Node4 -->
<g id="edge3_Node000002_Node000004" class="edge">
<title>Node2&#45;&gt;Node4</title>
<g id="a_edge3_Node000002_Node000004"><a xlink:title=" ">
<path fill="none" stroke="#63b8ff" d="M333.39,-250.89C316.08,-259.82 295.16,-270.28 276,-279 269.36,-282.02 262.22,-285.08 255.28,-287.96"/>
<polygon fill="#63b8ff" stroke="#63b8ff" points="335.35,-253.82 342.61,-246.11 332.12,-247.61 335.35,-253.82"/>
</a>
</g>
</g>
<!-- Node5 -->
<g id="Node000005" class="node">
<title>Node5</title>
<g id="a_Node000005"><a xlink:href="classguanaqo_1_1TypeErased.html#aba36293b9b8f6622eaf9f5cb7e24251f" target="_top" xlink:title="Main constructor that type&#45;erases the object constructed from the given argument.">
<polygon fill="white" stroke="#666666" points="276,-270 156,-270 156,-240 276,-240 276,-270"/>
<text text-anchor="start" x="164" y="-258" font-family="Helvetica,sans-Serif" font-size="10.00">guanaqo::TypeErased</text>
<text text-anchor="middle" x="216" y="-247" font-family="Helvetica,sans-Serif" font-size="10.00">::TypeErased</text>
</a>
</g>
</g>
<!-- Node2&#45;&gt;Node5 -->
<g id="edge4_Node000002_Node000005" class="edge">
<title>Node2&#45;&gt;Node5</title>
<g id="a_edge4_Node000002_Node000005"><a xlink:title=" ">
<path fill="none" stroke="#63b8ff" d="M301.91,-241.77C293.33,-243.1 284.61,-244.46 276.2,-245.77"/>
<polygon fill="#63b8ff" stroke="#63b8ff" points="302.56,-245.21 311.9,-240.21 301.48,-238.29 302.56,-245.21"/>
</a>
</g>
</g>
<!-- Node6 -->
<g id="Node000006" class="node">
<title>Node6</title>
<g id="a_Node000006"><a xlink:href="classguanaqo_1_1TypeErased.html#a79ee52fc9756b24c66a20376095cac84" target="_top" xlink:title="Main constructor that type&#45;erases the given argument.">
<polygon fill="white" stroke="#666666" points="276,-222 156,-222 156,-192 276,-192 276,-222"/>
<text text-anchor="start" x="164" y="-210" font-family="Helvetica,sans-Serif" font-size="10.00">guanaqo::TypeErased</text>
<text text-anchor="middle" x="216" y="-199" font-family="Helvetica,sans-Serif" font-size="10.00">::TypeErased</text>
</a>
</g>
</g>
<!-- Node2&#45;&gt;Node6 -->
<g id="edge5_Node000002_Node000006" class="edge">
<title>Node2&#45;&gt;Node6</title>
<g id="a_edge5_Node000002_Node000006"><a xlink:title=" ">
<path fill="none" stroke="#63b8ff" d="M301.91,-220.23C293.33,-218.9 284.61,-217.54 276.2,-216.23"/>
<polygon fill="#63b8ff" stroke="#63b8ff" points="301.48,-223.71 311.9,-221.79 302.56,-216.79 301.48,-223.71"/>
</a>
</g>
</g>
<!-- Node7 -->
<g id="Node000007" class="node">
<title>Node7</title>
<g id="a_Node000007"><a xlink:href="classguanaqo_1_1TypeErased.html#a5eb797761113ac4c73a8cfd672a15ab5" target="_top" xlink:title="Construct a type&#45;erased wrapper of type Ret for an object of type T, initialized in&#45;place with the gi...">
<polygon fill="white" stroke="#666666" points="276,-174 156,-174 156,-144 276,-144 276,-174"/>
<text text-anchor="start" x="164" y="-162" font-family="Helvetica,sans-Serif" font-size="10.00">guanaqo::TypeErased</text>
<text text-anchor="middle" x="216" y="-151" font-family="Helvetica,sans-Serif" font-size="10.00">::make</text>
</a>
</g>
</g>
<!-- Node2&#45;&gt;Node7 -->
<g id="edge6_Node000002_Node000007" class="edge">
<title>Node2&#45;&gt;Node7</title>
<g id="a_edge6_Node000002_Node000007"><a xlink:title=" ">
<path fill="none" stroke="#63b8ff" d="M333.39,-211.11C316.08,-202.18 295.16,-191.72 276,-183 269.36,-179.98 262.22,-176.92 255.28,-174.04"/>
<polygon fill="#63b8ff" stroke="#63b8ff" points="332.12,-214.39 342.61,-215.89 335.35,-208.18 332.12,-214.39"/>
</a>
</g>
</g>
<!-- Node8 -->
<g id="Node000008" class="node">
<title>Node8</title>
<g id="a_Node000008"><a xlink:href="classguanaqo_1_1TypeErased.html#a075258e6739c3bd2adc82bfce512e311" target="_top" xlink:title="Construct a type&#45;erased wrapper of type Ret for an object of type T, initialized in&#45;place with the gi...">
<polygon fill="white" stroke="#666666" points="120,-174 0,-174 0,-144 120,-144 120,-174"/>
<text text-anchor="start" x="8" y="-162" font-family="Helvetica,sans-Serif" font-size="10.00">guanaqo::TypeErased</text>
<text text-anchor="middle" x="60" y="-151" font-family="Helvetica,sans-Serif" font-size="10.00">::make</text>
</a>
</g>
</g>
<!-- Node7&#45;&gt;Node8 -->
<g id="edge7_Node000007_Node000008" class="edge">
<title>Node7&#45;&gt;Node8</title>
<g id="a_edge7_Node000007_Node000008"><a xlink:title=" ">
<path fill="none" stroke="#63b8ff" d="M145.63,-159C137.14,-159 128.52,-159 120.2,-159"/>
<polygon fill="#63b8ff" stroke="#63b8ff" points="145.9,-162.5 155.9,-159 145.9,-155.5 145.9,-162.5"/>
</a>
</g>
</g>
<!-- Node10 -->
<g id="Node000010" class="node">
<title>Node10</title>
<g id="a_Node000010"><a xlink:href="classguanaqo_1_1TypeErased.html#a36693eaff4f3d29737ef091995b3631f" target="_top" xlink:title="Copy constructor.">
<polygon fill="white" stroke="#666666" points="276,-126 156,-126 156,-96 276,-96 276,-126"/>
<text text-anchor="start" x="164" y="-114" font-family="Helvetica,sans-Serif" font-size="10.00">guanaqo::TypeErased</text>
<text text-anchor="middle" x="216" y="-103" font-family="Helvetica,sans-Serif" font-size="10.00">::TypeErased</text>
</a>
</g>
</g>
<!-- Node9&#45;&gt;Node10 -->
<g id="edge9_Node000009_Node000010" class="edge">
<title>Node9&#45;&gt;Node10</title>
<g id="a_edge9_Node000009_Node000010"><a xlink:title=" ">
<path fill="none" stroke="#63b8ff" d="M301.91,-97.77C293.33,-99.1 284.61,-100.46 276.2,-101.77"/>
<polygon fill="#63b8ff" stroke="#63b8ff" points="302.56,-101.21 311.9,-96.21 301.48,-94.29 302.56,-101.21"/>
</a>
</g>
</g>
<!-- Node11 -->
<g id="Node000011" class="node">
<title>Node11</title>
<g id="a_Node000011"><a xlink:href="classguanaqo_1_1TypeErased.html#aeb0fa9e489bf394bab8a112990184133" target="_top" xlink:title="Copy constructor (allocator aware).">
<polygon fill="white" stroke="#666666" points="276,-78 156,-78 156,-48 276,-48 276,-78"/>
<text text-anchor="start" x="164" y="-66" font-family="Helvetica,sans-Serif" font-size="10.00">guanaqo::TypeErased</text>
<text text-anchor="middle" x="216" y="-55" font-family="Helvetica,sans-Serif" font-size="10.00">::TypeErased</text>
</a>
</g>
</g>
<!-- Node9&#45;&gt;Node11 -->
<g id="edge10_Node000009_Node000011" class="edge">
<title>Node9&#45;&gt;Node11</title>
<g id="a_edge10_Node000009_Node000011"><a xlink:title=" ">
<path fill="none" stroke="#63b8ff" d="M301.91,-76.23C293.33,-74.9 284.61,-73.54 276.2,-72.23"/>
<polygon fill="#63b8ff" stroke="#63b8ff" points="301.48,-79.71 311.9,-77.79 302.56,-72.79 301.48,-79.71"/>
</a>
</g>
</g>
<!-- Node12 -->
<g id="Node000012" class="node">
<title>Node12</title>
<g id="a_Node000012"><a xlink:href="classguanaqo_1_1TypeErased.html#a200f8ff694b5ae333d19578655c51b29" target="_top" xlink:title="Copy assignment.">
<polygon fill="white" stroke="#666666" points="276,-30 156,-30 156,0 276,0 276,-30"/>
<text text-anchor="start" x="164" y="-18" font-family="Helvetica,sans-Serif" font-size="10.00">guanaqo::TypeErased</text>
<text text-anchor="middle" x="216" y="-7" font-family="Helvetica,sans-Serif" font-size="10.00">::operator=</text>
</a>
</g>
</g>
<!-- Node9&#45;&gt;Node12 -->
<g id="edge11_Node000009_Node000012" class="edge">
<title>Node9&#45;&gt;Node12</title>
<g id="a_edge11_Node000009_Node000012"><a xlink:title=" ">
<path fill="none" stroke="#63b8ff" d="M333.39,-67.11C316.08,-58.18 295.16,-47.72 276,-39 269.36,-35.98 262.22,-32.92 255.28,-30.04"/>
<polygon fill="#63b8ff" stroke="#63b8ff" points="332.12,-70.39 342.61,-71.89 335.35,-64.18 332.12,-70.39"/>
</a>
</g>
</g>
</g>
</svg>
