<?xml version="1.0" encoding="UTF-8" standalone="no"?>
<!DOCTYPE svg PUBLIC "-//W3C//DTD SVG 1.1//EN"
 "http://www.w3.org/Graphics/SVG/1.1/DTD/svg11.dtd">
<!-- Generated by graphviz version 2.43.0 (0)
 -->
<!-- Title: guanaqo::TypeErased::size_indicates_const Pages: 1 -->
<svg width="460pt" height="257pt"
 viewBox="0.00 0.00 460.00 256.50" xmlns="http://www.w3.org/2000/svg" xmlns:xlink="http://www.w3.org/1999/xlink">
<g id="graph0" class="graph" transform="scale(1 1) rotate(0) translate(4 252.5)">
<title>guanaqo::TypeErased::size_indicates_const</title>
<!-- Node1 -->
<g id="Node000001" class="node">
<title>Node1</title>
<g id="a_Node000001"><a xlink:title=" ">
<polygon fill="#999999" stroke="#666666" points="452,-150 329,-150 329,-120 452,-120 452,-150"/>
<text text-anchor="start" x="337" y="-138" font-family="Helvetica,sans-Serif" font-size="10.00">guanaqo::TypeErased</text>
<text text-anchor="middle" x="390.5" y="-127" font-family="Helvetica,sans-Serif" font-size="10.00">::size_indicates_const</text>
</a>
</g>
</g>
<!-- Node2 -->
<g id="Node000002" class="node">
<title>Node2</title>
<g id="a_Node000002"><a xlink:href="classguanaqo_1_1TypeErased.html#a945d86b78f949e2ed115f18d6ebf003e" target="_top" xlink:title="Check if the wrapped object is const.">
<polygon fill="white" stroke="#666666" points="293,-155.5 173,-155.5 173,-114.5 293,-114.5 293,-155.5"/>
<text text-anchor="start" x="181" y="-143.5" font-family="Helvetica,sans-Serif" font-size="10.00">guanaqo::TypeErased</text>
<text text-anchor="start" x="181" y="-132.5" font-family="Helvetica,sans-Serif" font-size="10.00">::referenced_object</text>
<text text-anchor="middle" x="233" y="-121.5" font-family="Helvetica,sans-Serif" font-size="10.00">_is_const</text>
</a>
</g>
</g>
<!-- Node1&#45;&gt;Node2 -->
<g id="edge1_Node000001_Node000002" class="edge">
<title>Node1&#45;&gt;Node2</title>
<g id="a_edge1_Node000001_Node000002"><a xlink:title=" ">
<path fill="none" stroke="#63b8ff" d="M318.9,-135C310.28,-135 301.55,-135 293.12,-135"/>
<polygon fill="#63b8ff" stroke="#63b8ff" points="318.93,-138.5 328.93,-135 318.93,-131.5 318.93,-138.5"/>
</a>
</g>
</g>
<!-- Node3 -->
<g id="Node000003" class="node">
<title>Node3</title>
<g id="a_Node000003"><a xlink:href="classguanaqo_1_1TypeErased.html#a76d38077f25a709e11586e428960d0bf" target="_top" xlink:title="Convert the type&#45;erased object to the given type.">
<polygon fill="white" stroke="#666666" points="137,-248.5 0,-248.5 0,-229.5 137,-229.5 137,-248.5"/>
<text text-anchor="middle" x="68.5" y="-236.5" font-family="Helvetica,sans-Serif" font-size="10.00">guanaqo::TypeErased::as</text>
</a>
</g>
</g>
<!-- Node2&#45;&gt;Node3 -->
<g id="edge2_Node000002_Node000003" class="edge">
<title>Node2&#45;&gt;Node3</title>
<g id="a_edge2_Node000002_Node000003"><a xlink:title=" ">
<path fill="none" stroke="#63b8ff" d="M207.58,-163.27C189.79,-182.19 164.14,-206.24 137,-221 130.82,-224.36 123.98,-227.12 117.09,-229.39"/>
<polygon fill="#63b8ff" stroke="#63b8ff" points="210.28,-165.51 214.47,-155.78 205.12,-160.77 210.28,-165.51"/>
</a>
</g>
</g>
<!-- Node4 -->
<g id="Node000004" class="node">
<title>Node4</title>
<g id="a_Node000004"><a xlink:href="classguanaqo_1_1TypeErased.html#a8cd33df7102e3cd6b6afa3b100f156a9" target="_top" xlink:title="Convert the type&#45;erased object to the given type.">
<polygon fill="white" stroke="#666666" points="137,-211.5 0,-211.5 0,-192.5 137,-192.5 137,-211.5"/>
<text text-anchor="middle" x="68.5" y="-199.5" font-family="Helvetica,sans-Serif" font-size="10.00">guanaqo::TypeErased::as</text>
</a>
</g>
</g>
<!-- Node2&#45;&gt;Node4 -->
<g id="edge3_Node000002_Node000004" class="edge">
<title>Node2&#45;&gt;Node4</title>
<g id="a_edge3_Node000002_Node000004"><a xlink:title=" ">
<path fill="none" stroke="#63b8ff" d="M186.06,-160.46C170.75,-168.34 153.4,-176.62 137,-183 127.92,-186.53 117.93,-189.71 108.47,-192.42"/>
<polygon fill="#63b8ff" stroke="#63b8ff" points="188.07,-163.36 195.31,-155.63 184.83,-157.16 188.07,-163.36"/>
</a>
</g>
</g>
<!-- Node5 -->
<g id="Node000005" class="node">
<title>Node5</title>
<g id="a_Node000005"><a xlink:href="classguanaqo_1_1TypeErased.html#aa7dcaa28e1f3df80fefa3352c8295d1e" target="_top" xlink:title="Call the vtable function f with the given arguments args, implicitly passing the self pointer and vta...">
<polygon fill="white" stroke="#666666" points="128.5,-174 8.5,-174 8.5,-144 128.5,-144 128.5,-174"/>
<text text-anchor="start" x="16.5" y="-162" font-family="Helvetica,sans-Serif" font-size="10.00">guanaqo::TypeErased</text>
<text text-anchor="middle" x="68.5" y="-151" font-family="Helvetica,sans-Serif" font-size="10.00">::call</text>
</a>
</g>
</g>
<!-- Node2&#45;&gt;Node5 -->
<g id="edge4_Node000002_Node000005" class="edge">
<title>Node2&#45;&gt;Node5</title>
<g id="a_edge4_Node000002_Node000005"><a xlink:title=" ">
<path fill="none" stroke="#63b8ff" d="M162.94,-145.2C151.5,-146.89 139.74,-148.63 128.58,-150.27"/>
<polygon fill="#63b8ff" stroke="#63b8ff" points="163.49,-148.66 172.87,-143.73 162.47,-141.73 163.49,-148.66"/>
</a>
</g>
</g>
<!-- Node6 -->
<g id="Node000006" class="node">
<title>Node6</title>
<g id="a_Node000006"><a xlink:href="classguanaqo_1_1TypeErased.html#a39659c6221038a56b71ffa6137b58487" target="_top" xlink:title="Call the vtable function f with the given arguments args, implicitly passing the self pointer and vta...">
<polygon fill="white" stroke="#666666" points="128.5,-126 8.5,-126 8.5,-96 128.5,-96 128.5,-126"/>
<text text-anchor="start" x="16.5" y="-114" font-family="Helvetica,sans-Serif" font-size="10.00">guanaqo::TypeErased</text>
<text text-anchor="middle" x="68.5" y="-103" font-family="Helvetica,sans-Serif" font-size="10.00">::call</text>
</a>
</g>
</g>
<!-- Node2&#45;&gt;Node6 -->
<g id="edge5_Node000002_Node000006" class="edge">
<title>Node2&#45;&gt;Node6</title>
<g id="a_edge5_Node000002_Node000006"><a xlink:title=" ">
<path fill="none" stroke="#63b8ff" d="M162.94,-124.8C151.5,-123.11 139.74,-121.37 128.58,-119.73"/>
<polygon fill="#63b8ff" stroke="#63b8ff" points="162.47,-128.27 172.87,-126.27 163.49,-121.34 162.47,-128.27"/>
</a>
</g>
</g>
<!-- Node7 -->
<g id="Node000007" class="node">
<title>Node7</title>
<g id="a_Node000007"><a xlink:href="classguanaqo_1_1TypeErased.html#a712331016934495b89dbb141d6da2783" target="_top" xlink:title="Call the vtable function f with the given arguments args, implicitly passing the self pointer and vta...">
<polygon fill="white" stroke="#666666" points="128.5,-78 8.5,-78 8.5,-48 128.5,-48 128.5,-78"/>
<text text-anchor="start" x="16.5" y="-66" font-family="Helvetica,sans-Serif" font-size="10.00">guanaqo::TypeErased</text>
<text text-anchor="middle" x="68.5" y="-55" font-family="Helvetica,sans-Serif" font-size="10.00">::call</text>
</a>
</g>
</g>
<!-- Node2&#45;&gt;Node7 -->
<g id="edge6_Node000002_Node000007" class="edge">
<title>Node2&#45;&gt;Node7</title>
<g id="a_edge6_Node000002_Node000007"><a xlink:title=" ">
<path fill="none" stroke="#63b8ff" d="M185,-109.78C169.86,-102.05 152.9,-93.81 137,-87 129.8,-83.91 122.05,-80.89 114.47,-78.09"/>
<polygon fill="#63b8ff" stroke="#63b8ff" points="183.66,-113.03 194.16,-114.5 186.87,-106.8 183.66,-113.03"/>
</a>
</g>
</g>
<!-- Node8 -->
<g id="Node000008" class="node">
<title>Node8</title>
<g id="a_Node000008"><a xlink:href="classguanaqo_1_1TypeErased.html#abdfe8d28d119ca43f89a695cfc82bbf6" target="_top" xlink:title="Get a type&#45;erased pointer to the wrapped object.">
<polygon fill="white" stroke="#666666" points="128.5,-30 8.5,-30 8.5,0 128.5,0 128.5,-30"/>
<text text-anchor="start" x="16.5" y="-18" font-family="Helvetica,sans-Serif" font-size="10.00">guanaqo::TypeErased</text>
<text text-anchor="middle" x="68.5" y="-7" font-family="Helvetica,sans-Serif" font-size="10.00">::get_pointer</text>
</a>
</g>
</g>
<!-- Node2&#45;&gt;Node8 -->
<g id="edge7_Node000002_Node000008" class="edge">
<title>Node2&#45;&gt;Node8</title>
<g id="a_edge7_Node000002_Node000008"><a xlink:title=" ">
<path fill="none" stroke="#63b8ff" d="M209.69,-106.31C191.96,-85.18 165.48,-57.1 137,-39 131.75,-35.66 125.98,-32.72 120.09,-30.13"/>
<polygon fill="#63b8ff" stroke="#63b8ff" points="207.21,-108.81 216.27,-114.31 212.62,-104.37 207.21,-108.81"/>
</a>
</g>
</g>
</g>
</svg>
