<?xml version="1.0" encoding="UTF-8" standalone="no"?>
<!DOCTYPE svg PUBLIC "-//W3C//DTD SVG 1.1//EN"
 "http://www.w3.org/Graphics/SVG/1.1/DTD/svg11.dtd">
<!-- Generated by graphviz version 2.43.0 (0)
 -->
<!-- Title: Core Utilities Pages: 1 -->
<svg width="255pt" height="64pt"
 viewBox="0.00 0.00 255.00 64.00" xmlns="http://www.w3.org/2000/svg" xmlns:xlink="http://www.w3.org/1999/xlink">
<g id="graph0" class="graph" transform="scale(1 1) rotate(0) translate(4 60)">
<title>Core Utilities</title>
<!-- Node1 -->
<g id="Node000001" class="node">
<title>Node1</title>
<g id="a_Node000001"><a xlink:title="Core helpers such as lookup tables, chunked loops, and assertion/assumption macros.">
<polygon fill="#999999" stroke="#666666" points="80,-37 0,-37 0,-18 80,-18 80,-37"/>
<text text-anchor="middle" x="40" y="-25" font-family="Helvetica,sans-Serif" font-size="10.00">Core Utilities</text>
</a>
</g>
</g>
<!-- Node3 -->
<g id="Node000003" class="node">
<title>Node3</title>
<g id="a_Node000003"><a xlink:href="group__macros.html" target="_top" xlink:title="Public&#45;facing preprocessor utilities.">
<polygon fill="white" stroke="#666666" points="247,-56 116,-56 116,-37 247,-37 247,-56"/>
<text text-anchor="middle" x="181.5" y="-44" font-family="Helvetica,sans-Serif" font-size="10.00">Macros &amp; Build Helpers</text>
</a>
</g>
</g>
<!-- Node1&#45;&gt;Node3 -->
<g id="edge2" class="edge">
<title>Node1&#45;&gt;Node3</title>
<path fill="none" stroke="black" d="M90.16,-34.2C98.51,-35.33 107.29,-36.53 115.96,-37.71"/>
<polygon fill="black" stroke="black" points="90.61,-30.72 80.23,-32.84 89.67,-37.66 90.61,-30.72"/>
</g>
<!-- Node2 -->
<g id="Node000002" class="node">
<title>Node2</title>
<g id="a_Node000002"><a xlink:href="group__strings.html" target="_top" xlink:title="String utilities and portable parsing helpers.">
<polygon fill="white" stroke="#666666" points="231,-19 132,-19 132,0 231,0 231,-19"/>
<text text-anchor="middle" x="181.5" y="-7" font-family="Helvetica,sans-Serif" font-size="10.00">Strings &amp; Parsing</text>
</a>
</g>
</g>
<!-- Node1&#45;&gt;Node2 -->
<g id="edge1" class="edge">
<title>Node1&#45;&gt;Node2</title>
<path fill="none" stroke="black" d="M90.3,-21.14C103.8,-19.4 118.42,-17.51 131.88,-15.77"/>
<polygon fill="black" stroke="black" points="89.7,-17.69 80.23,-22.44 90.6,-24.63 89.7,-17.69"/>
</g>
</g>
</svg>
