<?xml version="1.0" encoding="UTF-8" standalone="no"?>
<!DOCTYPE svg PUBLIC "-//W3C//DTD SVG 1.1//EN"
 "http://www.w3.org/Graphics/SVG/1.1/DTD/svg11.dtd">
<!-- Generated by graphviz version 2.43.0 (0)
 -->
<!-- Title: guanaqo::blas::xgemv Pages: 1 -->
<svg width="306pt" height="187pt"
 viewBox="0.00 0.00 306.00 186.50" xmlns="http://www.w3.org/2000/svg" xmlns:xlink="http://www.w3.org/1999/xlink">
<g id="graph0" class="graph" transform="scale(1 1) rotate(0) translate(4 182.5)">
<title>guanaqo::blas::xgemv</title>
<!-- Node1 -->
<g id="Node000001" class="node">
<title>Node1</title>
<g id="a_Node000001"><a xlink:title=" ">
<polygon fill="#999999" stroke="#666666" points="298,-93 173,-93 173,-74 298,-74 298,-93"/>
<text text-anchor="middle" x="235.5" y="-81" font-family="Helvetica,sans-Serif" font-size="10.00">guanaqo::blas::xgemv</text>
</a>
</g>
</g>
<!-- Node2 -->
<g id="Node000002" class="node">
<title>Node2</title>
<g id="a_Node000002"><a xlink:href="group__linalg__blas__ll.html#ga7f4ee2a98766873c31729ff571896337" target="_top" xlink:title=" ">
<polygon fill="white" stroke="#666666" points="131,-178.5 6,-178.5 6,-148.5 131,-148.5 131,-178.5"/>
<text text-anchor="start" x="14" y="-166.5" font-family="Helvetica,sans-Serif" font-size="10.00">guanaqo::blas::xgemv</text>
<text text-anchor="middle" x="68.5" y="-155.5" font-family="Helvetica,sans-Serif" font-size="10.00">_batch_strided</text>
</a>
</g>
</g>
<!-- Node1&#45;&gt;Node2 -->
<g id="edge1_Node000001_Node000002" class="edge">
<title>Node1&#45;&gt;Node2</title>
<g id="a_edge1_Node000001_Node000002"><a xlink:title=" ">
<path fill="none" stroke="#63b8ff" d="M211.02,-98.59C191.66,-110.63 163.21,-127.43 137,-139.5 130.11,-142.67 122.67,-145.7 115.33,-148.46"/>
<polygon fill="#63b8ff" stroke="#63b8ff" points="213.15,-101.38 219.75,-93.1 209.42,-95.46 213.15,-101.38"/>
</a>
</g>
</g>
<!-- Node3 -->
<g id="Node000003" class="node">
<title>Node3</title>
<g id="a_Node000003"><a xlink:href="group__linalg__blas__hl.html#gaccc9fb68863497d4cc452d36057781bf" target="_top" xlink:title=" ">
<polygon fill="white" stroke="#666666" points="137,-130 0,-130 0,-111 137,-111 137,-130"/>
<text text-anchor="middle" x="68.5" y="-118" font-family="Helvetica,sans-Serif" font-size="10.00">guanaqo::blas::xgemv_N</text>
</a>
</g>
</g>
<!-- Node1&#45;&gt;Node3 -->
<g id="edge2_Node000001_Node000003" class="edge">
<title>Node1&#45;&gt;Node3</title>
<g id="a_edge2_Node000001_Node000003"><a xlink:title=" ">
<path fill="none" stroke="#63b8ff" d="M182.23,-95.22C159.64,-100.29 133.53,-106.14 112.13,-110.94"/>
<polygon fill="#63b8ff" stroke="#63b8ff" points="183.02,-98.63 192.01,-93.03 181.48,-91.8 183.02,-98.63"/>
</a>
</g>
</g>
<!-- Node4 -->
<g id="Node000004" class="node">
<title>Node4</title>
<g id="a_Node000004"><a xlink:href="group__linalg__blas__hl.html#ga20e6d564d8ff625de4e8f66d1fdc0db3" target="_top" xlink:title=" ">
<polygon fill="white" stroke="#666666" points="137,-93 0,-93 0,-74 137,-74 137,-93"/>
<text text-anchor="middle" x="68.5" y="-81" font-family="Helvetica,sans-Serif" font-size="10.00">guanaqo::blas::xgemv_N</text>
</a>
</g>
</g>
<!-- Node1&#45;&gt;Node4 -->
<g id="edge3_Node000001_Node000004" class="edge">
<title>Node1&#45;&gt;Node4</title>
<g id="a_edge3_Node000001_Node000004"><a xlink:title=" ">
<path fill="none" stroke="#63b8ff" d="M162.4,-83.5C153.96,-83.5 145.38,-83.5 137.01,-83.5"/>
<polygon fill="#63b8ff" stroke="#63b8ff" points="162.59,-87 172.59,-83.5 162.59,-80 162.59,-87"/>
</a>
</g>
</g>
<!-- Node5 -->
<g id="Node000005" class="node">
<title>Node5</title>
<g id="a_Node000005"><a xlink:href="group__linalg__blas__hl.html#gaed74d5df153a525f319dd183aee84622" target="_top" xlink:title=" ">
<polygon fill="white" stroke="#666666" points="136.5,-56 0.5,-56 0.5,-37 136.5,-37 136.5,-56"/>
<text text-anchor="middle" x="68.5" y="-44" font-family="Helvetica,sans-Serif" font-size="10.00">guanaqo::blas::xgemv_T</text>
</a>
</g>
</g>
<!-- Node1&#45;&gt;Node5 -->
<g id="edge4_Node000001_Node000005" class="edge">
<title>Node1&#45;&gt;Node5</title>
<g id="a_edge4_Node000001_Node000005"><a xlink:title=" ">
<path fill="none" stroke="#63b8ff" d="M182.23,-71.78C159.64,-66.71 133.53,-60.86 112.13,-56.06"/>
<polygon fill="#63b8ff" stroke="#63b8ff" points="181.48,-75.2 192.01,-73.97 183.02,-68.37 181.48,-75.2"/>
</a>
</g>
</g>
<!-- Node6 -->
<g id="Node000006" class="node">
<title>Node6</title>
<g id="a_Node000006"><a xlink:href="group__linalg__blas__hl.html#gac6882ada2f20d23a9b82db537e7a1e4a" target="_top" xlink:title=" ">
<polygon fill="white" stroke="#666666" points="136.5,-19 0.5,-19 0.5,0 136.5,0 136.5,-19"/>
<text text-anchor="middle" x="68.5" y="-7" font-family="Helvetica,sans-Serif" font-size="10.00">guanaqo::blas::xgemv_T</text>
</a>
</g>
</g>
<!-- Node1&#45;&gt;Node6 -->
<g id="edge5_Node000001_Node000006" class="edge">
<title>Node1&#45;&gt;Node6</title>
<g id="a_edge5_Node000001_Node000006"><a xlink:title=" ">
<path fill="none" stroke="#63b8ff" d="M211.53,-68.45C192.26,-56.35 163.68,-39.59 137,-28.5 128.34,-24.9 118.79,-21.75 109.66,-19.1"/>
<polygon fill="#63b8ff" stroke="#63b8ff" points="209.88,-71.55 220.19,-73.97 213.64,-65.65 209.88,-71.55"/>
</a>
</g>
</g>
</g>
</svg>
