<?xml version="1.0" encoding="UTF-8" standalone="no"?>
<!DOCTYPE svg PUBLIC "-//W3C//DTD SVG 1.1//EN"
 "http://www.w3.org/Graphics/SVG/1.1/DTD/svg11.dtd">
<!-- Generated by graphviz version 2.43.0 (0)
 -->
<!-- Title: guanaqo::parse_duration Pages: 1 -->
<svg width="462pt" height="76pt"
 viewBox="0.00 0.00 462.00 75.50" xmlns="http://www.w3.org/2000/svg" xmlns:xlink="http://www.w3.org/1999/xlink">
<g id="graph0" class="graph" transform="scale(1 1) rotate(0) translate(4 71.5)">
<title>guanaqo::parse_duration</title>
<!-- Node1 -->
<g id="Node000001" class="node">
<title>Node1</title>
<g id="a_Node000001"><a xlink:title="Adds the sum of the durations in the string s to the duration t.">
<polygon fill="#999999" stroke="#666666" points="137,-40 0,-40 0,-21 137,-21 137,-40"/>
<text text-anchor="middle" x="68.5" y="-28" font-family="Helvetica,sans-Serif" font-size="10.00">guanaqo::parse_duration</text>
</a>
</g>
</g>
<!-- Node2 -->
<g id="Node000002" class="node">
<title>Node2</title>
<g id="a_Node000002"><a xlink:href="group__strings.html#gafeef60e5ccf055ccc8079d000ef00524" target="_top" xlink:title="Adds the first duration in the string s to the duration t.">
<polygon fill="white" stroke="#666666" points="299,-45.5 173,-45.5 173,-15.5 299,-15.5 299,-45.5"/>
<text text-anchor="start" x="181" y="-33.5" font-family="Helvetica,sans-Serif" font-size="10.00">guanaqo::parse_single</text>
<text text-anchor="middle" x="236" y="-22.5" font-family="Helvetica,sans-Serif" font-size="10.00">_duration</text>
</a>
</g>
</g>
<!-- Node1&#45;&gt;Node2 -->
<g id="edge1_Node000001_Node000002" class="edge">
<title>Node1&#45;&gt;Node2</title>
<g id="a_edge1_Node000001_Node000002"><a xlink:title=" ">
<path fill="none" stroke="#63b8ff" d="M137.29,-30.5C145.67,-30.5 154.26,-30.5 162.7,-30.5"/>
<polygon fill="#63b8ff" stroke="#63b8ff" points="162.9,-34 172.9,-30.5 162.9,-27 162.9,-34"/>
</a>
</g>
</g>
<!-- Node3 -->
<g id="Node000003" class="node">
<title>Node3</title>
<g id="a_Node000003"><a xlink:href="group__core.html#ga3dbbcc4bb287795cbcb17edf483c6b76" target="_top" xlink:title="Get the pretty name of the given type as a string.">
<polygon fill="white" stroke="#666666" points="454,-67.5 335,-67.5 335,-37.5 454,-37.5 454,-67.5"/>
<text text-anchor="start" x="343" y="-55.5" font-family="Helvetica,sans-Serif" font-size="10.00">guanaqo::demangled</text>
<text text-anchor="middle" x="394.5" y="-44.5" font-family="Helvetica,sans-Serif" font-size="10.00">_typename</text>
</a>
</g>
</g>
<!-- Node2&#45;&gt;Node3 -->
<g id="edge2_Node000002_Node000003" class="edge">
<title>Node2&#45;&gt;Node3</title>
<g id="a_edge2_Node000002_Node000003"><a xlink:title=" ">
<path fill="none" stroke="#63b8ff" d="M299.3,-39.26C307.76,-40.45 316.47,-41.67 325.03,-42.87"/>
<polygon fill="#63b8ff" stroke="#63b8ff" points="324.58,-46.35 334.97,-44.27 325.56,-39.41 324.58,-46.35"/>
</a>
</g>
</g>
<!-- Node4 -->
<g id="Node000004" class="node">
<title>Node4</title>
<g id="a_Node000004"><a xlink:href="group__strings.html#ga85c86fd57aa27be53fdc482aee131ebf" target="_top" xlink:title=" ">
<polygon fill="white" stroke="#666666" points="454,-19 335,-19 335,0 454,0 454,-19"/>
<text text-anchor="middle" x="394.5" y="-7" font-family="Helvetica,sans-Serif" font-size="10.00">guanaqo::from_chars</text>
</a>
</g>
</g>
<!-- Node2&#45;&gt;Node4 -->
<g id="edge3_Node000002_Node000004" class="edge">
<title>Node2&#45;&gt;Node4</title>
<g id="a_edge3_Node000002_Node000004"><a xlink:title=" ">
<path fill="none" stroke="#63b8ff" d="M299.3,-22.14C307.76,-21.01 316.47,-19.84 325.03,-18.69"/>
<polygon fill="#63b8ff" stroke="#63b8ff" points="325.53,-22.15 334.97,-17.35 324.6,-15.21 325.53,-22.15"/>
</a>
</g>
</g>
</g>
</svg>
