<?xml version="1.0" encoding="UTF-8" standalone="no"?>
<!DOCTYPE svg PUBLIC "-//W3C//DTD SVG 1.1//EN"
 "http://www.w3.org/Graphics/SVG/1.1/DTD/svg11.dtd">
<!-- Generated by graphviz version 2.43.0 (0)
 -->
<!-- Title: guanaqo::blas::xtrsv Pages: 1 -->
<svg width="301pt" height="64pt"
 viewBox="0.00 0.00 301.00 64.00" xmlns="http://www.w3.org/2000/svg" xmlns:xlink="http://www.w3.org/1999/xlink">
<g id="graph0" class="graph" transform="scale(1 1) rotate(0) translate(4 60)">
<title>guanaqo::blas::xtrsv</title>
<!-- Node1 -->
<g id="Node000001" class="node">
<title>Node1</title>
<g id="a_Node000001"><a xlink:title=" ">
<polygon fill="#999999" stroke="#666666" points="293,-37 177,-37 177,-18 293,-18 293,-37"/>
<text text-anchor="middle" x="235" y="-25" font-family="Helvetica,sans-Serif" font-size="10.00">guanaqo::blas::xtrsv</text>
</a>
</g>
</g>
<!-- Node2 -->
<g id="Node000002" class="node">
<title>Node2</title>
<g id="a_Node000002"><a xlink:href="group__linalg__blas__hl.html#ga457ffe60d958a6d3e8ce8ae4604420d9" target="_top" xlink:title=" ">
<polygon fill="white" stroke="#666666" points="141,-56 0,-56 0,-37 141,-37 141,-56"/>
<text text-anchor="middle" x="70.5" y="-44" font-family="Helvetica,sans-Serif" font-size="10.00">guanaqo::blas::xtrsv_LNN</text>
</a>
</g>
</g>
<!-- Node1&#45;&gt;Node2 -->
<g id="edge1_Node000001_Node000002" class="edge">
<title>Node1&#45;&gt;Node2</title>
<g id="a_edge1_Node000001_Node000002"><a xlink:title=" ">
<path fill="none" stroke="#63b8ff" d="M166.57,-35.38C158.16,-36.37 149.54,-37.37 141.1,-38.36"/>
<polygon fill="#63b8ff" stroke="#63b8ff" points="167.18,-38.84 176.71,-34.2 166.37,-31.88 167.18,-38.84"/>
</a>
</g>
</g>
<!-- Node3 -->
<g id="Node000003" class="node">
<title>Node3</title>
<g id="a_Node000003"><a xlink:href="group__linalg__blas__hl.html#ga556eea7711e5fd21592817f0ae181608" target="_top" xlink:title=" ">
<polygon fill="white" stroke="#666666" points="140,-19 1,-19 1,0 140,0 140,-19"/>
<text text-anchor="middle" x="70.5" y="-7" font-family="Helvetica,sans-Serif" font-size="10.00">guanaqo::blas::xtrsv_LTN</text>
</a>
</g>
</g>
<!-- Node1&#45;&gt;Node3 -->
<g id="edge2_Node000001_Node000003" class="edge">
<title>Node1&#45;&gt;Node3</title>
<g id="a_edge2_Node000001_Node000003"><a xlink:title=" ">
<path fill="none" stroke="#63b8ff" d="M166.61,-20.04C157.91,-19.07 148.98,-18.08 140.25,-17.12"/>
<polygon fill="#63b8ff" stroke="#63b8ff" points="166.38,-23.53 176.71,-21.15 167.15,-16.57 166.38,-23.53"/>
</a>
</g>
</g>
</g>
</svg>
