<?xml version="1.0" encoding="UTF-8" standalone="no"?>
<!DOCTYPE svg PUBLIC "-//W3C//DTD SVG 1.1//EN"
 "http://www.w3.org/Graphics/SVG/1.1/DTD/svg11.dtd">
<!-- Generated by graphviz version 2.43.0 (0)
 -->
<!-- Title: guanaqo::blas::lapack_throw_on_err Pages: 1 -->
<svg width="305pt" height="150pt"
 viewBox="0.00 0.00 305.00 150.00" xmlns="http://www.w3.org/2000/svg" xmlns:xlink="http://www.w3.org/1999/xlink">
<g id="graph0" class="graph" transform="scale(1 1) rotate(0) translate(4 146)">
<title>guanaqo::blas::lapack_throw_on_err</title>
<!-- Node1 -->
<g id="Node000001" class="node">
<title>Node1</title>
<g id="a_Node000001"><a xlink:title=" ">
<polygon fill="#999999" stroke="#666666" points="297,-82.5 174,-82.5 174,-52.5 297,-52.5 297,-82.5"/>
<text text-anchor="start" x="182" y="-70.5" font-family="Helvetica,sans-Serif" font-size="10.00">guanaqo::blas::lapack</text>
<text text-anchor="middle" x="235.5" y="-59.5" font-family="Helvetica,sans-Serif" font-size="10.00">_throw_on_err</text>
</a>
</g>
</g>
<!-- Node2 -->
<g id="Node000002" class="node">
<title>Node2</title>
<g id="a_Node000002"><a xlink:href="group__linalg__blas__hl.html#gafc39d257b7d68f7d9ee64c3329c80429" target="_top" xlink:title=" ">
<polygon fill="white" stroke="#666666" points="138,-142 0,-142 0,-123 138,-123 138,-142"/>
<text text-anchor="middle" x="69" y="-130" font-family="Helvetica,sans-Serif" font-size="10.00">guanaqo::blas::xlauum_L</text>
</a>
</g>
</g>
<!-- Node1&#45;&gt;Node2 -->
<g id="edge1_Node000001_Node000002" class="edge">
<title>Node1&#45;&gt;Node2</title>
<g id="a_edge1_Node000001_Node000002"><a xlink:title=" ">
<path fill="none" stroke="#63b8ff" d="M197,-87.23C179.4,-96.01 157.94,-106.02 138,-113.5 128.59,-117.03 118.23,-120.25 108.5,-122.99"/>
<polygon fill="#63b8ff" stroke="#63b8ff" points="199,-90.14 206.35,-82.51 195.84,-83.89 199,-90.14"/>
</a>
</g>
</g>
<!-- Node3 -->
<g id="Node000003" class="node">
<title>Node3</title>
<g id="a_Node000003"><a xlink:href="group__linalg__blas__ll.html#ga4c0f8d91597c94e7dd628055758e46e1" target="_top" xlink:title=" ">
<polygon fill="white" stroke="#666666" points="129,-104.5 9,-104.5 9,-74.5 129,-74.5 129,-104.5"/>
<text text-anchor="start" x="17" y="-92.5" font-family="Helvetica,sans-Serif" font-size="10.00">guanaqo::blas::xpotrf</text>
<text text-anchor="middle" x="69" y="-81.5" font-family="Helvetica,sans-Serif" font-size="10.00">_batch_strided</text>
</a>
</g>
</g>
<!-- Node1&#45;&gt;Node3 -->
<g id="edge2_Node000001_Node000003" class="edge">
<title>Node1&#45;&gt;Node3</title>
<g id="a_edge2_Node000001_Node000003"><a xlink:title=" ">
<path fill="none" stroke="#63b8ff" d="M163.7,-76.97C152.18,-78.51 140.37,-80.09 129.17,-81.59"/>
<polygon fill="#63b8ff" stroke="#63b8ff" points="164.27,-80.42 173.71,-75.63 163.34,-73.49 164.27,-80.42"/>
</a>
</g>
</g>
<!-- Node4 -->
<g id="Node000004" class="node">
<title>Node4</title>
<g id="a_Node000004"><a xlink:href="group__linalg__blas__hl.html#ga5c1c9f54a74fb21671b35ce863f441ea" target="_top" xlink:title=" ">
<polygon fill="white" stroke="#666666" points="134.5,-56 3.5,-56 3.5,-37 134.5,-37 134.5,-56"/>
<text text-anchor="middle" x="69" y="-44" font-family="Helvetica,sans-Serif" font-size="10.00">guanaqo::blas::xpotrf_L</text>
</a>
</g>
</g>
<!-- Node1&#45;&gt;Node4 -->
<g id="edge3_Node000001_Node000004" class="edge">
<title>Node1&#45;&gt;Node4</title>
<g id="a_edge3_Node000001_Node000004"><a xlink:title=" ">
<path fill="none" stroke="#63b8ff" d="M163.75,-58.47C154.09,-57.24 144.22,-55.97 134.68,-54.76"/>
<polygon fill="#63b8ff" stroke="#63b8ff" points="163.35,-61.95 173.71,-59.74 164.24,-55 163.35,-61.95"/>
</a>
</g>
</g>
<!-- Node5 -->
<g id="Node000005" class="node">
<title>Node5</title>
<g id="a_Node000005"><a xlink:href="group__linalg__blas__hl.html#ga5a3709e97992131be83a447b9b5cad11" target="_top" xlink:title=" ">
<polygon fill="white" stroke="#666666" points="135.5,-19 2.5,-19 2.5,0 135.5,0 135.5,-19"/>
<text text-anchor="middle" x="69" y="-7" font-family="Helvetica,sans-Serif" font-size="10.00">guanaqo::blas::xtrtri_LN</text>
</a>
</g>
</g>
<!-- Node1&#45;&gt;Node5 -->
<g id="edge4_Node000001_Node000005" class="edge">
<title>Node1&#45;&gt;Node5</title>
<g id="a_edge4_Node000001_Node000005"><a xlink:title=" ">
<path fill="none" stroke="#63b8ff" d="M190.68,-48.59C174.3,-41.84 155.44,-34.44 138,-28.5 128.02,-25.1 117.07,-21.84 106.93,-19.01"/>
<polygon fill="#63b8ff" stroke="#63b8ff" points="189.44,-51.86 200.01,-52.47 192.13,-45.4 189.44,-51.86"/>
</a>
</g>
</g>
</g>
</svg>
