<?xml version="1.0" encoding="UTF-8" standalone="no"?>
<!DOCTYPE svg PUBLIC "-//W3C//DTD SVG 1.1//EN"
 "http://www.w3.org/Graphics/SVG/1.1/DTD/svg11.dtd">
<!-- Generated by graphviz version 2.43.0 (0)
 -->
<!-- Title: guanaqo::io::CSVReader::read_chunk Pages: 1 -->
<svg width="676pt" height="113pt"
 viewBox="0.00 0.00 676.00 112.50" xmlns="http://www.w3.org/2000/svg" xmlns:xlink="http://www.w3.org/1999/xlink">
<g id="graph0" class="graph" transform="scale(1 1) rotate(0) translate(4 108.5)">
<title>guanaqo::io::CSVReader::read_chunk</title>
<!-- Node1 -->
<g id="Node000001" class="node">
<title>Node1</title>
<g id="a_Node000001"><a xlink:title=" ">
<polygon fill="#999999" stroke="#666666" points="668,-70 534,-70 534,-40 668,-40 668,-70"/>
<text text-anchor="start" x="542" y="-58" font-family="Helvetica,sans-Serif" font-size="10.00">guanaqo::io::CSVReader</text>
<text text-anchor="middle" x="601" y="-47" font-family="Helvetica,sans-Serif" font-size="10.00">::read_chunk</text>
</a>
</g>
</g>
<!-- Node2 -->
<g id="Node000002" class="node">
<title>Node2</title>
<g id="a_Node000002"><a xlink:href="structguanaqo_1_1io_1_1CSVReader.html#ac6ff711471364524ec918facf8059bc4" target="_top" xlink:title=" ">
<polygon fill="white" stroke="#666666" points="498,-94 364,-94 364,-64 498,-64 498,-94"/>
<text text-anchor="start" x="372" y="-82" font-family="Helvetica,sans-Serif" font-size="10.00">guanaqo::io::CSVReader</text>
<text text-anchor="middle" x="431" y="-71" font-family="Helvetica,sans-Serif" font-size="10.00">::read</text>
</a>
</g>
</g>
<!-- Node1&#45;&gt;Node2 -->
<g id="edge1_Node000001_Node000002" class="edge">
<title>Node1&#45;&gt;Node2</title>
<g id="a_edge1_Node000001_Node000002"><a xlink:title=" ">
<path fill="none" stroke="#63b8ff" d="M523.68,-65.9C515.17,-67.12 506.56,-68.35 498.19,-69.54"/>
<polygon fill="#63b8ff" stroke="#63b8ff" points="524.2,-69.36 533.6,-64.49 523.21,-62.43 524.2,-69.36"/>
</a>
</g>
</g>
<!-- Node8 -->
<g id="Node000008" class="node">
<title>Node8</title>
<g id="a_Node000008"><a xlink:href="structguanaqo_1_1io_1_1CSVReader.html#a1ec0f1dda005a6206400f818159cf09f" target="_top" xlink:title=" ">
<polygon fill="white" stroke="#666666" points="498,-46 364,-46 364,-16 498,-16 498,-46"/>
<text text-anchor="start" x="372" y="-34" font-family="Helvetica,sans-Serif" font-size="10.00">guanaqo::io::CSVReader</text>
<text text-anchor="middle" x="431" y="-23" font-family="Helvetica,sans-Serif" font-size="10.00">::skip_comments</text>
</a>
</g>
</g>
<!-- Node1&#45;&gt;Node8 -->
<g id="edge7_Node000001_Node000008" class="edge">
<title>Node1&#45;&gt;Node8</title>
<g id="a_edge7_Node000001_Node000008"><a xlink:title=" ">
<path fill="none" stroke="#63b8ff" d="M523.68,-44.1C515.17,-42.88 506.56,-41.65 498.19,-40.46"/>
<polygon fill="#63b8ff" stroke="#63b8ff" points="523.21,-47.57 533.6,-45.51 524.2,-40.64 523.21,-47.57"/>
</a>
</g>
</g>
<!-- Node3 -->
<g id="Node000003" class="node">
<title>Node3</title>
<g id="a_Node000003"><a xlink:href="group__io.html#ga7b55c259788953b68dc075f6c3f3859a" target="_top" xlink:title=" ">
<polygon fill="white" stroke="#666666" points="316.5,-104.5 193.5,-104.5 193.5,-85.5 316.5,-85.5 316.5,-104.5"/>
<text text-anchor="middle" x="255" y="-92.5" font-family="Helvetica,sans-Serif" font-size="10.00">guanaqo::io::csv_read</text>
</a>
</g>
</g>
<!-- Node2&#45;&gt;Node3 -->
<g id="edge2_Node000002_Node000003" class="edge">
<title>Node2&#45;&gt;Node3</title>
<g id="a_edge2_Node000002_Node000003"><a xlink:title=" ">
<path fill="none" stroke="#63b8ff" d="M353.46,-86.04C341.15,-87.17 328.54,-88.33 316.66,-89.42"/>
<polygon fill="#63b8ff" stroke="#63b8ff" points="354.08,-89.5 363.72,-85.09 353.44,-82.53 354.08,-89.5"/>
</a>
</g>
</g>
<!-- Node5 -->
<g id="Node000005" class="node">
<title>Node5</title>
<g id="a_Node000005"><a xlink:href="group__io.html#ga087c9290a0520b3f1b02b6787c921604" target="_top" xlink:title=" ">
<polygon fill="white" stroke="#666666" points="328,-67.5 182,-67.5 182,-48.5 328,-48.5 328,-67.5"/>
<text text-anchor="middle" x="255" y="-55.5" font-family="Helvetica,sans-Serif" font-size="10.00">guanaqo::io::csv_read_row</text>
</a>
</g>
</g>
<!-- Node2&#45;&gt;Node5 -->
<g id="edge4_Node000002_Node000005" class="edge">
<title>Node2&#45;&gt;Node5</title>
<g id="a_edge4_Node000002_Node000005"><a xlink:title=" ">
<path fill="none" stroke="#63b8ff" d="M353.53,-69.77C345.11,-68.75 336.55,-67.72 328.18,-66.71"/>
<polygon fill="#63b8ff" stroke="#63b8ff" points="353.37,-73.28 363.72,-71 354.21,-66.33 353.37,-73.28"/>
</a>
</g>
</g>
<!-- Node7 -->
<g id="Node000007" class="node">
<title>Node7</title>
<g id="a_Node000007"><a xlink:href="group__io.html#ga373fb78c94722a8266ff76164178ee3e" target="_top" xlink:title=" ">
<polygon fill="white" stroke="#666666" points="316.5,-30 193.5,-30 193.5,0 316.5,0 316.5,-30"/>
<text text-anchor="start" x="201.5" y="-18" font-family="Helvetica,sans-Serif" font-size="10.00">guanaqo::io::csv_read</text>
<text text-anchor="middle" x="255" y="-7" font-family="Helvetica,sans-Serif" font-size="10.00">_row_std_vector</text>
</a>
</g>
</g>
<!-- Node2&#45;&gt;Node7 -->
<g id="edge6_Node000002_Node000007" class="edge">
<title>Node2&#45;&gt;Node7</title>
<g id="a_edge6_Node000002_Node000007"><a xlink:title=" ">
<path fill="none" stroke="#63b8ff" d="M377.96,-60.33C373.23,-58.56 368.52,-56.76 364,-55 347.85,-48.7 344.19,-46.18 328,-40 319.22,-36.65 309.78,-33.24 300.71,-30.05"/>
<polygon fill="#63b8ff" stroke="#63b8ff" points="377.05,-63.73 387.64,-63.92 379.48,-57.16 377.05,-63.73"/>
</a>
</g>
</g>
<!-- Node4 -->
<g id="Node000004" class="node">
<title>Node4</title>
<g id="a_Node000004"><a xlink:href="group__io.html#ga6bbbe06b5fadeadd6d20822460efa6a1" target="_top" xlink:title=" ">
<polygon fill="white" stroke="#666666" points="134.5,-104.5 11.5,-104.5 11.5,-85.5 134.5,-85.5 134.5,-104.5"/>
<text text-anchor="middle" x="73" y="-92.5" font-family="Helvetica,sans-Serif" font-size="10.00">guanaqo::io::csv_read</text>
</a>
</g>
</g>
<!-- Node3&#45;&gt;Node4 -->
<g id="edge3_Node000003_Node000004" class="edge">
<title>Node3&#45;&gt;Node4</title>
<g id="a_edge3_Node000003_Node000004"><a xlink:title=" ">
<path fill="none" stroke="#63b8ff" d="M182.97,-95C167.01,-95 150.22,-95 134.73,-95"/>
<polygon fill="#63b8ff" stroke="#63b8ff" points="183.31,-98.5 193.31,-95 183.31,-91.5 183.31,-98.5"/>
</a>
</g>
</g>
<!-- Node6 -->
<g id="Node000006" class="node">
<title>Node6</title>
<g id="a_Node000006"><a xlink:href="group__io.html#ga96150e75b0b710f811a29db34a2ceee2" target="_top" xlink:title=" ">
<polygon fill="white" stroke="#666666" points="146,-67.5 0,-67.5 0,-48.5 146,-48.5 146,-67.5"/>
<text text-anchor="middle" x="73" y="-55.5" font-family="Helvetica,sans-Serif" font-size="10.00">guanaqo::io::csv_read_row</text>
</a>
</g>
</g>
<!-- Node5&#45;&gt;Node6 -->
<g id="edge5_Node000005_Node000006" class="edge">
<title>Node5&#45;&gt;Node6</title>
<g id="a_edge5_Node000005_Node000006"><a xlink:title=" ">
<path fill="none" stroke="#63b8ff" d="M171.56,-58C163.09,-58 154.54,-58 146.19,-58"/>
<polygon fill="#63b8ff" stroke="#63b8ff" points="171.82,-61.5 181.82,-58 171.82,-54.5 171.82,-61.5"/>
</a>
</g>
</g>
<!-- Node8&#45;&gt;Node3 -->
<g id="edge8_Node000008_Node000003" class="edge">
<title>Node8&#45;&gt;Node3</title>
<g id="a_edge8_Node000008_Node000003"><a xlink:title=" ">
<path fill="none" stroke="#63b8ff" d="M375.19,-49.96C371.37,-51.58 367.6,-53.26 364,-55 347.1,-63.13 345.29,-69.75 328,-77 320.16,-80.29 311.57,-83.07 303.15,-85.4"/>
<polygon fill="#63b8ff" stroke="#63b8ff" points="376.81,-53.08 384.77,-46.08 374.19,-46.59 376.81,-53.08"/>
</a>
</g>
</g>
<!-- Node8&#45;&gt;Node5 -->
<g id="edge9_Node000008_Node000005" class="edge">
<title>Node8&#45;&gt;Node5</title>
<g id="a_edge9_Node000008_Node000005"><a xlink:title=" ">
<path fill="none" stroke="#63b8ff" d="M353.59,-42.86C341.43,-44.74 328.99,-46.67 317.23,-48.5"/>
<polygon fill="#63b8ff" stroke="#63b8ff" points="354.38,-46.28 363.72,-41.28 353.3,-39.36 354.38,-46.28"/>
</a>
</g>
</g>
<!-- Node8&#45;&gt;Node7 -->
<g id="edge10_Node000008_Node000007" class="edge">
<title>Node8&#45;&gt;Node7</title>
<g id="a_edge10_Node000008_Node000007"><a xlink:title=" ">
<path fill="none" stroke="#63b8ff" d="M353.46,-23.96C341.15,-22.83 328.54,-21.67 316.66,-20.58"/>
<polygon fill="#63b8ff" stroke="#63b8ff" points="353.44,-27.47 363.72,-24.91 354.08,-20.5 353.44,-27.47"/>
</a>
</g>
</g>
</g>
</svg>
