<?xml version="1.0" encoding="UTF-8" standalone="no"?>
<!DOCTYPE svg PUBLIC "-//W3C//DTD SVG 1.1//EN"
 "http://www.w3.org/Graphics/SVG/1.1/DTD/svg11.dtd">
<!-- Generated by graphviz version 2.43.0 (0)
 -->
<!-- Title: guanaqo::TypeErased::owns_referenced_object Pages: 1 -->
<svg width="461pt" height="230pt"
 viewBox="0.00 0.00 461.00 230.00" xmlns="http://www.w3.org/2000/svg" xmlns:xlink="http://www.w3.org/1999/xlink">
<g id="graph0" class="graph" transform="scale(1 1) rotate(0) translate(4 226)">
<title>guanaqo::TypeErased::owns_referenced_object</title>
<!-- Node1 -->
<g id="Node000001" class="node">
<title>Node1</title>
<g id="a_Node000001"><a xlink:title="Check if this wrapper owns the storage of the wrapped object, or whether it simply stores a reference...">
<polygon fill="#999999" stroke="#666666" points="453,-126 312,-126 312,-96 453,-96 453,-126"/>
<text text-anchor="start" x="320" y="-114" font-family="Helvetica,sans-Serif" font-size="10.00">guanaqo::TypeErased</text>
<text text-anchor="middle" x="382.5" y="-103" font-family="Helvetica,sans-Serif" font-size="10.00">::owns_referenced_object</text>
</a>
</g>
</g>
<!-- Node2 -->
<g id="Node000002" class="node">
<title>Node2</title>
<g id="a_Node000002"><a xlink:href="classguanaqo_1_1TypeErased.html#ad922828914ba7d9a631f9538a31b7b38" target="_top" xlink:title="Destroy the type&#45;erased object (if not empty), and deallocate the memory if necessary.">
<polygon fill="white" stroke="#666666" points="276,-162 156,-162 156,-132 276,-132 276,-162"/>
<text text-anchor="start" x="164" y="-150" font-family="Helvetica,sans-Serif" font-size="10.00">guanaqo::TypeErased</text>
<text text-anchor="middle" x="216" y="-139" font-family="Helvetica,sans-Serif" font-size="10.00">::cleanup</text>
</a>
</g>
</g>
<!-- Node1&#45;&gt;Node2 -->
<g id="edge1_Node000001_Node000002" class="edge">
<title>Node1&#45;&gt;Node2</title>
<g id="a_edge1_Node000001_Node000002"><a xlink:title=" ">
<path fill="none" stroke="#63b8ff" d="M302.66,-128.25C293.73,-130.21 284.75,-132.17 276.13,-134.06"/>
<polygon fill="#63b8ff" stroke="#63b8ff" points="303.67,-131.62 312.69,-126.06 302.17,-124.78 303.67,-131.62"/>
</a>
</g>
</g>
<!-- Node6 -->
<g id="Node000006" class="node">
<title>Node6</title>
<g id="a_Node000006"><a xlink:href="classguanaqo_1_1TypeErased.html#a9a9a3fb15c4b0c9ee907e0c790175ee7" target="_top" xlink:title=" ">
<polygon fill="white" stroke="#666666" points="276,-102 156,-102 156,-72 276,-72 276,-102"/>
<text text-anchor="start" x="164" y="-90" font-family="Helvetica,sans-Serif" font-size="10.00">guanaqo::TypeErased</text>
<text text-anchor="middle" x="216" y="-79" font-family="Helvetica,sans-Serif" font-size="10.00">::do_copy_assign</text>
</a>
</g>
</g>
<!-- Node1&#45;&gt;Node6 -->
<g id="edge5_Node000001_Node000006" class="edge">
<title>Node1&#45;&gt;Node6</title>
<g id="a_edge5_Node000001_Node000006"><a xlink:title=" ">
<path fill="none" stroke="#63b8ff" d="M301.7,-99.36C293.12,-98.11 284.5,-96.85 276.22,-95.64"/>
<polygon fill="#63b8ff" stroke="#63b8ff" points="301.34,-102.84 311.74,-100.82 302.35,-95.91 301.34,-102.84"/>
</a>
</g>
</g>
<!-- Node3 -->
<g id="Node000003" class="node">
<title>Node3</title>
<g id="a_Node000003"><a xlink:href="classguanaqo_1_1TypeErased.html#a7037b452c2188fe5a496df955edb9227" target="_top" xlink:title="Destructor.">
<polygon fill="white" stroke="#666666" points="120,-222 0,-222 0,-192 120,-192 120,-222"/>
<text text-anchor="start" x="8" y="-210" font-family="Helvetica,sans-Serif" font-size="10.00">guanaqo::TypeErased</text>
<text text-anchor="middle" x="60" y="-199" font-family="Helvetica,sans-Serif" font-size="10.00">::~TypeErased</text>
</a>
</g>
</g>
<!-- Node2&#45;&gt;Node3 -->
<g id="edge2_Node000002_Node000003" class="edge">
<title>Node2&#45;&gt;Node3</title>
<g id="a_edge2_Node000002_Node000003"><a xlink:title=" ">
<path fill="none" stroke="#63b8ff" d="M166.79,-165.78C145.14,-174.22 119.95,-184.03 99.58,-191.97"/>
<polygon fill="#63b8ff" stroke="#63b8ff" points="168.09,-169.03 176.14,-162.14 165.55,-162.51 168.09,-169.03"/>
</a>
</g>
</g>
<!-- Node4 -->
<g id="Node000004" class="node">
<title>Node4</title>
<g id="a_Node000004"><a xlink:href="classguanaqo_1_1TypeErased.html#a200f8ff694b5ae333d19578655c51b29" target="_top" xlink:title="Copy assignment.">
<polygon fill="white" stroke="#666666" points="120,-126 0,-126 0,-96 120,-96 120,-126"/>
<text text-anchor="start" x="8" y="-114" font-family="Helvetica,sans-Serif" font-size="10.00">guanaqo::TypeErased</text>
<text text-anchor="middle" x="60" y="-103" font-family="Helvetica,sans-Serif" font-size="10.00">::operator=</text>
</a>
</g>
</g>
<!-- Node2&#45;&gt;Node4 -->
<g id="edge3_Node000002_Node000004" class="edge">
<title>Node2&#45;&gt;Node4</title>
<g id="a_edge3_Node000002_Node000004"><a xlink:title=" ">
<path fill="none" stroke="#63b8ff" d="M145.91,-130.85C137.33,-128.84 128.61,-126.81 120.2,-124.84"/>
<polygon fill="#63b8ff" stroke="#63b8ff" points="145.37,-134.32 155.9,-133.18 146.96,-127.5 145.37,-134.32"/>
</a>
</g>
</g>
<!-- Node5 -->
<g id="Node000005" class="node">
<title>Node5</title>
<g id="a_Node000005"><a xlink:href="classguanaqo_1_1TypeErased.html#afdb83d79e0f8a75cf16a166a3888eab9" target="_top" xlink:title="Move assignment.">
<polygon fill="white" stroke="#666666" points="120,-174 0,-174 0,-144 120,-144 120,-174"/>
<text text-anchor="start" x="8" y="-162" font-family="Helvetica,sans-Serif" font-size="10.00">guanaqo::TypeErased</text>
<text text-anchor="middle" x="60" y="-151" font-family="Helvetica,sans-Serif" font-size="10.00">::operator=</text>
</a>
</g>
</g>
<!-- Node2&#45;&gt;Node5 -->
<g id="edge4_Node000002_Node000005" class="edge">
<title>Node2&#45;&gt;Node5</title>
<g id="a_edge4_Node000002_Node000005"><a xlink:title=" ">
<path fill="none" stroke="#63b8ff" d="M145.91,-152.38C137.33,-153.05 128.61,-153.73 120.2,-154.39"/>
<polygon fill="#63b8ff" stroke="#63b8ff" points="146.2,-155.87 155.9,-151.61 145.66,-148.89 146.2,-155.87"/>
</a>
</g>
</g>
<!-- Node6&#45;&gt;Node4 -->
<g id="edge8_Node000006_Node000004" class="edge">
<title>Node6&#45;&gt;Node4</title>
<g id="a_edge8_Node000006_Node000004"><a xlink:title=" ">
<path fill="none" stroke="#63b8ff" d="M145.91,-97.77C137.33,-99.1 128.61,-100.46 120.2,-101.77"/>
<polygon fill="#63b8ff" stroke="#63b8ff" points="146.56,-101.21 155.9,-96.21 145.48,-94.29 146.56,-101.21"/>
</a>
</g>
</g>
<!-- Node7 -->
<g id="Node000007" class="node">
<title>Node7</title>
<g id="a_Node000007"><a xlink:href="classguanaqo_1_1TypeErased.html#a36693eaff4f3d29737ef091995b3631f" target="_top" xlink:title="Copy constructor.">
<polygon fill="white" stroke="#666666" points="120,-78 0,-78 0,-48 120,-48 120,-78"/>
<text text-anchor="start" x="8" y="-66" font-family="Helvetica,sans-Serif" font-size="10.00">guanaqo::TypeErased</text>
<text text-anchor="middle" x="60" y="-55" font-family="Helvetica,sans-Serif" font-size="10.00">::TypeErased</text>
</a>
</g>
</g>
<!-- Node6&#45;&gt;Node7 -->
<g id="edge6_Node000006_Node000007" class="edge">
<title>Node6&#45;&gt;Node7</title>
<g id="a_edge6_Node000006_Node000007"><a xlink:title=" ">
<path fill="none" stroke="#63b8ff" d="M145.91,-76.23C137.33,-74.9 128.61,-73.54 120.2,-72.23"/>
<polygon fill="#63b8ff" stroke="#63b8ff" points="145.48,-79.71 155.9,-77.79 146.56,-72.79 145.48,-79.71"/>
</a>
</g>
</g>
<!-- Node8 -->
<g id="Node000008" class="node">
<title>Node8</title>
<g id="a_Node000008"><a xlink:href="classguanaqo_1_1TypeErased.html#aeb0fa9e489bf394bab8a112990184133" target="_top" xlink:title="Copy constructor (allocator aware).">
<polygon fill="white" stroke="#666666" points="120,-30 0,-30 0,0 120,0 120,-30"/>
<text text-anchor="start" x="8" y="-18" font-family="Helvetica,sans-Serif" font-size="10.00">guanaqo::TypeErased</text>
<text text-anchor="middle" x="60" y="-7" font-family="Helvetica,sans-Serif" font-size="10.00">::TypeErased</text>
</a>
</g>
</g>
<!-- Node6&#45;&gt;Node8 -->
<g id="edge7_Node000006_Node000008" class="edge">
<title>Node6&#45;&gt;Node8</title>
<g id="a_edge7_Node000006_Node000008"><a xlink:title=" ">
<path fill="none" stroke="#63b8ff" d="M177.39,-67.11C160.08,-58.18 139.16,-47.72 120,-39 113.36,-35.98 106.22,-32.92 99.28,-30.04"/>
<polygon fill="#63b8ff" stroke="#63b8ff" points="176.12,-70.39 186.61,-71.89 179.35,-64.18 176.12,-70.39"/>
</a>
</g>
</g>
</g>
</svg>
