<?xml version="1.0" encoding="UTF-8" standalone="no"?>
<!DOCTYPE svg PUBLIC "-//W3C//DTD SVG 1.1//EN"
 "http://www.w3.org/Graphics/SVG/1.1/DTD/svg11.dtd">
<!-- Generated by graphviz version 2.43.0 (0)
 -->
<!-- Title: Linear Algebra Pages: 1 -->
<svg width="250pt" height="101pt"
 viewBox="0.00 0.00 250.00 101.00" xmlns="http://www.w3.org/2000/svg" xmlns:xlink="http://www.w3.org/1999/xlink">

<svg id="main" version="1.1" xmlns="http://www.w3.org/2000/svg" xmlns:xlink="http://www.w3.org/1999/xlink" xml:space="preserve">

<style type="text/css"><![CDATA[
.node, .edge {opacity: 0.7;}
.node.selected, .edge.selected {opacity: 1;}
.edge:hover path { stroke: red; }
.edge:hover polygon { stroke: red; fill: red; }
]]></style>
<script type="application/ecmascript" xlink:href="svg.min.js"/>
<svg id="graph" class="graph">
<g id="graph0" class="graph" transform="scale(1 1) rotate(0) translate(4 97)">
<title>Linear Algebra</title>
<!-- Node1 -->
<g id="Node000001" class="node">
<title>Node1</title>
<g id="a_Node000001"><a xlink:title="Linear algebra utilities, including dense and matrix views, conversions, BLAS wrappers,...">
<polygon fill="#999999" stroke="#666666" points="87,-56 0,-56 0,-37 87,-37 87,-56"/>
<text text-anchor="middle" x="43.5" y="-44" font-family="Helvetica,sans-Serif" font-size="10.00">Linear Algebra</text>
</a>
</g>
</g>
<!-- Node4 -->
<g id="Node000004" class="node">
<title>Node4</title>
<g id="a_Node000004"><a xlink:href="group__linalg__blas.html" target="_top" xlink:title="Convenience wrappers around BLAS and LAPACK functions.">
<polygon fill="white" stroke="#666666" points="228.5,-93 136.5,-93 136.5,-74 228.5,-74 228.5,-93"/>
<text text-anchor="middle" x="182.5" y="-81" font-family="Helvetica,sans-Serif" font-size="10.00">BLAS Wrappers</text>
</a>
</g>
</g>
<!-- Node1&#45;&gt;Node4 -->
<g id="edge3" class="edge">
<title>Node1&#45;&gt;Node4</title>
<path fill="none" stroke="black" d="M89.63,-58.69C107.9,-63.62 128.69,-69.24 145.86,-73.88"/>
<polygon fill="black" stroke="black" points="90.35,-55.26 79.78,-56.03 88.52,-62.01 90.35,-55.26"/>
</g>
<!-- Node3 -->
<g id="Node000003" class="node">
<title>Node3</title>
<g id="a_Node000003"><a xlink:href="group__linalg__sparsity.html" target="_top" xlink:title="Sparse matrix data structures.">
<polygon fill="white" stroke="#666666" points="230,-56 135,-56 135,-37 230,-37 230,-56"/>
<text text-anchor="middle" x="182.5" y="-44" font-family="Helvetica,sans-Serif" font-size="10.00">Sparse matrices</text>
</a>
</g>
</g>
<!-- Node1&#45;&gt;Node3 -->
<g id="edge2" class="edge">
<title>Node1&#45;&gt;Node3</title>
<path fill="none" stroke="black" d="M97.24,-46.5C109.56,-46.5 122.6,-46.5 134.64,-46.5"/>
<polygon fill="black" stroke="black" points="97.1,-43 87.1,-46.5 97.1,-50 97.1,-43"/>
</g>
<!-- Node2 -->
<g id="Node000002" class="node">
<title>Node2</title>
<g id="a_Node000002"><a xlink:href="group__linalg__views.html" target="_top" xlink:title="Dense matrix views and Eigen interop adapters.">
<polygon fill="white" stroke="#666666" points="242,-19 123,-19 123,0 242,0 242,-19"/>
<text text-anchor="middle" x="182.5" y="-7" font-family="Helvetica,sans-Serif" font-size="10.00">Linear Algebra Views</text>
</a>
</g>
</g>
<!-- Node1&#45;&gt;Node2 -->
<g id="edge1" class="edge">
<title>Node1&#45;&gt;Node2</title>
<path fill="none" stroke="black" d="M89.63,-34.31C107.9,-29.38 128.69,-23.76 145.86,-19.12"/>
<polygon fill="black" stroke="black" points="88.52,-30.99 79.78,-36.97 90.35,-37.74 88.52,-30.99"/>
</g>
</g>
</svg>
</svg>

<style type='text/css'>
<![CDATA[
[data-mouse-over-selected='false'] { opacity: 0.7; }
[data-mouse-over-selected='true']  { opacity: 1.0; }
]]>
</style>
<script type="application/ecmascript"><![CDATA[
document.addEventListener('DOMContentLoaded', (event) => {
  highlightEdges();
  highlightAdjacentNodes();
});
]]></script>
</svg>
