<?xml version="1.0" encoding="UTF-8" standalone="no"?>
<!DOCTYPE svg PUBLIC "-//W3C//DTD SVG 1.1//EN"
 "http://www.w3.org/Graphics/SVG/1.1/DTD/svg11.dtd">
<!-- Generated by graphviz version 2.43.0 (0)
 -->
<!-- Title: guanaqo::blas::xpotrf_L Pages: 1 -->
<svg width="298pt" height="76pt"
 viewBox="0.00 0.00 298.00 75.50" xmlns="http://www.w3.org/2000/svg" xmlns:xlink="http://www.w3.org/1999/xlink">
<g id="graph0" class="graph" transform="scale(1 1) rotate(0) translate(4 71.5)">
<title>guanaqo::blas::xpotrf_L</title>
<!-- Node1 -->
<g id="Node000001" class="node">
<title>Node1</title>
<g id="a_Node000001"><a xlink:title=" ">
<polygon fill="#999999" stroke="#666666" points="131,-40 0,-40 0,-21 131,-21 131,-40"/>
<text text-anchor="middle" x="65.5" y="-28" font-family="Helvetica,sans-Serif" font-size="10.00">guanaqo::blas::xpotrf_L</text>
</a>
</g>
</g>
<!-- Node2 -->
<g id="Node000002" class="node">
<title>Node2</title>
<g id="a_Node000002"><a xlink:href="group__linalg__blas__ll.html#ga4bb8b03015aec2dcf973a51b215cbcbc" target="_top" xlink:title=" ">
<polygon fill="white" stroke="#666666" points="290,-67.5 167,-67.5 167,-37.5 290,-37.5 290,-67.5"/>
<text text-anchor="start" x="175" y="-55.5" font-family="Helvetica,sans-Serif" font-size="10.00">guanaqo::blas::lapack</text>
<text text-anchor="middle" x="228.5" y="-44.5" font-family="Helvetica,sans-Serif" font-size="10.00">_throw_on_err</text>
</a>
</g>
</g>
<!-- Node1&#45;&gt;Node2 -->
<g id="edge1_Node000001_Node000002" class="edge">
<title>Node1&#45;&gt;Node2</title>
<g id="a_edge1_Node000001_Node000002"><a xlink:title=" ">
<path fill="none" stroke="#63b8ff" d="M131.06,-39.32C139.55,-40.48 148.28,-41.68 156.86,-42.85"/>
<polygon fill="#63b8ff" stroke="#63b8ff" points="156.46,-46.33 166.85,-44.21 157.41,-39.39 156.46,-46.33"/>
</a>
</g>
</g>
<!-- Node3 -->
<g id="Node000003" class="node">
<title>Node3</title>
<g id="a_Node000003"><a xlink:href="group__linalg__blas__ll.html#ga22734a8e0172ca981c5647ee8a32605b" target="_top" xlink:title=" ">
<polygon fill="white" stroke="#666666" points="288.5,-19 168.5,-19 168.5,0 288.5,0 288.5,-19"/>
<text text-anchor="middle" x="228.5" y="-7" font-family="Helvetica,sans-Serif" font-size="10.00">guanaqo::blas::xpotrf</text>
</a>
</g>
</g>
<!-- Node1&#45;&gt;Node3 -->
<g id="edge2_Node000001_Node000003" class="edge">
<title>Node1&#45;&gt;Node3</title>
<g id="a_edge2_Node000001_Node000003"><a xlink:title=" ">
<path fill="none" stroke="#63b8ff" d="M131.06,-22.08C140.02,-20.91 149.26,-19.71 158.3,-18.53"/>
<polygon fill="#63b8ff" stroke="#63b8ff" points="158.94,-21.97 168.4,-17.21 158.03,-15.03 158.94,-21.97"/>
</a>
</g>
</g>
</g>
</svg>
