<?xml version="1.0" encoding="UTF-8" standalone="no"?>
<!DOCTYPE svg PUBLIC "-//W3C//DTD SVG 1.1//EN"
 "http://www.w3.org/Graphics/SVG/1.1/DTD/svg11.dtd">
<!-- Generated by graphviz version 2.43.0 (0)
 -->
<!-- Title: include/guanaqo/perfetto/trace.hpp Pages: 1 -->
<svg width="358pt" height="159pt"
 viewBox="0.00 0.00 357.50 159.00" xmlns="http://www.w3.org/2000/svg" xmlns:xlink="http://www.w3.org/1999/xlink">

<svg id="main" version="1.1" xmlns="http://www.w3.org/2000/svg" xmlns:xlink="http://www.w3.org/1999/xlink" xml:space="preserve">

<style type="text/css"><![CDATA[
.node, .edge {opacity: 0.7;}
.node.selected, .edge.selected {opacity: 1;}
.edge:hover path { stroke: red; }
.edge:hover polygon { stroke: red; fill: red; }
]]></style>
<script type="application/ecmascript" xlink:href="svg.min.js"/>
<svg id="graph" class="graph">
<g id="graph0" class="graph" transform="scale(1 1) rotate(0) translate(4 155)">
<title>include/guanaqo/perfetto/trace.hpp</title>
<!-- Node1 -->
<g id="Node000001" class="node">
<title>Node1</title>
<g id="a_Node000001"><a xlink:title="Perfetto tracing macros and session helpers.">
<polygon fill="#999999" stroke="#666666" points="282.5,-151 143.5,-151 143.5,-121 282.5,-121 282.5,-151"/>
<text text-anchor="start" x="151.5" y="-139" font-family="Helvetica,sans-Serif" font-size="10.00">include/guanaqo/perfetto</text>
<text text-anchor="middle" x="213" y="-128" font-family="Helvetica,sans-Serif" font-size="10.00">/trace.hpp</text>
</a>
</g>
</g>
<!-- Node2 -->
<g id="Node000002" class="node">
<title>Node2</title>
<g id="a_Node000002"><a xlink:href="trace_8hpp.html" target="_top" xlink:title="Tracing logger and macros (ITT, Perfetto, or fallback).">
<polygon fill="white" stroke="#666666" points="210,-85 64,-85 64,-66 210,-66 210,-85"/>
<text text-anchor="middle" x="137" y="-73" font-family="Helvetica,sans-Serif" font-size="10.00">include/guanaqo/trace.hpp</text>
</a>
</g>
</g>
<!-- Node1&#45;&gt;Node2 -->
<g id="edge1_Node000001_Node000002" class="edge">
<title>Node1&#45;&gt;Node2</title>
<g id="a_edge1_Node000001_Node000002"><a xlink:title=" ">
<path fill="none" stroke="#63b8ff" d="M186.41,-114.53C173.39,-104.51 158.41,-92.98 148.39,-85.27"/>
<polygon fill="#63b8ff" stroke="#63b8ff" points="184.54,-117.51 194.6,-120.84 188.81,-111.97 184.54,-117.51"/>
</a>
</g>
</g>
<!-- Node5 -->
<g id="Node000005" class="node">
<title>Node5</title>
<g id="a_Node000005"><a xlink:href="perfetto_2trace_8cpp.html" target="_top" xlink:title=" ">
<polygon fill="white" stroke="#666666" points="349.5,-85 228.5,-85 228.5,-66 349.5,-66 349.5,-85"/>
<text text-anchor="middle" x="289" y="-73" font-family="Helvetica,sans-Serif" font-size="10.00">src/perfetto/trace.cpp</text>
</a>
</g>
</g>
<!-- Node1&#45;&gt;Node5 -->
<g id="edge4_Node000001_Node000005" class="edge">
<title>Node1&#45;&gt;Node5</title>
<g id="a_edge4_Node000001_Node000005"><a xlink:title=" ">
<path fill="none" stroke="#63b8ff" d="M239.59,-114.53C252.61,-104.51 267.59,-92.98 277.61,-85.27"/>
<polygon fill="#63b8ff" stroke="#63b8ff" points="237.19,-111.97 231.4,-120.84 241.46,-117.51 237.19,-111.97"/>
</a>
</g>
</g>
<!-- Node3 -->
<g id="Node000003" class="node">
<title>Node3</title>
<g id="a_Node000003"><a xlink:href="hl-blas-interface_8hpp.html" target="_top" xlink:title="This file provides simple overloaded wrappers around standard BLAS functions.">
<polygon fill="white" stroke="#666666" points="144,-30 0,-30 0,0 144,0 144,-30"/>
<text text-anchor="start" x="8" y="-18" font-family="Helvetica,sans-Serif" font-size="10.00">blas/include/guanaqo</text>
<text text-anchor="middle" x="72" y="-7" font-family="Helvetica,sans-Serif" font-size="10.00">/blas/hl&#45;blas&#45;interface.hpp</text>
</a>
</g>
</g>
<!-- Node2&#45;&gt;Node3 -->
<g id="edge2_Node000002_Node000003" class="edge">
<title>Node2&#45;&gt;Node3</title>
<g id="a_edge2_Node000002_Node000003"><a xlink:title=" ">
<path fill="none" stroke="#63b8ff" d="M119.74,-58.97C109.78,-50.01 97.36,-38.82 87.68,-30.11"/>
<polygon fill="#63b8ff" stroke="#63b8ff" points="117.63,-61.78 127.41,-65.87 122.32,-56.58 117.63,-61.78"/>
</a>
</g>
</g>
<!-- Node4 -->
<g id="Node000004" class="node">
<title>Node4</title>
<g id="a_Node000004"><a xlink:href="trace_8cpp.html" target="_top" xlink:title=" ">
<polygon fill="white" stroke="#666666" points="241.5,-24.5 162.5,-24.5 162.5,-5.5 241.5,-5.5 241.5,-24.5"/>
<text text-anchor="middle" x="202" y="-12.5" font-family="Helvetica,sans-Serif" font-size="10.00">src/trace.cpp</text>
</a>
</g>
</g>
<!-- Node2&#45;&gt;Node4 -->
<g id="edge3_Node000002_Node000004" class="edge">
<title>Node2&#45;&gt;Node4</title>
<g id="a_edge3_Node000002_Node000004"><a xlink:title=" ">
<path fill="none" stroke="#63b8ff" d="M154.32,-58.91C166.51,-47.94 182.37,-33.67 192.37,-24.67"/>
<polygon fill="#63b8ff" stroke="#63b8ff" points="151.68,-56.58 146.59,-65.87 156.37,-61.78 151.68,-56.58"/>
</a>
</g>
</g>
</g>
</svg>
</svg>

<style type='text/css'>
<![CDATA[
[data-mouse-over-selected='false'] { opacity: 0.7; }
[data-mouse-over-selected='true']  { opacity: 1.0; }
]]>
</style>
<script type="application/ecmascript"><![CDATA[
document.addEventListener('DOMContentLoaded', (event) => {
  highlightEdges();
  highlightAdjacentNodes();
});
]]></script>
</svg>
