<?xml version="1.0" encoding="UTF-8" standalone="no"?>
<!DOCTYPE svg PUBLIC "-//W3C//DTD SVG 1.1//EN"
 "http://www.w3.org/Graphics/SVG/1.1/DTD/svg11.dtd">
<!-- Generated by graphviz version 2.43.0 (0)
 -->
<!-- Title: include/guanaqo/ringbuffer.hpp Pages: 1 -->
<svg width="175pt" height="82pt"
 viewBox="0.00 0.00 175.00 82.00" xmlns="http://www.w3.org/2000/svg" xmlns:xlink="http://www.w3.org/1999/xlink">
<g id="graph0" class="graph" transform="scale(1 1) rotate(0) translate(4 78)">
<title>include/guanaqo/ringbuffer.hpp</title>
<!-- Node1 -->
<g id="Node000001" class="node">
<title>Node1</title>
<g id="a_Node000001"><a xlink:title="Circular index utilities and iterators.">
<polygon fill="#999999" stroke="#666666" points="167,-74 0,-74 0,-55 167,-55 167,-74"/>
<text text-anchor="middle" x="83.5" y="-62" font-family="Helvetica,sans-Serif" font-size="10.00">include/guanaqo/ringbuffer.hpp</text>
</a>
</g>
</g>
<!-- Node2 -->
<g id="Node000002" class="node">
<title>Node2</title>
<g id="a_Node000002"><a xlink:title=" ">
<polygon fill="#e0e0e0" stroke="#999999" points="75,-19 22,-19 22,0 75,0 75,-19"/>
<text text-anchor="middle" x="48.5" y="-7" font-family="Helvetica,sans-Serif" font-size="10.00">cstddef</text>
</a>
</g>
</g>
<!-- Node1&#45;&gt;Node2 -->
<g id="edge1_Node000001_Node000002" class="edge">
<title>Node1&#45;&gt;Node2</title>
<g id="a_edge1_Node000001_Node000002"><a xlink:title=" ">
<path fill="none" stroke="#63b8ff" d="M77.72,-54.75C72.88,-47.42 65.82,-36.73 59.86,-27.7"/>
<polygon fill="#63b8ff" stroke="#63b8ff" points="62.6,-25.5 54.17,-19.09 56.76,-29.36 62.6,-25.5"/>
</a>
</g>
</g>
<!-- Node3 -->
<g id="Node000003" class="node">
<title>Node3</title>
<g id="a_Node000003"><a xlink:title=" ">
<polygon fill="#e0e0e0" stroke="#999999" points="146,-19 93,-19 93,0 146,0 146,-19"/>
<text text-anchor="middle" x="119.5" y="-7" font-family="Helvetica,sans-Serif" font-size="10.00">iterator</text>
</a>
</g>
</g>
<!-- Node1&#45;&gt;Node3 -->
<g id="edge2_Node000001_Node000003" class="edge">
<title>Node1&#45;&gt;Node3</title>
<g id="a_edge2_Node000001_Node000003"><a xlink:title=" ">
<path fill="none" stroke="#63b8ff" d="M89.44,-54.75C94.48,-47.34 101.84,-36.5 108.01,-27.41"/>
<polygon fill="#63b8ff" stroke="#63b8ff" points="110.94,-29.33 113.67,-19.09 105.15,-25.39 110.94,-29.33"/>
</a>
</g>
</g>
</g>
</svg>
