<?xml version="1.0" encoding="UTF-8" standalone="no"?>
<!DOCTYPE svg PUBLIC "-//W3C//DTD SVG 1.1//EN"
 "http://www.w3.org/Graphics/SVG/1.1/DTD/svg11.dtd">
<!-- Generated by graphviz version 2.43.0 (0)
 -->
<!-- Title: guanaqo::pcm::ScopedCounters::ScopedCounters Pages: 1 -->
<svg width="519pt" height="38pt"
 viewBox="0.00 0.00 519.00 38.00" xmlns="http://www.w3.org/2000/svg" xmlns:xlink="http://www.w3.org/1999/xlink">
<g id="graph0" class="graph" transform="scale(1 1) rotate(0) translate(4 34)">
<title>guanaqo::pcm::ScopedCounters::ScopedCounters</title>
<!-- Node1 -->
<g id="Node000001" class="node">
<title>Node1</title>
<g id="a_Node000001"><a xlink:title=" ">
<polygon fill="#999999" stroke="#666666" points="170,-30 0,-30 0,0 170,0 170,-30"/>
<text text-anchor="start" x="8" y="-18" font-family="Helvetica,sans-Serif" font-size="10.00">guanaqo::pcm::ScopedCounters</text>
<text text-anchor="middle" x="85" y="-7" font-family="Helvetica,sans-Serif" font-size="10.00">::ScopedCounters</text>
</a>
</g>
</g>
<!-- Node2 -->
<g id="Node000002" class="node">
<title>Node2</title>
<g id="a_Node000002"><a xlink:href="group__trace__pcm.html#ga9c090e29ee057a1c150360045787dca5" target="_top" xlink:title="May return null if PCM is not available.">
<polygon fill="white" stroke="#666666" points="320,-30 206,-30 206,0 320,0 320,-30"/>
<text text-anchor="start" x="214" y="-18" font-family="Helvetica,sans-Serif" font-size="10.00">guanaqo::pcm::start</text>
<text text-anchor="middle" x="263" y="-7" font-family="Helvetica,sans-Serif" font-size="10.00">_counters</text>
</a>
</g>
</g>
<!-- Node1&#45;&gt;Node2 -->
<g id="edge1_Node000001_Node000002" class="edge">
<title>Node1&#45;&gt;Node2</title>
<g id="a_edge1_Node000001_Node000002"><a xlink:title=" ">
<path fill="none" stroke="#63b8ff" d="M170.13,-15C178.59,-15 187.08,-15 195.32,-15"/>
<polygon fill="#63b8ff" stroke="#63b8ff" points="195.58,-18.5 205.58,-15 195.58,-11.5 195.58,-18.5"/>
</a>
</g>
</g>
<!-- Node3 -->
<g id="Node000003" class="node">
<title>Node3</title>
<g id="a_Node000003"><a xlink:href="namespaceguanaqo_1_1pcm.html#a8ba89cb2ed664e9017288710c622d3f8" target="_top" xlink:title=" ">
<polygon fill="white" stroke="#666666" points="511,-30 356,-30 356,0 511,0 511,-30"/>
<text text-anchor="start" x="364" y="-18" font-family="Helvetica,sans-Serif" font-size="10.00">guanaqo::pcm::get_counters</text>
<text text-anchor="middle" x="433.5" y="-7" font-family="Helvetica,sans-Serif" font-size="10.00">_enabled_flag</text>
</a>
</g>
</g>
<!-- Node2&#45;&gt;Node3 -->
<g id="edge2_Node000002_Node000003" class="edge">
<title>Node2&#45;&gt;Node3</title>
<g id="a_edge2_Node000002_Node000003"><a xlink:title=" ">
<path fill="none" stroke="#63b8ff" d="M320.11,-15C328.37,-15 337.03,-15 345.73,-15"/>
<polygon fill="#63b8ff" stroke="#63b8ff" points="345.94,-18.5 355.94,-15 345.94,-11.5 345.94,-18.5"/>
</a>
</g>
</g>
</g>
</svg>
