<?xml version="1.0" encoding="UTF-8" standalone="no"?>
<!DOCTYPE svg PUBLIC "-//W3C//DTD SVG 1.1//EN"
 "http://www.w3.org/Graphics/SVG/1.1/DTD/svg11.dtd">
<!-- Generated by graphviz version 2.43.0 (0)
 -->
<!-- Title: guanaqo::MatrixView::iter_diagonal Pages: 1 -->
<svg width="333pt" height="108pt"
 viewBox="0.00 0.00 333.00 108.00" xmlns="http://www.w3.org/2000/svg" xmlns:xlink="http://www.w3.org/1999/xlink">
<g id="graph0" class="graph" transform="scale(1 1) rotate(0) translate(4 104)">
<title>guanaqo::MatrixView::iter_diagonal</title>
<!-- Node1 -->
<g id="Node000001" class="node">
<title>Node1</title>
<g id="a_Node000001"><a xlink:title=" ">
<polygon fill="#999999" stroke="#666666" points="325,-64.5 205,-64.5 205,-34.5 325,-34.5 325,-64.5"/>
<text text-anchor="start" x="213" y="-52.5" font-family="Helvetica,sans-Serif" font-size="10.00">guanaqo::MatrixView</text>
<text text-anchor="middle" x="265" y="-41.5" font-family="Helvetica,sans-Serif" font-size="10.00">::iter_diagonal</text>
</a>
</g>
</g>
<!-- Node2 -->
<g id="Node000002" class="node">
<title>Node2</title>
<g id="a_Node000002"><a xlink:href="structguanaqo_1_1MatrixView.html#ac11f90c23fac10a2276c2cb24cf6a9bc" target="_top" xlink:title=" ">
<polygon fill="white" stroke="#666666" points="169,-100 0,-100 0,-59 169,-59 169,-100"/>
<text text-anchor="start" x="8" y="-88" font-family="Helvetica,sans-Serif" font-size="10.00">guanaqo::MatrixView</text>
<text text-anchor="start" x="8" y="-77" font-family="Helvetica,sans-Serif" font-size="10.00">&lt; T, I, S, StorageOrder</text>
<text text-anchor="middle" x="84.5" y="-66" font-family="Helvetica,sans-Serif" font-size="10.00">::RowMajor &gt;::add_to_diagonal</text>
</a>
</g>
</g>
<!-- Node1&#45;&gt;Node2 -->
<g id="edge1_Node000001_Node000002" class="edge">
<title>Node1&#45;&gt;Node2</title>
<g id="a_edge1_Node000001_Node000002"><a xlink:title=" ">
<path fill="none" stroke="#63b8ff" d="M194.55,-61.17C186.23,-62.57 177.66,-64.01 169.16,-65.44"/>
<polygon fill="#63b8ff" stroke="#63b8ff" points="195.28,-64.6 204.56,-59.49 194.12,-57.7 195.28,-64.6"/>
</a>
</g>
</g>
<!-- Node3 -->
<g id="Node000003" class="node">
<title>Node3</title>
<g id="a_Node000003"><a xlink:href="structguanaqo_1_1MatrixView.html#aaef07905d9ada510c56b3cd51c6558fa" target="_top" xlink:title=" ">
<polygon fill="white" stroke="#666666" points="160,-41 9,-41 9,0 160,0 160,-41"/>
<text text-anchor="start" x="17" y="-29" font-family="Helvetica,sans-Serif" font-size="10.00">guanaqo::MatrixView</text>
<text text-anchor="start" x="17" y="-18" font-family="Helvetica,sans-Serif" font-size="10.00">&lt; T, I, S, StorageOrder</text>
<text text-anchor="middle" x="84.5" y="-7" font-family="Helvetica,sans-Serif" font-size="10.00">::RowMajor &gt;::set_diagonal</text>
</a>
</g>
</g>
<!-- Node1&#45;&gt;Node3 -->
<g id="edge2_Node000001_Node000003" class="edge">
<title>Node1&#45;&gt;Node3</title>
<g id="a_edge2_Node000001_Node000003"><a xlink:title=" ">
<path fill="none" stroke="#63b8ff" d="M194.41,-38.19C183.21,-36.37 171.56,-34.48 160.24,-32.64"/>
<polygon fill="#63b8ff" stroke="#63b8ff" points="194.13,-41.69 204.56,-39.84 195.25,-34.79 194.13,-41.69"/>
</a>
</g>
</g>
</g>
</svg>
