<?xml version="1.0" encoding="UTF-8" standalone="no"?>
<!DOCTYPE svg PUBLIC "-//W3C//DTD SVG 1.1//EN"
 "http://www.w3.org/Graphics/SVG/1.1/DTD/svg11.dtd">
<!-- Generated by graphviz version 2.43.0 (0)
 -->
<!-- Title: guanaqo::TraceLogger::ScopedLog::ScopedLog Pages: 1 -->
<svg width="312pt" height="182pt"
 viewBox="0.00 0.00 312.00 182.00" xmlns="http://www.w3.org/2000/svg" xmlns:xlink="http://www.w3.org/1999/xlink">

<svg id="main" version="1.1" xmlns="http://www.w3.org/2000/svg" xmlns:xlink="http://www.w3.org/1999/xlink" xml:space="preserve">

<style type="text/css"><![CDATA[
.node, .edge {opacity: 0.7;}
.node.selected, .edge.selected {opacity: 1;}
.edge:hover path { stroke: red; }
.edge:hover polygon { stroke: red; fill: red; }
]]></style>
<script type="application/ecmascript" xlink:href="svg.min.js"/>
<svg id="graph" class="graph">
<g id="graph0" class="graph" transform="scale(1 1) rotate(0) translate(4 178)">
<title>guanaqo::TraceLogger::ScopedLog::ScopedLog</title>
<!-- Node1 -->
<g id="Node000001" class="node">
<title>Node1</title>
<g id="a_Node000001"><a xlink:title=" ">
<polygon fill="#999999" stroke="#666666" points="304,-102 170,-102 170,-72 304,-72 304,-102"/>
<text text-anchor="start" x="178" y="-90" font-family="Helvetica,sans-Serif" font-size="10.00">guanaqo::TraceLogger</text>
<text text-anchor="middle" x="237" y="-79" font-family="Helvetica,sans-Serif" font-size="10.00">::ScopedLog::ScopedLog</text>
</a>
</g>
</g>
<!-- Node2 -->
<g id="Node000002" class="node">
<title>Node2</title>
<g id="a_Node000002"><a xlink:href="structguanaqo_1_1TraceLogger_1_1ScopedLog.html#a8754773d9fa0da4f3bb5799cdc6d5962" target="_top" xlink:title=" ">
<polygon fill="white" stroke="#666666" points="134,-174 0,-174 0,-144 134,-144 134,-174"/>
<text text-anchor="start" x="8" y="-162" font-family="Helvetica,sans-Serif" font-size="10.00">guanaqo::TraceLogger</text>
<text text-anchor="middle" x="67" y="-151" font-family="Helvetica,sans-Serif" font-size="10.00">::ScopedLog::ScopedLog</text>
</a>
</g>
</g>
<!-- Node1&#45;&gt;Node2 -->
<g id="edge1_Node000001_Node000002" class="edge">
<title>Node1&#45;&gt;Node2</title>
<g id="a_edge1_Node000001_Node000002"><a xlink:title=" ">
<path fill="none" stroke="#63b8ff" d="M196.82,-106.46C178,-115.54 155.02,-126.25 134,-135 126.68,-138.04 118.83,-141.09 111.18,-143.94"/>
<polygon fill="#63b8ff" stroke="#63b8ff" points="198.51,-109.53 205.97,-102.01 195.45,-103.23 198.51,-109.53"/>
</a>
</g>
</g>
<!-- Node3 -->
<g id="Node000003" class="node">
<title>Node3</title>
<g id="a_Node000003"><a xlink:href="structguanaqo_1_1TraceLogger_1_1ScopedLog.html#aac665ee03dbdc37dedf253f8b905ed4f" target="_top" xlink:title=" ">
<polygon fill="white" stroke="#666666" points="134,-126 0,-126 0,-96 134,-96 134,-126"/>
<text text-anchor="start" x="8" y="-114" font-family="Helvetica,sans-Serif" font-size="10.00">guanaqo::TraceLogger</text>
<text text-anchor="middle" x="67" y="-103" font-family="Helvetica,sans-Serif" font-size="10.00">::ScopedLog::ScopedLog</text>
</a>
</g>
</g>
<!-- Node1&#45;&gt;Node3 -->
<g id="edge2_Node000001_Node000003" class="edge">
<title>Node1&#45;&gt;Node3</title>
<g id="a_edge2_Node000001_Node000003"><a xlink:title=" ">
<path fill="none" stroke="#63b8ff" d="M159.68,-97.9C151.17,-99.12 142.56,-100.35 134.19,-101.54"/>
<polygon fill="#63b8ff" stroke="#63b8ff" points="160.2,-101.36 169.6,-96.49 159.21,-94.43 160.2,-101.36"/>
</a>
</g>
</g>
<!-- Node4 -->
<g id="Node000004" class="node">
<title>Node4</title>
<g id="a_Node000004"><a xlink:href="structguanaqo_1_1TraceLogger_1_1ScopedLog.html#af511943afcff7c01996aed2f16f3e9c5" target="_top" xlink:title=" ">
<polygon fill="white" stroke="#666666" points="132.5,-78 1.5,-78 1.5,-48 132.5,-48 132.5,-78"/>
<text text-anchor="start" x="9.5" y="-66" font-family="Helvetica,sans-Serif" font-size="10.00">guanaqo::TraceLogger</text>
<text text-anchor="middle" x="67" y="-55" font-family="Helvetica,sans-Serif" font-size="10.00">::ScopedLog::operator=</text>
</a>
</g>
</g>
<!-- Node1&#45;&gt;Node4 -->
<g id="edge3_Node000001_Node000004" class="edge">
<title>Node1&#45;&gt;Node4</title>
<g id="a_edge3_Node000001_Node000004"><a xlink:title=" ">
<path fill="none" stroke="#63b8ff" d="M159.5,-76.07C150.49,-74.78 141.37,-73.48 132.54,-72.22"/>
<polygon fill="#63b8ff" stroke="#63b8ff" points="159.21,-79.57 169.6,-77.51 160.2,-72.64 159.21,-79.57"/>
</a>
</g>
</g>
<!-- Node5 -->
<g id="Node000005" class="node">
<title>Node5</title>
<g id="a_Node000005"><a xlink:href="structguanaqo_1_1TraceLogger_1_1ScopedLog.html#a9c3d541f68cb630719c6a8e7f0a57dbf" target="_top" xlink:title=" ">
<polygon fill="white" stroke="#666666" points="132.5,-30 1.5,-30 1.5,0 132.5,0 132.5,-30"/>
<text text-anchor="start" x="9.5" y="-18" font-family="Helvetica,sans-Serif" font-size="10.00">guanaqo::TraceLogger</text>
<text text-anchor="middle" x="67" y="-7" font-family="Helvetica,sans-Serif" font-size="10.00">::ScopedLog::operator=</text>
</a>
</g>
</g>
<!-- Node1&#45;&gt;Node5 -->
<g id="edge4_Node000001_Node000005" class="edge">
<title>Node1&#45;&gt;Node5</title>
<g id="a_edge4_Node000001_Node000005"><a xlink:title=" ">
<path fill="none" stroke="#63b8ff" d="M196.82,-67.54C178,-58.46 155.02,-47.75 134,-39 126.68,-35.96 118.83,-32.91 111.18,-30.06"/>
<polygon fill="#63b8ff" stroke="#63b8ff" points="195.45,-70.77 205.97,-71.99 198.51,-64.47 195.45,-70.77"/>
</a>
</g>
</g>
</g>
</svg>
</svg>

<style type='text/css'>
<![CDATA[
[data-mouse-over-selected='false'] { opacity: 0.7; }
[data-mouse-over-selected='true']  { opacity: 1.0; }
]]>
</style>
<script type="application/ecmascript"><![CDATA[
document.addEventListener('DOMContentLoaded', (event) => {
  highlightEdges();
  highlightAdjacentNodes();
});
]]></script>
</svg>
