<?xml version="1.0" encoding="UTF-8" standalone="no"?>
<!DOCTYPE svg PUBLIC "-//W3C//DTD SVG 1.1//EN"
 "http://www.w3.org/Graphics/SVG/1.1/DTD/svg11.dtd">
<!-- Generated by graphviz version 2.43.0 (0)
 -->
<!-- Title: guanaqo::Timed&lt; TimingsCPU &gt; Pages: 1 -->
<svg width="179pt" height="249pt"
 viewBox="0.00 0.00 179.00 249.00" xmlns="http://www.w3.org/2000/svg" xmlns:xlink="http://www.w3.org/1999/xlink">
<g id="graph0" class="graph" transform="scale(1 1) rotate(0) translate(4 245)">
<title>guanaqo::Timed&lt; TimingsCPU &gt;</title>
<!-- Node1 -->
<g id="Node000001" class="node">
<title>Node1</title>
<g id="a_Node000001"><a xlink:title="RAII class for measuring wall and CPU time.">
<polygon fill="#999999" stroke="transparent" points="171,-109 0,-109 0,0 171,0 171,-109"/>
<text text-anchor="start" x="5.5" y="-96.5" font-family="Helvetica,sans-Serif" font-size="10.00">guanaqo::Timed&lt; TimingsCPU &gt;</text>
<text text-anchor="start" x="25.5" y="-81.5" font-family="Helvetica,sans-Serif" font-size="10.00">&#45;</text>
<text text-anchor="start" x="54.5" y="-81.5" font-family="Helvetica,sans-Serif" font-size="10.00">wall_start_time</text>
<text text-anchor="start" x="25.5" y="-66.5" font-family="Helvetica,sans-Serif" font-size="10.00">&#45;</text>
<text text-anchor="start" x="54.5" y="-66.5" font-family="Helvetica,sans-Serif" font-size="10.00">cpu_start_time</text>
<text text-anchor="start" x="23" y="-51.5" font-family="Helvetica,sans-Serif" font-size="10.00">+</text>
<text text-anchor="start" x="54.5" y="-51.5" font-family="Helvetica,sans-Serif" font-size="10.00">Timed()</text>
<text text-anchor="start" x="23" y="-36.5" font-family="Helvetica,sans-Serif" font-size="10.00">+</text>
<text text-anchor="start" x="54.5" y="-36.5" font-family="Helvetica,sans-Serif" font-size="10.00">~Timed()</text>
<text text-anchor="start" x="23" y="-21.5" font-family="Helvetica,sans-Serif" font-size="10.00">+</text>
<text text-anchor="start" x="54.5" y="-21.5" font-family="Helvetica,sans-Serif" font-size="10.00">Timed()</text>
<text text-anchor="start" x="23" y="-6.5" font-family="Helvetica,sans-Serif" font-size="10.00">+</text>
<text text-anchor="start" x="54.5" y="-6.5" font-family="Helvetica,sans-Serif" font-size="10.00">operator=()</text>
<polygon fill="#666666" stroke="#666666" points="0.5,-91.5 0.5,-91.5 171.5,-91.5 171.5,-91.5 0.5,-91.5"/>
<polygon fill="#666666" stroke="#666666" points="0.5,-61.5 0.5,-61.5 52.5,-61.5 52.5,-61.5 0.5,-61.5"/>
<polygon fill="#666666" stroke="#666666" points="52.5,-61.5 52.5,-61.5 171.5,-61.5 171.5,-61.5 52.5,-61.5"/>
<polygon fill="none" stroke="#666666" points="0,0 0,-109 171,-109 171,0 0,0"/>
</a>
</g>
</g>
<!-- Node2 -->
<g id="Node000002" class="node">
<title>Node2</title>
<g id="a_Node000002"><a xlink:href="group__timing.html#structguanaqo_1_1TimingsCPU" target="_top" xlink:title="Measures the number of invocations of a specific piece of code and its run time.">
<polygon fill="white" stroke="transparent" points="144.5,-241 26.5,-241 26.5,-162 144.5,-162 144.5,-241"/>
<text text-anchor="start" x="31.5" y="-228.5" font-family="Helvetica,sans-Serif" font-size="10.00">guanaqo::TimingsCPU</text>
<text text-anchor="start" x="33.5" y="-213.5" font-family="Helvetica,sans-Serif" font-size="10.00">+</text>
<text text-anchor="start" x="49.5" y="-213.5" font-family="Helvetica,sans-Serif" font-size="10.00">num_invocations</text>
<text text-anchor="start" x="33.5" y="-198.5" font-family="Helvetica,sans-Serif" font-size="10.00">+</text>
<text text-anchor="start" x="49.5" y="-198.5" font-family="Helvetica,sans-Serif" font-size="10.00">wall_time</text>
<text text-anchor="start" x="33.5" y="-183.5" font-family="Helvetica,sans-Serif" font-size="10.00">+</text>
<text text-anchor="start" x="49.5" y="-183.5" font-family="Helvetica,sans-Serif" font-size="10.00">cpu_time</text>
<text text-anchor="start" x="83.5" y="-168.5" font-family="Helvetica,sans-Serif" font-size="10.00"> </text>
<polygon fill="#666666" stroke="#666666" points="26.5,-223.5 26.5,-223.5 144.5,-223.5 144.5,-223.5 26.5,-223.5"/>
<polygon fill="#666666" stroke="#666666" points="26.5,-178.5 26.5,-178.5 47.5,-178.5 47.5,-178.5 26.5,-178.5"/>
<polygon fill="#666666" stroke="#666666" points="47.5,-178.5 47.5,-178.5 144.5,-178.5 144.5,-178.5 47.5,-178.5"/>
<polygon fill="none" stroke="#666666" points="26.5,-162 26.5,-241 144.5,-241 144.5,-162 26.5,-162"/>
</a>
</g>
</g>
<!-- Node2&#45;&gt;Node1 -->
<g id="edge1_Node000001_Node000002" class="edge">
<title>Node2&#45;&gt;Node1</title>
<g id="a_edge1_Node000001_Node000002"><a xlink:title=" ">
<path fill="none" stroke="#63b8ff" d="M85.5,-161.64C85.5,-149.19 85.5,-135.03 85.5,-121.2"/>
<polygon fill="none" stroke="#63b8ff" points="85.5,-121.18 81.5,-115.18 85.5,-109.18 89.5,-115.18 85.5,-121.18"/>
</a>
</g>
<text text-anchor="start" x="89" y="-132.5" font-family="Helvetica,sans-Serif" font-size="10.00" fill="grey">&#45;time</text>
</g>
</g>
</svg>
