<?xml version="1.0" encoding="UTF-8" standalone="no"?>
<!DOCTYPE svg PUBLIC "-//W3C//DTD SVG 1.1//EN"
 "http://www.w3.org/Graphics/SVG/1.1/DTD/svg11.dtd">
<!-- Generated by graphviz version 2.43.0 (0)
 -->
<!-- Title: guanaqo::linalg::sparsity::SparsityConverter&lt; SparseCOO&lt; Index &gt;, Dense &gt;::convert_values Pages: 1 -->
<svg width="587pt" height="126pt"
 viewBox="0.00 0.00 587.00 125.78" xmlns="http://www.w3.org/2000/svg" xmlns:xlink="http://www.w3.org/1999/xlink">
<g id="graph0" class="graph" transform="scale(1 1) rotate(0) translate(4 121.78)">
<title>guanaqo::linalg::sparsity::SparsityConverter&lt; SparseCOO&lt; Index &gt;, Dense &gt;::convert_values</title>
<!-- Node1 -->
<g id="Node000001" class="node">
<title>Node1</title>
<g id="a_Node000001"><a xlink:title=" ">
<polygon fill="#999999" stroke="#666666" points="194,-100 0,-100 0,-59 194,-59 194,-100"/>
<text text-anchor="start" x="8" y="-88" font-family="Helvetica,sans-Serif" font-size="10.00">guanaqo::linalg::sparsity</text>
<text text-anchor="start" x="8" y="-77" font-family="Helvetica,sans-Serif" font-size="10.00">::SparsityConverter&lt; SparseCOO</text>
<text text-anchor="middle" x="97" y="-66" font-family="Helvetica,sans-Serif" font-size="10.00">&lt; Index &gt;, Dense &gt;::convert_values</text>
</a>
</g>
</g>
<!-- Node2 -->
<g id="Node000002" class="node">
<title>Node2</title>
<g id="a_Node000002"><a xlink:href="namespaceguanaqo_1_1linalg_1_1sparsity.html#af32001896a23ba0b0d0237c9046f4315" target="_top" xlink:title=" ">
<polygon fill="white" stroke="#666666" points="579,-89.5 442,-89.5 442,-59.5 579,-59.5 579,-89.5"/>
<text text-anchor="start" x="450" y="-77.5" font-family="Helvetica,sans-Serif" font-size="10.00">guanaqo::linalg::sparsity</text>
<text text-anchor="middle" x="510.5" y="-66.5" font-family="Helvetica,sans-Serif" font-size="10.00">::cast_sz</text>
</a>
</g>
</g>
<!-- Node1&#45;&gt;Node2 -->
<g id="edge1_Node000001_Node000002" class="edge">
<title>Node1&#45;&gt;Node2</title>
<g id="a_edge1_Node000001_Node000002"><a xlink:title=" ">
<path fill="none" stroke="#63b8ff" d="M174.98,-100.03C192.91,-103.96 212.02,-107.48 230,-109.5 307.73,-118.22 328.82,-122.2 406,-109.5 425.74,-106.25 446.78,-99.74 464.7,-93.2"/>
<polygon fill="#63b8ff" stroke="#63b8ff" points="466.18,-96.39 474.31,-89.59 463.72,-89.84 466.18,-96.39"/>
</a>
</g>
</g>
<!-- Node3 -->
<g id="Node000003" class="node">
<title>Node3</title>
<g id="a_Node000003"><a xlink:href="structguanaqo_1_1linalg_1_1sparsity_1_1SparsityConverter_3_01SparseCOO_3_01Index_01_4_00_01Dense_01_4.html#a88ad320c4d2f705fb4d891b7c8960959" target="_top" xlink:title=" ">
<polygon fill="white" stroke="#666666" points="406,-100 230,-100 230,-59 406,-59 406,-100"/>
<text text-anchor="start" x="238" y="-88" font-family="Helvetica,sans-Serif" font-size="10.00">guanaqo::linalg::sparsity</text>
<text text-anchor="start" x="238" y="-77" font-family="Helvetica,sans-Serif" font-size="10.00">::SparsityConverter&lt; SparseCOO</text>
<text text-anchor="middle" x="318" y="-66" font-family="Helvetica,sans-Serif" font-size="10.00">&lt; Index &gt;, Dense &gt;::nnz_from</text>
</a>
</g>
</g>
<!-- Node1&#45;&gt;Node3 -->
<g id="edge2_Node000001_Node000003" class="edge">
<title>Node1&#45;&gt;Node3</title>
<g id="a_edge2_Node000001_Node000003"><a xlink:title=" ">
<path fill="none" stroke="#63b8ff" d="M194.06,-79.5C202.65,-79.5 211.35,-79.5 219.95,-79.5"/>
<polygon fill="#63b8ff" stroke="#63b8ff" points="219.98,-83 229.98,-79.5 219.98,-76 219.98,-83"/>
</a>
</g>
</g>
<!-- Node4 -->
<g id="Node000004" class="node">
<title>Node4</title>
<g id="a_Node000004"><a xlink:href="structguanaqo_1_1linalg_1_1sparsity_1_1SparsityConverter_3_01SparseCOO_3_01Index_01_4_00_01Dense_01_4.html#aea08647473d443aa14e6ce8acbbc72f1" target="_top" xlink:title=" ">
<polygon fill="white" stroke="#666666" points="406,-41 230,-41 230,0 406,0 406,-41"/>
<text text-anchor="start" x="238" y="-29" font-family="Helvetica,sans-Serif" font-size="10.00">guanaqo::linalg::sparsity</text>
<text text-anchor="start" x="238" y="-18" font-family="Helvetica,sans-Serif" font-size="10.00">::SparsityConverter&lt; SparseCOO</text>
<text text-anchor="middle" x="318" y="-7" font-family="Helvetica,sans-Serif" font-size="10.00">&lt; Index &gt;, Dense &gt;::work_size</text>
</a>
</g>
</g>
<!-- Node1&#45;&gt;Node4 -->
<g id="edge3_Node000001_Node000004" class="edge">
<title>Node1&#45;&gt;Node4</title>
<g id="a_edge3_Node000001_Node000004"><a xlink:title=" ">
<path fill="none" stroke="#63b8ff" d="M174.29,-58.95C192.58,-54.02 212.24,-48.72 230.94,-43.69"/>
<polygon fill="#63b8ff" stroke="#63b8ff" points="231.87,-47.06 240.61,-41.08 230.05,-40.3 231.87,-47.06"/>
</a>
</g>
</g>
<!-- Node4&#45;&gt;Node2 -->
<g id="edge4_Node000004_Node000002" class="edge">
<title>Node4&#45;&gt;Node2</title>
<g id="a_edge4_Node000004_Node000002"><a xlink:title=" ">
<path fill="none" stroke="#63b8ff" d="M391.56,-41.07C409.58,-46.18 428.75,-51.61 446.28,-56.58"/>
<polygon fill="#63b8ff" stroke="#63b8ff" points="445.82,-60.09 456.39,-59.45 447.73,-53.35 445.82,-60.09"/>
</a>
</g>
</g>
</g>
</svg>
