<?xml version="1.0" encoding="UTF-8" standalone="no"?>
<!DOCTYPE svg PUBLIC "-//W3C//DTD SVG 1.1//EN"
 "http://www.w3.org/Graphics/SVG/1.1/DTD/svg11.dtd">
<!-- Generated by graphviz version 2.43.0 (0)
 -->
<!-- Title: src/type&#45;erasure.cpp Pages: 1 -->
<svg width="1339pt" height="192pt"
 viewBox="0.00 0.00 1338.50 192.00" xmlns="http://www.w3.org/2000/svg" xmlns:xlink="http://www.w3.org/1999/xlink">
<g id="graph0" class="graph" transform="scale(1 1) rotate(0) translate(4 188)">
<title>src/type&#45;erasure.cpp</title>
<!-- Node1 -->
<g id="Node000001" class="node">
<title>Node1</title>
<g id="a_Node000001"><a xlink:title=" ">
<polygon fill="#999999" stroke="#666666" points="823,-184 707,-184 707,-165 823,-165 823,-184"/>
<text text-anchor="middle" x="765" y="-172" font-family="Helvetica,sans-Serif" font-size="10.00">src/type&#45;erasure.cpp</text>
</a>
</g>
</g>
<!-- Node2 -->
<g id="Node000002" class="node">
<title>Node2</title>
<g id="a_Node000002"><a xlink:href="type-erasure_8hpp.html" target="_top" xlink:title="Flexible type erasure utilities.">
<polygon fill="white" stroke="#666666" points="837.5,-129 692.5,-129 692.5,-110 837.5,-110 837.5,-129"/>
<text text-anchor="middle" x="765" y="-117" font-family="Helvetica,sans-Serif" font-size="10.00">guanaqo/type&#45;erasure.hpp</text>
</a>
</g>
</g>
<!-- Node1&#45;&gt;Node2 -->
<g id="edge1_Node000001_Node000002" class="edge">
<title>Node1&#45;&gt;Node2</title>
<g id="a_edge1_Node000001_Node000002"><a xlink:title=" ">
<path fill="none" stroke="#63b8ff" d="M765,-164.75C765,-157.8 765,-147.85 765,-139.13"/>
<polygon fill="#63b8ff" stroke="#63b8ff" points="768.5,-139.09 765,-129.09 761.5,-139.09 768.5,-139.09"/>
</a>
</g>
</g>
<!-- Node3 -->
<g id="Node000003" class="node">
<title>Node3</title>
<g id="a_Node000003"><a xlink:href="demangled-typename_8hpp.html" target="_top" xlink:title="Pretty&#45;print type names.">
<polygon fill="white" stroke="#666666" points="253.5,-74 62.5,-74 62.5,-55 253.5,-55 253.5,-74"/>
<text text-anchor="middle" x="158" y="-62" font-family="Helvetica,sans-Serif" font-size="10.00">guanaqo/demangled&#45;typename.hpp</text>
</a>
</g>
</g>
<!-- Node2&#45;&gt;Node3 -->
<g id="edge2_Node000002_Node000003" class="edge">
<title>Node2&#45;&gt;Node3</title>
<g id="a_edge2_Node000002_Node000003"><a xlink:title=" ">
<path fill="none" stroke="#63b8ff" d="M692.38,-112.16C585.87,-102.86 386.63,-85.46 263.82,-74.74"/>
<polygon fill="#63b8ff" stroke="#63b8ff" points="263.92,-71.24 253.65,-73.85 263.31,-78.21 263.92,-71.24"/>
</a>
</g>
</g>
<!-- Node4 -->
<g id="Node000004" class="node">
<title>Node4</title>
<g id="a_Node000004"><a xlink:title=" ">
<polygon fill="#e0e0e0" stroke="#999999" points="102,-19 0,-19 0,0 102,0 102,-19"/>
<text text-anchor="middle" x="51" y="-7" font-family="Helvetica,sans-Serif" font-size="10.00">guanaqo/export.h</text>
</a>
</g>
</g>
<!-- Node2&#45;&gt;Node4 -->
<g id="edge6_Node000002_Node000004" class="edge">
<title>Node2&#45;&gt;Node4</title>
<g id="a_edge6_Node000002_Node000004"><a xlink:title=" ">
<path fill="none" stroke="#63b8ff" d="M692.18,-116.56C515.13,-111.51 75.01,-96.7 53,-74 41.74,-62.39 42.72,-43.25 45.62,-29.01"/>
<polygon fill="#63b8ff" stroke="#63b8ff" points="49.02,-29.83 48.03,-19.29 42.23,-28.15 49.02,-29.83"/>
</a>
</g>
</g>
<!-- Node6 -->
<g id="Node000006" class="node">
<title>Node6</title>
<g id="a_Node000006"><a xlink:title=" ">
<polygon fill="#e0e0e0" stroke="#999999" points="283.5,-19 226.5,-19 226.5,0 283.5,0 283.5,-19"/>
<text text-anchor="middle" x="255" y="-7" font-family="Helvetica,sans-Serif" font-size="10.00">typeinfo</text>
</a>
</g>
</g>
<!-- Node2&#45;&gt;Node6 -->
<g id="edge22_Node000002_Node000006" class="edge">
<title>Node2&#45;&gt;Node6</title>
<g id="a_edge22_Node000002_Node000006"><a xlink:title=" ">
<path fill="none" stroke="#63b8ff" d="M692.26,-118.71C578.78,-117.84 365.88,-111.13 301,-74 283.14,-63.78 270.34,-43.5 262.84,-28.6"/>
<polygon fill="#63b8ff" stroke="#63b8ff" points="265.92,-26.9 258.51,-19.33 259.58,-29.87 265.92,-26.9"/>
</a>
</g>
</g>
<!-- Node7 -->
<g id="Node000007" class="node">
<title>Node7</title>
<g id="a_Node000007"><a xlink:href="noop-delete_8hpp.html" target="_top" xlink:title="Deleter that skips deallocation.">
<polygon fill="white" stroke="#666666" points="451.5,-74 310.5,-74 310.5,-55 451.5,-55 451.5,-74"/>
<text text-anchor="middle" x="381" y="-62" font-family="Helvetica,sans-Serif" font-size="10.00">guanaqo/noop&#45;delete.hpp</text>
</a>
</g>
</g>
<!-- Node2&#45;&gt;Node7 -->
<g id="edge7_Node000002_Node000007" class="edge">
<title>Node2&#45;&gt;Node7</title>
<g id="a_edge7_Node000002_Node000007"><a xlink:title=" ">
<path fill="none" stroke="#63b8ff" d="M703.3,-109.98C634.97,-100.55 524.93,-85.36 452.78,-75.41"/>
<polygon fill="#63b8ff" stroke="#63b8ff" points="453.25,-71.94 442.86,-74.04 452.29,-78.87 453.25,-71.94"/>
</a>
</g>
</g>
<!-- Node8 -->
<g id="Node000008" class="node">
<title>Node8</title>
<g id="a_Node000008"><a xlink:href="type-traits_8hpp.html" target="_top" xlink:title="Lightweight type&#45;trait helpers.">
<polygon fill="white" stroke="#666666" points="642,-74 508,-74 508,-55 642,-55 642,-74"/>
<text text-anchor="middle" x="575" y="-62" font-family="Helvetica,sans-Serif" font-size="10.00">guanaqo/type&#45;traits.hpp</text>
</a>
</g>
</g>
<!-- Node2&#45;&gt;Node8 -->
<g id="edge8_Node000002_Node000008" class="edge">
<title>Node2&#45;&gt;Node8</title>
<g id="a_edge8_Node000002_Node000008"><a xlink:title=" ">
<path fill="none" stroke="#63b8ff" d="M734.47,-109.98C702.3,-101.01 651.44,-86.82 615.83,-76.89"/>
<polygon fill="#63b8ff" stroke="#63b8ff" points="616.34,-73.4 605.77,-74.08 614.46,-80.14 616.34,-73.4"/>
</a>
</g>
</g>
<!-- Node10 -->
<g id="Node000010" class="node">
<title>Node10</title>
<g id="a_Node000010"><a xlink:title=" ">
<polygon fill="#e0e0e0" stroke="#999999" points="518,-19 460,-19 460,0 518,0 518,-19"/>
<text text-anchor="middle" x="489" y="-7" font-family="Helvetica,sans-Serif" font-size="10.00">memory</text>
</a>
</g>
</g>
<!-- Node2&#45;&gt;Node10 -->
<g id="edge18_Node000002_Node000010" class="edge">
<title>Node2&#45;&gt;Node10</title>
<g id="a_edge18_Node000002_Node000010"><a xlink:title=" ">
<path fill="none" stroke="#63b8ff" d="M692.28,-115.67C622.98,-111.38 525.4,-100.65 499,-74 487.6,-62.49 485.91,-43.61 486.59,-29.42"/>
<polygon fill="#63b8ff" stroke="#63b8ff" points="490.09,-29.55 487.5,-19.28 483.12,-28.93 490.09,-29.55"/>
</a>
</g>
</g>
<!-- Node11 -->
<g id="Node000011" class="node">
<title>Node11</title>
<g id="a_Node000011"><a xlink:title=" ">
<polygon fill="#e0e0e0" stroke="#999999" points="698.5,-19 629.5,-19 629.5,0 698.5,0 698.5,-19"/>
<text text-anchor="middle" x="664" y="-7" font-family="Helvetica,sans-Serif" font-size="10.00">type_traits</text>
</a>
</g>
</g>
<!-- Node2&#45;&gt;Node11 -->
<g id="edge21_Node000002_Node000011" class="edge">
<title>Node2&#45;&gt;Node11</title>
<g id="a_edge21_Node000002_Node000011"><a xlink:title=" ">
<path fill="none" stroke="#63b8ff" d="M741.96,-109.85C725.27,-102.55 703.22,-90.61 689,-74 677.93,-61.08 671.42,-42.67 667.83,-29"/>
<polygon fill="#63b8ff" stroke="#63b8ff" points="671.23,-28.18 665.54,-19.24 664.41,-29.78 671.23,-28.18"/>
</a>
</g>
</g>
<!-- Node12 -->
<g id="Node000012" class="node">
<title>Node12</title>
<g id="a_Node000012"><a xlink:title=" ">
<polygon fill="#e0e0e0" stroke="#999999" points="762,-74 698,-74 698,-55 762,-55 762,-74"/>
<text text-anchor="middle" x="730" y="-62" font-family="Helvetica,sans-Serif" font-size="10.00">algorithm</text>
</a>
</g>
</g>
<!-- Node2&#45;&gt;Node12 -->
<g id="edge12_Node000002_Node000012" class="edge">
<title>Node2&#45;&gt;Node12</title>
<g id="a_edge12_Node000002_Node000012"><a xlink:title=" ">
<path fill="none" stroke="#63b8ff" d="M759.22,-109.75C754.38,-102.42 747.32,-91.73 741.36,-82.7"/>
<polygon fill="#63b8ff" stroke="#63b8ff" points="744.1,-80.5 735.67,-74.09 738.26,-84.36 744.1,-80.5"/>
</a>
</g>
</g>
<!-- Node13 -->
<g id="Node000013" class="node">
<title>Node13</title>
<g id="a_Node000013"><a xlink:title=" ">
<polygon fill="#e0e0e0" stroke="#999999" points="822,-74 780,-74 780,-55 822,-55 822,-74"/>
<text text-anchor="middle" x="801" y="-62" font-family="Helvetica,sans-Serif" font-size="10.00">array</text>
</a>
</g>
</g>
<!-- Node2&#45;&gt;Node13 -->
<g id="edge13_Node000002_Node000013" class="edge">
<title>Node2&#45;&gt;Node13</title>
<g id="a_edge13_Node000002_Node000013"><a xlink:title=" ">
<path fill="none" stroke="#63b8ff" d="M770.94,-109.75C775.98,-102.34 783.34,-91.5 789.51,-82.41"/>
<polygon fill="#63b8ff" stroke="#63b8ff" points="792.44,-84.33 795.17,-74.09 786.65,-80.39 792.44,-84.33"/>
</a>
</g>
</g>
<!-- Node14 -->
<g id="Node000014" class="node">
<title>Node14</title>
<g id="a_Node000014"><a xlink:title=" ">
<polygon fill="#e0e0e0" stroke="#999999" points="892,-74 840,-74 840,-55 892,-55 892,-74"/>
<text text-anchor="middle" x="866" y="-62" font-family="Helvetica,sans-Serif" font-size="10.00">cassert</text>
</a>
</g>
</g>
<!-- Node2&#45;&gt;Node14 -->
<g id="edge14_Node000002_Node000014" class="edge">
<title>Node2&#45;&gt;Node14</title>
<g id="a_edge14_Node000002_Node000014"><a xlink:title=" ">
<path fill="none" stroke="#63b8ff" d="M781.23,-109.98C797.18,-101.61 821.78,-88.7 840.38,-78.95"/>
<polygon fill="#63b8ff" stroke="#63b8ff" points="842.25,-81.92 849.48,-74.17 839,-75.72 842.25,-81.92"/>
</a>
</g>
</g>
<!-- Node15 -->
<g id="Node000015" class="node">
<title>Node15</title>
<g id="a_Node000015"><a xlink:title=" ">
<polygon fill="#e0e0e0" stroke="#999999" points="963.5,-74 910.5,-74 910.5,-55 963.5,-55 963.5,-74"/>
<text text-anchor="middle" x="937" y="-62" font-family="Helvetica,sans-Serif" font-size="10.00">cstddef</text>
</a>
</g>
</g>
<!-- Node2&#45;&gt;Node15 -->
<g id="edge15_Node000002_Node000015" class="edge">
<title>Node2&#45;&gt;Node15</title>
<g id="a_edge15_Node000002_Node000015"><a xlink:title=" ">
<path fill="none" stroke="#63b8ff" d="M792.63,-109.98C821.85,-100.98 868.09,-86.73 900.34,-76.8"/>
<polygon fill="#63b8ff" stroke="#63b8ff" points="901.76,-80.02 910.28,-73.73 899.7,-73.33 901.76,-80.02"/>
</a>
</g>
</g>
<!-- Node16 -->
<g id="Node000016" class="node">
<title>Node16</title>
<g id="a_Node000016"><a xlink:title=" ">
<polygon fill="#e0e0e0" stroke="#999999" points="1046.5,-74 981.5,-74 981.5,-55 1046.5,-55 1046.5,-74"/>
<text text-anchor="middle" x="1014" y="-62" font-family="Helvetica,sans-Serif" font-size="10.00">exception</text>
</a>
</g>
</g>
<!-- Node2&#45;&gt;Node16 -->
<g id="edge16_Node000002_Node000016" class="edge">
<title>Node2&#45;&gt;Node16</title>
<g id="a_edge16_Node000002_Node000016"><a xlink:title=" ">
<path fill="none" stroke="#63b8ff" d="M805.01,-109.98C850.6,-100.28 924.82,-84.48 971.45,-74.56"/>
<polygon fill="#63b8ff" stroke="#63b8ff" points="972.2,-77.98 981.25,-72.47 970.74,-71.13 972.2,-77.98"/>
</a>
</g>
</g>
<!-- Node17 -->
<g id="Node000017" class="node">
<title>Node17</title>
<g id="a_Node000017"><a xlink:title=" ">
<polygon fill="#e0e0e0" stroke="#999999" points="1129.5,-74 1064.5,-74 1064.5,-55 1129.5,-55 1129.5,-74"/>
<text text-anchor="middle" x="1097" y="-62" font-family="Helvetica,sans-Serif" font-size="10.00">functional</text>
</a>
</g>
</g>
<!-- Node2&#45;&gt;Node17 -->
<g id="edge17_Node000002_Node000017" class="edge">
<title>Node2&#45;&gt;Node17</title>
<g id="a_edge17_Node000002_Node000017"><a xlink:title=" ">
<path fill="none" stroke="#63b8ff" d="M827.03,-109.98C883.81,-101.96 970.38,-89.19 1054.39,-74.22"/>
<polygon fill="#63b8ff" stroke="#63b8ff" points="1055.13,-77.64 1064.36,-72.43 1053.9,-70.75 1055.13,-77.64"/>
</a>
</g>
</g>
<!-- Node18 -->
<g id="Node000018" class="node">
<title>Node18</title>
<g id="a_Node000018"><a xlink:title=" ">
<polygon fill="#e0e0e0" stroke="#999999" points="1184.5,-74 1147.5,-74 1147.5,-55 1184.5,-55 1184.5,-74"/>
<text text-anchor="middle" x="1166" y="-62" font-family="Helvetica,sans-Serif" font-size="10.00">new</text>
</a>
</g>
</g>
<!-- Node2&#45;&gt;Node18 -->
<g id="edge19_Node000002_Node000018" class="edge">
<title>Node2&#45;&gt;Node18</title>
<g id="a_edge19_Node000002_Node000018"><a xlink:title=" ">
<path fill="none" stroke="#63b8ff" d="M837.71,-113.88C911.33,-108.3 1028.48,-96.92 1137.4,-74.01"/>
<polygon fill="#63b8ff" stroke="#63b8ff" points="1138.19,-77.41 1147.24,-71.9 1136.73,-70.57 1138.19,-77.41"/>
</a>
</g>
</g>
<!-- Node19 -->
<g id="Node000019" class="node">
<title>Node19</title>
<g id="a_Node000019"><a xlink:title=" ">
<polygon fill="#e0e0e0" stroke="#999999" points="1267.5,-74 1202.5,-74 1202.5,-55 1267.5,-55 1267.5,-74"/>
<text text-anchor="middle" x="1235" y="-62" font-family="Helvetica,sans-Serif" font-size="10.00">stdexcept</text>
</a>
</g>
</g>
<!-- Node2&#45;&gt;Node19 -->
<g id="edge20_Node000002_Node000019" class="edge">
<title>Node2&#45;&gt;Node19</title>
<g id="a_edge20_Node000002_Node000019"><a xlink:title=" ">
<path fill="none" stroke="#63b8ff" d="M837.78,-113.21C921.18,-106.63 1062.12,-93.97 1192.23,-74.14"/>
<polygon fill="#63b8ff" stroke="#63b8ff" points="1193.03,-77.56 1202.38,-72.57 1191.96,-70.64 1193.03,-77.56"/>
</a>
</g>
</g>
<!-- Node20 -->
<g id="Node000020" class="node">
<title>Node20</title>
<g id="a_Node000020"><a xlink:title=" ">
<polygon fill="#e0e0e0" stroke="#999999" points="1330.5,-74 1285.5,-74 1285.5,-55 1330.5,-55 1330.5,-74"/>
<text text-anchor="middle" x="1308" y="-62" font-family="Helvetica,sans-Serif" font-size="10.00">utility</text>
</a>
</g>
</g>
<!-- Node2&#45;&gt;Node20 -->
<g id="edge23_Node000002_Node000020" class="edge">
<title>Node2&#45;&gt;Node20</title>
<g id="a_edge23_Node000002_Node000020"><a xlink:title=" ">
<path fill="none" stroke="#63b8ff" d="M837.61,-116.32C935.3,-112.47 1114.45,-102.19 1275.34,-73.99"/>
<polygon fill="#63b8ff" stroke="#63b8ff" points="1276.19,-77.4 1285.42,-72.2 1274.96,-70.51 1276.19,-77.4"/>
</a>
</g>
</g>
<!-- Node3&#45;&gt;Node4 -->
<g id="edge3_Node000003_Node000004" class="edge">
<title>Node3&#45;&gt;Node4</title>
<g id="a_edge3_Node000003_Node000004"><a xlink:title=" ">
<path fill="none" stroke="#63b8ff" d="M140.81,-54.98C123.75,-46.54 97.37,-33.47 77.6,-23.68"/>
<polygon fill="#63b8ff" stroke="#63b8ff" points="79.02,-20.47 68.5,-19.17 75.91,-26.75 79.02,-20.47"/>
</a>
</g>
</g>
<!-- Node5 -->
<g id="Node000005" class="node">
<title>Node5</title>
<g id="a_Node000005"><a xlink:title=" ">
<polygon fill="#e0e0e0" stroke="#999999" points="180,-19 136,-19 136,0 180,0 180,-19"/>
<text text-anchor="middle" x="158" y="-7" font-family="Helvetica,sans-Serif" font-size="10.00">string</text>
</a>
</g>
</g>
<!-- Node3&#45;&gt;Node5 -->
<g id="edge4_Node000003_Node000005" class="edge">
<title>Node3&#45;&gt;Node5</title>
<g id="a_edge4_Node000003_Node000005"><a xlink:title=" ">
<path fill="none" stroke="#63b8ff" d="M158,-54.75C158,-47.8 158,-37.85 158,-29.13"/>
<polygon fill="#63b8ff" stroke="#63b8ff" points="161.5,-29.09 158,-19.09 154.5,-29.09 161.5,-29.09"/>
</a>
</g>
</g>
<!-- Node3&#45;&gt;Node6 -->
<g id="edge5_Node000003_Node000006" class="edge">
<title>Node3&#45;&gt;Node6</title>
<g id="a_edge5_Node000003_Node000006"><a xlink:title=" ">
<path fill="none" stroke="#63b8ff" d="M173.58,-54.98C188.77,-46.69 212.1,-33.94 229.9,-24.22"/>
<polygon fill="#63b8ff" stroke="#63b8ff" points="232.03,-27.04 239.13,-19.17 228.68,-20.89 232.03,-27.04"/>
</a>
</g>
</g>
<!-- Node9 -->
<g id="Node000009" class="node">
<title>Node9</title>
<g id="a_Node000009"><a xlink:title=" ">
<polygon fill="#e0e0e0" stroke="#999999" points="605,-19 545,-19 545,0 605,0 605,-19"/>
<text text-anchor="middle" x="575" y="-7" font-family="Helvetica,sans-Serif" font-size="10.00">concepts</text>
</a>
</g>
</g>
<!-- Node8&#45;&gt;Node9 -->
<g id="edge9_Node000008_Node000009" class="edge">
<title>Node8&#45;&gt;Node9</title>
<g id="a_edge9_Node000008_Node000009"><a xlink:title=" ">
<path fill="none" stroke="#63b8ff" d="M575,-54.75C575,-47.8 575,-37.85 575,-29.13"/>
<polygon fill="#63b8ff" stroke="#63b8ff" points="578.5,-29.09 575,-19.09 571.5,-29.09 578.5,-29.09"/>
</a>
</g>
</g>
<!-- Node8&#45;&gt;Node10 -->
<g id="edge10_Node000008_Node000010" class="edge">
<title>Node8&#45;&gt;Node10</title>
<g id="a_edge10_Node000008_Node000010"><a xlink:title=" ">
<path fill="none" stroke="#63b8ff" d="M561.18,-54.98C547.85,-46.77 527.42,-34.18 511.69,-24.49"/>
<polygon fill="#63b8ff" stroke="#63b8ff" points="513.42,-21.44 503.07,-19.17 509.75,-27.4 513.42,-21.44"/>
</a>
</g>
</g>
<!-- Node8&#45;&gt;Node11 -->
<g id="edge11_Node000008_Node000011" class="edge">
<title>Node8&#45;&gt;Node11</title>
<g id="a_edge11_Node000008_Node000011"><a xlink:title=" ">
<path fill="none" stroke="#63b8ff" d="M589.3,-54.98C603.1,-46.77 624.24,-34.18 640.51,-24.49"/>
<polygon fill="#63b8ff" stroke="#63b8ff" points="642.64,-27.29 649.44,-19.17 639.06,-21.28 642.64,-27.29"/>
</a>
</g>
</g>
</g>
</svg>
