<?xml version="1.0" encoding="UTF-8" standalone="no"?>
<!DOCTYPE svg PUBLIC "-//W3C//DTD SVG 1.1//EN"
 "http://www.w3.org/Graphics/SVG/1.1/DTD/svg11.dtd">
<!-- Generated by graphviz version 2.43.0 (0)
 -->
<!-- Title: guanaqo::detail::print_csv_impl Pages: 1 -->
<svg width="449pt" height="141pt"
 viewBox="0.00 0.00 449.00 141.00" xmlns="http://www.w3.org/2000/svg" xmlns:xlink="http://www.w3.org/1999/xlink">

<svg id="main" version="1.1" xmlns="http://www.w3.org/2000/svg" xmlns:xlink="http://www.w3.org/1999/xlink" xml:space="preserve">

<style type="text/css"><![CDATA[
.node, .edge {opacity: 0.7;}
.node.selected, .edge.selected {opacity: 1;}
.edge:hover path { stroke: red; }
.edge:hover polygon { stroke: red; fill: red; }
]]></style>
<script type="application/ecmascript" xlink:href="svg.min.js"/>
<svg id="graph" class="graph">
<g id="graph0" class="graph" transform="scale(1 1) rotate(0) translate(4 137)">
<title>guanaqo::detail::print_csv_impl</title>
<!-- Node1 -->
<g id="Node000001" class="node">
<title>Node1</title>
<g id="a_Node000001"><a xlink:title=" ">
<polygon fill="#999999" stroke="#666666" points="441,-82.5 320,-82.5 320,-52.5 441,-52.5 441,-82.5"/>
<text text-anchor="start" x="328" y="-70.5" font-family="Helvetica,sans-Serif" font-size="10.00">guanaqo::detail::print</text>
<text text-anchor="middle" x="380.5" y="-59.5" font-family="Helvetica,sans-Serif" font-size="10.00">_csv_impl</text>
</a>
</g>
</g>
<!-- Node2 -->
<g id="Node000002" class="node">
<title>Node2</title>
<g id="a_Node000002"><a xlink:href="namespaceguanaqo_1_1detail.html#a8c302199bfdbe4134d5a49129ee1aaf4" target="_top" xlink:title=" ">
<polygon fill="white" stroke="#666666" points="284,-106.5 163,-106.5 163,-76.5 284,-76.5 284,-106.5"/>
<text text-anchor="start" x="171" y="-94.5" font-family="Helvetica,sans-Serif" font-size="10.00">guanaqo::detail::print</text>
<text text-anchor="middle" x="223.5" y="-83.5" font-family="Helvetica,sans-Serif" font-size="10.00">_matlab_impl</text>
</a>
</g>
</g>
<!-- Node1&#45;&gt;Node2 -->
<g id="edge1_Node000001_Node000002" class="edge">
<title>Node1&#45;&gt;Node2</title>
<g id="a_edge1_Node000001_Node000002"><a xlink:title=" ">
<path fill="none" stroke="#63b8ff" d="M309.62,-78.32C301.07,-79.64 292.39,-80.99 284.01,-82.29"/>
<polygon fill="#63b8ff" stroke="#63b8ff" points="310.23,-81.77 319.57,-76.78 309.16,-74.85 310.23,-81.77"/>
</a>
</g>
</g>
<!-- Node5 -->
<g id="Node000005" class="node">
<title>Node5</title>
<g id="a_Node000005"><a xlink:href="namespaceguanaqo_1_1detail.html#ace413852839567e1ea2455dfddde9c73" target="_top" xlink:title=" ">
<polygon fill="white" stroke="#666666" points="284,-58.5 163,-58.5 163,-28.5 284,-28.5 284,-58.5"/>
<text text-anchor="start" x="171" y="-46.5" font-family="Helvetica,sans-Serif" font-size="10.00">guanaqo::detail::print</text>
<text text-anchor="middle" x="223.5" y="-35.5" font-family="Helvetica,sans-Serif" font-size="10.00">_python_impl</text>
</a>
</g>
</g>
<!-- Node1&#45;&gt;Node5 -->
<g id="edge4_Node000001_Node000005" class="edge">
<title>Node1&#45;&gt;Node5</title>
<g id="a_edge4_Node000001_Node000005"><a xlink:title=" ">
<path fill="none" stroke="#63b8ff" d="M309.62,-56.68C301.07,-55.36 292.39,-54.01 284.01,-52.71"/>
<polygon fill="#63b8ff" stroke="#63b8ff" points="309.16,-60.15 319.57,-58.22 310.23,-53.23 309.16,-60.15"/>
</a>
</g>
</g>
<!-- Node3 -->
<g id="Node000003" class="node">
<title>Node3</title>
<g id="a_Node000003"><a xlink:href="group__io.html#ga706189963835322b0638082bb4ee4394" target="_top" xlink:title=" ">
<polygon fill="white" stroke="#666666" points="127,-133 0,-133 0,-114 127,-114 127,-133"/>
<text text-anchor="middle" x="63.5" y="-121" font-family="Helvetica,sans-Serif" font-size="10.00">guanaqo::print_matlab</text>
</a>
</g>
</g>
<!-- Node2&#45;&gt;Node3 -->
<g id="edge2_Node000002_Node000003" class="edge">
<title>Node2&#45;&gt;Node3</title>
<g id="a_edge2_Node000002_Node000003"><a xlink:title=" ">
<path fill="none" stroke="#63b8ff" d="M152.71,-105.63C138.78,-108.46 124.46,-111.36 111.51,-113.98"/>
<polygon fill="#63b8ff" stroke="#63b8ff" points="153.66,-109.01 162.77,-103.6 152.27,-102.15 153.66,-109.01"/>
</a>
</g>
</g>
<!-- Node4 -->
<g id="Node000004" class="node">
<title>Node4</title>
<g id="a_Node000004"><a xlink:href="group__io.html#ga89b21ad0321c9a7125cf0cae57987307" target="_top" xlink:title=" ">
<polygon fill="white" stroke="#666666" points="127,-96 0,-96 0,-77 127,-77 127,-96"/>
<text text-anchor="middle" x="63.5" y="-84" font-family="Helvetica,sans-Serif" font-size="10.00">guanaqo::print_matlab</text>
</a>
</g>
</g>
<!-- Node2&#45;&gt;Node4 -->
<g id="edge3_Node000002_Node000004" class="edge">
<title>Node2&#45;&gt;Node4</title>
<g id="a_edge3_Node000002_Node000004"><a xlink:title=" ">
<path fill="none" stroke="#63b8ff" d="M152.57,-89.29C144.12,-89.02 135.54,-88.75 127.21,-88.48"/>
<polygon fill="#63b8ff" stroke="#63b8ff" points="152.66,-92.79 162.77,-89.61 152.88,-85.8 152.66,-92.79"/>
</a>
</g>
</g>
<!-- Node6 -->
<g id="Node000006" class="node">
<title>Node6</title>
<g id="a_Node000006"><a xlink:href="group__io.html#gaf6fcae141f820494c73f5d2d58a6daf1" target="_top" xlink:title=" ">
<polygon fill="white" stroke="#666666" points="126.5,-56 0.5,-56 0.5,-37 126.5,-37 126.5,-56"/>
<text text-anchor="middle" x="63.5" y="-44" font-family="Helvetica,sans-Serif" font-size="10.00">guanaqo::print_python</text>
</a>
</g>
</g>
<!-- Node5&#45;&gt;Node6 -->
<g id="edge5_Node000005_Node000006" class="edge">
<title>Node5&#45;&gt;Node6</title>
<g id="a_edge5_Node000005_Node000006"><a xlink:title=" ">
<path fill="none" stroke="#63b8ff" d="M152.69,-44.83C144.03,-44.99 135.22,-45.16 126.69,-45.32"/>
<polygon fill="#63b8ff" stroke="#63b8ff" points="152.84,-48.32 162.77,-44.63 152.7,-41.32 152.84,-48.32"/>
</a>
</g>
</g>
<!-- Node7 -->
<g id="Node000007" class="node">
<title>Node7</title>
<g id="a_Node000007"><a xlink:href="group__io.html#ga756d1c6bfac4b93da66e64e5f9c2b463" target="_top" xlink:title=" ">
<polygon fill="white" stroke="#666666" points="126.5,-19 0.5,-19 0.5,0 126.5,0 126.5,-19"/>
<text text-anchor="middle" x="63.5" y="-7" font-family="Helvetica,sans-Serif" font-size="10.00">guanaqo::print_python</text>
</a>
</g>
</g>
<!-- Node5&#45;&gt;Node7 -->
<g id="edge6_Node000005_Node000007" class="edge">
<title>Node5&#45;&gt;Node7</title>
<g id="a_edge6_Node000005_Node000007"><a xlink:title=" ">
<path fill="none" stroke="#63b8ff" d="M152.62,-28.46C137.82,-25.28 122.59,-22 109.04,-19.09"/>
<polygon fill="#63b8ff" stroke="#63b8ff" points="152.25,-31.96 162.77,-30.65 153.73,-25.12 152.25,-31.96"/>
</a>
</g>
</g>
</g>
</svg>
</svg>

<style type='text/css'>
<![CDATA[
[data-mouse-over-selected='false'] { opacity: 0.7; }
[data-mouse-over-selected='true']  { opacity: 1.0; }
]]>
</style>
<script type="application/ecmascript"><![CDATA[
document.addEventListener('DOMContentLoaded', (event) => {
  highlightEdges();
  highlightAdjacentNodes();
});
]]></script>
</svg>
