<?xml version="1.0" encoding="UTF-8" standalone="no"?>
<!DOCTYPE svg PUBLIC "-//W3C//DTD SVG 1.1//EN"
 "http://www.w3.org/Graphics/SVG/1.1/DTD/svg11.dtd">
<!-- Generated by graphviz version 2.43.0 (0)
 -->
<!-- Title: include/guanaqo/linalg/sparsity&#45;conversions.hpp Pages: 1 -->
<svg width="896pt" height="214pt"
 viewBox="0.00 0.00 895.50 214.00" xmlns="http://www.w3.org/2000/svg" xmlns:xlink="http://www.w3.org/1999/xlink">
<g id="graph0" class="graph" transform="scale(1 1) rotate(0) translate(4 210)">
<title>include/guanaqo/linalg/sparsity&#45;conversions.hpp</title>
<!-- Node1 -->
<g id="Node000001" class="node">
<title>Node1</title>
<g id="a_Node000001"><a xlink:title="Convert between dense and sparse sparsity descriptors.">
<polygon fill="#999999" stroke="#666666" points="508,-206 366,-206 366,-176 508,-176 508,-206"/>
<text text-anchor="start" x="374" y="-194" font-family="Helvetica,sans-Serif" font-size="10.00">include/guanaqo/linalg</text>
<text text-anchor="middle" x="437" y="-183" font-family="Helvetica,sans-Serif" font-size="10.00">/sparsity&#45;conversions.hpp</text>
</a>
</g>
</g>
<!-- Node2 -->
<g id="Node000002" class="node">
<title>Node2</title>
<g id="a_Node000002"><a xlink:title=" ">
<polygon fill="#e0e0e0" stroke="#999999" points="102,-134.5 0,-134.5 0,-115.5 102,-115.5 102,-134.5"/>
<text text-anchor="middle" x="51" y="-122.5" font-family="Helvetica,sans-Serif" font-size="10.00">guanaqo/export.h</text>
</a>
</g>
</g>
<!-- Node1&#45;&gt;Node2 -->
<g id="edge1_Node000001_Node000002" class="edge">
<title>Node1&#45;&gt;Node2</title>
<g id="a_edge1_Node000001_Node000002"><a xlink:title=" ">
<path fill="none" stroke="#63b8ff" d="M365.72,-180.1C300.54,-170.76 201.54,-155.86 116,-140 110.47,-138.97 104.68,-137.83 98.95,-136.65"/>
<polygon fill="#63b8ff" stroke="#63b8ff" points="99.24,-133.14 88.73,-134.51 97.8,-139.99 99.24,-133.14"/>
</a>
</g>
</g>
<!-- Node3 -->
<g id="Node000003" class="node">
<title>Node3</title>
<g id="a_Node000003"><a xlink:href="config_8hpp.html" target="_top" xlink:title="Common linear algebra index types.">
<polygon fill="white" stroke="#666666" points="506,-74 364,-74 364,-55 506,-55 506,-74"/>
<text text-anchor="middle" x="435" y="-62" font-family="Helvetica,sans-Serif" font-size="10.00">guanaqo/linalg/config.hpp</text>
</a>
</g>
</g>
<!-- Node1&#45;&gt;Node3 -->
<g id="edge2_Node000001_Node000003" class="edge">
<title>Node1&#45;&gt;Node3</title>
<g id="a_edge2_Node000001_Node000003"><a xlink:title=" ">
<path fill="none" stroke="#63b8ff" d="M424.77,-175.79C417.46,-166.33 408.88,-153.25 405,-140 401.26,-127.2 401.1,-122.75 405,-110 408.09,-99.9 414.32,-90.02 420.31,-82.15"/>
<polygon fill="#63b8ff" stroke="#63b8ff" points="423.18,-84.16 426.79,-74.2 417.76,-79.74 423.18,-84.16"/>
</a>
</g>
</g>
<!-- Node5 -->
<g id="Node000005" class="node">
<title>Node5</title>
<g id="a_Node000005"><a xlink:href="sparse-ops_8hpp.html" target="_top" xlink:title="Helpers for sparse matrix index ordering and conversions.">
<polygon fill="white" stroke="#666666" points="282,-140 158,-140 158,-110 282,-110 282,-140"/>
<text text-anchor="start" x="166" y="-128" font-family="Helvetica,sans-Serif" font-size="10.00">guanaqo/linalg/sparse</text>
<text text-anchor="middle" x="220" y="-117" font-family="Helvetica,sans-Serif" font-size="10.00">&#45;ops.hpp</text>
</a>
</g>
</g>
<!-- Node1&#45;&gt;Node5 -->
<g id="edge4_Node000001_Node000005" class="edge">
<title>Node1&#45;&gt;Node5</title>
<g id="a_edge4_Node000001_Node000005"><a xlink:title=" ">
<path fill="none" stroke="#63b8ff" d="M389.38,-175.95C356.31,-166.2 312.08,-153.16 277.11,-142.84"/>
<polygon fill="#63b8ff" stroke="#63b8ff" points="278.09,-139.48 267.51,-140.01 276.11,-146.2 278.09,-139.48"/>
</a>
</g>
</g>
<!-- Node6 -->
<g id="Node000006" class="node">
<title>Node6</title>
<g id="a_Node000006"><a xlink:title=" ">
<polygon fill="#e0e0e0" stroke="#999999" points="134,-74 70,-74 70,-55 134,-55 134,-74"/>
<text text-anchor="middle" x="102" y="-62" font-family="Helvetica,sans-Serif" font-size="10.00">algorithm</text>
</a>
</g>
</g>
<!-- Node1&#45;&gt;Node6 -->
<g id="edge15_Node000001_Node000006" class="edge">
<title>Node1&#45;&gt;Node6</title>
<g id="a_edge15_Node000001_Node000006"><a xlink:title=" ">
<path fill="none" stroke="#63b8ff" d="M365.88,-184.27C292.38,-177.2 183.63,-163.19 149,-140 128.79,-126.47 115.56,-101.01 108.43,-83.66"/>
<polygon fill="#63b8ff" stroke="#63b8ff" points="111.61,-82.17 104.77,-74.08 105.07,-84.67 111.61,-82.17"/>
</a>
</g>
</g>
<!-- Node7 -->
<g id="Node000007" class="node">
<title>Node7</title>
<g id="a_Node000007"><a xlink:title=" ">
<polygon fill="#e0e0e0" stroke="#999999" points="346,-74 294,-74 294,-55 346,-55 346,-74"/>
<text text-anchor="middle" x="320" y="-62" font-family="Helvetica,sans-Serif" font-size="10.00">cassert</text>
</a>
</g>
</g>
<!-- Node1&#45;&gt;Node7 -->
<g id="edge16_Node000001_Node000007" class="edge">
<title>Node1&#45;&gt;Node7</title>
<g id="a_edge16_Node000001_Node000007"><a xlink:title=" ">
<path fill="none" stroke="#63b8ff" d="M423.58,-175.72C401.58,-152.31 357.99,-105.92 335,-81.46"/>
<polygon fill="#63b8ff" stroke="#63b8ff" points="337.45,-78.96 328.05,-74.07 332.35,-83.75 337.45,-78.96"/>
</a>
</g>
</g>
<!-- Node8 -->
<g id="Node000008" class="node">
<title>Node8</title>
<g id="a_Node000008"><a xlink:title=" ">
<polygon fill="#e0e0e0" stroke="#999999" points="276,-74 220,-74 220,-55 276,-55 276,-74"/>
<text text-anchor="middle" x="248" y="-62" font-family="Helvetica,sans-Serif" font-size="10.00">numeric</text>
</a>
</g>
</g>
<!-- Node1&#45;&gt;Node8 -->
<g id="edge17_Node000001_Node000008" class="edge">
<title>Node1&#45;&gt;Node8</title>
<g id="a_edge17_Node000001_Node000008"><a xlink:title=" ">
<path fill="none" stroke="#63b8ff" d="M415.05,-175.84C399.62,-165.86 378.51,-152.17 360,-140 328.27,-119.14 291.66,-94.73 269.18,-79.69"/>
<polygon fill="#63b8ff" stroke="#63b8ff" points="270.99,-76.69 260.74,-74.04 267.1,-82.51 270.99,-76.69"/>
</a>
</g>
</g>
<!-- Node10 -->
<g id="Node000010" class="node">
<title>Node10</title>
<g id="a_Node000010"><a xlink:href="sparsity_8hpp.html" target="_top" xlink:title="Sparse and dense sparsity descriptors.">
<polygon fill="white" stroke="#666666" points="564,-134.5 414,-134.5 414,-115.5 564,-115.5 564,-134.5"/>
<text text-anchor="middle" x="489" y="-122.5" font-family="Helvetica,sans-Serif" font-size="10.00">guanaqo/linalg/sparsity.hpp</text>
</a>
</g>
</g>
<!-- Node1&#45;&gt;Node10 -->
<g id="edge9_Node000001_Node000010" class="edge">
<title>Node1&#45;&gt;Node10</title>
<g id="a_edge9_Node000001_Node000010"><a xlink:title=" ">
<path fill="none" stroke="#63b8ff" d="M448.54,-175.8C456.49,-166.01 467.08,-152.98 475.43,-142.7"/>
<polygon fill="#63b8ff" stroke="#63b8ff" points="478.22,-144.81 481.81,-134.84 472.79,-140.4 478.22,-144.81"/>
</a>
</g>
</g>
<!-- Node12 -->
<g id="Node000012" class="node">
<title>Node12</title>
<g id="a_Node000012"><a xlink:title=" ">
<polygon fill="#e0e0e0" stroke="#999999" points="702,-74 662,-74 662,-55 702,-55 702,-74"/>
<text text-anchor="middle" x="682" y="-62" font-family="Helvetica,sans-Serif" font-size="10.00">span</text>
</a>
</g>
</g>
<!-- Node1&#45;&gt;Node12 -->
<g id="edge19_Node000001_Node000012" class="edge">
<title>Node1&#45;&gt;Node12</title>
<g id="a_edge19_Node000001_Node000012"><a xlink:title=" ">
<path fill="none" stroke="#63b8ff" d="M486.48,-175.98C513.02,-167.44 545.78,-155.24 573,-140 591.78,-129.49 593.41,-122.4 611,-110 626.51,-99.07 644.64,-87.72 658.7,-79.23"/>
<polygon fill="#63b8ff" stroke="#63b8ff" points="660.51,-82.23 667.29,-74.08 656.91,-76.22 660.51,-82.23"/>
</a>
</g>
</g>
<!-- Node14 -->
<g id="Node000014" class="node">
<title>Node14</title>
<g id="a_Node000014"><a xlink:title=" ">
<polygon fill="#e0e0e0" stroke="#999999" points="676,-134.5 620,-134.5 620,-115.5 676,-115.5 676,-134.5"/>
<text text-anchor="middle" x="648" y="-122.5" font-family="Helvetica,sans-Serif" font-size="10.00">optional</text>
</a>
</g>
</g>
<!-- Node1&#45;&gt;Node14 -->
<g id="edge18_Node000001_Node000014" class="edge">
<title>Node1&#45;&gt;Node14</title>
<g id="a_edge18_Node000001_Node000014"><a xlink:title=" ">
<path fill="none" stroke="#63b8ff" d="M485.94,-176C519.76,-166.21 565.72,-152.67 606,-140 608.29,-139.28 610.64,-138.53 613.02,-137.76"/>
<polygon fill="#63b8ff" stroke="#63b8ff" points="614.31,-141.02 622.73,-134.58 612.13,-134.37 614.31,-141.02"/>
</a>
</g>
</g>
<!-- Node15 -->
<g id="Node000015" class="node">
<title>Node15</title>
<g id="a_Node000015"><a xlink:title=" ">
<polygon fill="#e0e0e0" stroke="#999999" points="759.5,-134.5 694.5,-134.5 694.5,-115.5 759.5,-115.5 759.5,-134.5"/>
<text text-anchor="middle" x="727" y="-122.5" font-family="Helvetica,sans-Serif" font-size="10.00">stdexcept</text>
</a>
</g>
</g>
<!-- Node1&#45;&gt;Node15 -->
<g id="edge20_Node000001_Node000015" class="edge">
<title>Node1&#45;&gt;Node15</title>
<g id="a_edge20_Node000001_Node000015"><a xlink:title=" ">
<path fill="none" stroke="#63b8ff" d="M508.09,-178.06C557.96,-169.11 626.01,-155.72 685,-140 687.79,-139.26 690.66,-138.43 693.53,-137.57"/>
<polygon fill="#63b8ff" stroke="#63b8ff" points="694.69,-140.87 703.17,-134.51 692.58,-134.19 694.69,-140.87"/>
</a>
</g>
</g>
<!-- Node16 -->
<g id="Node000016" class="node">
<title>Node16</title>
<g id="a_Node000016"><a xlink:title=" ">
<polygon fill="#e0e0e0" stroke="#999999" points="822.5,-134.5 777.5,-134.5 777.5,-115.5 822.5,-115.5 822.5,-134.5"/>
<text text-anchor="middle" x="800" y="-122.5" font-family="Helvetica,sans-Serif" font-size="10.00">utility</text>
</a>
</g>
</g>
<!-- Node1&#45;&gt;Node16 -->
<g id="edge21_Node000001_Node000016" class="edge">
<title>Node1&#45;&gt;Node16</title>
<g id="a_edge21_Node000001_Node000016"><a xlink:title=" ">
<path fill="none" stroke="#63b8ff" d="M508.17,-184.97C576.24,-178.83 681.23,-165.89 769,-140 770.64,-139.52 772.3,-138.97 773.96,-138.37"/>
<polygon fill="#63b8ff" stroke="#63b8ff" points="775.33,-141.59 783.27,-134.57 772.68,-135.11 775.33,-141.59"/>
</a>
</g>
</g>
<!-- Node17 -->
<g id="Node000017" class="node">
<title>Node17</title>
<g id="a_Node000017"><a xlink:title=" ">
<polygon fill="#e0e0e0" stroke="#999999" points="887.5,-134.5 840.5,-134.5 840.5,-115.5 887.5,-115.5 887.5,-134.5"/>
<text text-anchor="middle" x="864" y="-122.5" font-family="Helvetica,sans-Serif" font-size="10.00">vector</text>
</a>
</g>
</g>
<!-- Node1&#45;&gt;Node17 -->
<g id="edge22_Node000001_Node000017" class="edge">
<title>Node1&#45;&gt;Node17</title>
<g id="a_edge22_Node000001_Node000017"><a xlink:title=" ">
<path fill="none" stroke="#63b8ff" d="M508.12,-187.12C588.14,-182.48 721.39,-170.51 832,-140 833.69,-139.53 835.4,-139 837.12,-138.41"/>
<polygon fill="#63b8ff" stroke="#63b8ff" points="838.7,-141.55 846.72,-134.63 836.14,-135.03 838.7,-141.55"/>
</a>
</g>
</g>
<!-- Node4 -->
<g id="Node000004" class="node">
<title>Node4</title>
<g id="a_Node000004"><a xlink:title=" ">
<polygon fill="#e0e0e0" stroke="#999999" points="461.5,-19 408.5,-19 408.5,0 461.5,0 461.5,-19"/>
<text text-anchor="middle" x="435" y="-7" font-family="Helvetica,sans-Serif" font-size="10.00">cstddef</text>
</a>
</g>
</g>
<!-- Node3&#45;&gt;Node4 -->
<g id="edge3_Node000003_Node000004" class="edge">
<title>Node3&#45;&gt;Node4</title>
<g id="a_edge3_Node000003_Node000004"><a xlink:title=" ">
<path fill="none" stroke="#63b8ff" d="M435,-54.75C435,-47.8 435,-37.85 435,-29.13"/>
<polygon fill="#63b8ff" stroke="#63b8ff" points="438.5,-29.09 435,-19.09 431.5,-29.09 438.5,-29.09"/>
</a>
</g>
</g>
<!-- Node5&#45;&gt;Node6 -->
<g id="edge5_Node000005_Node000006" class="edge">
<title>Node5&#45;&gt;Node6</title>
<g id="a_edge5_Node000005_Node000006"><a xlink:title=" ">
<path fill="none" stroke="#63b8ff" d="M191.74,-109.99C172.58,-100.49 147.42,-88.02 128.61,-78.69"/>
<polygon fill="#63b8ff" stroke="#63b8ff" points="129.94,-75.45 119.43,-74.14 126.83,-81.72 129.94,-75.45"/>
</a>
</g>
</g>
<!-- Node5&#45;&gt;Node7 -->
<g id="edge6_Node000005_Node000007" class="edge">
<title>Node5&#45;&gt;Node7</title>
<g id="a_edge6_Node000005_Node000007"><a xlink:title=" ">
<path fill="none" stroke="#63b8ff" d="M243.95,-109.99C259.89,-100.66 280.73,-88.47 296.56,-79.21"/>
<polygon fill="#63b8ff" stroke="#63b8ff" points="298.37,-82.21 305.23,-74.14 294.83,-76.17 298.37,-82.21"/>
</a>
</g>
</g>
<!-- Node5&#45;&gt;Node8 -->
<g id="edge7_Node000005_Node000008" class="edge">
<title>Node5&#45;&gt;Node8</title>
<g id="a_edge7_Node000005_Node000008"><a xlink:title=" ">
<path fill="none" stroke="#63b8ff" d="M226.78,-109.84C230.59,-101.87 235.39,-91.84 239.46,-83.33"/>
<polygon fill="#63b8ff" stroke="#63b8ff" points="242.64,-84.8 243.8,-74.27 236.33,-81.77 242.64,-84.8"/>
</a>
</g>
</g>
<!-- Node9 -->
<g id="Node000009" class="node">
<title>Node9</title>
<g id="a_Node000009"><a xlink:title=" ">
<polygon fill="#e0e0e0" stroke="#999999" points="202,-74 152,-74 152,-55 202,-55 202,-74"/>
<text text-anchor="middle" x="177" y="-62" font-family="Helvetica,sans-Serif" font-size="10.00">ranges</text>
</a>
</g>
</g>
<!-- Node5&#45;&gt;Node9 -->
<g id="edge8_Node000005_Node000009" class="edge">
<title>Node5&#45;&gt;Node9</title>
<g id="a_edge8_Node000005_Node000009"><a xlink:title=" ">
<path fill="none" stroke="#63b8ff" d="M209.59,-109.84C203.54,-101.61 195.88,-91.18 189.5,-82.51"/>
<polygon fill="#63b8ff" stroke="#63b8ff" points="192.19,-80.25 183.44,-74.27 186.55,-84.4 192.19,-80.25"/>
</a>
</g>
</g>
<!-- Node10&#45;&gt;Node3 -->
<g id="edge10_Node000010_Node000003" class="edge">
<title>Node10&#45;&gt;Node3</title>
<g id="a_edge10_Node000010_Node000003"><a xlink:title=" ">
<path fill="none" stroke="#63b8ff" d="M481.03,-115.37C472.9,-106.55 460.07,-92.66 450.02,-81.77"/>
<polygon fill="#63b8ff" stroke="#63b8ff" points="452.36,-79.14 443,-74.17 447.21,-83.89 452.36,-79.14"/>
</a>
</g>
</g>
<!-- Node10&#45;&gt;Node7 -->
<g id="edge11_Node000010_Node000007" class="edge">
<title>Node10&#45;&gt;Node7</title>
<g id="a_edge11_Node000010_Node000007"><a xlink:title=" ">
<path fill="none" stroke="#63b8ff" d="M464.43,-115.49C435.39,-105.44 386.9,-88.66 354.2,-77.34"/>
<polygon fill="#63b8ff" stroke="#63b8ff" points="355.2,-73.98 344.6,-74.02 352.91,-80.6 355.2,-73.98"/>
</a>
</g>
</g>
<!-- Node11 -->
<g id="Node000011" class="node">
<title>Node11</title>
<g id="a_Node000011"><a xlink:title=" ">
<polygon fill="#e0e0e0" stroke="#999999" points="574,-74 524,-74 524,-55 574,-55 574,-74"/>
<text text-anchor="middle" x="549" y="-62" font-family="Helvetica,sans-Serif" font-size="10.00">cstdint</text>
</a>
</g>
</g>
<!-- Node10&#45;&gt;Node11 -->
<g id="edge12_Node000010_Node000011" class="edge">
<title>Node10&#45;&gt;Node11</title>
<g id="a_edge12_Node000010_Node000011"><a xlink:title=" ">
<path fill="none" stroke="#63b8ff" d="M497.85,-115.37C506.98,-106.47 521.42,-92.39 532.64,-81.45"/>
<polygon fill="#63b8ff" stroke="#63b8ff" points="535.39,-83.65 540.11,-74.17 530.51,-78.64 535.39,-83.65"/>
</a>
</g>
</g>
<!-- Node10&#45;&gt;Node12 -->
<g id="edge13_Node000010_Node000012" class="edge">
<title>Node10&#45;&gt;Node12</title>
<g id="a_edge13_Node000010_Node000012"><a xlink:title=" ">
<path fill="none" stroke="#63b8ff" d="M517.06,-115.49C553.09,-104.57 615.34,-85.71 652.19,-74.54"/>
<polygon fill="#63b8ff" stroke="#63b8ff" points="653.31,-77.85 661.87,-71.6 651.28,-71.15 653.31,-77.85"/>
</a>
</g>
</g>
<!-- Node13 -->
<g id="Node000013" class="node">
<title>Node13</title>
<g id="a_Node000013"><a xlink:title=" ">
<polygon fill="#e0e0e0" stroke="#999999" points="643.5,-74 592.5,-74 592.5,-55 643.5,-55 643.5,-74"/>
<text text-anchor="middle" x="618" y="-62" font-family="Helvetica,sans-Serif" font-size="10.00">variant</text>
</a>
</g>
</g>
<!-- Node10&#45;&gt;Node13 -->
<g id="edge14_Node000010_Node000013" class="edge">
<title>Node10&#45;&gt;Node13</title>
<g id="a_edge14_Node000010_Node000013"><a xlink:title=" ">
<path fill="none" stroke="#63b8ff" d="M507.76,-115.49C529.35,-105.7 565.03,-89.52 589.93,-78.23"/>
<polygon fill="#63b8ff" stroke="#63b8ff" points="591.56,-81.33 599.22,-74.02 588.67,-74.96 591.56,-81.33"/>
</a>
</g>
</g>
</g>
</svg>
