<?xml version="1.0" encoding="UTF-8" standalone="no"?>
<!DOCTYPE svg PUBLIC "-//W3C//DTD SVG 1.1//EN"
 "http://www.w3.org/Graphics/SVG/1.1/DTD/svg11.dtd">
<!-- Generated by graphviz version 2.43.0 (0)
 -->
<!-- Title: guanaqo::TypeErased::TypeErased Pages: 1 -->
<svg width="623pt" height="38pt"
 viewBox="0.00 0.00 623.00 38.00" xmlns="http://www.w3.org/2000/svg" xmlns:xlink="http://www.w3.org/1999/xlink">
<g id="graph0" class="graph" transform="scale(1 1) rotate(0) translate(4 34)">
<title>guanaqo::TypeErased::TypeErased</title>
<!-- Node1 -->
<g id="Node000001" class="node">
<title>Node1</title>
<g id="a_Node000001"><a xlink:title="Main constructor that type&#45;erases the given argument.">
<polygon fill="#999999" stroke="#666666" points="120,-30 0,-30 0,0 120,0 120,-30"/>
<text text-anchor="start" x="8" y="-18" font-family="Helvetica,sans-Serif" font-size="10.00">guanaqo::TypeErased</text>
<text text-anchor="middle" x="60" y="-7" font-family="Helvetica,sans-Serif" font-size="10.00">::TypeErased</text>
</a>
</g>
</g>
<!-- Node2 -->
<g id="Node000002" class="node">
<title>Node2</title>
<g id="a_Node000002"><a xlink:href="classguanaqo_1_1TypeErased.html#a4525c3ab83229736d301a3c54b97b2c4" target="_top" xlink:title="Ensure storage and construct the type&#45;erased object of type T in&#45;place.">
<polygon fill="white" stroke="#666666" points="276,-30 156,-30 156,0 276,0 276,-30"/>
<text text-anchor="start" x="164" y="-18" font-family="Helvetica,sans-Serif" font-size="10.00">guanaqo::TypeErased</text>
<text text-anchor="middle" x="216" y="-7" font-family="Helvetica,sans-Serif" font-size="10.00">::construct_inplace</text>
</a>
</g>
</g>
<!-- Node1&#45;&gt;Node2 -->
<g id="edge1_Node000001_Node000002" class="edge">
<title>Node1&#45;&gt;Node2</title>
<g id="a_edge1_Node000001_Node000002"><a xlink:title=" ">
<path fill="none" stroke="#63b8ff" d="M120.1,-15C128.42,-15 137.04,-15 145.53,-15"/>
<polygon fill="#63b8ff" stroke="#63b8ff" points="145.8,-18.5 155.8,-15 145.8,-11.5 145.8,-18.5"/>
</a>
</g>
</g>
<!-- Node3 -->
<g id="Node000003" class="node">
<title>Node3</title>
<g id="a_Node000003"><a xlink:href="classguanaqo_1_1TypeErased.html#a1539cdfc24389b1a988bf335a89fbccd" target="_top" xlink:title="Ensure that storage is available, either by using the small buffer if it is large enough,...">
<polygon fill="white" stroke="#666666" points="432,-30 312,-30 312,0 432,0 432,-30"/>
<text text-anchor="start" x="320" y="-18" font-family="Helvetica,sans-Serif" font-size="10.00">guanaqo::TypeErased</text>
<text text-anchor="middle" x="372" y="-7" font-family="Helvetica,sans-Serif" font-size="10.00">::allocate</text>
</a>
</g>
</g>
<!-- Node2&#45;&gt;Node3 -->
<g id="edge2_Node000002_Node000003" class="edge">
<title>Node2&#45;&gt;Node3</title>
<g id="a_edge2_Node000002_Node000003"><a xlink:title=" ">
<path fill="none" stroke="#63b8ff" d="M276.1,-15C284.42,-15 293.04,-15 301.53,-15"/>
<polygon fill="#63b8ff" stroke="#63b8ff" points="301.8,-18.5 311.8,-15 301.8,-11.5 301.8,-18.5"/>
</a>
</g>
</g>
<!-- Node4 -->
<g id="Node000004" class="node">
<title>Node4</title>
<g id="a_Node000004"><a xlink:href="classguanaqo_1_1TypeErased.html#ac8f39b0ccb2a310de00de9637f6aaf97" target="_top" xlink:title=" ">
<polygon fill="white" stroke="#666666" points="615,-30 468,-30 468,0 615,0 615,-30"/>
<text text-anchor="start" x="476" y="-18" font-family="Helvetica,sans-Serif" font-size="10.00">guanaqo::TypeErased</text>
<text text-anchor="middle" x="541.5" y="-7" font-family="Helvetica,sans-Serif" font-size="10.00">::size_indicates_ownership</text>
</a>
</g>
</g>
<!-- Node3&#45;&gt;Node4 -->
<g id="edge3_Node000003_Node000004" class="edge">
<title>Node3&#45;&gt;Node4</title>
<g id="a_edge3_Node000003_Node000004"><a xlink:title=" ">
<path fill="none" stroke="#63b8ff" d="M432.05,-15C440.38,-15 449.07,-15 457.74,-15"/>
<polygon fill="#63b8ff" stroke="#63b8ff" points="457.89,-18.5 467.89,-15 457.89,-11.5 457.89,-18.5"/>
</a>
</g>
</g>
</g>
</svg>
