<?xml version="1.0" encoding="UTF-8" standalone="no"?>
<!DOCTYPE svg PUBLIC "-//W3C//DTD SVG 1.1//EN"
 "http://www.w3.org/Graphics/SVG/1.1/DTD/svg11.dtd">
<!-- Generated by graphviz version 2.43.0 (0)
 -->
<!-- Title: guanaqo::TypeErased::do_copy_assign Pages: 1 -->
<svg width="488pt" height="134pt"
 viewBox="0.00 0.00 488.00 134.00" xmlns="http://www.w3.org/2000/svg" xmlns:xlink="http://www.w3.org/1999/xlink">
<g id="graph0" class="graph" transform="scale(1 1) rotate(0) translate(4 130)">
<title>guanaqo::TypeErased::do_copy_assign</title>
<!-- Node1 -->
<g id="Node000001" class="node">
<title>Node1</title>
<g id="a_Node000001"><a xlink:title=" ">
<polygon fill="#999999" stroke="#666666" points="120,-78 0,-78 0,-48 120,-48 120,-78"/>
<text text-anchor="start" x="8" y="-66" font-family="Helvetica,sans-Serif" font-size="10.00">guanaqo::TypeErased</text>
<text text-anchor="middle" x="60" y="-55" font-family="Helvetica,sans-Serif" font-size="10.00">::do_copy_assign</text>
</a>
</g>
</g>
<!-- Node2 -->
<g id="Node000002" class="node">
<title>Node2</title>
<g id="a_Node000002"><a xlink:href="classguanaqo_1_1TypeErased.html#a32b0f63d3c9a366264d6c3365db9ace6" target="_top" xlink:title="Default constructor.">
<polygon fill="white" stroke="#666666" points="286.5,-126 166.5,-126 166.5,-96 286.5,-96 286.5,-126"/>
<text text-anchor="start" x="174.5" y="-114" font-family="Helvetica,sans-Serif" font-size="10.00">guanaqo::TypeErased</text>
<text text-anchor="middle" x="226.5" y="-103" font-family="Helvetica,sans-Serif" font-size="10.00">::TypeErased</text>
</a>
</g>
</g>
<!-- Node1&#45;&gt;Node2 -->
<g id="edge1_Node000001_Node000002" class="edge">
<title>Node1&#45;&gt;Node2</title>
<g id="a_edge1_Node000001_Node000002"><a xlink:title=" ">
<path fill="none" stroke="#63b8ff" d="M112.6,-78.06C128.98,-82.84 147.26,-88.17 164.25,-93.13"/>
<polygon fill="#63b8ff" stroke="#63b8ff" points="163.51,-96.56 174.09,-96 165.47,-89.84 163.51,-96.56"/>
</a>
</g>
</g>
<!-- Node3 -->
<g id="Node000003" class="node">
<title>Node3</title>
<g id="a_Node000003"><a xlink:href="classguanaqo_1_1TypeErased.html#a1539cdfc24389b1a988bf335a89fbccd" target="_top" xlink:title="Ensure that storage is available, either by using the small buffer if it is large enough,...">
<polygon fill="white" stroke="#666666" points="286.5,-78 166.5,-78 166.5,-48 286.5,-48 286.5,-78"/>
<text text-anchor="start" x="174.5" y="-66" font-family="Helvetica,sans-Serif" font-size="10.00">guanaqo::TypeErased</text>
<text text-anchor="middle" x="226.5" y="-55" font-family="Helvetica,sans-Serif" font-size="10.00">::allocate</text>
</a>
</g>
</g>
<!-- Node1&#45;&gt;Node3 -->
<g id="edge2_Node000001_Node000003" class="edge">
<title>Node1&#45;&gt;Node3</title>
<g id="a_edge2_Node000001_Node000003"><a xlink:title=" ">
<path fill="none" stroke="#63b8ff" d="M120.39,-63C131.99,-63 144.25,-63 156.14,-63"/>
<polygon fill="#63b8ff" stroke="#63b8ff" points="156.47,-66.5 166.47,-63 156.47,-59.5 156.47,-66.5"/>
</a>
</g>
</g>
<!-- Node5 -->
<g id="Node000005" class="node">
<title>Node5</title>
<g id="a_Node000005"><a xlink:href="classguanaqo_1_1TypeErased.html#ad3e015424b6dd535594aeb9606466245" target="_top" xlink:title="Check if this wrapper owns the storage of the wrapped object, or whether it simply stores a reference...">
<polygon fill="white" stroke="#666666" points="297,-30 156,-30 156,0 297,0 297,-30"/>
<text text-anchor="start" x="164" y="-18" font-family="Helvetica,sans-Serif" font-size="10.00">guanaqo::TypeErased</text>
<text text-anchor="middle" x="226.5" y="-7" font-family="Helvetica,sans-Serif" font-size="10.00">::owns_referenced_object</text>
</a>
</g>
</g>
<!-- Node1&#45;&gt;Node5 -->
<g id="edge4_Node000001_Node000005" class="edge">
<title>Node1&#45;&gt;Node5</title>
<g id="a_edge4_Node000001_Node000005"><a xlink:title=" ">
<path fill="none" stroke="#63b8ff" d="M112.6,-47.94C128.98,-43.16 147.26,-37.83 164.25,-32.87"/>
<polygon fill="#63b8ff" stroke="#63b8ff" points="165.47,-36.16 174.09,-30 163.51,-29.44 165.47,-36.16"/>
</a>
</g>
</g>
<!-- Node4 -->
<g id="Node000004" class="node">
<title>Node4</title>
<g id="a_Node000004"><a xlink:href="classguanaqo_1_1TypeErased.html#ac8f39b0ccb2a310de00de9637f6aaf97" target="_top" xlink:title=" ">
<polygon fill="white" stroke="#666666" points="480,-54 333,-54 333,-24 480,-24 480,-54"/>
<text text-anchor="start" x="341" y="-42" font-family="Helvetica,sans-Serif" font-size="10.00">guanaqo::TypeErased</text>
<text text-anchor="middle" x="406.5" y="-31" font-family="Helvetica,sans-Serif" font-size="10.00">::size_indicates_ownership</text>
</a>
</g>
</g>
<!-- Node3&#45;&gt;Node4 -->
<g id="edge3_Node000003_Node000004" class="edge">
<title>Node3&#45;&gt;Node4</title>
<g id="a_edge3_Node000003_Node000004"><a xlink:title=" ">
<path fill="none" stroke="#63b8ff" d="M286.77,-55.01C298.31,-53.45 310.6,-51.8 322.73,-50.16"/>
<polygon fill="#63b8ff" stroke="#63b8ff" points="323.42,-53.6 332.86,-48.79 322.49,-46.66 323.42,-53.6"/>
</a>
</g>
</g>
<!-- Node5&#45;&gt;Node4 -->
<g id="edge5_Node000005_Node000004" class="edge">
<title>Node5&#45;&gt;Node4</title>
<g id="a_edge5_Node000005_Node000004"><a xlink:title=" ">
<path fill="none" stroke="#63b8ff" d="M297.08,-24.38C305.49,-25.52 314.15,-26.68 322.72,-27.84"/>
<polygon fill="#63b8ff" stroke="#63b8ff" points="322.36,-31.32 332.74,-29.19 323.29,-24.38 322.36,-31.32"/>
</a>
</g>
</g>
</g>
</svg>
