<?xml version="1.0" encoding="UTF-8" standalone="no"?>
<!DOCTYPE svg PUBLIC "-//W3C//DTD SVG 1.1//EN"
 "http://www.w3.org/Graphics/SVG/1.1/DTD/svg11.dtd">
<!-- Generated by graphviz version 2.43.0 (0)
 -->
<!-- Title: include/guanaqo/io/csv.hpp Pages: 1 -->
<svg width="615pt" height="148pt"
 viewBox="0.00 0.00 614.50 148.00" xmlns="http://www.w3.org/2000/svg" xmlns:xlink="http://www.w3.org/1999/xlink">
<g id="graph0" class="graph" transform="scale(1 1) rotate(0) translate(4 144)">
<title>include/guanaqo/io/csv.hpp</title>
<!-- Node1 -->
<g id="Node000001" class="node">
<title>Node1</title>
<g id="a_Node000001"><a xlink:title="Reading matrices and vectors from CSV files.">
<polygon fill="#999999" stroke="#666666" points="417.5,-140 308.5,-140 308.5,-110 417.5,-110 417.5,-140"/>
<text text-anchor="start" x="316.5" y="-128" font-family="Helvetica,sans-Serif" font-size="10.00">include/guanaqo/io</text>
<text text-anchor="middle" x="363" y="-117" font-family="Helvetica,sans-Serif" font-size="10.00">/csv.hpp</text>
</a>
</g>
</g>
<!-- Node2 -->
<g id="Node000002" class="node">
<title>Node2</title>
<g id="a_Node000002"><a xlink:title=" ">
<polygon fill="#e0e0e0" stroke="#999999" points="132,-74 30,-74 30,-55 132,-55 132,-74"/>
<text text-anchor="middle" x="81" y="-62" font-family="Helvetica,sans-Serif" font-size="10.00">guanaqo/export.h</text>
</a>
</g>
</g>
<!-- Node1&#45;&gt;Node2 -->
<g id="edge1_Node000001_Node000002" class="edge">
<title>Node1&#45;&gt;Node2</title>
<g id="a_edge1_Node000001_Node000002"><a xlink:title=" ">
<path fill="none" stroke="#63b8ff" d="M308.29,-112.65C257.35,-102.08 181.97,-86.45 132.19,-76.12"/>
<polygon fill="#63b8ff" stroke="#63b8ff" points="132.78,-72.67 122.28,-74.06 131.36,-79.52 132.78,-72.67"/>
</a>
</g>
</g>
<!-- Node3 -->
<g id="Node000003" class="node">
<title>Node3</title>
<g id="a_Node000003"><a xlink:href="mat-view_8hpp.html" target="_top" xlink:title="Non&#45;owning matrix view.">
<polygon fill="white" stroke="#666666" points="316,-74 188,-74 188,-55 316,-55 316,-74"/>
<text text-anchor="middle" x="252" y="-62" font-family="Helvetica,sans-Serif" font-size="10.00">guanaqo/mat&#45;view.hpp</text>
</a>
</g>
</g>
<!-- Node1&#45;&gt;Node3 -->
<g id="edge2_Node000001_Node000003" class="edge">
<title>Node1&#45;&gt;Node3</title>
<g id="a_edge2_Node000001_Node000003"><a xlink:title=" ">
<path fill="none" stroke="#63b8ff" d="M336.41,-109.99C318.55,-100.58 295.16,-88.24 277.52,-78.95"/>
<polygon fill="#63b8ff" stroke="#63b8ff" points="278.87,-75.71 268.39,-74.14 275.61,-81.9 278.87,-75.71"/>
</a>
</g>
</g>
<!-- Node6 -->
<g id="Node000006" class="node">
<title>Node6</title>
<g id="a_Node000006"><a xlink:title=" ">
<polygon fill="#e0e0e0" stroke="#999999" points="60,-19 0,-19 0,0 60,0 60,-19"/>
<text text-anchor="middle" x="30" y="-7" font-family="Helvetica,sans-Serif" font-size="10.00">concepts</text>
</a>
</g>
</g>
<!-- Node1&#45;&gt;Node6 -->
<g id="edge9_Node000001_Node000006" class="edge">
<title>Node1&#45;&gt;Node6</title>
<g id="a_edge9_Node000001_Node000006"><a xlink:title=" ">
<path fill="none" stroke="#63b8ff" d="M308.15,-112.11C271.09,-103.35 221.37,-90.17 179,-74 161.36,-67.27 158.22,-62.74 141,-55 115.05,-43.34 85.08,-31.41 62.83,-22.84"/>
<polygon fill="#63b8ff" stroke="#63b8ff" points="63.78,-19.46 53.19,-19.16 61.28,-26 63.78,-19.46"/>
</a>
</g>
</g>
<!-- Node7 -->
<g id="Node000007" class="node">
<title>Node7</title>
<g id="a_Node000007"><a xlink:title=" ">
<polygon fill="#e0e0e0" stroke="#999999" points="370.5,-19 317.5,-19 317.5,0 370.5,0 370.5,-19"/>
<text text-anchor="middle" x="344" y="-7" font-family="Helvetica,sans-Serif" font-size="10.00">cstddef</text>
</a>
</g>
</g>
<!-- Node1&#45;&gt;Node7 -->
<g id="edge10_Node000001_Node000007" class="edge">
<title>Node1&#45;&gt;Node7</title>
<g id="a_edge10_Node000001_Node000007"><a xlink:title=" ">
<path fill="none" stroke="#63b8ff" d="M360.59,-109.63C357.18,-89.21 350.92,-51.81 347.14,-29.24"/>
<polygon fill="#63b8ff" stroke="#63b8ff" points="350.56,-28.51 345.46,-19.23 343.66,-29.67 350.56,-28.51"/>
</a>
</g>
</g>
<!-- Node8 -->
<g id="Node000008" class="node">
<title>Node8</title>
<g id="a_Node000008"><a xlink:title=" ">
<polygon fill="#e0e0e0" stroke="#999999" points="429,-19 389,-19 389,0 429,0 429,-19"/>
<text text-anchor="middle" x="409" y="-7" font-family="Helvetica,sans-Serif" font-size="10.00">span</text>
</a>
</g>
</g>
<!-- Node1&#45;&gt;Node8 -->
<g id="edge12_Node000001_Node000008" class="edge">
<title>Node1&#45;&gt;Node8</title>
<g id="a_edge12_Node000001_Node000008"><a xlink:title=" ">
<path fill="none" stroke="#63b8ff" d="M368.83,-109.63C377.17,-89.03 392.54,-51.12 401.65,-28.63"/>
<polygon fill="#63b8ff" stroke="#63b8ff" points="404.95,-29.81 405.46,-19.23 398.46,-27.18 404.95,-29.81"/>
</a>
</g>
</g>
<!-- Node10 -->
<g id="Node000010" class="node">
<title>Node10</title>
<g id="a_Node000010"><a xlink:title=" ">
<polygon fill="#e0e0e0" stroke="#999999" points="458,-74 410,-74 410,-55 458,-55 458,-74"/>
<text text-anchor="middle" x="434" y="-62" font-family="Helvetica,sans-Serif" font-size="10.00">iosfwd</text>
</a>
</g>
</g>
<!-- Node1&#45;&gt;Node10 -->
<g id="edge11_Node000001_Node000010" class="edge">
<title>Node1&#45;&gt;Node10</title>
<g id="a_edge11_Node000001_Node000010"><a xlink:title=" ">
<path fill="none" stroke="#63b8ff" d="M380.19,-109.84C390.81,-101.09 404.44,-89.85 415.33,-80.88"/>
<polygon fill="#63b8ff" stroke="#63b8ff" points="417.87,-83.33 423.36,-74.27 413.42,-77.92 417.87,-83.33"/>
</a>
</g>
</g>
<!-- Node11 -->
<g id="Node000011" class="node">
<title>Node11</title>
<g id="a_Node000011"><a xlink:title=" ">
<polygon fill="#e0e0e0" stroke="#999999" points="541.5,-74 476.5,-74 476.5,-55 541.5,-55 541.5,-74"/>
<text text-anchor="middle" x="509" y="-62" font-family="Helvetica,sans-Serif" font-size="10.00">stdexcept</text>
</a>
</g>
</g>
<!-- Node1&#45;&gt;Node11 -->
<g id="edge13_Node000001_Node000011" class="edge">
<title>Node1&#45;&gt;Node11</title>
<g id="a_edge13_Node000001_Node000011"><a xlink:title=" ">
<path fill="none" stroke="#63b8ff" d="M397.97,-109.99C422.33,-100.23 454.53,-87.33 477.97,-77.93"/>
<polygon fill="#63b8ff" stroke="#63b8ff" points="479.46,-81.11 487.44,-74.14 476.85,-74.61 479.46,-81.11"/>
</a>
</g>
</g>
<!-- Node12 -->
<g id="Node000012" class="node">
<title>Node12</title>
<g id="a_Node000012"><a xlink:title=" ">
<polygon fill="#e0e0e0" stroke="#999999" points="606.5,-74 559.5,-74 559.5,-55 606.5,-55 606.5,-74"/>
<text text-anchor="middle" x="583" y="-62" font-family="Helvetica,sans-Serif" font-size="10.00">vector</text>
</a>
</g>
</g>
<!-- Node1&#45;&gt;Node12 -->
<g id="edge14_Node000001_Node000012" class="edge">
<title>Node1&#45;&gt;Node12</title>
<g id="a_edge14_Node000001_Node000012"><a xlink:title=" ">
<path fill="none" stroke="#63b8ff" d="M415.7,-109.99C457.23,-98.94 513.89,-83.88 549.45,-74.42"/>
<polygon fill="#63b8ff" stroke="#63b8ff" points="550.57,-77.75 559.33,-71.79 548.77,-70.98 550.57,-77.75"/>
</a>
</g>
</g>
<!-- Node4 -->
<g id="Node000004" class="node">
<title>Node4</title>
<g id="a_Node000004"><a xlink:title=" ">
<polygon fill="#e0e0e0" stroke="#999999" points="142,-19 78,-19 78,0 142,0 142,-19"/>
<text text-anchor="middle" x="110" y="-7" font-family="Helvetica,sans-Serif" font-size="10.00">algorithm</text>
</a>
</g>
</g>
<!-- Node3&#45;&gt;Node4 -->
<g id="edge3_Node000003_Node000004" class="edge">
<title>Node3&#45;&gt;Node4</title>
<g id="a_edge3_Node000003_Node000004"><a xlink:title=" ">
<path fill="none" stroke="#63b8ff" d="M229.19,-54.98C205.83,-46.27 169.3,-32.63 142.83,-22.75"/>
<polygon fill="#63b8ff" stroke="#63b8ff" points="143.82,-19.39 133.23,-19.17 141.37,-25.95 143.82,-19.39"/>
</a>
</g>
</g>
<!-- Node5 -->
<g id="Node000005" class="node">
<title>Node5</title>
<g id="a_Node000005"><a xlink:title=" ">
<polygon fill="#e0e0e0" stroke="#999999" points="212,-19 160,-19 160,0 212,0 212,-19"/>
<text text-anchor="middle" x="186" y="-7" font-family="Helvetica,sans-Serif" font-size="10.00">cassert</text>
</a>
</g>
</g>
<!-- Node3&#45;&gt;Node5 -->
<g id="edge4_Node000003_Node000005" class="edge">
<title>Node3&#45;&gt;Node5</title>
<g id="a_edge4_Node000003_Node000005"><a xlink:title=" ">
<path fill="none" stroke="#63b8ff" d="M241.4,-54.98C231.54,-47.07 216.65,-35.11 204.78,-25.58"/>
<polygon fill="#63b8ff" stroke="#63b8ff" points="206.79,-22.7 196.8,-19.17 202.4,-28.16 206.79,-22.7"/>
</a>
</g>
</g>
<!-- Node3&#45;&gt;Node6 -->
<g id="edge5_Node000003_Node000006" class="edge">
<title>Node3&#45;&gt;Node6</title>
<g id="a_edge5_Node000003_Node000006"><a xlink:title=" ">
<path fill="none" stroke="#63b8ff" d="M216.33,-54.98C176.36,-45.44 111.72,-30.01 70.04,-20.06"/>
<polygon fill="#63b8ff" stroke="#63b8ff" points="70.77,-16.64 60.23,-17.72 69.14,-23.44 70.77,-16.64"/>
</a>
</g>
</g>
<!-- Node3&#45;&gt;Node7 -->
<g id="edge6_Node000003_Node000007" class="edge">
<title>Node3&#45;&gt;Node7</title>
<g id="a_edge6_Node000003_Node000007"><a xlink:title=" ">
<path fill="none" stroke="#63b8ff" d="M266.78,-54.98C281.18,-46.69 303.31,-33.94 320.19,-24.22"/>
<polygon fill="#63b8ff" stroke="#63b8ff" points="322.03,-27.19 328.95,-19.17 318.54,-21.13 322.03,-27.19"/>
</a>
</g>
</g>
<!-- Node3&#45;&gt;Node8 -->
<g id="edge7_Node000003_Node000008" class="edge">
<title>Node3&#45;&gt;Node8</title>
<g id="a_edge7_Node000003_Node000008"><a xlink:title=" ">
<path fill="none" stroke="#63b8ff" d="M277.22,-54.98C304.98,-45.61 349.57,-30.56 379.07,-20.6"/>
<polygon fill="#63b8ff" stroke="#63b8ff" points="380.47,-23.82 388.83,-17.31 378.23,-17.19 380.47,-23.82"/>
</a>
</g>
</g>
<!-- Node9 -->
<g id="Node000009" class="node">
<title>Node9</title>
<g id="a_Node000009"><a xlink:title=" ">
<polygon fill="#e0e0e0" stroke="#999999" points="299.5,-19 230.5,-19 230.5,0 299.5,0 299.5,-19"/>
<text text-anchor="middle" x="265" y="-7" font-family="Helvetica,sans-Serif" font-size="10.00">type_traits</text>
</a>
</g>
</g>
<!-- Node3&#45;&gt;Node9 -->
<g id="edge8_Node000003_Node000009" class="edge">
<title>Node3&#45;&gt;Node9</title>
<g id="a_edge8_Node000003_Node000009"><a xlink:title=" ">
<path fill="none" stroke="#63b8ff" d="M254.15,-54.75C255.87,-47.72 258.35,-37.62 260.5,-28.84"/>
<polygon fill="#63b8ff" stroke="#63b8ff" points="263.91,-29.63 262.89,-19.09 257.11,-27.97 263.91,-29.63"/>
</a>
</g>
</g>
</g>
</svg>
