<?xml version="1.0" encoding="UTF-8" standalone="no"?>
<!DOCTYPE svg PUBLIC "-//W3C//DTD SVG 1.1//EN"
 "http://www.w3.org/Graphics/SVG/1.1/DTD/svg11.dtd">
<!-- Generated by graphviz version 2.43.0 (0)
 -->
<!-- Title: guanaqo::io::csv_read Pages: 1 -->
<!--zoomable 134 -->

<svg id="main" version="1.1" xmlns="http://www.w3.org/2000/svg" xmlns:xlink="http://www.w3.org/1999/xlink" xml:space="preserve" onload="init(evt)">

<style type="text/css"><![CDATA[
.node, .edge {opacity: 0.7;}
.node.selected, .edge.selected {opacity: 1;}
.edge:hover path { stroke: red; }
.edge:hover polygon { stroke: red; fill: red; }
]]></style>

<defs>
  <circle id="rim" cx="0" cy="0" r="7"/>
  <circle id="rim2" cx="0" cy="0" r="3.5"/>
  <g id="zoomPlus">
    <use xlink:href="#rim" fill="#404040"><set attributeName="fill" to="#808080" begin="zoomplus.mouseover" end="zoomplus.mouseout"/></use>
    <path d="M-4,0h8M0,-4v8" fill="none" stroke="white" stroke-width="1.5" pointer-events="none"/>
  </g>
  <g id="zoomMin">
    <use xlink:href="#rim" fill="#404040"><set attributeName="fill" to="#808080" begin="zoomminus.mouseover" end="zoomminus.mouseout"/></use>
    <path d="M-4,0h8" fill="none" stroke="white" stroke-width="1.5" pointer-events="none"/>
  </g>
  <g id="arrowUp" transform="translate(30 24)">
    <use xlink:href="#rim"/>
    <path pointer-events="none" fill="none" stroke="white" stroke-width="1.5" d="M0,-3.0v7 M-2.5,-0.5L0,-3.0L2.5,-0.5"/>
  </g>
  <g id="arrowRight" transform="rotate(90) translate(36 -43)">
    <use xlink:href="#rim"/>
    <path pointer-events="none" fill="none" stroke="white" stroke-width="1.5" d="M0,-3.0v7 M-2.5,-0.5L0,-3.0L2.5,-0.5"/>
  </g>
  <g id="arrowDown" transform="rotate(180) translate(-30 -48)">
    <use xlink:href="#rim"/>
    <path pointer-events="none" fill="none" stroke="white" stroke-width="1.5" d="M0,-3.0v7 M-2.5,-0.5L0,-3.0L2.5,-0.5"/>
  </g>
  <g id="arrowLeft" transform="rotate(270) translate(-36 17)">
    <use xlink:href="#rim"/>
    <path pointer-events="none" fill="none" stroke="white" stroke-width="1.5" d="M0,-3.0v7 M-2.5,-0.5L0,-3.0L2.5,-0.5"/>
  </g>
  <g id="resetDef">
    <use xlink:href="#rim2" fill="#404040"><set attributeName="fill" to="#808080" begin="reset.mouseover" end="reset.mouseout"/></use>
  </g>
</defs>
<script type="application/ecmascript">
var viewWidth = 800;
var viewHeight = 134;
var sectionId = 'dynsection-6';
</script>
<script type="application/ecmascript" xlink:href="svg.min.js"/>
<svg id="graph" class="graph">
<g id="viewport">
<title>guanaqo::io::csv_read</title>
<!-- Node1 -->
<g id="Node000001" class="node">
<title>Node1</title>
<g id="a_Node000001"><a xlink:title=" ">
<polygon fill="#999999" stroke="#666666" points="123,-77.5 0,-77.5 0,-58.5 123,-58.5 123,-77.5"/>
<text text-anchor="middle" x="61.5" y="-65.5" font-family="Helvetica,sans-Serif" font-size="10.00">guanaqo::io::csv_read</text>
</a>
</g>
</g>
<!-- Node2 -->
<g id="Node000002" class="node">
<title>Node2</title>
<g id="a_Node000002"><a xlink:href="group__io.html#ga7b55c259788953b68dc075f6c3f3859a" target="_top" xlink:title=" ">
<polygon fill="white" stroke="#666666" points="282,-77.5 159,-77.5 159,-58.5 282,-58.5 282,-77.5"/>
<text text-anchor="middle" x="220.5" y="-65.5" font-family="Helvetica,sans-Serif" font-size="10.00">guanaqo::io::csv_read</text>
</a>
</g>
</g>
<!-- Node1&#45;&gt;Node2 -->
<g id="edge1_Node000001_Node000002" class="edge">
<title>Node1&#45;&gt;Node2</title>
<g id="a_edge1_Node000001_Node000002"><a xlink:title=" ">
<path fill="none" stroke="#63b8ff" d="M123.2,-68C131.64,-68 140.36,-68 148.95,-68"/>
<polygon fill="#63b8ff" stroke="#63b8ff" points="148.96,-71.5 158.96,-68 148.96,-64.5 148.96,-71.5"/>
</a>
</g>
</g>
<!-- Node3 -->
<g id="Node000003" class="node">
<title>Node3</title>
<g id="a_Node000003"><a xlink:href="structguanaqo_1_1io_1_1CSVReader.html#adc16a0a06c51a6a60fb65d04eed44fcd" target="_top" xlink:title=" ">
<polygon fill="white" stroke="#666666" points="622,-126 488,-126 488,-96 622,-96 622,-126"/>
<text text-anchor="start" x="496" y="-114" font-family="Helvetica,sans-Serif" font-size="10.00">guanaqo::io::CSVReader</text>
<text text-anchor="middle" x="555" y="-103" font-family="Helvetica,sans-Serif" font-size="10.00">::next_line</text>
</a>
</g>
</g>
<!-- Node2&#45;&gt;Node3 -->
<g id="edge2_Node000002_Node000003" class="edge">
<title>Node2&#45;&gt;Node3</title>
<g id="a_edge2_Node000002_Node000003"><a xlink:title=" ">
<path fill="none" stroke="#63b8ff" d="M254.27,-77.57C272.82,-82.62 296.53,-88.49 318,-92 370.89,-100.65 431.13,-105.41 477.51,-108.01"/>
<polygon fill="#63b8ff" stroke="#63b8ff" points="477.61,-111.52 487.78,-108.56 477.98,-104.53 477.61,-111.52"/>
</a>
</g>
</g>
<!-- Node4 -->
<g id="Node000004" class="node">
<title>Node4</title>
<g id="a_Node000004"><a xlink:href="structguanaqo_1_1io_1_1CSVReader.html#ac6ff711471364524ec918facf8059bc4" target="_top" xlink:title=" ">
<polygon fill="white" stroke="#666666" points="452,-35 318,-35 318,-5 452,-5 452,-35"/>
<text text-anchor="start" x="326" y="-23" font-family="Helvetica,sans-Serif" font-size="10.00">guanaqo::io::CSVReader</text>
<text text-anchor="middle" x="385" y="-12" font-family="Helvetica,sans-Serif" font-size="10.00">::read</text>
</a>
</g>
</g>
<!-- Node2&#45;&gt;Node4 -->
<g id="edge3_Node000002_Node000004" class="edge">
<title>Node2&#45;&gt;Node4</title>
<g id="a_edge3_Node000002_Node000004"><a xlink:title=" ">
<path fill="none" stroke="#63b8ff" d="M253.99,-58.4C273.77,-52.56 299.66,-44.91 323.12,-37.98"/>
<polygon fill="#63b8ff" stroke="#63b8ff" points="324.41,-41.25 333.01,-35.06 322.42,-34.54 324.41,-41.25"/>
</a>
</g>
</g>
<!-- Node8 -->
<g id="Node000008" class="node">
<title>Node8</title>
<g id="a_Node000008"><a xlink:href="structguanaqo_1_1io_1_1CSVReader.html#a1ec0f1dda005a6206400f818159cf09f" target="_top" xlink:title=" ">
<polygon fill="white" stroke="#666666" points="452,-83 318,-83 318,-53 452,-53 452,-83"/>
<text text-anchor="start" x="326" y="-71" font-family="Helvetica,sans-Serif" font-size="10.00">guanaqo::io::CSVReader</text>
<text text-anchor="middle" x="385" y="-60" font-family="Helvetica,sans-Serif" font-size="10.00">::skip_comments</text>
</a>
</g>
</g>
<!-- Node2&#45;&gt;Node8 -->
<g id="edge7_Node000002_Node000008" class="edge">
<title>Node2&#45;&gt;Node8</title>
<g id="a_edge7_Node000002_Node000008"><a xlink:title=" ">
<path fill="none" stroke="#63b8ff" d="M282.01,-68C290.44,-68 299.19,-68 307.86,-68"/>
<polygon fill="#63b8ff" stroke="#63b8ff" points="307.99,-71.5 317.99,-68 307.99,-64.5 307.99,-71.5"/>
</a>
</g>
</g>
<!-- Node5 -->
<g id="Node000005" class="node">
<title>Node5</title>
<g id="a_Node000005"><a xlink:href="structguanaqo_1_1io_1_1CSVReader.html#a9537b30cc2e4d7de1406c5aae39b03b7" target="_top" xlink:title=" ">
<polygon fill="white" stroke="#666666" points="622,-78 488,-78 488,-48 622,-48 622,-78"/>
<text text-anchor="start" x="496" y="-66" font-family="Helvetica,sans-Serif" font-size="10.00">guanaqo::io::CSVReader</text>
<text text-anchor="middle" x="555" y="-55" font-family="Helvetica,sans-Serif" font-size="10.00">::read_chunk</text>
</a>
</g>
</g>
<!-- Node4&#45;&gt;Node5 -->
<g id="edge4_Node000004_Node000005" class="edge">
<title>Node4&#45;&gt;Node5</title>
<g id="a_edge4_Node000004_Node000005"><a xlink:title=" ">
<path fill="none" stroke="#63b8ff" d="M444.76,-35.04C457.93,-38.41 472.02,-42.02 485.54,-45.48"/>
<polygon fill="#63b8ff" stroke="#63b8ff" points="484.72,-48.88 495.27,-47.97 486.46,-42.1 484.72,-48.88"/>
</a>
</g>
</g>
<!-- Node6 -->
<g id="Node000006" class="node">
<title>Node6</title>
<g id="a_Node000006"><a xlink:href="structguanaqo_1_1io_1_1CSVReader.html#a23247665597068315987a44467d4459a" target="_top" xlink:title=" ">
<polygon fill="white" stroke="#666666" points="622,-30 488,-30 488,0 622,0 622,-30"/>
<text text-anchor="start" x="496" y="-18" font-family="Helvetica,sans-Serif" font-size="10.00">guanaqo::io::CSVReader</text>
<text text-anchor="middle" x="555" y="-7" font-family="Helvetica,sans-Serif" font-size="10.00">::read_single</text>
</a>
</g>
</g>
<!-- Node4&#45;&gt;Node6 -->
<g id="edge5_Node000004_Node000006" class="edge">
<title>Node4&#45;&gt;Node6</title>
<g id="a_edge5_Node000004_Node000006"><a xlink:title=" ">
<path fill="none" stroke="#63b8ff" d="M452.4,-18.02C460.68,-17.78 469.2,-17.52 477.62,-17.27"/>
<polygon fill="#63b8ff" stroke="#63b8ff" points="477.92,-20.77 487.81,-16.97 477.71,-13.77 477.92,-20.77"/>
</a>
</g>
</g>
<!-- Node7 -->
<g id="Node000007" class="node">
<title>Node7</title>
<g id="a_Node000007"><a xlink:href="structguanaqo_1_1io_1_1CSVReader.html#a91ad1ccf57750d7bec9b5c830961665a" target="_top" xlink:title=" ">
<polygon fill="white" stroke="#666666" points="792,-30 658,-30 658,0 792,0 792,-30"/>
<text text-anchor="start" x="666" y="-18" font-family="Helvetica,sans-Serif" font-size="10.00">guanaqo::io::CSVReader</text>
<text text-anchor="middle" x="725" y="-7" font-family="Helvetica,sans-Serif" font-size="10.00">::strtod_ovl</text>
</a>
</g>
</g>
<!-- Node6&#45;&gt;Node7 -->
<g id="edge6_Node000006_Node000007" class="edge">
<title>Node6&#45;&gt;Node7</title>
<g id="a_edge6_Node000006_Node000007"><a xlink:title=" ">
<path fill="none" stroke="#63b8ff" d="M622.4,-15C630.68,-15 639.2,-15 647.62,-15"/>
<polygon fill="#63b8ff" stroke="#63b8ff" points="647.81,-18.5 657.81,-15 647.81,-11.5 647.81,-18.5"/>
</a>
</g>
</g>
<!-- Node8&#45;&gt;Node3 -->
<g id="edge8_Node000008_Node000003" class="edge">
<title>Node8&#45;&gt;Node3</title>
<g id="a_edge8_Node000008_Node000003"><a xlink:title=" ">
<path fill="none" stroke="#63b8ff" d="M444.76,-83.04C457.93,-86.41 472.02,-90.02 485.54,-93.48"/>
<polygon fill="#63b8ff" stroke="#63b8ff" points="484.72,-96.88 495.27,-95.97 486.46,-90.1 484.72,-96.88"/>
</a>
</g>
</g>
<!-- Node8&#45;&gt;Node5 -->
<g id="edge9_Node000008_Node000005" class="edge">
<title>Node8&#45;&gt;Node5</title>
<g id="a_edge9_Node000008_Node000005"><a xlink:title=" ">
<path fill="none" stroke="#63b8ff" d="M452.4,-66.02C460.68,-65.78 469.2,-65.52 477.62,-65.27"/>
<polygon fill="#63b8ff" stroke="#63b8ff" points="477.92,-68.77 487.81,-64.97 477.71,-61.77 477.92,-68.77"/>
</a>
</g>
</g>
</g>
</svg>

<g id="navigator" transform="translate(0 0)" fill="#404254">
  <rect fill="#f2f5e9" fill-opacity="0.5" stroke="#606060" stroke-width=".5" x="0" y="0" width="60" height="60"/>
  <use id="zoomplus" xlink:href="#zoomPlus" x="17" y="9" onmousedown="handleZoom(evt,'in')"/>
  <use id="zoomminus" xlink:href="#zoomMin" x="42" y="9" onmousedown="handleZoom(evt,'out')"/>
  <use id="reset" xlink:href="#resetDef" x="30" y="36" onmousedown="handleReset()"/>
   <use id="arrowup" xlink:href="#arrowUp" x="0" y="0" onmousedown="handlePan(0,-1)"/>
  <use id="arrowright" xlink:href="#arrowRight" x="0" y="0" onmousedown="handlePan(1,0)"/>
  <use id="arrowdown" xlink:href="#arrowDown" x="0" y="0" onmousedown="handlePan(0,1)"/>
  <use id="arrowleft" xlink:href="#arrowLeft" x="0" y="0" onmousedown="handlePan(-1,0)"/>
</g>
<svg viewBox="0 0 15 15" width="100%" height="30px" preserveAspectRatio="xMaxYMin meet">
 <g id="arrow_out" transform="scale(0.3 0.3)">
  <a xlink:href="group__io_ga6bbbe06b5fadeadd6d20822460efa6a1_cgraph_org.svg" target="_base">
   <rect id="button" ry="5" rx="5" y="6" x="6" height="38" width="38"
        fill="#f2f5e9" fill-opacity="0.5" stroke="#606060" stroke-width="1.0"/>
   <path id="arrow"
     d="M 11.500037,31.436501 C 11.940474,20.09759 22.043105,11.32322 32.158766,21.979434 L 37.068811,17.246167 C 37.068811,17.246167 37.088388,32 37.088388,32 L 22.160133,31.978069 C 22.160133,31.978069 26.997745,27.140456 26.997745,27.140456 C 18.528582,18.264221 13.291696,25.230495 11.500037,31.436501 z"
     style="fill:#404040;"/>
  </a>
 </g>
</svg>

<style type='text/css'>
<![CDATA[
[data-mouse-over-selected='false'] { opacity: 0.7; }
[data-mouse-over-selected='true']  { opacity: 1.0; }
]]>
</style>
<script type="application/ecmascript"><![CDATA[
document.addEventListener('DOMContentLoaded', (event) => {
  highlightEdges();
  highlightAdjacentNodes();
});
]]></script>
</svg>
