<?xml version="1.0" encoding="UTF-8" standalone="no"?>
<!DOCTYPE svg PUBLIC "-//W3C//DTD SVG 1.1//EN"
 "http://www.w3.org/Graphics/SVG/1.1/DTD/svg11.dtd">
<!-- Generated by graphviz version 2.43.0 (0)
 -->
<!-- Title: BLAS Wrappers Pages: 1 -->
<svg width="406pt" height="64pt"
 viewBox="0.00 0.00 406.00 64.00" xmlns="http://www.w3.org/2000/svg" xmlns:xlink="http://www.w3.org/1999/xlink">
<g id="graph0" class="graph" transform="scale(1 1) rotate(0) translate(4 60)">
<title>BLAS Wrappers</title>
<!-- Node2 -->
<g id="Node000002" class="node">
<title>Node2</title>
<g id="a_Node000002"><a xlink:href="group__linalg.html" target="_top" xlink:title="Linear algebra utilities, including dense and matrix views, conversions, BLAS wrappers,...">
<polygon fill="white" stroke="#666666" points="87,-37 0,-37 0,-18 87,-18 87,-37"/>
<text text-anchor="middle" x="43.5" y="-25" font-family="Helvetica,sans-Serif" font-size="10.00">Linear Algebra</text>
</a>
</g>
</g>
<!-- Node1 -->
<g id="Node000001" class="node">
<title>Node1</title>
<g id="a_Node000001"><a xlink:title="Convenience wrappers around BLAS and LAPACK functions.">
<polygon fill="#999999" stroke="#666666" points="215,-37 123,-37 123,-18 215,-18 215,-37"/>
<text text-anchor="middle" x="169" y="-25" font-family="Helvetica,sans-Serif" font-size="10.00">BLAS Wrappers</text>
</a>
</g>
</g>
<!-- Node2&#45;&gt;Node1 -->
<g id="edge1" class="edge">
<title>Node2&#45;&gt;Node1</title>
<path fill="none" stroke="black" d="M97.25,-27.5C105.79,-27.5 114.56,-27.5 122.89,-27.5"/>
<polygon fill="black" stroke="black" points="97,-24 87,-27.5 97,-31 97,-24"/>
</g>
<!-- Node4 -->
<g id="Node000004" class="node">
<title>Node4</title>
<g id="a_Node000004"><a xlink:href="group__linalg__blas__hl.html" target="_top" xlink:title="High&#45;level BLAS and LAPACK wrappers with MatrixView arguments.">
<polygon fill="white" stroke="#666666" points="398,-56 251,-56 251,-37 398,-37 398,-56"/>
<text text-anchor="middle" x="324.5" y="-44" font-family="Helvetica,sans-Serif" font-size="10.00">High&#45;Level BLAS Wrappers</text>
</a>
</g>
</g>
<!-- Node1&#45;&gt;Node4 -->
<g id="edge3" class="edge">
<title>Node1&#45;&gt;Node4</title>
<path fill="none" stroke="black" d="M225.21,-34.33C233.57,-35.37 242.3,-36.45 250.96,-37.52"/>
<polygon fill="black" stroke="black" points="225.58,-30.85 215.22,-33.1 224.72,-37.8 225.58,-30.85"/>
</g>
<!-- Node3 -->
<g id="Node000003" class="node">
<title>Node3</title>
<g id="a_Node000003"><a xlink:href="group__linalg__blas__ll.html" target="_top" xlink:title="Simple overloaded wrappers around BLAS and LAPACK functions.">
<polygon fill="white" stroke="#666666" points="396.5,-19 252.5,-19 252.5,0 396.5,0 396.5,-19"/>
<text text-anchor="middle" x="324.5" y="-7" font-family="Helvetica,sans-Serif" font-size="10.00">Low&#45;Level BLAS Wrappers</text>
</a>
</g>
</g>
<!-- Node1&#45;&gt;Node3 -->
<g id="edge2" class="edge">
<title>Node1&#45;&gt;Node3</title>
<path fill="none" stroke="black" d="M225.32,-21.01C234.11,-19.98 243.31,-18.9 252.39,-17.84"/>
<polygon fill="black" stroke="black" points="224.75,-17.56 215.22,-22.2 225.56,-24.51 224.75,-17.56"/>
</g>
</g>
</svg>
