<?xml version="1.0" encoding="UTF-8" standalone="no"?>
<!DOCTYPE svg PUBLIC "-//W3C//DTD SVG 1.1//EN"
 "http://www.w3.org/Graphics/SVG/1.1/DTD/svg11.dtd">
<!-- Generated by graphviz version 2.43.0 (0)
 -->
<!-- Title: blas/include/guanaqo/blas/hl&#45;blas&#45;interface.hpp Pages: 1 -->
<!--zoomable 258 -->

<svg id="main" version="1.1" xmlns="http://www.w3.org/2000/svg" xmlns:xlink="http://www.w3.org/1999/xlink" xml:space="preserve" onload="init(evt)">

<style type="text/css"><![CDATA[
.node, .edge {opacity: 0.7;}
.node.selected, .edge.selected {opacity: 1;}
.edge:hover path { stroke: red; }
.edge:hover polygon { stroke: red; fill: red; }
]]></style>

<defs>
  <circle id="rim" cx="0" cy="0" r="7"/>
  <circle id="rim2" cx="0" cy="0" r="3.5"/>
  <g id="zoomPlus">
    <use xlink:href="#rim" fill="#404040"><set attributeName="fill" to="#808080" begin="zoomplus.mouseover" end="zoomplus.mouseout"/></use>
    <path d="M-4,0h8M0,-4v8" fill="none" stroke="white" stroke-width="1.5" pointer-events="none"/>
  </g>
  <g id="zoomMin">
    <use xlink:href="#rim" fill="#404040"><set attributeName="fill" to="#808080" begin="zoomminus.mouseover" end="zoomminus.mouseout"/></use>
    <path d="M-4,0h8" fill="none" stroke="white" stroke-width="1.5" pointer-events="none"/>
  </g>
  <g id="arrowUp" transform="translate(30 24)">
    <use xlink:href="#rim"/>
    <path pointer-events="none" fill="none" stroke="white" stroke-width="1.5" d="M0,-3.0v7 M-2.5,-0.5L0,-3.0L2.5,-0.5"/>
  </g>
  <g id="arrowRight" transform="rotate(90) translate(36 -43)">
    <use xlink:href="#rim"/>
    <path pointer-events="none" fill="none" stroke="white" stroke-width="1.5" d="M0,-3.0v7 M-2.5,-0.5L0,-3.0L2.5,-0.5"/>
  </g>
  <g id="arrowDown" transform="rotate(180) translate(-30 -48)">
    <use xlink:href="#rim"/>
    <path pointer-events="none" fill="none" stroke="white" stroke-width="1.5" d="M0,-3.0v7 M-2.5,-0.5L0,-3.0L2.5,-0.5"/>
  </g>
  <g id="arrowLeft" transform="rotate(270) translate(-36 17)">
    <use xlink:href="#rim"/>
    <path pointer-events="none" fill="none" stroke="white" stroke-width="1.5" d="M0,-3.0v7 M-2.5,-0.5L0,-3.0L2.5,-0.5"/>
  </g>
  <g id="resetDef">
    <use xlink:href="#rim2" fill="#404040"><set attributeName="fill" to="#808080" begin="reset.mouseover" end="reset.mouseout"/></use>
  </g>
</defs>
<script type="application/ecmascript">
var viewWidth = 1634;
var viewHeight = 258;
var sectionId = 'dynsection-0';
</script>
<script type="application/ecmascript" xlink:href="svg.min.js"/>
<svg id="graph" class="graph">
<g id="viewport">
<title>blas/include/guanaqo/blas/hl&#45;blas&#45;interface.hpp</title>
<!-- Node1 -->
<g id="Node000001" class="node">
<title>Node1</title>
<g id="a_Node000001"><a xlink:title="This file provides simple overloaded wrappers around standard BLAS functions.">
<polygon fill="#999999" stroke="#666666" points="447.5,-250 303.5,-250 303.5,-220 447.5,-220 447.5,-250"/>
<text text-anchor="start" x="311.5" y="-238" font-family="Helvetica,sans-Serif" font-size="10.00">blas/include/guanaqo</text>
<text text-anchor="middle" x="375.5" y="-227" font-family="Helvetica,sans-Serif" font-size="10.00">/blas/hl&#45;blas&#45;interface.hpp</text>
</a>
</g>
</g>
<!-- Node2 -->
<g id="Node000002" class="node">
<title>Node2</title>
<g id="a_Node000002"><a xlink:href="assume_8hpp.html" target="_top" xlink:title="Assertion and assumption macros with debug/release semantics.">
<polygon fill="white" stroke="#666666" points="510,-184 389,-184 389,-165 510,-165 510,-184"/>
<text text-anchor="middle" x="449.5" y="-172" font-family="Helvetica,sans-Serif" font-size="10.00">guanaqo/assume.hpp</text>
</a>
</g>
</g>
<!-- Node1&#45;&gt;Node2 -->
<g id="edge1_Node000001_Node000002" class="edge">
<title>Node1&#45;&gt;Node2</title>
<g id="a_edge1_Node000001_Node000002"><a xlink:title=" ">
<path fill="none" stroke="#63b8ff" d="M393.41,-219.84C404.59,-211 418.98,-199.63 430.38,-190.62"/>
<polygon fill="#63b8ff" stroke="#63b8ff" points="432.74,-193.21 438.41,-184.27 428.4,-187.72 432.74,-193.21"/>
</a>
</g>
</g>
<!-- Node5 -->
<g id="Node000005" class="node">
<title>Node5</title>
<g id="a_Node000005"><a xlink:href="blas-interface_8hpp.html" target="_top" xlink:title="This file provides simple overloaded wrappers around standard BLAS functions.">
<polygon fill="white" stroke="#666666" points="173,-184 0,-184 0,-165 173,-165 173,-184"/>
<text text-anchor="middle" x="86.5" y="-172" font-family="Helvetica,sans-Serif" font-size="10.00">guanaqo/blas/blas&#45;interface.hpp</text>
</a>
</g>
</g>
<!-- Node1&#45;&gt;Node5 -->
<g id="edge4_Node000001_Node000005" class="edge">
<title>Node1&#45;&gt;Node5</title>
<g id="a_edge4_Node000001_Node000005"><a xlink:title=" ">
<path fill="none" stroke="#63b8ff" d="M306.28,-219.99C254.78,-209.56 185.59,-195.56 138.7,-186.07"/>
<polygon fill="#63b8ff" stroke="#63b8ff" points="139.25,-182.61 128.76,-184.05 137.86,-189.47 139.25,-182.61"/>
</a>
</g>
</g>
<!-- Node6 -->
<g id="Node000006" class="node">
<title>Node6</title>
<g id="a_Node000006"><a xlink:href="blas_8hpp.html" target="_top" xlink:title=" ">
<polygon fill="white" stroke="#666666" points="147.5,-129 21.5,-129 21.5,-110 147.5,-110 147.5,-129"/>
<text text-anchor="middle" x="84.5" y="-117" font-family="Helvetica,sans-Serif" font-size="10.00">guanaqo/blas/blas.hpp</text>
</a>
</g>
</g>
<!-- Node1&#45;&gt;Node6 -->
<g id="edge9_Node000001_Node000006" class="edge">
<title>Node1&#45;&gt;Node6</title>
<g id="a_edge9_Node000001_Node000006"><a xlink:title=" ">
<path fill="none" stroke="#63b8ff" d="M328.12,-219.9C297.89,-210.54 258.03,-197.52 223.5,-184 220.7,-182.9 151.97,-151.43 112.23,-133.21"/>
<polygon fill="#63b8ff" stroke="#63b8ff" points="113.59,-129.99 103.04,-129 110.68,-136.35 113.59,-129.99"/>
</a>
</g>
</g>
<!-- Node10 -->
<g id="Node000010" class="node">
<title>Node10</title>
<g id="a_Node000010"><a xlink:href="lapack_8hpp.html" target="_top" xlink:title="LAPACK error handling.">
<polygon fill="white" stroke="#666666" points="370.5,-184 232.5,-184 232.5,-165 370.5,-165 370.5,-184"/>
<text text-anchor="middle" x="301.5" y="-172" font-family="Helvetica,sans-Serif" font-size="10.00">guanaqo/blas/lapack.hpp</text>
</a>
</g>
</g>
<!-- Node1&#45;&gt;Node10 -->
<g id="edge10_Node000001_Node000010" class="edge">
<title>Node1&#45;&gt;Node10</title>
<g id="a_edge10_Node000001_Node000010"><a xlink:title=" ">
<path fill="none" stroke="#63b8ff" d="M357.59,-219.84C346.41,-211 332.02,-199.63 320.62,-190.62"/>
<polygon fill="#63b8ff" stroke="#63b8ff" points="322.6,-187.72 312.59,-184.27 318.26,-193.21 322.6,-187.72"/>
</a>
</g>
</g>
<!-- Node13 -->
<g id="Node000013" class="node">
<title>Node13</title>
<g id="a_Node000013"><a xlink:href="mat-view_8hpp.html" target="_top" xlink:title="Non&#45;owning matrix view.">
<polygon fill="white" stroke="#666666" points="665.5,-184 537.5,-184 537.5,-165 665.5,-165 665.5,-184"/>
<text text-anchor="middle" x="601.5" y="-172" font-family="Helvetica,sans-Serif" font-size="10.00">guanaqo/mat&#45;view.hpp</text>
</a>
</g>
</g>
<!-- Node1&#45;&gt;Node13 -->
<g id="edge16_Node000001_Node000013" class="edge">
<title>Node1&#45;&gt;Node13</title>
<g id="a_edge16_Node000001_Node000013"><a xlink:title=" ">
<path fill="none" stroke="#63b8ff" d="M429.63,-219.99C469.14,-209.76 521.97,-196.09 558.58,-186.61"/>
<polygon fill="#63b8ff" stroke="#63b8ff" points="559.65,-189.95 568.46,-184.05 557.9,-183.17 559.65,-189.95"/>
</a>
</g>
</g>
<!-- Node19 -->
<g id="Node000019" class="node">
<title>Node19</title>
<g id="a_Node000019"><a xlink:href="trace_8hpp.html" target="_top" xlink:title="Tracing logger and macros (ITT, Perfetto, or fallback).">
<polygon fill="white" stroke="#666666" points="1128,-184 1021,-184 1021,-165 1128,-165 1128,-184"/>
<text text-anchor="middle" x="1074.5" y="-172" font-family="Helvetica,sans-Serif" font-size="10.00">guanaqo/trace.hpp</text>
</a>
</g>
</g>
<!-- Node1&#45;&gt;Node19 -->
<g id="edge23_Node000001_Node000019" class="edge">
<title>Node1&#45;&gt;Node19</title>
<g id="a_edge23_Node000001_Node000019"><a xlink:title=" ">
<path fill="none" stroke="#63b8ff" d="M447.67,-227.96C584.71,-216.49 880.5,-191.74 1010.73,-180.84"/>
<polygon fill="#63b8ff" stroke="#63b8ff" points="1011.27,-184.3 1020.94,-179.98 1010.69,-177.33 1011.27,-184.3"/>
</a>
</g>
</g>
<!-- Node3 -->
<g id="Node000003" class="node">
<title>Node3</title>
<g id="a_Node000003"><a xlink:href="stringify_8h.html" target="_top" xlink:title="Stringify and token concatenation helpers.">
<polygon fill="white" stroke="#666666" points="759,-129 650,-129 650,-110 759,-110 759,-129"/>
<text text-anchor="middle" x="704.5" y="-117" font-family="Helvetica,sans-Serif" font-size="10.00">guanaqo/stringify.h</text>
</a>
</g>
</g>
<!-- Node2&#45;&gt;Node3 -->
<g id="edge2_Node000002_Node000003" class="edge">
<title>Node2&#45;&gt;Node3</title>
<g id="a_edge2_Node000002_Node000003"><a xlink:title=" ">
<path fill="none" stroke="#63b8ff" d="M490.47,-164.98C534.76,-155.78 605.44,-141.09 653.35,-131.13"/>
<polygon fill="#63b8ff" stroke="#63b8ff" points="654.13,-134.54 663.21,-129.08 652.71,-127.69 654.13,-134.54"/>
</a>
</g>
</g>
<!-- Node4 -->
<g id="Node000004" class="node">
<title>Node4</title>
<g id="a_Node000004"><a xlink:title=" ">
<polygon fill="#e0e0e0" stroke="#999999" points="445,-129 380,-129 380,-110 445,-110 445,-129"/>
<text text-anchor="middle" x="412.5" y="-117" font-family="Helvetica,sans-Serif" font-size="10.00">stdexcept</text>
</a>
</g>
</g>
<!-- Node2&#45;&gt;Node4 -->
<g id="edge3_Node000002_Node000004" class="edge">
<title>Node2&#45;&gt;Node4</title>
<g id="a_edge3_Node000002_Node000004"><a xlink:title=" ">
<path fill="none" stroke="#63b8ff" d="M443.39,-164.75C438.22,-157.34 430.65,-146.5 424.31,-137.41"/>
<polygon fill="#63b8ff" stroke="#63b8ff" points="427.09,-135.29 418.5,-129.09 421.35,-139.29 427.09,-135.29"/>
</a>
</g>
</g>
<!-- Node5&#45;&gt;Node6 -->
<g id="edge5_Node000005_Node000006" class="edge">
<title>Node5&#45;&gt;Node6</title>
<g id="a_edge5_Node000005_Node000006"><a xlink:title=" ">
<path fill="none" stroke="#63b8ff" d="M86.17,-164.75C85.91,-157.8 85.53,-147.85 85.2,-139.13"/>
<polygon fill="#63b8ff" stroke="#63b8ff" points="88.7,-138.95 84.82,-129.09 81.7,-139.21 88.7,-138.95"/>
</a>
</g>
</g>
<!-- Node7 -->
<g id="Node000007" class="node">
<title>Node7</title>
<g id="a_Node000007"><a xlink:title=" ">
<polygon fill="#e0e0e0" stroke="#999999" points="243,-74 108,-74 108,-55 243,-55 243,-74"/>
<text text-anchor="middle" x="175.5" y="-62" font-family="Helvetica,sans-Serif" font-size="10.00">guanaqo/blas/config.hpp</text>
</a>
</g>
</g>
<!-- Node6&#45;&gt;Node7 -->
<g id="edge6_Node000006_Node000007" class="edge">
<title>Node6&#45;&gt;Node7</title>
<g id="a_edge6_Node000006_Node000007"><a xlink:title=" ">
<path fill="none" stroke="#63b8ff" d="M99.12,-109.98C113.36,-101.69 135.25,-88.94 151.95,-79.22"/>
<polygon fill="#63b8ff" stroke="#63b8ff" points="153.73,-82.23 160.61,-74.17 150.21,-76.18 153.73,-82.23"/>
</a>
</g>
</g>
<!-- Node8 -->
<g id="Node000008" class="node">
<title>Node8</title>
<g id="a_Node000008"><a xlink:title=" ">
<polygon fill="#e0e0e0" stroke="#999999" points="90,-74 39,-74 39,-55 90,-55 90,-74"/>
<text text-anchor="middle" x="64.5" y="-62" font-family="Helvetica,sans-Serif" font-size="10.00">cblas.h</text>
</a>
</g>
</g>
<!-- Node6&#45;&gt;Node8 -->
<g id="edge7_Node000006_Node000008" class="edge">
<title>Node6&#45;&gt;Node8</title>
<g id="a_edge7_Node000006_Node000008"><a xlink:title=" ">
<path fill="none" stroke="#63b8ff" d="M81.2,-109.75C78.52,-102.65 74.65,-92.4 71.31,-83.56"/>
<polygon fill="#63b8ff" stroke="#63b8ff" points="74.55,-82.21 67.74,-74.09 68,-84.68 74.55,-82.21"/>
</a>
</g>
</g>
<!-- Node9 -->
<g id="Node000009" class="node">
<title>Node9</title>
<g id="a_Node000009"><a xlink:title=" ">
<polygon fill="#e0e0e0" stroke="#999999" points="386,-74 317,-74 317,-55 386,-55 386,-74"/>
<text text-anchor="middle" x="351.5" y="-62" font-family="Helvetica,sans-Serif" font-size="10.00">type_traits</text>
</a>
</g>
</g>
<!-- Node6&#45;&gt;Node9 -->
<g id="edge8_Node000006_Node000009" class="edge">
<title>Node6&#45;&gt;Node9</title>
<g id="a_edge8_Node000006_Node000009"><a xlink:title=" ">
<path fill="none" stroke="#63b8ff" d="M127.4,-109.98C176.63,-100.21 256.99,-84.26 306.92,-74.35"/>
<polygon fill="#63b8ff" stroke="#63b8ff" points="307.66,-77.77 316.79,-72.39 306.3,-70.9 307.66,-77.77"/>
</a>
</g>
</g>
<!-- Node10&#45;&gt;Node4 -->
<g id="edge13_Node000010_Node000004" class="edge">
<title>Node10&#45;&gt;Node4</title>
<g id="a_edge13_Node000010_Node000004"><a xlink:title=" ">
<path fill="none" stroke="#63b8ff" d="M319.33,-164.98C337.11,-156.5 364.65,-143.35 385.18,-133.54"/>
<polygon fill="#63b8ff" stroke="#63b8ff" points="386.83,-136.64 394.34,-129.17 383.81,-130.32 386.83,-136.64"/>
</a>
</g>
</g>
<!-- Node10&#45;&gt;Node7 -->
<g id="edge11_Node000010_Node000007" class="edge">
<title>Node10&#45;&gt;Node7</title>
<g id="a_edge11_Node000010_Node000007"><a xlink:title=" ">
<path fill="none" stroke="#63b8ff" d="M258.82,-164.99C236.83,-158.55 211.21,-147.53 194.5,-129 183.42,-116.71 178.8,-98.2 176.87,-84.33"/>
<polygon fill="#63b8ff" stroke="#63b8ff" points="180.31,-83.6 175.8,-74.01 173.35,-84.32 180.31,-83.6"/>
</a>
</g>
</g>
<!-- Node10&#45;&gt;Node9 -->
<g id="edge15_Node000010_Node000009" class="edge">
<title>Node10&#45;&gt;Node9</title>
<g id="a_edge15_Node000010_Node000009"><a xlink:title=" ">
<path fill="none" stroke="#63b8ff" d="M308.81,-164.82C315.74,-156.21 326.03,-142.4 332.5,-129 339.46,-114.57 344.47,-97.06 347.59,-84.08"/>
<polygon fill="#63b8ff" stroke="#63b8ff" points="351.07,-84.56 349.85,-74.03 344.24,-83.02 351.07,-84.56"/>
</a>
</g>
</g>
<!-- Node11 -->
<g id="Node000011" class="node">
<title>Node11</title>
<g id="a_Node000011"><a xlink:title=" ">
<polygon fill="#e0e0e0" stroke="#999999" points="261.5,-129 203.5,-129 203.5,-110 261.5,-110 261.5,-129"/>
<text text-anchor="middle" x="232.5" y="-117" font-family="Helvetica,sans-Serif" font-size="10.00">lapack.h</text>
</a>
</g>
</g>
<!-- Node10&#45;&gt;Node11 -->
<g id="edge12_Node000010_Node000011" class="edge">
<title>Node10&#45;&gt;Node11</title>
<g id="a_edge12_Node000010_Node000011"><a xlink:title=" ">
<path fill="none" stroke="#63b8ff" d="M290.41,-164.98C280.01,-157 264.24,-144.88 251.78,-135.31"/>
<polygon fill="#63b8ff" stroke="#63b8ff" points="253.85,-132.49 243.79,-129.17 249.59,-138.04 253.85,-132.49"/>
</a>
</g>
</g>
<!-- Node12 -->
<g id="Node000012" class="node">
<title>Node12</title>
<g id="a_Node000012"><a xlink:title=" ">
<polygon fill="#e0e0e0" stroke="#999999" points="323.5,-129 279.5,-129 279.5,-110 323.5,-110 323.5,-129"/>
<text text-anchor="middle" x="301.5" y="-117" font-family="Helvetica,sans-Serif" font-size="10.00">string</text>
</a>
</g>
</g>
<!-- Node10&#45;&gt;Node12 -->
<g id="edge14_Node000010_Node000012" class="edge">
<title>Node10&#45;&gt;Node12</title>
<g id="a_edge14_Node000010_Node000012"><a xlink:title=" ">
<path fill="none" stroke="#63b8ff" d="M301.5,-164.75C301.5,-157.8 301.5,-147.85 301.5,-139.13"/>
<polygon fill="#63b8ff" stroke="#63b8ff" points="305,-139.09 301.5,-129.09 298,-139.09 305,-139.09"/>
</a>
</g>
</g>
<!-- Node13&#45;&gt;Node9 -->
<g id="edge22_Node000013_Node000009" class="edge">
<title>Node13&#45;&gt;Node9</title>
<g id="a_edge22_Node000013_Node000009"><a xlink:title=" ">
<path fill="none" stroke="#63b8ff" d="M579.19,-164.89C557.03,-156.22 522.17,-142.27 492.5,-129 474.9,-121.13 471.01,-118.08 453.5,-110 429.38,-98.87 401.74,-86.86 381.33,-78.12"/>
<polygon fill="#63b8ff" stroke="#63b8ff" points="382.5,-74.82 371.93,-74.12 379.76,-81.26 382.5,-74.82"/>
</a>
</g>
</g>
<!-- Node14 -->
<g id="Node000014" class="node">
<title>Node14</title>
<g id="a_Node000014"><a xlink:title=" ">
<polygon fill="#e0e0e0" stroke="#999999" points="970.5,-129 906.5,-129 906.5,-110 970.5,-110 970.5,-129"/>
<text text-anchor="middle" x="938.5" y="-117" font-family="Helvetica,sans-Serif" font-size="10.00">algorithm</text>
</a>
</g>
</g>
<!-- Node13&#45;&gt;Node14 -->
<g id="edge17_Node000013_Node000014" class="edge">
<title>Node13&#45;&gt;Node14</title>
<g id="a_edge17_Node000013_Node000014"><a xlink:title=" ">
<path fill="none" stroke="#63b8ff" d="M665.18,-164.96C723.01,-156.97 810.88,-144.25 896.43,-129.11"/>
<polygon fill="#63b8ff" stroke="#63b8ff" points="897.07,-132.55 906.3,-127.35 895.84,-125.66 897.07,-132.55"/>
</a>
</g>
</g>
<!-- Node15 -->
<g id="Node000015" class="node">
<title>Node15</title>
<g id="a_Node000015"><a xlink:title=" ">
<polygon fill="#e0e0e0" stroke="#999999" points="553.5,-129 501.5,-129 501.5,-110 553.5,-110 553.5,-129"/>
<text text-anchor="middle" x="527.5" y="-117" font-family="Helvetica,sans-Serif" font-size="10.00">cassert</text>
</a>
</g>
</g>
<!-- Node13&#45;&gt;Node15 -->
<g id="edge18_Node000013_Node000015" class="edge">
<title>Node13&#45;&gt;Node15</title>
<g id="a_edge18_Node000013_Node000015"><a xlink:title=" ">
<path fill="none" stroke="#63b8ff" d="M589.61,-164.98C578.35,-156.92 561.21,-144.65 547.79,-135.03"/>
<polygon fill="#63b8ff" stroke="#63b8ff" points="549.77,-132.15 539.61,-129.17 545.7,-137.84 549.77,-132.15"/>
</a>
</g>
</g>
<!-- Node16 -->
<g id="Node000016" class="node">
<title>Node16</title>
<g id="a_Node000016"><a xlink:title=" ">
<polygon fill="#e0e0e0" stroke="#999999" points="631.5,-129 571.5,-129 571.5,-110 631.5,-110 631.5,-129"/>
<text text-anchor="middle" x="601.5" y="-117" font-family="Helvetica,sans-Serif" font-size="10.00">concepts</text>
</a>
</g>
</g>
<!-- Node13&#45;&gt;Node16 -->
<g id="edge19_Node000013_Node000016" class="edge">
<title>Node13&#45;&gt;Node16</title>
<g id="a_edge19_Node000013_Node000016"><a xlink:title=" ">
<path fill="none" stroke="#63b8ff" d="M601.5,-164.75C601.5,-157.8 601.5,-147.85 601.5,-139.13"/>
<polygon fill="#63b8ff" stroke="#63b8ff" points="605,-139.09 601.5,-129.09 598,-139.09 605,-139.09"/>
</a>
</g>
</g>
<!-- Node17 -->
<g id="Node000017" class="node">
<title>Node17</title>
<g id="a_Node000017"><a xlink:title=" ">
<polygon fill="#e0e0e0" stroke="#999999" points="830,-129 777,-129 777,-110 830,-110 830,-129"/>
<text text-anchor="middle" x="803.5" y="-117" font-family="Helvetica,sans-Serif" font-size="10.00">cstddef</text>
</a>
</g>
</g>
<!-- Node13&#45;&gt;Node17 -->
<g id="edge20_Node000013_Node000017" class="edge">
<title>Node13&#45;&gt;Node17</title>
<g id="a_edge20_Node000013_Node000017"><a xlink:title=" ">
<path fill="none" stroke="#63b8ff" d="M633.95,-164.98C670.25,-155.46 728.89,-140.08 766.82,-130.12"/>
<polygon fill="#63b8ff" stroke="#63b8ff" points="768.15,-133.39 776.93,-127.47 766.37,-126.62 768.15,-133.39"/>
</a>
</g>
</g>
<!-- Node18 -->
<g id="Node000018" class="node">
<title>Node18</title>
<g id="a_Node000018"><a xlink:title=" ">
<polygon fill="#e0e0e0" stroke="#999999" points="888.5,-129 848.5,-129 848.5,-110 888.5,-110 888.5,-129"/>
<text text-anchor="middle" x="868.5" y="-117" font-family="Helvetica,sans-Serif" font-size="10.00">span</text>
</a>
</g>
</g>
<!-- Node13&#45;&gt;Node18 -->
<g id="edge21_Node000013_Node000018" class="edge">
<title>Node13&#45;&gt;Node18</title>
<g id="a_edge21_Node000013_Node000018"><a xlink:title=" ">
<path fill="none" stroke="#63b8ff" d="M654.5,-164.96C702.72,-156.86 775.74,-143.75 838.5,-129 838.6,-128.98 838.7,-128.95 838.8,-128.93"/>
<polygon fill="#63b8ff" stroke="#63b8ff" points="839.41,-132.39 848.23,-126.51 837.68,-125.6 839.41,-132.39"/>
</a>
</g>
</g>
<!-- Node19&#45;&gt;Node3 -->
<g id="edge36_Node000019_Node000003" class="edge">
<title>Node19&#45;&gt;Node3</title>
<g id="a_edge36_Node000019_Node000003"><a xlink:title=" ">
<path fill="none" stroke="#63b8ff" d="M1020.7,-165.79C954.12,-156.26 840.85,-140.03 769.49,-129.81"/>
<polygon fill="#63b8ff" stroke="#63b8ff" points="769.67,-126.3 759.27,-128.35 768.67,-133.23 769.67,-126.3"/>
</a>
</g>
</g>
<!-- Node19&#45;&gt;Node14 -->
<g id="edge37_Node000019_Node000014" class="edge">
<title>Node19&#45;&gt;Node14</title>
<g id="a_edge37_Node000019_Node000014"><a xlink:title=" ">
<path fill="none" stroke="#63b8ff" d="M1052.65,-164.98C1030.38,-156.3 995.6,-142.75 970.28,-132.88"/>
<polygon fill="#63b8ff" stroke="#63b8ff" points="971.34,-129.54 960.75,-129.17 968.79,-136.06 971.34,-129.54"/>
</a>
</g>
</g>
<!-- Node19&#45;&gt;Node17 -->
<g id="edge42_Node000019_Node000017" class="edge">
<title>Node19&#45;&gt;Node17</title>
<g id="a_edge42_Node000019_Node000017"><a xlink:title=" ">
<path fill="none" stroke="#63b8ff" d="M1025.76,-164.93C980.29,-156.78 910.31,-143.87 840.11,-129.05"/>
<polygon fill="#63b8ff" stroke="#63b8ff" points="840.72,-125.6 830.21,-126.95 839.26,-132.45 840.72,-125.6"/>
</a>
</g>
</g>
<!-- Node19&#45;&gt;Node18 -->
<g id="edge38_Node000019_Node000018" class="edge">
<title>Node19&#45;&gt;Node18</title>
<g id="a_edge38_Node000019_Node000018"><a xlink:title=" ">
<path fill="none" stroke="#63b8ff" d="M1038.8,-164.95C1005,-156.77 952.62,-143.84 898.51,-129.2"/>
<polygon fill="#63b8ff" stroke="#63b8ff" points="899.32,-125.79 888.75,-126.55 897.48,-132.55 899.32,-125.79"/>
</a>
</g>
</g>
<!-- Node20 -->
<g id="Node000020" class="node">
<title>Node20</title>
<g id="a_Node000020"><a xlink:title=" ">
<polygon fill="#e0e0e0" stroke="#999999" points="1473.5,-19 1371.5,-19 1371.5,0 1473.5,0 1473.5,-19"/>
<text text-anchor="middle" x="1422.5" y="-7" font-family="Helvetica,sans-Serif" font-size="10.00">guanaqo/export.h</text>
</a>
</g>
</g>
<!-- Node19&#45;&gt;Node20 -->
<g id="edge24_Node000019_Node000020" class="edge">
<title>Node19&#45;&gt;Node20</title>
<g id="a_edge24_Node000019_Node000020"><a xlink:title=" ">
<path fill="none" stroke="#63b8ff" d="M1128.07,-173.09C1257.71,-171.54 1580.12,-164.16 1612.5,-129 1622.03,-118.64 1637.62,-87.37 1611.5,-55 1595.54,-35.22 1532.82,-23.3 1483.96,-16.85"/>
<polygon fill="#63b8ff" stroke="#63b8ff" points="1484.12,-13.34 1473.76,-15.55 1483.24,-20.29 1484.12,-13.34"/>
</a>
</g>
</g>
<!-- Node21 -->
<g id="Node000021" class="node">
<title>Node21</title>
<g id="a_Node000021"><a xlink:href="perfetto_2trace_8hpp.html" target="_top" xlink:title="Perfetto tracing macros and session helpers.">
<polygon fill="white" stroke="#666666" points="1603,-129 1454,-129 1454,-110 1603,-110 1603,-129"/>
<text text-anchor="middle" x="1528.5" y="-117" font-family="Helvetica,sans-Serif" font-size="10.00">guanaqo/perfetto/trace.hpp</text>
</a>
</g>
</g>
<!-- Node19&#45;&gt;Node21 -->
<g id="edge25_Node000019_Node000021" class="edge">
<title>Node19&#45;&gt;Node21</title>
<g id="a_edge25_Node000019_Node000021"><a xlink:title=" ">
<path fill="none" stroke="#63b8ff" d="M1128.36,-167.21C1206.81,-158.05 1353.17,-140.97 1445.47,-130.19"/>
<polygon fill="#63b8ff" stroke="#63b8ff" points="1446.09,-133.64 1455.61,-129.01 1445.28,-126.69 1446.09,-133.64"/>
</a>
</g>
</g>
<!-- Node22 -->
<g id="Node000022" class="node">
<title>Node22</title>
<g id="a_Node000022"><a xlink:href="preprocessor_8h.html" target="_top" xlink:title="Token concatenation and argument&#45;counting helpers.">
<polygon fill="white" stroke="#666666" points="1206,-74 1073,-74 1073,-55 1206,-55 1206,-74"/>
<text text-anchor="middle" x="1139.5" y="-62" font-family="Helvetica,sans-Serif" font-size="10.00">guanaqo/preprocessor.h</text>
</a>
</g>
</g>
<!-- Node19&#45;&gt;Node22 -->
<g id="edge35_Node000019_Node000022" class="edge">
<title>Node19&#45;&gt;Node22</title>
<g id="a_edge35_Node000019_Node000022"><a xlink:title=" ">
<path fill="none" stroke="#63b8ff" d="M1075.68,-164.71C1077.72,-151.9 1082.74,-127.7 1093.5,-110 1100.31,-98.81 1110.6,-88.48 1119.73,-80.6"/>
<polygon fill="#63b8ff" stroke="#63b8ff" points="1122.14,-83.15 1127.65,-74.1 1117.7,-77.74 1122.14,-83.15"/>
</a>
</g>
</g>
<!-- Node24 -->
<g id="Node000024" class="node">
<title>Node24</title>
<g id="a_Node000024"><a xlink:title=" ">
<polygon fill="#e0e0e0" stroke="#999999" points="1063.5,-19 1013.5,-19 1013.5,0 1063.5,0 1063.5,-19"/>
<text text-anchor="middle" x="1038.5" y="-7" font-family="Helvetica,sans-Serif" font-size="10.00">cstdint</text>
</a>
</g>
</g>
<!-- Node19&#45;&gt;Node24 -->
<g id="edge43_Node000019_Node000024" class="edge">
<title>Node19&#45;&gt;Node24</title>
<g id="a_edge43_Node000019_Node000024"><a xlink:title=" ">
<path fill="none" stroke="#63b8ff" d="M1058.47,-164.95C1046.09,-157.35 1029.85,-144.97 1022.5,-129 1007.22,-95.82 1020.51,-52.27 1030.31,-28.28"/>
<polygon fill="#63b8ff" stroke="#63b8ff" points="1033.56,-29.58 1034.32,-19.01 1027.13,-26.79 1033.56,-29.58"/>
</a>
</g>
</g>
<!-- Node26 -->
<g id="Node000026" class="node">
<title>Node26</title>
<g id="a_Node000026"><a xlink:title=" ">
<polygon fill="#e0e0e0" stroke="#999999" points="1220,-19 1175,-19 1175,0 1220,0 1220,-19"/>
<text text-anchor="middle" x="1197.5" y="-7" font-family="Helvetica,sans-Serif" font-size="10.00">utility</text>
</a>
</g>
</g>
<!-- Node19&#45;&gt;Node26 -->
<g id="edge39_Node000019_Node000026" class="edge">
<title>Node19&#45;&gt;Node26</title>
<g id="a_edge39_Node000019_Node000026"><a xlink:title=" ">
<path fill="none" stroke="#63b8ff" d="M1070.24,-164.74C1060.65,-143.6 1040.01,-89.01 1064.5,-55 1087.19,-23.49 1133.22,-13.97 1164.71,-11.27"/>
<polygon fill="#63b8ff" stroke="#63b8ff" points="1165.03,-14.75 1174.78,-10.59 1164.56,-7.77 1165.03,-14.75"/>
</a>
</g>
</g>
<!-- Node29 -->
<g id="Node000029" class="node">
<title>Node29</title>
<g id="a_Node000029"><a xlink:title=" ">
<polygon fill="#e0e0e0" stroke="#999999" points="1152.5,-129 1102.5,-129 1102.5,-110 1152.5,-110 1152.5,-129"/>
<text text-anchor="middle" x="1127.5" y="-117" font-family="Helvetica,sans-Serif" font-size="10.00">atomic</text>
</a>
</g>
</g>
<!-- Node19&#45;&gt;Node29 -->
<g id="edge40_Node000019_Node000029" class="edge">
<title>Node19&#45;&gt;Node29</title>
<g id="a_edge40_Node000019_Node000029"><a xlink:title=" ">
<path fill="none" stroke="#63b8ff" d="M1083.25,-164.75C1090.97,-157.03 1102.4,-145.6 1111.72,-136.28"/>
<polygon fill="#63b8ff" stroke="#63b8ff" points="1114.31,-138.64 1118.91,-129.09 1109.36,-133.69 1114.31,-138.64"/>
</a>
</g>
</g>
<!-- Node30 -->
<g id="Node000030" class="node">
<title>Node30</title>
<g id="a_Node000030"><a xlink:title=" ">
<polygon fill="#e0e0e0" stroke="#999999" points="1220.5,-129 1170.5,-129 1170.5,-110 1220.5,-110 1220.5,-129"/>
<text text-anchor="middle" x="1195.5" y="-117" font-family="Helvetica,sans-Serif" font-size="10.00">chrono</text>
</a>
</g>
</g>
<!-- Node19&#45;&gt;Node30 -->
<g id="edge41_Node000019_Node000030" class="edge">
<title>Node19&#45;&gt;Node30</title>
<g id="a_edge41_Node000019_Node000030"><a xlink:title=" ">
<path fill="none" stroke="#63b8ff" d="M1093.94,-164.98C1113.49,-156.42 1143.88,-143.11 1166.32,-133.28"/>
<polygon fill="#63b8ff" stroke="#63b8ff" points="1167.95,-136.39 1175.71,-129.17 1165.14,-129.98 1167.95,-136.39"/>
</a>
</g>
</g>
<!-- Node31 -->
<g id="Node000031" class="node">
<title>Node31</title>
<g id="a_Node000031"><a xlink:title=" ">
<polygon fill="#e0e0e0" stroke="#999999" points="1294.5,-129 1238.5,-129 1238.5,-110 1294.5,-110 1294.5,-129"/>
<text text-anchor="middle" x="1266.5" y="-117" font-family="Helvetica,sans-Serif" font-size="10.00">iomanip</text>
</a>
</g>
</g>
<!-- Node19&#45;&gt;Node31 -->
<g id="edge44_Node000019_Node000031" class="edge">
<title>Node19&#45;&gt;Node31</title>
<g id="a_edge44_Node000019_Node000031"><a xlink:title=" ">
<path fill="none" stroke="#63b8ff" d="M1105.35,-164.98C1138.87,-155.73 1192.47,-140.94 1228.55,-130.98"/>
<polygon fill="#63b8ff" stroke="#63b8ff" points="1229.52,-134.34 1238.23,-128.3 1227.66,-127.59 1229.52,-134.34"/>
</a>
</g>
</g>
<!-- Node32 -->
<g id="Node000032" class="node">
<title>Node32</title>
<g id="a_Node000032"><a xlink:title=" ">
<polygon fill="#e0e0e0" stroke="#999999" points="1370,-129 1313,-129 1313,-110 1370,-110 1370,-129"/>
<text text-anchor="middle" x="1341.5" y="-117" font-family="Helvetica,sans-Serif" font-size="10.00">ostream</text>
</a>
</g>
</g>
<!-- Node19&#45;&gt;Node32 -->
<g id="edge45_Node000019_Node000032" class="edge">
<title>Node19&#45;&gt;Node32</title>
<g id="a_edge45_Node000019_Node000032"><a xlink:title=" ">
<path fill="none" stroke="#63b8ff" d="M1120.63,-164.93C1164.76,-156.64 1233.45,-143.52 1302.67,-129.12"/>
<polygon fill="#63b8ff" stroke="#63b8ff" points="1303.81,-132.46 1312.88,-126.99 1302.38,-125.61 1303.81,-132.46"/>
</a>
</g>
</g>
<!-- Node33 -->
<g id="Node000033" class="node">
<title>Node33</title>
<g id="a_Node000033"><a xlink:title=" ">
<polygon fill="#e0e0e0" stroke="#999999" points="1436.5,-129 1388.5,-129 1388.5,-110 1436.5,-110 1436.5,-129"/>
<text text-anchor="middle" x="1412.5" y="-117" font-family="Helvetica,sans-Serif" font-size="10.00">thread</text>
</a>
</g>
</g>
<!-- Node19&#45;&gt;Node33 -->
<g id="edge46_Node000019_Node000033" class="edge">
<title>Node19&#45;&gt;Node33</title>
<g id="a_edge46_Node000019_Node000033"><a xlink:title=" ">
<path fill="none" stroke="#63b8ff" d="M1128.24,-167.43C1187.32,-160.36 1285.18,-147.49 1378.53,-129"/>
<polygon fill="#63b8ff" stroke="#63b8ff" points="1379.3,-132.42 1388.42,-127.02 1377.93,-125.56 1379.3,-132.42"/>
</a>
</g>
</g>
<!-- Node21&#45;&gt;Node20 -->
<g id="edge26_Node000021_Node000020" class="edge">
<title>Node21&#45;&gt;Node20</title>
<g id="a_edge26_Node000021_Node000020"><a xlink:title=" ">
<path fill="none" stroke="#63b8ff" d="M1498.39,-109.87C1479.55,-103.01 1456.16,-91.6 1441.5,-74 1431.03,-61.43 1426.33,-43.23 1424.22,-29.54"/>
<polygon fill="#63b8ff" stroke="#63b8ff" points="1427.66,-28.82 1422.99,-19.32 1420.71,-29.66 1427.66,-28.82"/>
</a>
</g>
</g>
<!-- Node21&#45;&gt;Node22 -->
<g id="edge27_Node000021_Node000022" class="edge">
<title>Node21&#45;&gt;Node22</title>
<g id="a_edge27_Node000021_Node000022"><a xlink:title=" ">
<path fill="none" stroke="#63b8ff" d="M1466,-109.98C1396.77,-100.55 1285.3,-85.36 1212.22,-75.41"/>
<polygon fill="#63b8ff" stroke="#63b8ff" points="1212.55,-71.92 1202.17,-74.04 1211.6,-78.86 1212.55,-71.92"/>
</a>
</g>
</g>
<!-- Node23 -->
<g id="Node000023" class="node">
<title>Node23</title>
<g id="a_Node000023"><a xlink:href="counters_8hpp.html" target="_top" xlink:title="Performance counter snapshots and scoped collectors.">
<polygon fill="white" stroke="#666666" points="1388,-74 1239,-74 1239,-55 1388,-55 1388,-74"/>
<text text-anchor="middle" x="1313.5" y="-62" font-family="Helvetica,sans-Serif" font-size="10.00">guanaqo/pcm/counters.hpp</text>
</a>
</g>
</g>
<!-- Node21&#45;&gt;Node23 -->
<g id="edge28_Node000021_Node000023" class="edge">
<title>Node21&#45;&gt;Node23</title>
<g id="a_edge28_Node000021_Node000023"><a xlink:title=" ">
<path fill="none" stroke="#63b8ff" d="M1493.96,-109.98C1457.08,-100.89 1398.51,-86.46 1358.16,-76.51"/>
<polygon fill="#63b8ff" stroke="#63b8ff" points="1358.86,-73.08 1348.31,-74.08 1357.19,-79.87 1358.86,-73.08"/>
</a>
</g>
</g>
<!-- Node27 -->
<g id="Node000027" class="node">
<title>Node27</title>
<g id="a_Node000027"><a xlink:title=" ">
<polygon fill="#e0e0e0" stroke="#999999" points="1602,-74 1537,-74 1537,-55 1602,-55 1602,-74"/>
<text text-anchor="middle" x="1569.5" y="-62" font-family="Helvetica,sans-Serif" font-size="10.00">perfetto.h</text>
</a>
</g>
</g>
<!-- Node21&#45;&gt;Node27 -->
<g id="edge33_Node000021_Node000027" class="edge">
<title>Node21&#45;&gt;Node27</title>
<g id="a_edge33_Node000021_Node000027"><a xlink:title=" ">
<path fill="none" stroke="#63b8ff" d="M1535.27,-109.75C1541.06,-102.26 1549.56,-91.28 1556.64,-82.13"/>
<polygon fill="#63b8ff" stroke="#63b8ff" points="1559.51,-84.14 1562.86,-74.09 1553.97,-79.86 1559.51,-84.14"/>
</a>
</g>
</g>
<!-- Node28 -->
<g id="Node000028" class="node">
<title>Node28</title>
<g id="a_Node000028"><a xlink:title=" ">
<polygon fill="#e0e0e0" stroke="#999999" points="1518.5,-74 1450.5,-74 1450.5,-55 1518.5,-55 1518.5,-74"/>
<text text-anchor="middle" x="1484.5" y="-62" font-family="Helvetica,sans-Serif" font-size="10.00">filesystem</text>
</a>
</g>
</g>
<!-- Node21&#45;&gt;Node28 -->
<g id="edge34_Node000021_Node000028" class="edge">
<title>Node21&#45;&gt;Node28</title>
<g id="a_edge34_Node000021_Node000028"><a xlink:title=" ">
<path fill="none" stroke="#63b8ff" d="M1521.23,-109.75C1514.96,-102.18 1505.71,-91.05 1498.07,-81.84"/>
<polygon fill="#63b8ff" stroke="#63b8ff" points="1500.71,-79.55 1491.63,-74.09 1495.33,-84.02 1500.71,-79.55"/>
</a>
</g>
</g>
<!-- Node23&#45;&gt;Node20 -->
<g id="edge29_Node000023_Node000020" class="edge">
<title>Node23&#45;&gt;Node20</title>
<g id="a_edge29_Node000023_Node000020"><a xlink:title=" ">
<path fill="none" stroke="#63b8ff" d="M1331.01,-54.98C1348.47,-46.5 1375.51,-33.35 1395.67,-23.54"/>
<polygon fill="#63b8ff" stroke="#63b8ff" points="1397.21,-26.69 1404.67,-19.17 1394.14,-20.4 1397.21,-26.69"/>
</a>
</g>
</g>
<!-- Node23&#45;&gt;Node24 -->
<g id="edge30_Node000023_Node000024" class="edge">
<title>Node23&#45;&gt;Node24</title>
<g id="a_edge30_Node000023_Node000024"><a xlink:title=" ">
<path fill="none" stroke="#63b8ff" d="M1269.32,-54.98C1214.89,-44.49 1123.52,-26.88 1073.62,-17.27"/>
<polygon fill="#63b8ff" stroke="#63b8ff" points="1074.12,-13.8 1063.63,-15.34 1072.79,-20.67 1074.12,-13.8"/>
</a>
</g>
</g>
<!-- Node25 -->
<g id="Node000025" class="node">
<title>Node25</title>
<g id="a_Node000025"><a xlink:title=" ">
<polygon fill="#e0e0e0" stroke="#999999" points="1342.5,-19 1284.5,-19 1284.5,0 1342.5,0 1342.5,-19"/>
<text text-anchor="middle" x="1313.5" y="-7" font-family="Helvetica,sans-Serif" font-size="10.00">memory</text>
</a>
</g>
</g>
<!-- Node23&#45;&gt;Node25 -->
<g id="edge31_Node000023_Node000025" class="edge">
<title>Node23&#45;&gt;Node25</title>
<g id="a_edge31_Node000023_Node000025"><a xlink:title=" ">
<path fill="none" stroke="#63b8ff" d="M1313.5,-54.75C1313.5,-47.8 1313.5,-37.85 1313.5,-29.13"/>
<polygon fill="#63b8ff" stroke="#63b8ff" points="1317,-29.09 1313.5,-19.09 1310,-29.09 1317,-29.09"/>
</a>
</g>
</g>
<!-- Node23&#45;&gt;Node26 -->
<g id="edge32_Node000023_Node000026" class="edge">
<title>Node23&#45;&gt;Node26</title>
<g id="a_edge32_Node000023_Node000026"><a xlink:title=" ">
<path fill="none" stroke="#63b8ff" d="M1294.86,-54.98C1276.2,-46.46 1247.25,-33.23 1225.76,-23.41"/>
<polygon fill="#63b8ff" stroke="#63b8ff" points="1227.03,-20.14 1216.48,-19.17 1224.12,-26.51 1227.03,-20.14"/>
</a>
</g>
</g>
</g>
</svg>

<g id="navigator" transform="translate(0 0)" fill="#404254">
  <rect fill="#f2f5e9" fill-opacity="0.5" stroke="#606060" stroke-width=".5" x="0" y="0" width="60" height="60"/>
  <use id="zoomplus" xlink:href="#zoomPlus" x="17" y="9" onmousedown="handleZoom(evt,'in')"/>
  <use id="zoomminus" xlink:href="#zoomMin" x="42" y="9" onmousedown="handleZoom(evt,'out')"/>
  <use id="reset" xlink:href="#resetDef" x="30" y="36" onmousedown="handleReset()"/>
   <use id="arrowup" xlink:href="#arrowUp" x="0" y="0" onmousedown="handlePan(0,-1)"/>
  <use id="arrowright" xlink:href="#arrowRight" x="0" y="0" onmousedown="handlePan(1,0)"/>
  <use id="arrowdown" xlink:href="#arrowDown" x="0" y="0" onmousedown="handlePan(0,1)"/>
  <use id="arrowleft" xlink:href="#arrowLeft" x="0" y="0" onmousedown="handlePan(-1,0)"/>
</g>
<svg viewBox="0 0 15 15" width="100%" height="30px" preserveAspectRatio="xMaxYMin meet">
 <g id="arrow_out" transform="scale(0.3 0.3)">
  <a xlink:href="hl-blas-interface_8hpp__incl_org.svg" target="_base">
   <rect id="button" ry="5" rx="5" y="6" x="6" height="38" width="38"
        fill="#f2f5e9" fill-opacity="0.5" stroke="#606060" stroke-width="1.0"/>
   <path id="arrow"
     d="M 11.500037,31.436501 C 11.940474,20.09759 22.043105,11.32322 32.158766,21.979434 L 37.068811,17.246167 C 37.068811,17.246167 37.088388,32 37.088388,32 L 22.160133,31.978069 C 22.160133,31.978069 26.997745,27.140456 26.997745,27.140456 C 18.528582,18.264221 13.291696,25.230495 11.500037,31.436501 z"
     style="fill:#404040;"/>
  </a>
 </g>
</svg>

<style type='text/css'>
<![CDATA[
[data-mouse-over-selected='false'] { opacity: 0.7; }
[data-mouse-over-selected='true']  { opacity: 1.0; }
]]>
</style>
<script type="application/ecmascript"><![CDATA[
document.addEventListener('DOMContentLoaded', (event) => {
  highlightEdges();
  highlightAdjacentNodes();
});
]]></script>
</svg>
