<?xml version="1.0" encoding="UTF-8" standalone="no"?>
<!DOCTYPE svg PUBLIC "-//W3C//DTD SVG 1.1//EN"
 "http://www.w3.org/Graphics/SVG/1.1/DTD/svg11.dtd">
<!-- Generated by graphviz version 2.43.0 (0)
 -->
<!-- Title: blas/include/guanaqo/blas/hl&#45;blas&#45;interface.hpp Pages: 1 -->
<svg width="1698pt" height="258pt"
 viewBox="0.00 0.00 1697.50 258.00" xmlns="http://www.w3.org/2000/svg" xmlns:xlink="http://www.w3.org/1999/xlink">
<g id="graph0" class="graph" transform="scale(1 1) rotate(0) translate(4 254)">
<title>blas/include/guanaqo/blas/hl&#45;blas&#45;interface.hpp</title>
<!-- Node1 -->
<g id="Node000001" class="node">
<title>Node1</title>
<g id="a_Node000001"><a xlink:title="This file provides simple overloaded wrappers around standard BLAS functions.">
<polygon fill="#999999" stroke="#666666" points="492.5,-250 348.5,-250 348.5,-220 492.5,-220 492.5,-250"/>
<text text-anchor="start" x="356.5" y="-238" font-family="Helvetica,sans-Serif" font-size="10.00">blas/include/guanaqo</text>
<text text-anchor="middle" x="420.5" y="-227" font-family="Helvetica,sans-Serif" font-size="10.00">/blas/hl&#45;blas&#45;interface.hpp</text>
</a>
</g>
</g>
<!-- Node2 -->
<g id="Node000002" class="node">
<title>Node2</title>
<g id="a_Node000002"><a xlink:href="assume_8hpp.html" target="_top" xlink:title="Assertion and assumption macros with debug/release semantics.">
<polygon fill="white" stroke="#666666" points="564,-184 443,-184 443,-165 564,-165 564,-184"/>
<text text-anchor="middle" x="503.5" y="-172" font-family="Helvetica,sans-Serif" font-size="10.00">guanaqo/assume.hpp</text>
</a>
</g>
</g>
<!-- Node1&#45;&gt;Node2 -->
<g id="edge1_Node000001_Node000002" class="edge">
<title>Node1&#45;&gt;Node2</title>
<g id="a_edge1_Node000001_Node000002"><a xlink:title=" ">
<path fill="none" stroke="#63b8ff" d="M440.59,-219.84C453.38,-210.83 469.9,-199.18 482.8,-190.09"/>
<polygon fill="#63b8ff" stroke="#63b8ff" points="484.91,-192.89 491.06,-184.27 480.87,-187.17 484.91,-192.89"/>
</a>
</g>
</g>
<!-- Node5 -->
<g id="Node000005" class="node">
<title>Node5</title>
<g id="a_Node000005"><a xlink:href="blas-interface_8hpp.html" target="_top" xlink:title="This file provides simple overloaded wrappers around standard BLAS functions.">
<polygon fill="white" stroke="#666666" points="425,-184 252,-184 252,-165 425,-165 425,-184"/>
<text text-anchor="middle" x="338.5" y="-172" font-family="Helvetica,sans-Serif" font-size="10.00">guanaqo/blas/blas&#45;interface.hpp</text>
</a>
</g>
</g>
<!-- Node1&#45;&gt;Node5 -->
<g id="edge4_Node000001_Node000005" class="edge">
<title>Node1&#45;&gt;Node5</title>
<g id="a_edge4_Node000001_Node000005"><a xlink:title=" ">
<path fill="none" stroke="#63b8ff" d="M400.65,-219.84C388.02,-210.83 371.7,-199.18 358.95,-190.09"/>
<polygon fill="#63b8ff" stroke="#63b8ff" points="360.96,-187.22 350.79,-184.27 356.9,-192.92 360.96,-187.22"/>
</a>
</g>
</g>
<!-- Node6 -->
<g id="Node000006" class="node">
<title>Node6</title>
<g id="a_Node000006"><a xlink:href="blas_8hpp.html" target="_top" xlink:title=" ">
<polygon fill="white" stroke="#666666" points="323.5,-129 197.5,-129 197.5,-110 323.5,-110 323.5,-129"/>
<text text-anchor="middle" x="260.5" y="-117" font-family="Helvetica,sans-Serif" font-size="10.00">guanaqo/blas/blas.hpp</text>
</a>
</g>
</g>
<!-- Node1&#45;&gt;Node6 -->
<g id="edge9_Node000001_Node000006" class="edge">
<title>Node1&#45;&gt;Node6</title>
<g id="a_edge9_Node000001_Node000006"><a xlink:title=" ">
<path fill="none" stroke="#63b8ff" d="M348.04,-222.72C304.73,-214.32 255.63,-201.33 242.5,-184 232.27,-170.5 239.86,-151.4 248.1,-137.69"/>
<polygon fill="#63b8ff" stroke="#63b8ff" points="251.13,-139.46 253.7,-129.18 245.28,-135.61 251.13,-139.46"/>
</a>
</g>
</g>
<!-- Node10 -->
<g id="Node000010" class="node">
<title>Node10</title>
<g id="a_Node000010"><a xlink:href="lapack_8hpp.html" target="_top" xlink:title="LAPACK error handling.">
<polygon fill="white" stroke="#666666" points="192.5,-184 54.5,-184 54.5,-165 192.5,-165 192.5,-184"/>
<text text-anchor="middle" x="123.5" y="-172" font-family="Helvetica,sans-Serif" font-size="10.00">guanaqo/blas/lapack.hpp</text>
</a>
</g>
</g>
<!-- Node1&#45;&gt;Node10 -->
<g id="edge10_Node000001_Node000010" class="edge">
<title>Node1&#45;&gt;Node10</title>
<g id="a_edge10_Node000001_Node000010"><a xlink:title=" ">
<path fill="none" stroke="#63b8ff" d="M349.36,-219.99C296.33,-209.54 225.04,-195.5 176.84,-186.01"/>
<polygon fill="#63b8ff" stroke="#63b8ff" points="177.41,-182.55 166.93,-184.05 176.06,-189.42 177.41,-182.55"/>
</a>
</g>
</g>
<!-- Node13 -->
<g id="Node000013" class="node">
<title>Node13</title>
<g id="a_Node000013"><a xlink:href="mat-view_8hpp.html" target="_top" xlink:title="Non&#45;owning matrix view.">
<polygon fill="white" stroke="#666666" points="710.5,-184 582.5,-184 582.5,-165 710.5,-165 710.5,-184"/>
<text text-anchor="middle" x="646.5" y="-172" font-family="Helvetica,sans-Serif" font-size="10.00">guanaqo/mat&#45;view.hpp</text>
</a>
</g>
</g>
<!-- Node1&#45;&gt;Node13 -->
<g id="edge16_Node000001_Node000013" class="edge">
<title>Node1&#45;&gt;Node13</title>
<g id="a_edge16_Node000001_Node000013"><a xlink:title=" ">
<path fill="none" stroke="#63b8ff" d="M474.63,-219.99C514.14,-209.76 566.97,-196.09 603.58,-186.61"/>
<polygon fill="#63b8ff" stroke="#63b8ff" points="604.65,-189.95 613.46,-184.05 602.9,-183.17 604.65,-189.95"/>
</a>
</g>
</g>
<!-- Node19 -->
<g id="Node000019" class="node">
<title>Node19</title>
<g id="a_Node000019"><a xlink:href="trace_8hpp.html" target="_top" xlink:title="Tracing logger and macros (ITT, Perfetto, or fallback).">
<polygon fill="white" stroke="#666666" points="1192,-184 1085,-184 1085,-165 1192,-165 1192,-184"/>
<text text-anchor="middle" x="1138.5" y="-172" font-family="Helvetica,sans-Serif" font-size="10.00">guanaqo/trace.hpp</text>
</a>
</g>
</g>
<!-- Node1&#45;&gt;Node19 -->
<g id="edge23_Node000001_Node000019" class="edge">
<title>Node1&#45;&gt;Node19</title>
<g id="a_edge23_Node000001_Node000019"><a xlink:title=" ">
<path fill="none" stroke="#63b8ff" d="M492.63,-228.12C633,-216.69 940.8,-191.61 1074.45,-180.72"/>
<polygon fill="#63b8ff" stroke="#63b8ff" points="1074.85,-184.2 1084.54,-179.9 1074.29,-177.22 1074.85,-184.2"/>
</a>
</g>
</g>
<!-- Node3 -->
<g id="Node000003" class="node">
<title>Node3</title>
<g id="a_Node000003"><a xlink:href="stringify_8h.html" target="_top" xlink:title="Stringify and token concatenation helpers.">
<polygon fill="white" stroke="#666666" points="725,-129 616,-129 616,-110 725,-110 725,-129"/>
<text text-anchor="middle" x="670.5" y="-117" font-family="Helvetica,sans-Serif" font-size="10.00">guanaqo/stringify.h</text>
</a>
</g>
</g>
<!-- Node2&#45;&gt;Node3 -->
<g id="edge2_Node000002_Node000003" class="edge">
<title>Node2&#45;&gt;Node3</title>
<g id="a_edge2_Node000002_Node000003"><a xlink:title=" ">
<path fill="none" stroke="#63b8ff" d="M530.33,-164.98C558.37,-156.09 602.55,-142.07 633.8,-132.15"/>
<polygon fill="#63b8ff" stroke="#63b8ff" points="634.99,-135.44 643.46,-129.08 632.87,-128.77 634.99,-135.44"/>
</a>
</g>
</g>
<!-- Node4 -->
<g id="Node000004" class="node">
<title>Node4</title>
<g id="a_Node000004"><a xlink:title=" ">
<polygon fill="#e0e0e0" stroke="#999999" points="407,-129 342,-129 342,-110 407,-110 407,-129"/>
<text text-anchor="middle" x="374.5" y="-117" font-family="Helvetica,sans-Serif" font-size="10.00">stdexcept</text>
</a>
</g>
</g>
<!-- Node2&#45;&gt;Node4 -->
<g id="edge3_Node000002_Node000004" class="edge">
<title>Node2&#45;&gt;Node4</title>
<g id="a_edge3_Node000002_Node000004"><a xlink:title=" ">
<path fill="none" stroke="#63b8ff" d="M482.77,-164.98C461.74,-156.34 428.95,-142.87 404.96,-133.02"/>
<polygon fill="#63b8ff" stroke="#63b8ff" points="406.18,-129.73 395.6,-129.17 403.52,-136.21 406.18,-129.73"/>
</a>
</g>
</g>
<!-- Node5&#45;&gt;Node6 -->
<g id="edge5_Node000005_Node000006" class="edge">
<title>Node5&#45;&gt;Node6</title>
<g id="a_edge5_Node000005_Node000006"><a xlink:title=" ">
<path fill="none" stroke="#63b8ff" d="M325.97,-164.98C314.1,-156.92 296.04,-144.65 281.89,-135.03"/>
<polygon fill="#63b8ff" stroke="#63b8ff" points="283.5,-131.9 273.26,-129.17 279.56,-137.69 283.5,-131.9"/>
</a>
</g>
</g>
<!-- Node7 -->
<g id="Node000007" class="node">
<title>Node7</title>
<g id="a_Node000007"><a xlink:title=" ">
<polygon fill="#e0e0e0" stroke="#999999" points="135,-74 0,-74 0,-55 135,-55 135,-74"/>
<text text-anchor="middle" x="67.5" y="-62" font-family="Helvetica,sans-Serif" font-size="10.00">guanaqo/blas/config.hpp</text>
</a>
</g>
</g>
<!-- Node6&#45;&gt;Node7 -->
<g id="edge6_Node000006_Node000007" class="edge">
<title>Node6&#45;&gt;Node7</title>
<g id="a_edge6_Node000006_Node000007"><a xlink:title=" ">
<path fill="none" stroke="#63b8ff" d="M229.49,-109.98C196.67,-100.97 144.7,-86.7 108.51,-76.76"/>
<polygon fill="#63b8ff" stroke="#63b8ff" points="109.32,-73.36 98.75,-74.08 107.47,-80.11 109.32,-73.36"/>
</a>
</g>
</g>
<!-- Node8 -->
<g id="Node000008" class="node">
<title>Node8</title>
<g id="a_Node000008"><a xlink:title=" ">
<polygon fill="#e0e0e0" stroke="#999999" points="325,-74 274,-74 274,-55 325,-55 325,-74"/>
<text text-anchor="middle" x="299.5" y="-62" font-family="Helvetica,sans-Serif" font-size="10.00">cblas.h</text>
</a>
</g>
</g>
<!-- Node6&#45;&gt;Node8 -->
<g id="edge7_Node000006_Node000008" class="edge">
<title>Node6&#45;&gt;Node8</title>
<g id="a_edge7_Node000006_Node000008"><a xlink:title=" ">
<path fill="none" stroke="#63b8ff" d="M266.94,-109.75C272.39,-102.34 280.36,-91.5 287.06,-82.41"/>
<polygon fill="#63b8ff" stroke="#63b8ff" points="290.07,-84.22 293.18,-74.09 284.43,-80.07 290.07,-84.22"/>
</a>
</g>
</g>
<!-- Node9 -->
<g id="Node000009" class="node">
<title>Node9</title>
<g id="a_Node000009"><a xlink:title=" ">
<polygon fill="#e0e0e0" stroke="#999999" points="256,-74 187,-74 187,-55 256,-55 256,-74"/>
<text text-anchor="middle" x="221.5" y="-62" font-family="Helvetica,sans-Serif" font-size="10.00">type_traits</text>
</a>
</g>
</g>
<!-- Node6&#45;&gt;Node9 -->
<g id="edge8_Node000006_Node000009" class="edge">
<title>Node6&#45;&gt;Node9</title>
<g id="a_edge8_Node000006_Node000009"><a xlink:title=" ">
<path fill="none" stroke="#63b8ff" d="M254.06,-109.75C248.61,-102.34 240.64,-91.5 233.94,-82.41"/>
<polygon fill="#63b8ff" stroke="#63b8ff" points="236.57,-80.07 227.82,-74.09 230.93,-84.22 236.57,-80.07"/>
</a>
</g>
</g>
<!-- Node10&#45;&gt;Node4 -->
<g id="edge13_Node000010_Node000004" class="edge">
<title>Node10&#45;&gt;Node4</title>
<g id="a_edge13_Node000010_Node000004"><a xlink:title=" ">
<path fill="none" stroke="#63b8ff" d="M163.83,-164.98C209.92,-155.25 285.03,-139.39 332.01,-129.47"/>
<polygon fill="#63b8ff" stroke="#63b8ff" points="332.81,-132.88 341.87,-127.39 331.36,-126.03 332.81,-132.88"/>
</a>
</g>
</g>
<!-- Node10&#45;&gt;Node7 -->
<g id="edge11_Node000010_Node000007" class="edge">
<title>Node10&#45;&gt;Node7</title>
<g id="a_edge11_Node000010_Node000007"><a xlink:title=" ">
<path fill="none" stroke="#63b8ff" d="M72.91,-164.94C52.1,-158.65 29.99,-147.78 17.5,-129 5.68,-111.23 25.56,-92.15 43.64,-79.6"/>
<polygon fill="#63b8ff" stroke="#63b8ff" points="45.77,-82.4 52.23,-74 41.94,-76.54 45.77,-82.4"/>
</a>
</g>
</g>
<!-- Node10&#45;&gt;Node9 -->
<g id="edge15_Node000010_Node000009" class="edge">
<title>Node10&#45;&gt;Node9</title>
<g id="a_edge15_Node000010_Node000009"><a xlink:title=" ">
<path fill="none" stroke="#63b8ff" d="M99.37,-164.86C71.86,-153.67 32.83,-132.86 50.5,-110 65.85,-90.14 131.44,-77.49 176.77,-70.94"/>
<polygon fill="#63b8ff" stroke="#63b8ff" points="177.26,-74.41 186.68,-69.56 176.29,-67.48 177.26,-74.41"/>
</a>
</g>
</g>
<!-- Node11 -->
<g id="Node000011" class="node">
<title>Node11</title>
<g id="a_Node000011"><a xlink:title=" ">
<polygon fill="#e0e0e0" stroke="#999999" points="117.5,-129 59.5,-129 59.5,-110 117.5,-110 117.5,-129"/>
<text text-anchor="middle" x="88.5" y="-117" font-family="Helvetica,sans-Serif" font-size="10.00">lapack.h</text>
</a>
</g>
</g>
<!-- Node10&#45;&gt;Node11 -->
<g id="edge12_Node000010_Node000011" class="edge">
<title>Node10&#45;&gt;Node11</title>
<g id="a_edge12_Node000010_Node000011"><a xlink:title=" ">
<path fill="none" stroke="#63b8ff" d="M117.72,-164.75C112.88,-157.42 105.82,-146.73 99.86,-137.7"/>
<polygon fill="#63b8ff" stroke="#63b8ff" points="102.6,-135.5 94.17,-129.09 96.76,-139.36 102.6,-135.5"/>
</a>
</g>
</g>
<!-- Node12 -->
<g id="Node000012" class="node">
<title>Node12</title>
<g id="a_Node000012"><a xlink:title=" ">
<polygon fill="#e0e0e0" stroke="#999999" points="179.5,-129 135.5,-129 135.5,-110 179.5,-110 179.5,-129"/>
<text text-anchor="middle" x="157.5" y="-117" font-family="Helvetica,sans-Serif" font-size="10.00">string</text>
</a>
</g>
</g>
<!-- Node10&#45;&gt;Node12 -->
<g id="edge14_Node000010_Node000012" class="edge">
<title>Node10&#45;&gt;Node12</title>
<g id="a_edge14_Node000010_Node000012"><a xlink:title=" ">
<path fill="none" stroke="#63b8ff" d="M129.11,-164.75C133.82,-157.42 140.67,-146.73 146.47,-137.7"/>
<polygon fill="#63b8ff" stroke="#63b8ff" points="149.54,-139.4 151.99,-129.09 143.64,-135.62 149.54,-139.4"/>
</a>
</g>
</g>
<!-- Node13&#45;&gt;Node9 -->
<g id="edge22_Node000013_Node000009" class="edge">
<title>Node13&#45;&gt;Node9</title>
<g id="a_edge22_Node000013_Node000009"><a xlink:title=" ">
<path fill="none" stroke="#63b8ff" d="M620.46,-164.96C595.53,-156.57 557.01,-143 524.5,-129 507.16,-121.53 504.47,-115.8 486.5,-110 394.44,-80.29 364.78,-90.94 266.29,-74.23"/>
<polygon fill="#63b8ff" stroke="#63b8ff" points="266.67,-70.74 256.21,-72.47 265.46,-77.64 266.67,-70.74"/>
</a>
</g>
</g>
<!-- Node14 -->
<g id="Node000014" class="node">
<title>Node14</title>
<g id="a_Node000014"><a xlink:title=" ">
<polygon fill="#e0e0e0" stroke="#999999" points="597.5,-129 533.5,-129 533.5,-110 597.5,-110 597.5,-129"/>
<text text-anchor="middle" x="565.5" y="-117" font-family="Helvetica,sans-Serif" font-size="10.00">algorithm</text>
</a>
</g>
</g>
<!-- Node13&#45;&gt;Node14 -->
<g id="edge17_Node000013_Node000014" class="edge">
<title>Node13&#45;&gt;Node14</title>
<g id="a_edge17_Node000013_Node000014"><a xlink:title=" ">
<path fill="none" stroke="#63b8ff" d="M633.49,-164.98C621.04,-156.84 602.04,-144.41 587.29,-134.76"/>
<polygon fill="#63b8ff" stroke="#63b8ff" points="589.04,-131.72 578.75,-129.17 585.2,-137.57 589.04,-131.72"/>
</a>
</g>
</g>
<!-- Node15 -->
<g id="Node000015" class="node">
<title>Node15</title>
<g id="a_Node000015"><a xlink:title=" ">
<polygon fill="#e0e0e0" stroke="#999999" points="477.5,-129 425.5,-129 425.5,-110 477.5,-110 477.5,-129"/>
<text text-anchor="middle" x="451.5" y="-117" font-family="Helvetica,sans-Serif" font-size="10.00">cassert</text>
</a>
</g>
</g>
<!-- Node13&#45;&gt;Node15 -->
<g id="edge18_Node000013_Node000015" class="edge">
<title>Node13&#45;&gt;Node15</title>
<g id="a_edge18_Node000013_Node000015"><a xlink:title=" ">
<path fill="none" stroke="#63b8ff" d="M615.17,-164.98C580.33,-155.52 524.16,-140.25 487.53,-130.29"/>
<polygon fill="#63b8ff" stroke="#63b8ff" points="488.32,-126.88 477.75,-127.63 486.48,-133.64 488.32,-126.88"/>
</a>
</g>
</g>
<!-- Node16 -->
<g id="Node000016" class="node">
<title>Node16</title>
<g id="a_Node000016"><a xlink:title=" ">
<polygon fill="#e0e0e0" stroke="#999999" points="861.5,-129 801.5,-129 801.5,-110 861.5,-110 861.5,-129"/>
<text text-anchor="middle" x="831.5" y="-117" font-family="Helvetica,sans-Serif" font-size="10.00">concepts</text>
</a>
</g>
</g>
<!-- Node13&#45;&gt;Node16 -->
<g id="edge19_Node000013_Node000016" class="edge">
<title>Node13&#45;&gt;Node16</title>
<g id="a_edge19_Node000013_Node000016"><a xlink:title=" ">
<path fill="none" stroke="#63b8ff" d="M676.22,-164.98C707.55,-156.01 757.07,-141.82 791.74,-131.89"/>
<polygon fill="#63b8ff" stroke="#63b8ff" points="792.89,-135.2 801.54,-129.08 790.97,-128.47 792.89,-135.2"/>
</a>
</g>
</g>
<!-- Node17 -->
<g id="Node000017" class="node">
<title>Node17</title>
<g id="a_Node000017"><a xlink:title=" ">
<polygon fill="#e0e0e0" stroke="#999999" points="933,-129 880,-129 880,-110 933,-110 933,-129"/>
<text text-anchor="middle" x="906.5" y="-117" font-family="Helvetica,sans-Serif" font-size="10.00">cstddef</text>
</a>
</g>
</g>
<!-- Node13&#45;&gt;Node17 -->
<g id="edge20_Node000013_Node000017" class="edge">
<title>Node13&#45;&gt;Node17</title>
<g id="a_edge20_Node000013_Node000017"><a xlink:title=" ">
<path fill="none" stroke="#63b8ff" d="M692.07,-164.94C735.28,-156.72 802.25,-143.68 869.82,-129.08"/>
<polygon fill="#63b8ff" stroke="#63b8ff" points="870.76,-132.46 879.79,-126.92 869.27,-125.62 870.76,-132.46"/>
</a>
</g>
</g>
<!-- Node18 -->
<g id="Node000018" class="node">
<title>Node18</title>
<g id="a_Node000018"><a xlink:title=" ">
<polygon fill="#e0e0e0" stroke="#999999" points="783.5,-129 743.5,-129 743.5,-110 783.5,-110 783.5,-129"/>
<text text-anchor="middle" x="763.5" y="-117" font-family="Helvetica,sans-Serif" font-size="10.00">span</text>
</a>
</g>
</g>
<!-- Node13&#45;&gt;Node18 -->
<g id="edge21_Node000013_Node000018" class="edge">
<title>Node13&#45;&gt;Node18</title>
<g id="a_edge21_Node000013_Node000018"><a xlink:title=" ">
<path fill="none" stroke="#63b8ff" d="M665.3,-164.98C684.12,-156.46 713.32,-143.23 735,-133.41"/>
<polygon fill="#63b8ff" stroke="#63b8ff" points="736.7,-136.48 744.36,-129.17 733.81,-130.11 736.7,-136.48"/>
</a>
</g>
</g>
<!-- Node19&#45;&gt;Node3 -->
<g id="edge36_Node000019_Node000003" class="edge">
<title>Node19&#45;&gt;Node3</title>
<g id="a_edge36_Node000019_Node000003"><a xlink:title=" ">
<path fill="none" stroke="#63b8ff" d="M1084.87,-167.98C1009.41,-160.12 867.33,-145.02 735.58,-129.11"/>
<polygon fill="#63b8ff" stroke="#63b8ff" points="735.65,-125.59 725.3,-127.86 734.81,-132.54 735.65,-125.59"/>
</a>
</g>
</g>
<!-- Node19&#45;&gt;Node16 -->
<g id="edge37_Node000019_Node000016" class="edge">
<title>Node19&#45;&gt;Node16</title>
<g id="a_edge37_Node000019_Node000016"><a xlink:title=" ">
<path fill="none" stroke="#63b8ff" d="M1084.97,-165.42C1032.99,-157.39 951.63,-144.35 871.92,-129.19"/>
<polygon fill="#63b8ff" stroke="#63b8ff" points="872.18,-125.68 861.7,-127.24 870.87,-132.56 872.18,-125.68"/>
</a>
</g>
</g>
<!-- Node19&#45;&gt;Node17 -->
<g id="edge43_Node000019_Node000017" class="edge">
<title>Node19&#45;&gt;Node17</title>
<g id="a_edge43_Node000019_Node000017"><a xlink:title=" ">
<path fill="none" stroke="#63b8ff" d="M1099.95,-164.99C1062.31,-156.63 1003.12,-143.37 943.24,-129.38"/>
<polygon fill="#63b8ff" stroke="#63b8ff" points="943.78,-125.91 933.24,-127.04 942.18,-132.73 943.78,-125.91"/>
</a>
</g>
</g>
<!-- Node19&#45;&gt;Node18 -->
<g id="edge40_Node000019_Node000018" class="edge">
<title>Node19&#45;&gt;Node18</title>
<g id="a_edge40_Node000019_Node000018"><a xlink:title=" ">
<path fill="none" stroke="#63b8ff" d="M1084.72,-169.22C1018.37,-163.36 902.06,-151.19 793.79,-128.97"/>
<polygon fill="#63b8ff" stroke="#63b8ff" points="794.18,-125.47 783.68,-126.85 792.75,-132.32 794.18,-125.47"/>
</a>
</g>
</g>
<!-- Node20 -->
<g id="Node000020" class="node">
<title>Node20</title>
<g id="a_Node000020"><a xlink:title=" ">
<polygon fill="#e0e0e0" stroke="#999999" points="902.5,-19 800.5,-19 800.5,0 902.5,0 902.5,-19"/>
<text text-anchor="middle" x="851.5" y="-7" font-family="Helvetica,sans-Serif" font-size="10.00">guanaqo/export.h</text>
</a>
</g>
</g>
<!-- Node19&#45;&gt;Node20 -->
<g id="edge24_Node000019_Node000020" class="edge">
<title>Node19&#45;&gt;Node20</title>
<g id="a_edge24_Node000019_Node000020"><a xlink:title=" ">
<path fill="none" stroke="#63b8ff" d="M1122.41,-164.83C1091.83,-148.39 1027.38,-113.96 1016.5,-110 947.2,-84.76 902,-130.43 854.5,-74 844.18,-61.74 844.6,-42.96 846.9,-29"/>
<polygon fill="#63b8ff" stroke="#63b8ff" points="850.36,-29.56 848.98,-19.06 843.51,-28.13 850.36,-29.56"/>
</a>
</g>
</g>
<!-- Node21 -->
<g id="Node000021" class="node">
<title>Node21</title>
<g id="a_Node000021"><a xlink:href="perfetto_2trace_8hpp.html" target="_top" xlink:title="Perfetto tracing macros and session helpers.">
<polygon fill="white" stroke="#666666" points="1213,-129 1064,-129 1064,-110 1213,-110 1213,-129"/>
<text text-anchor="middle" x="1138.5" y="-117" font-family="Helvetica,sans-Serif" font-size="10.00">guanaqo/perfetto/trace.hpp</text>
</a>
</g>
</g>
<!-- Node19&#45;&gt;Node21 -->
<g id="edge25_Node000019_Node000021" class="edge">
<title>Node19&#45;&gt;Node21</title>
<g id="a_edge25_Node000019_Node000021"><a xlink:title=" ">
<path fill="none" stroke="#63b8ff" d="M1138.5,-164.75C1138.5,-157.8 1138.5,-147.85 1138.5,-139.13"/>
<polygon fill="#63b8ff" stroke="#63b8ff" points="1142,-139.09 1138.5,-129.09 1135,-139.09 1142,-139.09"/>
</a>
</g>
</g>
<!-- Node22 -->
<g id="Node000022" class="node">
<title>Node22</title>
<g id="a_Node000022"><a xlink:href="preprocessor_8h.html" target="_top" xlink:title="Token concatenation and argument&#45;counting helpers.">
<polygon fill="white" stroke="#666666" points="1349,-74 1216,-74 1216,-55 1349,-55 1349,-74"/>
<text text-anchor="middle" x="1282.5" y="-62" font-family="Helvetica,sans-Serif" font-size="10.00">guanaqo/preprocessor.h</text>
</a>
</g>
</g>
<!-- Node19&#45;&gt;Node22 -->
<g id="edge35_Node000019_Node000022" class="edge">
<title>Node19&#45;&gt;Node22</title>
<g id="a_edge35_Node000019_Node000022"><a xlink:title=" ">
<path fill="none" stroke="#63b8ff" d="M1158.94,-164.96C1176.67,-157.03 1202.54,-144.19 1222.5,-129 1240.52,-115.29 1257.93,-95.97 1269.31,-82.25"/>
<polygon fill="#63b8ff" stroke="#63b8ff" points="1272.29,-84.13 1275.86,-74.16 1266.85,-79.73 1272.29,-84.13"/>
</a>
</g>
</g>
<!-- Node24 -->
<g id="Node000024" class="node">
<title>Node24</title>
<g id="a_Node000024"><a xlink:title=" ">
<polygon fill="#e0e0e0" stroke="#999999" points="1171.5,-19 1121.5,-19 1121.5,0 1171.5,0 1171.5,-19"/>
<text text-anchor="middle" x="1146.5" y="-7" font-family="Helvetica,sans-Serif" font-size="10.00">cstdint</text>
</a>
</g>
</g>
<!-- Node19&#45;&gt;Node24 -->
<g id="edge44_Node000019_Node000024" class="edge">
<title>Node19&#45;&gt;Node24</title>
<g id="a_edge44_Node000019_Node000024"><a xlink:title=" ">
<path fill="none" stroke="#63b8ff" d="M1192.2,-165.47C1272.41,-151.26 1408.95,-117.14 1358.5,-55 1336.67,-28.11 1236.48,-16.88 1182.01,-12.69"/>
<polygon fill="#63b8ff" stroke="#63b8ff" points="1181.99,-9.18 1171.76,-11.95 1181.48,-16.16 1181.99,-9.18"/>
</a>
</g>
</g>
<!-- Node25 -->
<g id="Node000025" class="node">
<title>Node25</title>
<g id="a_Node000025"><a xlink:title=" ">
<polygon fill="#e0e0e0" stroke="#999999" points="1341.5,-19 1283.5,-19 1283.5,0 1341.5,0 1341.5,-19"/>
<text text-anchor="middle" x="1312.5" y="-7" font-family="Helvetica,sans-Serif" font-size="10.00">memory</text>
</a>
</g>
</g>
<!-- Node19&#45;&gt;Node25 -->
<g id="edge39_Node000019_Node000025" class="edge">
<title>Node19&#45;&gt;Node25</title>
<g id="a_edge39_Node000019_Node000025"><a xlink:title=" ">
<path fill="none" stroke="#63b8ff" d="M1192.19,-167.99C1247.31,-161.36 1328.35,-148.62 1352.5,-129 1379.34,-107.2 1392.52,-85.64 1376.5,-55 1369.39,-41.39 1356.01,-31.1 1343.31,-23.87"/>
<polygon fill="#63b8ff" stroke="#63b8ff" points="1344.77,-20.68 1334.29,-19.13 1341.52,-26.88 1344.77,-20.68"/>
</a>
</g>
</g>
<!-- Node26 -->
<g id="Node000026" class="node">
<title>Node26</title>
<g id="a_Node000026"><a xlink:title=" ">
<polygon fill="#e0e0e0" stroke="#999999" points="1452,-19 1407,-19 1407,0 1452,0 1452,-19"/>
<text text-anchor="middle" x="1429.5" y="-7" font-family="Helvetica,sans-Serif" font-size="10.00">utility</text>
</a>
</g>
</g>
<!-- Node19&#45;&gt;Node26 -->
<g id="edge41_Node000019_Node000026" class="edge">
<title>Node19&#45;&gt;Node26</title>
<g id="a_edge41_Node000019_Node000026"><a xlink:title=" ">
<path fill="none" stroke="#63b8ff" d="M1192.09,-169.16C1253,-163.26 1347.61,-150.84 1375.5,-129 1407.58,-103.87 1421.26,-55.38 1426.54,-28.89"/>
<polygon fill="#63b8ff" stroke="#63b8ff" points="1429.99,-29.47 1428.32,-19.01 1423.1,-28.23 1429.99,-29.47"/>
</a>
</g>
</g>
<!-- Node29 -->
<g id="Node000029" class="node">
<title>Node29</title>
<g id="a_Node000029"><a xlink:title=" ">
<polygon fill="#e0e0e0" stroke="#999999" points="1547,-129 1482,-129 1482,-110 1547,-110 1547,-129"/>
<text text-anchor="middle" x="1514.5" y="-117" font-family="Helvetica,sans-Serif" font-size="10.00">functional</text>
</a>
</g>
</g>
<!-- Node19&#45;&gt;Node29 -->
<g id="edge38_Node000019_Node000029" class="edge">
<title>Node19&#45;&gt;Node29</title>
<g id="a_edge38_Node000019_Node000029"><a xlink:title=" ">
<path fill="none" stroke="#63b8ff" d="M1192.17,-166.98C1257.39,-158.9 1370.72,-144.29 1467.5,-129 1468.96,-128.77 1470.44,-128.53 1471.94,-128.28"/>
<polygon fill="#63b8ff" stroke="#63b8ff" points="1472.64,-131.71 1481.92,-126.59 1471.47,-124.81 1472.64,-131.71"/>
</a>
</g>
</g>
<!-- Node30 -->
<g id="Node000030" class="node">
<title>Node30</title>
<g id="a_Node000030"><a xlink:title=" ">
<polygon fill="#e0e0e0" stroke="#999999" points="1615.5,-129 1565.5,-129 1565.5,-110 1615.5,-110 1615.5,-129"/>
<text text-anchor="middle" x="1590.5" y="-117" font-family="Helvetica,sans-Serif" font-size="10.00">chrono</text>
</a>
</g>
</g>
<!-- Node19&#45;&gt;Node30 -->
<g id="edge42_Node000019_Node000030" class="edge">
<title>Node19&#45;&gt;Node30</title>
<g id="a_edge42_Node000019_Node000030"><a xlink:title=" ">
<path fill="none" stroke="#63b8ff" d="M1192.28,-170.17C1270.24,-164.82 1419.29,-152.62 1555.16,-129"/>
<polygon fill="#63b8ff" stroke="#63b8ff" points="1556.09,-132.39 1565.33,-127.21 1554.88,-125.5 1556.09,-132.39"/>
</a>
</g>
</g>
<!-- Node31 -->
<g id="Node000031" class="node">
<title>Node31</title>
<g id="a_Node000031"><a xlink:title=" ">
<polygon fill="#e0e0e0" stroke="#999999" points="1689.5,-129 1633.5,-129 1633.5,-110 1689.5,-110 1689.5,-129"/>
<text text-anchor="middle" x="1661.5" y="-117" font-family="Helvetica,sans-Serif" font-size="10.00">iomanip</text>
</a>
</g>
</g>
<!-- Node19&#45;&gt;Node31 -->
<g id="edge45_Node000019_Node000031" class="edge">
<title>Node19&#45;&gt;Node31</title>
<g id="a_edge45_Node000019_Node000031"><a xlink:title=" ">
<path fill="none" stroke="#63b8ff" d="M1192.01,-170.96C1280,-166.26 1460.85,-154.45 1623.13,-129.01"/>
<polygon fill="#63b8ff" stroke="#63b8ff" points="1623.97,-132.42 1633.29,-127.39 1622.87,-125.5 1623.97,-132.42"/>
</a>
</g>
</g>
<!-- Node32 -->
<g id="Node000032" class="node">
<title>Node32</title>
<g id="a_Node000032"><a xlink:title=" ">
<polygon fill="#e0e0e0" stroke="#999999" points="1008,-129 951,-129 951,-110 1008,-110 1008,-129"/>
<text text-anchor="middle" x="979.5" y="-117" font-family="Helvetica,sans-Serif" font-size="10.00">ostream</text>
</a>
</g>
</g>
<!-- Node19&#45;&gt;Node32 -->
<g id="edge46_Node000019_Node000032" class="edge">
<title>Node19&#45;&gt;Node32</title>
<g id="a_edge46_Node000019_Node000032"><a xlink:title=" ">
<path fill="none" stroke="#63b8ff" d="M1112.95,-164.98C1086.38,-156.13 1044.56,-142.19 1014.83,-132.28"/>
<polygon fill="#63b8ff" stroke="#63b8ff" points="1015.84,-128.92 1005.25,-129.08 1013.63,-135.56 1015.84,-128.92"/>
</a>
</g>
</g>
<!-- Node21&#45;&gt;Node20 -->
<g id="edge26_Node000021_Node000020" class="edge">
<title>Node21&#45;&gt;Node20</title>
<g id="a_edge26_Node000021_Node000020"><a xlink:title=" ">
<path fill="none" stroke="#63b8ff" d="M1063.8,-110.18C989.63,-101.27 884.92,-86.71 870.5,-74 857.96,-62.95 853.54,-44.01 852.05,-29.68"/>
<polygon fill="#63b8ff" stroke="#63b8ff" points="855.53,-29.18 851.39,-19.42 848.54,-29.63 855.53,-29.18"/>
</a>
</g>
</g>
<!-- Node21&#45;&gt;Node22 -->
<g id="edge27_Node000021_Node000022" class="edge">
<title>Node21&#45;&gt;Node22</title>
<g id="a_edge27_Node000021_Node000022"><a xlink:title=" ">
<path fill="none" stroke="#63b8ff" d="M1161.64,-109.98C1185.32,-101.27 1222.37,-87.63 1249.21,-77.75"/>
<polygon fill="#63b8ff" stroke="#63b8ff" points="1250.77,-80.91 1258.94,-74.17 1248.35,-74.34 1250.77,-80.91"/>
</a>
</g>
</g>
<!-- Node23 -->
<g id="Node000023" class="node">
<title>Node23</title>
<g id="a_Node000023"><a xlink:href="counters_8hpp.html" target="_top" xlink:title="Performance counter snapshots and scoped collectors.">
<polygon fill="white" stroke="#666666" points="1198,-74 1049,-74 1049,-55 1198,-55 1198,-74"/>
<text text-anchor="middle" x="1123.5" y="-62" font-family="Helvetica,sans-Serif" font-size="10.00">guanaqo/pcm/counters.hpp</text>
</a>
</g>
</g>
<!-- Node21&#45;&gt;Node23 -->
<g id="edge28_Node000021_Node000023" class="edge">
<title>Node21&#45;&gt;Node23</title>
<g id="a_edge28_Node000021_Node000023"><a xlink:title=" ">
<path fill="none" stroke="#63b8ff" d="M1136.02,-109.75C1134.04,-102.72 1131.18,-92.62 1128.69,-83.84"/>
<polygon fill="#63b8ff" stroke="#63b8ff" points="1132.02,-82.76 1125.93,-74.09 1125.29,-84.66 1132.02,-82.76"/>
</a>
</g>
</g>
<!-- Node27 -->
<g id="Node000027" class="node">
<title>Node27</title>
<g id="a_Node000027"><a xlink:title=" ">
<polygon fill="#e0e0e0" stroke="#999999" points="945,-74 880,-74 880,-55 945,-55 945,-74"/>
<text text-anchor="middle" x="912.5" y="-62" font-family="Helvetica,sans-Serif" font-size="10.00">perfetto.h</text>
</a>
</g>
</g>
<!-- Node21&#45;&gt;Node27 -->
<g id="edge33_Node000021_Node000027" class="edge">
<title>Node21&#45;&gt;Node27</title>
<g id="a_edge33_Node000021_Node000027"><a xlink:title=" ">
<path fill="none" stroke="#63b8ff" d="M1102.19,-109.98C1061.99,-100.56 997.27,-85.38 954.81,-75.42"/>
<polygon fill="#63b8ff" stroke="#63b8ff" points="955.59,-72.01 945.05,-73.13 953.99,-78.82 955.59,-72.01"/>
</a>
</g>
</g>
<!-- Node28 -->
<g id="Node000028" class="node">
<title>Node28</title>
<g id="a_Node000028"><a xlink:title=" ">
<polygon fill="#e0e0e0" stroke="#999999" points="1031.5,-74 963.5,-74 963.5,-55 1031.5,-55 1031.5,-74"/>
<text text-anchor="middle" x="997.5" y="-62" font-family="Helvetica,sans-Serif" font-size="10.00">filesystem</text>
</a>
</g>
</g>
<!-- Node21&#45;&gt;Node28 -->
<g id="edge34_Node000021_Node000028" class="edge">
<title>Node21&#45;&gt;Node28</title>
<g id="a_edge34_Node000021_Node000028"><a xlink:title=" ">
<path fill="none" stroke="#63b8ff" d="M1115.85,-109.98C1092.65,-101.27 1056.38,-87.63 1030.1,-77.75"/>
<polygon fill="#63b8ff" stroke="#63b8ff" points="1031.16,-74.41 1020.57,-74.17 1028.7,-80.97 1031.16,-74.41"/>
</a>
</g>
</g>
<!-- Node23&#45;&gt;Node20 -->
<g id="edge29_Node000023_Node000020" class="edge">
<title>Node23&#45;&gt;Node20</title>
<g id="a_edge29_Node000023_Node000020"><a xlink:title=" ">
<path fill="none" stroke="#63b8ff" d="M1079.8,-54.98C1032.35,-45.74 956.53,-30.97 905.42,-21.01"/>
<polygon fill="#63b8ff" stroke="#63b8ff" points="906.03,-17.56 895.54,-19.08 904.69,-24.43 906.03,-17.56"/>
</a>
</g>
</g>
<!-- Node23&#45;&gt;Node24 -->
<g id="edge30_Node000023_Node000024" class="edge">
<title>Node23&#45;&gt;Node24</title>
<g id="a_edge30_Node000023_Node000024"><a xlink:title=" ">
<path fill="none" stroke="#63b8ff" d="M1127.3,-54.75C1130.41,-47.57 1134.92,-37.18 1138.79,-28.27"/>
<polygon fill="#63b8ff" stroke="#63b8ff" points="1142,-29.66 1142.77,-19.09 1135.58,-26.87 1142,-29.66"/>
</a>
</g>
</g>
<!-- Node23&#45;&gt;Node25 -->
<g id="edge31_Node000023_Node000025" class="edge">
<title>Node23&#45;&gt;Node25</title>
<g id="a_edge31_Node000023_Node000025"><a xlink:title=" ">
<path fill="none" stroke="#63b8ff" d="M1153.87,-54.98C1186.35,-45.88 1237.97,-31.4 1273.45,-21.45"/>
<polygon fill="#63b8ff" stroke="#63b8ff" points="1274.77,-24.72 1283.45,-18.65 1272.88,-17.98 1274.77,-24.72"/>
</a>
</g>
</g>
<!-- Node23&#45;&gt;Node26 -->
<g id="edge32_Node000023_Node000026" class="edge">
<title>Node23&#45;&gt;Node26</title>
<g id="a_edge32_Node000023_Node000026"><a xlink:title=" ">
<path fill="none" stroke="#63b8ff" d="M1172.66,-54.98C1235.7,-44.07 1343.26,-25.44 1396.98,-16.13"/>
<polygon fill="#63b8ff" stroke="#63b8ff" points="1397.72,-19.56 1406.97,-14.4 1396.52,-12.66 1397.72,-19.56"/>
</a>
</g>
</g>
</g>
</svg>
