<?xml version="1.0" encoding="UTF-8" standalone="no"?>
<!DOCTYPE svg PUBLIC "-//W3C//DTD SVG 1.1//EN"
 "http://www.w3.org/Graphics/SVG/1.1/DTD/svg11.dtd">
<!-- Generated by graphviz version 2.43.0 (0)
 -->
<!-- Title: Graphical Class Hierarchy Pages: 1 -->
<svg width="336pt" height="98pt"
 viewBox="0.00 0.00 336.00 97.50" xmlns="http://www.w3.org/2000/svg" xmlns:xlink="http://www.w3.org/1999/xlink">
<g id="graph0" class="graph" transform="scale(1 1) rotate(0) translate(4 93.5)">
<title>Graphical Class Hierarchy</title>
<!-- Node0 -->
<g id="Node000000" class="node">
<title>Node0</title>
<g id="a_Node000000"><a xlink:title=" ">
<polygon fill="#e0e0e0" stroke="#999999" points="149,-57 0,-57 0,-38 149,-38 149,-57"/>
<text text-anchor="middle" x="74.5" y="-45" font-family="Helvetica,sans-Serif" font-size="10.00">std::ranges::view_interface</text>
</a>
</g>
</g>
<!-- Node1 -->
<g id="Node000001" class="node">
<title>Node1</title>
<g id="a_Node000001"><a xlink:href="structguanaqo_1_1enumerate__t.html" target="_top" xlink:title=" ">
<polygon fill="white" stroke="#666666" points="315.5,-89.5 197.5,-89.5 197.5,-59.5 315.5,-59.5 315.5,-89.5"/>
<text text-anchor="start" x="205.5" y="-77.5" font-family="Helvetica,sans-Serif" font-size="10.00">guanaqo::enumerate</text>
<text text-anchor="middle" x="256.5" y="-66.5" font-family="Helvetica,sans-Serif" font-size="10.00">_t&lt; Rng &gt;</text>
</a>
</g>
</g>
<!-- Node0&#45;&gt;Node1 -->
<g id="edge10_Node000000_Node000001" class="edge">
<title>Node0&#45;&gt;Node1</title>
<g id="a_edge10_Node000000_Node000001"><a xlink:title=" ">
<path fill="none" stroke="#63b8ff" d="M148.91,-58.51C165.07,-60.93 181.96,-63.47 197.42,-65.79"/>
<polygon fill="#63b8ff" stroke="#63b8ff" points="149.37,-55.04 138.96,-57.02 148.33,-61.96 149.37,-55.04"/>
</a>
</g>
</g>
<!-- Node2 -->
<g id="Node000002" class="node">
<title>Node2</title>
<g id="a_Node000002"><a xlink:href="structguanaqo_1_1set__intersection__iterable.html" target="_top" xlink:title=" ">
<polygon fill="white" stroke="#666666" points="328,-41 185,-41 185,0 328,0 328,-41"/>
<text text-anchor="start" x="193" y="-29" font-family="Helvetica,sans-Serif" font-size="10.00">guanaqo::set_intersection</text>
<text text-anchor="start" x="193" y="-18" font-family="Helvetica,sans-Serif" font-size="10.00">_iterable&lt; R1, R2, Comp,</text>
<text text-anchor="middle" x="256.5" y="-7" font-family="Helvetica,sans-Serif" font-size="10.00"> Proj1, Proj2 &gt;</text>
</a>
</g>
</g>
<!-- Node0&#45;&gt;Node2 -->
<g id="edge11_Node000000_Node000002" class="edge">
<title>Node0&#45;&gt;Node2</title>
<g id="a_edge11_Node000000_Node000002"><a xlink:title=" ">
<path fill="none" stroke="#63b8ff" d="M148.86,-36.5C160.78,-34.71 173.1,-32.86 184.95,-31.08"/>
<polygon fill="#63b8ff" stroke="#63b8ff" points="148.33,-33.04 138.96,-37.98 149.37,-39.96 148.33,-33.04"/>
</a>
</g>
</g>
</g>
</svg>
