<?xml version="1.0" encoding="UTF-8" standalone="no"?>
<!DOCTYPE svg PUBLIC "-//W3C//DTD SVG 1.1//EN"
 "http://www.w3.org/Graphics/SVG/1.1/DTD/svg11.dtd">
<!-- Generated by graphviz version 2.43.0 (0)
 -->
<!-- Title: guanaqo::linalg::detail::sort_triplets_impl Pages: 1 -->
<svg width="525pt" height="86pt"
 viewBox="0.00 0.00 525.00 86.00" xmlns="http://www.w3.org/2000/svg" xmlns:xlink="http://www.w3.org/1999/xlink">
<g id="graph0" class="graph" transform="scale(1 1) rotate(0) translate(4 82)">
<title>guanaqo::linalg::detail::sort_triplets_impl</title>
<!-- Node1 -->
<g id="Node000001" class="node">
<title>Node1</title>
<g id="a_Node000001"><a xlink:title=" ">
<polygon fill="#999999" stroke="#666666" points="517,-54 392,-54 392,-24 517,-24 517,-54"/>
<text text-anchor="start" x="400" y="-42" font-family="Helvetica,sans-Serif" font-size="10.00">guanaqo::linalg::detail</text>
<text text-anchor="middle" x="454.5" y="-31" font-family="Helvetica,sans-Serif" font-size="10.00">::sort_triplets_impl</text>
</a>
</g>
</g>
<!-- Node2 -->
<g id="Node000002" class="node">
<title>Node2</title>
<g id="a_Node000002"><a xlink:href="group__linalg__sparsity__utils.html#ga07e0486dd1a80f7b9ba6123d02332a6d" target="_top" xlink:title="Sort the (row, column, value) triplets, by column index first, then row.">
<polygon fill="white" stroke="#666666" points="356,-78 240,-78 240,-48 356,-48 356,-78"/>
<text text-anchor="start" x="248" y="-66" font-family="Helvetica,sans-Serif" font-size="10.00">guanaqo::linalg::sort</text>
<text text-anchor="middle" x="298" y="-55" font-family="Helvetica,sans-Serif" font-size="10.00">_triplets</text>
</a>
</g>
</g>
<!-- Node1&#45;&gt;Node2 -->
<g id="edge1_Node000001_Node000002" class="edge">
<title>Node1&#45;&gt;Node2</title>
<g id="a_edge1_Node000001_Node000002"><a xlink:title=" ">
<path fill="none" stroke="#63b8ff" d="M381.96,-50.11C373.35,-51.45 364.65,-52.8 356.28,-54.1"/>
<polygon fill="#63b8ff" stroke="#63b8ff" points="382.65,-53.55 391.99,-48.55 381.57,-46.63 382.65,-53.55"/>
</a>
</g>
</g>
<!-- Node4 -->
<g id="Node000004" class="node">
<title>Node4</title>
<g id="a_Node000004"><a xlink:href="group__linalg__sparsity__utils.html#gad80eb9b83d13f637495b3066bff61471" target="_top" xlink:title="Sort the (row, column, value) triplets by column index.">
<polygon fill="white" stroke="#666666" points="356,-30 240,-30 240,0 356,0 356,-30"/>
<text text-anchor="start" x="248" y="-18" font-family="Helvetica,sans-Serif" font-size="10.00">guanaqo::linalg::sort</text>
<text text-anchor="middle" x="298" y="-7" font-family="Helvetica,sans-Serif" font-size="10.00">_triplets_col</text>
</a>
</g>
</g>
<!-- Node1&#45;&gt;Node4 -->
<g id="edge3_Node000001_Node000004" class="edge">
<title>Node1&#45;&gt;Node4</title>
<g id="a_edge3_Node000001_Node000004"><a xlink:title=" ">
<path fill="none" stroke="#63b8ff" d="M381.96,-27.89C373.35,-26.55 364.65,-25.2 356.28,-23.9"/>
<polygon fill="#63b8ff" stroke="#63b8ff" points="381.57,-31.37 391.99,-29.45 382.65,-24.45 381.57,-31.37"/>
</a>
</g>
</g>
<!-- Node3 -->
<g id="Node000003" class="node">
<title>Node3</title>
<g id="a_Node000003"><a xlink:href="structguanaqo_1_1linalg_1_1sparsity_1_1SparsityConverter_3_01SparseCOO_3_01IndexFrom_01_4_00_01S67b6f2c0f3c4edbe7a0b5208ada2b096.html#aa3da87c3a25b16cae86dd4bcf03d9dfd" target="_top" xlink:title=" ">
<polygon fill="white" stroke="#666666" points="204,-65 0,-65 0,-13 204,-13 204,-65"/>
<text text-anchor="start" x="8" y="-53" font-family="Helvetica,sans-Serif" font-size="10.00">guanaqo::linalg::sparsity</text>
<text text-anchor="start" x="8" y="-42" font-family="Helvetica,sans-Serif" font-size="10.00">::SparsityConverter&lt; SparseCOO</text>
<text text-anchor="start" x="8" y="-31" font-family="Helvetica,sans-Serif" font-size="10.00">&lt; IndexFrom &gt;, SparseCSC&lt; IndexTo,</text>
<text text-anchor="middle" x="102" y="-20" font-family="Helvetica,sans-Serif" font-size="10.00"> StorageIndexTo &gt; &gt;::convert_sparsity</text>
</a>
</g>
</g>
<!-- Node2&#45;&gt;Node3 -->
<g id="edge2_Node000002_Node000003" class="edge">
<title>Node2&#45;&gt;Node3</title>
<g id="a_edge2_Node000002_Node000003"><a xlink:title=" ">
<path fill="none" stroke="#63b8ff" d="M229.85,-54.69C221.52,-53.66 212.85,-52.59 204.15,-51.51"/>
<polygon fill="#63b8ff" stroke="#63b8ff" points="229.49,-58.17 239.84,-55.93 230.35,-51.23 229.49,-58.17"/>
</a>
</g>
</g>
<!-- Node4&#45;&gt;Node3 -->
<g id="edge4_Node000004_Node000003" class="edge">
<title>Node4&#45;&gt;Node3</title>
<g id="a_edge4_Node000004_Node000003"><a xlink:title=" ">
<path fill="none" stroke="#63b8ff" d="M229.85,-23.31C221.52,-24.34 212.85,-25.41 204.15,-26.49"/>
<polygon fill="#63b8ff" stroke="#63b8ff" points="230.35,-26.77 239.84,-22.07 229.49,-19.83 230.35,-26.77"/>
</a>
</g>
</g>
</g>
</svg>
