<?xml version="1.0" encoding="UTF-8" standalone="no"?>
<!DOCTYPE svg PUBLIC "-//W3C//DTD SVG 1.1//EN"
 "http://www.w3.org/Graphics/SVG/1.1/DTD/svg11.dtd">
<!-- Generated by graphviz version 2.43.0 (0)
 -->
<!-- Title: src/print.cpp Pages: 1 -->
<svg width="958pt" height="258pt"
 viewBox="0.00 0.00 958.25 258.00" xmlns="http://www.w3.org/2000/svg" xmlns:xlink="http://www.w3.org/1999/xlink">
<g id="graph0" class="graph" transform="scale(1 1) rotate(0) translate(4 254)">
<title>src/print.cpp</title>
<!-- Node1 -->
<g id="Node000001" class="node">
<title>Node1</title>
<g id="a_Node000001"><a xlink:title=" ">
<polygon fill="#999999" stroke="#666666" points="581.25,-250 504.25,-250 504.25,-231 581.25,-231 581.25,-250"/>
<text text-anchor="middle" x="542.75" y="-238" font-family="Helvetica,sans-Serif" font-size="10.00">src/print.cpp</text>
</a>
</g>
</g>
<!-- Node2 -->
<g id="Node000002" class="node">
<title>Node2</title>
<g id="a_Node000002"><a xlink:title=" ">
<polygon fill="#e0e0e0" stroke="#999999" points="156.75,-74 54.75,-74 54.75,-55 156.75,-55 156.75,-74"/>
<text text-anchor="middle" x="105.75" y="-62" font-family="Helvetica,sans-Serif" font-size="10.00">guanaqo/export.h</text>
</a>
</g>
</g>
<!-- Node1&#45;&gt;Node2 -->
<g id="edge1_Node000001_Node000002" class="edge">
<title>Node1&#45;&gt;Node2</title>
<g id="a_edge1_Node000001_Node000002"><a xlink:title=" ">
<path fill="none" stroke="#63b8ff" d="M521.38,-230.99C450.16,-202.63 220.71,-111.27 136.83,-77.87"/>
<polygon fill="#63b8ff" stroke="#63b8ff" points="137.93,-74.54 127.34,-74.1 135.34,-81.05 137.93,-74.54"/>
</a>
</g>
</g>
<!-- Node3 -->
<g id="Node000003" class="node">
<title>Node3</title>
<g id="a_Node000003"><a xlink:href="print_8tpp.html" target="_top" xlink:title=" ">
<polygon fill="white" stroke="#666666" points="241.75,-195 101.75,-195 101.75,-165 241.75,-165 241.75,-195"/>
<text text-anchor="start" x="109.75" y="-183" font-family="Helvetica,sans-Serif" font-size="10.00">guanaqo/implementation</text>
<text text-anchor="middle" x="171.75" y="-172" font-family="Helvetica,sans-Serif" font-size="10.00">/print.tpp</text>
</a>
</g>
</g>
<!-- Node1&#45;&gt;Node3 -->
<g id="edge2_Node000001_Node000003" class="edge">
<title>Node1&#45;&gt;Node3</title>
<g id="a_edge2_Node000001_Node000003"><a xlink:title=" ">
<path fill="none" stroke="#63b8ff" d="M504.1,-233.41C444.78,-224.05 329.99,-205.95 252.11,-193.67"/>
<polygon fill="#63b8ff" stroke="#63b8ff" points="252.28,-190.15 241.85,-192.05 251.19,-197.07 252.28,-190.15"/>
</a>
</g>
</g>
<!-- Node9 -->
<g id="Node000009" class="node">
<title>Node9</title>
<g id="a_Node000009"><a xlink:title=" ">
<polygon fill="#e0e0e0" stroke="#999999" points="604.75,-19 544.75,-19 544.75,0 604.75,0 604.75,-19"/>
<text text-anchor="middle" x="574.75" y="-7" font-family="Helvetica,sans-Serif" font-size="10.00">concepts</text>
</a>
</g>
</g>
<!-- Node1&#45;&gt;Node9 -->
<g id="edge31_Node000001_Node000009" class="edge">
<title>Node1&#45;&gt;Node9</title>
<g id="a_edge31_Node000001_Node000009"><a xlink:title=" ">
<path fill="none" stroke="#63b8ff" d="M577.28,-230.99C639.41,-213.59 768.52,-167.47 821.75,-74 882.92,33.4 1006.79,-94.72 614.75,-19 614.65,-18.98 614.55,-18.96 614.45,-18.94"/>
<polygon fill="#63b8ff" stroke="#63b8ff" points="615.36,-15.55 604.87,-17.03 613.99,-22.42 615.36,-15.55"/>
</a>
</g>
</g>
<!-- Node23 -->
<g id="Node000023" class="node">
<title>Node23</title>
<g id="a_Node000023"><a xlink:title=" ">
<polygon fill="#e0e0e0" stroke="#999999" points="930.25,-189.5 869.25,-189.5 869.25,-170.5 930.25,-170.5 930.25,-189.5"/>
<text text-anchor="middle" x="899.75" y="-177.5" font-family="Helvetica,sans-Serif" font-size="10.00">charconv</text>
</a>
</g>
</g>
<!-- Node1&#45;&gt;Node23 -->
<g id="edge30_Node000001_Node000023" class="edge">
<title>Node1&#45;&gt;Node23</title>
<g id="a_edge30_Node000001_Node000023"><a xlink:title=" ">
<path fill="none" stroke="#63b8ff" d="M581.54,-235.98C640.9,-230.15 757.61,-216.89 854.75,-195 858.13,-194.24 861.62,-193.35 865.09,-192.39"/>
<polygon fill="#63b8ff" stroke="#63b8ff" points="866.11,-195.74 874.72,-189.57 864.14,-189.02 866.11,-195.74"/>
</a>
</g>
</g>
<!-- Node4 -->
<g id="Node000004" class="node">
<title>Node4</title>
<g id="a_Node000004"><a xlink:href="print_8hpp.html" target="_top" xlink:title="Matrix/vector printing helpers and float formatting.">
<polygon fill="white" stroke="#666666" points="427.25,-129 322.25,-129 322.25,-110 427.25,-110 427.25,-129"/>
<text text-anchor="middle" x="374.75" y="-117" font-family="Helvetica,sans-Serif" font-size="10.00">guanaqo/print.hpp</text>
</a>
</g>
</g>
<!-- Node3&#45;&gt;Node4 -->
<g id="edge3_Node000003_Node000004" class="edge">
<title>Node3&#45;&gt;Node4</title>
<g id="a_edge3_Node000003_Node000004"><a xlink:title=" ">
<path fill="none" stroke="#63b8ff" d="M220.38,-164.99C255.56,-154.85 302.51,-141.32 335.36,-131.85"/>
<polygon fill="#63b8ff" stroke="#63b8ff" points="336.43,-135.19 345.07,-129.05 334.49,-128.46 336.43,-135.19"/>
</a>
</g>
</g>
<!-- Node7 -->
<g id="Node000007" class="node">
<title>Node7</title>
<g id="a_Node000007"><a xlink:title=" ">
<polygon fill="#e0e0e0" stroke="#999999" points="950.25,-19 903.25,-19 903.25,0 950.25,0 950.25,-19"/>
<text text-anchor="middle" x="926.75" y="-7" font-family="Helvetica,sans-Serif" font-size="10.00">cmath</text>
</a>
</g>
</g>
<!-- Node3&#45;&gt;Node7 -->
<g id="edge26_Node000003_Node000007" class="edge">
<title>Node3&#45;&gt;Node7</title>
<g id="a_edge26_Node000003_Node000007"><a xlink:title=" ">
<path fill="none" stroke="#63b8ff" d="M241.88,-176.67C363.59,-170.67 620.2,-149.37 821.75,-74 854.08,-61.91 887.55,-39.69 907.76,-25"/>
<polygon fill="#63b8ff" stroke="#63b8ff" points="909.87,-27.8 915.82,-19.03 905.7,-22.17 909.87,-27.8"/>
</a>
</g>
</g>
<!-- Node13 -->
<g id="Node000013" class="node">
<title>Node13</title>
<g id="a_Node000013"><a xlink:title=" ">
<polygon fill="#e0e0e0" stroke="#999999" points="111.75,-19 59.75,-19 59.75,0 111.75,0 111.75,-19"/>
<text text-anchor="middle" x="85.75" y="-7" font-family="Helvetica,sans-Serif" font-size="10.00">cassert</text>
</a>
</g>
</g>
<!-- Node3&#45;&gt;Node13 -->
<g id="edge25_Node000003_Node000013" class="edge">
<title>Node3&#45;&gt;Node13</title>
<g id="a_edge25_Node000003_Node000013"><a xlink:title=" ">
<path fill="none" stroke="#63b8ff" d="M101.34,-176.17C67.31,-170.8 29.28,-158.06 7.75,-129 -19.18,-92.63 32.72,-47.43 64.17,-24.81"/>
<polygon fill="#63b8ff" stroke="#63b8ff" points="66.22,-27.64 72.42,-19.05 62.22,-21.9 66.22,-27.64"/>
</a>
</g>
</g>
<!-- Node15 -->
<g id="Node000015" class="node">
<title>Node15</title>
<g id="a_Node000015"><a xlink:title=" ">
<polygon fill="#e0e0e0" stroke="#999999" points="266.75,-19 226.75,-19 226.75,0 266.75,0 266.75,-19"/>
<text text-anchor="middle" x="246.75" y="-7" font-family="Helvetica,sans-Serif" font-size="10.00">span</text>
</a>
</g>
</g>
<!-- Node3&#45;&gt;Node15 -->
<g id="edge28_Node000003_Node000015" class="edge">
<title>Node3&#45;&gt;Node15</title>
<g id="a_edge28_Node000003_Node000015"><a xlink:title=" ">
<path fill="none" stroke="#63b8ff" d="M169.3,-164.95C165.9,-149.51 158.33,-124.93 142.75,-110 106.97,-75.71 14.73,-93.65 45.75,-55 66.85,-28.72 165.94,-17.01 216.67,-12.67"/>
<polygon fill="#63b8ff" stroke="#63b8ff" points="217.03,-16.15 226.71,-11.85 216.46,-9.17 217.03,-16.15"/>
</a>
</g>
</g>
<!-- Node20 -->
<g id="Node000020" class="node">
<title>Node20</title>
<g id="a_Node000020"><a xlink:title=" ">
<polygon fill="#e0e0e0" stroke="#999999" points="812.25,-74 739.25,-74 739.25,-55 812.25,-55 812.25,-74"/>
<text text-anchor="middle" x="775.75" y="-62" font-family="Helvetica,sans-Serif" font-size="10.00">string_view</text>
</a>
</g>
</g>
<!-- Node3&#45;&gt;Node20 -->
<g id="edge29_Node000003_Node000020" class="edge">
<title>Node3&#45;&gt;Node20</title>
<g id="a_edge29_Node000003_Node000020"><a xlink:title=" ">
<path fill="none" stroke="#63b8ff" d="M241.93,-165.81C366.62,-142.38 623.61,-94.09 729.05,-74.28"/>
<polygon fill="#63b8ff" stroke="#63b8ff" points="729.89,-77.68 739.07,-72.39 728.59,-70.8 729.89,-77.68"/>
</a>
</g>
</g>
<!-- Node21 -->
<g id="Node000021" class="node">
<title>Node21</title>
<g id="a_Node000021"><a xlink:title=" ">
<polygon fill="#e0e0e0" stroke="#999999" points="58.75,-129 16.75,-129 16.75,-110 58.75,-110 58.75,-129"/>
<text text-anchor="middle" x="37.75" y="-117" font-family="Helvetica,sans-Serif" font-size="10.00">array</text>
</a>
</g>
</g>
<!-- Node3&#45;&gt;Node21 -->
<g id="edge24_Node000003_Node000021" class="edge">
<title>Node3&#45;&gt;Node21</title>
<g id="a_edge24_Node000003_Node000021"><a xlink:title=" ">
<path fill="none" stroke="#63b8ff" d="M139.66,-164.99C117.5,-155.31 88.28,-142.56 66.81,-133.18"/>
<polygon fill="#63b8ff" stroke="#63b8ff" points="68.11,-129.93 57.54,-129.14 65.31,-136.35 68.11,-129.93"/>
</a>
</g>
</g>
<!-- Node22 -->
<g id="Node000022" class="node">
<title>Node22</title>
<g id="a_Node000022"><a xlink:title=" ">
<polygon fill="#e0e0e0" stroke="#999999" points="134.25,-129 77.25,-129 77.25,-110 134.25,-110 134.25,-129"/>
<text text-anchor="middle" x="105.75" y="-117" font-family="Helvetica,sans-Serif" font-size="10.00">ostream</text>
</a>
</g>
</g>
<!-- Node3&#45;&gt;Node22 -->
<g id="edge27_Node000003_Node000022" class="edge">
<title>Node3&#45;&gt;Node22</title>
<g id="a_edge27_Node000003_Node000022"><a xlink:title=" ">
<path fill="none" stroke="#63b8ff" d="M155.78,-164.84C146,-156.17 133.48,-145.08 123.41,-136.15"/>
<polygon fill="#63b8ff" stroke="#63b8ff" points="125.45,-133.28 115.64,-129.27 120.81,-138.52 125.45,-133.28"/>
</a>
</g>
</g>
<!-- Node4&#45;&gt;Node2 -->
<g id="edge4_Node000004_Node000002" class="edge">
<title>Node4&#45;&gt;Node2</title>
<g id="a_edge4_Node000004_Node000002"><a xlink:title=" ">
<path fill="none" stroke="#63b8ff" d="M331.53,-109.98C284.71,-100.76 209.94,-86.03 159.4,-76.07"/>
<polygon fill="#63b8ff" stroke="#63b8ff" points="159.8,-72.58 149.31,-74.08 158.45,-79.45 159.8,-72.58"/>
</a>
</g>
</g>
<!-- Node5 -->
<g id="Node000005" class="node">
<title>Node5</title>
<g id="a_Node000005"><a xlink:href="float_8hpp.html" target="_top" xlink:title=" ">
<polygon fill="white" stroke="#666666" points="720.75,-74 616.75,-74 616.75,-55 720.75,-55 720.75,-74"/>
<text text-anchor="middle" x="668.75" y="-62" font-family="Helvetica,sans-Serif" font-size="10.00">guanaqo/float.hpp</text>
</a>
</g>
</g>
<!-- Node4&#45;&gt;Node5 -->
<g id="edge5_Node000004_Node000005" class="edge">
<title>Node4&#45;&gt;Node5</title>
<g id="a_edge5_Node000004_Node000005"><a xlink:title=" ">
<path fill="none" stroke="#63b8ff" d="M421.99,-109.98C473.49,-100.7 555.91,-85.84 611.16,-75.88"/>
<polygon fill="#63b8ff" stroke="#63b8ff" points="611.93,-79.3 621.15,-74.08 610.68,-72.41 611.93,-79.3"/>
</a>
</g>
</g>
<!-- Node11 -->
<g id="Node000011" class="node">
<title>Node11</title>
<g id="a_Node000011"><a xlink:href="mat-view_8hpp.html" target="_top" xlink:title="Non&#45;owning matrix view.">
<polygon fill="white" stroke="#666666" points="470.75,-74 342.75,-74 342.75,-55 470.75,-55 470.75,-74"/>
<text text-anchor="middle" x="406.75" y="-62" font-family="Helvetica,sans-Serif" font-size="10.00">guanaqo/mat&#45;view.hpp</text>
</a>
</g>
</g>
<!-- Node4&#45;&gt;Node11 -->
<g id="edge11_Node000004_Node000011" class="edge">
<title>Node4&#45;&gt;Node11</title>
<g id="a_edge11_Node000004_Node000011"><a xlink:title=" ">
<path fill="none" stroke="#63b8ff" d="M380.04,-109.75C384.46,-102.42 390.92,-91.73 396.37,-82.7"/>
<polygon fill="#63b8ff" stroke="#63b8ff" points="399.4,-84.46 401.57,-74.09 393.4,-80.84 399.4,-84.46"/>
</a>
</g>
</g>
<!-- Node4&#45;&gt;Node15 -->
<g id="edge21_Node000004_Node000015" class="edge">
<title>Node4&#45;&gt;Node15</title>
<g id="a_edge21_Node000004_Node000015"><a xlink:title=" ">
<path fill="none" stroke="#63b8ff" d="M330.47,-109.94C308.26,-103.53 282.58,-92.54 265.75,-74 254.64,-61.75 250.01,-43.24 248.1,-29.35"/>
<polygon fill="#63b8ff" stroke="#63b8ff" points="251.54,-28.61 247.04,-19.02 244.58,-29.33 251.54,-28.61"/>
</a>
</g>
</g>
<!-- Node16 -->
<g id="Node000016" class="node">
<title>Node16</title>
<g id="a_Node000016"><a xlink:title=" ">
<polygon fill="#e0e0e0" stroke="#999999" points="324.25,-74 275.25,-74 275.25,-55 324.25,-55 324.25,-74"/>
<text text-anchor="middle" x="299.75" y="-62" font-family="Helvetica,sans-Serif" font-size="10.00">cstdlib</text>
</a>
</g>
</g>
<!-- Node4&#45;&gt;Node16 -->
<g id="edge18_Node000004_Node000016" class="edge">
<title>Node4&#45;&gt;Node16</title>
<g id="a_edge18_Node000004_Node000016"><a xlink:title=" ">
<path fill="none" stroke="#63b8ff" d="M362.7,-109.98C351.29,-101.92 333.92,-89.65 320.32,-80.03"/>
<polygon fill="#63b8ff" stroke="#63b8ff" points="322.21,-77.08 312.02,-74.17 318.17,-82.8 322.21,-77.08"/>
</a>
</g>
</g>
<!-- Node17 -->
<g id="Node000017" class="node">
<title>Node17</title>
<g id="a_Node000017"><a xlink:title=" ">
<polygon fill="#e0e0e0" stroke="#999999" points="536.75,-74 488.75,-74 488.75,-55 536.75,-55 536.75,-74"/>
<text text-anchor="middle" x="512.75" y="-62" font-family="Helvetica,sans-Serif" font-size="10.00">iosfwd</text>
</a>
</g>
</g>
<!-- Node4&#45;&gt;Node17 -->
<g id="edge19_Node000004_Node000017" class="edge">
<title>Node4&#45;&gt;Node17</title>
<g id="a_edge19_Node000004_Node000017"><a xlink:title=" ">
<path fill="none" stroke="#63b8ff" d="M396.93,-109.98C419.53,-101.3 454.82,-87.75 480.51,-77.88"/>
<polygon fill="#63b8ff" stroke="#63b8ff" points="482.1,-81.02 490.18,-74.17 479.59,-74.49 482.1,-81.02"/>
</a>
</g>
</g>
<!-- Node18 -->
<g id="Node000018" class="node">
<title>Node18</title>
<g id="a_Node000018"><a xlink:title=" ">
<polygon fill="#e0e0e0" stroke="#999999" points="598.75,-74 554.75,-74 554.75,-55 598.75,-55 598.75,-74"/>
<text text-anchor="middle" x="576.75" y="-62" font-family="Helvetica,sans-Serif" font-size="10.00">limits</text>
</a>
</g>
</g>
<!-- Node4&#45;&gt;Node18 -->
<g id="edge20_Node000004_Node000018" class="edge">
<title>Node4&#45;&gt;Node18</title>
<g id="a_edge20_Node000004_Node000018"><a xlink:title=" ">
<path fill="none" stroke="#63b8ff" d="M408.21,-109.93C440.68,-101.58 491.63,-88.41 544.8,-74.23"/>
<polygon fill="#63b8ff" stroke="#63b8ff" points="545.99,-77.53 554.75,-71.57 544.18,-70.77 545.99,-77.53"/>
</a>
</g>
</g>
<!-- Node19 -->
<g id="Node000019" class="node">
<title>Node19</title>
<g id="a_Node000019"><a xlink:title=" ">
<polygon fill="#e0e0e0" stroke="#999999" points="218.75,-74 174.75,-74 174.75,-55 218.75,-55 218.75,-74"/>
<text text-anchor="middle" x="196.75" y="-62" font-family="Helvetica,sans-Serif" font-size="10.00">string</text>
</a>
</g>
</g>
<!-- Node4&#45;&gt;Node19 -->
<g id="edge22_Node000004_Node000019" class="edge">
<title>Node4&#45;&gt;Node19</title>
<g id="a_edge22_Node000004_Node000019"><a xlink:title=" ">
<path fill="none" stroke="#63b8ff" d="M346.15,-109.98C314,-100.41 261.94,-84.91 228.54,-74.96"/>
<polygon fill="#63b8ff" stroke="#63b8ff" points="229.4,-71.57 218.82,-72.07 227.4,-78.28 229.4,-71.57"/>
</a>
</g>
</g>
<!-- Node4&#45;&gt;Node20 -->
<g id="edge23_Node000004_Node000020" class="edge">
<title>Node4&#45;&gt;Node20</title>
<g id="a_edge23_Node000004_Node000020"><a xlink:title=" ">
<path fill="none" stroke="#63b8ff" d="M427.52,-112.85C495,-105.42 615.71,-91.39 729.22,-74"/>
<polygon fill="#63b8ff" stroke="#63b8ff" points="729.78,-77.45 739.13,-72.47 728.71,-70.53 729.78,-77.45"/>
</a>
</g>
</g>
<!-- Node6 -->
<g id="Node000006" class="node">
<title>Node6</title>
<g id="a_Node000006"><a xlink:href="quadmath_8hpp.html" target="_top" xlink:title=" ">
<polygon fill="white" stroke="#666666" points="885.25,-19 700.25,-19 700.25,0 885.25,0 885.25,-19"/>
<text text-anchor="middle" x="792.75" y="-7" font-family="Helvetica,sans-Serif" font-size="10.00">guanaqo/quadmath/quadmath.hpp</text>
</a>
</g>
</g>
<!-- Node5&#45;&gt;Node6 -->
<g id="edge6_Node000005_Node000006" class="edge">
<title>Node5&#45;&gt;Node6</title>
<g id="a_edge6_Node000005_Node000006"><a xlink:title=" ">
<path fill="none" stroke="#63b8ff" d="M688.68,-54.98C708.8,-46.38 740.13,-32.99 763.16,-23.15"/>
<polygon fill="#63b8ff" stroke="#63b8ff" points="764.65,-26.32 772.47,-19.17 761.9,-19.88 764.65,-26.32"/>
</a>
</g>
</g>
<!-- Node5&#45;&gt;Node7 -->
<g id="edge7_Node000005_Node000007" class="edge">
<title>Node5&#45;&gt;Node7</title>
<g id="a_edge7_Node000005_Node000007"><a xlink:title=" ">
<path fill="none" stroke="#63b8ff" d="M717,-54.94C760.74,-46.97 827.19,-34.34 893.28,-19.23"/>
<polygon fill="#63b8ff" stroke="#63b8ff" points="894.07,-22.64 903.03,-16.99 892.5,-15.82 894.07,-22.64"/>
</a>
</g>
</g>
<!-- Node8 -->
<g id="Node000008" class="node">
<title>Node8</title>
<g id="a_Node000008"><a xlink:title=" ">
<polygon fill="#e0e0e0" stroke="#999999" points="682.25,-19 623.25,-19 623.25,0 682.25,0 682.25,-19"/>
<text text-anchor="middle" x="652.75" y="-7" font-family="Helvetica,sans-Serif" font-size="10.00">complex</text>
</a>
</g>
</g>
<!-- Node5&#45;&gt;Node8 -->
<g id="edge8_Node000005_Node000008" class="edge">
<title>Node5&#45;&gt;Node8</title>
<g id="a_edge8_Node000005_Node000008"><a xlink:title=" ">
<path fill="none" stroke="#63b8ff" d="M666.11,-54.75C663.99,-47.72 660.94,-37.62 658.29,-28.84"/>
<polygon fill="#63b8ff" stroke="#63b8ff" points="661.59,-27.65 655.35,-19.09 654.89,-29.67 661.59,-27.65"/>
</a>
</g>
</g>
<!-- Node5&#45;&gt;Node9 -->
<g id="edge9_Node000005_Node000009" class="edge">
<title>Node5&#45;&gt;Node9</title>
<g id="a_edge9_Node000005_Node000009"><a xlink:title=" ">
<path fill="none" stroke="#63b8ff" d="M653.65,-54.98C638.94,-46.69 616.33,-33.94 599.08,-24.22"/>
<polygon fill="#63b8ff" stroke="#63b8ff" points="600.56,-21.03 590.13,-19.17 597.12,-27.13 600.56,-21.03"/>
</a>
</g>
</g>
<!-- Node10 -->
<g id="Node000010" class="node">
<title>Node10</title>
<g id="a_Node000010"><a xlink:title=" ">
<polygon fill="#e0e0e0" stroke="#999999" points="526.25,-19 457.25,-19 457.25,0 526.25,0 526.25,-19"/>
<text text-anchor="middle" x="491.75" y="-7" font-family="Helvetica,sans-Serif" font-size="10.00">type_traits</text>
</a>
</g>
</g>
<!-- Node5&#45;&gt;Node10 -->
<g id="edge10_Node000005_Node000010" class="edge">
<title>Node5&#45;&gt;Node10</title>
<g id="a_edge10_Node000005_Node000010"><a xlink:title=" ">
<path fill="none" stroke="#63b8ff" d="M640.32,-54.98C610.47,-46.05 563.37,-31.94 530.22,-22.02"/>
<polygon fill="#63b8ff" stroke="#63b8ff" points="531,-18.6 520.41,-19.08 528.99,-25.3 531,-18.6"/>
</a>
</g>
</g>
<!-- Node11&#45;&gt;Node9 -->
<g id="edge14_Node000011_Node000009" class="edge">
<title>Node11&#45;&gt;Node9</title>
<g id="a_edge14_Node000011_Node000009"><a xlink:title=" ">
<path fill="none" stroke="#63b8ff" d="M433.75,-54.98C461.95,-46.09 506.39,-32.07 537.84,-22.15"/>
<polygon fill="#63b8ff" stroke="#63b8ff" points="539.07,-25.43 547.55,-19.08 536.96,-18.75 539.07,-25.43"/>
</a>
</g>
</g>
<!-- Node11&#45;&gt;Node10 -->
<g id="edge17_Node000011_Node000010" class="edge">
<title>Node11&#45;&gt;Node10</title>
<g id="a_edge17_Node000011_Node000010"><a xlink:title=" ">
<path fill="none" stroke="#63b8ff" d="M420.41,-54.98C433.59,-46.77 453.78,-34.18 469.32,-24.49"/>
<polygon fill="#63b8ff" stroke="#63b8ff" points="471.21,-27.43 477.85,-19.17 467.51,-21.49 471.21,-27.43"/>
</a>
</g>
</g>
<!-- Node12 -->
<g id="Node000012" class="node">
<title>Node12</title>
<g id="a_Node000012"><a xlink:title=" ">
<polygon fill="#e0e0e0" stroke="#999999" points="438.75,-19 374.75,-19 374.75,0 438.75,0 438.75,-19"/>
<text text-anchor="middle" x="406.75" y="-7" font-family="Helvetica,sans-Serif" font-size="10.00">algorithm</text>
</a>
</g>
</g>
<!-- Node11&#45;&gt;Node12 -->
<g id="edge12_Node000011_Node000012" class="edge">
<title>Node11&#45;&gt;Node12</title>
<g id="a_edge12_Node000011_Node000012"><a xlink:title=" ">
<path fill="none" stroke="#63b8ff" d="M406.75,-54.75C406.75,-47.8 406.75,-37.85 406.75,-29.13"/>
<polygon fill="#63b8ff" stroke="#63b8ff" points="410.25,-29.09 406.75,-19.09 403.25,-29.09 410.25,-29.09"/>
</a>
</g>
</g>
<!-- Node11&#45;&gt;Node13 -->
<g id="edge13_Node000011_Node000013" class="edge">
<title>Node11&#45;&gt;Node13</title>
<g id="a_edge13_Node000011_Node000013"><a xlink:title=" ">
<path fill="none" stroke="#63b8ff" d="M355.18,-54.98C289.78,-44.19 178.69,-25.84 121.75,-16.44"/>
<polygon fill="#63b8ff" stroke="#63b8ff" points="122.2,-12.97 111.77,-14.8 121.06,-19.88 122.2,-12.97"/>
</a>
</g>
</g>
<!-- Node14 -->
<g id="Node000014" class="node">
<title>Node14</title>
<g id="a_Node000014"><a xlink:title=" ">
<polygon fill="#e0e0e0" stroke="#999999" points="356.25,-19 303.25,-19 303.25,0 356.25,0 356.25,-19"/>
<text text-anchor="middle" x="329.75" y="-7" font-family="Helvetica,sans-Serif" font-size="10.00">cstddef</text>
</a>
</g>
</g>
<!-- Node11&#45;&gt;Node14 -->
<g id="edge15_Node000011_Node000014" class="edge">
<title>Node11&#45;&gt;Node14</title>
<g id="a_edge15_Node000011_Node000014"><a xlink:title=" ">
<path fill="none" stroke="#63b8ff" d="M394.38,-54.98C382.66,-46.92 364.83,-34.65 350.87,-25.03"/>
<polygon fill="#63b8ff" stroke="#63b8ff" points="352.57,-21.96 342.35,-19.17 348.6,-27.72 352.57,-21.96"/>
</a>
</g>
</g>
<!-- Node11&#45;&gt;Node15 -->
<g id="edge16_Node000011_Node000015" class="edge">
<title>Node11&#45;&gt;Node15</title>
<g id="a_edge16_Node000011_Node000015"><a xlink:title=" ">
<path fill="none" stroke="#63b8ff" d="M381.05,-54.98C352.48,-45.52 306.41,-30.26 276.36,-20.31"/>
<polygon fill="#63b8ff" stroke="#63b8ff" points="277.42,-16.97 266.83,-17.15 275.22,-23.62 277.42,-16.97"/>
</a>
</g>
</g>
</g>
</svg>
