<?xml version="1.0" encoding="UTF-8" standalone="no"?>
<!DOCTYPE svg PUBLIC "-//W3C//DTD SVG 1.1//EN"
 "http://www.w3.org/Graphics/SVG/1.1/DTD/svg11.dtd">
<!-- Generated by graphviz version 2.43.0 (0)
 -->
<!-- Title: include/guanaqo/linalg/sparsity.hpp Pages: 1 -->
<svg width="441pt" height="104pt"
 viewBox="0.00 0.00 440.50 104.00" xmlns="http://www.w3.org/2000/svg" xmlns:xlink="http://www.w3.org/1999/xlink">
<g id="graph0" class="graph" transform="scale(1 1) rotate(0) translate(4 100)">
<title>include/guanaqo/linalg/sparsity.hpp</title>
<!-- Node1 -->
<g id="Node000001" class="node">
<title>Node1</title>
<g id="a_Node000001"><a xlink:title="Sparse and dense sparsity descriptors.">
<polygon fill="#999999" stroke="#666666" points="272,-96 145,-96 145,-66 272,-66 272,-96"/>
<text text-anchor="start" x="153" y="-84" font-family="Helvetica,sans-Serif" font-size="10.00">include/guanaqo/linalg</text>
<text text-anchor="middle" x="208.5" y="-73" font-family="Helvetica,sans-Serif" font-size="10.00">/sparsity.hpp</text>
</a>
</g>
</g>
<!-- Node2 -->
<g id="Node000002" class="node">
<title>Node2</title>
<g id="a_Node000002"><a xlink:href="sparse_8hpp.html" target="_top" xlink:title="Eigen interop for sparse matrices.">
<polygon fill="white" stroke="#666666" points="127,-30 0,-30 0,0 127,0 127,-30"/>
<text text-anchor="start" x="8" y="-18" font-family="Helvetica,sans-Serif" font-size="10.00">include/guanaqo/linalg</text>
<text text-anchor="middle" x="63.5" y="-7" font-family="Helvetica,sans-Serif" font-size="10.00">/eigen/sparse.hpp</text>
</a>
</g>
</g>
<!-- Node1&#45;&gt;Node2 -->
<g id="edge1_Node000001_Node000002" class="edge">
<title>Node1&#45;&gt;Node2</title>
<g id="a_edge1_Node000001_Node000002"><a xlink:title=" ">
<path fill="none" stroke="#63b8ff" d="M167.23,-61.78C144.37,-51.69 116.38,-39.34 95.25,-30.01"/>
<polygon fill="#63b8ff" stroke="#63b8ff" points="166.12,-65.12 176.68,-65.95 168.94,-58.71 166.12,-65.12"/>
</a>
</g>
</g>
<!-- Node3 -->
<g id="Node000003" class="node">
<title>Node3</title>
<g id="a_Node000003"><a xlink:href="linalg_2matrix-view_8hpp.html" target="_top" xlink:title="Non&#45;owning view over values plus sparsity description.">
<polygon fill="white" stroke="#666666" points="272,-30 145,-30 145,0 272,0 272,-30"/>
<text text-anchor="start" x="153" y="-18" font-family="Helvetica,sans-Serif" font-size="10.00">include/guanaqo/linalg</text>
<text text-anchor="middle" x="208.5" y="-7" font-family="Helvetica,sans-Serif" font-size="10.00">/matrix&#45;view.hpp</text>
</a>
</g>
</g>
<!-- Node1&#45;&gt;Node3 -->
<g id="edge2_Node000001_Node000003" class="edge">
<title>Node1&#45;&gt;Node3</title>
<g id="a_edge2_Node000001_Node000003"><a xlink:title=" ">
<path fill="none" stroke="#63b8ff" d="M208.5,-55.54C208.5,-46.96 208.5,-37.61 208.5,-30.16"/>
<polygon fill="#63b8ff" stroke="#63b8ff" points="205,-55.8 208.5,-65.8 212,-55.8 205,-55.8"/>
</a>
</g>
</g>
<!-- Node4 -->
<g id="Node000004" class="node">
<title>Node4</title>
<g id="a_Node000004"><a xlink:href="sparsity-conversions_8hpp.html" target="_top" xlink:title="Convert between dense and sparse sparsity descriptors.">
<polygon fill="white" stroke="#666666" points="432.5,-30 290.5,-30 290.5,0 432.5,0 432.5,-30"/>
<text text-anchor="start" x="298.5" y="-18" font-family="Helvetica,sans-Serif" font-size="10.00">include/guanaqo/linalg</text>
<text text-anchor="middle" x="361.5" y="-7" font-family="Helvetica,sans-Serif" font-size="10.00">/sparsity&#45;conversions.hpp</text>
</a>
</g>
</g>
<!-- Node1&#45;&gt;Node4 -->
<g id="edge3_Node000001_Node000004" class="edge">
<title>Node1&#45;&gt;Node4</title>
<g id="a_edge3_Node000001_Node000004"><a xlink:title=" ">
<path fill="none" stroke="#63b8ff" d="M251.4,-62.05C275.64,-51.91 305.5,-39.43 328,-30.01"/>
<polygon fill="#63b8ff" stroke="#63b8ff" points="249.95,-58.87 242.08,-65.95 252.65,-65.32 249.95,-58.87"/>
</a>
</g>
</g>
</g>
</svg>
