<?xml version="1.0" encoding="UTF-8" standalone="no"?>
<!DOCTYPE svg PUBLIC "-//W3C//DTD SVG 1.1//EN"
 "http://www.w3.org/Graphics/SVG/1.1/DTD/svg11.dtd">
<!-- Generated by graphviz version 2.43.0 (0)
 -->
<!-- Title: include/guanaqo/stringify.h Pages: 1 -->
<svg width="499pt" height="148pt"
 viewBox="0.00 0.00 498.50 148.00" xmlns="http://www.w3.org/2000/svg" xmlns:xlink="http://www.w3.org/1999/xlink">
<g id="graph0" class="graph" transform="scale(1 1) rotate(0) translate(4 144)">
<title>include/guanaqo/stringify.h</title>
<!-- Node1 -->
<g id="Node000001" class="node">
<title>Node1</title>
<g id="a_Node000001"><a xlink:title="Stringify and token concatenation helpers.">
<polygon fill="#999999" stroke="#666666" points="320,-140 173,-140 173,-121 320,-121 320,-140"/>
<text text-anchor="middle" x="246.5" y="-128" font-family="Helvetica,sans-Serif" font-size="10.00">include/guanaqo/stringify.h</text>
</a>
</g>
</g>
<!-- Node2 -->
<g id="Node000002" class="node">
<title>Node2</title>
<g id="a_Node000002"><a xlink:href="assume_8hpp.html" target="_top" xlink:title="Assertion and assumption macros with debug/release semantics.">
<polygon fill="white" stroke="#666666" points="326,-85 167,-85 167,-66 326,-66 326,-85"/>
<text text-anchor="middle" x="246.5" y="-73" font-family="Helvetica,sans-Serif" font-size="10.00">include/guanaqo/assume.hpp</text>
</a>
</g>
</g>
<!-- Node1&#45;&gt;Node2 -->
<g id="edge1_Node000001_Node000002" class="edge">
<title>Node1&#45;&gt;Node2</title>
<g id="a_edge1_Node000001_Node000002"><a xlink:title=" ">
<path fill="none" stroke="#63b8ff" d="M246.5,-110.66C246.5,-101.93 246.5,-91.99 246.5,-85.09"/>
<polygon fill="#63b8ff" stroke="#63b8ff" points="243,-110.75 246.5,-120.75 250,-110.75 243,-110.75"/>
</a>
</g>
</g>
<!-- Node4 -->
<g id="Node000004" class="node">
<title>Node4</title>
<g id="a_Node000004"><a xlink:href="openmp_8h.html" target="_top" xlink:title="OpenMP helpers.">
<polygon fill="white" stroke="#666666" points="149,-85 0,-85 0,-66 149,-66 149,-85"/>
<text text-anchor="middle" x="74.5" y="-73" font-family="Helvetica,sans-Serif" font-size="10.00">include/guanaqo/openmp.h</text>
</a>
</g>
</g>
<!-- Node1&#45;&gt;Node4 -->
<g id="edge3_Node000001_Node000004" class="edge">
<title>Node1&#45;&gt;Node4</title>
<g id="a_edge3_Node000001_Node000004"><a xlink:title=" ">
<path fill="none" stroke="#63b8ff" d="M208.94,-117.93C176.82,-108.03 131.31,-94.01 102.35,-85.08"/>
<polygon fill="#63b8ff" stroke="#63b8ff" points="208.28,-121.38 218.87,-120.98 210.34,-114.69 208.28,-121.38"/>
</a>
</g>
</g>
<!-- Node6 -->
<g id="Node000006" class="node">
<title>Node6</title>
<g id="a_Node000006"><a xlink:href="trace_8hpp.html" target="_top" xlink:title="Tracing logger and macros (ITT, Perfetto, or fallback).">
<polygon fill="white" stroke="#666666" points="490.5,-85 344.5,-85 344.5,-66 490.5,-66 490.5,-85"/>
<text text-anchor="middle" x="417.5" y="-73" font-family="Helvetica,sans-Serif" font-size="10.00">include/guanaqo/trace.hpp</text>
</a>
</g>
</g>
<!-- Node1&#45;&gt;Node6 -->
<g id="edge5_Node000001_Node000006" class="edge">
<title>Node1&#45;&gt;Node6</title>
<g id="a_edge5_Node000001_Node000006"><a xlink:title=" ">
<path fill="none" stroke="#63b8ff" d="M283.84,-117.93C315.78,-108.03 361.02,-94.01 389.81,-85.08"/>
<polygon fill="#63b8ff" stroke="#63b8ff" points="282.49,-114.68 273.97,-120.98 284.56,-121.37 282.49,-114.68"/>
</a>
</g>
</g>
<!-- Node3 -->
<g id="Node000003" class="node">
<title>Node3</title>
<g id="a_Node000003"><a xlink:href="hl-blas-interface_8hpp.html" target="_top" xlink:title="This file provides simple overloaded wrappers around standard BLAS functions.">
<polygon fill="white" stroke="#666666" points="338.5,-30 194.5,-30 194.5,0 338.5,0 338.5,-30"/>
<text text-anchor="start" x="202.5" y="-18" font-family="Helvetica,sans-Serif" font-size="10.00">blas/include/guanaqo</text>
<text text-anchor="middle" x="266.5" y="-7" font-family="Helvetica,sans-Serif" font-size="10.00">/blas/hl&#45;blas&#45;interface.hpp</text>
</a>
</g>
</g>
<!-- Node2&#45;&gt;Node3 -->
<g id="edge2_Node000002_Node000003" class="edge">
<title>Node2&#45;&gt;Node3</title>
<g id="a_edge2_Node000002_Node000003"><a xlink:title=" ">
<path fill="none" stroke="#63b8ff" d="M252.75,-56.22C255.63,-47.79 258.99,-37.95 261.67,-30.11"/>
<polygon fill="#63b8ff" stroke="#63b8ff" points="249.37,-55.27 249.45,-65.87 256,-57.54 249.37,-55.27"/>
</a>
</g>
</g>
<!-- Node5 -->
<g id="Node000005" class="node">
<title>Node5</title>
<g id="a_Node000005"><a xlink:href="blas-interface_8cpp.html" target="_top" xlink:title=" ">
<polygon fill="white" stroke="#666666" points="147,-24.5 2,-24.5 2,-5.5 147,-5.5 147,-24.5"/>
<text text-anchor="middle" x="74.5" y="-12.5" font-family="Helvetica,sans-Serif" font-size="10.00">blas/src/blas&#45;interface.cpp</text>
</a>
</g>
</g>
<!-- Node4&#45;&gt;Node5 -->
<g id="edge4_Node000004_Node000005" class="edge">
<title>Node4&#45;&gt;Node5</title>
<g id="a_edge4_Node000004_Node000005"><a xlink:title=" ">
<path fill="none" stroke="#63b8ff" d="M74.5,-55.66C74.5,-45.24 74.5,-32.8 74.5,-24.67"/>
<polygon fill="#63b8ff" stroke="#63b8ff" points="71,-55.87 74.5,-65.87 78,-55.87 71,-55.87"/>
</a>
</g>
</g>
<!-- Node6&#45;&gt;Node3 -->
<g id="edge6_Node000006_Node000003" class="edge">
<title>Node6&#45;&gt;Node3</title>
<g id="a_edge6_Node000006_Node000003"><a xlink:title=" ">
<path fill="none" stroke="#63b8ff" d="M386.09,-62.33C361.83,-52.93 328.22,-39.91 302.8,-30.06"/>
<polygon fill="#63b8ff" stroke="#63b8ff" points="384.95,-65.64 395.54,-65.99 387.48,-59.12 384.95,-65.64"/>
</a>
</g>
</g>
<!-- Node7 -->
<g id="Node000007" class="node">
<title>Node7</title>
<g id="a_Node000007"><a xlink:href="trace_8cpp.html" target="_top" xlink:title=" ">
<polygon fill="white" stroke="#666666" points="457,-24.5 378,-24.5 378,-5.5 457,-5.5 457,-24.5"/>
<text text-anchor="middle" x="417.5" y="-12.5" font-family="Helvetica,sans-Serif" font-size="10.00">src/trace.cpp</text>
</a>
</g>
</g>
<!-- Node6&#45;&gt;Node7 -->
<g id="edge7_Node000006_Node000007" class="edge">
<title>Node6&#45;&gt;Node7</title>
<g id="a_edge7_Node000006_Node000007"><a xlink:title=" ">
<path fill="none" stroke="#63b8ff" d="M417.5,-55.66C417.5,-45.24 417.5,-32.8 417.5,-24.67"/>
<polygon fill="#63b8ff" stroke="#63b8ff" points="414,-55.87 417.5,-65.87 421,-55.87 414,-55.87"/>
</a>
</g>
</g>
</g>
</svg>
