<?xml version="1.0" encoding="UTF-8" standalone="no"?>
<!DOCTYPE svg PUBLIC "-//W3C//DTD SVG 1.1//EN"
 "http://www.w3.org/Graphics/SVG/1.1/DTD/svg11.dtd">
<!-- Generated by graphviz version 2.43.0 (0)
 -->
<!-- Title: guanaqo::default_stride&lt; S &gt; Pages: 1 -->
<svg width="163pt" height="159pt"
 viewBox="0.00 0.00 163.00 159.00" xmlns="http://www.w3.org/2000/svg" xmlns:xlink="http://www.w3.org/1999/xlink">

<svg id="main" version="1.1" xmlns="http://www.w3.org/2000/svg" xmlns:xlink="http://www.w3.org/1999/xlink" xml:space="preserve">

<style type="text/css"><![CDATA[
.node, .edge {opacity: 0.7;}
.node.selected, .edge.selected {opacity: 1;}
.edge:hover path { stroke: red; }
.edge:hover polygon { stroke: red; fill: red; }
]]></style>
<script type="application/ecmascript" xlink:href="svg.min.js"/>
<svg id="graph" class="graph">
<g id="graph0" class="graph" transform="scale(1 1) rotate(0) translate(4 155)">
<title>guanaqo::default_stride&lt; S &gt;</title>
<!-- Node1 -->
<g id="Node000001" class="node">
<title>Node1</title>
<g id="a_Node000001"><a xlink:title="Get the default stride value for a run&#45;time integer type.">
<polygon fill="#999999" stroke="transparent" points="155,-49 0,-49 0,0 155,0 155,-49"/>
<text text-anchor="start" x="5.5" y="-36.5" font-family="Helvetica,sans-Serif" font-size="10.00">guanaqo::default_stride&lt; S &gt;</text>
<text text-anchor="start" x="76" y="-21.5" font-family="Helvetica,sans-Serif" font-size="10.00"> </text>
<text text-anchor="start" x="76" y="-6.5" font-family="Helvetica,sans-Serif" font-size="10.00"> </text>
<polygon fill="#666666" stroke="#666666" points="0.5,-31.5 0.5,-31.5 155.5,-31.5 155.5,-31.5 0.5,-31.5"/>
<polygon fill="#666666" stroke="#666666" points="0.5,-16.5 0.5,-16.5 155.5,-16.5 155.5,-16.5 0.5,-16.5"/>
<polygon fill="none" stroke="#666666" points="0,0 0,-49 155,-49 155,0 0,0"/>
</a>
</g>
</g>
<!-- Node2 -->
<g id="Node000002" class="node">
<title>Node2</title>
<g id="a_Node000002"><a xlink:title=" ">
<polygon fill="white" stroke="transparent" points="86,-151 69,-151 69,-102 86,-102 86,-151"/>
<text text-anchor="start" x="74.5" y="-138.5" font-family="Helvetica,sans-Serif" font-size="10.00">S</text>
<text text-anchor="start" x="76" y="-123.5" font-family="Helvetica,sans-Serif" font-size="10.00"> </text>
<text text-anchor="start" x="76" y="-108.5" font-family="Helvetica,sans-Serif" font-size="10.00"> </text>
<polygon fill="#666666" stroke="#666666" points="69.5,-133.5 69.5,-133.5 86.5,-133.5 86.5,-133.5 69.5,-133.5"/>
<polygon fill="#666666" stroke="#666666" points="69.5,-118.5 69.5,-118.5 86.5,-118.5 86.5,-118.5 69.5,-118.5"/>
<polygon fill="none" stroke="#666666" points="69,-102 69,-151 86,-151 86,-102 69,-102"/>
</a>
</g>
</g>
<!-- Node2&#45;&gt;Node1 -->
<g id="edge1_Node000001_Node000002" class="edge">
<title>Node2&#45;&gt;Node1</title>
<g id="a_edge1_Node000001_Node000002"><a xlink:title=" ">
<path fill="none" stroke="#63b8ff" d="M77.5,-101.8C77.5,-89.72 77.5,-74.78 77.5,-61.33"/>
<polygon fill="none" stroke="#63b8ff" points="77.5,-61.03 73.5,-55.03 77.5,-49.03 81.5,-55.03 77.5,-61.03"/>
</a>
</g>
<text text-anchor="start" x="80.5" y="-72.5" font-family="Helvetica,sans-Serif" font-size="10.00" fill="grey">+value</text>
</g>
</g>
</svg>
</svg>

<style type='text/css'>
<![CDATA[
[data-mouse-over-selected='false'] { opacity: 0.7; }
[data-mouse-over-selected='true']  { opacity: 1.0; }
]]>
</style>
<script type="application/ecmascript"><![CDATA[
document.addEventListener('DOMContentLoaded', (event) => {
  highlightEdges();
  highlightAdjacentNodes();
});
]]></script>
</svg>
