<?xml version="1.0" encoding="UTF-8" standalone="no"?>
<!DOCTYPE svg PUBLIC "-//W3C//DTD SVG 1.1//EN"
 "http://www.w3.org/Graphics/SVG/1.1/DTD/svg11.dtd">
<!-- Generated by graphviz version 2.43.0 (0)
 -->
<!-- Title: guanaqo::linalg::sparsity::SparsityConverter&lt; SparseCSC&lt; Index, StorageIndex &gt;, Dense &gt; Pages: 1 -->
<svg width="187pt" height="323pt"
 viewBox="0.00 0.00 187.00 323.00" xmlns="http://www.w3.org/2000/svg" xmlns:xlink="http://www.w3.org/1999/xlink">

<svg id="main" version="1.1" xmlns="http://www.w3.org/2000/svg" xmlns:xlink="http://www.w3.org/1999/xlink" xml:space="preserve">

<style type="text/css"><![CDATA[
.node, .edge {opacity: 0.7;}
.node.selected, .edge.selected {opacity: 1;}
.edge:hover path { stroke: red; }
.edge:hover polygon { stroke: red; fill: red; }
]]></style>
<script type="application/ecmascript" xlink:href="svg.min.js"/>
<svg id="graph" class="graph">
<g id="graph0" class="graph" transform="scale(1 1) rotate(0) translate(4 319)">
<title>guanaqo::linalg::sparsity::SparsityConverter&lt; SparseCSC&lt; Index, StorageIndex &gt;, Dense &gt;</title>
<!-- Node1 -->
<g id="Node000001" class="node">
<title>Node1</title>
<g id="a_Node000001"><a xlink:title="Conversion from CSC to dense format.">
<polygon fill="#999999" stroke="transparent" points="179,-172 0,-172 0,0 179,0 179,-172"/>
<text text-anchor="start" x="5.5" y="-160" font-family="Helvetica,sans-Serif" font-size="10.00">guanaqo::linalg::sparsity</text>
<text text-anchor="start" x="5.5" y="-149" font-family="Helvetica,sans-Serif" font-size="10.00">::SparsityConverter&lt; SparseCSC</text>
<text text-anchor="start" x="5.5" y="-138" font-family="Helvetica,sans-Serif" font-size="10.00">&lt; Index, StorageIndex &gt;, Dense &gt;</text>
<text text-anchor="start" x="12" y="-123" font-family="Helvetica,sans-Serif" font-size="10.00">+</text>
<text text-anchor="start" x="32.5" y="-123" font-family="Helvetica,sans-Serif" font-size="10.00">from_sparsity</text>
<text text-anchor="start" x="12" y="-108" font-family="Helvetica,sans-Serif" font-size="10.00">+</text>
<text text-anchor="start" x="32.5" y="-108" font-family="Helvetica,sans-Serif" font-size="10.00">convert_sparsity()</text>
<text text-anchor="start" x="12" y="-93" font-family="Helvetica,sans-Serif" font-size="10.00">+</text>
<text text-anchor="start" x="32.5" y="-93" font-family="Helvetica,sans-Serif" font-size="10.00">SparsityConverter()</text>
<text text-anchor="start" x="12" y="-78" font-family="Helvetica,sans-Serif" font-size="10.00">+</text>
<text text-anchor="start" x="32.5" y="-78" font-family="Helvetica,sans-Serif" font-size="10.00">operator const to_sparsity</text>
<text text-anchor="start" x="32.5" y="-67" font-family="Helvetica,sans-Serif" font-size="10.00">_t &amp;()</text>
<text text-anchor="start" x="12" y="-52" font-family="Helvetica,sans-Serif" font-size="10.00">+</text>
<text text-anchor="start" x="32.5" y="-52" font-family="Helvetica,sans-Serif" font-size="10.00">get_sparsity()</text>
<text text-anchor="start" x="12" y="-37" font-family="Helvetica,sans-Serif" font-size="10.00">+</text>
<text text-anchor="start" x="32.5" y="-37" font-family="Helvetica,sans-Serif" font-size="10.00">work_size()</text>
<text text-anchor="start" x="12" y="-22" font-family="Helvetica,sans-Serif" font-size="10.00">+</text>
<text text-anchor="start" x="32.5" y="-22" font-family="Helvetica,sans-Serif" font-size="10.00">nnz_from()</text>
<text text-anchor="start" x="12" y="-7" font-family="Helvetica,sans-Serif" font-size="10.00">+</text>
<text text-anchor="start" x="32.5" y="-7" font-family="Helvetica,sans-Serif" font-size="10.00">convert_values()</text>
<polygon fill="#666666" stroke="#666666" points="0.5,-133 0.5,-133 179.5,-133 179.5,-133 0.5,-133"/>
<polygon fill="#666666" stroke="#666666" points="0.5,-118 0.5,-118 30.5,-118 30.5,-118 0.5,-118"/>
<polygon fill="#666666" stroke="#666666" points="30.5,-118 30.5,-118 179.5,-118 179.5,-118 30.5,-118"/>
<polygon fill="none" stroke="#666666" points="0,0 0,-172 179,-172 179,0 0,0"/>
</a>
</g>
</g>
<!-- Node2 -->
<g id="Node000002" class="node">
<title>Node2</title>
<g id="a_Node000002"><a xlink:href="group__linalg__sparsity.html#structguanaqo_1_1linalg_1_1sparsity_1_1Dense" target="_top" xlink:title="Dense matrix structure.">
<polygon fill="white" stroke="transparent" points="155,-315 24,-315 24,-225 155,-225 155,-315"/>
<text text-anchor="start" x="29.5" y="-303" font-family="Helvetica,sans-Serif" font-size="10.00">guanaqo::linalg::sparsity</text>
<text text-anchor="start" x="71.5" y="-292" font-family="Helvetica,sans-Serif" font-size="10.00">::Dense</text>
<text text-anchor="start" x="43" y="-277" font-family="Helvetica,sans-Serif" font-size="10.00">+</text>
<text text-anchor="start" x="70.5" y="-277" font-family="Helvetica,sans-Serif" font-size="10.00">rows</text>
<text text-anchor="start" x="43" y="-262" font-family="Helvetica,sans-Serif" font-size="10.00">+</text>
<text text-anchor="start" x="70.5" y="-262" font-family="Helvetica,sans-Serif" font-size="10.00">cols</text>
<text text-anchor="start" x="43" y="-247" font-family="Helvetica,sans-Serif" font-size="10.00">+</text>
<text text-anchor="start" x="70.5" y="-247" font-family="Helvetica,sans-Serif" font-size="10.00">symmetry</text>
<text text-anchor="start" x="88" y="-232" font-family="Helvetica,sans-Serif" font-size="10.00"> </text>
<polygon fill="#666666" stroke="#666666" points="24.5,-287 24.5,-287 155.5,-287 155.5,-287 24.5,-287"/>
<polygon fill="#666666" stroke="#666666" points="24.5,-242 24.5,-242 68.5,-242 68.5,-242 24.5,-242"/>
<polygon fill="#666666" stroke="#666666" points="68.5,-242 68.5,-242 155.5,-242 155.5,-242 68.5,-242"/>
<polygon fill="none" stroke="#666666" points="24,-225 24,-315 155,-315 155,-225 24,-225"/>
</a>
</g>
</g>
<!-- Node2&#45;&gt;Node1 -->
<g id="edge1_Node000001_Node000002" class="edge">
<title>Node2&#45;&gt;Node1</title>
<g id="a_edge1_Node000001_Node000002"><a xlink:title=" ">
<path fill="none" stroke="#63b8ff" d="M89.5,-224.94C89.5,-212.66 89.5,-198.8 89.5,-184.72"/>
<polygon fill="none" stroke="#63b8ff" points="89.5,-184.33 85.5,-178.33 89.5,-172.33 93.5,-178.33 89.5,-184.33"/>
</a>
</g>
<text text-anchor="start" x="92.5" y="-195.5" font-family="Helvetica,sans-Serif" font-size="10.00" fill="grey">+sparsity</text>
</g>
</g>
</svg>
</svg>

<style type='text/css'>
<![CDATA[
[data-mouse-over-selected='false'] { opacity: 0.7; }
[data-mouse-over-selected='true']  { opacity: 1.0; }
]]>
</style>
<script type="application/ecmascript"><![CDATA[
document.addEventListener('DOMContentLoaded', (event) => {
  highlightEdges();
  highlightAdjacentNodes();
});
]]></script>
</svg>
