<?xml version="1.0" encoding="UTF-8" standalone="no"?>
<!DOCTYPE svg PUBLIC "-//W3C//DTD SVG 1.1//EN"
 "http://www.w3.org/Graphics/SVG/1.1/DTD/svg11.dtd">
<!-- Generated by graphviz version 2.43.0 (0)
 -->
<!-- Title: guanaqo::enumerate_t&lt; Rng &gt; Pages: 1 -->
<svg width="151pt" height="209pt"
 viewBox="0.00 0.00 151.00 209.00" xmlns="http://www.w3.org/2000/svg" xmlns:xlink="http://www.w3.org/1999/xlink">
<g id="graph0" class="graph" transform="scale(1 1) rotate(0) translate(4 205)">
<title>guanaqo::enumerate_t&lt; Rng &gt;</title>
<!-- Node1 -->
<g id="Node000001" class="node">
<title>Node1</title>
<g id="a_Node000001"><a xlink:title=" ">
<polygon fill="#999999" stroke="transparent" points="127.5,-105 15.5,-105 15.5,0 127.5,0 127.5,-105"/>
<text text-anchor="start" x="20.5" y="-92.5" font-family="Helvetica,sans-Serif" font-size="10.00">guanaqo::enumerate</text>
<text text-anchor="start" x="46" y="-81.5" font-family="Helvetica,sans-Serif" font-size="10.00">_t&lt; Rng &gt;</text>
<text text-anchor="start" x="24.5" y="-66.5" font-family="Helvetica,sans-Serif" font-size="10.00">+</text>
<text text-anchor="start" x="42.5" y="-66.5" font-family="Helvetica,sans-Serif" font-size="10.00">rng</text>
<text text-anchor="start" x="24.5" y="-51.5" font-family="Helvetica,sans-Serif" font-size="10.00">+</text>
<text text-anchor="start" x="42.5" y="-51.5" font-family="Helvetica,sans-Serif" font-size="10.00">enumerate_t()</text>
<text text-anchor="start" x="24.5" y="-36.5" font-family="Helvetica,sans-Serif" font-size="10.00">+</text>
<text text-anchor="start" x="42.5" y="-36.5" font-family="Helvetica,sans-Serif" font-size="10.00">enumerate_t()</text>
<text text-anchor="start" x="24.5" y="-21.5" font-family="Helvetica,sans-Serif" font-size="10.00">+</text>
<text text-anchor="start" x="42.5" y="-21.5" font-family="Helvetica,sans-Serif" font-size="10.00">begin()</text>
<text text-anchor="start" x="24.5" y="-6.5" font-family="Helvetica,sans-Serif" font-size="10.00">+</text>
<text text-anchor="start" x="42.5" y="-6.5" font-family="Helvetica,sans-Serif" font-size="10.00">end()</text>
<polygon fill="#666666" stroke="#666666" points="15.5,-76.5 15.5,-76.5 127.5,-76.5 127.5,-76.5 15.5,-76.5"/>
<polygon fill="#666666" stroke="#666666" points="15.5,-61.5 15.5,-61.5 40.5,-61.5 40.5,-61.5 15.5,-61.5"/>
<polygon fill="#666666" stroke="#666666" points="40.5,-61.5 40.5,-61.5 127.5,-61.5 127.5,-61.5 40.5,-61.5"/>
<polygon fill="none" stroke="#666666" points="15.5,0 15.5,-105 127.5,-105 127.5,0 15.5,0"/>
</a>
</g>
</g>
<!-- Node2 -->
<g id="Node000002" class="node">
<title>Node2</title>
<g id="a_Node000002"><a xlink:title=" ">
<polygon fill="white" stroke="transparent" points="143,-201 0,-201 0,-141 143,-141 143,-201"/>
<text text-anchor="start" x="5.5" y="-189" font-family="Helvetica,sans-Serif" font-size="10.00">std::ranges::view_interface</text>
<text text-anchor="start" x="8.5" y="-178" font-family="Helvetica,sans-Serif" font-size="10.00">&lt; enumerate_t&lt; Rng &gt; &gt;</text>
<text text-anchor="start" x="70" y="-163" font-family="Helvetica,sans-Serif" font-size="10.00"> </text>
<text text-anchor="start" x="70" y="-148" font-family="Helvetica,sans-Serif" font-size="10.00"> </text>
<polygon fill="#666666" stroke="#666666" points="0.5,-173 0.5,-173 143.5,-173 143.5,-173 0.5,-173"/>
<polygon fill="#666666" stroke="#666666" points="0.5,-158 0.5,-158 143.5,-158 143.5,-158 0.5,-158"/>
<polygon fill="none" stroke="#666666" points="0,-141 0,-201 143,-201 143,-141 0,-141"/>
</a>
</g>
</g>
<!-- Node2&#45;&gt;Node1 -->
<g id="edge1_Node000001_Node000002" class="edge">
<title>Node2&#45;&gt;Node1</title>
<g id="a_edge1_Node000001_Node000002"><a xlink:title=" ">
<path fill="none" stroke="#63b8ff" d="M71.5,-130.88C71.5,-122.68 71.5,-113.92 71.5,-105.34"/>
<polygon fill="none" stroke="#63b8ff" points="68,-130.9 71.5,-140.9 75,-130.9 68,-130.9"/>
</a>
</g>
</g>
</g>
</svg>
