<?xml version="1.0" encoding="UTF-8" standalone="no"?>
<!DOCTYPE svg PUBLIC "-//W3C//DTD SVG 1.1//EN"
 "http://www.w3.org/Graphics/SVG/1.1/DTD/svg11.dtd">
<!-- Generated by graphviz version 2.43.0 (0)
 -->
<!-- Title: guanaqo::linalg::sparsity::SparsityConverter&lt; SparseCSC&lt; IndexFrom, StorageIndexFrom &gt;, SparseCSC&lt; IndexTo, StorageIndexTo &gt; &gt; Pages: 1 -->
<svg width="241pt" height="409pt"
 viewBox="0.00 0.00 241.00 409.00" xmlns="http://www.w3.org/2000/svg" xmlns:xlink="http://www.w3.org/1999/xlink">
<g id="graph0" class="graph" transform="scale(1 1) rotate(0) translate(4 405)">
<title>guanaqo::linalg::sparsity::SparsityConverter&lt; SparseCSC&lt; IndexFrom, StorageIndexFrom &gt;, SparseCSC&lt; IndexTo, StorageIndexTo &gt; &gt;</title>
<!-- Node1 -->
<g id="Node000001" class="node">
<title>Node1</title>
<g id="a_Node000001"><a xlink:title="Conversion from CSC to CSC format (with possibly different index types and sorting).">
<polygon fill="#999999" stroke="transparent" points="233,-213 0,-213 0,0 233,0 233,-213"/>
<text text-anchor="start" x="5.5" y="-200.5" font-family="Helvetica,sans-Serif" font-size="10.00">guanaqo::linalg::sparsity</text>
<text text-anchor="start" x="5.5" y="-189.5" font-family="Helvetica,sans-Serif" font-size="10.00">::SparsityConverter&lt; SparseCSC</text>
<text text-anchor="start" x="5.5" y="-178.5" font-family="Helvetica,sans-Serif" font-size="10.00">&lt; IndexFrom, StorageIndexFrom</text>
<text text-anchor="start" x="5.5" y="-167.5" font-family="Helvetica,sans-Serif" font-size="10.00"> &gt;, SparseCSC&lt; IndexTo, StorageIndexTo &gt; &gt;</text>
<text text-anchor="start" x="25.5" y="-152.5" font-family="Helvetica,sans-Serif" font-size="10.00">+</text>
<text text-anchor="start" x="59.5" y="-152.5" font-family="Helvetica,sans-Serif" font-size="10.00">inner_idx</text>
<text text-anchor="start" x="25.5" y="-137.5" font-family="Helvetica,sans-Serif" font-size="10.00">+</text>
<text text-anchor="start" x="59.5" y="-137.5" font-family="Helvetica,sans-Serif" font-size="10.00">outer_ptr</text>
<text text-anchor="start" x="25.5" y="-122.5" font-family="Helvetica,sans-Serif" font-size="10.00">+</text>
<text text-anchor="start" x="59.5" y="-122.5" font-family="Helvetica,sans-Serif" font-size="10.00">permutation</text>
<text text-anchor="start" x="25.5" y="-107.5" font-family="Helvetica,sans-Serif" font-size="10.00">+</text>
<text text-anchor="start" x="59.5" y="-107.5" font-family="Helvetica,sans-Serif" font-size="10.00">convert_sparsity()</text>
<text text-anchor="start" x="25.5" y="-92.5" font-family="Helvetica,sans-Serif" font-size="10.00">+</text>
<text text-anchor="start" x="59.5" y="-92.5" font-family="Helvetica,sans-Serif" font-size="10.00">SparsityConverter()</text>
<text text-anchor="start" x="25.5" y="-77.5" font-family="Helvetica,sans-Serif" font-size="10.00">+</text>
<text text-anchor="start" x="59.5" y="-77.5" font-family="Helvetica,sans-Serif" font-size="10.00">operator const to_sparsity</text>
<text text-anchor="start" x="59.5" y="-66.5" font-family="Helvetica,sans-Serif" font-size="10.00">_t &amp;()</text>
<text text-anchor="start" x="25.5" y="-51.5" font-family="Helvetica,sans-Serif" font-size="10.00">+</text>
<text text-anchor="start" x="59.5" y="-51.5" font-family="Helvetica,sans-Serif" font-size="10.00">get_sparsity()</text>
<text text-anchor="start" x="25.5" y="-36.5" font-family="Helvetica,sans-Serif" font-size="10.00">+</text>
<text text-anchor="start" x="59.5" y="-36.5" font-family="Helvetica,sans-Serif" font-size="10.00">work_size()</text>
<text text-anchor="start" x="25.5" y="-21.5" font-family="Helvetica,sans-Serif" font-size="10.00">+</text>
<text text-anchor="start" x="59.5" y="-21.5" font-family="Helvetica,sans-Serif" font-size="10.00">nnz_from()</text>
<text text-anchor="start" x="25.5" y="-6.5" font-family="Helvetica,sans-Serif" font-size="10.00">+</text>
<text text-anchor="start" x="59.5" y="-6.5" font-family="Helvetica,sans-Serif" font-size="10.00">convert_values()</text>
<polygon fill="#666666" stroke="#666666" points="0.5,-162.5 0.5,-162.5 233.5,-162.5 233.5,-162.5 0.5,-162.5"/>
<polygon fill="#666666" stroke="#666666" points="0.5,-117.5 0.5,-117.5 57.5,-117.5 57.5,-117.5 0.5,-117.5"/>
<polygon fill="#666666" stroke="#666666" points="57.5,-117.5 57.5,-117.5 233.5,-117.5 233.5,-117.5 57.5,-117.5"/>
<polygon fill="none" stroke="#666666" points="0,0 0,-213 233,-213 233,0 0,0"/>
</a>
</g>
</g>
<!-- Node2 -->
<g id="Node000002" class="node">
<title>Node2</title>
<g id="a_Node000002"><a xlink:href="structguanaqo_1_1linalg_1_1sparsity_1_1SparseCSC.html" target="_top" xlink:title=" ">
<polygon fill="white" stroke="transparent" points="221.5,-401 11.5,-401 11.5,-266 221.5,-266 221.5,-401"/>
<text text-anchor="start" x="16.5" y="-388.5" font-family="Helvetica,sans-Serif" font-size="10.00">guanaqo::linalg::sparsity</text>
<text text-anchor="start" x="16.5" y="-377.5" font-family="Helvetica,sans-Serif" font-size="10.00">::SparseCSC&lt; IndexTo, StorageIndexTo &gt;</text>
<text text-anchor="start" x="50" y="-362.5" font-family="Helvetica,sans-Serif" font-size="10.00">+</text>
<text text-anchor="start" x="97.5" y="-362.5" font-family="Helvetica,sans-Serif" font-size="10.00">rows</text>
<text text-anchor="start" x="50" y="-347.5" font-family="Helvetica,sans-Serif" font-size="10.00">+</text>
<text text-anchor="start" x="97.5" y="-347.5" font-family="Helvetica,sans-Serif" font-size="10.00">cols</text>
<text text-anchor="start" x="50" y="-332.5" font-family="Helvetica,sans-Serif" font-size="10.00">+</text>
<text text-anchor="start" x="97.5" y="-332.5" font-family="Helvetica,sans-Serif" font-size="10.00">symmetry</text>
<text text-anchor="start" x="50" y="-317.5" font-family="Helvetica,sans-Serif" font-size="10.00">+</text>
<text text-anchor="start" x="97.5" y="-317.5" font-family="Helvetica,sans-Serif" font-size="10.00">inner_idx</text>
<text text-anchor="start" x="50" y="-302.5" font-family="Helvetica,sans-Serif" font-size="10.00">+</text>
<text text-anchor="start" x="97.5" y="-302.5" font-family="Helvetica,sans-Serif" font-size="10.00">outer_ptr</text>
<text text-anchor="start" x="50" y="-287.5" font-family="Helvetica,sans-Serif" font-size="10.00">+</text>
<text text-anchor="start" x="97.5" y="-287.5" font-family="Helvetica,sans-Serif" font-size="10.00">order</text>
<text text-anchor="start" x="50" y="-272.5" font-family="Helvetica,sans-Serif" font-size="10.00">+</text>
<text text-anchor="start" x="97.5" y="-272.5" font-family="Helvetica,sans-Serif" font-size="10.00">nnz()</text>
<polygon fill="#666666" stroke="#666666" points="11.5,-372.5 11.5,-372.5 221.5,-372.5 221.5,-372.5 11.5,-372.5"/>
<polygon fill="#666666" stroke="#666666" points="11.5,-282.5 11.5,-282.5 95.5,-282.5 95.5,-282.5 11.5,-282.5"/>
<polygon fill="#666666" stroke="#666666" points="95.5,-282.5 95.5,-282.5 221.5,-282.5 221.5,-282.5 95.5,-282.5"/>
<polygon fill="none" stroke="#666666" points="11.5,-266 11.5,-401 221.5,-401 221.5,-266 11.5,-266"/>
</a>
</g>
</g>
<!-- Node2&#45;&gt;Node1 -->
<g id="edge1_Node000001_Node000002" class="edge">
<title>Node2&#45;&gt;Node1</title>
<g id="a_edge1_Node000001_Node000002"><a xlink:title=" ">
<path fill="none" stroke="#63b8ff" d="M116.5,-265.91C116.5,-253.08 116.5,-239.29 116.5,-225.39"/>
<polygon fill="none" stroke="#63b8ff" points="116.5,-225.16 112.5,-219.16 116.5,-213.16 120.5,-219.16 116.5,-225.16"/>
</a>
</g>
<text text-anchor="start" x="119.5" y="-236.5" font-family="Helvetica,sans-Serif" font-size="10.00" fill="grey">+sparsity</text>
</g>
</g>
</svg>
