<?xml version="1.0" encoding="UTF-8" standalone="no"?>
<!DOCTYPE svg PUBLIC "-//W3C//DTD SVG 1.1//EN"
 "http://www.w3.org/Graphics/SVG/1.1/DTD/svg11.dtd">
<!-- Generated by graphviz version 2.43.0 (0)
 -->
<!-- Title: guanaqo::TypeErased::Deallocator::Deallocator Pages: 1 -->
<svg width="326pt" height="182pt"
 viewBox="0.00 0.00 326.00 182.00" xmlns="http://www.w3.org/2000/svg" xmlns:xlink="http://www.w3.org/1999/xlink">

<svg id="main" version="1.1" xmlns="http://www.w3.org/2000/svg" xmlns:xlink="http://www.w3.org/1999/xlink" xml:space="preserve">

<style type="text/css"><![CDATA[
.node, .edge {opacity: 0.7;}
.node.selected, .edge.selected {opacity: 1;}
.edge:hover path { stroke: red; }
.edge:hover polygon { stroke: red; fill: red; }
]]></style>
<script type="application/ecmascript" xlink:href="svg.min.js"/>
<svg id="graph" class="graph">
<g id="graph0" class="graph" transform="scale(1 1) rotate(0) translate(4 178)">
<title>guanaqo::TypeErased::Deallocator::Deallocator</title>
<!-- Node1 -->
<g id="Node000001" class="node">
<title>Node1</title>
<g id="a_Node000001"><a xlink:title=" ">
<polygon fill="#999999" stroke="#666666" points="318,-102 177,-102 177,-72 318,-72 318,-102"/>
<text text-anchor="start" x="185" y="-90" font-family="Helvetica,sans-Serif" font-size="10.00">guanaqo::TypeErased</text>
<text text-anchor="middle" x="247.5" y="-79" font-family="Helvetica,sans-Serif" font-size="10.00">::Deallocator::Deallocator</text>
</a>
</g>
</g>
<!-- Node2 -->
<g id="Node000002" class="node">
<title>Node2</title>
<g id="a_Node000002"><a xlink:href="structguanaqo_1_1TypeErased_1_1Deallocator.html#a3521af77343bff13033d5d594d60379c" target="_top" xlink:title=" ">
<polygon fill="white" stroke="#666666" points="141,-174 0,-174 0,-144 141,-144 141,-174"/>
<text text-anchor="start" x="8" y="-162" font-family="Helvetica,sans-Serif" font-size="10.00">guanaqo::TypeErased</text>
<text text-anchor="middle" x="70.5" y="-151" font-family="Helvetica,sans-Serif" font-size="10.00">::Deallocator::Deallocator</text>
</a>
</g>
</g>
<!-- Node1&#45;&gt;Node2 -->
<g id="edge1_Node000001_Node000002" class="edge">
<title>Node1&#45;&gt;Node2</title>
<g id="a_edge1_Node000001_Node000002"><a xlink:title=" ">
<path fill="none" stroke="#63b8ff" d="M206.24,-106.4C186.73,-115.52 162.84,-126.28 141,-135 133.29,-138.08 125.02,-141.14 116.96,-143.99"/>
<polygon fill="#63b8ff" stroke="#63b8ff" points="207.89,-109.49 215.44,-102.07 204.9,-103.16 207.89,-109.49"/>
</a>
</g>
</g>
<!-- Node3 -->
<g id="Node000003" class="node">
<title>Node3</title>
<g id="a_Node000003"><a xlink:href="structguanaqo_1_1TypeErased_1_1Deallocator.html#a3fe2afce7c95dab44fb2f3da30f87fde" target="_top" xlink:title=" ">
<polygon fill="white" stroke="#666666" points="141,-126 0,-126 0,-96 141,-96 141,-126"/>
<text text-anchor="start" x="8" y="-114" font-family="Helvetica,sans-Serif" font-size="10.00">guanaqo::TypeErased</text>
<text text-anchor="middle" x="70.5" y="-103" font-family="Helvetica,sans-Serif" font-size="10.00">::Deallocator::Deallocator</text>
</a>
</g>
</g>
<!-- Node1&#45;&gt;Node3 -->
<g id="edge2_Node000001_Node000003" class="edge">
<title>Node1&#45;&gt;Node3</title>
<g id="a_edge2_Node000001_Node000003"><a xlink:title=" ">
<path fill="none" stroke="#63b8ff" d="M166.85,-97.92C158.3,-99.1 149.64,-100.28 141.21,-101.44"/>
<polygon fill="#63b8ff" stroke="#63b8ff" points="167.4,-101.38 176.83,-96.55 166.45,-94.45 167.4,-101.38"/>
</a>
</g>
</g>
<!-- Node4 -->
<g id="Node000004" class="node">
<title>Node4</title>
<g id="a_Node000004"><a xlink:href="structguanaqo_1_1TypeErased_1_1Deallocator.html#a64f75f9631d8dbf5f9a1a0deb1314d47" target="_top" xlink:title=" ">
<polygon fill="white" stroke="#666666" points="137.5,-78 3.5,-78 3.5,-48 137.5,-48 137.5,-78"/>
<text text-anchor="start" x="11.5" y="-66" font-family="Helvetica,sans-Serif" font-size="10.00">guanaqo::TypeErased</text>
<text text-anchor="middle" x="70.5" y="-55" font-family="Helvetica,sans-Serif" font-size="10.00">::Deallocator::operator=</text>
</a>
</g>
</g>
<!-- Node1&#45;&gt;Node4 -->
<g id="edge3_Node000001_Node000004" class="edge">
<title>Node1&#45;&gt;Node4</title>
<g id="a_edge3_Node000001_Node000004"><a xlink:title=" ">
<path fill="none" stroke="#63b8ff" d="M166.72,-76.06C156.95,-74.72 147.05,-73.36 137.51,-72.05"/>
<polygon fill="#63b8ff" stroke="#63b8ff" points="166.45,-79.55 176.83,-77.45 167.4,-72.62 166.45,-79.55"/>
</a>
</g>
</g>
<!-- Node5 -->
<g id="Node000005" class="node">
<title>Node5</title>
<g id="a_Node000005"><a xlink:href="structguanaqo_1_1TypeErased_1_1Deallocator.html#a489fc6895dc3ac41139ac1be3626f769" target="_top" xlink:title=" ">
<polygon fill="white" stroke="#666666" points="137.5,-30 3.5,-30 3.5,0 137.5,0 137.5,-30"/>
<text text-anchor="start" x="11.5" y="-18" font-family="Helvetica,sans-Serif" font-size="10.00">guanaqo::TypeErased</text>
<text text-anchor="middle" x="70.5" y="-7" font-family="Helvetica,sans-Serif" font-size="10.00">::Deallocator::operator=</text>
</a>
</g>
</g>
<!-- Node1&#45;&gt;Node5 -->
<g id="edge4_Node000001_Node000005" class="edge">
<title>Node1&#45;&gt;Node5</title>
<g id="a_edge4_Node000001_Node000005"><a xlink:title=" ">
<path fill="none" stroke="#63b8ff" d="M206.24,-67.6C186.73,-58.48 162.84,-47.72 141,-39 133.29,-35.92 125.02,-32.86 116.96,-30.01"/>
<polygon fill="#63b8ff" stroke="#63b8ff" points="204.9,-70.84 215.44,-71.93 207.89,-64.51 204.9,-70.84"/>
</a>
</g>
</g>
</g>
</svg>
</svg>

<style type='text/css'>
<![CDATA[
[data-mouse-over-selected='false'] { opacity: 0.7; }
[data-mouse-over-selected='true']  { opacity: 1.0; }
]]>
</style>
<script type="application/ecmascript"><![CDATA[
document.addEventListener('DOMContentLoaded', (event) => {
  highlightEdges();
  highlightAdjacentNodes();
});
]]></script>
</svg>
