<?xml version="1.0" encoding="UTF-8" standalone="no"?>
<!DOCTYPE svg PUBLIC "-//W3C//DTD SVG 1.1//EN"
 "http://www.w3.org/Graphics/SVG/1.1/DTD/svg11.dtd">
<!-- Generated by graphviz version 2.43.0 (0)
 -->
<!-- Title: guanaqo::linalg::sparsity::unsupported_conversion Pages: 1 -->
<svg width="144pt" height="153pt"
 viewBox="0.00 0.00 144.00 153.00" xmlns="http://www.w3.org/2000/svg" xmlns:xlink="http://www.w3.org/1999/xlink">
<g id="graph0" class="graph" transform="scale(1 1) rotate(0) translate(4 149)">
<title>guanaqo::linalg::sparsity::unsupported_conversion</title>
<!-- Node1 -->
<g id="Node000001" class="node">
<title>Node1</title>
<g id="a_Node000001"><a xlink:title="The requested conversion between sparsity structures could not be performed (most likely because cert...">
<polygon fill="#999999" stroke="transparent" points="136,-60 0,-60 0,0 136,0 136,-60"/>
<text text-anchor="start" x="5" y="-48" font-family="Helvetica,sans-Serif" font-size="10.00">guanaqo::linalg::sparsity</text>
<text text-anchor="start" x="5" y="-37" font-family="Helvetica,sans-Serif" font-size="10.00">::unsupported_conversion</text>
<text text-anchor="start" x="66" y="-22" font-family="Helvetica,sans-Serif" font-size="10.00"> </text>
<text text-anchor="start" x="66" y="-7" font-family="Helvetica,sans-Serif" font-size="10.00"> </text>
<polygon fill="#666666" stroke="#666666" points="0,-32 0,-32 136,-32 136,-32 0,-32"/>
<polygon fill="#666666" stroke="#666666" points="0,-17 0,-17 136,-17 136,-17 0,-17"/>
<polygon fill="none" stroke="#666666" points="0,0 0,-60 136,-60 136,0 0,0"/>
</a>
</g>
</g>
<!-- Node2 -->
<g id="Node000002" class="node">
<title>Node2</title>
<g id="a_Node000002"><a xlink:title=" ">
<polygon fill="white" stroke="transparent" points="109.5,-145 26.5,-145 26.5,-96 109.5,-96 109.5,-145"/>
<text text-anchor="start" x="32" y="-132.5" font-family="Helvetica,sans-Serif" font-size="10.00">std::logic_error</text>
<text text-anchor="start" x="66.5" y="-117.5" font-family="Helvetica,sans-Serif" font-size="10.00"> </text>
<text text-anchor="start" x="66.5" y="-102.5" font-family="Helvetica,sans-Serif" font-size="10.00"> </text>
<polygon fill="#666666" stroke="#666666" points="27,-127.5 27,-127.5 110,-127.5 110,-127.5 27,-127.5"/>
<polygon fill="#666666" stroke="#666666" points="27,-112.5 27,-112.5 110,-112.5 110,-112.5 27,-112.5"/>
<polygon fill="none" stroke="#666666" points="26.5,-96 26.5,-145 109.5,-145 109.5,-96 26.5,-96"/>
</a>
</g>
</g>
<!-- Node2&#45;&gt;Node1 -->
<g id="edge1_Node000001_Node000002" class="edge">
<title>Node2&#45;&gt;Node1</title>
<g id="a_edge1_Node000001_Node000002"><a xlink:title=" ">
<path fill="none" stroke="#63b8ff" d="M68,-85.55C68,-77.18 68,-68.28 68,-60.16"/>
<polygon fill="none" stroke="#63b8ff" points="64.5,-85.78 68,-95.78 71.5,-85.78 64.5,-85.78"/>
</a>
</g>
</g>
</g>
</svg>
