<?xml version="1.0" encoding="UTF-8" standalone="no"?>
<!DOCTYPE svg PUBLIC "-//W3C//DTD SVG 1.1//EN"
 "http://www.w3.org/Graphics/SVG/1.1/DTD/svg11.dtd">
<!-- Generated by graphviz version 2.43.0 (0)
 -->
<!-- Title: guanaqo::set_intersection_iterable::iter_t::iter_t Pages: 1 -->
<svg width="342pt" height="182pt"
 viewBox="0.00 0.00 342.00 182.00" xmlns="http://www.w3.org/2000/svg" xmlns:xlink="http://www.w3.org/1999/xlink">
<g id="graph0" class="graph" transform="scale(1 1) rotate(0) translate(4 178)">
<title>guanaqo::set_intersection_iterable::iter_t::iter_t</title>
<!-- Node1 -->
<g id="Node000001" class="node">
<title>Node1</title>
<g id="a_Node000001"><a xlink:title=" ">
<polygon fill="#999999" stroke="#666666" points="334,-102 191,-102 191,-72 334,-72 334,-102"/>
<text text-anchor="start" x="199" y="-90" font-family="Helvetica,sans-Serif" font-size="10.00">guanaqo::set_intersection</text>
<text text-anchor="middle" x="262.5" y="-79" font-family="Helvetica,sans-Serif" font-size="10.00">_iterable::iter_t::iter_t</text>
</a>
</g>
</g>
<!-- Node2 -->
<g id="Node000002" class="node">
<title>Node2</title>
<g id="a_Node000002"><a xlink:href="structguanaqo_1_1set__intersection__iterable_1_1iter__t.html#aa2832e6881b794e642208654a397e0c1" target="_top" xlink:title=" ">
<polygon fill="white" stroke="#666666" points="152.5,-174 2.5,-174 2.5,-144 152.5,-144 152.5,-174"/>
<text text-anchor="start" x="10.5" y="-162" font-family="Helvetica,sans-Serif" font-size="10.00">guanaqo::set_intersection</text>
<text text-anchor="middle" x="77.5" y="-151" font-family="Helvetica,sans-Serif" font-size="10.00">_iterable::iter_t::operator!=</text>
</a>
</g>
</g>
<!-- Node1&#45;&gt;Node2 -->
<g id="edge1_Node000001_Node000002" class="edge">
<title>Node1&#45;&gt;Node2</title>
<g id="a_edge1_Node000001_Node000002"><a xlink:title=" ">
<path fill="none" stroke="#63b8ff" d="M221.39,-106.45C201.63,-115.67 177.32,-126.51 155,-135 146.8,-138.12 138.01,-141.16 129.41,-143.96"/>
<polygon fill="#63b8ff" stroke="#63b8ff" points="223.13,-109.49 230.69,-102.07 220.15,-103.16 223.13,-109.49"/>
</a>
</g>
</g>
<!-- Node3 -->
<g id="Node000003" class="node">
<title>Node3</title>
<g id="a_Node000003"><a xlink:href="structguanaqo_1_1set__intersection__iterable_1_1iter__t.html#a2f78be59261808c489842060efe84898" target="_top" xlink:title=" ">
<polygon fill="white" stroke="#666666" points="155,-126 0,-126 0,-96 155,-96 155,-126"/>
<text text-anchor="start" x="8" y="-114" font-family="Helvetica,sans-Serif" font-size="10.00">guanaqo::set_intersection</text>
<text text-anchor="middle" x="77.5" y="-103" font-family="Helvetica,sans-Serif" font-size="10.00">_iterable::iter_t::operator++</text>
</a>
</g>
</g>
<!-- Node1&#45;&gt;Node3 -->
<g id="edge2_Node000001_Node000003" class="edge">
<title>Node1&#45;&gt;Node3</title>
<g id="a_edge2_Node000001_Node000003"><a xlink:title=" ">
<path fill="none" stroke="#63b8ff" d="M180.81,-97.58C172.28,-98.7 163.62,-99.84 155.14,-100.95"/>
<polygon fill="#63b8ff" stroke="#63b8ff" points="181.29,-101.05 190.75,-96.28 180.38,-94.11 181.29,-101.05"/>
</a>
</g>
</g>
<!-- Node4 -->
<g id="Node000004" class="node">
<title>Node4</title>
<g id="a_Node000004"><a xlink:href="structguanaqo_1_1set__intersection__iterable_1_1iter__t.html#aaa8f9ea6d56eceb9ed97d4cd27720721" target="_top" xlink:title=" ">
<polygon fill="white" stroke="#666666" points="155,-78 0,-78 0,-48 155,-48 155,-78"/>
<text text-anchor="start" x="8" y="-66" font-family="Helvetica,sans-Serif" font-size="10.00">guanaqo::set_intersection</text>
<text text-anchor="middle" x="77.5" y="-55" font-family="Helvetica,sans-Serif" font-size="10.00">_iterable::iter_t::operator++</text>
</a>
</g>
</g>
<!-- Node1&#45;&gt;Node4 -->
<g id="edge3_Node000001_Node000004" class="edge">
<title>Node1&#45;&gt;Node4</title>
<g id="a_edge3_Node000001_Node000004"><a xlink:title=" ">
<path fill="none" stroke="#63b8ff" d="M180.81,-76.42C172.28,-75.3 163.62,-74.16 155.14,-73.05"/>
<polygon fill="#63b8ff" stroke="#63b8ff" points="180.38,-79.89 190.75,-77.72 181.29,-72.95 180.38,-79.89"/>
</a>
</g>
</g>
<!-- Node5 -->
<g id="Node000005" class="node">
<title>Node5</title>
<g id="a_Node000005"><a xlink:href="structguanaqo_1_1set__intersection__iterable_1_1iter__t.html#a84cc072c81fe3dda041c1672009ebfdf" target="_top" xlink:title=" ">
<polygon fill="white" stroke="#666666" points="155,-30 0,-30 0,0 155,0 155,-30"/>
<text text-anchor="start" x="8" y="-18" font-family="Helvetica,sans-Serif" font-size="10.00">guanaqo::set_intersection</text>
<text text-anchor="middle" x="77.5" y="-7" font-family="Helvetica,sans-Serif" font-size="10.00">_iterable::iter_t::operator==</text>
</a>
</g>
</g>
<!-- Node1&#45;&gt;Node5 -->
<g id="edge4_Node000001_Node000005" class="edge">
<title>Node1&#45;&gt;Node5</title>
<g id="a_edge4_Node000001_Node000005"><a xlink:title=" ">
<path fill="none" stroke="#63b8ff" d="M221.39,-67.55C201.63,-58.33 177.32,-47.49 155,-39 146.8,-35.88 138.01,-32.84 129.41,-30.04"/>
<polygon fill="#63b8ff" stroke="#63b8ff" points="220.15,-70.84 230.69,-71.93 223.13,-64.51 220.15,-70.84"/>
</a>
</g>
</g>
</g>
</svg>
