<?xml version="1.0" encoding="UTF-8" standalone="no"?>
<!DOCTYPE svg PUBLIC "-//W3C//DTD SVG 1.1//EN"
 "http://www.w3.org/Graphics/SVG/1.1/DTD/svg11.dtd">
<!-- Generated by graphviz version 2.43.0 (0)
 -->
<!-- Title: guanaqo::linalg::sparsity::SparsityConverter&lt; Dense, SparseCOO&lt; Index &gt; &gt;::convert_values Pages: 1 -->
<!--zoomable 126 -->

<svg id="main" version="1.1" xmlns="http://www.w3.org/2000/svg" xmlns:xlink="http://www.w3.org/1999/xlink" xml:space="preserve" onload="init(evt)">

<style type="text/css"><![CDATA[
.node, .edge {opacity: 0.7;}
.node.selected, .edge.selected {opacity: 1;}
.edge:hover path { stroke: red; }
.edge:hover polygon { stroke: red; fill: red; }
]]></style>

<defs>
  <circle id="rim" cx="0" cy="0" r="7"/>
  <circle id="rim2" cx="0" cy="0" r="3.5"/>
  <g id="zoomPlus">
    <use xlink:href="#rim" fill="#404040"><set attributeName="fill" to="#808080" begin="zoomplus.mouseover" end="zoomplus.mouseout"/></use>
    <path d="M-4,0h8M0,-4v8" fill="none" stroke="white" stroke-width="1.5" pointer-events="none"/>
  </g>
  <g id="zoomMin">
    <use xlink:href="#rim" fill="#404040"><set attributeName="fill" to="#808080" begin="zoomminus.mouseover" end="zoomminus.mouseout"/></use>
    <path d="M-4,0h8" fill="none" stroke="white" stroke-width="1.5" pointer-events="none"/>
  </g>
  <g id="arrowUp" transform="translate(30 24)">
    <use xlink:href="#rim"/>
    <path pointer-events="none" fill="none" stroke="white" stroke-width="1.5" d="M0,-3.0v7 M-2.5,-0.5L0,-3.0L2.5,-0.5"/>
  </g>
  <g id="arrowRight" transform="rotate(90) translate(36 -43)">
    <use xlink:href="#rim"/>
    <path pointer-events="none" fill="none" stroke="white" stroke-width="1.5" d="M0,-3.0v7 M-2.5,-0.5L0,-3.0L2.5,-0.5"/>
  </g>
  <g id="arrowDown" transform="rotate(180) translate(-30 -48)">
    <use xlink:href="#rim"/>
    <path pointer-events="none" fill="none" stroke="white" stroke-width="1.5" d="M0,-3.0v7 M-2.5,-0.5L0,-3.0L2.5,-0.5"/>
  </g>
  <g id="arrowLeft" transform="rotate(270) translate(-36 17)">
    <use xlink:href="#rim"/>
    <path pointer-events="none" fill="none" stroke="white" stroke-width="1.5" d="M0,-3.0v7 M-2.5,-0.5L0,-3.0L2.5,-0.5"/>
  </g>
  <g id="resetDef">
    <use xlink:href="#rim2" fill="#404040"><set attributeName="fill" to="#808080" begin="reset.mouseover" end="reset.mouseout"/></use>
  </g>
</defs>
<script type="application/ecmascript">
var viewWidth = 622;
var viewHeight = 126;
var sectionId = 'dynsection-5';
</script>
<script type="application/ecmascript" xlink:href="svg.min.js"/>
<svg id="graph" class="graph">
<g id="viewport">
<title>guanaqo::linalg::sparsity::SparsityConverter&lt; Dense, SparseCOO&lt; Index &gt; &gt;::convert_values</title>
<!-- Node1 -->
<g id="Node000001" class="node">
<title>Node1</title>
<g id="a_Node000001"><a xlink:title=" ">
<polygon fill="#999999" stroke="#666666" points="215,-100 0,-100 0,-59 215,-59 215,-100"/>
<text text-anchor="start" x="8" y="-88" font-family="Helvetica,sans-Serif" font-size="10.00">guanaqo::linalg::sparsity</text>
<text text-anchor="start" x="8" y="-77" font-family="Helvetica,sans-Serif" font-size="10.00">::SparsityConverter&lt; Dense,</text>
<text text-anchor="middle" x="107.5" y="-66" font-family="Helvetica,sans-Serif" font-size="10.00"> SparseCOO&lt; Index &gt; &gt;::convert_values</text>
</a>
</g>
</g>
<!-- Node2 -->
<g id="Node000002" class="node">
<title>Node2</title>
<g id="a_Node000002"><a xlink:href="namespaceguanaqo_1_1linalg_1_1sparsity.html#af32001896a23ba0b0d0237c9046f4315" target="_top" xlink:title=" ">
<polygon fill="white" stroke="#666666" points="614,-89.5 477,-89.5 477,-59.5 614,-59.5 614,-89.5"/>
<text text-anchor="start" x="485" y="-77.5" font-family="Helvetica,sans-Serif" font-size="10.00">guanaqo::linalg::sparsity</text>
<text text-anchor="middle" x="545.5" y="-66.5" font-family="Helvetica,sans-Serif" font-size="10.00">::cast_sz</text>
</a>
</g>
</g>
<!-- Node1&#45;&gt;Node2 -->
<g id="edge1_Node000001_Node000002" class="edge">
<title>Node1&#45;&gt;Node2</title>
<g id="a_edge1_Node000001_Node000002"><a xlink:title=" ">
<path fill="none" stroke="#63b8ff" d="M191.68,-100.03C211.03,-103.97 231.64,-107.48 251,-109.5 334.99,-118.25 357.68,-123.21 441,-109.5 460.74,-106.25 481.78,-99.74 499.7,-93.2"/>
<polygon fill="#63b8ff" stroke="#63b8ff" points="501.18,-96.39 509.31,-89.59 498.72,-89.84 501.18,-96.39"/>
</a>
</g>
</g>
<!-- Node3 -->
<g id="Node000003" class="node">
<title>Node3</title>
<g id="a_Node000003"><a xlink:href="structguanaqo_1_1linalg_1_1sparsity_1_1SparsityConverter_3_01Dense_00_01SparseCOO_3_01Index_01_4_01_4.html#a0853af6c0b6b64f8fbbc33ead9b7a454" target="_top" xlink:title=" ">
<polygon fill="white" stroke="#666666" points="439.5,-100 252.5,-100 252.5,-59 439.5,-59 439.5,-100"/>
<text text-anchor="start" x="260.5" y="-88" font-family="Helvetica,sans-Serif" font-size="10.00">guanaqo::linalg::sparsity</text>
<text text-anchor="start" x="260.5" y="-77" font-family="Helvetica,sans-Serif" font-size="10.00">::SparsityConverter&lt; Dense,</text>
<text text-anchor="middle" x="346" y="-66" font-family="Helvetica,sans-Serif" font-size="10.00"> SparseCOO&lt; Index &gt; &gt;::nnz_from</text>
</a>
</g>
</g>
<!-- Node1&#45;&gt;Node3 -->
<g id="edge2_Node000001_Node000003" class="edge">
<title>Node1&#45;&gt;Node3</title>
<g id="a_edge2_Node000001_Node000003"><a xlink:title=" ">
<path fill="none" stroke="#63b8ff" d="M215.33,-79.5C224.32,-79.5 233.39,-79.5 242.34,-79.5"/>
<polygon fill="#63b8ff" stroke="#63b8ff" points="242.38,-83 252.38,-79.5 242.38,-76 242.38,-83"/>
</a>
</g>
</g>
<!-- Node4 -->
<g id="Node000004" class="node">
<title>Node4</title>
<g id="a_Node000004"><a xlink:href="structguanaqo_1_1linalg_1_1sparsity_1_1SparsityConverter_3_01Dense_00_01SparseCOO_3_01Index_01_4_01_4.html#afc5ca35d82cddf0d800e86a4f3fbc4bf" target="_top" xlink:title=" ">
<polygon fill="white" stroke="#666666" points="441,-41 251,-41 251,0 441,0 441,-41"/>
<text text-anchor="start" x="259" y="-29" font-family="Helvetica,sans-Serif" font-size="10.00">guanaqo::linalg::sparsity</text>
<text text-anchor="start" x="259" y="-18" font-family="Helvetica,sans-Serif" font-size="10.00">::SparsityConverter&lt; Dense,</text>
<text text-anchor="middle" x="346" y="-7" font-family="Helvetica,sans-Serif" font-size="10.00"> SparseCOO&lt; Index &gt; &gt;::work_size</text>
</a>
</g>
</g>
<!-- Node1&#45;&gt;Node4 -->
<g id="edge3_Node000001_Node000004" class="edge">
<title>Node1&#45;&gt;Node4</title>
<g id="a_edge3_Node000001_Node000004"><a xlink:title=" ">
<path fill="none" stroke="#63b8ff" d="M190.88,-58.95C210.82,-53.97 232.25,-48.63 252.61,-43.55"/>
<polygon fill="#63b8ff" stroke="#63b8ff" points="253.66,-46.9 262.51,-41.08 251.96,-40.1 253.66,-46.9"/>
</a>
</g>
</g>
<!-- Node4&#45;&gt;Node2 -->
<g id="edge4_Node000004_Node000002" class="edge">
<title>Node4&#45;&gt;Node2</title>
<g id="a_edge4_Node000004_Node000002"><a xlink:title=" ">
<path fill="none" stroke="#63b8ff" d="M422.23,-41.07C441.17,-46.25 461.34,-51.76 479.72,-56.79"/>
<polygon fill="#63b8ff" stroke="#63b8ff" points="478.87,-60.18 489.44,-59.45 480.72,-53.43 478.87,-60.18"/>
</a>
</g>
</g>
</g>
</svg>

<g id="navigator" transform="translate(0 0)" fill="#404254">
  <rect fill="#f2f5e9" fill-opacity="0.5" stroke="#606060" stroke-width=".5" x="0" y="0" width="60" height="60"/>
  <use id="zoomplus" xlink:href="#zoomPlus" x="17" y="9" onmousedown="handleZoom(evt,'in')"/>
  <use id="zoomminus" xlink:href="#zoomMin" x="42" y="9" onmousedown="handleZoom(evt,'out')"/>
  <use id="reset" xlink:href="#resetDef" x="30" y="36" onmousedown="handleReset()"/>
   <use id="arrowup" xlink:href="#arrowUp" x="0" y="0" onmousedown="handlePan(0,-1)"/>
  <use id="arrowright" xlink:href="#arrowRight" x="0" y="0" onmousedown="handlePan(1,0)"/>
  <use id="arrowdown" xlink:href="#arrowDown" x="0" y="0" onmousedown="handlePan(0,1)"/>
  <use id="arrowleft" xlink:href="#arrowLeft" x="0" y="0" onmousedown="handlePan(-1,0)"/>
</g>
<svg viewBox="0 0 15 15" width="100%" height="30px" preserveAspectRatio="xMaxYMin meet">
 <g id="arrow_out" transform="scale(0.3 0.3)">
  <a xlink:href="structguanaqo_1_1linalg_1_1sparsity_1_1SparsityConverter_3_01Dense_00_01SparseCOO_3_01Index_01_4_01_4_ae0f85e05d4311ff3078312adb79c4a5d_cgraph_org.svg" target="_base">
   <rect id="button" ry="5" rx="5" y="6" x="6" height="38" width="38"
        fill="#f2f5e9" fill-opacity="0.5" stroke="#606060" stroke-width="1.0"/>
   <path id="arrow"
     d="M 11.500037,31.436501 C 11.940474,20.09759 22.043105,11.32322 32.158766,21.979434 L 37.068811,17.246167 C 37.068811,17.246167 37.088388,32 37.088388,32 L 22.160133,31.978069 C 22.160133,31.978069 26.997745,27.140456 26.997745,27.140456 C 18.528582,18.264221 13.291696,25.230495 11.500037,31.436501 z"
     style="fill:#404040;"/>
  </a>
 </g>
</svg>

<style type='text/css'>
<![CDATA[
[data-mouse-over-selected='false'] { opacity: 0.7; }
[data-mouse-over-selected='true']  { opacity: 1.0; }
]]>
</style>
<script type="application/ecmascript"><![CDATA[
document.addEventListener('DOMContentLoaded', (event) => {
  highlightEdges();
  highlightAdjacentNodes();
});
]]></script>
</svg>
