<?xml version="1.0" encoding="UTF-8" standalone="no"?>
<!DOCTYPE svg PUBLIC "-//W3C//DTD SVG 1.1//EN"
 "http://www.w3.org/Graphics/SVG/1.1/DTD/svg11.dtd">
<!-- Generated by graphviz version 2.43.0 (0)
 -->
<!-- Title: guanaqo::iter_range_adapter&lt; It &gt;::iter_t Pages: 1 -->
<svg width="122pt" height="254pt"
 viewBox="0.00 0.00 122.00 254.00" xmlns="http://www.w3.org/2000/svg" xmlns:xlink="http://www.w3.org/1999/xlink">
<g id="graph0" class="graph" transform="scale(1 1) rotate(0) translate(4 250)">
<title>guanaqo::iter_range_adapter&lt; It &gt;::iter_t</title>
<!-- Node1 -->
<g id="Node000001" class="node">
<title>Node1</title>
<g id="a_Node000001"><a xlink:title=" ">
<polygon fill="#999999" stroke="transparent" points="114,-150 0,-150 0,0 114,0 114,-150"/>
<text text-anchor="start" x="5" y="-138" font-family="Helvetica,sans-Serif" font-size="10.00">guanaqo::iter_range</text>
<text text-anchor="start" x="5" y="-127" font-family="Helvetica,sans-Serif" font-size="10.00">_adapter&lt; It &gt;::iter_t</text>
<text text-anchor="start" x="55" y="-112" font-family="Helvetica,sans-Serif" font-size="10.00"> </text>
<text text-anchor="start" x="10.5" y="-97" font-family="Helvetica,sans-Serif" font-size="10.00">+</text>
<text text-anchor="start" x="30" y="-97" font-family="Helvetica,sans-Serif" font-size="10.00">iter_t()</text>
<text text-anchor="start" x="10.5" y="-82" font-family="Helvetica,sans-Serif" font-size="10.00">+</text>
<text text-anchor="start" x="30" y="-82" font-family="Helvetica,sans-Serif" font-size="10.00">iter_t()</text>
<text text-anchor="start" x="10.5" y="-67" font-family="Helvetica,sans-Serif" font-size="10.00">+</text>
<text text-anchor="start" x="30" y="-67" font-family="Helvetica,sans-Serif" font-size="10.00">operator!=()</text>
<text text-anchor="start" x="10.5" y="-52" font-family="Helvetica,sans-Serif" font-size="10.00">+</text>
<text text-anchor="start" x="30" y="-52" font-family="Helvetica,sans-Serif" font-size="10.00">operator==()</text>
<text text-anchor="start" x="10.5" y="-37" font-family="Helvetica,sans-Serif" font-size="10.00">+</text>
<text text-anchor="start" x="30" y="-37" font-family="Helvetica,sans-Serif" font-size="10.00">operator++()</text>
<text text-anchor="start" x="10.5" y="-22" font-family="Helvetica,sans-Serif" font-size="10.00">+</text>
<text text-anchor="start" x="30" y="-22" font-family="Helvetica,sans-Serif" font-size="10.00">operator++()</text>
<text text-anchor="start" x="10.5" y="-7" font-family="Helvetica,sans-Serif" font-size="10.00">+</text>
<text text-anchor="start" x="30" y="-7" font-family="Helvetica,sans-Serif" font-size="10.00">operator*()</text>
<polygon fill="#666666" stroke="#666666" points="0,-122 0,-122 114,-122 114,-122 0,-122"/>
<polygon fill="#666666" stroke="#666666" points="0,-107 0,-107 114,-107 114,-107 0,-107"/>
<polygon fill="none" stroke="#666666" points="0,0 0,-150 114,-150 114,0 0,0"/>
</a>
</g>
</g>
<!-- Node2 -->
<g id="Node000002" class="node">
<title>Node2</title>
<g id="a_Node000002"><a xlink:title=" ">
<polygon fill="white" stroke="transparent" points="111,-246 3,-246 3,-186 111,-186 111,-246"/>
<text text-anchor="start" x="8" y="-234" font-family="Helvetica,sans-Serif" font-size="10.00">std::remove_cvref_t</text>
<text text-anchor="start" x="42" y="-223" font-family="Helvetica,sans-Serif" font-size="10.00">&lt; It &gt;</text>
<text text-anchor="start" x="55" y="-208" font-family="Helvetica,sans-Serif" font-size="10.00"> </text>
<text text-anchor="start" x="55" y="-193" font-family="Helvetica,sans-Serif" font-size="10.00"> </text>
<polygon fill="#666666" stroke="#666666" points="3,-218 3,-218 111,-218 111,-218 3,-218"/>
<polygon fill="#666666" stroke="#666666" points="3,-203 3,-203 111,-203 111,-203 3,-203"/>
<polygon fill="none" stroke="#666666" points="3,-186 3,-246 111,-246 111,-186 3,-186"/>
</a>
</g>
</g>
<!-- Node2&#45;&gt;Node1 -->
<g id="edge1_Node000001_Node000002" class="edge">
<title>Node2&#45;&gt;Node1</title>
<g id="a_edge1_Node000001_Node000002"><a xlink:title=" ">
<path fill="none" stroke="#63b8ff" d="M57,-175.7C57,-167.64 57,-158.9 57,-150.07"/>
<polygon fill="none" stroke="#63b8ff" points="53.5,-175.86 57,-185.86 60.5,-175.86 53.5,-175.86"/>
</a>
</g>
</g>
</g>
</svg>
