<?xml version="1.0" encoding="UTF-8" standalone="no"?>
<!DOCTYPE svg PUBLIC "-//W3C//DTD SVG 1.1//EN"
 "http://www.w3.org/Graphics/SVG/1.1/DTD/svg11.dtd">
<!-- Generated by graphviz version 2.43.0 (0)
 -->
<!-- Title: guanaqo::set_intersection_iterable&lt; R1, R2, Comp, Proj1, Proj2 &gt; Pages: 1 -->
<svg width="167pt" height="317pt"
 viewBox="0.00 0.00 167.00 317.00" xmlns="http://www.w3.org/2000/svg" xmlns:xlink="http://www.w3.org/1999/xlink">
<g id="graph0" class="graph" transform="scale(1 1) rotate(0) translate(4 313)">
<title>guanaqo::set_intersection_iterable&lt; R1, R2, Comp, Proj1, Proj2 &gt;</title>
<!-- Node1 -->
<g id="Node000001" class="node">
<title>Node1</title>
<g id="a_Node000001"><a xlink:title=" ">
<polygon fill="#999999" stroke="transparent" points="154.5,-191 4.5,-191 4.5,0 154.5,0 154.5,-191"/>
<text text-anchor="start" x="16" y="-178.5" font-family="Helvetica,sans-Serif" font-size="10.00">guanaqo::set_intersection</text>
<text text-anchor="start" x="16" y="-167.5" font-family="Helvetica,sans-Serif" font-size="10.00">_iterable&lt; R1, R2, Comp,</text>
<text text-anchor="start" x="44.5" y="-156.5" font-family="Helvetica,sans-Serif" font-size="10.00"> Proj1, Proj2 &gt;</text>
<text text-anchor="start" x="8.5" y="-141.5" font-family="Helvetica,sans-Serif" font-size="10.00">+</text>
<text text-anchor="start" x="21.5" y="-141.5" font-family="Helvetica,sans-Serif" font-size="10.00">range1</text>
<text text-anchor="start" x="8.5" y="-126.5" font-family="Helvetica,sans-Serif" font-size="10.00">+</text>
<text text-anchor="start" x="21.5" y="-126.5" font-family="Helvetica,sans-Serif" font-size="10.00">range2</text>
<text text-anchor="start" x="8.5" y="-111.5" font-family="Helvetica,sans-Serif" font-size="10.00">+</text>
<text text-anchor="start" x="21.5" y="-111.5" font-family="Helvetica,sans-Serif" font-size="10.00">comp</text>
<text text-anchor="start" x="8.5" y="-96.5" font-family="Helvetica,sans-Serif" font-size="10.00">+</text>
<text text-anchor="start" x="21.5" y="-96.5" font-family="Helvetica,sans-Serif" font-size="10.00">proj1</text>
<text text-anchor="start" x="8.5" y="-81.5" font-family="Helvetica,sans-Serif" font-size="10.00">+</text>
<text text-anchor="start" x="21.5" y="-81.5" font-family="Helvetica,sans-Serif" font-size="10.00">proj2</text>
<text text-anchor="start" x="8.5" y="-66.5" font-family="Helvetica,sans-Serif" font-size="10.00">+</text>
<text text-anchor="start" x="21.5" y="-66.5" font-family="Helvetica,sans-Serif" font-size="10.00">set_intersection_iterable()</text>
<text text-anchor="start" x="8.5" y="-51.5" font-family="Helvetica,sans-Serif" font-size="10.00">+</text>
<text text-anchor="start" x="21.5" y="-51.5" font-family="Helvetica,sans-Serif" font-size="10.00">set_intersection_iterable()</text>
<text text-anchor="start" x="8.5" y="-36.5" font-family="Helvetica,sans-Serif" font-size="10.00">+</text>
<text text-anchor="start" x="21.5" y="-36.5" font-family="Helvetica,sans-Serif" font-size="10.00">begin()</text>
<text text-anchor="start" x="8.5" y="-21.5" font-family="Helvetica,sans-Serif" font-size="10.00">+</text>
<text text-anchor="start" x="21.5" y="-21.5" font-family="Helvetica,sans-Serif" font-size="10.00">end()</text>
<text text-anchor="start" x="11" y="-6.5" font-family="Helvetica,sans-Serif" font-size="10.00">&#45;</text>
<text text-anchor="start" x="21.5" y="-6.5" font-family="Helvetica,sans-Serif" font-size="10.00">iter()</text>
<polygon fill="#666666" stroke="#666666" points="4.5,-151.5 4.5,-151.5 154.5,-151.5 154.5,-151.5 4.5,-151.5"/>
<polygon fill="#666666" stroke="#666666" points="4.5,-76.5 4.5,-76.5 19.5,-76.5 19.5,-76.5 4.5,-76.5"/>
<polygon fill="#666666" stroke="#666666" points="19.5,-76.5 19.5,-76.5 154.5,-76.5 154.5,-76.5 19.5,-76.5"/>
<polygon fill="none" stroke="#666666" points="4.5,0 4.5,-191 154.5,-191 154.5,0 4.5,0"/>
</a>
</g>
</g>
<!-- Node2 -->
<g id="Node000002" class="node">
<title>Node2</title>
<g id="a_Node000002"><a xlink:title=" ">
<polygon fill="white" stroke="transparent" points="159,-309 0,-309 0,-227 159,-227 159,-309"/>
<text text-anchor="start" x="5.5" y="-297" font-family="Helvetica,sans-Serif" font-size="10.00">std::ranges::view_interface</text>
<text text-anchor="start" x="5.5" y="-286" font-family="Helvetica,sans-Serif" font-size="10.00">&lt; set_intersection_iterable</text>
<text text-anchor="start" x="5.5" y="-275" font-family="Helvetica,sans-Serif" font-size="10.00">&lt; R1, R2, std::ranges::less,</text>
<text text-anchor="start" x="5.5" y="-264" font-family="Helvetica,sans-Serif" font-size="10.00"> std::identity, std::identity &gt; &gt;</text>
<text text-anchor="start" x="78" y="-249" font-family="Helvetica,sans-Serif" font-size="10.00"> </text>
<text text-anchor="start" x="78" y="-234" font-family="Helvetica,sans-Serif" font-size="10.00"> </text>
<polygon fill="#666666" stroke="#666666" points="0.5,-259 0.5,-259 159.5,-259 159.5,-259 0.5,-259"/>
<polygon fill="#666666" stroke="#666666" points="0.5,-244 0.5,-244 159.5,-244 159.5,-244 0.5,-244"/>
<polygon fill="none" stroke="#666666" points="0,-227 0,-309 159,-309 159,-227 0,-227"/>
</a>
</g>
</g>
<!-- Node2&#45;&gt;Node1 -->
<g id="edge1_Node000001_Node000002" class="edge">
<title>Node2&#45;&gt;Node1</title>
<g id="a_edge1_Node000001_Node000002"><a xlink:title=" ">
<path fill="none" stroke="#63b8ff" d="M79.5,-216.35C79.5,-208.31 79.5,-199.78 79.5,-191.13"/>
<polygon fill="none" stroke="#63b8ff" points="76,-216.59 79.5,-226.59 83,-216.59 76,-216.59"/>
</a>
</g>
</g>
</g>
</svg>
