<?xml version="1.0" encoding="UTF-8" standalone="no"?>
<!DOCTYPE svg PUBLIC "-//W3C//DTD SVG 1.1//EN"
 "http://www.w3.org/Graphics/SVG/1.1/DTD/svg11.dtd">
<!-- Generated by graphviz version 2.43.0 (0)
 -->
<!-- Title: guanaqo::Timed&lt; TimingsCPU &gt;::Timed Pages: 1 -->
<svg width="376pt" height="134pt"
 viewBox="0.00 0.00 376.00 134.00" xmlns="http://www.w3.org/2000/svg" xmlns:xlink="http://www.w3.org/1999/xlink">
<g id="graph0" class="graph" transform="scale(1 1) rotate(0) translate(4 130)">
<title>guanaqo::Timed&lt; TimingsCPU &gt;::Timed</title>
<!-- Node1 -->
<g id="Node000001" class="node">
<title>Node1</title>
<g id="a_Node000001"><a xlink:title=" ">
<polygon fill="#999999" stroke="#666666" points="368,-78 202,-78 202,-48 368,-48 368,-78"/>
<text text-anchor="start" x="210" y="-66" font-family="Helvetica,sans-Serif" font-size="10.00">guanaqo::Timed&lt; TimingsCPU</text>
<text text-anchor="middle" x="285" y="-55" font-family="Helvetica,sans-Serif" font-size="10.00"> &gt;::Timed</text>
</a>
</g>
</g>
<!-- Node1&#45;&gt;Node1 -->
<g id="edge2_Node000001_Node000001" class="edge">
<title>Node1&#45;&gt;Node1</title>
<g id="a_edge2_Node000001_Node000001"><a xlink:title=" ">
<path fill="none" stroke="#63b8ff" d="M320.36,-88.6C315.53,-92.97 303.74,-96 285,-96 253.44,-96 241.6,-87.41 249.49,-78.28"/>
<polygon fill="#63b8ff" stroke="#63b8ff" points="323.86,-88.33 320.51,-78.28 316.86,-88.22 323.86,-88.33"/>
</a>
</g>
</g>
<!-- Node2 -->
<g id="Node000002" class="node">
<title>Node2</title>
<g id="a_Node000002"><a xlink:href="structguanaqo_1_1Timed_3_01TimingsCPU_01_4.html#abfdbf1819729fb9c020887fc89057acf" target="_top" xlink:title=" ">
<polygon fill="white" stroke="#666666" points="166,-126 0,-126 0,-96 166,-96 166,-126"/>
<text text-anchor="start" x="8" y="-114" font-family="Helvetica,sans-Serif" font-size="10.00">guanaqo::Timed&lt; TimingsCPU</text>
<text text-anchor="middle" x="83" y="-103" font-family="Helvetica,sans-Serif" font-size="10.00"> &gt;::Timed</text>
</a>
</g>
</g>
<!-- Node1&#45;&gt;Node2 -->
<g id="edge1_Node000001_Node000002" class="edge">
<title>Node1&#45;&gt;Node2</title>
<g id="a_edge1_Node000001_Node000002"><a xlink:title=" ">
<path fill="none" stroke="#63b8ff" d="M211.33,-80.44C190.09,-85.54 167.06,-91.07 146.51,-96"/>
<polygon fill="#63b8ff" stroke="#63b8ff" points="212.36,-83.79 221.27,-78.06 210.73,-76.99 212.36,-83.79"/>
</a>
</g>
</g>
<!-- Node3 -->
<g id="Node000003" class="node">
<title>Node3</title>
<g id="a_Node000003"><a xlink:href="structguanaqo_1_1Timed_3_01TimingsCPU_01_4.html#a4b28dcdc108433a797b022d6533f6050" target="_top" xlink:title=" ">
<polygon fill="white" stroke="#666666" points="166,-78 0,-78 0,-48 166,-48 166,-78"/>
<text text-anchor="start" x="8" y="-66" font-family="Helvetica,sans-Serif" font-size="10.00">guanaqo::Timed&lt; TimingsCPU</text>
<text text-anchor="middle" x="83" y="-55" font-family="Helvetica,sans-Serif" font-size="10.00"> &gt;::~Timed</text>
</a>
</g>
</g>
<!-- Node1&#45;&gt;Node3 -->
<g id="edge3_Node000001_Node000003" class="edge">
<title>Node1&#45;&gt;Node3</title>
<g id="a_edge3_Node000001_Node000003"><a xlink:title=" ">
<path fill="none" stroke="#63b8ff" d="M191.53,-63C183.09,-63 174.57,-63 166.22,-63"/>
<polygon fill="#63b8ff" stroke="#63b8ff" points="191.79,-66.5 201.79,-63 191.79,-59.5 191.79,-66.5"/>
</a>
</g>
</g>
<!-- Node4 -->
<g id="Node000004" class="node">
<title>Node4</title>
<g id="a_Node000004"><a xlink:href="structguanaqo_1_1Timed_3_01TimingsCPU_01_4.html#ad06225c20e76c1706048a112e3df94ee" target="_top" xlink:title=" ">
<polygon fill="white" stroke="#666666" points="166,-30 0,-30 0,0 166,0 166,-30"/>
<text text-anchor="start" x="8" y="-18" font-family="Helvetica,sans-Serif" font-size="10.00">guanaqo::Timed&lt; TimingsCPU</text>
<text text-anchor="middle" x="83" y="-7" font-family="Helvetica,sans-Serif" font-size="10.00"> &gt;::operator=</text>
</a>
</g>
</g>
<!-- Node1&#45;&gt;Node4 -->
<g id="edge4_Node000001_Node000004" class="edge">
<title>Node1&#45;&gt;Node4</title>
<g id="a_edge4_Node000001_Node000004"><a xlink:title=" ">
<path fill="none" stroke="#63b8ff" d="M211.33,-45.56C190.09,-40.46 167.06,-34.93 146.51,-30"/>
<polygon fill="#63b8ff" stroke="#63b8ff" points="210.73,-49.01 221.27,-47.94 212.36,-42.21 210.73,-49.01"/>
</a>
</g>
</g>
</g>
</svg>
