<?xml version="1.0" encoding="UTF-8" standalone="no"?>
<!DOCTYPE svg PUBLIC "-//W3C//DTD SVG 1.1//EN"
 "http://www.w3.org/Graphics/SVG/1.1/DTD/svg11.dtd">
<!-- Generated by graphviz version 2.43.0 (0)
 -->
<!-- Title: guanaqo::linalg::sparsity::SparsityConverter&lt; SparseCSC&lt; IndexFrom, StorageIndexFrom &gt;, SparseCOO&lt; IndexTo &gt; &gt; Pages: 1 -->
<svg width="177pt" height="409pt"
 viewBox="0.00 0.00 177.00 409.00" xmlns="http://www.w3.org/2000/svg" xmlns:xlink="http://www.w3.org/1999/xlink">

<svg id="main" version="1.1" xmlns="http://www.w3.org/2000/svg" xmlns:xlink="http://www.w3.org/1999/xlink" xml:space="preserve">

<style type="text/css"><![CDATA[
.node, .edge {opacity: 0.7;}
.node.selected, .edge.selected {opacity: 1;}
.edge:hover path { stroke: red; }
.edge:hover polygon { stroke: red; fill: red; }
]]></style>
<script type="application/ecmascript" xlink:href="svg.min.js"/>
<svg id="graph" class="graph">
<g id="graph0" class="graph" transform="scale(1 1) rotate(0) translate(4 405)">
<title>guanaqo::linalg::sparsity::SparsityConverter&lt; SparseCSC&lt; IndexFrom, StorageIndexFrom &gt;, SparseCOO&lt; IndexTo &gt; &gt;</title>
<!-- Node1 -->
<g id="Node000001" class="node">
<title>Node1</title>
<g id="a_Node000001"><a xlink:title="Conversion from CSC to COO format.">
<polygon fill="#999999" stroke="transparent" points="169,-198 0,-198 0,0 169,0 169,-198"/>
<text text-anchor="start" x="5.5" y="-186" font-family="Helvetica,sans-Serif" font-size="10.00">guanaqo::linalg::sparsity</text>
<text text-anchor="start" x="5.5" y="-175" font-family="Helvetica,sans-Serif" font-size="10.00">::SparsityConverter&lt; SparseCSC</text>
<text text-anchor="start" x="5.5" y="-164" font-family="Helvetica,sans-Serif" font-size="10.00">&lt; IndexFrom, StorageIndexFrom</text>
<text text-anchor="start" x="13" y="-153" font-family="Helvetica,sans-Serif" font-size="10.00"> &gt;, SparseCOO&lt; IndexTo &gt; &gt;</text>
<text text-anchor="start" x="9.5" y="-138" font-family="Helvetica,sans-Serif" font-size="10.00">+</text>
<text text-anchor="start" x="27.5" y="-138" font-family="Helvetica,sans-Serif" font-size="10.00">row_indices</text>
<text text-anchor="start" x="9.5" y="-123" font-family="Helvetica,sans-Serif" font-size="10.00">+</text>
<text text-anchor="start" x="27.5" y="-123" font-family="Helvetica,sans-Serif" font-size="10.00">col_indices</text>
<text text-anchor="start" x="9.5" y="-108" font-family="Helvetica,sans-Serif" font-size="10.00">+</text>
<text text-anchor="start" x="27.5" y="-108" font-family="Helvetica,sans-Serif" font-size="10.00">convert_sparsity()</text>
<text text-anchor="start" x="9.5" y="-93" font-family="Helvetica,sans-Serif" font-size="10.00">+</text>
<text text-anchor="start" x="27.5" y="-93" font-family="Helvetica,sans-Serif" font-size="10.00">SparsityConverter()</text>
<text text-anchor="start" x="9.5" y="-78" font-family="Helvetica,sans-Serif" font-size="10.00">+</text>
<text text-anchor="start" x="27.5" y="-78" font-family="Helvetica,sans-Serif" font-size="10.00">operator const to_sparsity</text>
<text text-anchor="start" x="27.5" y="-67" font-family="Helvetica,sans-Serif" font-size="10.00">_t &amp;()</text>
<text text-anchor="start" x="9.5" y="-52" font-family="Helvetica,sans-Serif" font-size="10.00">+</text>
<text text-anchor="start" x="27.5" y="-52" font-family="Helvetica,sans-Serif" font-size="10.00">get_sparsity()</text>
<text text-anchor="start" x="9.5" y="-37" font-family="Helvetica,sans-Serif" font-size="10.00">+</text>
<text text-anchor="start" x="27.5" y="-37" font-family="Helvetica,sans-Serif" font-size="10.00">work_size()</text>
<text text-anchor="start" x="9.5" y="-22" font-family="Helvetica,sans-Serif" font-size="10.00">+</text>
<text text-anchor="start" x="27.5" y="-22" font-family="Helvetica,sans-Serif" font-size="10.00">nnz_from()</text>
<text text-anchor="start" x="9.5" y="-7" font-family="Helvetica,sans-Serif" font-size="10.00">+</text>
<text text-anchor="start" x="27.5" y="-7" font-family="Helvetica,sans-Serif" font-size="10.00">convert_values()</text>
<polygon fill="#666666" stroke="#666666" points="0.5,-148 0.5,-148 169.5,-148 169.5,-148 0.5,-148"/>
<polygon fill="#666666" stroke="#666666" points="0.5,-118 0.5,-118 25.5,-118 25.5,-118 0.5,-118"/>
<polygon fill="#666666" stroke="#666666" points="25.5,-118 25.5,-118 169.5,-118 169.5,-118 25.5,-118"/>
<polygon fill="none" stroke="#666666" points="0,0 0,-198 169,-198 169,0 0,0"/>
</a>
</g>
</g>
<!-- Node2 -->
<g id="Node000002" class="node">
<title>Node2</title>
<g id="a_Node000002"><a xlink:href="structguanaqo_1_1linalg_1_1sparsity_1_1SparseCOO.html" target="_top" xlink:title=" ">
<polygon fill="white" stroke="transparent" points="150,-401 19,-401 19,-251 150,-251 150,-401"/>
<text text-anchor="start" x="24.5" y="-389" font-family="Helvetica,sans-Serif" font-size="10.00">guanaqo::linalg::sparsity</text>
<text text-anchor="start" x="24.5" y="-378" font-family="Helvetica,sans-Serif" font-size="10.00">::SparseCOO&lt; IndexTo &gt;</text>
<text text-anchor="start" x="36.5" y="-363" font-family="Helvetica,sans-Serif" font-size="10.00">+</text>
<text text-anchor="start" x="62.5" y="-363" font-family="Helvetica,sans-Serif" font-size="10.00">rows</text>
<text text-anchor="start" x="36.5" y="-348" font-family="Helvetica,sans-Serif" font-size="10.00">+</text>
<text text-anchor="start" x="62.5" y="-348" font-family="Helvetica,sans-Serif" font-size="10.00">cols</text>
<text text-anchor="start" x="36.5" y="-333" font-family="Helvetica,sans-Serif" font-size="10.00">+</text>
<text text-anchor="start" x="62.5" y="-333" font-family="Helvetica,sans-Serif" font-size="10.00">symmetry</text>
<text text-anchor="start" x="36.5" y="-318" font-family="Helvetica,sans-Serif" font-size="10.00">+</text>
<text text-anchor="start" x="62.5" y="-318" font-family="Helvetica,sans-Serif" font-size="10.00">row_indices</text>
<text text-anchor="start" x="36.5" y="-303" font-family="Helvetica,sans-Serif" font-size="10.00">+</text>
<text text-anchor="start" x="62.5" y="-303" font-family="Helvetica,sans-Serif" font-size="10.00">col_indices</text>
<text text-anchor="start" x="36.5" y="-288" font-family="Helvetica,sans-Serif" font-size="10.00">+</text>
<text text-anchor="start" x="62.5" y="-288" font-family="Helvetica,sans-Serif" font-size="10.00">order</text>
<text text-anchor="start" x="36.5" y="-273" font-family="Helvetica,sans-Serif" font-size="10.00">+</text>
<text text-anchor="start" x="62.5" y="-273" font-family="Helvetica,sans-Serif" font-size="10.00">first_index</text>
<text text-anchor="start" x="36.5" y="-258" font-family="Helvetica,sans-Serif" font-size="10.00">+</text>
<text text-anchor="start" x="62.5" y="-258" font-family="Helvetica,sans-Serif" font-size="10.00">nnz()</text>
<polygon fill="#666666" stroke="#666666" points="19.5,-373 19.5,-373 150.5,-373 150.5,-373 19.5,-373"/>
<polygon fill="#666666" stroke="#666666" points="19.5,-268 19.5,-268 60.5,-268 60.5,-268 19.5,-268"/>
<polygon fill="#666666" stroke="#666666" points="60.5,-268 60.5,-268 150.5,-268 150.5,-268 60.5,-268"/>
<polygon fill="none" stroke="#666666" points="19,-251 19,-401 150,-401 150,-251 19,-251"/>
</a>
</g>
</g>
<!-- Node2&#45;&gt;Node1 -->
<g id="edge1_Node000001_Node000002" class="edge">
<title>Node2&#45;&gt;Node1</title>
<g id="a_edge1_Node000001_Node000002"><a xlink:title=" ">
<path fill="none" stroke="#63b8ff" d="M84.5,-250.7C84.5,-237.73 84.5,-224 84.5,-210.3"/>
<polygon fill="none" stroke="#63b8ff" points="84.5,-210.3 80.5,-204.3 84.5,-198.3 88.5,-204.3 84.5,-210.3"/>
</a>
</g>
<text text-anchor="start" x="87.5" y="-221.5" font-family="Helvetica,sans-Serif" font-size="10.00" fill="grey">+sparsity</text>
</g>
</g>
</svg>
</svg>

<style type='text/css'>
<![CDATA[
[data-mouse-over-selected='false'] { opacity: 0.7; }
[data-mouse-over-selected='true']  { opacity: 1.0; }
]]>
</style>
<script type="application/ecmascript"><![CDATA[
document.addEventListener('DOMContentLoaded', (event) => {
  highlightEdges();
  highlightAdjacentNodes();
});
]]></script>
</svg>
