<?xml version="1.0" encoding="UTF-8" standalone="no"?>
<!DOCTYPE svg PUBLIC "-//W3C//DTD SVG 1.1//EN"
 "http://www.w3.org/Graphics/SVG/1.1/DTD/svg11.dtd">
<!-- Generated by graphviz version 2.43.0 (0)
 -->
<!-- Title: include/guanaqo/tag&#45;invoke.hpp Pages: 1 -->
<svg width="271pt" height="93pt"
 viewBox="0.00 0.00 271.00 93.00" xmlns="http://www.w3.org/2000/svg" xmlns:xlink="http://www.w3.org/1999/xlink">
<g id="graph0" class="graph" transform="scale(1 1) rotate(0) translate(4 89)">
<title>include/guanaqo/tag&#45;invoke.hpp</title>
<!-- Node1 -->
<g id="Node000001" class="node">
<title>Node1</title>
<g id="a_Node000001"><a xlink:title="tag_invoke customization point and concepts.">
<polygon fill="#999999" stroke="#666666" points="223.5,-85 107.5,-85 107.5,-55 223.5,-55 223.5,-85"/>
<text text-anchor="start" x="115.5" y="-73" font-family="Helvetica,sans-Serif" font-size="10.00">include/guanaqo/tag</text>
<text text-anchor="middle" x="165.5" y="-62" font-family="Helvetica,sans-Serif" font-size="10.00">&#45;invoke.hpp</text>
</a>
</g>
</g>
<!-- Node2 -->
<g id="Node000002" class="node">
<title>Node2</title>
<g id="a_Node000002"><a xlink:href="compiler_8h.html" target="_top" xlink:title="Compiler feature detection helpers.">
<polygon fill="white" stroke="#666666" points="113,-19 0,-19 0,0 113,0 113,-19"/>
<text text-anchor="middle" x="56.5" y="-7" font-family="Helvetica,sans-Serif" font-size="10.00">guanaqo/compiler.h</text>
</a>
</g>
</g>
<!-- Node1&#45;&gt;Node2 -->
<g id="edge1_Node000001_Node000002" class="edge">
<title>Node1&#45;&gt;Node2</title>
<g id="a_edge1_Node000001_Node000002"><a xlink:title=" ">
<path fill="none" stroke="#63b8ff" d="M139.39,-54.99C121.86,-45.58 98.88,-33.24 81.56,-23.95"/>
<polygon fill="#63b8ff" stroke="#63b8ff" points="83.06,-20.78 72.6,-19.14 79.75,-26.95 83.06,-20.78"/>
</a>
</g>
</g>
<!-- Node3 -->
<g id="Node000003" class="node">
<title>Node3</title>
<g id="a_Node000003"><a xlink:title=" ">
<polygon fill="#e0e0e0" stroke="#999999" points="200,-19 131,-19 131,0 200,0 200,-19"/>
<text text-anchor="middle" x="165.5" y="-7" font-family="Helvetica,sans-Serif" font-size="10.00">type_traits</text>
</a>
</g>
</g>
<!-- Node1&#45;&gt;Node3 -->
<g id="edge2_Node000001_Node000003" class="edge">
<title>Node1&#45;&gt;Node3</title>
<g id="a_edge2_Node000001_Node000003"><a xlink:title=" ">
<path fill="none" stroke="#63b8ff" d="M165.5,-54.84C165.5,-47.21 165.5,-37.7 165.5,-29.45"/>
<polygon fill="#63b8ff" stroke="#63b8ff" points="169,-29.27 165.5,-19.27 162,-29.27 169,-29.27"/>
</a>
</g>
</g>
<!-- Node4 -->
<g id="Node000004" class="node">
<title>Node4</title>
<g id="a_Node000004"><a xlink:title=" ">
<polygon fill="#e0e0e0" stroke="#999999" points="263,-19 218,-19 218,0 263,0 263,-19"/>
<text text-anchor="middle" x="240.5" y="-7" font-family="Helvetica,sans-Serif" font-size="10.00">utility</text>
</a>
</g>
</g>
<!-- Node1&#45;&gt;Node4 -->
<g id="edge3_Node000001_Node000004" class="edge">
<title>Node1&#45;&gt;Node4</title>
<g id="a_edge3_Node000001_Node000004"><a xlink:title=" ">
<path fill="none" stroke="#63b8ff" d="M183.66,-54.84C194.99,-46 209.56,-34.63 221.12,-25.62"/>
<polygon fill="#63b8ff" stroke="#63b8ff" points="223.53,-28.18 229.26,-19.27 219.22,-22.66 223.53,-28.18"/>
</a>
</g>
</g>
</g>
</svg>
