<?xml version="1.0" encoding="UTF-8" standalone="no"?>
<!DOCTYPE svg PUBLIC "-//W3C//DTD SVG 1.1//EN"
 "http://www.w3.org/Graphics/SVG/1.1/DTD/svg11.dtd">
<!-- Generated by graphviz version 2.43.0 (0)
 -->
<!-- Title: include/guanaqo/trace.hpp Pages: 1 -->
<svg width="250pt" height="93pt"
 viewBox="0.00 0.00 249.50 93.00" xmlns="http://www.w3.org/2000/svg" xmlns:xlink="http://www.w3.org/1999/xlink">
<g id="graph0" class="graph" transform="scale(1 1) rotate(0) translate(4 89)">
<title>include/guanaqo/trace.hpp</title>
<!-- Node1 -->
<g id="Node000001" class="node">
<title>Node1</title>
<g id="a_Node000001"><a xlink:title="Tracing logger and macros (ITT, Perfetto, or fallback).">
<polygon fill="#999999" stroke="#666666" points="210,-85 64,-85 64,-66 210,-66 210,-85"/>
<text text-anchor="middle" x="137" y="-73" font-family="Helvetica,sans-Serif" font-size="10.00">include/guanaqo/trace.hpp</text>
</a>
</g>
</g>
<!-- Node2 -->
<g id="Node000002" class="node">
<title>Node2</title>
<g id="a_Node000002"><a xlink:href="hl-blas-interface_8hpp.html" target="_top" xlink:title="This file provides simple overloaded wrappers around standard BLAS functions.">
<polygon fill="white" stroke="#666666" points="144,-30 0,-30 0,0 144,0 144,-30"/>
<text text-anchor="start" x="8" y="-18" font-family="Helvetica,sans-Serif" font-size="10.00">blas/include/guanaqo</text>
<text text-anchor="middle" x="72" y="-7" font-family="Helvetica,sans-Serif" font-size="10.00">/blas/hl&#45;blas&#45;interface.hpp</text>
</a>
</g>
</g>
<!-- Node1&#45;&gt;Node2 -->
<g id="edge1_Node000001_Node000002" class="edge">
<title>Node1&#45;&gt;Node2</title>
<g id="a_edge1_Node000001_Node000002"><a xlink:title=" ">
<path fill="none" stroke="#63b8ff" d="M119.74,-58.97C109.78,-50.01 97.36,-38.82 87.68,-30.11"/>
<polygon fill="#63b8ff" stroke="#63b8ff" points="117.63,-61.78 127.41,-65.87 122.32,-56.58 117.63,-61.78"/>
</a>
</g>
</g>
<!-- Node3 -->
<g id="Node000003" class="node">
<title>Node3</title>
<g id="a_Node000003"><a xlink:href="trace_8cpp.html" target="_top" xlink:title=" ">
<polygon fill="white" stroke="#666666" points="241.5,-24.5 162.5,-24.5 162.5,-5.5 241.5,-5.5 241.5,-24.5"/>
<text text-anchor="middle" x="202" y="-12.5" font-family="Helvetica,sans-Serif" font-size="10.00">src/trace.cpp</text>
</a>
</g>
</g>
<!-- Node1&#45;&gt;Node3 -->
<g id="edge2_Node000001_Node000003" class="edge">
<title>Node1&#45;&gt;Node3</title>
<g id="a_edge2_Node000001_Node000003"><a xlink:title=" ">
<path fill="none" stroke="#63b8ff" d="M154.32,-58.91C166.51,-47.94 182.37,-33.67 192.37,-24.67"/>
<polygon fill="#63b8ff" stroke="#63b8ff" points="151.68,-56.58 146.59,-65.87 156.37,-61.78 151.68,-56.58"/>
</a>
</g>
</g>
</g>
</svg>
