<?xml version="1.0" encoding="UTF-8" standalone="no"?>
<!DOCTYPE svg PUBLIC "-//W3C//DTD SVG 1.1//EN"
 "http://www.w3.org/Graphics/SVG/1.1/DTD/svg11.dtd">
<!-- Generated by graphviz version 2.43.0 (0)
 -->
<!-- Title: blas/src/blas&#45;interface.cpp Pages: 1 -->
<svg width="706pt" height="192pt"
 viewBox="0.00 0.00 706.00 192.00" xmlns="http://www.w3.org/2000/svg" xmlns:xlink="http://www.w3.org/1999/xlink">
<g id="graph0" class="graph" transform="scale(1 1) rotate(0) translate(4 188)">
<title>blas/src/blas&#45;interface.cpp</title>
<!-- Node1 -->
<g id="Node000001" class="node">
<title>Node1</title>
<g id="a_Node000001"><a xlink:title=" ">
<polygon fill="#999999" stroke="#666666" points="421,-184 276,-184 276,-165 421,-165 421,-184"/>
<text text-anchor="middle" x="348.5" y="-172" font-family="Helvetica,sans-Serif" font-size="10.00">blas/src/blas&#45;interface.cpp</text>
</a>
</g>
</g>
<!-- Node2 -->
<g id="Node000002" class="node">
<title>Node2</title>
<g id="a_Node000002"><a xlink:href="blas-interface_8hpp.html" target="_top" xlink:title="This file provides simple overloaded wrappers around standard BLAS functions.">
<polygon fill="white" stroke="#666666" points="266,-129 93,-129 93,-110 266,-110 266,-129"/>
<text text-anchor="middle" x="179.5" y="-117" font-family="Helvetica,sans-Serif" font-size="10.00">guanaqo/blas/blas&#45;interface.hpp</text>
</a>
</g>
</g>
<!-- Node1&#45;&gt;Node2 -->
<g id="edge1_Node000001_Node000002" class="edge">
<title>Node1&#45;&gt;Node2</title>
<g id="a_edge1_Node000001_Node000002"><a xlink:title=" ">
<path fill="none" stroke="#63b8ff" d="M321.35,-164.98C292.97,-156.09 248.27,-142.07 216.64,-132.15"/>
<polygon fill="#63b8ff" stroke="#63b8ff" points="217.45,-128.73 206.87,-129.08 215.36,-135.41 217.45,-128.73"/>
</a>
</g>
</g>
<!-- Node7 -->
<g id="Node000007" class="node">
<title>Node7</title>
<g id="a_Node000007"><a xlink:title=" ">
<polygon fill="#e0e0e0" stroke="#999999" points="457,-129 332,-129 332,-110 457,-110 457,-129"/>
<text text-anchor="middle" x="394.5" y="-117" font-family="Helvetica,sans-Serif" font-size="10.00">guanaqo/blas/export.h</text>
</a>
</g>
</g>
<!-- Node1&#45;&gt;Node7 -->
<g id="edge6_Node000001_Node000007" class="edge">
<title>Node1&#45;&gt;Node7</title>
<g id="a_edge6_Node000001_Node000007"><a xlink:title=" ">
<path fill="none" stroke="#63b8ff" d="M356.1,-164.75C362.66,-157.18 372.32,-146.05 380.31,-136.84"/>
<polygon fill="#63b8ff" stroke="#63b8ff" points="383.13,-138.94 387.05,-129.09 377.85,-134.35 383.13,-138.94"/>
</a>
</g>
</g>
<!-- Node8 -->
<g id="Node000008" class="node">
<title>Node8</title>
<g id="a_Node000008"><a xlink:href="lapack_8hpp.html" target="_top" xlink:title="LAPACK error handling.">
<polygon fill="white" stroke="#666666" points="394.5,-74 256.5,-74 256.5,-55 394.5,-55 394.5,-74"/>
<text text-anchor="middle" x="325.5" y="-62" font-family="Helvetica,sans-Serif" font-size="10.00">guanaqo/blas/lapack.hpp</text>
</a>
</g>
</g>
<!-- Node1&#45;&gt;Node8 -->
<g id="edge7_Node000001_Node000008" class="edge">
<title>Node1&#45;&gt;Node8</title>
<g id="a_edge7_Node000001_Node000008"><a xlink:title=" ">
<path fill="none" stroke="#63b8ff" d="M341.61,-164.93C335.23,-156.4 326.19,-142.65 322.5,-129 318.53,-114.33 319.7,-97.08 321.62,-84.26"/>
<polygon fill="#63b8ff" stroke="#63b8ff" points="325.09,-84.77 323.4,-74.31 318.2,-83.54 325.09,-84.77"/>
</a>
</g>
</g>
<!-- Node12 -->
<g id="Node000012" class="node">
<title>Node12</title>
<g id="a_Node000012"><a xlink:href="openmp_8h.html" target="_top" xlink:title="OpenMP helpers.">
<polygon fill="white" stroke="#666666" points="585.5,-129 475.5,-129 475.5,-110 585.5,-110 585.5,-129"/>
<text text-anchor="middle" x="530.5" y="-117" font-family="Helvetica,sans-Serif" font-size="10.00">guanaqo/openmp.h</text>
</a>
</g>
</g>
<!-- Node1&#45;&gt;Node12 -->
<g id="edge13_Node000001_Node000012" class="edge">
<title>Node1&#45;&gt;Node12</title>
<g id="a_edge13_Node000001_Node000012"><a xlink:title=" ">
<path fill="none" stroke="#63b8ff" d="M377.74,-164.98C408.56,-156.01 457.28,-141.82 491.39,-131.89"/>
<polygon fill="#63b8ff" stroke="#63b8ff" points="492.41,-135.24 501.03,-129.08 490.45,-128.52 492.41,-135.24"/>
</a>
</g>
</g>
<!-- Node3 -->
<g id="Node000003" class="node">
<title>Node3</title>
<g id="a_Node000003"><a xlink:href="blas_8hpp.html" target="_top" xlink:title=" ">
<polygon fill="white" stroke="#666666" points="225.5,-74 99.5,-74 99.5,-55 225.5,-55 225.5,-74"/>
<text text-anchor="middle" x="162.5" y="-62" font-family="Helvetica,sans-Serif" font-size="10.00">guanaqo/blas/blas.hpp</text>
</a>
</g>
</g>
<!-- Node2&#45;&gt;Node3 -->
<g id="edge2_Node000002_Node000003" class="edge">
<title>Node2&#45;&gt;Node3</title>
<g id="a_edge2_Node000002_Node000003"><a xlink:title=" ">
<path fill="none" stroke="#63b8ff" d="M176.69,-109.75C174.44,-102.72 171.2,-92.62 168.38,-83.84"/>
<polygon fill="#63b8ff" stroke="#63b8ff" points="171.64,-82.54 165.25,-74.09 164.98,-84.68 171.64,-82.54"/>
</a>
</g>
</g>
<!-- Node4 -->
<g id="Node000004" class="node">
<title>Node4</title>
<g id="a_Node000004"><a xlink:title=" ">
<polygon fill="#e0e0e0" stroke="#999999" points="204,-19 69,-19 69,0 204,0 204,-19"/>
<text text-anchor="middle" x="136.5" y="-7" font-family="Helvetica,sans-Serif" font-size="10.00">guanaqo/blas/config.hpp</text>
</a>
</g>
</g>
<!-- Node3&#45;&gt;Node4 -->
<g id="edge3_Node000003_Node000004" class="edge">
<title>Node3&#45;&gt;Node4</title>
<g id="a_edge3_Node000003_Node000004"><a xlink:title=" ">
<path fill="none" stroke="#63b8ff" d="M158.21,-54.75C154.69,-47.57 149.59,-37.18 145.22,-28.27"/>
<polygon fill="#63b8ff" stroke="#63b8ff" points="148.26,-26.53 140.71,-19.09 141.98,-29.61 148.26,-26.53"/>
</a>
</g>
</g>
<!-- Node5 -->
<g id="Node000005" class="node">
<title>Node5</title>
<g id="a_Node000005"><a xlink:title=" ">
<polygon fill="#e0e0e0" stroke="#999999" points="51,-19 0,-19 0,0 51,0 51,-19"/>
<text text-anchor="middle" x="25.5" y="-7" font-family="Helvetica,sans-Serif" font-size="10.00">cblas.h</text>
</a>
</g>
</g>
<!-- Node3&#45;&gt;Node5 -->
<g id="edge4_Node000003_Node000005" class="edge">
<title>Node3&#45;&gt;Node5</title>
<g id="a_edge4_Node000003_Node000005"><a xlink:title=" ">
<path fill="none" stroke="#63b8ff" d="M140.49,-54.98C118.05,-46.3 83.02,-32.75 57.51,-22.88"/>
<polygon fill="#63b8ff" stroke="#63b8ff" points="58.5,-19.51 47.91,-19.17 55.98,-26.04 58.5,-19.51"/>
</a>
</g>
</g>
<!-- Node6 -->
<g id="Node000006" class="node">
<title>Node6</title>
<g id="a_Node000006"><a xlink:title=" ">
<polygon fill="#e0e0e0" stroke="#999999" points="291,-19 222,-19 222,0 291,0 291,-19"/>
<text text-anchor="middle" x="256.5" y="-7" font-family="Helvetica,sans-Serif" font-size="10.00">type_traits</text>
</a>
</g>
</g>
<!-- Node3&#45;&gt;Node6 -->
<g id="edge5_Node000003_Node000006" class="edge">
<title>Node3&#45;&gt;Node6</title>
<g id="a_edge5_Node000003_Node000006"><a xlink:title=" ">
<path fill="none" stroke="#63b8ff" d="M177.6,-54.98C192.32,-46.69 214.92,-33.94 232.17,-24.22"/>
<polygon fill="#63b8ff" stroke="#63b8ff" points="234.13,-27.13 241.12,-19.17 230.69,-21.03 234.13,-27.13"/>
</a>
</g>
</g>
<!-- Node8&#45;&gt;Node4 -->
<g id="edge8_Node000008_Node000004" class="edge">
<title>Node8&#45;&gt;Node4</title>
<g id="a_edge8_Node000008_Node000004"><a xlink:title=" ">
<path fill="none" stroke="#63b8ff" d="M295.13,-54.98C263.13,-46.01 212.54,-31.82 177.12,-21.89"/>
<polygon fill="#63b8ff" stroke="#63b8ff" points="177.68,-18.41 167.1,-19.08 175.79,-25.15 177.68,-18.41"/>
</a>
</g>
</g>
<!-- Node8&#45;&gt;Node6 -->
<g id="edge12_Node000008_Node000006" class="edge">
<title>Node8&#45;&gt;Node6</title>
<g id="a_edge12_Node000008_Node000006"><a xlink:title=" ">
<path fill="none" stroke="#63b8ff" d="M314.41,-54.98C304.01,-47 288.24,-34.88 275.78,-25.31"/>
<polygon fill="#63b8ff" stroke="#63b8ff" points="277.85,-22.49 267.79,-19.17 273.59,-28.04 277.85,-22.49"/>
</a>
</g>
</g>
<!-- Node9 -->
<g id="Node000009" class="node">
<title>Node9</title>
<g id="a_Node000009"><a xlink:title=" ">
<polygon fill="#e0e0e0" stroke="#999999" points="367.5,-19 309.5,-19 309.5,0 367.5,0 367.5,-19"/>
<text text-anchor="middle" x="338.5" y="-7" font-family="Helvetica,sans-Serif" font-size="10.00">lapack.h</text>
</a>
</g>
</g>
<!-- Node8&#45;&gt;Node9 -->
<g id="edge9_Node000008_Node000009" class="edge">
<title>Node8&#45;&gt;Node9</title>
<g id="a_edge9_Node000008_Node000009"><a xlink:title=" ">
<path fill="none" stroke="#63b8ff" d="M327.65,-54.75C329.37,-47.72 331.85,-37.62 334,-28.84"/>
<polygon fill="#63b8ff" stroke="#63b8ff" points="337.41,-29.63 336.39,-19.09 330.61,-27.97 337.41,-29.63"/>
</a>
</g>
</g>
<!-- Node10 -->
<g id="Node000010" class="node">
<title>Node10</title>
<g id="a_Node000010"><a xlink:title=" ">
<polygon fill="#e0e0e0" stroke="#999999" points="451,-19 386,-19 386,0 451,0 451,-19"/>
<text text-anchor="middle" x="418.5" y="-7" font-family="Helvetica,sans-Serif" font-size="10.00">stdexcept</text>
</a>
</g>
</g>
<!-- Node8&#45;&gt;Node10 -->
<g id="edge10_Node000008_Node000010" class="edge">
<title>Node8&#45;&gt;Node10</title>
<g id="a_edge10_Node000008_Node000010"><a xlink:title=" ">
<path fill="none" stroke="#63b8ff" d="M340.44,-54.98C355,-46.69 377.37,-33.94 394.43,-24.22"/>
<polygon fill="#63b8ff" stroke="#63b8ff" points="396.33,-27.16 403.29,-19.17 392.86,-21.08 396.33,-27.16"/>
</a>
</g>
</g>
<!-- Node11 -->
<g id="Node000011" class="node">
<title>Node11</title>
<g id="a_Node000011"><a xlink:title=" ">
<polygon fill="#e0e0e0" stroke="#999999" points="513.5,-19 469.5,-19 469.5,0 513.5,0 513.5,-19"/>
<text text-anchor="middle" x="491.5" y="-7" font-family="Helvetica,sans-Serif" font-size="10.00">string</text>
</a>
</g>
</g>
<!-- Node8&#45;&gt;Node11 -->
<g id="edge11_Node000008_Node000011" class="edge">
<title>Node8&#45;&gt;Node11</title>
<g id="a_edge11_Node000008_Node000011"><a xlink:title=" ">
<path fill="none" stroke="#63b8ff" d="M352.17,-54.98C381.4,-45.65 428.28,-30.68 459.48,-20.72"/>
<polygon fill="#63b8ff" stroke="#63b8ff" points="460.95,-23.93 469.41,-17.55 458.82,-17.26 460.95,-23.93"/>
</a>
</g>
</g>
<!-- Node13 -->
<g id="Node000013" class="node">
<title>Node13</title>
<g id="a_Node000013"><a xlink:href="preprocessor_8h.html" target="_top" xlink:title="Token concatenation and argument&#45;counting helpers.">
<polygon fill="white" stroke="#666666" points="571,-74 438,-74 438,-55 571,-55 571,-74"/>
<text text-anchor="middle" x="504.5" y="-62" font-family="Helvetica,sans-Serif" font-size="10.00">guanaqo/preprocessor.h</text>
</a>
</g>
</g>
<!-- Node12&#45;&gt;Node13 -->
<g id="edge14_Node000012_Node000013" class="edge">
<title>Node12&#45;&gt;Node13</title>
<g id="a_edge14_Node000012_Node000013"><a xlink:title=" ">
<path fill="none" stroke="#63b8ff" d="M526.21,-109.75C522.69,-102.57 517.59,-92.18 513.22,-83.27"/>
<polygon fill="#63b8ff" stroke="#63b8ff" points="516.26,-81.53 508.71,-74.09 509.98,-84.61 516.26,-81.53"/>
</a>
</g>
</g>
<!-- Node14 -->
<g id="Node000014" class="node">
<title>Node14</title>
<g id="a_Node000014"><a xlink:href="stringify_8h.html" target="_top" xlink:title="Stringify and token concatenation helpers.">
<polygon fill="white" stroke="#666666" points="698,-74 589,-74 589,-55 698,-55 698,-74"/>
<text text-anchor="middle" x="643.5" y="-62" font-family="Helvetica,sans-Serif" font-size="10.00">guanaqo/stringify.h</text>
</a>
</g>
</g>
<!-- Node12&#45;&gt;Node14 -->
<g id="edge15_Node000012_Node000014" class="edge">
<title>Node12&#45;&gt;Node14</title>
<g id="a_edge15_Node000012_Node000014"><a xlink:title=" ">
<path fill="none" stroke="#63b8ff" d="M548.66,-109.98C566.75,-101.5 594.78,-88.35 615.69,-78.54"/>
<polygon fill="#63b8ff" stroke="#63b8ff" points="617.45,-81.59 625.01,-74.17 614.47,-75.25 617.45,-81.59"/>
</a>
</g>
</g>
</g>
</svg>
