<?xml version="1.0" encoding="UTF-8" standalone="no"?>
<!DOCTYPE svg PUBLIC "-//W3C//DTD SVG 1.1//EN"
 "http://www.w3.org/Graphics/SVG/1.1/DTD/svg11.dtd">
<!-- Generated by graphviz version 2.43.0 (0)
 -->
<!-- Title: guanaqo::shared_any_ptr::shared_any_ptr Pages: 1 -->
<svg width="286pt" height="182pt"
 viewBox="0.00 0.00 286.00 182.00" xmlns="http://www.w3.org/2000/svg" xmlns:xlink="http://www.w3.org/1999/xlink">
<g id="graph0" class="graph" transform="scale(1 1) rotate(0) translate(4 178)">
<title>guanaqo::shared_any_ptr::shared_any_ptr</title>
<!-- Node1 -->
<g id="Node000001" class="node">
<title>Node1</title>
<g id="a_Node000001"><a xlink:title=" ">
<polygon fill="#999999" stroke="#666666" points="278,-102 157,-102 157,-72 278,-72 278,-102"/>
<text text-anchor="start" x="165" y="-90" font-family="Helvetica,sans-Serif" font-size="10.00">guanaqo::shared_any</text>
<text text-anchor="middle" x="217.5" y="-79" font-family="Helvetica,sans-Serif" font-size="10.00">_ptr::shared_any_ptr</text>
</a>
</g>
</g>
<!-- Node2 -->
<g id="Node000002" class="node">
<title>Node2</title>
<g id="a_Node000002"><a xlink:href="classguanaqo_1_1shared__any__ptr.html#a5e28d1a7a6295b17226ce840c0ba84b7" target="_top" xlink:title=" ">
<polygon fill="white" stroke="#666666" points="121,-174 0,-174 0,-144 121,-144 121,-174"/>
<text text-anchor="start" x="8" y="-162" font-family="Helvetica,sans-Serif" font-size="10.00">guanaqo::shared_any</text>
<text text-anchor="middle" x="60.5" y="-151" font-family="Helvetica,sans-Serif" font-size="10.00">_ptr::shared_any_ptr</text>
</a>
</g>
</g>
<!-- Node1&#45;&gt;Node2 -->
<g id="edge1_Node000001_Node000002" class="edge">
<title>Node1&#45;&gt;Node2</title>
<g id="a_edge1_Node000001_Node000002"><a xlink:title=" ">
<path fill="none" stroke="#63b8ff" d="M178.7,-106.9C161.29,-115.83 140.26,-126.29 121,-135 114.3,-138.03 107.1,-141.09 100.1,-143.97"/>
<polygon fill="#63b8ff" stroke="#63b8ff" points="180.68,-109.81 187.96,-102.12 177.47,-103.59 180.68,-109.81"/>
</a>
</g>
</g>
<!-- Node3 -->
<g id="Node000003" class="node">
<title>Node3</title>
<g id="a_Node000003"><a xlink:href="classguanaqo_1_1shared__any__ptr.html#af091c213f399aca95bc277683bc29d8a" target="_top" xlink:title=" ">
<polygon fill="white" stroke="#666666" points="121,-126 0,-126 0,-96 121,-96 121,-126"/>
<text text-anchor="start" x="8" y="-114" font-family="Helvetica,sans-Serif" font-size="10.00">guanaqo::shared_any</text>
<text text-anchor="middle" x="60.5" y="-103" font-family="Helvetica,sans-Serif" font-size="10.00">_ptr::shared_any_ptr</text>
</a>
</g>
</g>
<!-- Node1&#45;&gt;Node3 -->
<g id="edge2_Node000001_Node000003" class="edge">
<title>Node1&#45;&gt;Node3</title>
<g id="a_edge2_Node000001_Node000003"><a xlink:title=" ">
<path fill="none" stroke="#63b8ff" d="M146.62,-97.82C138.07,-99.14 129.39,-100.49 121.01,-101.79"/>
<polygon fill="#63b8ff" stroke="#63b8ff" points="147.23,-101.27 156.57,-96.28 146.16,-94.35 147.23,-101.27"/>
</a>
</g>
</g>
<!-- Node4 -->
<g id="Node000004" class="node">
<title>Node4</title>
<g id="a_Node000004"><a xlink:href="classguanaqo_1_1shared__any__ptr.html#a46d90e3a7599cd9500a11cd874ca2fa7" target="_top" xlink:title=" ">
<polygon fill="white" stroke="#666666" points="121,-78 0,-78 0,-48 121,-48 121,-78"/>
<text text-anchor="start" x="8" y="-66" font-family="Helvetica,sans-Serif" font-size="10.00">guanaqo::shared_any</text>
<text text-anchor="middle" x="60.5" y="-55" font-family="Helvetica,sans-Serif" font-size="10.00">_ptr::operator=</text>
</a>
</g>
</g>
<!-- Node1&#45;&gt;Node4 -->
<g id="edge3_Node000001_Node000004" class="edge">
<title>Node1&#45;&gt;Node4</title>
<g id="a_edge3_Node000001_Node000004"><a xlink:title=" ">
<path fill="none" stroke="#63b8ff" d="M146.62,-76.18C138.07,-74.86 129.39,-73.51 121.01,-72.21"/>
<polygon fill="#63b8ff" stroke="#63b8ff" points="146.16,-79.65 156.57,-77.72 147.23,-72.73 146.16,-79.65"/>
</a>
</g>
</g>
<!-- Node5 -->
<g id="Node000005" class="node">
<title>Node5</title>
<g id="a_Node000005"><a xlink:href="classguanaqo_1_1shared__any__ptr.html#ac61630c4d79ca37034fce8d41c4d4cec" target="_top" xlink:title=" ">
<polygon fill="white" stroke="#666666" points="121,-30 0,-30 0,0 121,0 121,-30"/>
<text text-anchor="start" x="8" y="-18" font-family="Helvetica,sans-Serif" font-size="10.00">guanaqo::shared_any</text>
<text text-anchor="middle" x="60.5" y="-7" font-family="Helvetica,sans-Serif" font-size="10.00">_ptr::operator=</text>
</a>
</g>
</g>
<!-- Node1&#45;&gt;Node5 -->
<g id="edge4_Node000001_Node000005" class="edge">
<title>Node1&#45;&gt;Node5</title>
<g id="a_edge4_Node000001_Node000005"><a xlink:title=" ">
<path fill="none" stroke="#63b8ff" d="M178.7,-67.1C161.29,-58.17 140.26,-47.71 121,-39 114.3,-35.97 107.1,-32.91 100.1,-30.03"/>
<polygon fill="#63b8ff" stroke="#63b8ff" points="177.47,-70.41 187.96,-71.88 180.68,-64.19 177.47,-70.41"/>
</a>
</g>
</g>
</g>
</svg>
