<?xml version="1.0" encoding="UTF-8" standalone="no"?>
<!DOCTYPE svg PUBLIC "-//W3C//DTD SVG 1.1//EN"
 "http://www.w3.org/Graphics/SVG/1.1/DTD/svg11.dtd">
<!-- Generated by graphviz version 2.43.0 (0)
 -->
<!-- Title: guanaqo::TypeErased::type Pages: 1 -->
<svg width="301pt" height="101pt"
 viewBox="0.00 0.00 301.00 101.00" xmlns="http://www.w3.org/2000/svg" xmlns:xlink="http://www.w3.org/1999/xlink">
<g id="graph0" class="graph" transform="scale(1 1) rotate(0) translate(4 97)">
<title>guanaqo::TypeErased::type</title>
<!-- Node1 -->
<g id="Node000001" class="node">
<title>Node1</title>
<g id="a_Node000001"><a xlink:title="Query the contained type.">
<polygon fill="#999999" stroke="#666666" points="293,-61.5 173,-61.5 173,-31.5 293,-31.5 293,-61.5"/>
<text text-anchor="start" x="181" y="-49.5" font-family="Helvetica,sans-Serif" font-size="10.00">guanaqo::TypeErased</text>
<text text-anchor="middle" x="233" y="-38.5" font-family="Helvetica,sans-Serif" font-size="10.00">::type</text>
</a>
</g>
</g>
<!-- Node2 -->
<g id="Node000002" class="node">
<title>Node2</title>
<g id="a_Node000002"><a xlink:href="classguanaqo_1_1TypeErased.html#a76d38077f25a709e11586e428960d0bf" target="_top" xlink:title="Convert the type&#45;erased object to the given type.">
<polygon fill="white" stroke="#666666" points="137,-93 0,-93 0,-74 137,-74 137,-93"/>
<text text-anchor="middle" x="68.5" y="-81" font-family="Helvetica,sans-Serif" font-size="10.00">guanaqo::TypeErased::as</text>
</a>
</g>
</g>
<!-- Node1&#45;&gt;Node2 -->
<g id="edge1_Node000001_Node000002" class="edge">
<title>Node1&#45;&gt;Node2</title>
<g id="a_edge1_Node000001_Node000002"><a xlink:title=" ">
<path fill="none" stroke="#63b8ff" d="M162.73,-62.27C145.32,-66.24 127.15,-70.37 111.53,-73.93"/>
<polygon fill="#63b8ff" stroke="#63b8ff" points="163.9,-65.6 172.87,-59.96 162.35,-58.77 163.9,-65.6"/>
</a>
</g>
</g>
<!-- Node3 -->
<g id="Node000003" class="node">
<title>Node3</title>
<g id="a_Node000003"><a xlink:href="classguanaqo_1_1TypeErased.html#a8cd33df7102e3cd6b6afa3b100f156a9" target="_top" xlink:title="Convert the type&#45;erased object to the given type.">
<polygon fill="white" stroke="#666666" points="137,-56 0,-56 0,-37 137,-37 137,-56"/>
<text text-anchor="middle" x="68.5" y="-44" font-family="Helvetica,sans-Serif" font-size="10.00">guanaqo::TypeErased::as</text>
</a>
</g>
</g>
<!-- Node1&#45;&gt;Node3 -->
<g id="edge2_Node000001_Node000003" class="edge">
<title>Node1&#45;&gt;Node3</title>
<g id="a_edge2_Node000001_Node000003"><a xlink:title=" ">
<path fill="none" stroke="#63b8ff" d="M162.66,-46.5C154.2,-46.5 145.56,-46.5 137.12,-46.5"/>
<polygon fill="#63b8ff" stroke="#63b8ff" points="162.87,-50 172.87,-46.5 162.87,-43 162.87,-50"/>
</a>
</g>
</g>
<!-- Node4 -->
<g id="Node000004" class="node">
<title>Node4</title>
<g id="a_Node000004"><a xlink:href="classguanaqo_1_1TypeErased.html#a119a10d23b1d37b3389c8290756dd692" target="_top" xlink:title="Convert the type&#45;erased object to the given type.">
<polygon fill="white" stroke="#666666" points="137,-19 0,-19 0,0 137,0 137,-19"/>
<text text-anchor="middle" x="68.5" y="-7" font-family="Helvetica,sans-Serif" font-size="10.00">guanaqo::TypeErased::as</text>
</a>
</g>
</g>
<!-- Node1&#45;&gt;Node4 -->
<g id="edge3_Node000001_Node000004" class="edge">
<title>Node1&#45;&gt;Node4</title>
<g id="a_edge3_Node000001_Node000004"><a xlink:title=" ">
<path fill="none" stroke="#63b8ff" d="M162.73,-30.73C145.32,-26.76 127.15,-22.63 111.53,-19.07"/>
<polygon fill="#63b8ff" stroke="#63b8ff" points="162.35,-34.23 172.87,-33.04 163.9,-27.4 162.35,-34.23"/>
</a>
</g>
</g>
</g>
</svg>
