<?xml version="1.0" encoding="UTF-8" standalone="no"?>
<!DOCTYPE svg PUBLIC "-//W3C//DTD SVG 1.1//EN"
 "http://www.w3.org/Graphics/SVG/1.1/DTD/svg11.dtd">
<!-- Generated by graphviz version 2.43.0 (0)
 -->
<!-- Title: guanaqo::MaxHistory&lt; T &gt; Pages: 1 -->
<svg width="151pt" height="132pt"
 viewBox="0.00 0.00 151.00 132.00" xmlns="http://www.w3.org/2000/svg" xmlns:xlink="http://www.w3.org/1999/xlink">
<g id="graph0" class="graph" transform="scale(1 1) rotate(0) translate(4 128)">
<title>guanaqo::MaxHistory&lt; T &gt;</title>
<!-- Node1 -->
<g id="Node000001" class="node">
<title>Node1</title>
<g id="a_Node000001"><a xlink:title="Keep track of the maximum value over a specified horizon length.">
<polygon fill="#999999" stroke="transparent" points="143,-124 0,-124 0,0 143,0 143,-124"/>
<text text-anchor="start" x="5.5" y="-112" font-family="Helvetica,sans-Serif" font-size="10.00">guanaqo::MaxHistory&lt; T &gt;</text>
<text text-anchor="start" x="21.5" y="-97" font-family="Helvetica,sans-Serif" font-size="10.00">&#45;</text>
<text text-anchor="start" x="46.5" y="-97" font-family="Helvetica,sans-Serif" font-size="10.00">buffer</text>
<text text-anchor="start" x="21.5" y="-82" font-family="Helvetica,sans-Serif" font-size="10.00">&#45;</text>
<text text-anchor="start" x="46.5" y="-82" font-family="Helvetica,sans-Serif" font-size="10.00">full</text>
<text text-anchor="start" x="21.5" y="-67" font-family="Helvetica,sans-Serif" font-size="10.00">&#45;</text>
<text text-anchor="start" x="46.5" y="-67" font-family="Helvetica,sans-Serif" font-size="10.00">it</text>
<text text-anchor="start" x="21.5" y="-52" font-family="Helvetica,sans-Serif" font-size="10.00">&#45;</text>
<text text-anchor="start" x="46.5" y="-52" font-family="Helvetica,sans-Serif" font-size="10.00">max_</text>
<text text-anchor="start" x="19" y="-37" font-family="Helvetica,sans-Serif" font-size="10.00">+</text>
<text text-anchor="start" x="46.5" y="-37" font-family="Helvetica,sans-Serif" font-size="10.00">MaxHistory()</text>
<text text-anchor="start" x="19" y="-22" font-family="Helvetica,sans-Serif" font-size="10.00">+</text>
<text text-anchor="start" x="46.5" y="-22" font-family="Helvetica,sans-Serif" font-size="10.00">add()</text>
<text text-anchor="start" x="19" y="-7" font-family="Helvetica,sans-Serif" font-size="10.00">+</text>
<text text-anchor="start" x="46.5" y="-7" font-family="Helvetica,sans-Serif" font-size="10.00">max()</text>
<polygon fill="#666666" stroke="#666666" points="0.5,-107 0.5,-107 143.5,-107 143.5,-107 0.5,-107"/>
<polygon fill="#666666" stroke="#666666" points="0.5,-47 0.5,-47 44.5,-47 44.5,-47 0.5,-47"/>
<polygon fill="#666666" stroke="#666666" points="44.5,-47 44.5,-47 143.5,-47 143.5,-47 44.5,-47"/>
<polygon fill="none" stroke="#666666" points="0,0 0,-124 143,-124 143,0 0,0"/>
</a>
</g>
</g>
</g>
</svg>
