<?xml version="1.0" encoding="UTF-8" standalone="no"?>
<!DOCTYPE svg PUBLIC "-//W3C//DTD SVG 1.1//EN"
 "http://www.w3.org/Graphics/SVG/1.1/DTD/svg11.dtd">
<!-- Generated by graphviz version 2.43.0 (0)
 -->
<!-- Title: guanaqo::TypeErased::size_indicates_ownership Pages: 1 -->
<!--zoomable 470 -->

<svg id="main" version="1.1" xmlns="http://www.w3.org/2000/svg" xmlns:xlink="http://www.w3.org/1999/xlink" xml:space="preserve" onload="init(evt)">

<style type="text/css"><![CDATA[
.node, .edge {opacity: 0.7;}
.node.selected, .edge.selected {opacity: 1;}
.edge:hover path { stroke: red; }
.edge:hover polygon { stroke: red; fill: red; }
]]></style>

<defs>
  <circle id="rim" cx="0" cy="0" r="7"/>
  <circle id="rim2" cx="0" cy="0" r="3.5"/>
  <g id="zoomPlus">
    <use xlink:href="#rim" fill="#404040"><set attributeName="fill" to="#808080" begin="zoomplus.mouseover" end="zoomplus.mouseout"/></use>
    <path d="M-4,0h8M0,-4v8" fill="none" stroke="white" stroke-width="1.5" pointer-events="none"/>
  </g>
  <g id="zoomMin">
    <use xlink:href="#rim" fill="#404040"><set attributeName="fill" to="#808080" begin="zoomminus.mouseover" end="zoomminus.mouseout"/></use>
    <path d="M-4,0h8" fill="none" stroke="white" stroke-width="1.5" pointer-events="none"/>
  </g>
  <g id="arrowUp" transform="translate(30 24)">
    <use xlink:href="#rim"/>
    <path pointer-events="none" fill="none" stroke="white" stroke-width="1.5" d="M0,-3.0v7 M-2.5,-0.5L0,-3.0L2.5,-0.5"/>
  </g>
  <g id="arrowRight" transform="rotate(90) translate(36 -43)">
    <use xlink:href="#rim"/>
    <path pointer-events="none" fill="none" stroke="white" stroke-width="1.5" d="M0,-3.0v7 M-2.5,-0.5L0,-3.0L2.5,-0.5"/>
  </g>
  <g id="arrowDown" transform="rotate(180) translate(-30 -48)">
    <use xlink:href="#rim"/>
    <path pointer-events="none" fill="none" stroke="white" stroke-width="1.5" d="M0,-3.0v7 M-2.5,-0.5L0,-3.0L2.5,-0.5"/>
  </g>
  <g id="arrowLeft" transform="rotate(270) translate(-36 17)">
    <use xlink:href="#rim"/>
    <path pointer-events="none" fill="none" stroke="white" stroke-width="1.5" d="M0,-3.0v7 M-2.5,-0.5L0,-3.0L2.5,-0.5"/>
  </g>
  <g id="resetDef">
    <use xlink:href="#rim2" fill="#404040"><set attributeName="fill" to="#808080" begin="reset.mouseover" end="reset.mouseout"/></use>
  </g>
</defs>
<script type="application/ecmascript">
var viewWidth = 800;
var viewHeight = 470;
var sectionId = 'dynsection-14';
</script>
<script type="application/ecmascript" xlink:href="svg.min.js"/>
<svg id="graph" class="graph">
<g id="viewport">
<title>guanaqo::TypeErased::size_indicates_ownership</title>
<!-- Node1 -->
<g id="Node000001" class="node">
<title>Node1</title>
<g id="a_Node000001"><a xlink:title=" ">
<polygon fill="#999999" stroke="#666666" points="792,-150 645,-150 645,-120 792,-120 792,-150"/>
<text text-anchor="start" x="653" y="-138" font-family="Helvetica,sans-Serif" font-size="10.00">guanaqo::TypeErased</text>
<text text-anchor="middle" x="718.5" y="-127" font-family="Helvetica,sans-Serif" font-size="10.00">::size_indicates_ownership</text>
</a>
</g>
</g>
<!-- Node2 -->
<g id="Node000002" class="node">
<title>Node2</title>
<g id="a_Node000002"><a xlink:href="classguanaqo_1_1TypeErased.html#a1539cdfc24389b1a988bf335a89fbccd" target="_top" xlink:title="Ensure that storage is available, either by using the small buffer if it is large enough,...">
<polygon fill="white" stroke="#666666" points="598.5,-198 478.5,-198 478.5,-168 598.5,-168 598.5,-198"/>
<text text-anchor="start" x="486.5" y="-186" font-family="Helvetica,sans-Serif" font-size="10.00">guanaqo::TypeErased</text>
<text text-anchor="middle" x="538.5" y="-175" font-family="Helvetica,sans-Serif" font-size="10.00">::allocate</text>
</a>
</g>
</g>
<!-- Node1&#45;&gt;Node2 -->
<g id="edge1_Node000001_Node000002" class="edge">
<title>Node1&#45;&gt;Node2</title>
<g id="a_edge1_Node000001_Node000002"><a xlink:title=" ">
<path fill="none" stroke="#63b8ff" d="M651.79,-152.72C633.17,-157.74 613.09,-163.15 595.13,-168"/>
<polygon fill="#63b8ff" stroke="#63b8ff" points="652.92,-156.04 661.67,-150.06 651.1,-149.28 652.92,-156.04"/>
</a>
</g>
</g>
<!-- Node14 -->
<g id="Node000014" class="node">
<title>Node14</title>
<g id="a_Node000014"><a xlink:href="classguanaqo_1_1TypeErased.html#a61bea2c086b48e820f203d3248872eaf" target="_top" xlink:title="Deallocate the memory without invoking the destructor.">
<polygon fill="white" stroke="#666666" points="598.5,-102 478.5,-102 478.5,-72 598.5,-72 598.5,-102"/>
<text text-anchor="start" x="486.5" y="-90" font-family="Helvetica,sans-Serif" font-size="10.00">guanaqo::TypeErased</text>
<text text-anchor="middle" x="538.5" y="-79" font-family="Helvetica,sans-Serif" font-size="10.00">::deallocate</text>
</a>
</g>
</g>
<!-- Node1&#45;&gt;Node14 -->
<g id="edge13_Node000001_Node000014" class="edge">
<title>Node1&#45;&gt;Node14</title>
<g id="a_edge13_Node000001_Node000014"><a xlink:title=" ">
<path fill="none" stroke="#63b8ff" d="M651.79,-117.28C633.17,-112.26 613.09,-106.85 595.13,-102"/>
<polygon fill="#63b8ff" stroke="#63b8ff" points="651.1,-120.72 661.67,-119.94 652.92,-113.96 651.1,-120.72"/>
</a>
</g>
</g>
<!-- Node18 -->
<g id="Node000018" class="node">
<title>Node18</title>
<g id="a_Node000018"><a xlink:href="classguanaqo_1_1TypeErased.html#ad3e015424b6dd535594aeb9606466245" target="_top" xlink:title="Check if this wrapper owns the storage of the wrapped object, or whether it simply stores a reference...">
<polygon fill="white" stroke="#666666" points="609,-150 468,-150 468,-120 609,-120 609,-150"/>
<text text-anchor="start" x="476" y="-138" font-family="Helvetica,sans-Serif" font-size="10.00">guanaqo::TypeErased</text>
<text text-anchor="middle" x="538.5" y="-127" font-family="Helvetica,sans-Serif" font-size="10.00">::owns_referenced_object</text>
</a>
</g>
</g>
<!-- Node1&#45;&gt;Node18 -->
<g id="edge18_Node000001_Node000018" class="edge">
<title>Node1&#45;&gt;Node18</title>
<g id="a_edge18_Node000001_Node000018"><a xlink:title=" ">
<path fill="none" stroke="#63b8ff" d="M634.79,-135C626.18,-135 617.49,-135 609.05,-135"/>
<polygon fill="#63b8ff" stroke="#63b8ff" points="634.84,-138.5 644.84,-135 634.84,-131.5 634.84,-138.5"/>
</a>
</g>
</g>
<!-- Node3 -->
<g id="Node000003" class="node">
<title>Node3</title>
<g id="a_Node000003"><a xlink:href="classguanaqo_1_1TypeErased.html#a4525c3ab83229736d301a3c54b97b2c4" target="_top" xlink:title="Ensure storage and construct the type&#45;erased object of type T in&#45;place.">
<polygon fill="white" stroke="#666666" points="432,-342 312,-342 312,-312 432,-312 432,-342"/>
<text text-anchor="start" x="320" y="-330" font-family="Helvetica,sans-Serif" font-size="10.00">guanaqo::TypeErased</text>
<text text-anchor="middle" x="372" y="-319" font-family="Helvetica,sans-Serif" font-size="10.00">::construct_inplace</text>
</a>
</g>
</g>
<!-- Node2&#45;&gt;Node3 -->
<g id="edge2_Node000002_Node000003" class="edge">
<title>Node2&#45;&gt;Node3</title>
<g id="a_edge2_Node000002_Node000003"><a xlink:title=" ">
<path fill="none" stroke="#63b8ff" d="M512.62,-204.78C478.91,-234.29 419.57,-286.24 390.31,-311.85"/>
<polygon fill="#63b8ff" stroke="#63b8ff" points="514.99,-207.36 520.21,-198.14 510.38,-202.09 514.99,-207.36"/>
</a>
</g>
</g>
<!-- Node10 -->
<g id="Node000010" class="node">
<title>Node10</title>
<g id="a_Node000010"><a xlink:href="classguanaqo_1_1TypeErased.html#a9a9a3fb15c4b0c9ee907e0c790175ee7" target="_top" xlink:title=" ">
<polygon fill="white" stroke="#666666" points="432,-174 312,-174 312,-144 432,-144 432,-174"/>
<text text-anchor="start" x="320" y="-162" font-family="Helvetica,sans-Serif" font-size="10.00">guanaqo::TypeErased</text>
<text text-anchor="middle" x="372" y="-151" font-family="Helvetica,sans-Serif" font-size="10.00">::do_copy_assign</text>
</a>
</g>
</g>
<!-- Node2&#45;&gt;Node10 -->
<g id="edge9_Node000002_Node000010" class="edge">
<title>Node2&#45;&gt;Node10</title>
<g id="a_edge9_Node000002_Node000010"><a xlink:title=" ">
<path fill="none" stroke="#63b8ff" d="M468.13,-172.88C456.12,-171.13 443.73,-169.32 432.03,-167.61"/>
<polygon fill="#63b8ff" stroke="#63b8ff" points="467.71,-176.36 478.11,-174.34 468.72,-169.43 467.71,-176.36"/>
</a>
</g>
</g>
<!-- Node4 -->
<g id="Node000004" class="node">
<title>Node4</title>
<g id="a_Node000004"><a xlink:href="classguanaqo_1_1TypeErased.html#a8b9a7cab5f7c8f0c57ee7917a386e2c4" target="_top" xlink:title="Main constructor that type&#45;erases the object constructed from the given argument.">
<polygon fill="white" stroke="#666666" points="276,-462 156,-462 156,-432 276,-432 276,-462"/>
<text text-anchor="start" x="164" y="-450" font-family="Helvetica,sans-Serif" font-size="10.00">guanaqo::TypeErased</text>
<text text-anchor="middle" x="216" y="-439" font-family="Helvetica,sans-Serif" font-size="10.00">::TypeErased</text>
</a>
</g>
</g>
<!-- Node3&#45;&gt;Node4 -->
<g id="edge3_Node000003_Node000004" class="edge">
<title>Node3&#45;&gt;Node4</title>
<g id="a_edge3_Node000003_Node000004"><a xlink:title=" ">
<path fill="none" stroke="#63b8ff" d="M352.85,-350.1C335.14,-371.39 306.48,-402.66 276,-423 271.03,-426.31 265.54,-429.3 259.95,-431.94"/>
<polygon fill="#63b8ff" stroke="#63b8ff" points="355.69,-352.16 359.31,-342.2 350.27,-347.73 355.69,-352.16"/>
</a>
</g>
</g>
<!-- Node5 -->
<g id="Node000005" class="node">
<title>Node5</title>
<g id="a_Node000005"><a xlink:href="classguanaqo_1_1TypeErased.html#ab9f728690fae172bde88c42e794b55be" target="_top" xlink:title="Main constructor that type&#45;erases the given argument.">
<polygon fill="white" stroke="#666666" points="276,-414 156,-414 156,-384 276,-384 276,-414"/>
<text text-anchor="start" x="164" y="-402" font-family="Helvetica,sans-Serif" font-size="10.00">guanaqo::TypeErased</text>
<text text-anchor="middle" x="216" y="-391" font-family="Helvetica,sans-Serif" font-size="10.00">::TypeErased</text>
</a>
</g>
</g>
<!-- Node3&#45;&gt;Node5 -->
<g id="edge4_Node000003_Node000005" class="edge">
<title>Node3&#45;&gt;Node5</title>
<g id="a_edge4_Node000003_Node000005"><a xlink:title=" ">
<path fill="none" stroke="#63b8ff" d="M333.39,-346.89C316.08,-355.82 295.16,-366.28 276,-375 269.36,-378.02 262.22,-381.08 255.28,-383.96"/>
<polygon fill="#63b8ff" stroke="#63b8ff" points="335.35,-349.82 342.61,-342.11 332.12,-343.61 335.35,-349.82"/>
</a>
</g>
</g>
<!-- Node6 -->
<g id="Node000006" class="node">
<title>Node6</title>
<g id="a_Node000006"><a xlink:href="classguanaqo_1_1TypeErased.html#aba36293b9b8f6622eaf9f5cb7e24251f" target="_top" xlink:title="Main constructor that type&#45;erases the object constructed from the given argument.">
<polygon fill="white" stroke="#666666" points="276,-366 156,-366 156,-336 276,-336 276,-366"/>
<text text-anchor="start" x="164" y="-354" font-family="Helvetica,sans-Serif" font-size="10.00">guanaqo::TypeErased</text>
<text text-anchor="middle" x="216" y="-343" font-family="Helvetica,sans-Serif" font-size="10.00">::TypeErased</text>
</a>
</g>
</g>
<!-- Node3&#45;&gt;Node6 -->
<g id="edge5_Node000003_Node000006" class="edge">
<title>Node3&#45;&gt;Node6</title>
<g id="a_edge5_Node000003_Node000006"><a xlink:title=" ">
<path fill="none" stroke="#63b8ff" d="M301.91,-337.77C293.33,-339.1 284.61,-340.46 276.2,-341.77"/>
<polygon fill="#63b8ff" stroke="#63b8ff" points="302.56,-341.21 311.9,-336.21 301.48,-334.29 302.56,-341.21"/>
</a>
</g>
</g>
<!-- Node7 -->
<g id="Node000007" class="node">
<title>Node7</title>
<g id="a_Node000007"><a xlink:href="classguanaqo_1_1TypeErased.html#a79ee52fc9756b24c66a20376095cac84" target="_top" xlink:title="Main constructor that type&#45;erases the given argument.">
<polygon fill="white" stroke="#666666" points="276,-318 156,-318 156,-288 276,-288 276,-318"/>
<text text-anchor="start" x="164" y="-306" font-family="Helvetica,sans-Serif" font-size="10.00">guanaqo::TypeErased</text>
<text text-anchor="middle" x="216" y="-295" font-family="Helvetica,sans-Serif" font-size="10.00">::TypeErased</text>
</a>
</g>
</g>
<!-- Node3&#45;&gt;Node7 -->
<g id="edge6_Node000003_Node000007" class="edge">
<title>Node3&#45;&gt;Node7</title>
<g id="a_edge6_Node000003_Node000007"><a xlink:title=" ">
<path fill="none" stroke="#63b8ff" d="M301.91,-316.23C293.33,-314.9 284.61,-313.54 276.2,-312.23"/>
<polygon fill="#63b8ff" stroke="#63b8ff" points="301.48,-319.71 311.9,-317.79 302.56,-312.79 301.48,-319.71"/>
</a>
</g>
</g>
<!-- Node8 -->
<g id="Node000008" class="node">
<title>Node8</title>
<g id="a_Node000008"><a xlink:href="classguanaqo_1_1TypeErased.html#a5eb797761113ac4c73a8cfd672a15ab5" target="_top" xlink:title="Construct a type&#45;erased wrapper of type Ret for an object of type T, initialized in&#45;place with the gi...">
<polygon fill="white" stroke="#666666" points="276,-270 156,-270 156,-240 276,-240 276,-270"/>
<text text-anchor="start" x="164" y="-258" font-family="Helvetica,sans-Serif" font-size="10.00">guanaqo::TypeErased</text>
<text text-anchor="middle" x="216" y="-247" font-family="Helvetica,sans-Serif" font-size="10.00">::make</text>
</a>
</g>
</g>
<!-- Node3&#45;&gt;Node8 -->
<g id="edge7_Node000003_Node000008" class="edge">
<title>Node3&#45;&gt;Node8</title>
<g id="a_edge7_Node000003_Node000008"><a xlink:title=" ">
<path fill="none" stroke="#63b8ff" d="M333.39,-307.11C316.08,-298.18 295.16,-287.72 276,-279 269.36,-275.98 262.22,-272.92 255.28,-270.04"/>
<polygon fill="#63b8ff" stroke="#63b8ff" points="332.12,-310.39 342.61,-311.89 335.35,-304.18 332.12,-310.39"/>
</a>
</g>
</g>
<!-- Node9 -->
<g id="Node000009" class="node">
<title>Node9</title>
<g id="a_Node000009"><a xlink:href="classguanaqo_1_1TypeErased.html#a075258e6739c3bd2adc82bfce512e311" target="_top" xlink:title="Construct a type&#45;erased wrapper of type Ret for an object of type T, initialized in&#45;place with the gi...">
<polygon fill="white" stroke="#666666" points="120,-270 0,-270 0,-240 120,-240 120,-270"/>
<text text-anchor="start" x="8" y="-258" font-family="Helvetica,sans-Serif" font-size="10.00">guanaqo::TypeErased</text>
<text text-anchor="middle" x="60" y="-247" font-family="Helvetica,sans-Serif" font-size="10.00">::make</text>
</a>
</g>
</g>
<!-- Node8&#45;&gt;Node9 -->
<g id="edge8_Node000008_Node000009" class="edge">
<title>Node8&#45;&gt;Node9</title>
<g id="a_edge8_Node000008_Node000009"><a xlink:title=" ">
<path fill="none" stroke="#63b8ff" d="M145.63,-255C137.14,-255 128.52,-255 120.2,-255"/>
<polygon fill="#63b8ff" stroke="#63b8ff" points="145.9,-258.5 155.9,-255 145.9,-251.5 145.9,-258.5"/>
</a>
</g>
</g>
<!-- Node11 -->
<g id="Node000011" class="node">
<title>Node11</title>
<g id="a_Node000011"><a xlink:href="classguanaqo_1_1TypeErased.html#a36693eaff4f3d29737ef091995b3631f" target="_top" xlink:title="Copy constructor.">
<polygon fill="white" stroke="#666666" points="276,-222 156,-222 156,-192 276,-192 276,-222"/>
<text text-anchor="start" x="164" y="-210" font-family="Helvetica,sans-Serif" font-size="10.00">guanaqo::TypeErased</text>
<text text-anchor="middle" x="216" y="-199" font-family="Helvetica,sans-Serif" font-size="10.00">::TypeErased</text>
</a>
</g>
</g>
<!-- Node10&#45;&gt;Node11 -->
<g id="edge10_Node000010_Node000011" class="edge">
<title>Node10&#45;&gt;Node11</title>
<g id="a_edge10_Node000010_Node000011"><a xlink:title=" ">
<path fill="none" stroke="#63b8ff" d="M313.04,-177.07C297.24,-181.99 280.31,-187.27 265.13,-192"/>
<polygon fill="#63b8ff" stroke="#63b8ff" points="314.19,-180.37 322.7,-174.06 312.11,-173.69 314.19,-180.37"/>
</a>
</g>
</g>
<!-- Node12 -->
<g id="Node000012" class="node">
<title>Node12</title>
<g id="a_Node000012"><a xlink:href="classguanaqo_1_1TypeErased.html#aeb0fa9e489bf394bab8a112990184133" target="_top" xlink:title="Copy constructor (allocator aware).">
<polygon fill="white" stroke="#666666" points="276,-174 156,-174 156,-144 276,-144 276,-174"/>
<text text-anchor="start" x="164" y="-162" font-family="Helvetica,sans-Serif" font-size="10.00">guanaqo::TypeErased</text>
<text text-anchor="middle" x="216" y="-151" font-family="Helvetica,sans-Serif" font-size="10.00">::TypeErased</text>
</a>
</g>
</g>
<!-- Node10&#45;&gt;Node12 -->
<g id="edge11_Node000010_Node000012" class="edge">
<title>Node10&#45;&gt;Node12</title>
<g id="a_edge11_Node000010_Node000012"><a xlink:title=" ">
<path fill="none" stroke="#63b8ff" d="M301.63,-159C293.14,-159 284.52,-159 276.2,-159"/>
<polygon fill="#63b8ff" stroke="#63b8ff" points="301.9,-162.5 311.9,-159 301.9,-155.5 301.9,-162.5"/>
</a>
</g>
</g>
<!-- Node13 -->
<g id="Node000013" class="node">
<title>Node13</title>
<g id="a_Node000013"><a xlink:href="classguanaqo_1_1TypeErased.html#a200f8ff694b5ae333d19578655c51b29" target="_top" xlink:title="Copy assignment.">
<polygon fill="white" stroke="#666666" points="276,-126 156,-126 156,-96 276,-96 276,-126"/>
<text text-anchor="start" x="164" y="-114" font-family="Helvetica,sans-Serif" font-size="10.00">guanaqo::TypeErased</text>
<text text-anchor="middle" x="216" y="-103" font-family="Helvetica,sans-Serif" font-size="10.00">::operator=</text>
</a>
</g>
</g>
<!-- Node10&#45;&gt;Node13 -->
<g id="edge12_Node000010_Node000013" class="edge">
<title>Node10&#45;&gt;Node13</title>
<g id="a_edge12_Node000010_Node000013"><a xlink:title=" ">
<path fill="none" stroke="#63b8ff" d="M313.04,-140.93C297.24,-136.01 280.31,-130.73 265.13,-126"/>
<polygon fill="#63b8ff" stroke="#63b8ff" points="312.11,-144.31 322.7,-143.94 314.19,-137.63 312.11,-144.31"/>
</a>
</g>
</g>
<!-- Node15 -->
<g id="Node000015" class="node">
<title>Node15</title>
<g id="a_Node000015"><a xlink:href="classguanaqo_1_1TypeErased.html#ad922828914ba7d9a631f9538a31b7b38" target="_top" xlink:title="Destroy the type&#45;erased object (if not empty), and deallocate the memory if necessary.">
<polygon fill="white" stroke="#666666" points="432,-102 312,-102 312,-72 432,-72 432,-102"/>
<text text-anchor="start" x="320" y="-90" font-family="Helvetica,sans-Serif" font-size="10.00">guanaqo::TypeErased</text>
<text text-anchor="middle" x="372" y="-79" font-family="Helvetica,sans-Serif" font-size="10.00">::cleanup</text>
</a>
</g>
</g>
<!-- Node14&#45;&gt;Node15 -->
<g id="edge14_Node000014_Node000015" class="edge">
<title>Node14&#45;&gt;Node15</title>
<g id="a_edge14_Node000014_Node000015"><a xlink:title=" ">
<path fill="none" stroke="#63b8ff" d="M467.77,-87C455.87,-87 443.61,-87 432.03,-87"/>
<polygon fill="#63b8ff" stroke="#63b8ff" points="468.11,-90.5 478.11,-87 468.11,-83.5 468.11,-90.5"/>
</a>
</g>
</g>
<!-- Node15&#45;&gt;Node13 -->
<g id="edge16_Node000015_Node000013" class="edge">
<title>Node15&#45;&gt;Node13</title>
<g id="a_edge16_Node000015_Node000013"><a xlink:title=" ">
<path fill="none" stroke="#63b8ff" d="M301.91,-97.77C293.33,-99.1 284.61,-100.46 276.2,-101.77"/>
<polygon fill="#63b8ff" stroke="#63b8ff" points="302.56,-101.21 311.9,-96.21 301.48,-94.29 302.56,-101.21"/>
</a>
</g>
</g>
<!-- Node16 -->
<g id="Node000016" class="node">
<title>Node16</title>
<g id="a_Node000016"><a xlink:href="classguanaqo_1_1TypeErased.html#a7037b452c2188fe5a496df955edb9227" target="_top" xlink:title="Destructor.">
<polygon fill="white" stroke="#666666" points="276,-78 156,-78 156,-48 276,-48 276,-78"/>
<text text-anchor="start" x="164" y="-66" font-family="Helvetica,sans-Serif" font-size="10.00">guanaqo::TypeErased</text>
<text text-anchor="middle" x="216" y="-55" font-family="Helvetica,sans-Serif" font-size="10.00">::~TypeErased</text>
</a>
</g>
</g>
<!-- Node15&#45;&gt;Node16 -->
<g id="edge15_Node000015_Node000016" class="edge">
<title>Node15&#45;&gt;Node16</title>
<g id="a_edge15_Node000015_Node000016"><a xlink:title=" ">
<path fill="none" stroke="#63b8ff" d="M301.91,-76.23C293.33,-74.9 284.61,-73.54 276.2,-72.23"/>
<polygon fill="#63b8ff" stroke="#63b8ff" points="301.48,-79.71 311.9,-77.79 302.56,-72.79 301.48,-79.71"/>
</a>
</g>
</g>
<!-- Node17 -->
<g id="Node000017" class="node">
<title>Node17</title>
<g id="a_Node000017"><a xlink:href="classguanaqo_1_1TypeErased.html#afdb83d79e0f8a75cf16a166a3888eab9" target="_top" xlink:title="Move assignment.">
<polygon fill="white" stroke="#666666" points="276,-30 156,-30 156,0 276,0 276,-30"/>
<text text-anchor="start" x="164" y="-18" font-family="Helvetica,sans-Serif" font-size="10.00">guanaqo::TypeErased</text>
<text text-anchor="middle" x="216" y="-7" font-family="Helvetica,sans-Serif" font-size="10.00">::operator=</text>
</a>
</g>
</g>
<!-- Node15&#45;&gt;Node17 -->
<g id="edge17_Node000015_Node000017" class="edge">
<title>Node15&#45;&gt;Node17</title>
<g id="a_edge17_Node000015_Node000017"><a xlink:title=" ">
<path fill="none" stroke="#63b8ff" d="M333.39,-67.11C316.08,-58.18 295.16,-47.72 276,-39 269.36,-35.98 262.22,-32.92 255.28,-30.04"/>
<polygon fill="#63b8ff" stroke="#63b8ff" points="332.12,-70.39 342.61,-71.89 335.35,-64.18 332.12,-70.39"/>
</a>
</g>
</g>
<!-- Node18&#45;&gt;Node10 -->
<g id="edge20_Node000018_Node000010" class="edge">
<title>Node18&#45;&gt;Node10</title>
<g id="a_edge20_Node000018_Node000010"><a xlink:title=" ">
<path fill="none" stroke="#63b8ff" d="M457.7,-146.64C449.12,-147.89 440.5,-149.15 432.22,-150.36"/>
<polygon fill="#63b8ff" stroke="#63b8ff" points="458.35,-150.09 467.74,-145.18 457.34,-143.16 458.35,-150.09"/>
</a>
</g>
</g>
<!-- Node18&#45;&gt;Node15 -->
<g id="edge19_Node000018_Node000015" class="edge">
<title>Node18&#45;&gt;Node15</title>
<g id="a_edge19_Node000018_Node000015"><a xlink:title=" ">
<path fill="none" stroke="#63b8ff" d="M476.06,-117.07C459.06,-112.11 440.78,-106.78 424.41,-102"/>
<polygon fill="#63b8ff" stroke="#63b8ff" points="475.32,-120.5 485.9,-119.94 477.28,-113.78 475.32,-120.5"/>
</a>
</g>
</g>
</g>
</svg>

<g id="navigator" transform="translate(0 0)" fill="#404254">
  <rect fill="#f2f5e9" fill-opacity="0.5" stroke="#606060" stroke-width=".5" x="0" y="0" width="60" height="60"/>
  <use id="zoomplus" xlink:href="#zoomPlus" x="17" y="9" onmousedown="handleZoom(evt,'in')"/>
  <use id="zoomminus" xlink:href="#zoomMin" x="42" y="9" onmousedown="handleZoom(evt,'out')"/>
  <use id="reset" xlink:href="#resetDef" x="30" y="36" onmousedown="handleReset()"/>
   <use id="arrowup" xlink:href="#arrowUp" x="0" y="0" onmousedown="handlePan(0,-1)"/>
  <use id="arrowright" xlink:href="#arrowRight" x="0" y="0" onmousedown="handlePan(1,0)"/>
  <use id="arrowdown" xlink:href="#arrowDown" x="0" y="0" onmousedown="handlePan(0,1)"/>
  <use id="arrowleft" xlink:href="#arrowLeft" x="0" y="0" onmousedown="handlePan(-1,0)"/>
</g>
<svg viewBox="0 0 15 15" width="100%" height="30px" preserveAspectRatio="xMaxYMin meet">
 <g id="arrow_out" transform="scale(0.3 0.3)">
  <a xlink:href="classguanaqo_1_1TypeErased_ac8f39b0ccb2a310de00de9637f6aaf97_icgraph_org.svg" target="_base">
   <rect id="button" ry="5" rx="5" y="6" x="6" height="38" width="38"
        fill="#f2f5e9" fill-opacity="0.5" stroke="#606060" stroke-width="1.0"/>
   <path id="arrow"
     d="M 11.500037,31.436501 C 11.940474,20.09759 22.043105,11.32322 32.158766,21.979434 L 37.068811,17.246167 C 37.068811,17.246167 37.088388,32 37.088388,32 L 22.160133,31.978069 C 22.160133,31.978069 26.997745,27.140456 26.997745,27.140456 C 18.528582,18.264221 13.291696,25.230495 11.500037,31.436501 z"
     style="fill:#404040;"/>
  </a>
 </g>
</svg>

<style type='text/css'>
<![CDATA[
[data-mouse-over-selected='false'] { opacity: 0.7; }
[data-mouse-over-selected='true']  { opacity: 1.0; }
]]>
</style>
<script type="application/ecmascript"><![CDATA[
document.addEventListener('DOMContentLoaded', (event) => {
  highlightEdges();
  highlightAdjacentNodes();
});
]]></script>
</svg>
