<?xml version="1.0" encoding="UTF-8" standalone="no"?>
<!DOCTYPE svg PUBLIC "-//W3C//DTD SVG 1.1//EN"
 "http://www.w3.org/Graphics/SVG/1.1/DTD/svg11.dtd">
<!-- Generated by graphviz version 2.43.0 (0)
 -->
<!-- Title: guanaqo::TypeErased::TypeErased Pages: 1 -->
<svg width="644pt" height="134pt"
 viewBox="0.00 0.00 644.00 134.00" xmlns="http://www.w3.org/2000/svg" xmlns:xlink="http://www.w3.org/1999/xlink">
<g id="graph0" class="graph" transform="scale(1 1) rotate(0) translate(4 130)">
<title>guanaqo::TypeErased::TypeErased</title>
<!-- Node1 -->
<g id="Node000001" class="node">
<title>Node1</title>
<g id="a_Node000001"><a xlink:title="Copy constructor.">
<polygon fill="#999999" stroke="#666666" points="120,-101 0,-101 0,-71 120,-71 120,-101"/>
<text text-anchor="start" x="8" y="-89" font-family="Helvetica,sans-Serif" font-size="10.00">guanaqo::TypeErased</text>
<text text-anchor="middle" x="60" y="-78" font-family="Helvetica,sans-Serif" font-size="10.00">::TypeErased</text>
</a>
</g>
</g>
<!-- Node2 -->
<g id="Node000002" class="node">
<title>Node2</title>
<g id="a_Node000002"><a xlink:href="classguanaqo_1_1TypeErased.html#a32b0f63d3c9a366264d6c3365db9ace6" target="_top" xlink:title="Default constructor.">
<polygon fill="white" stroke="#666666" points="442.5,-126 322.5,-126 322.5,-96 442.5,-96 442.5,-126"/>
<text text-anchor="start" x="330.5" y="-114" font-family="Helvetica,sans-Serif" font-size="10.00">guanaqo::TypeErased</text>
<text text-anchor="middle" x="382.5" y="-103" font-family="Helvetica,sans-Serif" font-size="10.00">::TypeErased</text>
</a>
</g>
</g>
<!-- Node1&#45;&gt;Node2 -->
<g id="edge1_Node000001_Node000002" class="edge">
<title>Node1&#45;&gt;Node2</title>
<g id="a_edge1_Node000001_Node000002"><a xlink:title=" ">
<path fill="none" stroke="#63b8ff" d="M120.16,-90.61C174.5,-94.85 255.06,-101.14 312.36,-105.61"/>
<polygon fill="#63b8ff" stroke="#63b8ff" points="312.17,-109.1 322.42,-106.39 312.72,-102.12 312.17,-109.1"/>
</a>
</g>
</g>
<!-- Node3 -->
<g id="Node000003" class="node">
<title>Node3</title>
<g id="a_Node000003"><a xlink:href="classguanaqo_1_1TypeErased.html#a9a9a3fb15c4b0c9ee907e0c790175ee7" target="_top" xlink:title=" ">
<polygon fill="white" stroke="#666666" points="276,-80 156,-80 156,-50 276,-50 276,-80"/>
<text text-anchor="start" x="164" y="-68" font-family="Helvetica,sans-Serif" font-size="10.00">guanaqo::TypeErased</text>
<text text-anchor="middle" x="216" y="-57" font-family="Helvetica,sans-Serif" font-size="10.00">::do_copy_assign</text>
</a>
</g>
</g>
<!-- Node1&#45;&gt;Node3 -->
<g id="edge2_Node000001_Node000003" class="edge">
<title>Node1&#45;&gt;Node3</title>
<g id="a_edge2_Node000001_Node000003"><a xlink:title=" ">
<path fill="none" stroke="#63b8ff" d="M120.1,-77.94C128.51,-76.79 137.23,-75.61 145.81,-74.43"/>
<polygon fill="#63b8ff" stroke="#63b8ff" points="146.37,-77.89 155.8,-73.07 145.42,-70.96 146.37,-77.89"/>
</a>
</g>
</g>
<!-- Node3&#45;&gt;Node2 -->
<g id="edge3_Node000003_Node000002" class="edge">
<title>Node3&#45;&gt;Node2</title>
<g id="a_edge3_Node000003_Node000002"><a xlink:title=" ">
<path fill="none" stroke="#63b8ff" d="M270.86,-80.06C285.85,-84.25 302.27,-88.85 317.77,-93.18"/>
<polygon fill="#63b8ff" stroke="#63b8ff" points="317.22,-96.66 327.8,-95.98 319.11,-89.92 317.22,-96.66"/>
</a>
</g>
</g>
<!-- Node4 -->
<g id="Node000004" class="node">
<title>Node4</title>
<g id="a_Node000004"><a xlink:href="classguanaqo_1_1TypeErased.html#a1539cdfc24389b1a988bf335a89fbccd" target="_top" xlink:title="Ensure that storage is available, either by using the small buffer if it is large enough,...">
<polygon fill="white" stroke="#666666" points="442.5,-78 322.5,-78 322.5,-48 442.5,-48 442.5,-78"/>
<text text-anchor="start" x="330.5" y="-66" font-family="Helvetica,sans-Serif" font-size="10.00">guanaqo::TypeErased</text>
<text text-anchor="middle" x="382.5" y="-55" font-family="Helvetica,sans-Serif" font-size="10.00">::allocate</text>
</a>
</g>
</g>
<!-- Node3&#45;&gt;Node4 -->
<g id="edge4_Node000003_Node000004" class="edge">
<title>Node3&#45;&gt;Node4</title>
<g id="a_edge4_Node000003_Node000004"><a xlink:title=" ">
<path fill="none" stroke="#63b8ff" d="M276.39,-64.28C287.99,-64.14 300.25,-63.99 312.14,-63.84"/>
<polygon fill="#63b8ff" stroke="#63b8ff" points="312.52,-67.34 322.47,-63.72 312.43,-60.34 312.52,-67.34"/>
</a>
</g>
</g>
<!-- Node6 -->
<g id="Node000006" class="node">
<title>Node6</title>
<g id="a_Node000006"><a xlink:href="classguanaqo_1_1TypeErased.html#ad3e015424b6dd535594aeb9606466245" target="_top" xlink:title="Check if this wrapper owns the storage of the wrapped object, or whether it simply stores a reference...">
<polygon fill="white" stroke="#666666" points="453,-30 312,-30 312,0 453,0 453,-30"/>
<text text-anchor="start" x="320" y="-18" font-family="Helvetica,sans-Serif" font-size="10.00">guanaqo::TypeErased</text>
<text text-anchor="middle" x="382.5" y="-7" font-family="Helvetica,sans-Serif" font-size="10.00">::owns_referenced_object</text>
</a>
</g>
</g>
<!-- Node3&#45;&gt;Node6 -->
<g id="edge6_Node000003_Node000006" class="edge">
<title>Node3&#45;&gt;Node6</title>
<g id="a_edge6_Node000003_Node000006"><a xlink:title=" ">
<path fill="none" stroke="#63b8ff" d="M266.36,-50C283.92,-44.66 303.89,-38.59 322.2,-33.02"/>
<polygon fill="#63b8ff" stroke="#63b8ff" points="323.35,-36.33 331.9,-30.08 321.31,-29.64 323.35,-36.33"/>
</a>
</g>
</g>
<!-- Node5 -->
<g id="Node000005" class="node">
<title>Node5</title>
<g id="a_Node000005"><a xlink:href="classguanaqo_1_1TypeErased.html#ac8f39b0ccb2a310de00de9637f6aaf97" target="_top" xlink:title=" ">
<polygon fill="white" stroke="#666666" points="636,-54 489,-54 489,-24 636,-24 636,-54"/>
<text text-anchor="start" x="497" y="-42" font-family="Helvetica,sans-Serif" font-size="10.00">guanaqo::TypeErased</text>
<text text-anchor="middle" x="562.5" y="-31" font-family="Helvetica,sans-Serif" font-size="10.00">::size_indicates_ownership</text>
</a>
</g>
</g>
<!-- Node4&#45;&gt;Node5 -->
<g id="edge5_Node000004_Node000005" class="edge">
<title>Node4&#45;&gt;Node5</title>
<g id="a_edge5_Node000004_Node000005"><a xlink:title=" ">
<path fill="none" stroke="#63b8ff" d="M442.77,-55.01C454.31,-53.45 466.6,-51.8 478.73,-50.16"/>
<polygon fill="#63b8ff" stroke="#63b8ff" points="479.42,-53.6 488.86,-48.79 478.49,-46.66 479.42,-53.6"/>
</a>
</g>
</g>
<!-- Node6&#45;&gt;Node5 -->
<g id="edge7_Node000006_Node000005" class="edge">
<title>Node6&#45;&gt;Node5</title>
<g id="a_edge7_Node000006_Node000005"><a xlink:title=" ">
<path fill="none" stroke="#63b8ff" d="M453.08,-24.38C461.49,-25.52 470.15,-26.68 478.72,-27.84"/>
<polygon fill="#63b8ff" stroke="#63b8ff" points="478.36,-31.32 488.74,-29.19 479.29,-24.38 478.36,-31.32"/>
</a>
</g>
</g>
</g>
</svg>
