<?xml version="1.0" encoding="UTF-8" standalone="no"?>
<!DOCTYPE svg PUBLIC "-//W3C//DTD SVG 1.1//EN"
 "http://www.w3.org/Graphics/SVG/1.1/DTD/svg11.dtd">
<!-- Generated by graphviz version 2.43.0 (0)
 -->
<!-- Title: guanaqo::scoped_ostream_redirect::scoped_ostream_redirect Pages: 1 -->
<svg width="336pt" height="205pt"
 viewBox="0.00 0.00 336.00 204.50" xmlns="http://www.w3.org/2000/svg" xmlns:xlink="http://www.w3.org/1999/xlink">

<svg id="main" version="1.1" xmlns="http://www.w3.org/2000/svg" xmlns:xlink="http://www.w3.org/1999/xlink" xml:space="preserve">

<style type="text/css"><![CDATA[
.node, .edge {opacity: 0.7;}
.node.selected, .edge.selected {opacity: 1;}
.edge:hover path { stroke: red; }
.edge:hover polygon { stroke: red; fill: red; }
]]></style>
<script type="application/ecmascript" xlink:href="svg.min.js"/>
<svg id="graph" class="graph">
<g id="graph0" class="graph" transform="scale(1 1) rotate(0) translate(4 200.5)">
<title>guanaqo::scoped_ostream_redirect::scoped_ostream_redirect</title>
<!-- Node1 -->
<g id="Node000001" class="node">
<title>Node1</title>
<g id="a_Node000001"><a xlink:title=" ">
<polygon fill="#999999" stroke="#666666" points="328,-110.5 182,-110.5 182,-69.5 328,-69.5 328,-110.5"/>
<text text-anchor="start" x="190" y="-98.5" font-family="Helvetica,sans-Serif" font-size="10.00">guanaqo::scoped_ostream</text>
<text text-anchor="start" x="190" y="-87.5" font-family="Helvetica,sans-Serif" font-size="10.00">_redirect::scoped_ostream</text>
<text text-anchor="middle" x="255" y="-76.5" font-family="Helvetica,sans-Serif" font-size="10.00">_redirect</text>
</a>
</g>
</g>
<!-- Node2 -->
<g id="Node000002" class="node">
<title>Node2</title>
<g id="a_Node000002"><a xlink:href="classguanaqo_1_1scoped__ostream__redirect.html#a942351f545a7d1b13762121e0af77479" target="_top" xlink:title=" ">
<polygon fill="white" stroke="#666666" points="146,-196.5 0,-196.5 0,-155.5 146,-155.5 146,-196.5"/>
<text text-anchor="start" x="8" y="-184.5" font-family="Helvetica,sans-Serif" font-size="10.00">guanaqo::scoped_ostream</text>
<text text-anchor="start" x="8" y="-173.5" font-family="Helvetica,sans-Serif" font-size="10.00">_redirect::scoped_ostream</text>
<text text-anchor="middle" x="73" y="-162.5" font-family="Helvetica,sans-Serif" font-size="10.00">_redirect</text>
</a>
</g>
</g>
<!-- Node1&#45;&gt;Node2 -->
<g id="edge1_Node000001_Node000002" class="edge">
<title>Node1&#45;&gt;Node2</title>
<g id="a_edge1_Node000001_Node000002"><a xlink:title=" ">
<path fill="none" stroke="#63b8ff" d="M207.97,-115.63C189,-125.84 166.66,-137.42 146,-147 139.89,-149.83 133.42,-152.67 126.96,-155.39"/>
<polygon fill="#63b8ff" stroke="#63b8ff" points="209.86,-118.58 216.99,-110.74 206.53,-112.43 209.86,-118.58"/>
</a>
</g>
</g>
<!-- Node3 -->
<g id="Node000003" class="node">
<title>Node3</title>
<g id="a_Node000003"><a xlink:href="classguanaqo_1_1scoped__ostream__redirect.html#adb12d6aab97590d761ec46db93e1df00" target="_top" xlink:title=" ">
<polygon fill="white" stroke="#666666" points="146,-137.5 0,-137.5 0,-96.5 146,-96.5 146,-137.5"/>
<text text-anchor="start" x="8" y="-125.5" font-family="Helvetica,sans-Serif" font-size="10.00">guanaqo::scoped_ostream</text>
<text text-anchor="start" x="8" y="-114.5" font-family="Helvetica,sans-Serif" font-size="10.00">_redirect::scoped_ostream</text>
<text text-anchor="middle" x="73" y="-103.5" font-family="Helvetica,sans-Serif" font-size="10.00">_redirect</text>
</a>
</g>
</g>
<!-- Node1&#45;&gt;Node3 -->
<g id="edge2_Node000001_Node000003" class="edge">
<title>Node1&#45;&gt;Node3</title>
<g id="a_edge2_Node000001_Node000003"><a xlink:title=" ">
<path fill="none" stroke="#63b8ff" d="M171.84,-102.32C163.28,-103.61 154.63,-104.91 146.19,-106.17"/>
<polygon fill="#63b8ff" stroke="#63b8ff" points="172.45,-105.77 181.82,-100.83 171.42,-98.85 172.45,-105.77"/>
</a>
</g>
</g>
<!-- Node4 -->
<g id="Node000004" class="node">
<title>Node4</title>
<g id="a_Node000004"><a xlink:href="classguanaqo_1_1scoped__ostream__redirect.html#aed107591c2028389986c19f198a4a50d" target="_top" xlink:title=" ">
<polygon fill="white" stroke="#666666" points="145.5,-78 0.5,-78 0.5,-48 145.5,-48 145.5,-78"/>
<text text-anchor="start" x="8.5" y="-66" font-family="Helvetica,sans-Serif" font-size="10.00">guanaqo::scoped_ostream</text>
<text text-anchor="middle" x="73" y="-55" font-family="Helvetica,sans-Serif" font-size="10.00">_redirect::operator=</text>
</a>
</g>
</g>
<!-- Node1&#45;&gt;Node4 -->
<g id="edge3_Node000001_Node000004" class="edge">
<title>Node1&#45;&gt;Node4</title>
<g id="a_edge3_Node000001_Node000004"><a xlink:title=" ">
<path fill="none" stroke="#63b8ff" d="M171.67,-77.65C162.97,-76.35 154.17,-75.03 145.61,-73.74"/>
<polygon fill="#63b8ff" stroke="#63b8ff" points="171.42,-81.15 181.82,-79.17 172.45,-74.23 171.42,-81.15"/>
</a>
</g>
</g>
<!-- Node5 -->
<g id="Node000005" class="node">
<title>Node5</title>
<g id="a_Node000005"><a xlink:href="classguanaqo_1_1scoped__ostream__redirect.html#a77e53a8dad222f55299678b687596d76" target="_top" xlink:title=" ">
<polygon fill="white" stroke="#666666" points="145.5,-30 0.5,-30 0.5,0 145.5,0 145.5,-30"/>
<text text-anchor="start" x="8.5" y="-18" font-family="Helvetica,sans-Serif" font-size="10.00">guanaqo::scoped_ostream</text>
<text text-anchor="middle" x="73" y="-7" font-family="Helvetica,sans-Serif" font-size="10.00">_redirect::operator=</text>
</a>
</g>
</g>
<!-- Node1&#45;&gt;Node5 -->
<g id="edge4_Node000001_Node000005" class="edge">
<title>Node1&#45;&gt;Node5</title>
<g id="a_edge4_Node000001_Node000005"><a xlink:title=" ">
<path fill="none" stroke="#63b8ff" d="M204.27,-64.99C186.13,-56.28 165.34,-46.76 146,-39 138.3,-35.91 130.02,-32.89 121.93,-30.09"/>
<polygon fill="#63b8ff" stroke="#63b8ff" points="202.96,-68.25 213.48,-69.46 206.01,-61.95 202.96,-68.25"/>
</a>
</g>
</g>
</g>
</svg>
</svg>

<style type='text/css'>
<![CDATA[
[data-mouse-over-selected='false'] { opacity: 0.7; }
[data-mouse-over-selected='true']  { opacity: 1.0; }
]]>
</style>
<script type="application/ecmascript"><![CDATA[
document.addEventListener('DOMContentLoaded', (event) => {
  highlightEdges();
  highlightAdjacentNodes();
});
]]></script>
</svg>
