<?xml version="1.0" encoding="UTF-8" standalone="no"?>
<!DOCTYPE svg PUBLIC "-//W3C//DTD SVG 1.1//EN"
 "http://www.w3.org/Graphics/SVG/1.1/DTD/svg11.dtd">
<!-- Generated by graphviz version 2.43.0 (0)
 -->
<!-- Title: guanaqo::PrintMatrixView::cols Pages: 1 -->
<svg width="650pt" height="172pt"
 viewBox="0.00 0.00 650.00 171.50" xmlns="http://www.w3.org/2000/svg" xmlns:xlink="http://www.w3.org/1999/xlink">
<g id="graph0" class="graph" transform="scale(1 1) rotate(0) translate(4 167.5)">
<title>guanaqo::PrintMatrixView::cols</title>
<!-- Node1 -->
<g id="Node000001" class="node">
<title>Node1</title>
<g id="a_Node000001"><a xlink:title=" ">
<polygon fill="#999999" stroke="#666666" points="642,-98.5 499,-98.5 499,-68.5 642,-68.5 642,-98.5"/>
<text text-anchor="start" x="507" y="-86.5" font-family="Helvetica,sans-Serif" font-size="10.00">guanaqo::PrintMatrixView</text>
<text text-anchor="middle" x="570.5" y="-75.5" font-family="Helvetica,sans-Serif" font-size="10.00">::cols</text>
</a>
</g>
</g>
<!-- Node2 -->
<g id="Node000002" class="node">
<title>Node2</title>
<g id="a_Node000002"><a xlink:href="classguanaqo_1_1PrintMatrixView.html#aa372c663c11294c471b6800bdd0e60f6" target="_top" xlink:title=" ">
<polygon fill="white" stroke="#666666" points="463,-163.5 320,-163.5 320,-133.5 463,-133.5 463,-163.5"/>
<text text-anchor="start" x="328" y="-151.5" font-family="Helvetica,sans-Serif" font-size="10.00">guanaqo::PrintMatrixView</text>
<text text-anchor="middle" x="391.5" y="-140.5" font-family="Helvetica,sans-Serif" font-size="10.00">::PrintMatrixView</text>
</a>
</g>
</g>
<!-- Node1&#45;&gt;Node2 -->
<g id="edge1_Node000001_Node000002" class="edge">
<title>Node1&#45;&gt;Node2</title>
<g id="a_edge1_Node000001_Node000002"><a xlink:title=" ">
<path fill="none" stroke="#63b8ff" d="M518.79,-102.12C491.8,-112.04 459.03,-124.07 433.64,-133.39"/>
<polygon fill="#63b8ff" stroke="#63b8ff" points="520.27,-105.31 528.45,-98.58 517.85,-98.74 520.27,-105.31"/>
</a>
</g>
</g>
<!-- Node3 -->
<g id="Node000003" class="node">
<title>Node3</title>
<g id="a_Node000003"><a xlink:href="namespaceguanaqo_1_1detail.html#a88c9fe1314e5663d4c70ce10355c6e56" target="_top" xlink:title=" ">
<polygon fill="white" stroke="#666666" points="452,-77.5 331,-77.5 331,-47.5 452,-47.5 452,-77.5"/>
<text text-anchor="start" x="339" y="-65.5" font-family="Helvetica,sans-Serif" font-size="10.00">guanaqo::detail::print</text>
<text text-anchor="middle" x="391.5" y="-54.5" font-family="Helvetica,sans-Serif" font-size="10.00">_csv_impl</text>
</a>
</g>
</g>
<!-- Node1&#45;&gt;Node3 -->
<g id="edge2_Node000001_Node000003" class="edge">
<title>Node1&#45;&gt;Node3</title>
<g id="a_edge2_Node000001_Node000003"><a xlink:title=" ">
<path fill="none" stroke="#63b8ff" d="M488.52,-73.89C476.22,-72.43 463.73,-70.95 452.01,-69.56"/>
<polygon fill="#63b8ff" stroke="#63b8ff" points="488.44,-77.41 498.78,-75.11 489.26,-70.46 488.44,-77.41"/>
</a>
</g>
</g>
<!-- Node4 -->
<g id="Node000004" class="node">
<title>Node4</title>
<g id="a_Node000004"><a xlink:href="namespaceguanaqo_1_1detail.html#a8c302199bfdbe4134d5a49129ee1aaf4" target="_top" xlink:title=" ">
<polygon fill="white" stroke="#666666" points="284,-110.5 163,-110.5 163,-80.5 284,-80.5 284,-110.5"/>
<text text-anchor="start" x="171" y="-98.5" font-family="Helvetica,sans-Serif" font-size="10.00">guanaqo::detail::print</text>
<text text-anchor="middle" x="223.5" y="-87.5" font-family="Helvetica,sans-Serif" font-size="10.00">_matlab_impl</text>
</a>
</g>
</g>
<!-- Node1&#45;&gt;Node4 -->
<g id="edge9_Node000001_Node000004" class="edge">
<title>Node1&#45;&gt;Node4</title>
<g id="a_edge9_Node000001_Node000004"><a xlink:title=" ">
<path fill="none" stroke="#63b8ff" d="M488.61,-86.31C425.98,-88.49 340.65,-91.46 284.13,-93.43"/>
<polygon fill="#63b8ff" stroke="#63b8ff" points="488.98,-89.8 498.85,-85.96 488.74,-82.81 488.98,-89.8"/>
</a>
</g>
</g>
<!-- Node7 -->
<g id="Node000007" class="node">
<title>Node7</title>
<g id="a_Node000007"><a xlink:href="namespaceguanaqo_1_1detail.html#ace413852839567e1ea2455dfddde9c73" target="_top" xlink:title=" ">
<polygon fill="white" stroke="#666666" points="284,-53.5 163,-53.5 163,-23.5 284,-23.5 284,-53.5"/>
<text text-anchor="start" x="171" y="-41.5" font-family="Helvetica,sans-Serif" font-size="10.00">guanaqo::detail::print</text>
<text text-anchor="middle" x="223.5" y="-30.5" font-family="Helvetica,sans-Serif" font-size="10.00">_python_impl</text>
</a>
</g>
</g>
<!-- Node1&#45;&gt;Node7 -->
<g id="edge10_Node000001_Node000007" class="edge">
<title>Node1&#45;&gt;Node7</title>
<g id="a_edge10_Node000001_Node000007"><a xlink:title=" ">
<path fill="none" stroke="#63b8ff" d="M533.36,-63.96C513.27,-54.21 487.46,-43.45 463,-38.5 403.14,-26.37 333.09,-28.22 284.45,-31.96"/>
<polygon fill="#63b8ff" stroke="#63b8ff" points="531.94,-67.16 542.45,-68.49 535.06,-60.9 531.94,-67.16"/>
</a>
</g>
</g>
<!-- Node3&#45;&gt;Node4 -->
<g id="edge3_Node000003_Node000004" class="edge">
<title>Node3&#45;&gt;Node4</title>
<g id="a_edge3_Node000003_Node000004"><a xlink:title=" ">
<path fill="none" stroke="#63b8ff" d="M320.5,-76.42C308.38,-78.83 295.88,-81.31 284.06,-83.66"/>
<polygon fill="#63b8ff" stroke="#63b8ff" points="321.44,-79.8 330.57,-74.41 320.08,-72.93 321.44,-79.8"/>
</a>
</g>
</g>
<!-- Node3&#45;&gt;Node7 -->
<g id="edge6_Node000003_Node000007" class="edge">
<title>Node3&#45;&gt;Node7</title>
<g id="a_edge6_Node000003_Node000007"><a xlink:title=" ">
<path fill="none" stroke="#63b8ff" d="M320.5,-52.38C308.38,-50.63 295.88,-48.82 284.06,-47.11"/>
<polygon fill="#63b8ff" stroke="#63b8ff" points="320.17,-55.87 330.57,-53.84 321.17,-48.94 320.17,-55.87"/>
</a>
</g>
</g>
<!-- Node5 -->
<g id="Node000005" class="node">
<title>Node5</title>
<g id="a_Node000005"><a xlink:href="group__io.html#ga706189963835322b0638082bb4ee4394" target="_top" xlink:title=" ">
<polygon fill="white" stroke="#666666" points="127,-135 0,-135 0,-116 127,-116 127,-135"/>
<text text-anchor="middle" x="63.5" y="-123" font-family="Helvetica,sans-Serif" font-size="10.00">guanaqo::print_matlab</text>
</a>
</g>
</g>
<!-- Node4&#45;&gt;Node5 -->
<g id="edge4_Node000004_Node000005" class="edge">
<title>Node4&#45;&gt;Node5</title>
<g id="a_edge4_Node000004_Node000005"><a xlink:title=" ">
<path fill="none" stroke="#63b8ff" d="M152.64,-108.77C139.89,-111.19 126.82,-113.67 114.78,-115.95"/>
<polygon fill="#63b8ff" stroke="#63b8ff" points="153.6,-112.15 162.77,-106.84 152.29,-105.27 153.6,-112.15"/>
</a>
</g>
</g>
<!-- Node6 -->
<g id="Node000006" class="node">
<title>Node6</title>
<g id="a_Node000006"><a xlink:href="group__io.html#ga89b21ad0321c9a7125cf0cae57987307" target="_top" xlink:title=" ">
<polygon fill="white" stroke="#666666" points="127,-98 0,-98 0,-79 127,-79 127,-98"/>
<text text-anchor="middle" x="63.5" y="-86" font-family="Helvetica,sans-Serif" font-size="10.00">guanaqo::print_matlab</text>
</a>
</g>
</g>
<!-- Node4&#45;&gt;Node6 -->
<g id="edge5_Node000004_Node000006" class="edge">
<title>Node4&#45;&gt;Node6</title>
<g id="a_edge5_Node000004_Node000006"><a xlink:title=" ">
<path fill="none" stroke="#63b8ff" d="M152.57,-92.4C144.12,-92.03 135.54,-91.65 127.21,-91.28"/>
<polygon fill="#63b8ff" stroke="#63b8ff" points="152.62,-95.91 162.77,-92.85 152.93,-88.91 152.62,-95.91"/>
</a>
</g>
</g>
<!-- Node8 -->
<g id="Node000008" class="node">
<title>Node8</title>
<g id="a_Node000008"><a xlink:href="group__io.html#gaf6fcae141f820494c73f5d2d58a6daf1" target="_top" xlink:title=" ">
<polygon fill="white" stroke="#666666" points="126.5,-56 0.5,-56 0.5,-37 126.5,-37 126.5,-56"/>
<text text-anchor="middle" x="63.5" y="-44" font-family="Helvetica,sans-Serif" font-size="10.00">guanaqo::print_python</text>
</a>
</g>
</g>
<!-- Node7&#45;&gt;Node8 -->
<g id="edge7_Node000007_Node000008" class="edge">
<title>Node7&#45;&gt;Node8</title>
<g id="a_edge7_Node000007_Node000008"><a xlink:title=" ">
<path fill="none" stroke="#63b8ff" d="M152.69,-42.03C144.03,-42.47 135.22,-42.92 126.69,-43.35"/>
<polygon fill="#63b8ff" stroke="#63b8ff" points="152.96,-45.53 162.77,-41.52 152.6,-38.53 152.96,-45.53"/>
</a>
</g>
</g>
<!-- Node9 -->
<g id="Node000009" class="node">
<title>Node9</title>
<g id="a_Node000009"><a xlink:href="group__io.html#ga756d1c6bfac4b93da66e64e5f9c2b463" target="_top" xlink:title=" ">
<polygon fill="white" stroke="#666666" points="126.5,-19 0.5,-19 0.5,0 126.5,0 126.5,-19"/>
<text text-anchor="middle" x="63.5" y="-7" font-family="Helvetica,sans-Serif" font-size="10.00">guanaqo::print_python</text>
</a>
</g>
</g>
<!-- Node7&#45;&gt;Node9 -->
<g id="edge8_Node000007_Node000009" class="edge">
<title>Node7&#45;&gt;Node9</title>
<g id="a_edge8_Node000007_Node000009"><a xlink:title=" ">
<path fill="none" stroke="#63b8ff" d="M152.61,-25.67C140.4,-23.43 127.91,-21.14 116.3,-19.01"/>
<polygon fill="#63b8ff" stroke="#63b8ff" points="152.3,-29.17 162.77,-27.54 153.56,-22.29 152.3,-29.17"/>
</a>
</g>
</g>
</g>
</svg>
