<?xml version="1.0" encoding="UTF-8" standalone="no"?>
<!DOCTYPE svg PUBLIC "-//W3C//DTD SVG 1.1//EN"
 "http://www.w3.org/Graphics/SVG/1.1/DTD/svg11.dtd">
<!-- Generated by graphviz version 2.43.0 (0)
 -->
<!-- Title: include/guanaqo/implementation/io/csv.tpp Pages: 1 -->
<svg width="779pt" height="203pt"
 viewBox="0.00 0.00 778.50 203.00" xmlns="http://www.w3.org/2000/svg" xmlns:xlink="http://www.w3.org/1999/xlink">
<g id="graph0" class="graph" transform="scale(1 1) rotate(0) translate(4 199)">
<title>include/guanaqo/implementation/io/csv.tpp</title>
<!-- Node1 -->
<g id="Node000001" class="node">
<title>Node1</title>
<g id="a_Node000001"><a xlink:title=" ">
<polygon fill="#999999" stroke="#666666" points="569,-195 391,-195 391,-165 569,-165 569,-195"/>
<text text-anchor="start" x="399" y="-183" font-family="Helvetica,sans-Serif" font-size="10.00">include/guanaqo/implementation</text>
<text text-anchor="middle" x="480" y="-172" font-family="Helvetica,sans-Serif" font-size="10.00">/io/csv.tpp</text>
</a>
</g>
</g>
<!-- Node2 -->
<g id="Node000002" class="node">
<title>Node2</title>
<g id="a_Node000002"><a xlink:href="csv_8hpp.html" target="_top" xlink:title="Reading matrices and vectors from CSV files.">
<polygon fill="white" stroke="#666666" points="371,-129 261,-129 261,-110 371,-110 371,-129"/>
<text text-anchor="middle" x="316" y="-117" font-family="Helvetica,sans-Serif" font-size="10.00">guanaqo/io/csv.hpp</text>
</a>
</g>
</g>
<!-- Node1&#45;&gt;Node2 -->
<g id="edge1_Node000001_Node000002" class="edge">
<title>Node1&#45;&gt;Node2</title>
<g id="a_edge1_Node000001_Node000002"><a xlink:title=" ">
<path fill="none" stroke="#63b8ff" d="M440.72,-164.99C412.99,-155.1 376.22,-141.98 349.8,-132.56"/>
<polygon fill="#63b8ff" stroke="#63b8ff" points="350.81,-129.2 340.22,-129.14 348.46,-135.8 350.81,-129.2"/>
</a>
</g>
</g>
<!-- Node5 -->
<g id="Node000005" class="node">
<title>Node5</title>
<g id="a_Node000005"><a xlink:title=" ">
<polygon fill="#e0e0e0" stroke="#999999" points="64,-19 0,-19 0,0 64,0 64,-19"/>
<text text-anchor="middle" x="32" y="-7" font-family="Helvetica,sans-Serif" font-size="10.00">algorithm</text>
</a>
</g>
</g>
<!-- Node1&#45;&gt;Node5 -->
<g id="edge16_Node000001_Node000005" class="edge">
<title>Node1&#45;&gt;Node5</title>
<g id="a_edge16_Node000001_Node000005"><a xlink:title=" ">
<path fill="none" stroke="#63b8ff" d="M390.87,-173.57C293.49,-166.57 144.49,-152.43 93,-129 59.47,-113.74 46.11,-107.6 31,-74 24.7,-60 25.55,-42.45 27.64,-29.35"/>
<polygon fill="#63b8ff" stroke="#63b8ff" points="31.14,-29.67 29.64,-19.18 24.27,-28.32 31.14,-29.67"/>
</a>
</g>
</g>
<!-- Node6 -->
<g id="Node000006" class="node">
<title>Node6</title>
<g id="a_Node000006"><a xlink:title=" ">
<polygon fill="#e0e0e0" stroke="#999999" points="228,-19 176,-19 176,0 228,0 228,-19"/>
<text text-anchor="middle" x="202" y="-7" font-family="Helvetica,sans-Serif" font-size="10.00">cassert</text>
</a>
</g>
</g>
<!-- Node1&#45;&gt;Node6 -->
<g id="edge18_Node000001_Node000006" class="edge">
<title>Node1&#45;&gt;Node6</title>
<g id="a_edge18_Node000001_Node000006"><a xlink:title=" ">
<path fill="none" stroke="#63b8ff" d="M390.53,-170.63C274.85,-157.73 83.17,-128.57 41,-74 6.67,-29.57 108.24,-16.17 165.61,-12.17"/>
<polygon fill="#63b8ff" stroke="#63b8ff" points="166,-15.65 175.76,-11.53 165.56,-8.67 166,-15.65"/>
</a>
</g>
</g>
<!-- Node14 -->
<g id="Node000014" class="node">
<title>Node14</title>
<g id="a_Node000014"><a xlink:title=" ">
<polygon fill="#e0e0e0" stroke="#999999" points="431,-129 389,-129 389,-110 431,-110 431,-129"/>
<text text-anchor="middle" x="410" y="-117" font-family="Helvetica,sans-Serif" font-size="10.00">array</text>
</a>
</g>
</g>
<!-- Node1&#45;&gt;Node14 -->
<g id="edge17_Node000001_Node000014" class="edge">
<title>Node1&#45;&gt;Node14</title>
<g id="a_edge17_Node000001_Node000014"><a xlink:title=" ">
<path fill="none" stroke="#63b8ff" d="M463.05,-164.84C452.58,-156.09 439.14,-144.85 428.41,-135.88"/>
<polygon fill="#63b8ff" stroke="#63b8ff" points="430.41,-132.99 420.49,-129.27 425.92,-138.36 430.41,-132.99"/>
</a>
</g>
</g>
<!-- Node15 -->
<g id="Node000015" class="node">
<title>Node15</title>
<g id="a_Node000015"><a xlink:title=" ">
<polygon fill="#e0e0e0" stroke="#999999" points="510.5,-129 449.5,-129 449.5,-110 510.5,-110 510.5,-129"/>
<text text-anchor="middle" x="480" y="-117" font-family="Helvetica,sans-Serif" font-size="10.00">charconv</text>
</a>
</g>
</g>
<!-- Node1&#45;&gt;Node15 -->
<g id="edge19_Node000001_Node000015" class="edge">
<title>Node1&#45;&gt;Node15</title>
<g id="a_edge19_Node000001_Node000015"><a xlink:title=" ">
<path fill="none" stroke="#63b8ff" d="M480,-164.84C480,-157.21 480,-147.7 480,-139.45"/>
<polygon fill="#63b8ff" stroke="#63b8ff" points="483.5,-139.27 480,-129.27 476.5,-139.27 483.5,-139.27"/>
</a>
</g>
</g>
<!-- Node16 -->
<g id="Node000016" class="node">
<title>Node16</title>
<g id="a_Node000016"><a xlink:title=" ">
<polygon fill="#e0e0e0" stroke="#999999" points="559.5,-129 528.5,-129 528.5,-110 559.5,-110 559.5,-129"/>
<text text-anchor="middle" x="544" y="-117" font-family="Helvetica,sans-Serif" font-size="10.00">ios</text>
</a>
</g>
</g>
<!-- Node1&#45;&gt;Node16 -->
<g id="edge20_Node000001_Node000016" class="edge">
<title>Node1&#45;&gt;Node16</title>
<g id="a_edge20_Node000001_Node000016"><a xlink:title=" ">
<path fill="none" stroke="#63b8ff" d="M495.49,-164.84C504.97,-156.17 517.11,-145.08 526.88,-136.15"/>
<polygon fill="#63b8ff" stroke="#63b8ff" points="529.39,-138.6 534.41,-129.27 524.67,-133.43 529.39,-138.6"/>
</a>
</g>
</g>
<!-- Node17 -->
<g id="Node000017" class="node">
<title>Node17</title>
<g id="a_Node000017"><a xlink:title=" ">
<polygon fill="#e0e0e0" stroke="#999999" points="638,-129 578,-129 578,-110 638,-110 638,-129"/>
<text text-anchor="middle" x="608" y="-117" font-family="Helvetica,sans-Serif" font-size="10.00">iostream</text>
</a>
</g>
</g>
<!-- Node1&#45;&gt;Node17 -->
<g id="edge21_Node000001_Node000017" class="edge">
<title>Node1&#45;&gt;Node17</title>
<g id="a_edge21_Node000001_Node000017"><a xlink:title=" ">
<path fill="none" stroke="#63b8ff" d="M510.66,-164.99C531.73,-155.36 559.49,-142.67 579.97,-133.31"/>
<polygon fill="#63b8ff" stroke="#63b8ff" points="581.46,-136.48 589.1,-129.14 578.55,-130.11 581.46,-136.48"/>
</a>
</g>
</g>
<!-- Node18 -->
<g id="Node000018" class="node">
<title>Node18</title>
<g id="a_Node000018"><a xlink:title=" ">
<polygon fill="#e0e0e0" stroke="#999999" points="703.5,-129 656.5,-129 656.5,-110 703.5,-110 703.5,-129"/>
<text text-anchor="middle" x="680" y="-117" font-family="Helvetica,sans-Serif" font-size="10.00">cerrno</text>
</a>
</g>
</g>
<!-- Node1&#45;&gt;Node18 -->
<g id="edge22_Node000001_Node000018" class="edge">
<title>Node1&#45;&gt;Node18</title>
<g id="a_edge22_Node000001_Node000018"><a xlink:title=" ">
<path fill="none" stroke="#63b8ff" d="M527.9,-164.99C564.51,-154.28 614.03,-139.8 646.48,-130.31"/>
<polygon fill="#63b8ff" stroke="#63b8ff" points="647.76,-133.58 656.37,-127.41 645.79,-126.86 647.76,-133.58"/>
</a>
</g>
</g>
<!-- Node19 -->
<g id="Node000019" class="node">
<title>Node19</title>
<g id="a_Node000019"><a xlink:title=" ">
<polygon fill="#e0e0e0" stroke="#999999" points="770.5,-129 721.5,-129 721.5,-110 770.5,-110 770.5,-129"/>
<text text-anchor="middle" x="746" y="-117" font-family="Helvetica,sans-Serif" font-size="10.00">cstdlib</text>
</a>
</g>
</g>
<!-- Node1&#45;&gt;Node19 -->
<g id="edge23_Node000001_Node000019" class="edge">
<title>Node1&#45;&gt;Node19</title>
<g id="a_edge23_Node000001_Node000019"><a xlink:title=" ">
<path fill="none" stroke="#63b8ff" d="M548.98,-164.97C592.99,-155.83 651.48,-143.37 711.18,-129.37"/>
<polygon fill="#63b8ff" stroke="#63b8ff" points="712.23,-132.71 721.16,-127.01 710.62,-125.9 712.23,-132.71"/>
</a>
</g>
</g>
<!-- Node3 -->
<g id="Node000003" class="node">
<title>Node3</title>
<g id="a_Node000003"><a xlink:title=" ">
<polygon fill="#e0e0e0" stroke="#999999" points="301,-74 199,-74 199,-55 301,-55 301,-74"/>
<text text-anchor="middle" x="250" y="-62" font-family="Helvetica,sans-Serif" font-size="10.00">guanaqo/export.h</text>
</a>
</g>
</g>
<!-- Node2&#45;&gt;Node3 -->
<g id="edge2_Node000002_Node000003" class="edge">
<title>Node2&#45;&gt;Node3</title>
<g id="a_edge2_Node000002_Node000003"><a xlink:title=" ">
<path fill="none" stroke="#63b8ff" d="M305.4,-109.98C295.54,-102.07 280.65,-90.11 268.78,-80.58"/>
<polygon fill="#63b8ff" stroke="#63b8ff" points="270.79,-77.7 260.8,-74.17 266.4,-83.16 270.79,-77.7"/>
</a>
</g>
</g>
<!-- Node4 -->
<g id="Node000004" class="node">
<title>Node4</title>
<g id="a_Node000004"><a xlink:href="mat-view_8hpp.html" target="_top" xlink:title="Non&#45;owning matrix view.">
<polygon fill="white" stroke="#666666" points="447,-74 319,-74 319,-55 447,-55 447,-74"/>
<text text-anchor="middle" x="383" y="-62" font-family="Helvetica,sans-Serif" font-size="10.00">guanaqo/mat&#45;view.hpp</text>
</a>
</g>
</g>
<!-- Node2&#45;&gt;Node4 -->
<g id="edge3_Node000002_Node000004" class="edge">
<title>Node2&#45;&gt;Node4</title>
<g id="a_edge3_Node000002_Node000004"><a xlink:title=" ">
<path fill="none" stroke="#63b8ff" d="M326.76,-109.98C336.77,-102.07 351.89,-90.11 363.93,-80.58"/>
<polygon fill="#63b8ff" stroke="#63b8ff" points="366.37,-83.12 372.04,-74.17 362.03,-77.63 366.37,-83.12"/>
</a>
</g>
</g>
<!-- Node7 -->
<g id="Node000007" class="node">
<title>Node7</title>
<g id="a_Node000007"><a xlink:title=" ">
<polygon fill="#e0e0e0" stroke="#999999" points="441,-19 381,-19 381,0 441,0 441,-19"/>
<text text-anchor="middle" x="411" y="-7" font-family="Helvetica,sans-Serif" font-size="10.00">concepts</text>
</a>
</g>
</g>
<!-- Node2&#45;&gt;Node7 -->
<g id="edge10_Node000002_Node000007" class="edge">
<title>Node2&#45;&gt;Node7</title>
<g id="a_edge10_Node000002_Node000007"><a xlink:title=" ">
<path fill="none" stroke="#63b8ff" d="M361.96,-109.95C398.28,-102.15 444.67,-89.49 456,-74 468.09,-57.47 450.09,-38.25 433.39,-25.33"/>
<polygon fill="#63b8ff" stroke="#63b8ff" points="435.09,-22.23 424.94,-19.19 430.97,-27.9 435.09,-22.23"/>
</a>
</g>
</g>
<!-- Node8 -->
<g id="Node000008" class="node">
<title>Node8</title>
<g id="a_Node000008"><a xlink:title=" ">
<polygon fill="#e0e0e0" stroke="#999999" points="512.5,-19 459.5,-19 459.5,0 512.5,0 512.5,-19"/>
<text text-anchor="middle" x="486" y="-7" font-family="Helvetica,sans-Serif" font-size="10.00">cstddef</text>
</a>
</g>
</g>
<!-- Node2&#45;&gt;Node8 -->
<g id="edge11_Node000002_Node000008" class="edge">
<title>Node2&#45;&gt;Node8</title>
<g id="a_edge11_Node000002_Node000008"><a xlink:title=" ">
<path fill="none" stroke="#63b8ff" d="M365.85,-110C405.77,-102.19 457.43,-89.49 472,-74 483.23,-62.06 486.23,-43.24 486.71,-29.18"/>
<polygon fill="#63b8ff" stroke="#63b8ff" points="490.21,-29.14 486.68,-19.15 483.21,-29.17 490.21,-29.14"/>
</a>
</g>
</g>
<!-- Node9 -->
<g id="Node000009" class="node">
<title>Node9</title>
<g id="a_Node000009"><a xlink:title=" ">
<polygon fill="#e0e0e0" stroke="#999999" points="571,-19 531,-19 531,0 571,0 571,-19"/>
<text text-anchor="middle" x="551" y="-7" font-family="Helvetica,sans-Serif" font-size="10.00">span</text>
</a>
</g>
</g>
<!-- Node2&#45;&gt;Node9 -->
<g id="edge13_Node000002_Node000009" class="edge">
<title>Node2&#45;&gt;Node9</title>
<g id="a_edge13_Node000002_Node000009"><a xlink:title=" ">
<path fill="none" stroke="#63b8ff" d="M362.12,-109.92C406.58,-101.11 470.24,-86.89 492,-74 511.54,-62.42 528.55,-42.42 539.22,-27.96"/>
<polygon fill="#63b8ff" stroke="#63b8ff" points="542.36,-29.58 545.28,-19.39 536.64,-25.54 542.36,-29.58"/>
</a>
</g>
</g>
<!-- Node11 -->
<g id="Node000011" class="node">
<title>Node11</title>
<g id="a_Node000011"><a xlink:title=" ">
<polygon fill="#e0e0e0" stroke="#999999" points="627,-74 579,-74 579,-55 627,-55 627,-74"/>
<text text-anchor="middle" x="603" y="-62" font-family="Helvetica,sans-Serif" font-size="10.00">iosfwd</text>
</a>
</g>
</g>
<!-- Node2&#45;&gt;Node11 -->
<g id="edge12_Node000002_Node000011" class="edge">
<title>Node2&#45;&gt;Node11</title>
<g id="a_edge12_Node000002_Node000011"><a xlink:title=" ">
<path fill="none" stroke="#63b8ff" d="M367.63,-109.94C418.07,-101.42 496.98,-87.68 565,-74 566.27,-73.75 567.56,-73.48 568.86,-73.21"/>
<polygon fill="#63b8ff" stroke="#63b8ff" points="569.87,-76.57 578.91,-71.05 568.4,-69.73 569.87,-76.57"/>
</a>
</g>
</g>
<!-- Node12 -->
<g id="Node000012" class="node">
<title>Node12</title>
<g id="a_Node000012"><a xlink:title=" ">
<polygon fill="#e0e0e0" stroke="#999999" points="115.5,-74 50.5,-74 50.5,-55 115.5,-55 115.5,-74"/>
<text text-anchor="middle" x="83" y="-62" font-family="Helvetica,sans-Serif" font-size="10.00">stdexcept</text>
</a>
</g>
</g>
<!-- Node2&#45;&gt;Node12 -->
<g id="edge14_Node000002_Node000012" class="edge">
<title>Node2&#45;&gt;Node12</title>
<g id="a_edge14_Node000002_Node000012"><a xlink:title=" ">
<path fill="none" stroke="#63b8ff" d="M278.56,-109.98C236.79,-100.48 169.35,-85.14 125.59,-75.19"/>
<polygon fill="#63b8ff" stroke="#63b8ff" points="126.35,-71.77 115.82,-72.97 124.8,-78.6 126.35,-71.77"/>
</a>
</g>
</g>
<!-- Node13 -->
<g id="Node000013" class="node">
<title>Node13</title>
<g id="a_Node000013"><a xlink:title=" ">
<polygon fill="#e0e0e0" stroke="#999999" points="180.5,-74 133.5,-74 133.5,-55 180.5,-55 180.5,-74"/>
<text text-anchor="middle" x="157" y="-62" font-family="Helvetica,sans-Serif" font-size="10.00">vector</text>
</a>
</g>
</g>
<!-- Node2&#45;&gt;Node13 -->
<g id="edge15_Node000002_Node000013" class="edge">
<title>Node2&#45;&gt;Node13</title>
<g id="a_edge15_Node000002_Node000013"><a xlink:title=" ">
<path fill="none" stroke="#63b8ff" d="M290.45,-109.98C263.24,-100.91 220.07,-86.52 190.23,-76.58"/>
<polygon fill="#63b8ff" stroke="#63b8ff" points="191.26,-73.23 180.67,-73.39 189.05,-79.87 191.26,-73.23"/>
</a>
</g>
</g>
<!-- Node4&#45;&gt;Node5 -->
<g id="edge4_Node000004_Node000005" class="edge">
<title>Node4&#45;&gt;Node5</title>
<g id="a_edge4_Node000004_Node000005"><a xlink:title=" ">
<path fill="none" stroke="#63b8ff" d="M326.61,-54.98C256.12,-44.34 137.09,-26.37 74.07,-16.85"/>
<polygon fill="#63b8ff" stroke="#63b8ff" points="74.49,-13.38 64.08,-15.34 73.44,-20.3 74.49,-13.38"/>
</a>
</g>
</g>
<!-- Node4&#45;&gt;Node6 -->
<g id="edge5_Node000004_Node000006" class="edge">
<title>Node4&#45;&gt;Node6</title>
<g id="a_edge5_Node000004_Node000006"><a xlink:title=" ">
<path fill="none" stroke="#63b8ff" d="M353.92,-54.98C322.4,-45.76 272.07,-31.02 238.06,-21.06"/>
<polygon fill="#63b8ff" stroke="#63b8ff" points="238.65,-17.59 228.07,-18.13 236.68,-24.3 238.65,-17.59"/>
</a>
</g>
</g>
<!-- Node4&#45;&gt;Node7 -->
<g id="edge6_Node000004_Node000007" class="edge">
<title>Node4&#45;&gt;Node7</title>
<g id="a_edge6_Node000004_Node000007"><a xlink:title=" ">
<path fill="none" stroke="#63b8ff" d="M387.62,-54.75C391.46,-47.49 397.02,-36.95 401.76,-27.98"/>
<polygon fill="#63b8ff" stroke="#63b8ff" points="404.89,-29.57 406.46,-19.09 398.7,-26.3 404.89,-29.57"/>
</a>
</g>
</g>
<!-- Node4&#45;&gt;Node8 -->
<g id="edge7_Node000004_Node000008" class="edge">
<title>Node4&#45;&gt;Node8</title>
<g id="a_edge7_Node000004_Node000008"><a xlink:title=" ">
<path fill="none" stroke="#63b8ff" d="M399.55,-54.98C415.89,-46.57 441.13,-33.59 460.13,-23.81"/>
<polygon fill="#63b8ff" stroke="#63b8ff" points="461.86,-26.86 469.15,-19.17 458.66,-20.63 461.86,-26.86"/>
</a>
</g>
</g>
<!-- Node4&#45;&gt;Node9 -->
<g id="edge8_Node000004_Node000009" class="edge">
<title>Node4&#45;&gt;Node9</title>
<g id="a_edge8_Node000004_Node000009"><a xlink:title=" ">
<path fill="none" stroke="#63b8ff" d="M409.99,-54.98C440.46,-45.37 489.86,-29.79 521.37,-19.85"/>
<polygon fill="#63b8ff" stroke="#63b8ff" points="522.44,-23.18 530.93,-16.83 520.34,-16.5 522.44,-23.18"/>
</a>
</g>
</g>
<!-- Node10 -->
<g id="Node000010" class="node">
<title>Node10</title>
<g id="a_Node000010"><a xlink:title=" ">
<polygon fill="#e0e0e0" stroke="#999999" points="362.5,-19 293.5,-19 293.5,0 362.5,0 362.5,-19"/>
<text text-anchor="middle" x="328" y="-7" font-family="Helvetica,sans-Serif" font-size="10.00">type_traits</text>
</a>
</g>
</g>
<!-- Node4&#45;&gt;Node10 -->
<g id="edge9_Node000004_Node000010" class="edge">
<title>Node4&#45;&gt;Node10</title>
<g id="a_edge9_Node000004_Node000010"><a xlink:title=" ">
<path fill="none" stroke="#63b8ff" d="M373.92,-54.75C365.91,-47.03 354.04,-35.6 344.38,-26.28"/>
<polygon fill="#63b8ff" stroke="#63b8ff" points="346.54,-23.51 336.91,-19.09 341.69,-28.55 346.54,-23.51"/>
</a>
</g>
</g>
</g>
</svg>
