<?xml version="1.0" encoding="UTF-8" standalone="no"?>
<!DOCTYPE svg PUBLIC "-//W3C//DTD SVG 1.1//EN"
 "http://www.w3.org/Graphics/SVG/1.1/DTD/svg11.dtd">
<!-- Generated by graphviz version 2.43.0 (0)
 -->
<!-- Title: guanaqo::io::csv_read_row Pages: 1 -->
<svg width="846pt" height="134pt"
 viewBox="0.00 0.00 846.00 134.00" xmlns="http://www.w3.org/2000/svg" xmlns:xlink="http://www.w3.org/1999/xlink">
<g id="graph0" class="graph" transform="scale(1 1) rotate(0) translate(4 130)">
<title>guanaqo::io::csv_read_row</title>
<!-- Node1 -->
<g id="Node000001" class="node">
<title>Node1</title>
<g id="a_Node000001"><a xlink:title=" ">
<polygon fill="#999999" stroke="#666666" points="146,-77.5 0,-77.5 0,-58.5 146,-58.5 146,-77.5"/>
<text text-anchor="middle" x="73" y="-65.5" font-family="Helvetica,sans-Serif" font-size="10.00">guanaqo::io::csv_read_row</text>
</a>
</g>
</g>
<!-- Node2 -->
<g id="Node000002" class="node">
<title>Node2</title>
<g id="a_Node000002"><a xlink:href="group__io.html#ga087c9290a0520b3f1b02b6787c921604" target="_top" xlink:title=" ">
<polygon fill="white" stroke="#666666" points="328,-77.5 182,-77.5 182,-58.5 328,-58.5 328,-77.5"/>
<text text-anchor="middle" x="255" y="-65.5" font-family="Helvetica,sans-Serif" font-size="10.00">guanaqo::io::csv_read_row</text>
</a>
</g>
</g>
<!-- Node1&#45;&gt;Node2 -->
<g id="edge1_Node000001_Node000002" class="edge">
<title>Node1&#45;&gt;Node2</title>
<g id="a_edge1_Node000001_Node000002"><a xlink:title=" ">
<path fill="none" stroke="#63b8ff" d="M146.18,-68C154.52,-68 163.08,-68 171.54,-68"/>
<polygon fill="#63b8ff" stroke="#63b8ff" points="171.81,-71.5 181.81,-68 171.81,-64.5 171.81,-71.5"/>
</a>
</g>
</g>
<!-- Node3 -->
<g id="Node000003" class="node">
<title>Node3</title>
<g id="a_Node000003"><a xlink:href="structguanaqo_1_1io_1_1CSVReader.html#adc16a0a06c51a6a60fb65d04eed44fcd" target="_top" xlink:title=" ">
<polygon fill="white" stroke="#666666" points="668,-126 534,-126 534,-96 668,-96 668,-126"/>
<text text-anchor="start" x="542" y="-114" font-family="Helvetica,sans-Serif" font-size="10.00">guanaqo::io::CSVReader</text>
<text text-anchor="middle" x="601" y="-103" font-family="Helvetica,sans-Serif" font-size="10.00">::next_line</text>
</a>
</g>
</g>
<!-- Node2&#45;&gt;Node3 -->
<g id="edge2_Node000002_Node000003" class="edge">
<title>Node2&#45;&gt;Node3</title>
<g id="a_edge2_Node000002_Node000003"><a xlink:title=" ">
<path fill="none" stroke="#63b8ff" d="M293.25,-77.61C313.95,-82.62 340.26,-88.42 364,-92 417,-99.98 477.23,-104.76 523.58,-107.53"/>
<polygon fill="#63b8ff" stroke="#63b8ff" points="523.67,-111.04 533.85,-108.13 524.07,-104.05 523.67,-111.04"/>
</a>
</g>
</g>
<!-- Node4 -->
<g id="Node000004" class="node">
<title>Node4</title>
<g id="a_Node000004"><a xlink:href="structguanaqo_1_1io_1_1CSVReader.html#ac6ff711471364524ec918facf8059bc4" target="_top" xlink:title=" ">
<polygon fill="white" stroke="#666666" points="498,-35 364,-35 364,-5 498,-5 498,-35"/>
<text text-anchor="start" x="372" y="-23" font-family="Helvetica,sans-Serif" font-size="10.00">guanaqo::io::CSVReader</text>
<text text-anchor="middle" x="431" y="-12" font-family="Helvetica,sans-Serif" font-size="10.00">::read</text>
</a>
</g>
</g>
<!-- Node2&#45;&gt;Node4 -->
<g id="edge3_Node000002_Node000004" class="edge">
<title>Node2&#45;&gt;Node4</title>
<g id="a_edge3_Node000002_Node000004"><a xlink:title=" ">
<path fill="none" stroke="#63b8ff" d="M290.79,-58.4C312.16,-52.51 340.18,-44.78 365.49,-37.8"/>
<polygon fill="#63b8ff" stroke="#63b8ff" points="366.69,-41.1 375.4,-35.06 364.83,-34.35 366.69,-41.1"/>
</a>
</g>
</g>
<!-- Node8 -->
<g id="Node000008" class="node">
<title>Node8</title>
<g id="a_Node000008"><a xlink:href="structguanaqo_1_1io_1_1CSVReader.html#a1ec0f1dda005a6206400f818159cf09f" target="_top" xlink:title=" ">
<polygon fill="white" stroke="#666666" points="498,-83 364,-83 364,-53 498,-53 498,-83"/>
<text text-anchor="start" x="372" y="-71" font-family="Helvetica,sans-Serif" font-size="10.00">guanaqo::io::CSVReader</text>
<text text-anchor="middle" x="431" y="-60" font-family="Helvetica,sans-Serif" font-size="10.00">::skip_comments</text>
</a>
</g>
</g>
<!-- Node2&#45;&gt;Node8 -->
<g id="edge7_Node000002_Node000008" class="edge">
<title>Node2&#45;&gt;Node8</title>
<g id="a_edge7_Node000002_Node000008"><a xlink:title=" ">
<path fill="none" stroke="#63b8ff" d="M328.03,-68C336.47,-68 345.11,-68 353.6,-68"/>
<polygon fill="#63b8ff" stroke="#63b8ff" points="353.88,-71.5 363.88,-68 353.88,-64.5 353.88,-71.5"/>
</a>
</g>
</g>
<!-- Node5 -->
<g id="Node000005" class="node">
<title>Node5</title>
<g id="a_Node000005"><a xlink:href="structguanaqo_1_1io_1_1CSVReader.html#a9537b30cc2e4d7de1406c5aae39b03b7" target="_top" xlink:title=" ">
<polygon fill="white" stroke="#666666" points="668,-78 534,-78 534,-48 668,-48 668,-78"/>
<text text-anchor="start" x="542" y="-66" font-family="Helvetica,sans-Serif" font-size="10.00">guanaqo::io::CSVReader</text>
<text text-anchor="middle" x="601" y="-55" font-family="Helvetica,sans-Serif" font-size="10.00">::read_chunk</text>
</a>
</g>
</g>
<!-- Node4&#45;&gt;Node5 -->
<g id="edge4_Node000004_Node000005" class="edge">
<title>Node4&#45;&gt;Node5</title>
<g id="a_edge4_Node000004_Node000005"><a xlink:title=" ">
<path fill="none" stroke="#63b8ff" d="M490.76,-35.04C503.93,-38.41 518.02,-42.02 531.54,-45.48"/>
<polygon fill="#63b8ff" stroke="#63b8ff" points="530.72,-48.88 541.27,-47.97 532.46,-42.1 530.72,-48.88"/>
</a>
</g>
</g>
<!-- Node6 -->
<g id="Node000006" class="node">
<title>Node6</title>
<g id="a_Node000006"><a xlink:href="structguanaqo_1_1io_1_1CSVReader.html#a23247665597068315987a44467d4459a" target="_top" xlink:title=" ">
<polygon fill="white" stroke="#666666" points="668,-30 534,-30 534,0 668,0 668,-30"/>
<text text-anchor="start" x="542" y="-18" font-family="Helvetica,sans-Serif" font-size="10.00">guanaqo::io::CSVReader</text>
<text text-anchor="middle" x="601" y="-7" font-family="Helvetica,sans-Serif" font-size="10.00">::read_single</text>
</a>
</g>
</g>
<!-- Node4&#45;&gt;Node6 -->
<g id="edge5_Node000004_Node000006" class="edge">
<title>Node4&#45;&gt;Node6</title>
<g id="a_edge5_Node000004_Node000006"><a xlink:title=" ">
<path fill="none" stroke="#63b8ff" d="M498.4,-18.02C506.68,-17.78 515.2,-17.52 523.62,-17.27"/>
<polygon fill="#63b8ff" stroke="#63b8ff" points="523.92,-20.77 533.81,-16.97 523.71,-13.77 523.92,-20.77"/>
</a>
</g>
</g>
<!-- Node7 -->
<g id="Node000007" class="node">
<title>Node7</title>
<g id="a_Node000007"><a xlink:href="structguanaqo_1_1io_1_1CSVReader.html#a91ad1ccf57750d7bec9b5c830961665a" target="_top" xlink:title=" ">
<polygon fill="white" stroke="#666666" points="838,-30 704,-30 704,0 838,0 838,-30"/>
<text text-anchor="start" x="712" y="-18" font-family="Helvetica,sans-Serif" font-size="10.00">guanaqo::io::CSVReader</text>
<text text-anchor="middle" x="771" y="-7" font-family="Helvetica,sans-Serif" font-size="10.00">::strtod_ovl</text>
</a>
</g>
</g>
<!-- Node6&#45;&gt;Node7 -->
<g id="edge6_Node000006_Node000007" class="edge">
<title>Node6&#45;&gt;Node7</title>
<g id="a_edge6_Node000006_Node000007"><a xlink:title=" ">
<path fill="none" stroke="#63b8ff" d="M668.4,-15C676.68,-15 685.2,-15 693.62,-15"/>
<polygon fill="#63b8ff" stroke="#63b8ff" points="693.81,-18.5 703.81,-15 693.81,-11.5 693.81,-18.5"/>
</a>
</g>
</g>
<!-- Node8&#45;&gt;Node3 -->
<g id="edge8_Node000008_Node000003" class="edge">
<title>Node8&#45;&gt;Node3</title>
<g id="a_edge8_Node000008_Node000003"><a xlink:title=" ">
<path fill="none" stroke="#63b8ff" d="M490.76,-83.04C503.93,-86.41 518.02,-90.02 531.54,-93.48"/>
<polygon fill="#63b8ff" stroke="#63b8ff" points="530.72,-96.88 541.27,-95.97 532.46,-90.1 530.72,-96.88"/>
</a>
</g>
</g>
<!-- Node8&#45;&gt;Node5 -->
<g id="edge9_Node000008_Node000005" class="edge">
<title>Node8&#45;&gt;Node5</title>
<g id="a_edge9_Node000008_Node000005"><a xlink:title=" ">
<path fill="none" stroke="#63b8ff" d="M498.4,-66.02C506.68,-65.78 515.2,-65.52 523.62,-65.27"/>
<polygon fill="#63b8ff" stroke="#63b8ff" points="523.92,-68.77 533.81,-64.97 523.71,-61.77 523.92,-68.77"/>
</a>
</g>
</g>
</g>
</svg>
