<?xml version="1.0" encoding="UTF-8" standalone="no"?>
<!DOCTYPE svg PUBLIC "-//W3C//DTD SVG 1.1//EN"
 "http://www.w3.org/Graphics/SVG/1.1/DTD/svg11.dtd">
<!-- Generated by graphviz version 2.43.0 (0)
 -->
<!-- Title: guanaqo::print_matlab Pages: 1 -->
<svg width="803pt" height="124pt"
 viewBox="0.00 0.00 803.00 124.00" xmlns="http://www.w3.org/2000/svg" xmlns:xlink="http://www.w3.org/1999/xlink">
<g id="graph0" class="graph" transform="scale(1 1) rotate(0) translate(4 120)">
<title>guanaqo::print_matlab</title>
<!-- Node1 -->
<g id="Node000001" class="node">
<title>Node1</title>
<g id="a_Node000001"><a xlink:title=" ">
<polygon fill="#999999" stroke="#666666" points="127,-88.5 0,-88.5 0,-69.5 127,-69.5 127,-88.5"/>
<text text-anchor="middle" x="63.5" y="-76.5" font-family="Helvetica,sans-Serif" font-size="10.00">guanaqo::print_matlab</text>
</a>
</g>
</g>
<!-- Node2 -->
<g id="Node000002" class="node">
<title>Node2</title>
<g id="a_Node000002"><a xlink:href="namespaceguanaqo_1_1detail.html#a8c302199bfdbe4134d5a49129ee1aaf4" target="_top" xlink:title=" ">
<polygon fill="white" stroke="#666666" points="284,-94 163,-94 163,-64 284,-64 284,-94"/>
<text text-anchor="start" x="171" y="-82" font-family="Helvetica,sans-Serif" font-size="10.00">guanaqo::detail::print</text>
<text text-anchor="middle" x="223.5" y="-71" font-family="Helvetica,sans-Serif" font-size="10.00">_matlab_impl</text>
</a>
</g>
</g>
<!-- Node1&#45;&gt;Node2 -->
<g id="edge1_Node000001_Node000002" class="edge">
<title>Node1&#45;&gt;Node2</title>
<g id="a_edge1_Node000001_Node000002"><a xlink:title=" ">
<path fill="none" stroke="#63b8ff" d="M127.4,-79C135.72,-79 144.29,-79 152.72,-79"/>
<polygon fill="#63b8ff" stroke="#63b8ff" points="152.9,-82.5 162.9,-79 152.9,-75.5 152.9,-82.5"/>
</a>
</g>
</g>
<!-- Node3 -->
<g id="Node000003" class="node">
<title>Node3</title>
<g id="a_Node000003"><a xlink:href="classguanaqo_1_1PrintMatrixView.html#a63eea1dde756aae14cfc43178cb57f8e" target="_top" xlink:title=" ">
<polygon fill="white" stroke="#666666" points="620,-116 477,-116 477,-86 620,-86 620,-116"/>
<text text-anchor="start" x="485" y="-104" font-family="Helvetica,sans-Serif" font-size="10.00">guanaqo::PrintMatrixView</text>
<text text-anchor="middle" x="548.5" y="-93" font-family="Helvetica,sans-Serif" font-size="10.00">::cols</text>
</a>
</g>
</g>
<!-- Node2&#45;&gt;Node3 -->
<g id="edge2_Node000002_Node000003" class="edge">
<title>Node2&#45;&gt;Node3</title>
<g id="a_edge2_Node000002_Node000003"><a xlink:title=" ">
<path fill="none" stroke="#63b8ff" d="M284.12,-83.06C335.54,-86.56 410.24,-91.65 466.96,-95.51"/>
<polygon fill="#63b8ff" stroke="#63b8ff" points="466.76,-99.01 476.98,-96.2 467.24,-92.02 466.76,-99.01"/>
</a>
</g>
</g>
<!-- Node4 -->
<g id="Node000004" class="node">
<title>Node4</title>
<g id="a_Node000004"><a xlink:href="namespaceguanaqo_1_1detail.html#a88c9fe1314e5663d4c70ce10355c6e56" target="_top" xlink:title=" ">
<polygon fill="white" stroke="#666666" points="441,-73 320,-73 320,-43 441,-43 441,-73"/>
<text text-anchor="start" x="328" y="-61" font-family="Helvetica,sans-Serif" font-size="10.00">guanaqo::detail::print</text>
<text text-anchor="middle" x="380.5" y="-50" font-family="Helvetica,sans-Serif" font-size="10.00">_csv_impl</text>
</a>
</g>
</g>
<!-- Node2&#45;&gt;Node4 -->
<g id="edge3_Node000002_Node000004" class="edge">
<title>Node2&#45;&gt;Node4</title>
<g id="a_edge3_Node000002_Node000004"><a xlink:title=" ">
<path fill="none" stroke="#63b8ff" d="M284.43,-70.88C292.82,-69.74 301.49,-68.57 310.04,-67.41"/>
<polygon fill="#63b8ff" stroke="#63b8ff" points="310.55,-70.87 319.99,-66.06 309.61,-63.94 310.55,-70.87"/>
</a>
</g>
</g>
<!-- Node4&#45;&gt;Node3 -->
<g id="edge4_Node000004_Node000003" class="edge">
<title>Node4&#45;&gt;Node3</title>
<g id="a_edge4_Node000004_Node000003"><a xlink:title=" ">
<path fill="none" stroke="#63b8ff" d="M439.56,-73.04C452.45,-76.38 466.22,-79.95 479.47,-83.38"/>
<polygon fill="#63b8ff" stroke="#63b8ff" points="478.92,-86.85 489.47,-85.97 480.67,-80.07 478.92,-86.85"/>
</a>
</g>
</g>
<!-- Node5 -->
<g id="Node000005" class="node">
<title>Node5</title>
<g id="a_Node000005"><a xlink:href="namespaceguanaqo.html#a9d2fcd3439b44a180fe1d9634e0c2a96" target="_top" xlink:title=" ">
<polygon fill="white" stroke="#666666" points="607,-67.5 490,-67.5 490,-48.5 607,-48.5 607,-67.5"/>
<text text-anchor="middle" x="548.5" y="-55.5" font-family="Helvetica,sans-Serif" font-size="10.00">guanaqo::print_elem</text>
</a>
</g>
</g>
<!-- Node4&#45;&gt;Node5 -->
<g id="edge5_Node000004_Node000005" class="edge">
<title>Node4&#45;&gt;Node5</title>
<g id="a_edge5_Node000004_Node000005"><a xlink:title=" ">
<path fill="none" stroke="#63b8ff" d="M441.43,-58C453.89,-58 467.1,-58 479.81,-58"/>
<polygon fill="#63b8ff" stroke="#63b8ff" points="479.88,-61.5 489.88,-58 479.88,-54.5 479.88,-61.5"/>
</a>
</g>
</g>
<!-- Node7 -->
<g id="Node000007" class="node">
<title>Node7</title>
<g id="a_Node000007"><a xlink:href="classguanaqo_1_1PrintMatrixView.html#a73243fba975ee1f16278da79f418010b" target="_top" xlink:title=" ">
<polygon fill="white" stroke="#666666" points="620,-30 477,-30 477,0 620,0 620,-30"/>
<text text-anchor="start" x="485" y="-18" font-family="Helvetica,sans-Serif" font-size="10.00">guanaqo::PrintMatrixView</text>
<text text-anchor="middle" x="548.5" y="-7" font-family="Helvetica,sans-Serif" font-size="10.00">::rows</text>
</a>
</g>
</g>
<!-- Node4&#45;&gt;Node7 -->
<g id="edge7_Node000004_Node000007" class="edge">
<title>Node4&#45;&gt;Node7</title>
<g id="a_edge7_Node000004_Node000007"><a xlink:title=" ">
<path fill="none" stroke="#63b8ff" d="M439.56,-42.96C452.45,-39.62 466.22,-36.05 479.47,-32.62"/>
<polygon fill="#63b8ff" stroke="#63b8ff" points="480.67,-35.93 489.47,-30.03 478.92,-29.15 480.67,-35.93"/>
</a>
</g>
</g>
<!-- Node6 -->
<g id="Node000006" class="node">
<title>Node6</title>
<g id="a_Node000006"><a xlink:href="group__io.html#ga6ea0e178e6ff254e03b167069a441c38" target="_top" xlink:title=" ">
<polygon fill="white" stroke="#666666" points="795,-67.5 656,-67.5 656,-48.5 795,-48.5 795,-67.5"/>
<text text-anchor="middle" x="725.5" y="-55.5" font-family="Helvetica,sans-Serif" font-size="10.00">guanaqo::float_to_str_vw</text>
</a>
</g>
</g>
<!-- Node5&#45;&gt;Node6 -->
<g id="edge6_Node000005_Node000006" class="edge">
<title>Node5&#45;&gt;Node6</title>
<g id="a_edge6_Node000005_Node000006"><a xlink:title=" ">
<path fill="none" stroke="#63b8ff" d="M607.29,-58C619.54,-58 632.68,-58 645.57,-58"/>
<polygon fill="#63b8ff" stroke="#63b8ff" points="645.83,-61.5 655.83,-58 645.83,-54.5 645.83,-61.5"/>
</a>
</g>
</g>
</g>
</svg>
