<?xml version="1.0" encoding="UTF-8" standalone="no"?>
<!DOCTYPE svg PUBLIC "-//W3C//DTD SVG 1.1//EN"
 "http://www.w3.org/Graphics/SVG/1.1/DTD/svg11.dtd">
<!-- Generated by graphviz version 2.43.0 (0)
 -->
<!-- Title: guanaqo::blas::xtrmm Pages: 1 -->
<svg width="324pt" height="138pt"
 viewBox="0.00 0.00 324.00 138.00" xmlns="http://www.w3.org/2000/svg" xmlns:xlink="http://www.w3.org/1999/xlink">

<svg id="main" version="1.1" xmlns="http://www.w3.org/2000/svg" xmlns:xlink="http://www.w3.org/1999/xlink" xml:space="preserve">

<style type="text/css"><![CDATA[
.node, .edge {opacity: 0.7;}
.node.selected, .edge.selected {opacity: 1;}
.edge:hover path { stroke: red; }
.edge:hover polygon { stroke: red; fill: red; }
]]></style>
<script type="application/ecmascript" xlink:href="svg.min.js"/>
<svg id="graph" class="graph">
<g id="graph0" class="graph" transform="scale(1 1) rotate(0) translate(4 134)">
<title>guanaqo::blas::xtrmm</title>
<!-- Node1 -->
<g id="Node000001" class="node">
<title>Node1</title>
<g id="a_Node000001"><a xlink:title=" ">
<polygon fill="#999999" stroke="#666666" points="316,-74 192,-74 192,-55 316,-55 316,-74"/>
<text text-anchor="middle" x="254" y="-62" font-family="Helvetica,sans-Serif" font-size="10.00">guanaqo::blas::xtrmm</text>
</a>
</g>
</g>
<!-- Node2 -->
<g id="Node000002" class="node">
<title>Node2</title>
<g id="a_Node000002"><a xlink:href="group__linalg__blas__hl.html#ga75da6a10d508feb4ccb9a8273c224a6e" target="_top" xlink:title=" ">
<polygon fill="white" stroke="#666666" points="155.5,-130 0.5,-130 0.5,-111 155.5,-111 155.5,-130"/>
<text text-anchor="middle" x="78" y="-118" font-family="Helvetica,sans-Serif" font-size="10.00">guanaqo::blas::xtrmm_LLNN</text>
</a>
</g>
</g>
<!-- Node1&#45;&gt;Node2 -->
<g id="edge1_Node000001_Node000002" class="edge">
<title>Node1&#45;&gt;Node2</title>
<g id="a_edge1_Node000001_Node000002"><a xlink:title=" ">
<path fill="none" stroke="#63b8ff" d="M222.08,-77.93C203.22,-85.78 178.5,-95.5 156,-102.5 146.04,-105.6 135.2,-108.44 124.89,-110.91"/>
<polygon fill="#63b8ff" stroke="#63b8ff" points="223.51,-81.12 231.36,-74.01 220.79,-74.67 223.51,-81.12"/>
</a>
</g>
</g>
<!-- Node3 -->
<g id="Node000003" class="node">
<title>Node3</title>
<g id="a_Node000003"><a xlink:href="group__linalg__blas__hl.html#ga5517b6ca1d0de9e9254cb607037c4c5f" target="_top" xlink:title=" ">
<polygon fill="white" stroke="#666666" points="154,-93 2,-93 2,-74 154,-74 154,-93"/>
<text text-anchor="middle" x="78" y="-81" font-family="Helvetica,sans-Serif" font-size="10.00">guanaqo::blas::xtrmm_LLTN</text>
</a>
</g>
</g>
<!-- Node1&#45;&gt;Node3 -->
<g id="edge2_Node000001_Node000003" class="edge">
<title>Node1&#45;&gt;Node3</title>
<g id="a_edge2_Node000001_Node000003"><a xlink:title=" ">
<path fill="none" stroke="#63b8ff" d="M181.56,-72.3C172.51,-73.29 163.23,-74.3 154.13,-75.3"/>
<polygon fill="#63b8ff" stroke="#63b8ff" points="182.09,-75.76 191.65,-71.2 181.33,-68.8 182.09,-75.76"/>
</a>
</g>
</g>
<!-- Node4 -->
<g id="Node000004" class="node">
<title>Node4</title>
<g id="a_Node000004"><a xlink:href="group__linalg__blas__hl.html#gad4bbdd6db167ffd97addcf2cc00cb145" target="_top" xlink:title=" ">
<polygon fill="white" stroke="#666666" points="156,-56 0,-56 0,-37 156,-37 156,-56"/>
<text text-anchor="middle" x="78" y="-44" font-family="Helvetica,sans-Serif" font-size="10.00">guanaqo::blas::xtrmm_RLNN</text>
</a>
</g>
</g>
<!-- Node1&#45;&gt;Node4 -->
<g id="edge3_Node000001_Node000004" class="edge">
<title>Node1&#45;&gt;Node4</title>
<g id="a_edge3_Node000001_Node000004"><a xlink:title=" ">
<path fill="none" stroke="#63b8ff" d="M181.59,-57.11C173.23,-56.25 164.68,-55.36 156.25,-54.49"/>
<polygon fill="#63b8ff" stroke="#63b8ff" points="181.35,-60.61 191.65,-58.15 182.07,-53.64 181.35,-60.61"/>
</a>
</g>
</g>
<!-- Node5 -->
<g id="Node000005" class="node">
<title>Node5</title>
<g id="a_Node000005"><a xlink:href="group__linalg__blas__hl.html#gaf89abb9a48cf0edbb37fdeed67decfdf" target="_top" xlink:title=" ">
<polygon fill="white" stroke="#666666" points="155,-19 1,-19 1,0 155,0 155,-19"/>
<text text-anchor="middle" x="78" y="-7" font-family="Helvetica,sans-Serif" font-size="10.00">guanaqo::blas::xtrmm_RLTN</text>
</a>
</g>
</g>
<!-- Node1&#45;&gt;Node5 -->
<g id="edge4_Node000001_Node000005" class="edge">
<title>Node1&#45;&gt;Node5</title>
<g id="a_edge4_Node000001_Node000005"><a xlink:title=" ">
<path fill="none" stroke="#63b8ff" d="M219.85,-51.14C201.26,-43.91 177.54,-35.13 156,-28.5 144.95,-25.1 132.86,-21.88 121.6,-19.1"/>
<polygon fill="#63b8ff" stroke="#63b8ff" points="218.75,-54.46 229.34,-54.86 221.31,-47.95 218.75,-54.46"/>
</a>
</g>
</g>
</g>
</svg>
</svg>

<style type='text/css'>
<![CDATA[
[data-mouse-over-selected='false'] { opacity: 0.7; }
[data-mouse-over-selected='true']  { opacity: 1.0; }
]]>
</style>
<script type="application/ecmascript"><![CDATA[
document.addEventListener('DOMContentLoaded', (event) => {
  highlightEdges();
  highlightAdjacentNodes();
});
]]></script>
</svg>
