<?xml version="1.0" encoding="UTF-8" standalone="no"?>
<!DOCTYPE svg PUBLIC "-//W3C//DTD SVG 1.1//EN"
 "http://www.w3.org/Graphics/SVG/1.1/DTD/svg11.dtd">
<!-- Generated by graphviz version 2.43.0 (0)
 -->
<!-- Title: guanaqo::pcm::start_counters Pages: 1 -->
<svg width="534pt" height="86pt"
 viewBox="0.00 0.00 534.00 86.00" xmlns="http://www.w3.org/2000/svg" xmlns:xlink="http://www.w3.org/1999/xlink">
<g id="graph0" class="graph" transform="scale(1 1) rotate(0) translate(4 82)">
<title>guanaqo::pcm::start_counters</title>
<!-- Node1 -->
<g id="Node000001" class="node">
<title>Node1</title>
<g id="a_Node000001"><a xlink:title="May return null if PCM is not available.">
<polygon fill="#999999" stroke="#666666" points="526,-54 412,-54 412,-24 526,-24 526,-54"/>
<text text-anchor="start" x="420" y="-42" font-family="Helvetica,sans-Serif" font-size="10.00">guanaqo::pcm::start</text>
<text text-anchor="middle" x="469" y="-31" font-family="Helvetica,sans-Serif" font-size="10.00">_counters</text>
</a>
</g>
</g>
<!-- Node2 -->
<g id="Node000002" class="node">
<title>Node2</title>
<g id="a_Node000002"><a xlink:href="structguanaqo_1_1pcm_1_1ScopedCounters.html#a5266af25504e9d63f861dd151abd67de" target="_top" xlink:title=" ">
<polygon fill="white" stroke="#666666" points="376,-54 206,-54 206,-24 376,-24 376,-54"/>
<text text-anchor="start" x="214" y="-42" font-family="Helvetica,sans-Serif" font-size="10.00">guanaqo::pcm::ScopedCounters</text>
<text text-anchor="middle" x="291" y="-31" font-family="Helvetica,sans-Serif" font-size="10.00">::ScopedCounters</text>
</a>
</g>
</g>
<!-- Node1&#45;&gt;Node2 -->
<g id="edge1_Node000001_Node000002" class="edge">
<title>Node1&#45;&gt;Node2</title>
<g id="a_edge1_Node000001_Node000002"><a xlink:title=" ">
<path fill="none" stroke="#63b8ff" d="M401.79,-39C393.42,-39 384.78,-39 376.18,-39"/>
<polygon fill="#63b8ff" stroke="#63b8ff" points="401.83,-42.5 411.83,-39 401.83,-35.5 401.83,-42.5"/>
</a>
</g>
</g>
<!-- Node3 -->
<g id="Node000003" class="node">
<title>Node3</title>
<g id="a_Node000003"><a xlink:href="structguanaqo_1_1pcm_1_1ScopedCounters.html#a0716b44940cefdf6f99d27e0a476a29c" target="_top" xlink:title=" ">
<polygon fill="white" stroke="#666666" points="170,-78 0,-78 0,-48 170,-48 170,-78"/>
<text text-anchor="start" x="8" y="-66" font-family="Helvetica,sans-Serif" font-size="10.00">guanaqo::pcm::ScopedCounters</text>
<text text-anchor="middle" x="85" y="-55" font-family="Helvetica,sans-Serif" font-size="10.00">::ScopedCounters</text>
</a>
</g>
</g>
<!-- Node2&#45;&gt;Node3 -->
<g id="edge2_Node000002_Node000003" class="edge">
<title>Node2&#45;&gt;Node3</title>
<g id="a_edge2_Node000002_Node000003"><a xlink:title=" ">
<path fill="none" stroke="#63b8ff" d="M195.88,-50.07C187.34,-51.08 178.73,-52.09 170.29,-53.08"/>
<polygon fill="#63b8ff" stroke="#63b8ff" points="196.33,-53.54 205.85,-48.9 195.51,-46.59 196.33,-53.54"/>
</a>
</g>
</g>
<!-- Node4 -->
<g id="Node000004" class="node">
<title>Node4</title>
<g id="a_Node000004"><a xlink:href="structguanaqo_1_1pcm_1_1ScopedCounters.html#afcb8492fefc1fc5ab19cc5e8f3e40647" target="_top" xlink:title=" ">
<polygon fill="white" stroke="#666666" points="170,-30 0,-30 0,0 170,0 170,-30"/>
<text text-anchor="start" x="8" y="-18" font-family="Helvetica,sans-Serif" font-size="10.00">guanaqo::pcm::ScopedCounters</text>
<text text-anchor="middle" x="85" y="-7" font-family="Helvetica,sans-Serif" font-size="10.00">::operator=</text>
</a>
</g>
</g>
<!-- Node2&#45;&gt;Node4 -->
<g id="edge3_Node000002_Node000004" class="edge">
<title>Node2&#45;&gt;Node4</title>
<g id="a_edge3_Node000002_Node000004"><a xlink:title=" ">
<path fill="none" stroke="#63b8ff" d="M195.88,-27.93C187.34,-26.92 178.73,-25.91 170.29,-24.92"/>
<polygon fill="#63b8ff" stroke="#63b8ff" points="195.51,-31.41 205.85,-29.1 196.33,-24.46 195.51,-31.41"/>
</a>
</g>
</g>
</g>
</svg>
