<?xml version="1.0" encoding="UTF-8" standalone="no"?>
<!DOCTYPE svg PUBLIC "-//W3C//DTD SVG 1.1//EN"
 "http://www.w3.org/Graphics/SVG/1.1/DTD/svg11.dtd">
<!-- Generated by graphviz version 2.43.0 (0)
 -->
<!-- Title: Tracing Pages: 1 -->
<svg width="360pt" height="64pt"
 viewBox="0.00 0.00 360.00 64.00" xmlns="http://www.w3.org/2000/svg" xmlns:xlink="http://www.w3.org/1999/xlink">

<svg id="main" version="1.1" xmlns="http://www.w3.org/2000/svg" xmlns:xlink="http://www.w3.org/1999/xlink" xml:space="preserve">

<style type="text/css"><![CDATA[
.node, .edge {opacity: 0.7;}
.node.selected, .edge.selected {opacity: 1;}
.edge:hover path { stroke: red; }
.edge:hover polygon { stroke: red; fill: red; }
]]></style>
<script type="application/ecmascript" xlink:href="svg.min.js"/>
<svg id="graph" class="graph">
<g id="graph0" class="graph" transform="scale(1 1) rotate(0) translate(4 60)">
<title>Tracing</title>
<!-- Node2 -->
<g id="Node000002" class="node">
<title>Node2</title>
<g id="a_Node000002"><a xlink:href="group__profiling.html" target="_top" xlink:title="Runtime profiling helpers including trace logging.">
<polygon fill="white" stroke="#666666" points="104,-37 0,-37 0,-18 104,-18 104,-37"/>
<text text-anchor="middle" x="52" y="-25" font-family="Helvetica,sans-Serif" font-size="10.00">Profiling &amp; Tracing</text>
</a>
</g>
</g>
<!-- Node1 -->
<g id="Node000001" class="node">
<title>Node1</title>
<g id="a_Node000001"><a xlink:title="Core tracing utilities and macros (ITT, Perfetto or fallback logger).">
<polygon fill="#999999" stroke="#666666" points="191,-37 140,-37 140,-18 191,-18 191,-37"/>
<text text-anchor="middle" x="165.5" y="-25" font-family="Helvetica,sans-Serif" font-size="10.00">Tracing</text>
</a>
</g>
</g>
<!-- Node2&#45;&gt;Node1 -->
<g id="edge1" class="edge">
<title>Node2&#45;&gt;Node1</title>
<path fill="none" stroke="black" d="M114.34,-27.5C123.31,-27.5 132.09,-27.5 139.73,-27.5"/>
<polygon fill="black" stroke="black" points="114.18,-24 104.18,-27.5 114.18,-31 114.18,-24"/>
</g>
<!-- Node4 -->
<g id="Node000004" class="node">
<title>Node4</title>
<g id="a_Node000004"><a xlink:href="group__trace__pcm.html" target="_top" xlink:title="CPU performance counters (PCM) integration and scoped collectors.">
<polygon fill="white" stroke="#666666" points="352,-56 227,-56 227,-37 352,-37 352,-56"/>
<text text-anchor="middle" x="289.5" y="-44" font-family="Helvetica,sans-Serif" font-size="10.00">Performance Counters</text>
</a>
</g>
</g>
<!-- Node1&#45;&gt;Node4 -->
<g id="edge3" class="edge">
<title>Node1&#45;&gt;Node4</title>
<path fill="none" stroke="black" d="M201.09,-32.89C209.29,-34.16 218.28,-35.56 227.27,-36.96"/>
<polygon fill="black" stroke="black" points="201.61,-29.43 191.19,-31.34 200.53,-36.34 201.61,-29.43"/>
</g>
<!-- Node3 -->
<g id="Node000003" class="node">
<title>Node3</title>
<g id="a_Node000003"><a xlink:href="group__trace__perfetto.html" target="_top" xlink:title="Perfetto track events, tracing sessions, and FLOP counting.">
<polygon fill="white" stroke="#666666" points="336,-19 243,-19 243,0 336,0 336,-19"/>
<text text-anchor="middle" x="289.5" y="-7" font-family="Helvetica,sans-Serif" font-size="10.00">Perfetto Tracing</text>
</a>
</g>
</g>
<!-- Node1&#45;&gt;Node3 -->
<g id="edge2" class="edge">
<title>Node1&#45;&gt;Node3</title>
<path fill="none" stroke="black" d="M201.45,-22.34C214.27,-20.45 228.99,-18.28 242.63,-16.27"/>
<polygon fill="black" stroke="black" points="200.57,-18.94 191.19,-23.86 201.59,-25.86 200.57,-18.94"/>
</g>
</g>
</svg>
</svg>

<style type='text/css'>
<![CDATA[
[data-mouse-over-selected='false'] { opacity: 0.7; }
[data-mouse-over-selected='true']  { opacity: 1.0; }
]]>
</style>
<script type="application/ecmascript"><![CDATA[
document.addEventListener('DOMContentLoaded', (event) => {
  highlightEdges();
  highlightAdjacentNodes();
});
]]></script>
</svg>
