<?xml version="1.0" encoding="UTF-8" standalone="no"?>
<!DOCTYPE svg PUBLIC "-//W3C//DTD SVG 1.1//EN"
 "http://www.w3.org/Graphics/SVG/1.1/DTD/svg11.dtd">
<!-- Generated by graphviz version 2.43.0 (0)
 -->
<!-- Title: Graphical Class Hierarchy Pages: 1 -->
<svg width="281pt" height="134pt"
 viewBox="0.00 0.00 281.00 134.00" xmlns="http://www.w3.org/2000/svg" xmlns:xlink="http://www.w3.org/1999/xlink">
<g id="graph0" class="graph" transform="scale(1 1) rotate(0) translate(4 130)">
<title>Graphical Class Hierarchy</title>
<!-- Node0 -->
<g id="Node000000" class="node">
<title>Node0</title>
<g id="a_Node000000"><a xlink:title=" ">
<polygon fill="#e0e0e0" stroke="#999999" points="104,-72.5 0,-72.5 0,-53.5 104,-53.5 104,-72.5"/>
<text text-anchor="middle" x="52" y="-60.5" font-family="Helvetica,sans-Serif" font-size="10.00">std::runtime_error</text>
</a>
</g>
</g>
<!-- Node1 -->
<g id="Node000001" class="node">
<title>Node1</title>
<g id="a_Node000001"><a xlink:href="structguanaqo_1_1blas_1_1lapack__error.html" target="_top" xlink:title=" ">
<polygon fill="white" stroke="#666666" points="268,-126 145,-126 145,-96 268,-96 268,-126"/>
<text text-anchor="start" x="153" y="-114" font-family="Helvetica,sans-Serif" font-size="10.00">guanaqo::blas::lapack</text>
<text text-anchor="middle" x="206.5" y="-103" font-family="Helvetica,sans-Serif" font-size="10.00">_error</text>
</a>
</g>
</g>
<!-- Node0&#45;&gt;Node1 -->
<g id="edge13_Node000000_Node000001" class="edge">
<title>Node0&#45;&gt;Node1</title>
<g id="a_edge13_Node000000_Node000001"><a xlink:title=" ">
<path fill="none" stroke="#63b8ff" d="M93.12,-75.63C112.91,-81.86 136.91,-89.41 157.64,-95.94"/>
<polygon fill="#63b8ff" stroke="#63b8ff" points="94.08,-72.26 83.49,-72.6 91.98,-78.94 94.08,-72.26"/>
</a>
</g>
</g>
<!-- Node2 -->
<g id="Node000002" class="node">
<title>Node2</title>
<g id="a_Node000002"><a xlink:href="structguanaqo_1_1dynamic__load__error.html" target="_top" xlink:title="Failed to load a DLL or SO file, or failed to access a function in it.">
<polygon fill="white" stroke="#666666" points="273,-78 140,-78 140,-48 273,-48 273,-78"/>
<text text-anchor="start" x="148" y="-66" font-family="Helvetica,sans-Serif" font-size="10.00">guanaqo::dynamic_load</text>
<text text-anchor="middle" x="206.5" y="-55" font-family="Helvetica,sans-Serif" font-size="10.00">_error</text>
</a>
</g>
</g>
<!-- Node0&#45;&gt;Node2 -->
<g id="edge14_Node000000_Node000002" class="edge">
<title>Node0&#45;&gt;Node2</title>
<g id="a_edge14_Node000000_Node000002"><a xlink:title=" ">
<path fill="none" stroke="#63b8ff" d="M114.29,-63C122.69,-63 131.34,-63 139.81,-63"/>
<polygon fill="#63b8ff" stroke="#63b8ff" points="114.2,-59.5 104.2,-63 114.2,-66.5 114.2,-59.5"/>
</a>
</g>
</g>
<!-- Node3 -->
<g id="Node000003" class="node">
<title>Node3</title>
<g id="a_Node000003"><a xlink:href="structguanaqo_1_1io_1_1csv__read__error.html" target="_top" xlink:title=" ">
<polygon fill="white" stroke="#666666" points="268,-30 145,-30 145,0 268,0 268,-30"/>
<text text-anchor="start" x="153" y="-18" font-family="Helvetica,sans-Serif" font-size="10.00">guanaqo::io::csv_read</text>
<text text-anchor="middle" x="206.5" y="-7" font-family="Helvetica,sans-Serif" font-size="10.00">_error</text>
</a>
</g>
</g>
<!-- Node0&#45;&gt;Node3 -->
<g id="edge15_Node000000_Node000003" class="edge">
<title>Node0&#45;&gt;Node3</title>
<g id="a_edge15_Node000000_Node000003"><a xlink:title=" ">
<path fill="none" stroke="#63b8ff" d="M93.12,-50.37C112.91,-44.14 136.91,-36.59 157.64,-30.06"/>
<polygon fill="#63b8ff" stroke="#63b8ff" points="91.98,-47.06 83.49,-53.4 94.08,-53.74 91.98,-47.06"/>
</a>
</g>
</g>
</g>
</svg>
