<?xml version="1.0" encoding="UTF-8" standalone="no"?>
<!DOCTYPE svg PUBLIC "-//W3C//DTD SVG 1.1//EN"
 "http://www.w3.org/Graphics/SVG/1.1/DTD/svg11.dtd">
<!-- Generated by graphviz version 2.43.0 (0)
 -->
<!-- Title: Graphical Class Hierarchy Pages: 1 -->
<svg width="308pt" height="172pt"
 viewBox="0.00 0.00 308.00 172.00" xmlns="http://www.w3.org/2000/svg" xmlns:xlink="http://www.w3.org/1999/xlink">
<g id="graph0" class="graph" transform="scale(1 1) rotate(0) translate(4 168)">
<title>Graphical Class Hierarchy</title>
<!-- Node0 -->
<g id="Node000000" class="node">
<title>Node0</title>
<g id="a_Node000000"><a xlink:title=" ">
<polygon fill="#e0e0e0" stroke="#999999" points="89,-93.5 0,-93.5 0,-74.5 89,-74.5 89,-93.5"/>
<text text-anchor="middle" x="44.5" y="-81.5" font-family="Helvetica,sans-Serif" font-size="10.00">std::logic_error</text>
</a>
</g>
</g>
<!-- Node1 -->
<g id="Node000001" class="node">
<title>Node1</title>
<g id="a_Node000001"><a xlink:href="classguanaqo_1_1bad__type__erased__constness.html" target="_top" xlink:title=" ">
<polygon fill="white" stroke="#666666" points="286.5,-164 138.5,-164 138.5,-134 286.5,-134 286.5,-164"/>
<text text-anchor="start" x="146.5" y="-152" font-family="Helvetica,sans-Serif" font-size="10.00">guanaqo::bad_type_erased</text>
<text text-anchor="middle" x="212.5" y="-141" font-family="Helvetica,sans-Serif" font-size="10.00">_constness</text>
</a>
</g>
</g>
<!-- Node0&#45;&gt;Node1 -->
<g id="edge6_Node000000_Node000001" class="edge">
<title>Node0&#45;&gt;Node1</title>
<g id="a_edge6_Node000000_Node000001"><a xlink:title=" ">
<path fill="none" stroke="#63b8ff" d="M70.65,-98.66C85.99,-107.18 106.2,-117.63 125,-125 133.27,-128.24 142.15,-131.23 150.95,-133.91"/>
<polygon fill="#63b8ff" stroke="#63b8ff" points="72.22,-95.53 61.79,-93.66 68.78,-101.62 72.22,-95.53"/>
</a>
</g>
</g>
<!-- Node2 -->
<g id="Node000002" class="node">
<title>Node2</title>
<g id="a_Node000002"><a xlink:href="classguanaqo_1_1bad__type__erased__type.html" target="_top" xlink:title=" ">
<polygon fill="white" stroke="#666666" points="300,-115.5 125,-115.5 125,-96.5 300,-96.5 300,-115.5"/>
<text text-anchor="middle" x="212.5" y="-103.5" font-family="Helvetica,sans-Serif" font-size="10.00">guanaqo::bad_type_erased_type</text>
</a>
</g>
</g>
<!-- Node0&#45;&gt;Node2 -->
<g id="edge7_Node000000_Node000002" class="edge">
<title>Node0&#45;&gt;Node2</title>
<g id="a_edge7_Node000000_Node000002"><a xlink:title=" ">
<path fill="none" stroke="#63b8ff" d="M99.19,-91.12C112.08,-92.82 126.05,-94.67 139.61,-96.47"/>
<polygon fill="#63b8ff" stroke="#63b8ff" points="99.49,-87.62 89.11,-89.78 98.57,-94.56 99.49,-87.62"/>
</a>
</g>
</g>
<!-- Node3 -->
<g id="Node000003" class="node">
<title>Node3</title>
<g id="a_Node000003"><a xlink:href="structguanaqo_1_1linalg_1_1sparsity_1_1unsupported__conversion.html" target="_top" xlink:title="The requested conversion between sparsity structures could not be performed (most likely because cert...">
<polygon fill="white" stroke="#666666" points="283.5,-78 141.5,-78 141.5,-48 283.5,-48 283.5,-78"/>
<text text-anchor="start" x="149.5" y="-66" font-family="Helvetica,sans-Serif" font-size="10.00">guanaqo::linalg::sparsity</text>
<text text-anchor="middle" x="212.5" y="-55" font-family="Helvetica,sans-Serif" font-size="10.00">::unsupported_conversion</text>
</a>
</g>
</g>
<!-- Node0&#45;&gt;Node3 -->
<g id="edge8_Node000000_Node000003" class="edge">
<title>Node0&#45;&gt;Node3</title>
<g id="a_edge8_Node000000_Node000003"><a xlink:title=" ">
<path fill="none" stroke="#63b8ff" d="M99.12,-77.22C112.53,-75.52 127.12,-73.67 141.21,-71.89"/>
<polygon fill="#63b8ff" stroke="#63b8ff" points="98.6,-73.76 89.11,-78.48 99.47,-80.7 98.6,-73.76"/>
</a>
</g>
</g>
<!-- Node4 -->
<g id="Node000004" class="node">
<title>Node4</title>
<g id="a_Node000004"><a xlink:href="structguanaqo_1_1not__implemented__error.html" target="_top" xlink:title=" ">
<polygon fill="white" stroke="#666666" points="288,-30 137,-30 137,0 288,0 288,-30"/>
<text text-anchor="start" x="145" y="-18" font-family="Helvetica,sans-Serif" font-size="10.00">guanaqo::not_implemented</text>
<text text-anchor="middle" x="212.5" y="-7" font-family="Helvetica,sans-Serif" font-size="10.00">_error</text>
</a>
</g>
</g>
<!-- Node0&#45;&gt;Node4 -->
<g id="edge9_Node000000_Node000004" class="edge">
<title>Node0&#45;&gt;Node4</title>
<g id="a_edge9_Node000000_Node000004"><a xlink:title=" ">
<path fill="none" stroke="#63b8ff" d="M68.74,-68.83C84.2,-59.26 105.22,-47.2 125,-39 132.92,-35.72 141.43,-32.74 149.91,-30.08"/>
<polygon fill="#63b8ff" stroke="#63b8ff" points="66.49,-66.12 59.9,-74.42 70.22,-72.04 66.49,-66.12"/>
</a>
</g>
</g>
</g>
</svg>
