<?xml version="1.0" encoding="UTF-8" standalone="no"?>
<!DOCTYPE svg PUBLIC "-//W3C//DTD SVG 1.1//EN"
 "http://www.w3.org/Graphics/SVG/1.1/DTD/svg11.dtd">
<!-- Generated by graphviz version 2.43.0 (0)
 -->
<!-- Title: guanaqo::linalg::sparsity::cast_sz Pages: 1 -->
<svg width="679pt" height="1122pt"
 viewBox="0.00 0.00 679.00 1121.80" xmlns="http://www.w3.org/2000/svg" xmlns:xlink="http://www.w3.org/1999/xlink">
<g id="graph0" class="graph" transform="scale(1 1) rotate(0) translate(4 1117.8)">
<title>guanaqo::linalg::sparsity::cast_sz</title>
<!-- Node1 -->
<g id="Node000001" class="node">
<title>Node1</title>
<g id="a_Node000001"><a xlink:title=" ">
<polygon fill="#999999" stroke="#666666" points="671,-559.8 534,-559.8 534,-529.8 671,-529.8 671,-559.8"/>
<text text-anchor="start" x="542" y="-547.8" font-family="Helvetica,sans-Serif" font-size="10.00">guanaqo::linalg::sparsity</text>
<text text-anchor="middle" x="602.5" y="-536.8" font-family="Helvetica,sans-Serif" font-size="10.00">::cast_sz</text>
</a>
</g>
</g>
<!-- Node2 -->
<g id="Node000002" class="node">
<title>Node2</title>
<g id="a_Node000002"><a xlink:href="structguanaqo_1_1linalg_1_1sparsity_1_1SparsityConverter_3_01Dense_00_01SparseCOO_3_01Index_01_4_01_4.html#aea72764e25b42f3784a1ea9d808eda06" target="_top" xlink:title=" ">
<polygon fill="white" stroke="#666666" points="463.5,-1113.8 285.5,-1113.8 285.5,-1061.8 463.5,-1061.8 463.5,-1113.8"/>
<text text-anchor="start" x="293.5" y="-1101.8" font-family="Helvetica,sans-Serif" font-size="10.00">guanaqo::linalg::sparsity</text>
<text text-anchor="start" x="293.5" y="-1090.8" font-family="Helvetica,sans-Serif" font-size="10.00">::SparsityConverter&lt; Dense,</text>
<text text-anchor="start" x="293.5" y="-1079.8" font-family="Helvetica,sans-Serif" font-size="10.00"> SparseCOO&lt; Index &gt; &gt;::convert</text>
<text text-anchor="middle" x="374.5" y="-1068.8" font-family="Helvetica,sans-Serif" font-size="10.00">_sparsity</text>
</a>
</g>
</g>
<!-- Node1&#45;&gt;Node2 -->
<g id="edge1_Node000001_Node000002" class="edge">
<title>Node1&#45;&gt;Node2</title>
<g id="a_edge1_Node000001_Node000002"><a xlink:title=" ">
<path fill="none" stroke="#63b8ff" d="M599.75,-570.12C592.87,-662.65 564.68,-980.75 498,-1052.8 488.61,-1062.94 476.5,-1070.22 463.57,-1075.43"/>
<polygon fill="#63b8ff" stroke="#63b8ff" points="603.26,-570.22 600.49,-559.99 596.27,-569.71 603.26,-570.22"/>
</a>
</g>
</g>
<!-- Node3 -->
<g id="Node000003" class="node">
<title>Node3</title>
<g id="a_Node000003"><a xlink:href="structguanaqo_1_1linalg_1_1sparsity_1_1SparsityConverter_3_01Dense_00_01SparseCSC_3_01Index_00_01StorageIndex_01_4_01_4.html#ae7a54c4b9555ae0d1a9851ac2606a0af" target="_top" xlink:title=" ">
<polygon fill="white" stroke="#666666" points="465,-1043.8 284,-1043.8 284,-991.8 465,-991.8 465,-1043.8"/>
<text text-anchor="start" x="292" y="-1031.8" font-family="Helvetica,sans-Serif" font-size="10.00">guanaqo::linalg::sparsity</text>
<text text-anchor="start" x="292" y="-1020.8" font-family="Helvetica,sans-Serif" font-size="10.00">::SparsityConverter&lt; Dense,</text>
<text text-anchor="start" x="292" y="-1009.8" font-family="Helvetica,sans-Serif" font-size="10.00"> SparseCSC&lt; Index, StorageIndex</text>
<text text-anchor="middle" x="374.5" y="-998.8" font-family="Helvetica,sans-Serif" font-size="10.00"> &gt; &gt;::convert_sparsity</text>
</a>
</g>
</g>
<!-- Node1&#45;&gt;Node3 -->
<g id="edge2_Node000001_Node000003" class="edge">
<title>Node1&#45;&gt;Node3</title>
<g id="a_edge2_Node000001_Node000003"><a xlink:title=" ">
<path fill="none" stroke="#63b8ff" d="M598.86,-570.14C589.6,-654.22 556.02,-922.02 498,-982.8 488.91,-992.31 477.43,-999.3 465.16,-1004.41"/>
<polygon fill="#63b8ff" stroke="#63b8ff" points="602.34,-570.5 599.94,-560.18 595.38,-569.74 602.34,-570.5"/>
</a>
</g>
</g>
<!-- Node4 -->
<g id="Node000004" class="node">
<title>Node4</title>
<g id="a_Node000004"><a xlink:href="structguanaqo_1_1linalg_1_1sparsity_1_1SparsityConverter_3_01SparseCOO_3_01IndexFrom_01_4_00_01SparseCOO_3_01IndexTo_01_4_01_4.html#a1ce58c1365b5ec4309e7467b70c6fae8" target="_top" xlink:title=" ">
<polygon fill="white" stroke="#666666" points="474.5,-973.8 274.5,-973.8 274.5,-921.8 474.5,-921.8 474.5,-973.8"/>
<text text-anchor="start" x="282.5" y="-961.8" font-family="Helvetica,sans-Serif" font-size="10.00">guanaqo::linalg::sparsity</text>
<text text-anchor="start" x="282.5" y="-950.8" font-family="Helvetica,sans-Serif" font-size="10.00">::SparsityConverter&lt; SparseCOO</text>
<text text-anchor="start" x="282.5" y="-939.8" font-family="Helvetica,sans-Serif" font-size="10.00">&lt; IndexFrom &gt;, SparseCOO&lt; IndexTo</text>
<text text-anchor="middle" x="374.5" y="-928.8" font-family="Helvetica,sans-Serif" font-size="10.00"> &gt; &gt;::convert_sparsity</text>
</a>
</g>
</g>
<!-- Node1&#45;&gt;Node4 -->
<g id="edge3_Node000001_Node000004" class="edge">
<title>Node1&#45;&gt;Node4</title>
<g id="a_edge3_Node000001_Node000004"><a xlink:title=" ">
<path fill="none" stroke="#63b8ff" d="M602.24,-570.27C602.71,-636.53 594.51,-815.89 498,-912.8 491.21,-919.61 483.19,-925.12 474.56,-929.58"/>
<polygon fill="#63b8ff" stroke="#63b8ff" points="605.73,-569.88 602.08,-559.94 598.73,-569.99 605.73,-569.88"/>
</a>
</g>
</g>
<!-- Node5 -->
<g id="Node000005" class="node">
<title>Node5</title>
<g id="a_Node000005"><a xlink:href="structguanaqo_1_1linalg_1_1sparsity_1_1SparsityConverter_3_01SparseCOO_3_01IndexFrom_01_4_00_01S67b6f2c0f3c4edbe7a0b5208ada2b096.html#aa3da87c3a25b16cae86dd4bcf03d9dfd" target="_top" xlink:title=" ">
<polygon fill="white" stroke="#666666" points="476.5,-903.8 272.5,-903.8 272.5,-851.8 476.5,-851.8 476.5,-903.8"/>
<text text-anchor="start" x="280.5" y="-891.8" font-family="Helvetica,sans-Serif" font-size="10.00">guanaqo::linalg::sparsity</text>
<text text-anchor="start" x="280.5" y="-880.8" font-family="Helvetica,sans-Serif" font-size="10.00">::SparsityConverter&lt; SparseCOO</text>
<text text-anchor="start" x="280.5" y="-869.8" font-family="Helvetica,sans-Serif" font-size="10.00">&lt; IndexFrom &gt;, SparseCSC&lt; IndexTo,</text>
<text text-anchor="middle" x="374.5" y="-858.8" font-family="Helvetica,sans-Serif" font-size="10.00"> StorageIndexTo &gt; &gt;::convert_sparsity</text>
</a>
</g>
</g>
<!-- Node1&#45;&gt;Node5 -->
<g id="edge4_Node000001_Node000005" class="edge">
<title>Node1&#45;&gt;Node5</title>
<g id="a_edge4_Node000001_Node000005"><a xlink:title=" ">
<path fill="none" stroke="#63b8ff" d="M600.24,-570.4C596.02,-627.77 577.65,-767.48 498,-842.8 491.65,-848.8 484.35,-853.78 476.53,-857.92"/>
<polygon fill="#63b8ff" stroke="#63b8ff" points="603.76,-570.27 600.91,-560.07 596.77,-569.82 603.76,-570.27"/>
</a>
</g>
</g>
<!-- Node6 -->
<g id="Node000006" class="node">
<title>Node6</title>
<g id="a_Node000006"><a xlink:href="structguanaqo_1_1linalg_1_1sparsity_1_1SparsityConverter_3_01SparseCSC_3_01IndexFrom_00_01Storagd7eacb656b7048a626db1b5d44289905.html#a735298635bc84e9d0415fe8cff08afc3" target="_top" xlink:title=" ">
<polygon fill="white" stroke="#666666" points="498,-833.8 251,-833.8 251,-781.8 498,-781.8 498,-833.8"/>
<text text-anchor="start" x="259" y="-821.8" font-family="Helvetica,sans-Serif" font-size="10.00">guanaqo::linalg::sparsity</text>
<text text-anchor="start" x="259" y="-810.8" font-family="Helvetica,sans-Serif" font-size="10.00">::SparsityConverter&lt; SparseCSC</text>
<text text-anchor="start" x="259" y="-799.8" font-family="Helvetica,sans-Serif" font-size="10.00">&lt; IndexFrom, StorageIndexFrom</text>
<text text-anchor="middle" x="374.5" y="-788.8" font-family="Helvetica,sans-Serif" font-size="10.00"> &gt;, SparseCOO&lt; IndexTo &gt; &gt;::convert_sparsity</text>
</a>
</g>
</g>
<!-- Node1&#45;&gt;Node6 -->
<g id="edge5_Node000001_Node000006" class="edge">
<title>Node1&#45;&gt;Node6</title>
<g id="a_edge5_Node000001_Node000006"><a xlink:title=" ">
<path fill="none" stroke="#63b8ff" d="M597.25,-569.83C587.97,-616.77 561.38,-718.15 498,-772.8 494.23,-776.05 490.18,-778.99 485.92,-781.67"/>
<polygon fill="#63b8ff" stroke="#63b8ff" points="600.71,-570.38 599.12,-559.9 593.83,-569.09 600.71,-570.38"/>
</a>
</g>
</g>
<!-- Node7 -->
<g id="Node000007" class="node">
<title>Node7</title>
<g id="a_Node000007"><a xlink:href="structguanaqo_1_1linalg_1_1sparsity_1_1SparsityConverter_3_01Dense_00_01Dense_01_4.html#aa04b5b7f7739977e707b035627c6e0c7" target="_top" xlink:title=" ">
<polygon fill="white" stroke="#666666" points="452,-763.3 297,-763.3 297,-722.3 452,-722.3 452,-763.3"/>
<text text-anchor="start" x="305" y="-751.3" font-family="Helvetica,sans-Serif" font-size="10.00">guanaqo::linalg::sparsity</text>
<text text-anchor="start" x="305" y="-740.3" font-family="Helvetica,sans-Serif" font-size="10.00">::SparsityConverter&lt; Dense,</text>
<text text-anchor="middle" x="374.5" y="-729.3" font-family="Helvetica,sans-Serif" font-size="10.00"> Dense &gt;::convert_values</text>
</a>
</g>
</g>
<!-- Node1&#45;&gt;Node7 -->
<g id="edge6_Node000001_Node000007" class="edge">
<title>Node1&#45;&gt;Node7</title>
<g id="a_edge6_Node000001_Node000007"><a xlink:title=" ">
<path fill="none" stroke="#63b8ff" d="M592.38,-569.69C577.94,-605.61 546.39,-671.64 498,-707.8 484.53,-717.86 468.27,-725.03 452.05,-730.14"/>
<polygon fill="#63b8ff" stroke="#63b8ff" points="595.79,-570.58 596.16,-559.99 589.27,-568.04 595.79,-570.58"/>
</a>
</g>
</g>
<!-- Node8 -->
<g id="Node000008" class="node">
<title>Node8</title>
<g id="a_Node000008"><a xlink:href="structguanaqo_1_1linalg_1_1sparsity_1_1SparsityConverter_3_01Dense_00_01SparseCOO_3_01Index_01_4_01_4.html#ae0f85e05d4311ff3078312adb79c4a5d" target="_top" xlink:title=" ">
<polygon fill="white" stroke="#666666" points="215,-689.3 0,-689.3 0,-648.3 215,-648.3 215,-689.3"/>
<text text-anchor="start" x="8" y="-677.3" font-family="Helvetica,sans-Serif" font-size="10.00">guanaqo::linalg::sparsity</text>
<text text-anchor="start" x="8" y="-666.3" font-family="Helvetica,sans-Serif" font-size="10.00">::SparsityConverter&lt; Dense,</text>
<text text-anchor="middle" x="107.5" y="-655.3" font-family="Helvetica,sans-Serif" font-size="10.00"> SparseCOO&lt; Index &gt; &gt;::convert_values</text>
</a>
</g>
</g>
<!-- Node1&#45;&gt;Node8 -->
<g id="edge7_Node000001_Node000008" class="edge">
<title>Node1&#45;&gt;Node8</title>
<g id="a_edge7_Node000001_Node000008"><a xlink:title=" ">
<path fill="none" stroke="#63b8ff" d="M590.4,-569.47C574.84,-600.68 543.26,-652.98 498,-674.8 398.24,-722.89 266.74,-707 184.92,-689.31"/>
<polygon fill="#63b8ff" stroke="#63b8ff" points="593.71,-570.68 594.89,-560.15 587.4,-567.64 593.71,-570.68"/>
</a>
</g>
</g>
<!-- Node9 -->
<g id="Node000009" class="node">
<title>Node9</title>
<g id="a_Node000009"><a xlink:href="structguanaqo_1_1linalg_1_1sparsity_1_1SparsityConverter_3_01Dense_00_01SparseCSC_3_01Index_00_01StorageIndex_01_4_01_4.html#a9ecefa0f40c78ab39d3b7a65d8152aad" target="_top" xlink:title=" ">
<polygon fill="white" stroke="#666666" points="198,-508.8 17,-508.8 17,-456.8 198,-456.8 198,-508.8"/>
<text text-anchor="start" x="25" y="-496.8" font-family="Helvetica,sans-Serif" font-size="10.00">guanaqo::linalg::sparsity</text>
<text text-anchor="start" x="25" y="-485.8" font-family="Helvetica,sans-Serif" font-size="10.00">::SparsityConverter&lt; Dense,</text>
<text text-anchor="start" x="25" y="-474.8" font-family="Helvetica,sans-Serif" font-size="10.00"> SparseCSC&lt; Index, StorageIndex</text>
<text text-anchor="middle" x="107.5" y="-463.8" font-family="Helvetica,sans-Serif" font-size="10.00"> &gt; &gt;::convert_values</text>
</a>
</g>
</g>
<!-- Node1&#45;&gt;Node9 -->
<g id="edge8_Node000001_Node000009" class="edge">
<title>Node1&#45;&gt;Node9</title>
<g id="a_edge8_Node000001_Node000009"><a xlink:title=" ">
<path fill="none" stroke="#63b8ff" d="M591.82,-520.26C577.18,-487 545.94,-428.97 498,-404.8 399.98,-355.36 357.35,-377.59 251,-404.8 211.79,-414.83 171.76,-438.12 144.16,-456.66"/>
<polygon fill="#63b8ff" stroke="#63b8ff" points="588.7,-521.88 595.83,-529.73 595.15,-519.15 588.7,-521.88"/>
</a>
</g>
</g>
<!-- Node10 -->
<g id="Node000010" class="node">
<title>Node10</title>
<g id="a_Node000010"><a xlink:href="structguanaqo_1_1linalg_1_1sparsity_1_1SparsityConverter_3_01SparseCOO_3_01Index_01_4_00_01Dense_01_4.html#a5d89558548916185e8072895a7169ff4" target="_top" xlink:title=" ">
<polygon fill="white" stroke="#666666" points="204.5,-191.3 10.5,-191.3 10.5,-150.3 204.5,-150.3 204.5,-191.3"/>
<text text-anchor="start" x="18.5" y="-179.3" font-family="Helvetica,sans-Serif" font-size="10.00">guanaqo::linalg::sparsity</text>
<text text-anchor="start" x="18.5" y="-168.3" font-family="Helvetica,sans-Serif" font-size="10.00">::SparsityConverter&lt; SparseCOO</text>
<text text-anchor="middle" x="107.5" y="-157.3" font-family="Helvetica,sans-Serif" font-size="10.00">&lt; Index &gt;, Dense &gt;::convert_values</text>
</a>
</g>
</g>
<!-- Node1&#45;&gt;Node10 -->
<g id="edge9_Node000001_Node000010" class="edge">
<title>Node1&#45;&gt;Node10</title>
<g id="a_edge9_Node000001_Node000010"><a xlink:title=" ">
<path fill="none" stroke="#63b8ff" d="M602.08,-519.44C602,-456.7 592.28,-293.69 498,-215.8 475.8,-197.45 312.7,-183.69 204.72,-176.48"/>
<polygon fill="#63b8ff" stroke="#63b8ff" points="598.58,-519.59 602.01,-529.61 605.58,-519.64 598.58,-519.59"/>
</a>
</g>
</g>
<!-- Node11 -->
<g id="Node000011" class="node">
<title>Node11</title>
<g id="a_Node000011"><a xlink:href="structguanaqo_1_1linalg_1_1sparsity_1_1SparsityConverter_3_01SparseCOO_3_01IndexFrom_01_4_00_01SparseCOO_3_01IndexTo_01_4_01_4.html#a1dc7d44eef9bd93749abe49e6907e472" target="_top" xlink:title=" ">
<polygon fill="white" stroke="#666666" points="474.5,-535.8 274.5,-535.8 274.5,-483.8 474.5,-483.8 474.5,-535.8"/>
<text text-anchor="start" x="282.5" y="-523.8" font-family="Helvetica,sans-Serif" font-size="10.00">guanaqo::linalg::sparsity</text>
<text text-anchor="start" x="282.5" y="-512.8" font-family="Helvetica,sans-Serif" font-size="10.00">::SparsityConverter&lt; SparseCOO</text>
<text text-anchor="start" x="282.5" y="-501.8" font-family="Helvetica,sans-Serif" font-size="10.00">&lt; IndexFrom &gt;, SparseCOO&lt; IndexTo</text>
<text text-anchor="middle" x="374.5" y="-490.8" font-family="Helvetica,sans-Serif" font-size="10.00"> &gt; &gt;::convert_values</text>
</a>
</g>
</g>
<!-- Node1&#45;&gt;Node11 -->
<g id="edge10_Node000001_Node000011" class="edge">
<title>Node1&#45;&gt;Node11</title>
<g id="a_edge10_Node000001_Node000011"><a xlink:title=" ">
<path fill="none" stroke="#63b8ff" d="M523.8,-532.76C508.02,-530.32 491.23,-527.72 474.83,-525.18"/>
<polygon fill="#63b8ff" stroke="#63b8ff" points="523.58,-536.27 534,-534.34 524.65,-529.35 523.58,-536.27"/>
</a>
</g>
</g>
<!-- Node12 -->
<g id="Node000012" class="node">
<title>Node12</title>
<g id="a_Node000012"><a xlink:href="structguanaqo_1_1linalg_1_1sparsity_1_1SparsityConverter_3_01SparseCOO_3_01IndexFrom_01_4_00_01S67b6f2c0f3c4edbe7a0b5208ada2b096.html#adeccba44317fdfe66db60268a03e58ab" target="_top" xlink:title=" ">
<polygon fill="white" stroke="#666666" points="475,-465.8 274,-465.8 274,-413.8 475,-413.8 475,-465.8"/>
<text text-anchor="start" x="282" y="-453.8" font-family="Helvetica,sans-Serif" font-size="10.00">guanaqo::linalg::sparsity</text>
<text text-anchor="start" x="282" y="-442.8" font-family="Helvetica,sans-Serif" font-size="10.00">::SparsityConverter&lt; SparseCOO</text>
<text text-anchor="start" x="282" y="-431.8" font-family="Helvetica,sans-Serif" font-size="10.00">&lt; IndexFrom &gt;, SparseCSC&lt; IndexTo,</text>
<text text-anchor="middle" x="374.5" y="-420.8" font-family="Helvetica,sans-Serif" font-size="10.00"> StorageIndexTo &gt; &gt;::convert_values</text>
</a>
</g>
</g>
<!-- Node1&#45;&gt;Node12 -->
<g id="edge11_Node000001_Node000012" class="edge">
<title>Node1&#45;&gt;Node12</title>
<g id="a_edge11_Node000001_Node000012"><a xlink:title=" ">
<path fill="none" stroke="#63b8ff" d="M575.08,-523.46C554.96,-508.11 526.04,-487.88 498,-474.8 490.68,-471.38 482.96,-468.23 475.1,-465.34"/>
<polygon fill="#63b8ff" stroke="#63b8ff" points="573.09,-526.35 583.13,-529.71 577.38,-520.82 573.09,-526.35"/>
</a>
</g>
</g>
<!-- Node13 -->
<g id="Node000013" class="node">
<title>Node13</title>
<g id="a_Node000013"><a xlink:href="structguanaqo_1_1linalg_1_1sparsity_1_1SparsityConverter_3_01SparseCSC_3_01Index_00_01StorageIndex_01_4_00_01Dense_01_4.html#ad2505e8a3d02d043ee3973443abffb4b" target="_top" xlink:title=" ">
<polygon fill="white" stroke="#666666" points="194.5,-80.8 20.5,-80.8 20.5,-28.8 194.5,-28.8 194.5,-80.8"/>
<text text-anchor="start" x="28.5" y="-68.8" font-family="Helvetica,sans-Serif" font-size="10.00">guanaqo::linalg::sparsity</text>
<text text-anchor="start" x="28.5" y="-57.8" font-family="Helvetica,sans-Serif" font-size="10.00">::SparsityConverter&lt; SparseCSC</text>
<text text-anchor="start" x="28.5" y="-46.8" font-family="Helvetica,sans-Serif" font-size="10.00">&lt; Index, StorageIndex &gt;, Dense</text>
<text text-anchor="middle" x="107.5" y="-35.8" font-family="Helvetica,sans-Serif" font-size="10.00"> &gt;::convert_values</text>
</a>
</g>
</g>
<!-- Node1&#45;&gt;Node13 -->
<g id="edge12_Node000001_Node000013" class="edge">
<title>Node1&#45;&gt;Node13</title>
<g id="a_edge12_Node000001_Node000013"><a xlink:title=" ">
<path fill="none" stroke="#63b8ff" d="M600.3,-519.63C595.3,-427.05 572.79,-107.64 498,-46.8 408.15,26.3 264.21,-1.98 178.76,-28.71"/>
<polygon fill="#63b8ff" stroke="#63b8ff" points="596.81,-519.95 600.82,-529.76 603.8,-519.59 596.81,-519.95"/>
</a>
</g>
</g>
<!-- Node14 -->
<g id="Node000014" class="node">
<title>Node14</title>
<g id="a_Node000014"><a xlink:href="structguanaqo_1_1linalg_1_1sparsity_1_1SparsityConverter_3_01SparseCSC_3_01IndexFrom_00_01Storagd7eacb656b7048a626db1b5d44289905.html#a4f243776407ed143bd3199b2f0aa2a13" target="_top" xlink:title=" ">
<polygon fill="white" stroke="#666666" points="494.5,-357.8 254.5,-357.8 254.5,-305.8 494.5,-305.8 494.5,-357.8"/>
<text text-anchor="start" x="262.5" y="-345.8" font-family="Helvetica,sans-Serif" font-size="10.00">guanaqo::linalg::sparsity</text>
<text text-anchor="start" x="262.5" y="-334.8" font-family="Helvetica,sans-Serif" font-size="10.00">::SparsityConverter&lt; SparseCSC</text>
<text text-anchor="start" x="262.5" y="-323.8" font-family="Helvetica,sans-Serif" font-size="10.00">&lt; IndexFrom, StorageIndexFrom</text>
<text text-anchor="middle" x="374.5" y="-312.8" font-family="Helvetica,sans-Serif" font-size="10.00"> &gt;, SparseCOO&lt; IndexTo &gt; &gt;::convert_values</text>
</a>
</g>
</g>
<!-- Node1&#45;&gt;Node14 -->
<g id="edge13_Node000001_Node000014" class="edge">
<title>Node1&#45;&gt;Node14</title>
<g id="a_edge13_Node000001_Node000014"><a xlink:title=" ">
<path fill="none" stroke="#63b8ff" d="M593.12,-519.97C579.22,-482.49 547.88,-411.61 498,-371.8 491.36,-366.49 483.98,-361.88 476.25,-357.88"/>
<polygon fill="#63b8ff" stroke="#63b8ff" points="589.9,-521.37 596.58,-529.6 596.49,-519.01 589.9,-521.37"/>
</a>
</g>
</g>
<!-- Node15 -->
<g id="Node000015" class="node">
<title>Node15</title>
<g id="a_Node000015"><a xlink:href="structguanaqo_1_1linalg_1_1sparsity_1_1SparsityConverter_3_01SparseCSC_3_01IndexFrom_00_01Storag482666d5a5943ffa42fa943282e59db2.html#ae450c92234ed4af9b6d4b23cf09c5348" target="_top" xlink:title=" ">
<polygon fill="white" stroke="#666666" points="482.5,-287.3 266.5,-287.3 266.5,-224.3 482.5,-224.3 482.5,-287.3"/>
<text text-anchor="start" x="274.5" y="-275.3" font-family="Helvetica,sans-Serif" font-size="10.00">guanaqo::linalg::sparsity</text>
<text text-anchor="start" x="274.5" y="-264.3" font-family="Helvetica,sans-Serif" font-size="10.00">::SparsityConverter&lt; SparseCSC</text>
<text text-anchor="start" x="274.5" y="-253.3" font-family="Helvetica,sans-Serif" font-size="10.00">&lt; IndexFrom, StorageIndexFrom</text>
<text text-anchor="start" x="274.5" y="-242.3" font-family="Helvetica,sans-Serif" font-size="10.00"> &gt;, SparseCSC&lt; IndexTo, StorageIndexTo</text>
<text text-anchor="middle" x="374.5" y="-231.3" font-family="Helvetica,sans-Serif" font-size="10.00"> &gt; &gt;::convert_values</text>
</a>
</g>
</g>
<!-- Node1&#45;&gt;Node15 -->
<g id="edge14_Node000001_Node000015" class="edge">
<title>Node1&#45;&gt;Node15</title>
<g id="a_edge14_Node000001_Node000015"><a xlink:title=" ">
<path fill="none" stroke="#63b8ff" d="M597.98,-519.6C589.72,-469.89 564.52,-358.67 498,-296.8 493.32,-292.44 488.16,-288.55 482.69,-285.07"/>
<polygon fill="#63b8ff" stroke="#63b8ff" points="594.53,-520.17 599.53,-529.5 601.44,-519.08 594.53,-520.17"/>
</a>
</g>
</g>
<!-- Node16 -->
<g id="Node000016" class="node">
<title>Node16</title>
<g id="a_Node000016"><a xlink:href="structguanaqo_1_1linalg_1_1sparsity_1_1SparsityConverter_3_01Dense_00_01SparseCOO_3_01Index_01_4_01_4.html#afc5ca35d82cddf0d800e86a4f3fbc4bf" target="_top" xlink:title=" ">
<polygon fill="white" stroke="#666666" points="469.5,-665.3 279.5,-665.3 279.5,-624.3 469.5,-624.3 469.5,-665.3"/>
<text text-anchor="start" x="287.5" y="-653.3" font-family="Helvetica,sans-Serif" font-size="10.00">guanaqo::linalg::sparsity</text>
<text text-anchor="start" x="287.5" y="-642.3" font-family="Helvetica,sans-Serif" font-size="10.00">::SparsityConverter&lt; Dense,</text>
<text text-anchor="middle" x="374.5" y="-631.3" font-family="Helvetica,sans-Serif" font-size="10.00"> SparseCOO&lt; Index &gt; &gt;::work_size</text>
</a>
</g>
</g>
<!-- Node1&#45;&gt;Node16 -->
<g id="edge15_Node000001_Node000016" class="edge">
<title>Node1&#45;&gt;Node16</title>
<g id="a_edge15_Node000001_Node000016"><a xlink:title=" ">
<path fill="none" stroke="#63b8ff" d="M575.59,-566.16C555.53,-581.71 526.46,-602.18 498,-614.8 488.99,-618.79 479.37,-622.31 469.62,-625.39"/>
<polygon fill="#63b8ff" stroke="#63b8ff" points="577.93,-568.77 583.61,-559.83 573.59,-563.28 577.93,-568.77"/>
</a>
</g>
</g>
<!-- Node17 -->
<g id="Node000017" class="node">
<title>Node17</title>
<g id="a_Node000017"><a xlink:href="structguanaqo_1_1linalg_1_1sparsity_1_1SparsityConverter_3_01Dense_00_01SparseCSC_3_01Index_00_01StorageIndex_01_4_01_4.html#a225b411a1d768126f3d598611da688b4" target="_top" xlink:title=" ">
<polygon fill="white" stroke="#666666" points="465,-605.8 284,-605.8 284,-553.8 465,-553.8 465,-605.8"/>
<text text-anchor="start" x="292" y="-593.8" font-family="Helvetica,sans-Serif" font-size="10.00">guanaqo::linalg::sparsity</text>
<text text-anchor="start" x="292" y="-582.8" font-family="Helvetica,sans-Serif" font-size="10.00">::SparsityConverter&lt; Dense,</text>
<text text-anchor="start" x="292" y="-571.8" font-family="Helvetica,sans-Serif" font-size="10.00"> SparseCSC&lt; Index, StorageIndex</text>
<text text-anchor="middle" x="374.5" y="-560.8" font-family="Helvetica,sans-Serif" font-size="10.00"> &gt; &gt;::work_size</text>
</a>
</g>
</g>
<!-- Node1&#45;&gt;Node17 -->
<g id="edge17_Node000001_Node000017" class="edge">
<title>Node1&#45;&gt;Node17</title>
<g id="a_edge17_Node000001_Node000017"><a xlink:title=" ">
<path fill="none" stroke="#63b8ff" d="M523.96,-556.8C505.05,-559.73 484.66,-562.89 465.24,-565.9"/>
<polygon fill="#63b8ff" stroke="#63b8ff" points="524.65,-560.24 534,-555.25 523.58,-553.32 524.65,-560.24"/>
</a>
</g>
</g>
<!-- Node18 -->
<g id="Node000018" class="node">
<title>Node18</title>
<g id="a_Node000018"><a xlink:href="structguanaqo_1_1linalg_1_1sparsity_1_1SparsityConverter_3_01SparseCOO_3_01Index_01_4_00_01Dense_01_4.html#aea08647473d443aa14e6ce8acbbc72f1" target="_top" xlink:title=" ">
<polygon fill="white" stroke="#666666" points="462.5,-167.3 286.5,-167.3 286.5,-126.3 462.5,-126.3 462.5,-167.3"/>
<text text-anchor="start" x="294.5" y="-155.3" font-family="Helvetica,sans-Serif" font-size="10.00">guanaqo::linalg::sparsity</text>
<text text-anchor="start" x="294.5" y="-144.3" font-family="Helvetica,sans-Serif" font-size="10.00">::SparsityConverter&lt; SparseCOO</text>
<text text-anchor="middle" x="374.5" y="-133.3" font-family="Helvetica,sans-Serif" font-size="10.00">&lt; Index &gt;, Dense &gt;::work_size</text>
</a>
</g>
</g>
<!-- Node1&#45;&gt;Node18 -->
<g id="edge19_Node000001_Node000018" class="edge">
<title>Node1&#45;&gt;Node18</title>
<g id="a_edge19_Node000001_Node000018"><a xlink:title=" ">
<path fill="none" stroke="#63b8ff" d="M602.12,-519.21C602.26,-453.47 593.25,-277.1 498,-181.8 488.15,-171.94 475.73,-164.82 462.6,-159.67"/>
<polygon fill="#63b8ff" stroke="#63b8ff" points="598.62,-519.44 602.02,-529.48 605.62,-519.51 598.62,-519.44"/>
</a>
</g>
</g>
<!-- Node19 -->
<g id="Node000019" class="node">
<title>Node19</title>
<g id="a_Node000019"><a xlink:href="structguanaqo_1_1linalg_1_1sparsity_1_1SparsityConverter_3_01SparseCSC_3_01Index_00_01StorageIndex_01_4_00_01Dense_01_4.html#aa89f788d2245d80271d3ce7d18df395c" target="_top" xlink:title=" ">
<polygon fill="white" stroke="#666666" points="461.5,-107.8 287.5,-107.8 287.5,-55.8 461.5,-55.8 461.5,-107.8"/>
<text text-anchor="start" x="295.5" y="-95.8" font-family="Helvetica,sans-Serif" font-size="10.00">guanaqo::linalg::sparsity</text>
<text text-anchor="start" x="295.5" y="-84.8" font-family="Helvetica,sans-Serif" font-size="10.00">::SparsityConverter&lt; SparseCSC</text>
<text text-anchor="start" x="295.5" y="-73.8" font-family="Helvetica,sans-Serif" font-size="10.00">&lt; Index, StorageIndex &gt;, Dense</text>
<text text-anchor="middle" x="374.5" y="-62.8" font-family="Helvetica,sans-Serif" font-size="10.00"> &gt;::work_size</text>
</a>
</g>
</g>
<!-- Node1&#45;&gt;Node19 -->
<g id="edge21_Node000001_Node000019" class="edge">
<title>Node1&#45;&gt;Node19</title>
<g id="a_edge21_Node000001_Node000019"><a xlink:title=" ">
<path fill="none" stroke="#63b8ff" d="M598.75,-519.77C589.18,-437.32 554.87,-176.05 498,-116.8 488.04,-106.42 475.25,-99.06 461.69,-93.85"/>
<polygon fill="#63b8ff" stroke="#63b8ff" points="595.27,-520.22 599.88,-529.76 602.23,-519.43 595.27,-520.22"/>
</a>
</g>
</g>
<!-- Node16&#45;&gt;Node8 -->
<g id="edge16_Node000016_Node000008" class="edge">
<title>Node16&#45;&gt;Node8</title>
<g id="a_edge16_Node000016_Node000008"><a xlink:title=" ">
<path fill="none" stroke="#63b8ff" d="M268.97,-654.26C251.23,-655.87 232.8,-657.54 215.01,-659.15"/>
<polygon fill="#63b8ff" stroke="#63b8ff" points="269.68,-657.71 279.32,-653.33 269.05,-650.74 269.68,-657.71"/>
</a>
</g>
</g>
<!-- Node17&#45;&gt;Node9 -->
<g id="edge18_Node000017_Node000009" class="edge">
<title>Node17&#45;&gt;Node9</title>
<g id="a_edge18_Node000017_Node000009"><a xlink:title=" ">
<path fill="none" stroke="#63b8ff" d="M274.13,-552.61C266.26,-550.09 258.47,-547.48 251,-544.8 221.67,-534.28 189.8,-520.63 163.65,-508.82"/>
<polygon fill="#63b8ff" stroke="#63b8ff" points="273.16,-555.98 283.75,-555.63 275.25,-549.3 273.16,-555.98"/>
</a>
</g>
</g>
<!-- Node18&#45;&gt;Node10 -->
<g id="edge20_Node000018_Node000010" class="edge">
<title>Node18&#45;&gt;Node10</title>
<g id="a_edge20_Node000018_Node000010"><a xlink:title=" ">
<path fill="none" stroke="#63b8ff" d="M276.15,-155.61C252.88,-157.72 228.06,-159.97 204.84,-162.07"/>
<polygon fill="#63b8ff" stroke="#63b8ff" points="276.72,-159.08 286.36,-154.69 276.09,-152.1 276.72,-159.08"/>
</a>
</g>
</g>
<!-- Node19&#45;&gt;Node13 -->
<g id="edge22_Node000019_Node000013" class="edge">
<title>Node19&#45;&gt;Node13</title>
<g id="a_edge22_Node000019_Node000013"><a xlink:title=" ">
<path fill="none" stroke="#63b8ff" d="M277.22,-71.99C250.18,-69.23 220.96,-66.25 194.56,-63.56"/>
<polygon fill="#63b8ff" stroke="#63b8ff" points="277.16,-75.5 287.46,-73.03 277.87,-68.53 277.16,-75.5"/>
</a>
</g>
</g>
</g>
</svg>
