<?xml version="1.0" encoding="UTF-8" standalone="no"?>
<!DOCTYPE svg PUBLIC "-//W3C//DTD SVG 1.1//EN"
 "http://www.w3.org/Graphics/SVG/1.1/DTD/svg11.dtd">
<!-- Generated by graphviz version 2.43.0 (0)
 -->
<!-- Title: guanaqo::pcm::get_counters_enabled_flag Pages: 1 -->
<svg width="738pt" height="158pt"
 viewBox="0.00 0.00 738.00 158.00" xmlns="http://www.w3.org/2000/svg" xmlns:xlink="http://www.w3.org/1999/xlink">
<g id="graph0" class="graph" transform="scale(1 1) rotate(0) translate(4 154)">
<title>guanaqo::pcm::get_counters_enabled_flag</title>
<!-- Node1 -->
<g id="Node000001" class="node">
<title>Node1</title>
<g id="a_Node000001"><a xlink:title=" ">
<polygon fill="#999999" stroke="#666666" points="730,-102 575,-102 575,-72 730,-72 730,-102"/>
<text text-anchor="start" x="583" y="-90" font-family="Helvetica,sans-Serif" font-size="10.00">guanaqo::pcm::get_counters</text>
<text text-anchor="middle" x="652.5" y="-79" font-family="Helvetica,sans-Serif" font-size="10.00">_enabled_flag</text>
</a>
</g>
</g>
<!-- Node2 -->
<g id="Node000002" class="node">
<title>Node2</title>
<g id="a_Node000002"><a xlink:href="group__trace__pcm.html#ga5cca616f50e728c841ede162a60f1773" target="_top" xlink:title="Disables performance counters globally. Blocks until all active counters have stopped.">
<polygon fill="white" stroke="#666666" points="539,-150 412,-150 412,-120 539,-120 539,-150"/>
<text text-anchor="start" x="420" y="-138" font-family="Helvetica,sans-Serif" font-size="10.00">guanaqo::pcm::disable</text>
<text text-anchor="middle" x="475.5" y="-127" font-family="Helvetica,sans-Serif" font-size="10.00">_counters</text>
</a>
</g>
</g>
<!-- Node1&#45;&gt;Node2 -->
<g id="edge1_Node000001_Node000002" class="edge">
<title>Node1&#45;&gt;Node2</title>
<g id="a_edge1_Node000001_Node000002"><a xlink:title=" ">
<path fill="none" stroke="#63b8ff" d="M586.9,-104.72C568.6,-109.74 548.85,-115.15 531.2,-120"/>
<polygon fill="#63b8ff" stroke="#63b8ff" points="587.89,-108.08 596.61,-102.06 586.04,-101.33 587.89,-108.08"/>
</a>
</g>
</g>
<!-- Node3 -->
<g id="Node000003" class="node">
<title>Node3</title>
<g id="a_Node000003"><a xlink:href="group__trace__pcm.html#gafa4a8da9b42741ee911b51807b32dbe9" target="_top" xlink:title="Enables performance counters globally.">
<polygon fill="white" stroke="#666666" points="538,-102 413,-102 413,-72 538,-72 538,-102"/>
<text text-anchor="start" x="421" y="-90" font-family="Helvetica,sans-Serif" font-size="10.00">guanaqo::pcm::enable</text>
<text text-anchor="middle" x="475.5" y="-79" font-family="Helvetica,sans-Serif" font-size="10.00">_counters</text>
</a>
</g>
</g>
<!-- Node1&#45;&gt;Node3 -->
<g id="edge2_Node000001_Node000003" class="edge">
<title>Node1&#45;&gt;Node3</title>
<g id="a_edge2_Node000001_Node000003"><a xlink:title=" ">
<path fill="none" stroke="#63b8ff" d="M564.84,-87C555.82,-87 546.79,-87 538.14,-87"/>
<polygon fill="#63b8ff" stroke="#63b8ff" points="565,-90.5 575,-87 565,-83.5 565,-90.5"/>
</a>
</g>
</g>
<!-- Node4 -->
<g id="Node000004" class="node">
<title>Node4</title>
<g id="a_Node000004"><a xlink:href="group__trace__pcm.html#ga9c090e29ee057a1c150360045787dca5" target="_top" xlink:title="May return null if PCM is not available.">
<polygon fill="white" stroke="#666666" points="532.5,-54 418.5,-54 418.5,-24 532.5,-24 532.5,-54"/>
<text text-anchor="start" x="426.5" y="-42" font-family="Helvetica,sans-Serif" font-size="10.00">guanaqo::pcm::start</text>
<text text-anchor="middle" x="475.5" y="-31" font-family="Helvetica,sans-Serif" font-size="10.00">_counters</text>
</a>
</g>
</g>
<!-- Node1&#45;&gt;Node4 -->
<g id="edge3_Node000001_Node000004" class="edge">
<title>Node1&#45;&gt;Node4</title>
<g id="a_edge3_Node000001_Node000004"><a xlink:title=" ">
<path fill="none" stroke="#63b8ff" d="M586.9,-69.28C568.6,-64.26 548.85,-58.85 531.2,-54"/>
<polygon fill="#63b8ff" stroke="#63b8ff" points="586.04,-72.67 596.61,-71.94 587.89,-65.92 586.04,-72.67"/>
</a>
</g>
</g>
<!-- Node5 -->
<g id="Node000005" class="node">
<title>Node5</title>
<g id="a_Node000005"><a xlink:href="structguanaqo_1_1pcm_1_1ScopedCounters.html#a5266af25504e9d63f861dd151abd67de" target="_top" xlink:title=" ">
<polygon fill="white" stroke="#666666" points="376,-54 206,-54 206,-24 376,-24 376,-54"/>
<text text-anchor="start" x="214" y="-42" font-family="Helvetica,sans-Serif" font-size="10.00">guanaqo::pcm::ScopedCounters</text>
<text text-anchor="middle" x="291" y="-31" font-family="Helvetica,sans-Serif" font-size="10.00">::ScopedCounters</text>
</a>
</g>
</g>
<!-- Node4&#45;&gt;Node5 -->
<g id="edge4_Node000004_Node000005" class="edge">
<title>Node4&#45;&gt;Node5</title>
<g id="a_edge4_Node000004_Node000005"><a xlink:title=" ">
<path fill="none" stroke="#63b8ff" d="M408.08,-39C397.73,-39 386.92,-39 376.24,-39"/>
<polygon fill="#63b8ff" stroke="#63b8ff" points="408.25,-42.5 418.25,-39 408.25,-35.5 408.25,-42.5"/>
</a>
</g>
</g>
<!-- Node6 -->
<g id="Node000006" class="node">
<title>Node6</title>
<g id="a_Node000006"><a xlink:href="structguanaqo_1_1pcm_1_1ScopedCounters.html#a0716b44940cefdf6f99d27e0a476a29c" target="_top" xlink:title=" ">
<polygon fill="white" stroke="#666666" points="170,-78 0,-78 0,-48 170,-48 170,-78"/>
<text text-anchor="start" x="8" y="-66" font-family="Helvetica,sans-Serif" font-size="10.00">guanaqo::pcm::ScopedCounters</text>
<text text-anchor="middle" x="85" y="-55" font-family="Helvetica,sans-Serif" font-size="10.00">::ScopedCounters</text>
</a>
</g>
</g>
<!-- Node5&#45;&gt;Node6 -->
<g id="edge5_Node000005_Node000006" class="edge">
<title>Node5&#45;&gt;Node6</title>
<g id="a_edge5_Node000005_Node000006"><a xlink:title=" ">
<path fill="none" stroke="#63b8ff" d="M195.88,-50.07C187.34,-51.08 178.73,-52.09 170.29,-53.08"/>
<polygon fill="#63b8ff" stroke="#63b8ff" points="196.33,-53.54 205.85,-48.9 195.51,-46.59 196.33,-53.54"/>
</a>
</g>
</g>
<!-- Node7 -->
<g id="Node000007" class="node">
<title>Node7</title>
<g id="a_Node000007"><a xlink:href="structguanaqo_1_1pcm_1_1ScopedCounters.html#afcb8492fefc1fc5ab19cc5e8f3e40647" target="_top" xlink:title=" ">
<polygon fill="white" stroke="#666666" points="170,-30 0,-30 0,0 170,0 170,-30"/>
<text text-anchor="start" x="8" y="-18" font-family="Helvetica,sans-Serif" font-size="10.00">guanaqo::pcm::ScopedCounters</text>
<text text-anchor="middle" x="85" y="-7" font-family="Helvetica,sans-Serif" font-size="10.00">::operator=</text>
</a>
</g>
</g>
<!-- Node5&#45;&gt;Node7 -->
<g id="edge6_Node000005_Node000007" class="edge">
<title>Node5&#45;&gt;Node7</title>
<g id="a_edge6_Node000005_Node000007"><a xlink:title=" ">
<path fill="none" stroke="#63b8ff" d="M195.88,-27.93C187.34,-26.92 178.73,-25.91 170.29,-24.92"/>
<polygon fill="#63b8ff" stroke="#63b8ff" points="195.51,-31.41 205.85,-29.1 196.33,-24.46 195.51,-31.41"/>
</a>
</g>
</g>
</g>
</svg>
