<?xml version="1.0" encoding="UTF-8" standalone="no"?>
<!DOCTYPE svg PUBLIC "-//W3C//DTD SVG 1.1//EN"
 "http://www.w3.org/Graphics/SVG/1.1/DTD/svg11.dtd">
<!-- Generated by graphviz version 2.43.0 (0)
 -->
<!-- Title: include/guanaqo/preprocessor.h Pages: 1 -->
<svg width="457pt" height="214pt"
 viewBox="0.00 0.00 457.00 214.00" xmlns="http://www.w3.org/2000/svg" xmlns:xlink="http://www.w3.org/1999/xlink">
<g id="graph0" class="graph" transform="scale(1 1) rotate(0) translate(4 210)">
<title>include/guanaqo/preprocessor.h</title>
<!-- Node1 -->
<g id="Node000001" class="node">
<title>Node1</title>
<g id="a_Node000001"><a xlink:title="Token concatenation and argument&#45;counting helpers.">
<polygon fill="#999999" stroke="#666666" points="306,-206 135,-206 135,-187 306,-187 306,-206"/>
<text text-anchor="middle" x="220.5" y="-194" font-family="Helvetica,sans-Serif" font-size="10.00">include/guanaqo/preprocessor.h</text>
</a>
</g>
</g>
<!-- Node2 -->
<g id="Node000002" class="node">
<title>Node2</title>
<g id="a_Node000002"><a xlink:href="openmp_8h.html" target="_top" xlink:title="OpenMP helpers.">
<polygon fill="white" stroke="#666666" points="178,-145.5 29,-145.5 29,-126.5 178,-126.5 178,-145.5"/>
<text text-anchor="middle" x="103.5" y="-133.5" font-family="Helvetica,sans-Serif" font-size="10.00">include/guanaqo/openmp.h</text>
</a>
</g>
</g>
<!-- Node1&#45;&gt;Node2 -->
<g id="edge1_Node000001_Node000002" class="edge">
<title>Node1&#45;&gt;Node2</title>
<g id="a_edge1_Node000001_Node000002"><a xlink:title=" ">
<path fill="none" stroke="#63b8ff" d="M194.46,-182.48C171.92,-171.21 139.95,-155.23 120.53,-145.52"/>
<polygon fill="#63b8ff" stroke="#63b8ff" points="192.98,-185.65 203.49,-186.99 196.11,-179.39 192.98,-185.65"/>
</a>
</g>
</g>
<!-- Node4 -->
<g id="Node000004" class="node">
<title>Node4</title>
<g id="a_Node000004"><a xlink:href="perfetto_2trace_8hpp.html" target="_top" xlink:title="Perfetto tracing macros and session helpers.">
<polygon fill="white" stroke="#666666" points="388,-151 249,-151 249,-121 388,-121 388,-151"/>
<text text-anchor="start" x="257" y="-139" font-family="Helvetica,sans-Serif" font-size="10.00">include/guanaqo/perfetto</text>
<text text-anchor="middle" x="318.5" y="-128" font-family="Helvetica,sans-Serif" font-size="10.00">/trace.hpp</text>
</a>
</g>
</g>
<!-- Node1&#45;&gt;Node4 -->
<g id="edge3_Node000001_Node000004" class="edge">
<title>Node1&#45;&gt;Node4</title>
<g id="a_edge3_Node000001_Node000004"><a xlink:title=" ">
<path fill="none" stroke="#63b8ff" d="M243.86,-181.55C259.27,-172.36 279.39,-160.35 294.86,-151.11"/>
<polygon fill="#63b8ff" stroke="#63b8ff" points="241.75,-178.74 234.96,-186.87 245.34,-184.75 241.75,-178.74"/>
</a>
</g>
</g>
<!-- Node5 -->
<g id="Node000005" class="node">
<title>Node5</title>
<g id="a_Node000005"><a xlink:href="trace_8hpp.html" target="_top" xlink:title="Tracing logger and macros (ITT, Perfetto, or fallback).">
<polygon fill="white" stroke="#666666" points="309.5,-85 163.5,-85 163.5,-66 309.5,-66 309.5,-85"/>
<text text-anchor="middle" x="236.5" y="-73" font-family="Helvetica,sans-Serif" font-size="10.00">include/guanaqo/trace.hpp</text>
</a>
</g>
</g>
<!-- Node1&#45;&gt;Node5 -->
<g id="edge8_Node000001_Node000005" class="edge">
<title>Node1&#45;&gt;Node5</title>
<g id="a_edge8_Node000001_Node000005"><a xlink:title=" ">
<path fill="none" stroke="#63b8ff" d="M223.01,-176.86C226.51,-150.81 232.73,-104.56 235.32,-85.3"/>
<polygon fill="#63b8ff" stroke="#63b8ff" points="219.51,-176.56 221.65,-186.94 226.45,-177.5 219.51,-176.56"/>
</a>
</g>
</g>
<!-- Node3 -->
<g id="Node000003" class="node">
<title>Node3</title>
<g id="a_Node000003"><a xlink:href="blas-interface_8cpp.html" target="_top" xlink:title=" ">
<polygon fill="white" stroke="#666666" points="145,-85 0,-85 0,-66 145,-66 145,-85"/>
<text text-anchor="middle" x="72.5" y="-73" font-family="Helvetica,sans-Serif" font-size="10.00">blas/src/blas&#45;interface.cpp</text>
</a>
</g>
</g>
<!-- Node2&#45;&gt;Node3 -->
<g id="edge2_Node000002_Node000003" class="edge">
<title>Node2&#45;&gt;Node3</title>
<g id="a_edge2_Node000002_Node000003"><a xlink:title=" ">
<path fill="none" stroke="#63b8ff" d="M94.22,-117.48C88.56,-106.81 81.59,-93.65 77.09,-85.17"/>
<polygon fill="#63b8ff" stroke="#63b8ff" points="91.15,-119.17 98.93,-126.37 97.34,-115.89 91.15,-119.17"/>
</a>
</g>
</g>
<!-- Node4&#45;&gt;Node5 -->
<g id="edge4_Node000004_Node000005" class="edge">
<title>Node4&#45;&gt;Node5</title>
<g id="a_edge4_Node000004_Node000005"><a xlink:title=" ">
<path fill="none" stroke="#63b8ff" d="M290.21,-114.82C276.07,-104.73 259.7,-93.05 248.79,-85.27"/>
<polygon fill="#63b8ff" stroke="#63b8ff" points="288.48,-117.88 298.65,-120.84 292.54,-112.18 288.48,-117.88"/>
</a>
</g>
</g>
<!-- Node8 -->
<g id="Node000008" class="node">
<title>Node8</title>
<g id="a_Node000008"><a xlink:href="perfetto_2trace_8cpp.html" target="_top" xlink:title=" ">
<polygon fill="white" stroke="#666666" points="449,-85 328,-85 328,-66 449,-66 449,-85"/>
<text text-anchor="middle" x="388.5" y="-73" font-family="Helvetica,sans-Serif" font-size="10.00">src/perfetto/trace.cpp</text>
</a>
</g>
</g>
<!-- Node4&#45;&gt;Node8 -->
<g id="edge7_Node000004_Node000008" class="edge">
<title>Node4&#45;&gt;Node8</title>
<g id="a_edge7_Node000004_Node000008"><a xlink:title=" ">
<path fill="none" stroke="#63b8ff" d="M343.34,-114.24C355.24,-104.29 368.87,-92.91 378.01,-85.27"/>
<polygon fill="#63b8ff" stroke="#63b8ff" points="340.87,-111.74 335.45,-120.84 345.36,-117.11 340.87,-111.74"/>
</a>
</g>
</g>
<!-- Node6 -->
<g id="Node000006" class="node">
<title>Node6</title>
<g id="a_Node000006"><a xlink:href="hl-blas-interface_8hpp.html" target="_top" xlink:title="This file provides simple overloaded wrappers around standard BLAS functions.">
<polygon fill="white" stroke="#666666" points="243.5,-30 99.5,-30 99.5,0 243.5,0 243.5,-30"/>
<text text-anchor="start" x="107.5" y="-18" font-family="Helvetica,sans-Serif" font-size="10.00">blas/include/guanaqo</text>
<text text-anchor="middle" x="171.5" y="-7" font-family="Helvetica,sans-Serif" font-size="10.00">/blas/hl&#45;blas&#45;interface.hpp</text>
</a>
</g>
</g>
<!-- Node5&#45;&gt;Node6 -->
<g id="edge5_Node000005_Node000006" class="edge">
<title>Node5&#45;&gt;Node6</title>
<g id="a_edge5_Node000005_Node000006"><a xlink:title=" ">
<path fill="none" stroke="#63b8ff" d="M219.24,-58.97C209.28,-50.01 196.86,-38.82 187.18,-30.11"/>
<polygon fill="#63b8ff" stroke="#63b8ff" points="217.13,-61.78 226.91,-65.87 221.82,-56.58 217.13,-61.78"/>
</a>
</g>
</g>
<!-- Node7 -->
<g id="Node000007" class="node">
<title>Node7</title>
<g id="a_Node000007"><a xlink:href="trace_8cpp.html" target="_top" xlink:title=" ">
<polygon fill="white" stroke="#666666" points="341,-24.5 262,-24.5 262,-5.5 341,-5.5 341,-24.5"/>
<text text-anchor="middle" x="301.5" y="-12.5" font-family="Helvetica,sans-Serif" font-size="10.00">src/trace.cpp</text>
</a>
</g>
</g>
<!-- Node5&#45;&gt;Node7 -->
<g id="edge6_Node000005_Node000007" class="edge">
<title>Node5&#45;&gt;Node7</title>
<g id="a_edge6_Node000005_Node000007"><a xlink:title=" ">
<path fill="none" stroke="#63b8ff" d="M253.82,-58.91C266.01,-47.94 281.87,-33.67 291.87,-24.67"/>
<polygon fill="#63b8ff" stroke="#63b8ff" points="251.18,-56.58 246.09,-65.87 255.87,-61.78 251.18,-56.58"/>
</a>
</g>
</g>
</g>
</svg>
