<?xml version="1.0" encoding="UTF-8" standalone="no"?>
<!DOCTYPE svg PUBLIC "-//W3C//DTD SVG 1.1//EN"
 "http://www.w3.org/Graphics/SVG/1.1/DTD/svg11.dtd">
<!-- Generated by graphviz version 2.43.0 (0)
 -->
<!-- Title: include/guanaqo/linalg/eigen/sparse.hpp Pages: 1 -->
<svg width="436pt" height="203pt"
 viewBox="0.00 0.00 436.00 203.00" xmlns="http://www.w3.org/2000/svg" xmlns:xlink="http://www.w3.org/1999/xlink">
<g id="graph0" class="graph" transform="scale(1 1) rotate(0) translate(4 199)">
<title>include/guanaqo/linalg/eigen/sparse.hpp</title>
<!-- Node1 -->
<g id="Node000001" class="node">
<title>Node1</title>
<g id="a_Node000001"><a xlink:title="Eigen interop for sparse matrices.">
<polygon fill="#999999" stroke="#666666" points="384.5,-195 257.5,-195 257.5,-165 384.5,-165 384.5,-195"/>
<text text-anchor="start" x="265.5" y="-183" font-family="Helvetica,sans-Serif" font-size="10.00">include/guanaqo/linalg</text>
<text text-anchor="middle" x="321" y="-172" font-family="Helvetica,sans-Serif" font-size="10.00">/eigen/sparse.hpp</text>
</a>
</g>
</g>
<!-- Node2 -->
<g id="Node000002" class="node">
<title>Node2</title>
<g id="a_Node000002"><a xlink:href="sparsity_8hpp.html" target="_top" xlink:title="Sparse and dense sparsity descriptors.">
<polygon fill="white" stroke="#666666" points="330,-129 180,-129 180,-110 330,-110 330,-129"/>
<text text-anchor="middle" x="255" y="-117" font-family="Helvetica,sans-Serif" font-size="10.00">guanaqo/linalg/sparsity.hpp</text>
</a>
</g>
</g>
<!-- Node1&#45;&gt;Node2 -->
<g id="edge1_Node000001_Node000002" class="edge">
<title>Node1&#45;&gt;Node2</title>
<g id="a_edge1_Node000001_Node000002"><a xlink:title=" ">
<path fill="none" stroke="#63b8ff" d="M305.02,-164.84C295.25,-156.17 282.73,-145.08 272.66,-136.15"/>
<polygon fill="#63b8ff" stroke="#63b8ff" points="274.69,-133.28 264.89,-129.27 270.05,-138.52 274.69,-133.28"/>
</a>
</g>
</g>
<!-- Node9 -->
<g id="Node000009" class="node">
<title>Node9</title>
<g id="a_Node000009"><a xlink:title=" ">
<polygon fill="#e0e0e0" stroke="#999999" points="428,-129 348,-129 348,-110 428,-110 428,-129"/>
<text text-anchor="middle" x="388" y="-117" font-family="Helvetica,sans-Serif" font-size="10.00">Eigen/Sparse</text>
</a>
</g>
</g>
<!-- Node1&#45;&gt;Node9 -->
<g id="edge8_Node000001_Node000009" class="edge">
<title>Node1&#45;&gt;Node9</title>
<g id="a_edge8_Node000001_Node000009"><a xlink:title=" ">
<path fill="none" stroke="#63b8ff" d="M337.22,-164.84C347.24,-156.09 360.11,-144.85 370.38,-135.88"/>
<polygon fill="#63b8ff" stroke="#63b8ff" points="372.73,-138.48 377.96,-129.27 368.13,-133.21 372.73,-138.48"/>
</a>
</g>
</g>
<!-- Node3 -->
<g id="Node000003" class="node">
<title>Node3</title>
<g id="a_Node000003"><a xlink:href="config_8hpp.html" target="_top" xlink:title="Common linear algebra index types.">
<polygon fill="white" stroke="#666666" points="142,-74 0,-74 0,-55 142,-55 142,-74"/>
<text text-anchor="middle" x="71" y="-62" font-family="Helvetica,sans-Serif" font-size="10.00">guanaqo/linalg/config.hpp</text>
</a>
</g>
</g>
<!-- Node2&#45;&gt;Node3 -->
<g id="edge2_Node000002_Node000003" class="edge">
<title>Node2&#45;&gt;Node3</title>
<g id="a_edge2_Node000002_Node000003"><a xlink:title=" ">
<path fill="none" stroke="#63b8ff" d="M225.44,-109.98C194.28,-101.01 145.03,-86.82 110.54,-76.89"/>
<polygon fill="#63b8ff" stroke="#63b8ff" points="111.37,-73.49 100.79,-74.08 109.43,-80.21 111.37,-73.49"/>
</a>
</g>
</g>
<!-- Node5 -->
<g id="Node000005" class="node">
<title>Node5</title>
<g id="a_Node000005"><a xlink:title=" ">
<polygon fill="#e0e0e0" stroke="#999999" points="212,-74 160,-74 160,-55 212,-55 212,-74"/>
<text text-anchor="middle" x="186" y="-62" font-family="Helvetica,sans-Serif" font-size="10.00">cassert</text>
</a>
</g>
</g>
<!-- Node2&#45;&gt;Node5 -->
<g id="edge4_Node000002_Node000005" class="edge">
<title>Node2&#45;&gt;Node5</title>
<g id="a_edge4_Node000002_Node000005"><a xlink:title=" ">
<path fill="none" stroke="#63b8ff" d="M243.91,-109.98C233.51,-102 217.74,-89.88 205.28,-80.31"/>
<polygon fill="#63b8ff" stroke="#63b8ff" points="207.35,-77.49 197.29,-74.17 203.09,-83.04 207.35,-77.49"/>
</a>
</g>
</g>
<!-- Node6 -->
<g id="Node000006" class="node">
<title>Node6</title>
<g id="a_Node000006"><a xlink:title=" ">
<polygon fill="#e0e0e0" stroke="#999999" points="280,-74 230,-74 230,-55 280,-55 280,-74"/>
<text text-anchor="middle" x="255" y="-62" font-family="Helvetica,sans-Serif" font-size="10.00">cstdint</text>
</a>
</g>
</g>
<!-- Node2&#45;&gt;Node6 -->
<g id="edge5_Node000002_Node000006" class="edge">
<title>Node2&#45;&gt;Node6</title>
<g id="a_edge5_Node000002_Node000006"><a xlink:title=" ">
<path fill="none" stroke="#63b8ff" d="M255,-109.75C255,-102.8 255,-92.85 255,-84.13"/>
<polygon fill="#63b8ff" stroke="#63b8ff" points="258.5,-84.09 255,-74.09 251.5,-84.09 258.5,-84.09"/>
</a>
</g>
</g>
<!-- Node7 -->
<g id="Node000007" class="node">
<title>Node7</title>
<g id="a_Node000007"><a xlink:title=" ">
<polygon fill="#e0e0e0" stroke="#999999" points="338,-74 298,-74 298,-55 338,-55 338,-74"/>
<text text-anchor="middle" x="318" y="-62" font-family="Helvetica,sans-Serif" font-size="10.00">span</text>
</a>
</g>
</g>
<!-- Node2&#45;&gt;Node7 -->
<g id="edge6_Node000002_Node000007" class="edge">
<title>Node2&#45;&gt;Node7</title>
<g id="a_edge6_Node000002_Node000007"><a xlink:title=" ">
<path fill="none" stroke="#63b8ff" d="M265.12,-109.98C274.44,-102.15 288.47,-90.34 299.74,-80.86"/>
<polygon fill="#63b8ff" stroke="#63b8ff" points="302.29,-83.29 307.69,-74.17 297.79,-77.93 302.29,-83.29"/>
</a>
</g>
</g>
<!-- Node8 -->
<g id="Node000008" class="node">
<title>Node8</title>
<g id="a_Node000008"><a xlink:title=" ">
<polygon fill="#e0e0e0" stroke="#999999" points="407.5,-74 356.5,-74 356.5,-55 407.5,-55 407.5,-74"/>
<text text-anchor="middle" x="382" y="-62" font-family="Helvetica,sans-Serif" font-size="10.00">variant</text>
</a>
</g>
</g>
<!-- Node2&#45;&gt;Node8 -->
<g id="edge7_Node000002_Node000008" class="edge">
<title>Node2&#45;&gt;Node8</title>
<g id="a_edge7_Node000002_Node000008"><a xlink:title=" ">
<path fill="none" stroke="#63b8ff" d="M275.4,-109.98C296.02,-101.38 328.11,-87.99 351.69,-78.15"/>
<polygon fill="#63b8ff" stroke="#63b8ff" points="353.34,-81.25 361.22,-74.17 350.65,-74.79 353.34,-81.25"/>
</a>
</g>
</g>
<!-- Node4 -->
<g id="Node000004" class="node">
<title>Node4</title>
<g id="a_Node000004"><a xlink:title=" ">
<polygon fill="#e0e0e0" stroke="#999999" points="97.5,-19 44.5,-19 44.5,0 97.5,0 97.5,-19"/>
<text text-anchor="middle" x="71" y="-7" font-family="Helvetica,sans-Serif" font-size="10.00">cstddef</text>
</a>
</g>
</g>
<!-- Node3&#45;&gt;Node4 -->
<g id="edge3_Node000003_Node000004" class="edge">
<title>Node3&#45;&gt;Node4</title>
<g id="a_edge3_Node000003_Node000004"><a xlink:title=" ">
<path fill="none" stroke="#63b8ff" d="M71,-54.75C71,-47.8 71,-37.85 71,-29.13"/>
<polygon fill="#63b8ff" stroke="#63b8ff" points="74.5,-29.09 71,-19.09 67.5,-29.09 74.5,-29.09"/>
</a>
</g>
</g>
</g>
</svg>
