<?xml version="1.0" encoding="UTF-8" standalone="no"?>
<!DOCTYPE svg PUBLIC "-//W3C//DTD SVG 1.1//EN"
 "http://www.w3.org/Graphics/SVG/1.1/DTD/svg11.dtd">
<!-- Generated by graphviz version 2.43.0 (0)
 -->
<!-- Title: guanaqo::MatrixView::outer_size Pages: 1 -->
<svg width="315pt" height="226pt"
 viewBox="0.00 0.00 315.00 226.00" xmlns="http://www.w3.org/2000/svg" xmlns:xlink="http://www.w3.org/1999/xlink">
<g id="graph0" class="graph" transform="scale(1 1) rotate(0) translate(4 222)">
<title>guanaqo::MatrixView::outer_size</title>
<!-- Node1 -->
<g id="Node000001" class="node">
<title>Node1</title>
<g id="a_Node000001"><a xlink:title=" ">
<polygon fill="#999999" stroke="#666666" points="307,-123.5 187,-123.5 187,-93.5 307,-93.5 307,-123.5"/>
<text text-anchor="start" x="195" y="-111.5" font-family="Helvetica,sans-Serif" font-size="10.00">guanaqo::MatrixView</text>
<text text-anchor="middle" x="247" y="-100.5" font-family="Helvetica,sans-Serif" font-size="10.00">::outer_size</text>
</a>
</g>
</g>
<!-- Node2 -->
<g id="Node000002" class="node">
<title>Node2</title>
<g id="a_Node000002"><a xlink:href="structguanaqo_1_1MatrixView.html#a7622c26754662381cf29a7917bb424a4" target="_top" xlink:title=" ">
<polygon fill="white" stroke="#666666" points="150,-218 1,-218 1,-177 150,-177 150,-218"/>
<text text-anchor="start" x="9" y="-206" font-family="Helvetica,sans-Serif" font-size="10.00">guanaqo::MatrixView</text>
<text text-anchor="start" x="9" y="-195" font-family="Helvetica,sans-Serif" font-size="10.00">&lt; T, I, S, StorageOrder</text>
<text text-anchor="middle" x="75.5" y="-184" font-family="Helvetica,sans-Serif" font-size="10.00">::RowMajor &gt;::copy_values</text>
</a>
</g>
</g>
<!-- Node1&#45;&gt;Node2 -->
<g id="edge1_Node000001_Node000002" class="edge">
<title>Node1&#45;&gt;Node2</title>
<g id="a_edge1_Node000001_Node000002"><a xlink:title=" ">
<path fill="none" stroke="#63b8ff" d="M216.33,-129.32C198.02,-141.64 173.75,-157.02 151,-168.5 145.18,-171.44 138.98,-174.28 132.74,-176.95"/>
<polygon fill="#63b8ff" stroke="#63b8ff" points="218.51,-132.07 224.81,-123.55 214.57,-126.28 218.51,-132.07"/>
</a>
</g>
</g>
<!-- Node3 -->
<g id="Node000003" class="node">
<title>Node3</title>
<g id="a_Node000003"><a xlink:href="structguanaqo_1_1MatrixView.html#a90628930116ee78ed8e853b8340129b1" target="_top" xlink:title=" ">
<polygon fill="white" stroke="#666666" points="148.5,-159 2.5,-159 2.5,-118 148.5,-118 148.5,-159"/>
<text text-anchor="start" x="10.5" y="-147" font-family="Helvetica,sans-Serif" font-size="10.00">guanaqo::MatrixView</text>
<text text-anchor="start" x="10.5" y="-136" font-family="Helvetica,sans-Serif" font-size="10.00">&lt; T, I, S, StorageOrder</text>
<text text-anchor="middle" x="75.5" y="-125" font-family="Helvetica,sans-Serif" font-size="10.00">::RowMajor &gt;::operator+=</text>
</a>
</g>
</g>
<!-- Node1&#45;&gt;Node3 -->
<g id="edge2_Node000001_Node000003" class="edge">
<title>Node1&#45;&gt;Node3</title>
<g id="a_edge2_Node000001_Node000003"><a xlink:title=" ">
<path fill="none" stroke="#63b8ff" d="M176.76,-120.76C167.47,-122.4 157.92,-124.09 148.58,-125.74"/>
<polygon fill="#63b8ff" stroke="#63b8ff" points="177.48,-124.18 186.72,-118.99 176.26,-117.29 177.48,-124.18"/>
</a>
</g>
</g>
<!-- Node4 -->
<g id="Node000004" class="node">
<title>Node4</title>
<g id="a_Node000004"><a xlink:href="structguanaqo_1_1MatrixView.html#a237c132f19106752f379975bdbc7f284" target="_top" xlink:title=" ">
<polygon fill="white" stroke="#666666" points="148.5,-100 2.5,-100 2.5,-59 148.5,-59 148.5,-100"/>
<text text-anchor="start" x="10.5" y="-88" font-family="Helvetica,sans-Serif" font-size="10.00">guanaqo::MatrixView</text>
<text text-anchor="start" x="10.5" y="-77" font-family="Helvetica,sans-Serif" font-size="10.00">&lt; T, I, S, StorageOrder</text>
<text text-anchor="middle" x="75.5" y="-66" font-family="Helvetica,sans-Serif" font-size="10.00">::RowMajor &gt;::operator+=</text>
</a>
</g>
</g>
<!-- Node1&#45;&gt;Node4 -->
<g id="edge3_Node000001_Node000004" class="edge">
<title>Node1&#45;&gt;Node4</title>
<g id="a_edge3_Node000001_Node000004"><a xlink:title=" ">
<path fill="none" stroke="#63b8ff" d="M176.76,-96.65C167.47,-95.06 157.92,-93.43 148.58,-91.83"/>
<polygon fill="#63b8ff" stroke="#63b8ff" points="176.27,-100.12 186.72,-98.36 177.45,-93.22 176.27,-100.12"/>
</a>
</g>
</g>
<!-- Node5 -->
<g id="Node000005" class="node">
<title>Node5</title>
<g id="a_Node000005"><a xlink:href="structguanaqo_1_1MatrixView.html#a1f760b1e8661882e21c1a7f58dc79a5a" target="_top" xlink:title=" ">
<polygon fill="white" stroke="#666666" points="151,-41 0,-41 0,0 151,0 151,-41"/>
<text text-anchor="start" x="8" y="-29" font-family="Helvetica,sans-Serif" font-size="10.00">guanaqo::MatrixView</text>
<text text-anchor="start" x="8" y="-18" font-family="Helvetica,sans-Serif" font-size="10.00">&lt; T, I, S, StorageOrder</text>
<text text-anchor="middle" x="75.5" y="-7" font-family="Helvetica,sans-Serif" font-size="10.00">::RowMajor &gt;::set_constant</text>
</a>
</g>
</g>
<!-- Node1&#45;&gt;Node5 -->
<g id="edge4_Node000001_Node000005" class="edge">
<title>Node1&#45;&gt;Node5</title>
<g id="a_edge4_Node000001_Node000005"><a xlink:title=" ">
<path fill="none" stroke="#63b8ff" d="M215.1,-87.84C196.87,-76.11 173.11,-61.61 151,-50.5 144.52,-47.25 137.6,-44.08 130.68,-41.09"/>
<polygon fill="#63b8ff" stroke="#63b8ff" points="213.28,-90.83 223.57,-93.35 217.09,-84.96 213.28,-90.83"/>
</a>
</g>
</g>
</g>
</svg>
