<?xml version="1.0" encoding="UTF-8" standalone="no"?>
<!DOCTYPE svg PUBLIC "-//W3C//DTD SVG 1.1//EN"
 "http://www.w3.org/Graphics/SVG/1.1/DTD/svg11.dtd">
<!-- Generated by graphviz version 2.43.0 (0)
 -->
<!-- Title: guanaqo::MatrixView::right_cols Pages: 1 -->
<svg width="316pt" height="167pt"
 viewBox="0.00 0.00 316.00 167.00" xmlns="http://www.w3.org/2000/svg" xmlns:xlink="http://www.w3.org/1999/xlink">
<g id="graph0" class="graph" transform="scale(1 1) rotate(0) translate(4 163)">
<title>guanaqo::MatrixView::right_cols</title>
<!-- Node1 -->
<g id="Node000001" class="node">
<title>Node1</title>
<g id="a_Node000001"><a xlink:title=" ">
<polygon fill="#999999" stroke="#666666" points="308,-94.5 188,-94.5 188,-64.5 308,-64.5 308,-94.5"/>
<text text-anchor="start" x="196" y="-82.5" font-family="Helvetica,sans-Serif" font-size="10.00">guanaqo::MatrixView</text>
<text text-anchor="middle" x="248" y="-71.5" font-family="Helvetica,sans-Serif" font-size="10.00">::right_cols</text>
</a>
</g>
</g>
<!-- Node2 -->
<g id="Node000002" class="node">
<title>Node2</title>
<g id="a_Node000002"><a xlink:href="structguanaqo_1_1MatrixView.html#a36de178b39d180b4481c644c8b22eeb7" target="_top" xlink:title=" ">
<polygon fill="white" stroke="#666666" points="152,-159 0,-159 0,-118 152,-118 152,-159"/>
<text text-anchor="start" x="8" y="-147" font-family="Helvetica,sans-Serif" font-size="10.00">guanaqo::MatrixView</text>
<text text-anchor="start" x="8" y="-136" font-family="Helvetica,sans-Serif" font-size="10.00">&lt; T, I, S, StorageOrder</text>
<text text-anchor="middle" x="76" y="-125" font-family="Helvetica,sans-Serif" font-size="10.00">::RowMajor &gt;::bottom_right</text>
</a>
</g>
</g>
<!-- Node1&#45;&gt;Node2 -->
<g id="edge1_Node000001_Node000002" class="edge">
<title>Node1&#45;&gt;Node2</title>
<g id="a_edge1_Node000001_Node000002"><a xlink:title=" ">
<path fill="none" stroke="#63b8ff" d="M194.04,-97.88C175.72,-104.24 155.08,-111.4 136.29,-117.92"/>
<polygon fill="#63b8ff" stroke="#63b8ff" points="195.36,-101.13 203.66,-94.54 193.07,-94.51 195.36,-101.13"/>
</a>
</g>
</g>
<!-- Node3 -->
<g id="Node000003" class="node">
<title>Node3</title>
<g id="a_Node000003"><a xlink:href="structguanaqo_1_1MatrixView.html#a1c2cbf48feb55d98d7664b8f520c1436" target="_top" xlink:title=" ">
<polygon fill="white" stroke="#666666" points="149.5,-100 2.5,-100 2.5,-59 149.5,-59 149.5,-100"/>
<text text-anchor="start" x="10.5" y="-88" font-family="Helvetica,sans-Serif" font-size="10.00">guanaqo::MatrixView</text>
<text text-anchor="start" x="10.5" y="-77" font-family="Helvetica,sans-Serif" font-size="10.00">&lt; T, I, S, StorageOrder</text>
<text text-anchor="middle" x="76" y="-66" font-family="Helvetica,sans-Serif" font-size="10.00">::RowMajor &gt;::middle_cols</text>
</a>
</g>
</g>
<!-- Node1&#45;&gt;Node3 -->
<g id="edge2_Node000001_Node000003" class="edge">
<title>Node1&#45;&gt;Node3</title>
<g id="a_edge2_Node000001_Node000003"><a xlink:title=" ">
<path fill="none" stroke="#63b8ff" d="M177.34,-79.5C168.19,-79.5 158.79,-79.5 149.59,-79.5"/>
<polygon fill="#63b8ff" stroke="#63b8ff" points="177.54,-83 187.54,-79.5 177.54,-76 177.54,-83"/>
</a>
</g>
</g>
<!-- Node4 -->
<g id="Node000004" class="node">
<title>Node4</title>
<g id="a_Node000004"><a xlink:href="structguanaqo_1_1MatrixView.html#a49a6536416fba2d3c8a5792aafd2cd5f" target="_top" xlink:title=" ">
<polygon fill="white" stroke="#666666" points="142,-41 10,-41 10,0 142,0 142,-41"/>
<text text-anchor="start" x="18" y="-29" font-family="Helvetica,sans-Serif" font-size="10.00">guanaqo::MatrixView</text>
<text text-anchor="start" x="18" y="-18" font-family="Helvetica,sans-Serif" font-size="10.00">&lt; T, I, S, StorageOrder</text>
<text text-anchor="middle" x="76" y="-7" font-family="Helvetica,sans-Serif" font-size="10.00">::RowMajor &gt;::top_right</text>
</a>
</g>
</g>
<!-- Node1&#45;&gt;Node4 -->
<g id="edge3_Node000001_Node000004" class="edge">
<title>Node1&#45;&gt;Node4</title>
<g id="a_edge3_Node000001_Node000004"><a xlink:title=" ">
<path fill="none" stroke="#63b8ff" d="M194.04,-61.12C175.72,-54.76 155.08,-47.6 136.29,-41.08"/>
<polygon fill="#63b8ff" stroke="#63b8ff" points="193.07,-64.49 203.66,-64.46 195.36,-57.87 193.07,-64.49"/>
</a>
</g>
</g>
</g>
</svg>
