<?xml version="1.0" encoding="UTF-8" standalone="no"?>
<!DOCTYPE svg PUBLIC "-//W3C//DTD SVG 1.1//EN"
 "http://www.w3.org/Graphics/SVG/1.1/DTD/svg11.dtd">
<!-- Generated by graphviz version 2.43.0 (0)
 -->
<!-- Title: guanaqo::TypeErased&lt; VTable, Allocator, SmallBufferSize &gt;::Deallocator Pages: 1 -->
<svg width="203pt" height="1329pt"
 viewBox="0.00 0.00 203.00 1329.00" xmlns="http://www.w3.org/2000/svg" xmlns:xlink="http://www.w3.org/1999/xlink">
<g id="graph0" class="graph" transform="scale(1 1) rotate(0) translate(4 1325)">
<title>guanaqo::TypeErased&lt; VTable, Allocator, SmallBufferSize &gt;::Deallocator</title>
<!-- Node1 -->
<g id="Node000001" class="node">
<title>Node1</title>
<g id="a_Node000001"><a xlink:title="Deallocates the storage when destroyed.">
<polygon fill="#999999" stroke="transparent" points="164,-161 0,-161 0,0 164,0 164,-161"/>
<text text-anchor="start" x="5" y="-148.5" font-family="Helvetica,sans-Serif" font-size="10.00">guanaqo::TypeErased</text>
<text text-anchor="start" x="5" y="-137.5" font-family="Helvetica,sans-Serif" font-size="10.00">&lt; VTable, Allocator,</text>
<text text-anchor="start" x="5" y="-126.5" font-family="Helvetica,sans-Serif" font-size="10.00"> SmallBufferSize &gt;::Deallocator</text>
<text text-anchor="start" x="80" y="-111.5" font-family="Helvetica,sans-Serif" font-size="10.00"> </text>
<text text-anchor="start" x="21.5" y="-96.5" font-family="Helvetica,sans-Serif" font-size="10.00">+</text>
<text text-anchor="start" x="52" y="-96.5" font-family="Helvetica,sans-Serif" font-size="10.00">Deallocator()</text>
<text text-anchor="start" x="21.5" y="-81.5" font-family="Helvetica,sans-Serif" font-size="10.00">+</text>
<text text-anchor="start" x="52" y="-81.5" font-family="Helvetica,sans-Serif" font-size="10.00">Deallocator()</text>
<text text-anchor="start" x="21.5" y="-66.5" font-family="Helvetica,sans-Serif" font-size="10.00">+</text>
<text text-anchor="start" x="52" y="-66.5" font-family="Helvetica,sans-Serif" font-size="10.00">operator=()</text>
<text text-anchor="start" x="21.5" y="-51.5" font-family="Helvetica,sans-Serif" font-size="10.00">+</text>
<text text-anchor="start" x="52" y="-51.5" font-family="Helvetica,sans-Serif" font-size="10.00">Deallocator()</text>
<text text-anchor="start" x="21.5" y="-36.5" font-family="Helvetica,sans-Serif" font-size="10.00">+</text>
<text text-anchor="start" x="52" y="-36.5" font-family="Helvetica,sans-Serif" font-size="10.00">operator=()</text>
<text text-anchor="start" x="21.5" y="-21.5" font-family="Helvetica,sans-Serif" font-size="10.00">+</text>
<text text-anchor="start" x="52" y="-21.5" font-family="Helvetica,sans-Serif" font-size="10.00">release()</text>
<text text-anchor="start" x="21.5" y="-6.5" font-family="Helvetica,sans-Serif" font-size="10.00">+</text>
<text text-anchor="start" x="52" y="-6.5" font-family="Helvetica,sans-Serif" font-size="10.00">~Deallocator()</text>
<polygon fill="#666666" stroke="#666666" points="0,-121.5 0,-121.5 164,-121.5 164,-121.5 0,-121.5"/>
<polygon fill="#666666" stroke="#666666" points="0,-106.5 0,-106.5 164,-106.5 164,-106.5 0,-106.5"/>
<polygon fill="none" stroke="#666666" points="0,0 0,-161 164,-161 164,0 0,0"/>
</a>
</g>
</g>
<!-- Node2 -->
<g id="Node000002" class="node">
<title>Node2</title>
<g id="a_Node000002"><a xlink:href="classguanaqo_1_1TypeErased.html" target="_top" xlink:title="Class for polymorphism through type erasure.">
<polygon fill="white" stroke="transparent" points="159,-1001 5,-1001 5,-214 159,-214 159,-1001"/>
<text text-anchor="start" x="30" y="-988.5" font-family="Helvetica,sans-Serif" font-size="10.00">guanaqo::TypeErased</text>
<text text-anchor="start" x="30" y="-977.5" font-family="Helvetica,sans-Serif" font-size="10.00">&lt; VTable, Allocator,</text>
<text text-anchor="start" x="36" y="-966.5" font-family="Helvetica,sans-Serif" font-size="10.00"> SmallBufferSize &gt;</text>
<text text-anchor="start" x="9" y="-951.5" font-family="Helvetica,sans-Serif" font-size="10.00">+</text>
<text text-anchor="start" x="22" y="-951.5" font-family="Helvetica,sans-Serif" font-size="10.00">small_buffer_size</text>
<text text-anchor="start" x="9" y="-936.5" font-family="Helvetica,sans-Serif" font-size="10.00">#</text>
<text text-anchor="start" x="22" y="-936.5" font-family="Helvetica,sans-Serif" font-size="10.00">self</text>
<text text-anchor="start" x="9" y="-921.5" font-family="Helvetica,sans-Serif" font-size="10.00">#</text>
<text text-anchor="start" x="22" y="-921.5" font-family="Helvetica,sans-Serif" font-size="10.00">size</text>
<text text-anchor="start" x="9" y="-906.5" font-family="Helvetica,sans-Serif" font-size="10.00">#</text>
<text text-anchor="start" x="22" y="-906.5" font-family="Helvetica,sans-Serif" font-size="10.00">invalid_size</text>
<text text-anchor="start" x="9" y="-891.5" font-family="Helvetica,sans-Serif" font-size="10.00">#</text>
<text text-anchor="start" x="22" y="-891.5" font-family="Helvetica,sans-Serif" font-size="10.00">mut_ref_size</text>
<text text-anchor="start" x="9" y="-876.5" font-family="Helvetica,sans-Serif" font-size="10.00">#</text>
<text text-anchor="start" x="22" y="-876.5" font-family="Helvetica,sans-Serif" font-size="10.00">const_ref_size</text>
<text text-anchor="start" x="11.5" y="-861.5" font-family="Helvetica,sans-Serif" font-size="10.00">&#45;</text>
<text text-anchor="start" x="22" y="-861.5" font-family="Helvetica,sans-Serif" font-size="10.00">small_buffer</text>
<text text-anchor="start" x="11.5" y="-846.5" font-family="Helvetica,sans-Serif" font-size="10.00">&#45;</text>
<text text-anchor="start" x="22" y="-846.5" font-family="Helvetica,sans-Serif" font-size="10.00">allocator</text>
<text text-anchor="start" x="11.5" y="-831.5" font-family="Helvetica,sans-Serif" font-size="10.00">&#45;</text>
<text text-anchor="start" x="22" y="-831.5" font-family="Helvetica,sans-Serif" font-size="10.00">no_child_of_ours</text>
<text text-anchor="start" x="9" y="-816.5" font-family="Helvetica,sans-Serif" font-size="10.00">+</text>
<text text-anchor="start" x="22" y="-816.5" font-family="Helvetica,sans-Serif" font-size="10.00">TypeErased()</text>
<text text-anchor="start" x="9" y="-801.5" font-family="Helvetica,sans-Serif" font-size="10.00">+</text>
<text text-anchor="start" x="22" y="-801.5" font-family="Helvetica,sans-Serif" font-size="10.00">TypeErased()</text>
<text text-anchor="start" x="9" y="-786.5" font-family="Helvetica,sans-Serif" font-size="10.00">+</text>
<text text-anchor="start" x="22" y="-786.5" font-family="Helvetica,sans-Serif" font-size="10.00">TypeErased()</text>
<text text-anchor="start" x="9" y="-771.5" font-family="Helvetica,sans-Serif" font-size="10.00">+</text>
<text text-anchor="start" x="22" y="-771.5" font-family="Helvetica,sans-Serif" font-size="10.00">TypeErased()</text>
<text text-anchor="start" x="9" y="-756.5" font-family="Helvetica,sans-Serif" font-size="10.00">+</text>
<text text-anchor="start" x="22" y="-756.5" font-family="Helvetica,sans-Serif" font-size="10.00">TypeErased()</text>
<text text-anchor="start" x="9" y="-741.5" font-family="Helvetica,sans-Serif" font-size="10.00">+</text>
<text text-anchor="start" x="22" y="-741.5" font-family="Helvetica,sans-Serif" font-size="10.00">operator=()</text>
<text text-anchor="start" x="9" y="-726.5" font-family="Helvetica,sans-Serif" font-size="10.00">+</text>
<text text-anchor="start" x="22" y="-726.5" font-family="Helvetica,sans-Serif" font-size="10.00">TypeErased()</text>
<text text-anchor="start" x="9" y="-711.5" font-family="Helvetica,sans-Serif" font-size="10.00">+</text>
<text text-anchor="start" x="22" y="-711.5" font-family="Helvetica,sans-Serif" font-size="10.00">TypeErased()</text>
<text text-anchor="start" x="9" y="-696.5" font-family="Helvetica,sans-Serif" font-size="10.00">+</text>
<text text-anchor="start" x="22" y="-696.5" font-family="Helvetica,sans-Serif" font-size="10.00">TypeErased()</text>
<text text-anchor="start" x="9" y="-681.5" font-family="Helvetica,sans-Serif" font-size="10.00">+</text>
<text text-anchor="start" x="22" y="-681.5" font-family="Helvetica,sans-Serif" font-size="10.00">operator=()</text>
<text text-anchor="start" x="9" y="-666.5" font-family="Helvetica,sans-Serif" font-size="10.00">+</text>
<text text-anchor="start" x="22" y="-666.5" font-family="Helvetica,sans-Serif" font-size="10.00">~TypeErased()</text>
<text text-anchor="start" x="9" y="-651.5" font-family="Helvetica,sans-Serif" font-size="10.00">+</text>
<text text-anchor="start" x="22" y="-651.5" font-family="Helvetica,sans-Serif" font-size="10.00">TypeErased()</text>
<text text-anchor="start" x="9" y="-636.5" font-family="Helvetica,sans-Serif" font-size="10.00">+</text>
<text text-anchor="start" x="22" y="-636.5" font-family="Helvetica,sans-Serif" font-size="10.00">TypeErased()</text>
<text text-anchor="start" x="9" y="-621.5" font-family="Helvetica,sans-Serif" font-size="10.00">+</text>
<text text-anchor="start" x="22" y="-621.5" font-family="Helvetica,sans-Serif" font-size="10.00">TypeErased()</text>
<text text-anchor="start" x="9" y="-606.5" font-family="Helvetica,sans-Serif" font-size="10.00">+</text>
<text text-anchor="start" x="22" y="-606.5" font-family="Helvetica,sans-Serif" font-size="10.00">TypeErased()</text>
<text text-anchor="start" x="9" y="-591.5" font-family="Helvetica,sans-Serif" font-size="10.00">+</text>
<text text-anchor="start" x="22" y="-591.5" font-family="Helvetica,sans-Serif" font-size="10.00">operator bool()</text>
<text text-anchor="start" x="9" y="-576.5" font-family="Helvetica,sans-Serif" font-size="10.00">+</text>
<text text-anchor="start" x="22" y="-576.5" font-family="Helvetica,sans-Serif" font-size="10.00">owns_referenced_object()</text>
<text text-anchor="start" x="9" y="-561.5" font-family="Helvetica,sans-Serif" font-size="10.00">+</text>
<text text-anchor="start" x="22" y="-561.5" font-family="Helvetica,sans-Serif" font-size="10.00">referenced_object_is</text>
<text text-anchor="start" x="22" y="-550.5" font-family="Helvetica,sans-Serif" font-size="10.00">_const()</text>
<text text-anchor="start" x="9" y="-535.5" font-family="Helvetica,sans-Serif" font-size="10.00">+</text>
<text text-anchor="start" x="22" y="-535.5" font-family="Helvetica,sans-Serif" font-size="10.00">get_allocator()</text>
<text text-anchor="start" x="9" y="-520.5" font-family="Helvetica,sans-Serif" font-size="10.00">+</text>
<text text-anchor="start" x="22" y="-520.5" font-family="Helvetica,sans-Serif" font-size="10.00">type()</text>
<text text-anchor="start" x="9" y="-505.5" font-family="Helvetica,sans-Serif" font-size="10.00">+</text>
<text text-anchor="start" x="22" y="-505.5" font-family="Helvetica,sans-Serif" font-size="10.00">as()</text>
<text text-anchor="start" x="9" y="-490.5" font-family="Helvetica,sans-Serif" font-size="10.00">+</text>
<text text-anchor="start" x="22" y="-490.5" font-family="Helvetica,sans-Serif" font-size="10.00">as()</text>
<text text-anchor="start" x="9" y="-475.5" font-family="Helvetica,sans-Serif" font-size="10.00">+</text>
<text text-anchor="start" x="22" y="-475.5" font-family="Helvetica,sans-Serif" font-size="10.00">as()</text>
<text text-anchor="start" x="9" y="-460.5" font-family="Helvetica,sans-Serif" font-size="10.00">+</text>
<text text-anchor="start" x="22" y="-460.5" font-family="Helvetica,sans-Serif" font-size="10.00">get_pointer()</text>
<text text-anchor="start" x="9" y="-445.5" font-family="Helvetica,sans-Serif" font-size="10.00">+</text>
<text text-anchor="start" x="22" y="-445.5" font-family="Helvetica,sans-Serif" font-size="10.00">get_const_pointer()</text>
<text text-anchor="start" x="9" y="-430.5" font-family="Helvetica,sans-Serif" font-size="10.00">+</text>
<text text-anchor="start" x="22" y="-430.5" font-family="Helvetica,sans-Serif" font-size="10.00">make()</text>
<text text-anchor="start" x="9" y="-415.5" font-family="Helvetica,sans-Serif" font-size="10.00">+</text>
<text text-anchor="start" x="22" y="-415.5" font-family="Helvetica,sans-Serif" font-size="10.00">make()</text>
<text text-anchor="start" x="9" y="-400.5" font-family="Helvetica,sans-Serif" font-size="10.00">#</text>
<text text-anchor="start" x="22" y="-400.5" font-family="Helvetica,sans-Serif" font-size="10.00">construct_inplace()</text>
<text text-anchor="start" x="9" y="-385.5" font-family="Helvetica,sans-Serif" font-size="10.00">#</text>
<text text-anchor="start" x="22" y="-385.5" font-family="Helvetica,sans-Serif" font-size="10.00">call()</text>
<text text-anchor="start" x="9" y="-370.5" font-family="Helvetica,sans-Serif" font-size="10.00">#</text>
<text text-anchor="start" x="22" y="-370.5" font-family="Helvetica,sans-Serif" font-size="10.00">call()</text>
<text text-anchor="start" x="9" y="-355.5" font-family="Helvetica,sans-Serif" font-size="10.00">#</text>
<text text-anchor="start" x="22" y="-355.5" font-family="Helvetica,sans-Serif" font-size="10.00">call()</text>
<text text-anchor="start" x="9" y="-340.5" font-family="Helvetica,sans-Serif" font-size="10.00">#</text>
<text text-anchor="start" x="22" y="-340.5" font-family="Helvetica,sans-Serif" font-size="10.00">call()</text>
<text text-anchor="start" x="9" y="-325.5" font-family="Helvetica,sans-Serif" font-size="10.00">#</text>
<text text-anchor="start" x="22" y="-325.5" font-family="Helvetica,sans-Serif" font-size="10.00">call()</text>
<text text-anchor="start" x="9" y="-310.5" font-family="Helvetica,sans-Serif" font-size="10.00">#</text>
<text text-anchor="start" x="22" y="-310.5" font-family="Helvetica,sans-Serif" font-size="10.00">call()</text>
<text text-anchor="start" x="9" y="-295.5" font-family="Helvetica,sans-Serif" font-size="10.00">#</text>
<text text-anchor="start" x="22" y="-295.5" font-family="Helvetica,sans-Serif" font-size="10.00">size_indicates_ownership()</text>
<text text-anchor="start" x="9" y="-280.5" font-family="Helvetica,sans-Serif" font-size="10.00">#</text>
<text text-anchor="start" x="22" y="-280.5" font-family="Helvetica,sans-Serif" font-size="10.00">size_indicates_const()</text>
<text text-anchor="start" x="11.5" y="-265.5" font-family="Helvetica,sans-Serif" font-size="10.00">&#45;</text>
<text text-anchor="start" x="22" y="-265.5" font-family="Helvetica,sans-Serif" font-size="10.00">allocate()</text>
<text text-anchor="start" x="11.5" y="-250.5" font-family="Helvetica,sans-Serif" font-size="10.00">&#45;</text>
<text text-anchor="start" x="22" y="-250.5" font-family="Helvetica,sans-Serif" font-size="10.00">deallocate()</text>
<text text-anchor="start" x="11.5" y="-235.5" font-family="Helvetica,sans-Serif" font-size="10.00">&#45;</text>
<text text-anchor="start" x="22" y="-235.5" font-family="Helvetica,sans-Serif" font-size="10.00">cleanup()</text>
<text text-anchor="start" x="11.5" y="-220.5" font-family="Helvetica,sans-Serif" font-size="10.00">&#45;</text>
<text text-anchor="start" x="22" y="-220.5" font-family="Helvetica,sans-Serif" font-size="10.00">do_copy_assign()</text>
<polygon fill="#666666" stroke="#666666" points="5,-961.5 5,-961.5 159,-961.5 159,-961.5 5,-961.5"/>
<polygon fill="#666666" stroke="#666666" points="5,-826.5 5,-826.5 20,-826.5 20,-826.5 5,-826.5"/>
<polygon fill="#666666" stroke="#666666" points="20,-826.5 20,-826.5 159,-826.5 159,-826.5 20,-826.5"/>
<polygon fill="none" stroke="#666666" points="5,-214 5,-1001 159,-1001 159,-214 5,-214"/>
</a>
</g>
</g>
<!-- Node2&#45;&gt;Node1 -->
<g id="edge1_Node000001_Node000002" class="edge">
<title>Node2&#45;&gt;Node1</title>
<g id="a_edge1_Node000001_Node000002"><a xlink:title=" ">
<path fill="none" stroke="#63b8ff" d="M82,-213.98C82,-199.74 82,-186.18 82,-173.55"/>
<polygon fill="none" stroke="#63b8ff" points="82,-173.24 78,-167.24 82,-161.24 86,-167.24 82,-173.24"/>
</a>
</g>
<text text-anchor="start" x="85" y="-184.5" font-family="Helvetica,sans-Serif" font-size="10.00" fill="grey">+instance</text>
</g>
<!-- Node3 -->
<g id="Node000003" class="node">
<title>Node3</title>
<g id="a_Node000003"><a xlink:href="structguanaqo_1_1BasicVTable.html" target="_top" xlink:title="Struct that stores pointers to functions to copy, move or destroy a polymorphic object.">
<polygon fill="white" stroke="transparent" points="140.5,-1163 23.5,-1163 23.5,-1054 140.5,-1054 140.5,-1163"/>
<text text-anchor="start" x="29" y="-1150.5" font-family="Helvetica,sans-Serif" font-size="10.00">guanaqo::BasicVTable</text>
<text text-anchor="start" x="35" y="-1135.5" font-family="Helvetica,sans-Serif" font-size="10.00">+</text>
<text text-anchor="start" x="55" y="-1135.5" font-family="Helvetica,sans-Serif" font-size="10.00">type</text>
<text text-anchor="start" x="35" y="-1120.5" font-family="Helvetica,sans-Serif" font-size="10.00">+</text>
<text text-anchor="start" x="55" y="-1120.5" font-family="Helvetica,sans-Serif" font-size="10.00">BasicVTable()</text>
<text text-anchor="start" x="35" y="-1105.5" font-family="Helvetica,sans-Serif" font-size="10.00">+</text>
<text text-anchor="start" x="55" y="-1105.5" font-family="Helvetica,sans-Serif" font-size="10.00">BasicVTable()</text>
<text text-anchor="start" x="35" y="-1090.5" font-family="Helvetica,sans-Serif" font-size="10.00">+</text>
<text text-anchor="start" x="55" y="-1090.5" font-family="Helvetica,sans-Serif" font-size="10.00">copy()</text>
<text text-anchor="start" x="35" y="-1075.5" font-family="Helvetica,sans-Serif" font-size="10.00">+</text>
<text text-anchor="start" x="55" y="-1075.5" font-family="Helvetica,sans-Serif" font-size="10.00">move()</text>
<text text-anchor="start" x="35" y="-1060.5" font-family="Helvetica,sans-Serif" font-size="10.00">+</text>
<text text-anchor="start" x="55" y="-1060.5" font-family="Helvetica,sans-Serif" font-size="10.00">destroy()</text>
<polygon fill="#666666" stroke="#666666" points="24,-1145.5 24,-1145.5 141,-1145.5 141,-1145.5 24,-1145.5"/>
<polygon fill="#666666" stroke="#666666" points="24,-1130.5 24,-1130.5 53,-1130.5 53,-1130.5 24,-1130.5"/>
<polygon fill="#666666" stroke="#666666" points="53,-1130.5 53,-1130.5 141,-1130.5 141,-1130.5 53,-1130.5"/>
<polygon fill="none" stroke="#666666" points="23.5,-1054 23.5,-1163 140.5,-1163 140.5,-1054 23.5,-1054"/>
</a>
</g>
</g>
<!-- Node3&#45;&gt;Node2 -->
<g id="edge2_Node000002_Node000003" class="edge">
<title>Node3&#45;&gt;Node2</title>
<g id="a_edge2_Node000002_Node000003"><a xlink:title=" ">
<path fill="none" stroke="#63b8ff" d="M82,-1053.62C82,-1041.69 82,-1028.16 82,-1013.43"/>
<polygon fill="none" stroke="#63b8ff" points="82,-1013.36 78,-1007.36 82,-1001.36 86,-1007.36 82,-1013.36"/>
</a>
</g>
<text text-anchor="start" x="85" y="-1024.5" font-family="Helvetica,sans-Serif" font-size="10.00" fill="grey">#vtable</text>
</g>
<!-- Node4 -->
<g id="Node000004" class="node">
<title>Node4</title>
<g id="a_Node000004"><a xlink:href="group__type__erasure.html#structguanaqo_1_1CopyMoveDestroyVTable" target="_top" xlink:title=" ">
<polygon fill="white" stroke="transparent" points="156.5,-1321 7.5,-1321 7.5,-1231 156.5,-1231 156.5,-1321"/>
<text text-anchor="start" x="13" y="-1309" font-family="Helvetica,sans-Serif" font-size="10.00">guanaqo::CopyMoveDestroy</text>
<text text-anchor="start" x="66" y="-1298" font-family="Helvetica,sans-Serif" font-size="10.00">VTable</text>
<text text-anchor="start" x="34.5" y="-1283" font-family="Helvetica,sans-Serif" font-size="10.00">+</text>
<text text-anchor="start" x="70" y="-1283" font-family="Helvetica,sans-Serif" font-size="10.00">copy</text>
<text text-anchor="start" x="34.5" y="-1268" font-family="Helvetica,sans-Serif" font-size="10.00">+</text>
<text text-anchor="start" x="70" y="-1268" font-family="Helvetica,sans-Serif" font-size="10.00">move</text>
<text text-anchor="start" x="34.5" y="-1253" font-family="Helvetica,sans-Serif" font-size="10.00">+</text>
<text text-anchor="start" x="70" y="-1253" font-family="Helvetica,sans-Serif" font-size="10.00">destroy</text>
<text text-anchor="start" x="80.5" y="-1238" font-family="Helvetica,sans-Serif" font-size="10.00"> </text>
<polygon fill="#666666" stroke="#666666" points="8,-1293 8,-1293 157,-1293 157,-1293 8,-1293"/>
<polygon fill="#666666" stroke="#666666" points="8,-1248 8,-1248 68,-1248 68,-1248 8,-1248"/>
<polygon fill="#666666" stroke="#666666" points="68,-1248 68,-1248 157,-1248 157,-1248 68,-1248"/>
<polygon fill="none" stroke="#666666" points="7.5,-1231 7.5,-1321 156.5,-1321 156.5,-1231 7.5,-1231"/>
</a>
</g>
</g>
<!-- Node4&#45;&gt;Node3 -->
<g id="edge3_Node000003_Node000004" class="edge">
<title>Node4&#45;&gt;Node3</title>
<g id="a_edge3_Node000003_Node000004"><a xlink:title=" ">
<path fill="none" stroke="#63b8ff" d="M82,-1230.65C82,-1213.61 82,-1193.77 82,-1175.14"/>
<polygon fill="none" stroke="#63b8ff" points="82,-1175.12 78,-1169.12 82,-1163.12 86,-1169.12 82,-1175.12"/>
</a>
</g>
<text text-anchor="start" x="85.5" y="-1202" font-family="Helvetica,sans-Serif" font-size="10.00" fill="grey">+copy_move_destroy</text>
<text text-anchor="start" x="85.5" y="-1187" font-family="Helvetica,sans-Serif" font-size="10.00" fill="grey">  _functions</text>
</g>
</g>
</svg>
