<?xml version="1.0" encoding="UTF-8" standalone="no"?>
<!DOCTYPE svg PUBLIC "-//W3C//DTD SVG 1.1//EN"
 "http://www.w3.org/Graphics/SVG/1.1/DTD/svg11.dtd">
<!-- Generated by graphviz version 2.43.0 (0)
 -->
<!-- Title: guanaqo::MatrixView::row_stride Pages: 1 -->
<svg width="316pt" height="167pt"
 viewBox="0.00 0.00 316.00 167.00" xmlns="http://www.w3.org/2000/svg" xmlns:xlink="http://www.w3.org/1999/xlink">
<g id="graph0" class="graph" transform="scale(1 1) rotate(0) translate(4 163)">
<title>guanaqo::MatrixView::row_stride</title>
<!-- Node1 -->
<g id="Node000001" class="node">
<title>Node1</title>
<g id="a_Node000001"><a xlink:title=" ">
<polygon fill="#999999" stroke="#666666" points="308,-94.5 188,-94.5 188,-64.5 308,-64.5 308,-94.5"/>
<text text-anchor="start" x="196" y="-82.5" font-family="Helvetica,sans-Serif" font-size="10.00">guanaqo::MatrixView</text>
<text text-anchor="middle" x="248" y="-71.5" font-family="Helvetica,sans-Serif" font-size="10.00">::row_stride</text>
</a>
</g>
</g>
<!-- Node2 -->
<g id="Node000002" class="node">
<title>Node2</title>
<g id="a_Node000002"><a xlink:href="structguanaqo_1_1MatrixView.html#a7afb771b174bce21c69be73008e7ae34" target="_top" xlink:title=" ">
<polygon fill="white" stroke="#666666" points="152,-159 0,-159 0,-118 152,-118 152,-159"/>
<text text-anchor="start" x="8" y="-147" font-family="Helvetica,sans-Serif" font-size="10.00">guanaqo::MatrixView</text>
<text text-anchor="start" x="8" y="-136" font-family="Helvetica,sans-Serif" font-size="10.00">&lt; T, I, S, StorageOrder</text>
<text text-anchor="middle" x="76" y="-125" font-family="Helvetica,sans-Serif" font-size="10.00">::RowMajor &gt;::bottom_rows</text>
</a>
</g>
</g>
<!-- Node1&#45;&gt;Node2 -->
<g id="edge1_Node000001_Node000002" class="edge">
<title>Node1&#45;&gt;Node2</title>
<g id="a_edge1_Node000001_Node000002"><a xlink:title=" ">
<path fill="none" stroke="#63b8ff" d="M194.04,-97.88C175.72,-104.24 155.08,-111.4 136.29,-117.92"/>
<polygon fill="#63b8ff" stroke="#63b8ff" points="195.36,-101.13 203.66,-94.54 193.07,-94.51 195.36,-101.13"/>
</a>
</g>
</g>
<!-- Node3 -->
<g id="Node000003" class="node">
<title>Node3</title>
<g id="a_Node000003"><a xlink:href="structguanaqo_1_1MatrixView.html#a8bed907c429e251bdec7952447e82a1f" target="_top" xlink:title=" ">
<polygon fill="white" stroke="#666666" points="144.5,-100 7.5,-100 7.5,-59 144.5,-59 144.5,-100"/>
<text text-anchor="start" x="15.5" y="-88" font-family="Helvetica,sans-Serif" font-size="10.00">guanaqo::MatrixView</text>
<text text-anchor="start" x="15.5" y="-77" font-family="Helvetica,sans-Serif" font-size="10.00">&lt; T, I, S, StorageOrder</text>
<text text-anchor="middle" x="76" y="-66" font-family="Helvetica,sans-Serif" font-size="10.00">::RowMajor &gt;::operator()</text>
</a>
</g>
</g>
<!-- Node1&#45;&gt;Node3 -->
<g id="edge2_Node000001_Node000003" class="edge">
<title>Node1&#45;&gt;Node3</title>
<g id="a_edge2_Node000001_Node000003"><a xlink:title=" ">
<path fill="none" stroke="#63b8ff" d="M177.3,-79.5C166.49,-79.5 155.33,-79.5 144.57,-79.5"/>
<polygon fill="#63b8ff" stroke="#63b8ff" points="177.54,-83 187.54,-79.5 177.54,-76 177.54,-83"/>
</a>
</g>
</g>
<!-- Node4 -->
<g id="Node000004" class="node">
<title>Node4</title>
<g id="a_Node000004"><a xlink:href="structguanaqo_1_1MatrixView.html#aee8d2b0ca6cdb39c6fa090123c5b64d6" target="_top" xlink:title=" ">
<polygon fill="white" stroke="#666666" points="151.5,-41 0.5,-41 0.5,0 151.5,0 151.5,-41"/>
<text text-anchor="start" x="8.5" y="-29" font-family="Helvetica,sans-Serif" font-size="10.00">guanaqo::MatrixView</text>
<text text-anchor="start" x="8.5" y="-18" font-family="Helvetica,sans-Serif" font-size="10.00">&lt; T, I, S, StorageOrder</text>
<text text-anchor="middle" x="76" y="-7" font-family="Helvetica,sans-Serif" font-size="10.00">::RowMajor &gt;::set_constant</text>
</a>
</g>
</g>
<!-- Node1&#45;&gt;Node4 -->
<g id="edge3_Node000001_Node000004" class="edge">
<title>Node1&#45;&gt;Node4</title>
<g id="a_edge3_Node000001_Node000004"><a xlink:title=" ">
<path fill="none" stroke="#63b8ff" d="M194.04,-61.12C175.72,-54.76 155.08,-47.6 136.29,-41.08"/>
<polygon fill="#63b8ff" stroke="#63b8ff" points="193.07,-64.49 203.66,-64.46 195.36,-57.87 193.07,-64.49"/>
</a>
</g>
</g>
</g>
</svg>
