<?xml version="1.0" encoding="UTF-8" standalone="no"?>
<!DOCTYPE svg PUBLIC "-//W3C//DTD SVG 1.1//EN"
 "http://www.w3.org/Graphics/SVG/1.1/DTD/svg11.dtd">
<!-- Generated by graphviz version 2.43.0 (0)
 -->
<!-- Title: guanaqo::MatrixView::col_stride Pages: 1 -->
<svg width="315pt" height="167pt"
 viewBox="0.00 0.00 315.00 167.00" xmlns="http://www.w3.org/2000/svg" xmlns:xlink="http://www.w3.org/1999/xlink">
<g id="graph0" class="graph" transform="scale(1 1) rotate(0) translate(4 163)">
<title>guanaqo::MatrixView::col_stride</title>
<!-- Node1 -->
<g id="Node000001" class="node">
<title>Node1</title>
<g id="a_Node000001"><a xlink:title=" ">
<polygon fill="#999999" stroke="#666666" points="307,-94.5 187,-94.5 187,-64.5 307,-64.5 307,-94.5"/>
<text text-anchor="start" x="195" y="-82.5" font-family="Helvetica,sans-Serif" font-size="10.00">guanaqo::MatrixView</text>
<text text-anchor="middle" x="247" y="-71.5" font-family="Helvetica,sans-Serif" font-size="10.00">::col_stride</text>
</a>
</g>
</g>
<!-- Node2 -->
<g id="Node000002" class="node">
<title>Node2</title>
<g id="a_Node000002"><a xlink:href="structguanaqo_1_1MatrixView.html#a8bed907c429e251bdec7952447e82a1f" target="_top" xlink:title=" ">
<polygon fill="white" stroke="#666666" points="144,-159 7,-159 7,-118 144,-118 144,-159"/>
<text text-anchor="start" x="15" y="-147" font-family="Helvetica,sans-Serif" font-size="10.00">guanaqo::MatrixView</text>
<text text-anchor="start" x="15" y="-136" font-family="Helvetica,sans-Serif" font-size="10.00">&lt; T, I, S, StorageOrder</text>
<text text-anchor="middle" x="75.5" y="-125" font-family="Helvetica,sans-Serif" font-size="10.00">::RowMajor &gt;::operator()</text>
</a>
</g>
</g>
<!-- Node1&#45;&gt;Node2 -->
<g id="edge1_Node000001_Node000002" class="edge">
<title>Node1&#45;&gt;Node2</title>
<g id="a_edge1_Node000001_Node000002"><a xlink:title=" ">
<path fill="none" stroke="#63b8ff" d="M193.19,-97.88C174.93,-104.24 154.35,-111.4 135.62,-117.92"/>
<polygon fill="#63b8ff" stroke="#63b8ff" points="194.5,-101.13 202.79,-94.54 192.19,-94.52 194.5,-101.13"/>
</a>
</g>
</g>
<!-- Node3 -->
<g id="Node000003" class="node">
<title>Node3</title>
<g id="a_Node000003"><a xlink:href="structguanaqo_1_1MatrixView.html#a1cc7aa2b1b04b56587ee85e61c0534e5" target="_top" xlink:title=" ">
<polygon fill="white" stroke="#666666" points="143.5,-100 7.5,-100 7.5,-59 143.5,-59 143.5,-100"/>
<text text-anchor="start" x="15.5" y="-88" font-family="Helvetica,sans-Serif" font-size="10.00">guanaqo::MatrixView</text>
<text text-anchor="start" x="15.5" y="-77" font-family="Helvetica,sans-Serif" font-size="10.00">&lt; T, I, S, StorageOrder</text>
<text text-anchor="middle" x="75.5" y="-66" font-family="Helvetica,sans-Serif" font-size="10.00">::RowMajor &gt;::right_cols</text>
</a>
</g>
</g>
<!-- Node1&#45;&gt;Node3 -->
<g id="edge2_Node000001_Node000003" class="edge">
<title>Node1&#45;&gt;Node3</title>
<g id="a_edge2_Node000001_Node000003"><a xlink:title=" ">
<path fill="none" stroke="#63b8ff" d="M176.44,-79.5C165.58,-79.5 154.38,-79.5 143.57,-79.5"/>
<polygon fill="#63b8ff" stroke="#63b8ff" points="176.72,-83 186.72,-79.5 176.72,-76 176.72,-83"/>
</a>
</g>
</g>
<!-- Node4 -->
<g id="Node000004" class="node">
<title>Node4</title>
<g id="a_Node000004"><a xlink:href="structguanaqo_1_1MatrixView.html#afb4f177e3567b5dceb1f185b6020f489" target="_top" xlink:title=" ">
<polygon fill="white" stroke="#666666" points="151,-41 0,-41 0,0 151,0 151,-41"/>
<text text-anchor="start" x="8" y="-29" font-family="Helvetica,sans-Serif" font-size="10.00">guanaqo::MatrixView</text>
<text text-anchor="start" x="8" y="-18" font-family="Helvetica,sans-Serif" font-size="10.00">&lt; T, I, S, StorageOrder</text>
<text text-anchor="middle" x="75.5" y="-7" font-family="Helvetica,sans-Serif" font-size="10.00">::RowMajor &gt;::set_constant</text>
</a>
</g>
</g>
<!-- Node1&#45;&gt;Node4 -->
<g id="edge3_Node000001_Node000004" class="edge">
<title>Node1&#45;&gt;Node4</title>
<g id="a_edge3_Node000001_Node000004"><a xlink:title=" ">
<path fill="none" stroke="#63b8ff" d="M193.19,-61.12C174.93,-54.76 154.35,-47.6 135.62,-41.08"/>
<polygon fill="#63b8ff" stroke="#63b8ff" points="192.19,-64.48 202.79,-64.46 194.5,-57.87 192.19,-64.48"/>
</a>
</g>
</g>
</g>
</svg>
