<?xml version="1.0" encoding="UTF-8" standalone="no"?>
<!DOCTYPE svg PUBLIC "-//W3C//DTD SVG 1.1//EN"
 "http://www.w3.org/Graphics/SVG/1.1/DTD/svg11.dtd">
<!-- Generated by graphviz version 2.43.0 (0)
 -->
<!-- Title: guanaqo::linalg::sparsity::SparsityConverter&lt; SparseCOO&lt; Index &gt;, Dense &gt; Pages: 1 -->
<svg width="288pt" height="383pt"
 viewBox="0.00 0.00 288.00 383.00" xmlns="http://www.w3.org/2000/svg" xmlns:xlink="http://www.w3.org/1999/xlink">
<g id="graph0" class="graph" transform="scale(1 1) rotate(0) translate(4 379)">
<title>guanaqo::linalg::sparsity::SparsityConverter&lt; SparseCOO&lt; Index &gt;, Dense &gt;</title>
<!-- Node1 -->
<g id="Node000001" class="node">
<title>Node1</title>
<g id="a_Node000001"><a xlink:title="Conversion from COO to dense format.">
<polygon fill="#999999" stroke="transparent" points="224.5,-172 54.5,-172 54.5,0 224.5,0 224.5,-172"/>
<text text-anchor="start" x="59.5" y="-160" font-family="Helvetica,sans-Serif" font-size="10.00">guanaqo::linalg::sparsity</text>
<text text-anchor="start" x="59.5" y="-149" font-family="Helvetica,sans-Serif" font-size="10.00">::SparsityConverter&lt; SparseCOO</text>
<text text-anchor="start" x="90.5" y="-138" font-family="Helvetica,sans-Serif" font-size="10.00">&lt; Index &gt;, Dense &gt;</text>
<text text-anchor="start" x="137.5" y="-123" font-family="Helvetica,sans-Serif" font-size="10.00"> </text>
<text text-anchor="start" x="63.5" y="-108" font-family="Helvetica,sans-Serif" font-size="10.00">+</text>
<text text-anchor="start" x="81.5" y="-108" font-family="Helvetica,sans-Serif" font-size="10.00">convert_sparsity()</text>
<text text-anchor="start" x="63.5" y="-93" font-family="Helvetica,sans-Serif" font-size="10.00">+</text>
<text text-anchor="start" x="81.5" y="-93" font-family="Helvetica,sans-Serif" font-size="10.00">SparsityConverter()</text>
<text text-anchor="start" x="63.5" y="-78" font-family="Helvetica,sans-Serif" font-size="10.00">+</text>
<text text-anchor="start" x="81.5" y="-78" font-family="Helvetica,sans-Serif" font-size="10.00">operator const to_sparsity</text>
<text text-anchor="start" x="81.5" y="-67" font-family="Helvetica,sans-Serif" font-size="10.00">_t &amp;()</text>
<text text-anchor="start" x="63.5" y="-52" font-family="Helvetica,sans-Serif" font-size="10.00">+</text>
<text text-anchor="start" x="81.5" y="-52" font-family="Helvetica,sans-Serif" font-size="10.00">get_sparsity()</text>
<text text-anchor="start" x="63.5" y="-37" font-family="Helvetica,sans-Serif" font-size="10.00">+</text>
<text text-anchor="start" x="81.5" y="-37" font-family="Helvetica,sans-Serif" font-size="10.00">work_size()</text>
<text text-anchor="start" x="63.5" y="-22" font-family="Helvetica,sans-Serif" font-size="10.00">+</text>
<text text-anchor="start" x="81.5" y="-22" font-family="Helvetica,sans-Serif" font-size="10.00">nnz_from()</text>
<text text-anchor="start" x="63.5" y="-7" font-family="Helvetica,sans-Serif" font-size="10.00">+</text>
<text text-anchor="start" x="81.5" y="-7" font-family="Helvetica,sans-Serif" font-size="10.00">convert_values()</text>
<polygon fill="#666666" stroke="#666666" points="54.5,-133 54.5,-133 224.5,-133 224.5,-133 54.5,-133"/>
<polygon fill="#666666" stroke="#666666" points="54.5,-118 54.5,-118 224.5,-118 224.5,-118 54.5,-118"/>
<polygon fill="none" stroke="#666666" points="54.5,0 54.5,-172 224.5,-172 224.5,0 54.5,0"/>
</a>
</g>
</g>
<!-- Node2 -->
<g id="Node000002" class="node">
<title>Node2</title>
<g id="a_Node000002"><a xlink:href="structguanaqo_1_1linalg_1_1sparsity_1_1SparseCOO.html" target="_top" xlink:title=" ">
<polygon fill="white" stroke="transparent" points="131,-375 0,-375 0,-225 131,-225 131,-375"/>
<text text-anchor="start" x="5.5" y="-363" font-family="Helvetica,sans-Serif" font-size="10.00">guanaqo::linalg::sparsity</text>
<text text-anchor="start" x="10.5" y="-352" font-family="Helvetica,sans-Serif" font-size="10.00">::SparseCOO&lt; Index &gt;</text>
<text text-anchor="start" x="17.5" y="-337" font-family="Helvetica,sans-Serif" font-size="10.00">+</text>
<text text-anchor="start" x="43.5" y="-337" font-family="Helvetica,sans-Serif" font-size="10.00">rows</text>
<text text-anchor="start" x="17.5" y="-322" font-family="Helvetica,sans-Serif" font-size="10.00">+</text>
<text text-anchor="start" x="43.5" y="-322" font-family="Helvetica,sans-Serif" font-size="10.00">cols</text>
<text text-anchor="start" x="17.5" y="-307" font-family="Helvetica,sans-Serif" font-size="10.00">+</text>
<text text-anchor="start" x="43.5" y="-307" font-family="Helvetica,sans-Serif" font-size="10.00">symmetry</text>
<text text-anchor="start" x="17.5" y="-292" font-family="Helvetica,sans-Serif" font-size="10.00">+</text>
<text text-anchor="start" x="43.5" y="-292" font-family="Helvetica,sans-Serif" font-size="10.00">row_indices</text>
<text text-anchor="start" x="17.5" y="-277" font-family="Helvetica,sans-Serif" font-size="10.00">+</text>
<text text-anchor="start" x="43.5" y="-277" font-family="Helvetica,sans-Serif" font-size="10.00">col_indices</text>
<text text-anchor="start" x="17.5" y="-262" font-family="Helvetica,sans-Serif" font-size="10.00">+</text>
<text text-anchor="start" x="43.5" y="-262" font-family="Helvetica,sans-Serif" font-size="10.00">order</text>
<text text-anchor="start" x="17.5" y="-247" font-family="Helvetica,sans-Serif" font-size="10.00">+</text>
<text text-anchor="start" x="43.5" y="-247" font-family="Helvetica,sans-Serif" font-size="10.00">first_index</text>
<text text-anchor="start" x="17.5" y="-232" font-family="Helvetica,sans-Serif" font-size="10.00">+</text>
<text text-anchor="start" x="43.5" y="-232" font-family="Helvetica,sans-Serif" font-size="10.00">nnz()</text>
<polygon fill="#666666" stroke="#666666" points="0.5,-347 0.5,-347 131.5,-347 131.5,-347 0.5,-347"/>
<polygon fill="#666666" stroke="#666666" points="0.5,-242 0.5,-242 41.5,-242 41.5,-242 0.5,-242"/>
<polygon fill="#666666" stroke="#666666" points="41.5,-242 41.5,-242 131.5,-242 131.5,-242 41.5,-242"/>
<polygon fill="none" stroke="#666666" points="0,-225 0,-375 131,-375 131,-225 0,-225"/>
</a>
</g>
</g>
<!-- Node2&#45;&gt;Node1 -->
<g id="edge1_Node000001_Node000002" class="edge">
<title>Node2&#45;&gt;Node1</title>
<g id="a_edge1_Node000001_Node000002"><a xlink:title=" ">
<path fill="none" stroke="#63b8ff" d="M91.38,-224.85C96.01,-211.61 100.88,-197.63 105.69,-183.86"/>
<polygon fill="none" stroke="#63b8ff" points="105.75,-183.69 103.95,-176.71 109.7,-172.36 111.5,-179.34 105.75,-183.69"/>
</a>
</g>
<text text-anchor="start" x="105.5" y="-195.5" font-family="Helvetica,sans-Serif" font-size="10.00" fill="grey">+from_sparsity</text>
</g>
<!-- Node3 -->
<g id="Node000003" class="node">
<title>Node3</title>
<g id="a_Node000003"><a xlink:href="group__linalg__sparsity.html#structguanaqo_1_1linalg_1_1sparsity_1_1Dense" target="_top" xlink:title="Dense matrix structure.">
<polygon fill="white" stroke="transparent" points="280,-345 149,-345 149,-255 280,-255 280,-345"/>
<text text-anchor="start" x="154.5" y="-333" font-family="Helvetica,sans-Serif" font-size="10.00">guanaqo::linalg::sparsity</text>
<text text-anchor="start" x="196.5" y="-322" font-family="Helvetica,sans-Serif" font-size="10.00">::Dense</text>
<text text-anchor="start" x="168" y="-307" font-family="Helvetica,sans-Serif" font-size="10.00">+</text>
<text text-anchor="start" x="195.5" y="-307" font-family="Helvetica,sans-Serif" font-size="10.00">rows</text>
<text text-anchor="start" x="168" y="-292" font-family="Helvetica,sans-Serif" font-size="10.00">+</text>
<text text-anchor="start" x="195.5" y="-292" font-family="Helvetica,sans-Serif" font-size="10.00">cols</text>
<text text-anchor="start" x="168" y="-277" font-family="Helvetica,sans-Serif" font-size="10.00">+</text>
<text text-anchor="start" x="195.5" y="-277" font-family="Helvetica,sans-Serif" font-size="10.00">symmetry</text>
<text text-anchor="start" x="213" y="-262" font-family="Helvetica,sans-Serif" font-size="10.00"> </text>
<polygon fill="#666666" stroke="#666666" points="149.5,-317 149.5,-317 280.5,-317 280.5,-317 149.5,-317"/>
<polygon fill="#666666" stroke="#666666" points="149.5,-272 149.5,-272 193.5,-272 193.5,-272 149.5,-272"/>
<polygon fill="#666666" stroke="#666666" points="193.5,-272 193.5,-272 280.5,-272 280.5,-272 193.5,-272"/>
<polygon fill="none" stroke="#666666" points="149,-255 149,-345 280,-345 280,-255 149,-255"/>
</a>
</g>
</g>
<!-- Node3&#45;&gt;Node1 -->
<g id="edge2_Node000001_Node000003" class="edge">
<title>Node3&#45;&gt;Node1</title>
<g id="a_edge2_Node000001_Node000003"><a xlink:title=" ">
<path fill="none" stroke="#63b8ff" d="M206.19,-254.9C201.84,-234.82 195.88,-210.92 188.5,-190 187.72,-187.79 186.91,-185.57 186.07,-183.34"/>
<polygon fill="none" stroke="#63b8ff" points="186.06,-183.3 180.14,-179.18 181.67,-172.13 187.59,-176.26 186.06,-183.3"/>
</a>
</g>
<text text-anchor="start" x="195.5" y="-195.5" font-family="Helvetica,sans-Serif" font-size="10.00" fill="grey">+sparsity</text>
</g>
</g>
</svg>
