<?xml version="1.0" encoding="UTF-8" standalone="no"?>
<!DOCTYPE svg PUBLIC "-//W3C//DTD SVG 1.1//EN"
 "http://www.w3.org/Graphics/SVG/1.1/DTD/svg11.dtd">
<!-- Generated by graphviz version 2.43.0 (0)
 -->
<!-- Title: guanaqo::Timed&lt; TimingsCPU &gt;::~Timed Pages: 1 -->
<svg width="376pt" height="56pt"
 viewBox="0.00 0.00 376.00 56.00" xmlns="http://www.w3.org/2000/svg" xmlns:xlink="http://www.w3.org/1999/xlink">
<g id="graph0" class="graph" transform="scale(1 1) rotate(0) translate(4 52)">
<title>guanaqo::Timed&lt; TimingsCPU &gt;::~Timed</title>
<!-- Node1 -->
<g id="Node000001" class="node">
<title>Node1</title>
<g id="a_Node000001"><a xlink:title=" ">
<polygon fill="#999999" stroke="#666666" points="166,-30 0,-30 0,0 166,0 166,-30"/>
<text text-anchor="start" x="8" y="-18" font-family="Helvetica,sans-Serif" font-size="10.00">guanaqo::Timed&lt; TimingsCPU</text>
<text text-anchor="middle" x="83" y="-7" font-family="Helvetica,sans-Serif" font-size="10.00"> &gt;::~Timed</text>
</a>
</g>
</g>
<!-- Node2 -->
<g id="Node000002" class="node">
<title>Node2</title>
<g id="a_Node000002"><a xlink:href="structguanaqo_1_1Timed_3_01TimingsCPU_01_4.html#a64b9d1d200d527a62e59ba281f3fde9c" target="_top" xlink:title=" ">
<polygon fill="white" stroke="#666666" points="368,-30 202,-30 202,0 368,0 368,-30"/>
<text text-anchor="start" x="210" y="-18" font-family="Helvetica,sans-Serif" font-size="10.00">guanaqo::Timed&lt; TimingsCPU</text>
<text text-anchor="middle" x="285" y="-7" font-family="Helvetica,sans-Serif" font-size="10.00"> &gt;::Timed</text>
</a>
</g>
</g>
<!-- Node1&#45;&gt;Node2 -->
<g id="edge1_Node000001_Node000002" class="edge">
<title>Node1&#45;&gt;Node2</title>
<g id="a_edge1_Node000001_Node000002"><a xlink:title=" ">
<path fill="none" stroke="#63b8ff" d="M166.21,-15C174.56,-15 183.08,-15 191.53,-15"/>
<polygon fill="#63b8ff" stroke="#63b8ff" points="191.78,-18.5 201.78,-15 191.78,-11.5 191.78,-18.5"/>
</a>
</g>
</g>
<!-- Node2&#45;&gt;Node2 -->
<g id="edge2_Node000002_Node000002" class="edge">
<title>Node2&#45;&gt;Node2</title>
<g id="a_edge2_Node000002_Node000002"><a xlink:title=" ">
<path fill="none" stroke="#63b8ff" d="M249.49,-30.28C241.6,-39.41 253.44,-48 285,-48 303.74,-48 315.53,-44.97 320.36,-40.6"/>
<polygon fill="#63b8ff" stroke="#63b8ff" points="323.86,-40.33 320.51,-30.28 316.86,-40.22 323.86,-40.33"/>
</a>
</g>
</g>
</g>
</svg>
