<?xml version="1.0" encoding="UTF-8" standalone="no"?>
<!DOCTYPE svg PUBLIC "-//W3C//DTD SVG 1.1//EN"
 "http://www.w3.org/Graphics/SVG/1.1/DTD/svg11.dtd">
<!-- Generated by graphviz version 2.43.0 (0)
 -->
<!-- Title: guanaqo::iter_range_adapter::iter_t::iter_t Pages: 1 -->
<svg width="321pt" height="230pt"
 viewBox="0.00 0.00 321.00 230.00" xmlns="http://www.w3.org/2000/svg" xmlns:xlink="http://www.w3.org/1999/xlink">

<svg id="main" version="1.1" xmlns="http://www.w3.org/2000/svg" xmlns:xlink="http://www.w3.org/1999/xlink" xml:space="preserve">

<style type="text/css"><![CDATA[
.node, .edge {opacity: 0.7;}
.node.selected, .edge.selected {opacity: 1;}
.edge:hover path { stroke: red; }
.edge:hover polygon { stroke: red; fill: red; }
]]></style>
<script type="application/ecmascript" xlink:href="svg.min.js"/>
<svg id="graph" class="graph">
<g id="graph0" class="graph" transform="scale(1 1) rotate(0) translate(4 226)">
<title>guanaqo::iter_range_adapter::iter_t::iter_t</title>
<!-- Node1 -->
<g id="Node000001" class="node">
<title>Node1</title>
<g id="a_Node000001"><a xlink:title=" ">
<polygon fill="#999999" stroke="#666666" points="313,-126 191,-126 191,-96 313,-96 313,-126"/>
<text text-anchor="start" x="199" y="-114" font-family="Helvetica,sans-Serif" font-size="10.00">guanaqo::iter_range</text>
<text text-anchor="middle" x="252" y="-103" font-family="Helvetica,sans-Serif" font-size="10.00">_adapter::iter_t::iter_t</text>
</a>
</g>
</g>
<!-- Node2 -->
<g id="Node000002" class="node">
<title>Node2</title>
<g id="a_Node000002"><a xlink:href="structguanaqo_1_1iter__range__adapter_1_1iter__t.html#aa2832e6881b794e642208654a397e0c1" target="_top" xlink:title=" ">
<polygon fill="white" stroke="#666666" points="152.5,-222 2.5,-222 2.5,-192 152.5,-192 152.5,-222"/>
<text text-anchor="start" x="10.5" y="-210" font-family="Helvetica,sans-Serif" font-size="10.00">guanaqo::iter_range</text>
<text text-anchor="middle" x="77.5" y="-199" font-family="Helvetica,sans-Serif" font-size="10.00">_adapter::iter_t::operator!=</text>
</a>
</g>
</g>
<!-- Node1&#45;&gt;Node2 -->
<g id="edge1_Node000001_Node000002" class="edge">
<title>Node1&#45;&gt;Node2</title>
<g id="a_edge1_Node000001_Node000002"><a xlink:title=" ">
<path fill="none" stroke="#63b8ff" d="M226.84,-132.8C208.31,-148.58 181.48,-169.42 155,-183 148.56,-186.3 141.58,-189.25 134.54,-191.86"/>
<polygon fill="#63b8ff" stroke="#63b8ff" points="229.23,-135.37 234.5,-126.17 224.65,-130.07 229.23,-135.37"/>
</a>
</g>
</g>
<!-- Node3 -->
<g id="Node000003" class="node">
<title>Node3</title>
<g id="a_Node000003"><a xlink:href="structguanaqo_1_1iter__range__adapter_1_1iter__t.html#a36fbe73343109a5e2e4643b24849f9b7" target="_top" xlink:title=" ">
<polygon fill="white" stroke="#666666" points="149,-174 6,-174 6,-144 149,-144 149,-174"/>
<text text-anchor="start" x="14" y="-162" font-family="Helvetica,sans-Serif" font-size="10.00">guanaqo::iter_range</text>
<text text-anchor="middle" x="77.5" y="-151" font-family="Helvetica,sans-Serif" font-size="10.00">_adapter::iter_t::operator*</text>
</a>
</g>
</g>
<!-- Node1&#45;&gt;Node3 -->
<g id="edge2_Node000001_Node000003" class="edge">
<title>Node1&#45;&gt;Node3</title>
<g id="a_edge2_Node000001_Node000003"><a xlink:title=" ">
<path fill="none" stroke="#63b8ff" d="M187.07,-128.79C169.1,-133.79 149.74,-139.18 132.41,-144"/>
<polygon fill="#63b8ff" stroke="#63b8ff" points="188.2,-132.11 196.89,-126.06 186.32,-125.36 188.2,-132.11"/>
</a>
</g>
</g>
<!-- Node4 -->
<g id="Node000004" class="node">
<title>Node4</title>
<g id="a_Node000004"><a xlink:href="structguanaqo_1_1iter__range__adapter_1_1iter__t.html#a8043cc118a1d2e8fe792f818032bb624" target="_top" xlink:title=" ">
<polygon fill="white" stroke="#666666" points="155,-126 0,-126 0,-96 155,-96 155,-126"/>
<text text-anchor="start" x="8" y="-114" font-family="Helvetica,sans-Serif" font-size="10.00">guanaqo::iter_range</text>
<text text-anchor="middle" x="77.5" y="-103" font-family="Helvetica,sans-Serif" font-size="10.00">_adapter::iter_t::operator++</text>
</a>
</g>
</g>
<!-- Node1&#45;&gt;Node4 -->
<g id="edge3_Node000001_Node000004" class="edge">
<title>Node1&#45;&gt;Node4</title>
<g id="a_edge3_Node000001_Node000004"><a xlink:title=" ">
<path fill="none" stroke="#63b8ff" d="M180.58,-111C172.21,-111 163.63,-111 155.17,-111"/>
<polygon fill="#63b8ff" stroke="#63b8ff" points="180.67,-114.5 190.67,-111 180.67,-107.5 180.67,-114.5"/>
</a>
</g>
</g>
<!-- Node5 -->
<g id="Node000005" class="node">
<title>Node5</title>
<g id="a_Node000005"><a xlink:href="structguanaqo_1_1iter__range__adapter_1_1iter__t.html#ab99648565a64108de286a0a017d7135f" target="_top" xlink:title=" ">
<polygon fill="white" stroke="#666666" points="155,-78 0,-78 0,-48 155,-48 155,-78"/>
<text text-anchor="start" x="8" y="-66" font-family="Helvetica,sans-Serif" font-size="10.00">guanaqo::iter_range</text>
<text text-anchor="middle" x="77.5" y="-55" font-family="Helvetica,sans-Serif" font-size="10.00">_adapter::iter_t::operator++</text>
</a>
</g>
</g>
<!-- Node1&#45;&gt;Node5 -->
<g id="edge4_Node000001_Node000005" class="edge">
<title>Node1&#45;&gt;Node5</title>
<g id="a_edge4_Node000001_Node000005"><a xlink:title=" ">
<path fill="none" stroke="#63b8ff" d="M187.07,-93.21C169.1,-88.21 149.74,-82.82 132.41,-78"/>
<polygon fill="#63b8ff" stroke="#63b8ff" points="186.32,-96.64 196.89,-95.94 188.2,-89.89 186.32,-96.64"/>
</a>
</g>
</g>
<!-- Node6 -->
<g id="Node000006" class="node">
<title>Node6</title>
<g id="a_Node000006"><a xlink:href="structguanaqo_1_1iter__range__adapter_1_1iter__t.html#a84cc072c81fe3dda041c1672009ebfdf" target="_top" xlink:title=" ">
<polygon fill="white" stroke="#666666" points="155,-30 0,-30 0,0 155,0 155,-30"/>
<text text-anchor="start" x="8" y="-18" font-family="Helvetica,sans-Serif" font-size="10.00">guanaqo::iter_range</text>
<text text-anchor="middle" x="77.5" y="-7" font-family="Helvetica,sans-Serif" font-size="10.00">_adapter::iter_t::operator==</text>
</a>
</g>
</g>
<!-- Node1&#45;&gt;Node6 -->
<g id="edge5_Node000001_Node000006" class="edge">
<title>Node1&#45;&gt;Node6</title>
<g id="a_edge5_Node000001_Node000006"><a xlink:title=" ">
<path fill="none" stroke="#63b8ff" d="M226.84,-89.2C208.31,-73.42 181.48,-52.58 155,-39 148.56,-35.7 141.58,-32.75 134.54,-30.14"/>
<polygon fill="#63b8ff" stroke="#63b8ff" points="224.65,-91.93 234.5,-95.83 229.23,-86.63 224.65,-91.93"/>
</a>
</g>
</g>
</g>
</svg>
</svg>

<style type='text/css'>
<![CDATA[
[data-mouse-over-selected='false'] { opacity: 0.7; }
[data-mouse-over-selected='true']  { opacity: 1.0; }
]]>
</style>
<script type="application/ecmascript"><![CDATA[
document.addEventListener('DOMContentLoaded', (event) => {
  highlightEdges();
  highlightAdjacentNodes();
});
]]></script>
</svg>
