<?xml version="1.0" encoding="UTF-8" standalone="no"?>
<!DOCTYPE svg PUBLIC "-//W3C//DTD SVG 1.1//EN"
 "http://www.w3.org/Graphics/SVG/1.1/DTD/svg11.dtd">
<!-- Generated by graphviz version 2.43.0 (0)
 -->
<!-- Title: guanaqo::enumerate_t::iter_t::iter_t Pages: 1 -->
<svg width="283pt" height="182pt"
 viewBox="0.00 0.00 283.00 182.00" xmlns="http://www.w3.org/2000/svg" xmlns:xlink="http://www.w3.org/1999/xlink">

<svg id="main" version="1.1" xmlns="http://www.w3.org/2000/svg" xmlns:xlink="http://www.w3.org/1999/xlink" xml:space="preserve">

<style type="text/css"><![CDATA[
.node, .edge {opacity: 0.7;}
.node.selected, .edge.selected {opacity: 1;}
.edge:hover path { stroke: red; }
.edge:hover polygon { stroke: red; fill: red; }
]]></style>
<script type="application/ecmascript" xlink:href="svg.min.js"/>
<svg id="graph" class="graph">
<g id="graph0" class="graph" transform="scale(1 1) rotate(0) translate(4 178)">
<title>guanaqo::enumerate_t::iter_t::iter_t</title>
<!-- Node1 -->
<g id="Node000001" class="node">
<title>Node1</title>
<g id="a_Node000001"><a xlink:title=" ">
<polygon fill="#999999" stroke="#666666" points="275,-102 157,-102 157,-72 275,-72 275,-102"/>
<text text-anchor="start" x="165" y="-90" font-family="Helvetica,sans-Serif" font-size="10.00">guanaqo::enumerate</text>
<text text-anchor="middle" x="216" y="-79" font-family="Helvetica,sans-Serif" font-size="10.00">_t::iter_t::iter_t</text>
</a>
</g>
</g>
<!-- Node2 -->
<g id="Node000002" class="node">
<title>Node2</title>
<g id="a_Node000002"><a xlink:href="structguanaqo_1_1enumerate__t_1_1iter__t.html#aa2832e6881b794e642208654a397e0c1" target="_top" xlink:title=" ">
<polygon fill="white" stroke="#666666" points="119.5,-174 1.5,-174 1.5,-144 119.5,-144 119.5,-174"/>
<text text-anchor="start" x="9.5" y="-162" font-family="Helvetica,sans-Serif" font-size="10.00">guanaqo::enumerate</text>
<text text-anchor="middle" x="60.5" y="-151" font-family="Helvetica,sans-Serif" font-size="10.00">_t::iter_t::operator!=</text>
</a>
</g>
</g>
<!-- Node1&#45;&gt;Node2 -->
<g id="edge1_Node000001_Node000002" class="edge">
<title>Node1&#45;&gt;Node2</title>
<g id="a_edge1_Node000001_Node000002"><a xlink:title=" ">
<path fill="none" stroke="#63b8ff" d="M177.82,-106.95C160.69,-115.89 139.99,-126.34 121,-135 114.41,-138 107.33,-141.03 100.44,-143.87"/>
<polygon fill="#63b8ff" stroke="#63b8ff" points="179.71,-109.91 186.94,-102.16 176.46,-103.71 179.71,-109.91"/>
</a>
</g>
</g>
<!-- Node3 -->
<g id="Node000003" class="node">
<title>Node3</title>
<g id="a_Node000003"><a xlink:href="structguanaqo_1_1enumerate__t_1_1iter__t.html#a755f1f745b4b1c9ee7036116683c40ca" target="_top" xlink:title=" ">
<polygon fill="white" stroke="#666666" points="121,-126 0,-126 0,-96 121,-96 121,-126"/>
<text text-anchor="start" x="8" y="-114" font-family="Helvetica,sans-Serif" font-size="10.00">guanaqo::enumerate</text>
<text text-anchor="middle" x="60.5" y="-103" font-family="Helvetica,sans-Serif" font-size="10.00">_t::iter_t::operator++</text>
</a>
</g>
</g>
<!-- Node1&#45;&gt;Node3 -->
<g id="edge2_Node000001_Node000003" class="edge">
<title>Node1&#45;&gt;Node3</title>
<g id="a_edge2_Node000001_Node000003"><a xlink:title=" ">
<path fill="none" stroke="#63b8ff" d="M146.96,-97.64C138.36,-98.98 129.61,-100.35 121.15,-101.67"/>
<polygon fill="#63b8ff" stroke="#63b8ff" points="147.63,-101.08 156.97,-96.07 146.55,-94.16 147.63,-101.08"/>
</a>
</g>
</g>
<!-- Node4 -->
<g id="Node000004" class="node">
<title>Node4</title>
<g id="a_Node000004"><a xlink:href="structguanaqo_1_1enumerate__t_1_1iter__t.html#ac56b640604e5cfb19e29997efbec134e" target="_top" xlink:title=" ">
<polygon fill="white" stroke="#666666" points="121,-78 0,-78 0,-48 121,-48 121,-78"/>
<text text-anchor="start" x="8" y="-66" font-family="Helvetica,sans-Serif" font-size="10.00">guanaqo::enumerate</text>
<text text-anchor="middle" x="60.5" y="-55" font-family="Helvetica,sans-Serif" font-size="10.00">_t::iter_t::operator++</text>
</a>
</g>
</g>
<!-- Node1&#45;&gt;Node4 -->
<g id="edge3_Node000001_Node000004" class="edge">
<title>Node1&#45;&gt;Node4</title>
<g id="a_edge3_Node000001_Node000004"><a xlink:title=" ">
<path fill="none" stroke="#63b8ff" d="M146.96,-76.36C138.36,-75.02 129.61,-73.65 121.15,-72.33"/>
<polygon fill="#63b8ff" stroke="#63b8ff" points="146.55,-79.84 156.97,-77.93 147.63,-72.92 146.55,-79.84"/>
</a>
</g>
</g>
<!-- Node5 -->
<g id="Node000005" class="node">
<title>Node5</title>
<g id="a_Node000005"><a xlink:href="structguanaqo_1_1enumerate__t_1_1iter__t.html#a84cc072c81fe3dda041c1672009ebfdf" target="_top" xlink:title=" ">
<polygon fill="white" stroke="#666666" points="121,-30 0,-30 0,0 121,0 121,-30"/>
<text text-anchor="start" x="8" y="-18" font-family="Helvetica,sans-Serif" font-size="10.00">guanaqo::enumerate</text>
<text text-anchor="middle" x="60.5" y="-7" font-family="Helvetica,sans-Serif" font-size="10.00">_t::iter_t::operator==</text>
</a>
</g>
</g>
<!-- Node1&#45;&gt;Node5 -->
<g id="edge4_Node000001_Node000005" class="edge">
<title>Node1&#45;&gt;Node5</title>
<g id="a_edge4_Node000001_Node000005"><a xlink:title=" ">
<path fill="none" stroke="#63b8ff" d="M177.82,-67.05C160.69,-58.11 139.99,-47.66 121,-39 114.41,-36 107.33,-32.97 100.44,-30.13"/>
<polygon fill="#63b8ff" stroke="#63b8ff" points="176.46,-70.29 186.94,-71.84 179.71,-64.09 176.46,-70.29"/>
</a>
</g>
</g>
</g>
</svg>
</svg>

<style type='text/css'>
<![CDATA[
[data-mouse-over-selected='false'] { opacity: 0.7; }
[data-mouse-over-selected='true']  { opacity: 1.0; }
]]>
</style>
<script type="application/ecmascript"><![CDATA[
document.addEventListener('DOMContentLoaded', (event) => {
  highlightEdges();
  highlightAdjacentNodes();
});
]]></script>
</svg>
