<?xml version="1.0" encoding="UTF-8" standalone="no"?>
<!DOCTYPE svg PUBLIC "-//W3C//DTD SVG 1.1//EN"
 "http://www.w3.org/Graphics/SVG/1.1/DTD/svg11.dtd">
<!-- Generated by graphviz version 2.43.0 (0)
 -->
<!-- Title: guanaqo::CircularIndexIterator&lt; IndexT &gt; Pages: 1 -->
<svg width="167pt" height="286pt"
 viewBox="0.00 0.00 167.00 286.00" xmlns="http://www.w3.org/2000/svg" xmlns:xlink="http://www.w3.org/1999/xlink">

<svg id="main" version="1.1" xmlns="http://www.w3.org/2000/svg" xmlns:xlink="http://www.w3.org/1999/xlink" xml:space="preserve">

<style type="text/css"><![CDATA[
.node, .edge {opacity: 0.7;}
.node.selected, .edge.selected {opacity: 1;}
.edge:hover path { stroke: red; }
.edge:hover polygon { stroke: red; fill: red; }
]]></style>
<script type="application/ecmascript" xlink:href="svg.min.js"/>
<svg id="graph" class="graph">
<g id="graph0" class="graph" transform="scale(1 1) rotate(0) translate(4 282)">
<title>guanaqo::CircularIndexIterator&lt; IndexT &gt;</title>
<!-- Node1 -->
<g id="Node000001" class="node">
<title>Node1</title>
<g id="a_Node000001"><a xlink:title=" ">
<polygon fill="#999999" stroke="transparent" points="159,-150 0,-150 0,0 159,0 159,-150"/>
<text text-anchor="start" x="5.5" y="-138" font-family="Helvetica,sans-Serif" font-size="10.00">guanaqo::CircularIndexIterator</text>
<text text-anchor="start" x="52" y="-127" font-family="Helvetica,sans-Serif" font-size="10.00">&lt; IndexT &gt;</text>
<text text-anchor="start" x="11.5" y="-112" font-family="Helvetica,sans-Serif" font-size="10.00">+</text>
<text text-anchor="start" x="31.5" y="-112" font-family="Helvetica,sans-Serif" font-size="10.00">max</text>
<text text-anchor="start" x="11.5" y="-97" font-family="Helvetica,sans-Serif" font-size="10.00">+</text>
<text text-anchor="start" x="31.5" y="-97" font-family="Helvetica,sans-Serif" font-size="10.00">CircularIndexIterator()</text>
<text text-anchor="start" x="11.5" y="-82" font-family="Helvetica,sans-Serif" font-size="10.00">+</text>
<text text-anchor="start" x="31.5" y="-82" font-family="Helvetica,sans-Serif" font-size="10.00">CircularIndexIterator()</text>
<text text-anchor="start" x="11.5" y="-67" font-family="Helvetica,sans-Serif" font-size="10.00">+</text>
<text text-anchor="start" x="31.5" y="-67" font-family="Helvetica,sans-Serif" font-size="10.00">operator*()</text>
<text text-anchor="start" x="11.5" y="-52" font-family="Helvetica,sans-Serif" font-size="10.00">+</text>
<text text-anchor="start" x="31.5" y="-52" font-family="Helvetica,sans-Serif" font-size="10.00">operator++()</text>
<text text-anchor="start" x="11.5" y="-37" font-family="Helvetica,sans-Serif" font-size="10.00">+</text>
<text text-anchor="start" x="31.5" y="-37" font-family="Helvetica,sans-Serif" font-size="10.00">operator&#45;&#45;()</text>
<text text-anchor="start" x="11.5" y="-22" font-family="Helvetica,sans-Serif" font-size="10.00">+</text>
<text text-anchor="start" x="31.5" y="-22" font-family="Helvetica,sans-Serif" font-size="10.00">operator++()</text>
<text text-anchor="start" x="11.5" y="-7" font-family="Helvetica,sans-Serif" font-size="10.00">+</text>
<text text-anchor="start" x="31.5" y="-7" font-family="Helvetica,sans-Serif" font-size="10.00">operator&#45;&#45;()</text>
<polygon fill="#666666" stroke="#666666" points="0.5,-122 0.5,-122 159.5,-122 159.5,-122 0.5,-122"/>
<polygon fill="#666666" stroke="#666666" points="0.5,-107 0.5,-107 29.5,-107 29.5,-107 0.5,-107"/>
<polygon fill="#666666" stroke="#666666" points="29.5,-107 29.5,-107 159.5,-107 159.5,-107 29.5,-107"/>
<polygon fill="none" stroke="#666666" points="0,0 0,-150 159,-150 159,0 0,0"/>
</a>
</g>
</g>
<!-- Node2 -->
<g id="Node000002" class="node">
<title>Node2</title>
<g id="a_Node000002"><a xlink:href="structguanaqo_1_1CircularIndices.html" target="_top" xlink:title=" ">
<polygon fill="white" stroke="transparent" points="145,-278 14,-278 14,-203 145,-203 145,-278"/>
<text text-anchor="start" x="19.5" y="-265.5" font-family="Helvetica,sans-Serif" font-size="10.00">guanaqo::CircularIndices</text>
<text text-anchor="start" x="55" y="-254.5" font-family="Helvetica,sans-Serif" font-size="10.00">&lt; Index &gt;</text>
<text text-anchor="start" x="26" y="-239.5" font-family="Helvetica,sans-Serif" font-size="10.00">+</text>
<text text-anchor="start" x="46.5" y="-239.5" font-family="Helvetica,sans-Serif" font-size="10.00">zerobased</text>
<text text-anchor="start" x="26" y="-224.5" font-family="Helvetica,sans-Serif" font-size="10.00">+</text>
<text text-anchor="start" x="46.5" y="-224.5" font-family="Helvetica,sans-Serif" font-size="10.00">circular</text>
<text text-anchor="start" x="26" y="-209.5" font-family="Helvetica,sans-Serif" font-size="10.00">+</text>
<text text-anchor="start" x="46.5" y="-209.5" font-family="Helvetica,sans-Serif" font-size="10.00">CircularIndices()</text>
<polygon fill="#666666" stroke="#666666" points="14.5,-249.5 14.5,-249.5 145.5,-249.5 145.5,-249.5 14.5,-249.5"/>
<polygon fill="#666666" stroke="#666666" points="14.5,-219.5 14.5,-219.5 44.5,-219.5 44.5,-219.5 14.5,-219.5"/>
<polygon fill="#666666" stroke="#666666" points="44.5,-219.5 44.5,-219.5 145.5,-219.5 145.5,-219.5 44.5,-219.5"/>
<polygon fill="none" stroke="#666666" points="14,-203 14,-278 145,-278 145,-203 14,-203"/>
</a>
</g>
</g>
<!-- Node2&#45;&gt;Node1 -->
<g id="edge1_Node000001_Node000002" class="edge">
<title>Node2&#45;&gt;Node1</title>
<g id="a_edge1_Node000001_Node000002"><a xlink:title=" ">
<path fill="none" stroke="#63b8ff" d="M79.5,-202.81C79.5,-190.6 79.5,-176.44 79.5,-162.1"/>
<polygon fill="none" stroke="#63b8ff" points="79.5,-162.05 75.5,-156.05 79.5,-150.05 83.5,-156.05 79.5,-162.05"/>
</a>
</g>
<text text-anchor="start" x="82.5" y="-173.5" font-family="Helvetica,sans-Serif" font-size="10.00" fill="grey">+i</text>
</g>
</g>
</svg>
</svg>

<style type='text/css'>
<![CDATA[
[data-mouse-over-selected='false'] { opacity: 0.7; }
[data-mouse-over-selected='true']  { opacity: 1.0; }
]]>
</style>
<script type="application/ecmascript"><![CDATA[
document.addEventListener('DOMContentLoaded', (event) => {
  highlightEdges();
  highlightAdjacentNodes();
});
]]></script>
</svg>
