<?xml version="1.0" encoding="UTF-8" standalone="no"?>
<!DOCTYPE svg PUBLIC "-//W3C//DTD SVG 1.1//EN"
 "http://www.w3.org/Graphics/SVG/1.1/DTD/svg11.dtd">
<!-- Generated by graphviz version 2.43.0 (0)
 -->
<!-- Title: guanaqo::BasicVTable Pages: 1 -->
<svg width="196pt" height="275pt"
 viewBox="0.00 0.00 195.50 275.00" xmlns="http://www.w3.org/2000/svg" xmlns:xlink="http://www.w3.org/1999/xlink">

<svg id="main" version="1.1" xmlns="http://www.w3.org/2000/svg" xmlns:xlink="http://www.w3.org/1999/xlink" xml:space="preserve">

<style type="text/css"><![CDATA[
.node, .edge {opacity: 0.7;}
.node.selected, .edge.selected {opacity: 1;}
.edge:hover path { stroke: red; }
.edge:hover polygon { stroke: red; fill: red; }
]]></style>
<script type="application/ecmascript" xlink:href="svg.min.js"/>
<svg id="graph" class="graph">
<g id="graph0" class="graph" transform="scale(1 1) rotate(0) translate(4 271)">
<title>guanaqo::BasicVTable</title>
<!-- Node1 -->
<g id="Node000001" class="node">
<title>Node1</title>
<g id="a_Node000001"><a xlink:title="Struct that stores pointers to functions to copy, move or destroy a polymorphic object.">
<polygon fill="#999999" stroke="transparent" points="133,-109 16,-109 16,0 133,0 133,-109"/>
<text text-anchor="start" x="21.5" y="-96.5" font-family="Helvetica,sans-Serif" font-size="10.00">guanaqo::BasicVTable</text>
<text text-anchor="start" x="27.5" y="-81.5" font-family="Helvetica,sans-Serif" font-size="10.00">+</text>
<text text-anchor="start" x="47.5" y="-81.5" font-family="Helvetica,sans-Serif" font-size="10.00">type</text>
<text text-anchor="start" x="27.5" y="-66.5" font-family="Helvetica,sans-Serif" font-size="10.00">+</text>
<text text-anchor="start" x="47.5" y="-66.5" font-family="Helvetica,sans-Serif" font-size="10.00">BasicVTable()</text>
<text text-anchor="start" x="27.5" y="-51.5" font-family="Helvetica,sans-Serif" font-size="10.00">+</text>
<text text-anchor="start" x="47.5" y="-51.5" font-family="Helvetica,sans-Serif" font-size="10.00">BasicVTable()</text>
<text text-anchor="start" x="27.5" y="-36.5" font-family="Helvetica,sans-Serif" font-size="10.00">+</text>
<text text-anchor="start" x="47.5" y="-36.5" font-family="Helvetica,sans-Serif" font-size="10.00">copy()</text>
<text text-anchor="start" x="27.5" y="-21.5" font-family="Helvetica,sans-Serif" font-size="10.00">+</text>
<text text-anchor="start" x="47.5" y="-21.5" font-family="Helvetica,sans-Serif" font-size="10.00">move()</text>
<text text-anchor="start" x="27.5" y="-6.5" font-family="Helvetica,sans-Serif" font-size="10.00">+</text>
<text text-anchor="start" x="47.5" y="-6.5" font-family="Helvetica,sans-Serif" font-size="10.00">destroy()</text>
<polygon fill="#666666" stroke="#666666" points="16.5,-91.5 16.5,-91.5 133.5,-91.5 133.5,-91.5 16.5,-91.5"/>
<polygon fill="#666666" stroke="#666666" points="16.5,-76.5 16.5,-76.5 45.5,-76.5 45.5,-76.5 16.5,-76.5"/>
<polygon fill="#666666" stroke="#666666" points="45.5,-76.5 45.5,-76.5 133.5,-76.5 133.5,-76.5 45.5,-76.5"/>
<polygon fill="none" stroke="#666666" points="16,0 16,-109 133,-109 133,0 16,0"/>
</a>
</g>
</g>
<!-- Node2 -->
<g id="Node000002" class="node">
<title>Node2</title>
<g id="a_Node000002"><a xlink:href="group__type__erasure.html#structguanaqo_1_1CopyMoveDestroyVTable" target="_top" xlink:title=" ">
<polygon fill="white" stroke="transparent" points="149,-267 0,-267 0,-177 149,-177 149,-267"/>
<text text-anchor="start" x="5.5" y="-255" font-family="Helvetica,sans-Serif" font-size="10.00">guanaqo::CopyMoveDestroy</text>
<text text-anchor="start" x="58.5" y="-244" font-family="Helvetica,sans-Serif" font-size="10.00">VTable</text>
<text text-anchor="start" x="27" y="-229" font-family="Helvetica,sans-Serif" font-size="10.00">+</text>
<text text-anchor="start" x="62.5" y="-229" font-family="Helvetica,sans-Serif" font-size="10.00">copy</text>
<text text-anchor="start" x="27" y="-214" font-family="Helvetica,sans-Serif" font-size="10.00">+</text>
<text text-anchor="start" x="62.5" y="-214" font-family="Helvetica,sans-Serif" font-size="10.00">move</text>
<text text-anchor="start" x="27" y="-199" font-family="Helvetica,sans-Serif" font-size="10.00">+</text>
<text text-anchor="start" x="62.5" y="-199" font-family="Helvetica,sans-Serif" font-size="10.00">destroy</text>
<text text-anchor="start" x="73" y="-184" font-family="Helvetica,sans-Serif" font-size="10.00"> </text>
<polygon fill="#666666" stroke="#666666" points="0.5,-239 0.5,-239 149.5,-239 149.5,-239 0.5,-239"/>
<polygon fill="#666666" stroke="#666666" points="0.5,-194 0.5,-194 60.5,-194 60.5,-194 0.5,-194"/>
<polygon fill="#666666" stroke="#666666" points="60.5,-194 60.5,-194 149.5,-194 149.5,-194 60.5,-194"/>
<polygon fill="none" stroke="#666666" points="0,-177 0,-267 149,-267 149,-177 0,-177"/>
</a>
</g>
</g>
<!-- Node2&#45;&gt;Node1 -->
<g id="edge1_Node000001_Node000002" class="edge">
<title>Node2&#45;&gt;Node1</title>
<g id="a_edge1_Node000001_Node000002"><a xlink:title=" ">
<path fill="none" stroke="#63b8ff" d="M74.5,-176.65C74.5,-159.61 74.5,-139.77 74.5,-121.14"/>
<polygon fill="none" stroke="#63b8ff" points="74.5,-121.12 70.5,-115.12 74.5,-109.12 78.5,-115.12 74.5,-121.12"/>
</a>
</g>
<text text-anchor="start" x="78" y="-148" font-family="Helvetica,sans-Serif" font-size="10.00" fill="grey">+copy_move_destroy</text>
<text text-anchor="start" x="78" y="-133" font-family="Helvetica,sans-Serif" font-size="10.00" fill="grey">  _functions</text>
</g>
</g>
</svg>
</svg>

<style type='text/css'>
<![CDATA[
[data-mouse-over-selected='false'] { opacity: 0.7; }
[data-mouse-over-selected='true']  { opacity: 1.0; }
]]>
</style>
<script type="application/ecmascript"><![CDATA[
document.addEventListener('DOMContentLoaded', (event) => {
  highlightEdges();
  highlightAdjacentNodes();
});
]]></script>
</svg>
