<?xml version="1.0" encoding="UTF-8" standalone="no"?>
<!DOCTYPE svg PUBLIC "-//W3C//DTD SVG 1.1//EN"
 "http://www.w3.org/Graphics/SVG/1.1/DTD/svg11.dtd">
<!-- Generated by graphviz version 2.43.0 (0)
 -->
<!-- Title: guanaqo::ReverseCircularIndexIterator&lt; IndexT &gt; Pages: 1 -->
<svg width="177pt" height="459pt"
 viewBox="0.00 0.00 177.00 459.00" xmlns="http://www.w3.org/2000/svg" xmlns:xlink="http://www.w3.org/1999/xlink">
<g id="graph0" class="graph" transform="scale(1 1) rotate(0) translate(4 455)">
<title>guanaqo::ReverseCircularIndexIterator&lt; IndexT &gt;</title>
<!-- Node1 -->
<g id="Node000001" class="node">
<title>Node1</title>
<g id="a_Node000001"><a xlink:title=" ">
<polygon fill="#999999" stroke="transparent" points="169,-165 0,-165 0,0 169,0 169,-165"/>
<text text-anchor="start" x="22" y="-152.5" font-family="Helvetica,sans-Serif" font-size="10.00">guanaqo::ReverseCircular</text>
<text text-anchor="start" x="25.5" y="-141.5" font-family="Helvetica,sans-Serif" font-size="10.00">IndexIterator&lt; IndexT &gt;</text>
<text text-anchor="start" x="83" y="-126.5" font-family="Helvetica,sans-Serif" font-size="10.00"> </text>
<text text-anchor="start" x="4.5" y="-111.5" font-family="Helvetica,sans-Serif" font-size="10.00">+</text>
<text text-anchor="start" x="17.5" y="-111.5" font-family="Helvetica,sans-Serif" font-size="10.00">ReverseCircularIndexIterator()</text>
<text text-anchor="start" x="4.5" y="-96.5" font-family="Helvetica,sans-Serif" font-size="10.00">+</text>
<text text-anchor="start" x="17.5" y="-96.5" font-family="Helvetica,sans-Serif" font-size="10.00">ReverseCircularIndexIterator()</text>
<text text-anchor="start" x="4.5" y="-81.5" font-family="Helvetica,sans-Serif" font-size="10.00">+</text>
<text text-anchor="start" x="17.5" y="-81.5" font-family="Helvetica,sans-Serif" font-size="10.00">ReverseCircularIndexIterator()</text>
<text text-anchor="start" x="4.5" y="-66.5" font-family="Helvetica,sans-Serif" font-size="10.00">+</text>
<text text-anchor="start" x="17.5" y="-66.5" font-family="Helvetica,sans-Serif" font-size="10.00">operator*()</text>
<text text-anchor="start" x="4.5" y="-51.5" font-family="Helvetica,sans-Serif" font-size="10.00">+</text>
<text text-anchor="start" x="17.5" y="-51.5" font-family="Helvetica,sans-Serif" font-size="10.00">operator++()</text>
<text text-anchor="start" x="4.5" y="-36.5" font-family="Helvetica,sans-Serif" font-size="10.00">+</text>
<text text-anchor="start" x="17.5" y="-36.5" font-family="Helvetica,sans-Serif" font-size="10.00">operator&#45;&#45;()</text>
<text text-anchor="start" x="4.5" y="-21.5" font-family="Helvetica,sans-Serif" font-size="10.00">+</text>
<text text-anchor="start" x="17.5" y="-21.5" font-family="Helvetica,sans-Serif" font-size="10.00">operator++()</text>
<text text-anchor="start" x="4.5" y="-6.5" font-family="Helvetica,sans-Serif" font-size="10.00">+</text>
<text text-anchor="start" x="17.5" y="-6.5" font-family="Helvetica,sans-Serif" font-size="10.00">operator&#45;&#45;()</text>
<polygon fill="#666666" stroke="#666666" points="0.5,-136.5 0.5,-136.5 169.5,-136.5 169.5,-136.5 0.5,-136.5"/>
<polygon fill="#666666" stroke="#666666" points="0.5,-121.5 0.5,-121.5 169.5,-121.5 169.5,-121.5 0.5,-121.5"/>
<polygon fill="none" stroke="#666666" points="0,0 0,-165 169,-165 169,0 0,0"/>
</a>
</g>
</g>
<!-- Node2 -->
<g id="Node000002" class="node">
<title>Node2</title>
<g id="a_Node000002"><a xlink:href="structguanaqo_1_1CircularIndexIterator.html" target="_top" xlink:title=" ">
<polygon fill="white" stroke="transparent" points="164,-323 5,-323 5,-218 164,-218 164,-323"/>
<text text-anchor="start" x="10.5" y="-310.5" font-family="Helvetica,sans-Serif" font-size="10.00">guanaqo::CircularIndexIterator</text>
<text text-anchor="start" x="59" y="-299.5" font-family="Helvetica,sans-Serif" font-size="10.00">&lt; size_t &gt;</text>
<text text-anchor="start" x="16.5" y="-284.5" font-family="Helvetica,sans-Serif" font-size="10.00">+</text>
<text text-anchor="start" x="36.5" y="-284.5" font-family="Helvetica,sans-Serif" font-size="10.00">max</text>
<text text-anchor="start" x="16.5" y="-269.5" font-family="Helvetica,sans-Serif" font-size="10.00">+</text>
<text text-anchor="start" x="36.5" y="-269.5" font-family="Helvetica,sans-Serif" font-size="10.00">CircularIndexIterator()</text>
<text text-anchor="start" x="16.5" y="-254.5" font-family="Helvetica,sans-Serif" font-size="10.00">+</text>
<text text-anchor="start" x="36.5" y="-254.5" font-family="Helvetica,sans-Serif" font-size="10.00">operator*()</text>
<text text-anchor="start" x="16.5" y="-239.5" font-family="Helvetica,sans-Serif" font-size="10.00">+</text>
<text text-anchor="start" x="36.5" y="-239.5" font-family="Helvetica,sans-Serif" font-size="10.00">operator++()</text>
<text text-anchor="start" x="16.5" y="-224.5" font-family="Helvetica,sans-Serif" font-size="10.00">+</text>
<text text-anchor="start" x="36.5" y="-224.5" font-family="Helvetica,sans-Serif" font-size="10.00">operator&#45;&#45;()</text>
<polygon fill="#666666" stroke="#666666" points="5.5,-294.5 5.5,-294.5 164.5,-294.5 164.5,-294.5 5.5,-294.5"/>
<polygon fill="#666666" stroke="#666666" points="5.5,-279.5 5.5,-279.5 34.5,-279.5 34.5,-279.5 5.5,-279.5"/>
<polygon fill="#666666" stroke="#666666" points="34.5,-279.5 34.5,-279.5 164.5,-279.5 164.5,-279.5 34.5,-279.5"/>
<polygon fill="none" stroke="#666666" points="5,-218 5,-323 164,-323 164,-218 5,-218"/>
</a>
</g>
</g>
<!-- Node2&#45;&gt;Node1 -->
<g id="edge1_Node000001_Node000002" class="edge">
<title>Node2&#45;&gt;Node1</title>
<g id="a_edge1_Node000001_Node000002"><a xlink:title=" ">
<path fill="none" stroke="#63b8ff" d="M84.5,-217.69C84.5,-205.13 84.5,-191.33 84.5,-177.49"/>
<polygon fill="none" stroke="#63b8ff" points="84.5,-177.35 80.5,-171.35 84.5,-165.35 88.5,-171.35 84.5,-177.35"/>
</a>
</g>
<text text-anchor="start" x="88" y="-188.5" font-family="Helvetica,sans-Serif" font-size="10.00" fill="grey">+forwardit</text>
</g>
<!-- Node3 -->
<g id="Node000003" class="node">
<title>Node3</title>
<g id="a_Node000003"><a xlink:href="structguanaqo_1_1CircularIndices.html" target="_top" xlink:title=" ">
<polygon fill="white" stroke="transparent" points="150,-451 19,-451 19,-376 150,-376 150,-451"/>
<text text-anchor="start" x="24.5" y="-438.5" font-family="Helvetica,sans-Serif" font-size="10.00">guanaqo::CircularIndices</text>
<text text-anchor="start" x="60" y="-427.5" font-family="Helvetica,sans-Serif" font-size="10.00">&lt; Index &gt;</text>
<text text-anchor="start" x="31" y="-412.5" font-family="Helvetica,sans-Serif" font-size="10.00">+</text>
<text text-anchor="start" x="51.5" y="-412.5" font-family="Helvetica,sans-Serif" font-size="10.00">zerobased</text>
<text text-anchor="start" x="31" y="-397.5" font-family="Helvetica,sans-Serif" font-size="10.00">+</text>
<text text-anchor="start" x="51.5" y="-397.5" font-family="Helvetica,sans-Serif" font-size="10.00">circular</text>
<text text-anchor="start" x="31" y="-382.5" font-family="Helvetica,sans-Serif" font-size="10.00">+</text>
<text text-anchor="start" x="51.5" y="-382.5" font-family="Helvetica,sans-Serif" font-size="10.00">CircularIndices()</text>
<polygon fill="#666666" stroke="#666666" points="19.5,-422.5 19.5,-422.5 150.5,-422.5 150.5,-422.5 19.5,-422.5"/>
<polygon fill="#666666" stroke="#666666" points="19.5,-392.5 19.5,-392.5 49.5,-392.5 49.5,-392.5 19.5,-392.5"/>
<polygon fill="#666666" stroke="#666666" points="49.5,-392.5 49.5,-392.5 150.5,-392.5 150.5,-392.5 49.5,-392.5"/>
<polygon fill="none" stroke="#666666" points="19,-376 19,-451 150,-451 150,-376 19,-376"/>
</a>
</g>
</g>
<!-- Node3&#45;&gt;Node2 -->
<g id="edge2_Node000002_Node000003" class="edge">
<title>Node3&#45;&gt;Node2</title>
<g id="a_edge2_Node000002_Node000003"><a xlink:title=" ">
<path fill="none" stroke="#63b8ff" d="M84.5,-375.82C84.5,-363.39 84.5,-349.12 84.5,-335.2"/>
<polygon fill="none" stroke="#63b8ff" points="84.5,-335.12 80.5,-329.12 84.5,-323.12 88.5,-329.12 84.5,-335.12"/>
</a>
</g>
<text text-anchor="start" x="87.5" y="-346.5" font-family="Helvetica,sans-Serif" font-size="10.00" fill="grey">+i</text>
</g>
</g>
</svg>
