<?xml version="1.0" encoding="UTF-8" standalone="no"?>
<!DOCTYPE svg PUBLIC "-//W3C//DTD SVG 1.1//EN"
 "http://www.w3.org/Graphics/SVG/1.1/DTD/svg11.dtd">
<!-- Generated by graphviz version 2.43.0 (0)
 -->
<!-- Title: guanaqo::copyable_unique_ptr::copyable_unique_ptr Pages: 1 -->
<svg width="338pt" height="182pt"
 viewBox="0.00 0.00 338.00 182.00" xmlns="http://www.w3.org/2000/svg" xmlns:xlink="http://www.w3.org/1999/xlink">
<g id="graph0" class="graph" transform="scale(1 1) rotate(0) translate(4 178)">
<title>guanaqo::copyable_unique_ptr::copyable_unique_ptr</title>
<!-- Node1 -->
<g id="Node000001" class="node">
<title>Node1</title>
<g id="a_Node000001"><a xlink:title=" ">
<polygon fill="#999999" stroke="#666666" points="330,-102 183,-102 183,-72 330,-72 330,-102"/>
<text text-anchor="start" x="191" y="-90" font-family="Helvetica,sans-Serif" font-size="10.00">guanaqo::copyable_unique</text>
<text text-anchor="middle" x="256.5" y="-79" font-family="Helvetica,sans-Serif" font-size="10.00">_ptr::copyable_unique_ptr</text>
</a>
</g>
</g>
<!-- Node2 -->
<g id="Node000002" class="node">
<title>Node2</title>
<g id="a_Node000002"><a xlink:href="structguanaqo_1_1copyable__unique__ptr.html#a2b73502efdd36ed0eec417fec24ecda7" target="_top" xlink:title=" ">
<polygon fill="white" stroke="#666666" points="147,-174 0,-174 0,-144 147,-144 147,-174"/>
<text text-anchor="start" x="8" y="-162" font-family="Helvetica,sans-Serif" font-size="10.00">guanaqo::copyable_unique</text>
<text text-anchor="middle" x="73.5" y="-151" font-family="Helvetica,sans-Serif" font-size="10.00">_ptr::copyable_unique_ptr</text>
</a>
</g>
</g>
<!-- Node1&#45;&gt;Node2 -->
<g id="edge1_Node000001_Node000002" class="edge">
<title>Node1&#45;&gt;Node2</title>
<g id="a_edge1_Node000001_Node000002"><a xlink:title=" ">
<path fill="none" stroke="#63b8ff" d="M214.37,-106.32C194.25,-115.48 169.56,-126.3 147,-135 139.08,-138.05 130.59,-141.08 122.31,-143.9"/>
<polygon fill="#63b8ff" stroke="#63b8ff" points="215.93,-109.46 223.56,-102.11 213.01,-103.09 215.93,-109.46"/>
</a>
</g>
</g>
<!-- Node3 -->
<g id="Node000003" class="node">
<title>Node3</title>
<g id="a_Node000003"><a xlink:href="structguanaqo_1_1copyable__unique__ptr.html#a319217cb6fb464acf10133e303486cfa" target="_top" xlink:title=" ">
<polygon fill="white" stroke="#666666" points="147,-126 0,-126 0,-96 147,-96 147,-126"/>
<text text-anchor="start" x="8" y="-114" font-family="Helvetica,sans-Serif" font-size="10.00">guanaqo::copyable_unique</text>
<text text-anchor="middle" x="73.5" y="-103" font-family="Helvetica,sans-Serif" font-size="10.00">_ptr::copyable_unique_ptr</text>
</a>
</g>
</g>
<!-- Node1&#45;&gt;Node3 -->
<g id="edge2_Node000001_Node000003" class="edge">
<title>Node1&#45;&gt;Node3</title>
<g id="a_edge2_Node000001_Node000003"><a xlink:title=" ">
<path fill="none" stroke="#63b8ff" d="M172.88,-97.95C164.28,-99.1 155.58,-100.25 147.09,-101.37"/>
<polygon fill="#63b8ff" stroke="#63b8ff" points="173.47,-101.41 182.92,-96.62 172.55,-94.47 173.47,-101.41"/>
</a>
</g>
</g>
<!-- Node4 -->
<g id="Node000004" class="node">
<title>Node4</title>
<g id="a_Node000004"><a xlink:href="structguanaqo_1_1copyable__unique__ptr.html#ab35ec9c3ee8329be320f67c43d29cbe3" target="_top" xlink:title=" ">
<polygon fill="white" stroke="#666666" points="147,-78 0,-78 0,-48 147,-48 147,-78"/>
<text text-anchor="start" x="8" y="-66" font-family="Helvetica,sans-Serif" font-size="10.00">guanaqo::copyable_unique</text>
<text text-anchor="middle" x="73.5" y="-55" font-family="Helvetica,sans-Serif" font-size="10.00">_ptr::operator=</text>
</a>
</g>
</g>
<!-- Node1&#45;&gt;Node4 -->
<g id="edge3_Node000001_Node000004" class="edge">
<title>Node1&#45;&gt;Node4</title>
<g id="a_edge3_Node000001_Node000004"><a xlink:title=" ">
<path fill="none" stroke="#63b8ff" d="M172.88,-76.05C164.28,-74.9 155.58,-73.75 147.09,-72.63"/>
<polygon fill="#63b8ff" stroke="#63b8ff" points="172.55,-79.53 182.92,-77.38 173.47,-72.59 172.55,-79.53"/>
</a>
</g>
</g>
<!-- Node5 -->
<g id="Node000005" class="node">
<title>Node5</title>
<g id="a_Node000005"><a xlink:href="structguanaqo_1_1copyable__unique__ptr.html#a3ce7f99682b9e8e9694efa800975b790" target="_top" xlink:title=" ">
<polygon fill="white" stroke="#666666" points="147,-30 0,-30 0,0 147,0 147,-30"/>
<text text-anchor="start" x="8" y="-18" font-family="Helvetica,sans-Serif" font-size="10.00">guanaqo::copyable_unique</text>
<text text-anchor="middle" x="73.5" y="-7" font-family="Helvetica,sans-Serif" font-size="10.00">_ptr::operator=</text>
</a>
</g>
</g>
<!-- Node1&#45;&gt;Node5 -->
<g id="edge4_Node000001_Node000005" class="edge">
<title>Node1&#45;&gt;Node5</title>
<g id="a_edge4_Node000001_Node000005"><a xlink:title=" ">
<path fill="none" stroke="#63b8ff" d="M214.37,-67.68C194.25,-58.52 169.56,-47.7 147,-39 139.08,-35.95 130.59,-32.92 122.31,-30.1"/>
<polygon fill="#63b8ff" stroke="#63b8ff" points="213.01,-70.91 223.56,-71.89 215.93,-64.54 213.01,-70.91"/>
</a>
</g>
</g>
</g>
</svg>
