<?xml version="1.0" encoding="UTF-8" standalone="no"?>
<!DOCTYPE svg PUBLIC "-//W3C//DTD SVG 1.1//EN"
 "http://www.w3.org/Graphics/SVG/1.1/DTD/svg11.dtd">
<!-- Generated by graphviz version 2.43.0 (0)
 -->
<!-- Title: guanaqo::io::CSVReader::next_line Pages: 1 -->
<svg width="676pt" height="118pt"
 viewBox="0.00 0.00 676.00 117.74" xmlns="http://www.w3.org/2000/svg" xmlns:xlink="http://www.w3.org/1999/xlink">
<g id="graph0" class="graph" transform="scale(1 1) rotate(0) translate(4 113.74)">
<title>guanaqo::io::CSVReader::next_line</title>
<!-- Node1 -->
<g id="Node000001" class="node">
<title>Node1</title>
<g id="a_Node000001"><a xlink:title=" ">
<polygon fill="#999999" stroke="#666666" points="668,-70 534,-70 534,-40 668,-40 668,-70"/>
<text text-anchor="start" x="542" y="-58" font-family="Helvetica,sans-Serif" font-size="10.00">guanaqo::io::CSVReader</text>
<text text-anchor="middle" x="601" y="-47" font-family="Helvetica,sans-Serif" font-size="10.00">::next_line</text>
</a>
</g>
</g>
<!-- Node2 -->
<g id="Node000002" class="node">
<title>Node2</title>
<g id="a_Node000002"><a xlink:href="group__io.html#ga7b55c259788953b68dc075f6c3f3859a" target="_top" xlink:title=" ">
<polygon fill="white" stroke="#666666" points="316.5,-104.5 193.5,-104.5 193.5,-85.5 316.5,-85.5 316.5,-104.5"/>
<text text-anchor="middle" x="255" y="-92.5" font-family="Helvetica,sans-Serif" font-size="10.00">guanaqo::io::csv_read</text>
</a>
</g>
</g>
<!-- Node1&#45;&gt;Node2 -->
<g id="edge1_Node000001_Node000002" class="edge">
<title>Node1&#45;&gt;Node2</title>
<g id="a_edge1_Node000001_Node000002"><a xlink:title=" ">
<path fill="none" stroke="#63b8ff" d="M565.68,-74.89C546.46,-84.88 521.67,-95.91 498,-101 437.29,-114.06 366.05,-110.04 316.65,-104.31"/>
<polygon fill="#63b8ff" stroke="#63b8ff" points="567.46,-77.91 574.63,-70.1 564.16,-71.73 567.46,-77.91"/>
</a>
</g>
</g>
<!-- Node4 -->
<g id="Node000004" class="node">
<title>Node4</title>
<g id="a_Node000004"><a xlink:href="group__io.html#ga087c9290a0520b3f1b02b6787c921604" target="_top" xlink:title=" ">
<polygon fill="white" stroke="#666666" points="328,-67.5 182,-67.5 182,-48.5 328,-48.5 328,-67.5"/>
<text text-anchor="middle" x="255" y="-55.5" font-family="Helvetica,sans-Serif" font-size="10.00">guanaqo::io::csv_read_row</text>
</a>
</g>
</g>
<!-- Node1&#45;&gt;Node4 -->
<g id="edge3_Node000001_Node000004" class="edge">
<title>Node1&#45;&gt;Node4</title>
<g id="a_edge3_Node000001_Node000004"><a xlink:title=" ">
<path fill="none" stroke="#63b8ff" d="M523.74,-53.34C515.06,-53.2 506.34,-53.08 498,-53 438.45,-52.42 423.54,-51.62 364,-53 352.37,-53.27 340.03,-53.7 328.02,-54.2"/>
<polygon fill="#63b8ff" stroke="#63b8ff" points="523.83,-56.84 533.89,-53.51 523.95,-49.84 523.83,-56.84"/>
</a>
</g>
</g>
<!-- Node6 -->
<g id="Node000006" class="node">
<title>Node6</title>
<g id="a_Node000006"><a xlink:href="group__io.html#ga373fb78c94722a8266ff76164178ee3e" target="_top" xlink:title=" ">
<polygon fill="white" stroke="#666666" points="316.5,-30 193.5,-30 193.5,0 316.5,0 316.5,-30"/>
<text text-anchor="start" x="201.5" y="-18" font-family="Helvetica,sans-Serif" font-size="10.00">guanaqo::io::csv_read</text>
<text text-anchor="middle" x="255" y="-7" font-family="Helvetica,sans-Serif" font-size="10.00">_row_std_vector</text>
</a>
</g>
</g>
<!-- Node1&#45;&gt;Node6 -->
<g id="edge5_Node000001_Node000006" class="edge">
<title>Node1&#45;&gt;Node6</title>
<g id="a_edge5_Node000001_Node000006"><a xlink:title=" ">
<path fill="none" stroke="#63b8ff" d="M523.5,-46.1C461.14,-38.85 374.27,-28.75 316.65,-22.05"/>
<polygon fill="#63b8ff" stroke="#63b8ff" points="523.34,-49.61 533.67,-47.29 524.14,-42.66 523.34,-49.61"/>
</a>
</g>
</g>
<!-- Node7 -->
<g id="Node000007" class="node">
<title>Node7</title>
<g id="a_Node000007"><a xlink:href="structguanaqo_1_1io_1_1CSVReader.html#a1ec0f1dda005a6206400f818159cf09f" target="_top" xlink:title=" ">
<polygon fill="white" stroke="#666666" points="498,-92 364,-92 364,-62 498,-62 498,-92"/>
<text text-anchor="start" x="372" y="-80" font-family="Helvetica,sans-Serif" font-size="10.00">guanaqo::io::CSVReader</text>
<text text-anchor="middle" x="431" y="-69" font-family="Helvetica,sans-Serif" font-size="10.00">::skip_comments</text>
</a>
</g>
</g>
<!-- Node1&#45;&gt;Node7 -->
<g id="edge6_Node000001_Node000007" class="edge">
<title>Node1&#45;&gt;Node7</title>
<g id="a_edge6_Node000001_Node000007"><a xlink:title=" ">
<path fill="none" stroke="#63b8ff" d="M523.68,-64.99C515.17,-66.11 506.56,-67.24 498.19,-68.33"/>
<polygon fill="#63b8ff" stroke="#63b8ff" points="524.14,-68.46 533.6,-63.69 523.23,-61.52 524.14,-68.46"/>
</a>
</g>
</g>
<!-- Node3 -->
<g id="Node000003" class="node">
<title>Node3</title>
<g id="a_Node000003"><a xlink:href="group__io.html#ga6bbbe06b5fadeadd6d20822460efa6a1" target="_top" xlink:title=" ">
<polygon fill="white" stroke="#666666" points="134.5,-104.5 11.5,-104.5 11.5,-85.5 134.5,-85.5 134.5,-104.5"/>
<text text-anchor="middle" x="73" y="-92.5" font-family="Helvetica,sans-Serif" font-size="10.00">guanaqo::io::csv_read</text>
</a>
</g>
</g>
<!-- Node2&#45;&gt;Node3 -->
<g id="edge2_Node000002_Node000003" class="edge">
<title>Node2&#45;&gt;Node3</title>
<g id="a_edge2_Node000002_Node000003"><a xlink:title=" ">
<path fill="none" stroke="#63b8ff" d="M182.97,-95C167.01,-95 150.22,-95 134.73,-95"/>
<polygon fill="#63b8ff" stroke="#63b8ff" points="183.31,-98.5 193.31,-95 183.31,-91.5 183.31,-98.5"/>
</a>
</g>
</g>
<!-- Node5 -->
<g id="Node000005" class="node">
<title>Node5</title>
<g id="a_Node000005"><a xlink:href="group__io.html#ga96150e75b0b710f811a29db34a2ceee2" target="_top" xlink:title=" ">
<polygon fill="white" stroke="#666666" points="146,-67.5 0,-67.5 0,-48.5 146,-48.5 146,-67.5"/>
<text text-anchor="middle" x="73" y="-55.5" font-family="Helvetica,sans-Serif" font-size="10.00">guanaqo::io::csv_read_row</text>
</a>
</g>
</g>
<!-- Node4&#45;&gt;Node5 -->
<g id="edge4_Node000004_Node000005" class="edge">
<title>Node4&#45;&gt;Node5</title>
<g id="a_edge4_Node000004_Node000005"><a xlink:title=" ">
<path fill="none" stroke="#63b8ff" d="M171.56,-58C163.09,-58 154.54,-58 146.19,-58"/>
<polygon fill="#63b8ff" stroke="#63b8ff" points="171.82,-61.5 181.82,-58 171.82,-54.5 171.82,-61.5"/>
</a>
</g>
</g>
<!-- Node7&#45;&gt;Node2 -->
<g id="edge7_Node000007_Node000002" class="edge">
<title>Node7&#45;&gt;Node2</title>
<g id="a_edge7_Node000007_Node000002"><a xlink:title=" ">
<path fill="none" stroke="#63b8ff" d="M353.46,-84.92C341.15,-86.19 328.54,-87.5 316.66,-88.72"/>
<polygon fill="#63b8ff" stroke="#63b8ff" points="354.13,-88.37 363.72,-83.86 353.41,-81.4 354.13,-88.37"/>
</a>
</g>
</g>
<!-- Node7&#45;&gt;Node4 -->
<g id="edge8_Node000007_Node000004" class="edge">
<title>Node7&#45;&gt;Node4</title>
<g id="a_edge8_Node000007_Node000004"><a xlink:title=" ">
<path fill="none" stroke="#63b8ff" d="M353.53,-68.65C345.11,-67.73 336.55,-66.8 328.18,-65.88"/>
<polygon fill="#63b8ff" stroke="#63b8ff" points="353.4,-72.16 363.72,-69.76 354.16,-65.2 353.4,-72.16"/>
</a>
</g>
</g>
<!-- Node7&#45;&gt;Node6 -->
<g id="edge9_Node000007_Node000006" class="edge">
<title>Node7&#45;&gt;Node6</title>
<g id="a_edge9_Node000007_Node000006"><a xlink:title=" ">
<path fill="none" stroke="#63b8ff" d="M379.44,-58.51C363.05,-52.55 344.77,-45.95 328,-40 318.9,-36.77 309.13,-33.35 299.82,-30.11"/>
<polygon fill="#63b8ff" stroke="#63b8ff" points="378.26,-61.8 388.85,-61.93 380.65,-55.22 378.26,-61.8"/>
</a>
</g>
</g>
</g>
</svg>
