<?xml version="1.0" encoding="UTF-8" standalone="no"?>
<!DOCTYPE svg PUBLIC "-//W3C//DTD SVG 1.1//EN"
 "http://www.w3.org/Graphics/SVG/1.1/DTD/svg11.dtd">
<!-- Generated by graphviz version 2.43.0 (0)
 -->
<!-- Title: guanaqo::linalg::sparsity::SparsityConverter&lt; Dense, SparseCSC&lt; Index, StorageIndex &gt; &gt;::convert_values Pages: 1 -->
<svg width="579pt" height="149pt"
 viewBox="0.00 0.00 579.00 149.29" xmlns="http://www.w3.org/2000/svg" xmlns:xlink="http://www.w3.org/1999/xlink">
<g id="graph0" class="graph" transform="scale(1 1) rotate(0) translate(4 145.29)">
<title>guanaqo::linalg::sparsity::SparsityConverter&lt; Dense, SparseCSC&lt; Index, StorageIndex &gt; &gt;::convert_values</title>
<!-- Node1 -->
<g id="Node000001" class="node">
<title>Node1</title>
<g id="a_Node000001"><a xlink:title=" ">
<polygon fill="#999999" stroke="#666666" points="181,-122 0,-122 0,-70 181,-70 181,-122"/>
<text text-anchor="start" x="8" y="-110" font-family="Helvetica,sans-Serif" font-size="10.00">guanaqo::linalg::sparsity</text>
<text text-anchor="start" x="8" y="-99" font-family="Helvetica,sans-Serif" font-size="10.00">::SparsityConverter&lt; Dense,</text>
<text text-anchor="start" x="8" y="-88" font-family="Helvetica,sans-Serif" font-size="10.00"> SparseCSC&lt; Index, StorageIndex</text>
<text text-anchor="middle" x="90.5" y="-77" font-family="Helvetica,sans-Serif" font-size="10.00"> &gt; &gt;::convert_values</text>
</a>
</g>
</g>
<!-- Node2 -->
<g id="Node000002" class="node">
<title>Node2</title>
<g id="a_Node000002"><a xlink:href="namespaceguanaqo_1_1linalg_1_1sparsity.html#af32001896a23ba0b0d0237c9046f4315" target="_top" xlink:title=" ">
<polygon fill="white" stroke="#666666" points="571,-103 434,-103 434,-73 571,-73 571,-103"/>
<text text-anchor="start" x="442" y="-91" font-family="Helvetica,sans-Serif" font-size="10.00">guanaqo::linalg::sparsity</text>
<text text-anchor="middle" x="502.5" y="-80" font-family="Helvetica,sans-Serif" font-size="10.00">::cast_sz</text>
</a>
</g>
</g>
<!-- Node1&#45;&gt;Node2 -->
<g id="edge1_Node000001_Node000002" class="edge">
<title>Node1&#45;&gt;Node2</title>
<g id="a_edge1_Node000001_Node000002"><a xlink:title=" ">
<path fill="none" stroke="#63b8ff" d="M172.51,-122.05C187.17,-125.77 202.43,-129.01 217,-131 296.7,-141.91 319.11,-146.74 398,-131 420.96,-126.42 445.2,-116.65 464.44,-107.58"/>
<polygon fill="#63b8ff" stroke="#63b8ff" points="465.99,-110.71 473.46,-103.2 462.94,-104.42 465.99,-110.71"/>
</a>
</g>
</g>
<!-- Node3 -->
<g id="Node000003" class="node">
<title>Node3</title>
<g id="a_Node000003"><a xlink:href="structguanaqo_1_1linalg_1_1sparsity_1_1SparsityConverter_3_01Dense_00_01SparseCSC_3_01Index_00_01StorageIndex_01_4_01_4.html#ae885cfd4e83b4d54ded1213133ce71ae" target="_top" xlink:title=" ">
<polygon fill="white" stroke="#666666" points="398,-122 217,-122 217,-70 398,-70 398,-122"/>
<text text-anchor="start" x="225" y="-110" font-family="Helvetica,sans-Serif" font-size="10.00">guanaqo::linalg::sparsity</text>
<text text-anchor="start" x="225" y="-99" font-family="Helvetica,sans-Serif" font-size="10.00">::SparsityConverter&lt; Dense,</text>
<text text-anchor="start" x="225" y="-88" font-family="Helvetica,sans-Serif" font-size="10.00"> SparseCSC&lt; Index, StorageIndex</text>
<text text-anchor="middle" x="307.5" y="-77" font-family="Helvetica,sans-Serif" font-size="10.00"> &gt; &gt;::nnz_from</text>
</a>
</g>
</g>
<!-- Node1&#45;&gt;Node3 -->
<g id="edge2_Node000001_Node000003" class="edge">
<title>Node1&#45;&gt;Node3</title>
<g id="a_edge2_Node000001_Node000003"><a xlink:title=" ">
<path fill="none" stroke="#63b8ff" d="M181.12,-96C189.48,-96 197.98,-96 206.42,-96"/>
<polygon fill="#63b8ff" stroke="#63b8ff" points="206.68,-99.5 216.68,-96 206.68,-92.5 206.68,-99.5"/>
</a>
</g>
</g>
<!-- Node4 -->
<g id="Node000004" class="node">
<title>Node4</title>
<g id="a_Node000004"><a xlink:href="structguanaqo_1_1linalg_1_1sparsity_1_1SparsityConverter_3_01Dense_00_01SparseCSC_3_01Index_00_01StorageIndex_01_4_01_4.html#a225b411a1d768126f3d598611da688b4" target="_top" xlink:title=" ">
<polygon fill="white" stroke="#666666" points="398,-52 217,-52 217,0 398,0 398,-52"/>
<text text-anchor="start" x="225" y="-40" font-family="Helvetica,sans-Serif" font-size="10.00">guanaqo::linalg::sparsity</text>
<text text-anchor="start" x="225" y="-29" font-family="Helvetica,sans-Serif" font-size="10.00">::SparsityConverter&lt; Dense,</text>
<text text-anchor="start" x="225" y="-18" font-family="Helvetica,sans-Serif" font-size="10.00"> SparseCSC&lt; Index, StorageIndex</text>
<text text-anchor="middle" x="307.5" y="-7" font-family="Helvetica,sans-Serif" font-size="10.00"> &gt; &gt;::work_size</text>
</a>
</g>
</g>
<!-- Node1&#45;&gt;Node4 -->
<g id="edge3_Node000001_Node000004" class="edge">
<title>Node1&#45;&gt;Node4</title>
<g id="a_edge3_Node000001_Node000004"><a xlink:title=" ">
<path fill="none" stroke="#63b8ff" d="M171.56,-69.93C186.25,-65.15 201.67,-60.13 216.63,-55.26"/>
<polygon fill="#63b8ff" stroke="#63b8ff" points="217.95,-58.51 226.38,-52.09 215.78,-51.86 217.95,-58.51"/>
</a>
</g>
</g>
<!-- Node4&#45;&gt;Node2 -->
<g id="edge4_Node000004_Node000002" class="edge">
<title>Node4&#45;&gt;Node2</title>
<g id="a_edge4_Node000004_Node000002"><a xlink:title=" ">
<path fill="none" stroke="#63b8ff" d="M389.51,-52.02C408.05,-57.98 427.37,-64.19 444.65,-69.74"/>
<polygon fill="#63b8ff" stroke="#63b8ff" points="443.97,-73.19 454.56,-72.92 446.11,-66.53 443.97,-73.19"/>
</a>
</g>
</g>
</g>
</svg>
