<?xml version="1.0" encoding="UTF-8" standalone="no"?>
<!DOCTYPE svg PUBLIC "-//W3C//DTD SVG 1.1//EN"
 "http://www.w3.org/Graphics/SVG/1.1/DTD/svg11.dtd">
<!-- Generated by graphviz version 2.43.0 (0)
 -->
<!-- Title: guanaqo::linalg::MatrixView&lt; T &gt; Pages: 1 -->
<svg width="184pt" height="200pt"
 viewBox="0.00 0.00 184.00 200.00" xmlns="http://www.w3.org/2000/svg" xmlns:xlink="http://www.w3.org/1999/xlink">
<g id="graph0" class="graph" transform="scale(1 1) rotate(0) translate(4 196)">
<title>guanaqo::linalg::MatrixView&lt; T &gt;</title>
<!-- Node1 -->
<g id="Node000001" class="node">
<title>Node1</title>
<g id="a_Node000001"><a xlink:title="Non&#45;owning view of dense and various formats of sparse matrix.">
<polygon fill="#999999" stroke="transparent" points="176,-79 0,-79 0,0 176,0 176,-79"/>
<text text-anchor="start" x="5" y="-66.5" font-family="Helvetica,sans-Serif" font-size="10.00">guanaqo::linalg::MatrixView&lt; T &gt;</text>
<text text-anchor="start" x="26.5" y="-51.5" font-family="Helvetica,sans-Serif" font-size="10.00">+</text>
<text text-anchor="start" x="62" y="-51.5" font-family="Helvetica,sans-Serif" font-size="10.00">values</text>
<text text-anchor="start" x="26.5" y="-36.5" font-family="Helvetica,sans-Serif" font-size="10.00">+</text>
<text text-anchor="start" x="62" y="-36.5" font-family="Helvetica,sans-Serif" font-size="10.00">MatrixView()</text>
<text text-anchor="start" x="26.5" y="-21.5" font-family="Helvetica,sans-Serif" font-size="10.00">+</text>
<text text-anchor="start" x="62" y="-21.5" font-family="Helvetica,sans-Serif" font-size="10.00">MatrixView()</text>
<text text-anchor="start" x="26.5" y="-6.5" font-family="Helvetica,sans-Serif" font-size="10.00">+</text>
<text text-anchor="start" x="62" y="-6.5" font-family="Helvetica,sans-Serif" font-size="10.00">MatrixView()</text>
<polygon fill="#666666" stroke="#666666" points="0,-61.5 0,-61.5 176,-61.5 176,-61.5 0,-61.5"/>
<polygon fill="#666666" stroke="#666666" points="0,-46.5 0,-46.5 60,-46.5 60,-46.5 0,-46.5"/>
<polygon fill="#666666" stroke="#666666" points="60,-46.5 60,-46.5 176,-46.5 176,-46.5 60,-46.5"/>
<polygon fill="none" stroke="#666666" points="0,0 0,-79 176,-79 176,0 0,0"/>
</a>
</g>
</g>
<!-- Node2 -->
<g id="Node000002" class="node">
<title>Node2</title>
<g id="a_Node000002"><a xlink:href="structguanaqo_1_1linalg_1_1sparsity_1_1Sparsity.html" target="_top" xlink:title="Stores any of the supported sparsity patterns.">
<polygon fill="white" stroke="transparent" points="153.5,-192 22.5,-192 22.5,-132 153.5,-132 153.5,-192"/>
<text text-anchor="start" x="28" y="-180" font-family="Helvetica,sans-Serif" font-size="10.00">guanaqo::linalg::sparsity</text>
<text text-anchor="start" x="65.5" y="-169" font-family="Helvetica,sans-Serif" font-size="10.00">::Sparsity</text>
<text text-anchor="start" x="42.5" y="-154" font-family="Helvetica,sans-Serif" font-size="10.00">+</text>
<text text-anchor="start" x="71" y="-154" font-family="Helvetica,sans-Serif" font-size="10.00">value</text>
<text text-anchor="start" x="42.5" y="-139" font-family="Helvetica,sans-Serif" font-size="10.00">+</text>
<text text-anchor="start" x="71" y="-139" font-family="Helvetica,sans-Serif" font-size="10.00">Sparsity()</text>
<polygon fill="#666666" stroke="#666666" points="23,-164 23,-164 154,-164 154,-164 23,-164"/>
<polygon fill="#666666" stroke="#666666" points="23,-149 23,-149 69,-149 69,-149 23,-149"/>
<polygon fill="#666666" stroke="#666666" points="69,-149 69,-149 154,-149 154,-149 69,-149"/>
<polygon fill="none" stroke="#666666" points="22.5,-132 22.5,-192 153.5,-192 153.5,-132 22.5,-132"/>
</a>
</g>
</g>
<!-- Node2&#45;&gt;Node1 -->
<g id="edge1_Node000001_Node000002" class="edge">
<title>Node2&#45;&gt;Node1</title>
<g id="a_edge1_Node000001_Node000002"><a xlink:title=" ">
<path fill="none" stroke="#63b8ff" d="M88,-131.83C88,-119.78 88,-105.44 88,-91.74"/>
<polygon fill="none" stroke="#63b8ff" points="88,-91.42 84,-85.42 88,-79.42 92,-85.42 88,-91.42"/>
</a>
</g>
<text text-anchor="start" x="91" y="-102.5" font-family="Helvetica,sans-Serif" font-size="10.00" fill="grey">+sparsity</text>
</g>
</g>
</svg>
